<svg width="45" height="48" viewBox="0 0 45 48" fill="none" xmlns="http://www.w3.org/2000/svg">
<g clip-path="url(#clip0_3261_422)">
<path d="M32.9461 41.7913L34.9704 39.8127C34.8081 38.5141 35.0147 36.8987 34.9557 35.5517C34.7066 29.8617 31.7688 21.4459 25.851 19.5697C24.9172 19.2735 23.9374 19.1691 23.0867 18.6363C22.6696 18.3736 21.4942 17.4681 21.3558 17.3488C20.3981 18.4984 19.134 19.5809 17.8405 20.3485C14.4027 22.3868 9.73775 21.1459 9.73775 21.1459C9.50709 22.3309 9.81341 23.5177 10.2803 24.602C11.1734 26.6831 12.777 28.4364 14.4248 29.9343C14.4876 29.0978 14.0945 28.3041 13.8731 27.5253C13.8546 27.4582 13.7863 27.298 13.9118 27.3148C14.22 28.0358 14.5134 28.7624 14.685 29.5337C15.2017 31.8478 15.0301 34.7095 14.7994 37.0739C14.7348 37.7427 14.2034 41.8584 13.8952 42.1267C12.9375 42.4863 11.2841 43.0881 11.1254 44.2656C11.107 44.3997 11.1513 44.9549 11.1882 45.0667C11.238 45.2232 12.1145 45.3089 12.3027 45.3201C13.7144 45.4039 15.1463 45.3033 15.8143 43.8929L17.608 43.5613C17.5526 43.7141 17.5083 43.8762 17.4806 44.0569C17.1836 45.9946 19.7836 44.6401 20.5771 44.4258C22.474 43.9116 24.7585 44.4836 26.7164 44.5618C28.165 44.6196 32.0641 44.6792 32.8447 43.2259C33.2229 42.5217 32.9554 42.1267 32.697 41.4541C32.7893 41.5715 32.8723 41.6833 32.9443 41.7951L32.9461 41.7913ZM25.6941 42.0652L27.2091 41.7857L28.3938 42.2776L25.6941 42.0652Z" fill="#343A40"/>
<path d="M15.4305 16.9464C17.1393 17.4681 19.2318 17.4886 20.972 16.9818C20.5678 15.8732 20.1176 14.5262 20.0899 13.0375C18.3701 12.7115 15.7295 12.2848 15.2423 10.2764L15.5837 10.8614C16.868 12.3221 18.8997 12.2979 20.6638 12.5606C21.5901 12.6984 23.1384 13.2406 23.9909 12.7972C24.2714 12.65 24.4264 12.3314 24.633 12.2047C24.777 12.1171 24.9541 12.1358 25.0778 12.0333C25.2826 11.8638 25.4044 11.2154 25.3213 10.962C25.2807 10.8334 25.1276 10.7701 25.1479 10.621H25.7624L25.659 11.1725C25.9137 10.9601 26.2495 10.3229 26.1351 10.0043C25.9451 9.47708 24.9043 8.94795 24.5703 8.47844C24.1865 7.93813 24.0924 7.10903 23.7252 6.50351C23.0867 5.45084 21.3503 4.58821 20.1748 4.36277C19.3204 4.19881 19.0473 4.54908 18.6727 3.60261C18.3018 2.66359 18.3996 1.87921 18.3129 0.930871C18.1929 -0.399409 17.2943 -0.129254 16.6078 0.655127C16.0044 1.34449 14.6278 4.10938 14.5577 4.99996C14.5152 5.53655 14.6407 5.97252 14.7607 6.48116L14.2846 5.37818C14.0761 5.73218 13.803 6.00233 13.5889 6.36564C12.2769 8.59023 12.0518 11.6402 11.5148 14.1349C12.5961 15.3273 13.8602 16.4638 15.4305 16.9445V16.9464ZM21.8651 6.58735C22.7232 6.87987 22.653 7.52824 23.0258 8.17288C23.19 8.45608 23.4594 8.62935 23.6421 8.89392C23.4391 8.92373 23.1236 8.64053 22.9815 8.63122C22.8948 8.62563 22.7195 8.78027 22.5682 8.81008C21.6621 8.98521 20.9111 8.50639 20.4996 7.72387C21.2783 7.81889 21.9518 8.34802 22.7545 8.27349C22.2286 7.41459 21.9002 6.92645 20.804 6.95998C20.3427 6.97489 19.9386 7.1817 19.5013 7.23014C19.4256 7.23759 19.1912 7.29907 19.2023 7.17052C20.077 6.73641 20.8354 6.23336 21.8632 6.58549L21.8651 6.58735ZM17.0525 3.10515L17.4954 2.13818V3.20762C17.4954 3.33432 17.7648 3.78892 17.7722 4.03672C17.7833 4.39631 17.464 4.77639 17.5637 5.17137L17.0525 4.34414C16.868 3.94729 16.951 3.50759 17.0525 3.10515Z" fill="#343A40"/>
<path d="M13.4837 41.9143C13.7716 41.6777 14.3123 37.698 14.3824 37.0627C14.5282 35.7417 14.6204 34.4003 14.626 33.0718C14.6278 32.6061 14.6518 30.8547 14.4894 30.5585C13.6553 29.8691 12.9744 29.0288 12.275 28.209C12.6644 30.9516 12.8563 33.7444 12.7548 36.5224C12.7105 37.7576 12.5961 39.4997 12.3101 40.6939C11.9835 42.0652 11.0977 41.8733 10.1087 42.4714C8.35931 43.5278 8.70992 45.8734 10.9501 45.1058C10.9501 45.1058 10.629 43.9656 11.3432 43.2744C11.8986 42.7378 12.7604 42.149 13.4856 41.9143H13.4837Z" fill="#343A40"/>
<path d="M19.1765 4.06094C19.4662 4.24353 20.5143 4.1187 20.8779 4.41121C20.9461 4.35904 20.9535 4.35532 20.9535 4.26961C20.948 3.98083 20.852 3.62683 20.8409 3.3455C20.8206 2.7791 20.959 0.617865 20.2486 0.422236C19.8703 0.3179 19.4533 1.05757 19.2724 1.34263C19.003 1.76556 18.6174 2.34686 18.6653 2.85363C18.6912 3.13124 18.944 3.91375 19.1783 4.06094H19.1765Z" fill="#343A40"/>
<path d="M24.0758 33.3308H23.0406V35.2629H24.0758V33.3308Z" fill="#B89668"/>
<path d="M25.1516 33.5991V33.5972C25.1516 33.3091 24.9202 33.0756 24.6349 33.0756H22.4814C22.1961 33.0756 21.9647 33.3091 21.9647 33.5972V33.5991C21.9647 33.8872 22.1961 34.1208 22.4814 34.1208H24.6349C24.9202 34.1208 25.1516 33.8872 25.1516 33.5991Z" fill="#B89668"/>
<path d="M33.795 45.3629H13.3619C13.3619 39.6655 17.9364 35.0468 23.5794 35.0468C29.2223 35.0468 33.7968 39.6655 33.7968 45.3629H33.795Z" fill="#B89668"/>
<path d="M34.9686 39.8108C35.1956 41.6236 37.421 42.598 35.7012 44.7928C34.3523 46.5125 31.6913 47.3062 29.5914 47.3844C26.458 47.5018 22.9354 46.3299 19.9386 47.295C19.4736 47.4441 18.2833 48.0999 17.9217 47.9881C17.4013 47.8297 18.1671 46.6112 18.3848 46.3467C20.7136 43.524 26.5153 45.4654 29.7962 45.2474C31.8519 45.1114 33.4241 44.2879 33.0864 41.6087" fill="#343A40"/>
<path d="M17.8423 20.3466C19.1156 19.592 20.3575 18.5301 21.3097 17.401C21.3226 17.3805 21.3373 17.3619 21.3521 17.3414C21.1676 17.2333 21.0347 17.0638 20.9701 16.9706C20.9701 16.9743 20.972 16.9781 20.9738 16.9799C19.2355 17.4867 17.1522 17.1905 15.4434 16.6669C13.8749 16.1881 12.6035 15.331 11.5222 14.1405C11.3967 15.0721 9.78942 20.7695 9.73959 21.144C9.73959 21.144 14.4064 22.3849 17.8423 20.3466Z" fill="#B89668"/>
<path d="M15.5911 15.9105C17.5157 16.5812 19.2946 16.5887 20.7634 16.3856C20.7136 16.2365 20.6638 16.0856 20.614 15.931C19.2595 16.026 17.4161 15.9738 15.6833 15.3534C14.1997 14.8224 12.8046 13.8238 11.7953 12.6854C11.7584 12.8922 11.7215 13.0971 11.6845 13.2984C12.6312 14.5802 13.9801 15.3497 15.5929 15.9105H15.5911Z" fill="#B89668"/>
<path d="M22.4076 18.1537C22.2305 18.0233 22.0496 17.8854 21.8854 17.7606C21.3964 18.3978 19.4053 20.8031 16.5746 21.7198C14.1388 22.5097 10.8689 22.1725 9.66025 21.9918C9.66025 22.2414 9.68239 22.4892 9.7193 22.7352C11.5148 22.9569 13.982 23.132 17.0138 22.2824C19.7965 21.5036 21.8854 18.8282 22.4076 18.1518V18.1537Z" fill="#B89668"/>
</g>
<defs>
<clipPath id="clip0_3261_422">
<rect width="45" height="48" fill="white"/>
</clipPath>
</defs>
</svg>
