<svg width="198" height="48" viewBox="0 0 198 48" fill="none" xmlns="http://www.w3.org/2000/svg">
<g clip-path="url(#clip0_3792_105)">
<path d="M189.379 28.3743C188.599 30.0508 187.018 31.5072 185.4 32.3879C184.999 32.6054 184.15 33.0404 183.736 33.1359C183.429 33.2076 183.137 32.9768 183.11 32.6744C185.869 31.4992 188.463 29.3134 188.962 26.223L185.872 26.5413L185.065 25.9736C184.482 28.0295 183.285 29.9156 181.665 31.3109C181.428 31.5151 180.301 32.3932 180.062 32.3322C179.922 32.2977 179.725 32.0483 179.749 31.8918C179.771 31.6769 180.794 30.9952 181.041 30.7724C183.739 28.3345 185.299 23.748 184.445 20.1775C184.344 19.7531 183.956 19.5355 183.983 19.1085L186.097 19.6045L193.068 19.6098L193.713 18.8724C194.058 18.9891 195.429 19.8645 195.339 20.2093C195.283 20.4216 194.504 20.7717 194.281 20.8566C194.016 21.6683 194.992 23.3846 193.92 23.6817C193.212 23.878 193.236 23.6287 193.27 22.992H185.556L185.312 25.3052L189.787 25.4749C189.798 24.9524 189.822 24.4616 189.586 23.9815C189.466 23.7401 189.066 23.5119 189.344 23.2361L191.328 23.7321C191.511 24.13 191.111 24.1645 190.946 24.3555C190.729 24.6102 190.708 25.1434 190.7 25.4749H195.594C195.729 25.1593 196.164 24.4218 196.528 24.4934C196.772 24.5438 198.005 25.7747 198 26.0161L197.875 26.2177H190.119C190.148 26.3875 190.583 26.3556 190.533 26.5891C190.514 26.6766 189.657 27.1859 189.869 27.6236H193.063C193.262 27.6236 193.286 26.6129 194.183 27.3345C194.981 27.9764 195.671 28.7165 194.106 28.873C193.928 30.3586 193.413 32.6876 191.824 33.2553C191.575 33.3455 190.994 33.4622 190.745 33.4145C190.535 33.3747 190.318 33.0431 190.095 32.9025C189.564 32.5709 188.93 32.3958 188.373 32.1253C188.384 31.9555 188.463 31.6849 188.665 31.6796C189.477 31.9236 190.376 32.2022 191.235 32.0855C192.639 31.8945 193.023 29.5097 193.026 28.369H189.376L189.379 28.3743ZM193.278 20.3499H185.771C185.678 20.4216 185.564 20.8752 185.564 20.9707V22.2519H193.278V20.3499Z" fill="#B89668"/>
<path d="M163.499 19.9759C162.929 20.0316 161.931 20.3287 161.401 20.2067C161.016 20.1191 160.623 19.4586 160.347 19.188C160.26 18.8007 161.417 19.135 161.634 19.1482C162.212 19.1827 162.814 19.0687 163.374 19.2305L163.467 19.0634L163.25 17.8272L160.146 18.1535C159.695 18.0845 159.249 17.3497 158.939 17.042C158.931 16.7741 160.202 17.0712 160.39 17.0818C160.83 17.1083 161.279 17.0606 161.719 17.0818C162.491 17.1136 163.295 17.2701 164.08 17.1269C164.329 17.0128 165.671 14.8562 165.727 14.5432C165.756 14.3707 165.557 13.8641 165.947 13.8933C166.16 13.9092 167.377 14.6387 167.382 14.8801L167.298 15.0843C166.544 15.079 166.372 15.6493 165.95 16.095C165.632 16.4292 165.173 16.7555 164.995 17.1693H166.863L167.568 16.2144C167.749 16.0976 167.929 16.278 168.067 16.3815C168.237 16.5115 169.2 17.5009 169.218 17.6336L169.101 17.8299H164.581C164.966 18.2118 164.271 18.6575 164.494 19.196L165.685 19.2199C165.987 19.0607 166.229 18.2808 166.595 18.3365C166.839 18.3737 167.886 19.4666 167.947 19.7292L167.86 19.899H164.541L164.417 20.0236V21.3049H166.947L167.762 20.3234L169.221 21.7691L169.104 21.9654H164.541C164.422 22.037 164.427 22.1299 164.411 22.2519C164.324 22.9947 164.571 23.7825 164.499 24.5306C164.629 24.5544 164.69 24.5173 164.793 24.451C165.006 24.3131 165.926 23.2467 166.011 23.0185C166.096 22.7904 166.024 22.3739 166.3 22.3076C166.555 22.2466 167.435 22.9655 167.698 23.1246L167.634 23.4403C167.056 23.4138 166.438 23.8992 166.048 24.2971C165.977 24.3688 165.868 24.3661 165.908 24.5306H168.271L169.194 23.4642C169.42 23.4244 170.685 24.7534 170.706 24.9974L170.579 25.1778L162.791 25.1884L159.077 25.5068C158.939 25.4643 158.132 24.6075 158.064 24.4483C158 24.3024 158.034 24.2918 158.151 24.2069C159.334 24.5306 160.562 24.3661 161.753 24.5306C161.875 24.4192 160.576 22.9734 160.44 22.8222C160.451 22.6498 160.618 22.3845 160.798 22.3792C161.029 22.3739 162.531 23.4987 162.671 23.7374C162.876 24.0849 162.642 24.2096 162.584 24.5279C162.881 24.4908 163.276 24.6393 163.496 24.4032V22.045C163.098 22.0609 162.692 22.0211 162.295 22.045C161.669 22.0848 160.435 22.3978 159.889 22.289C159.594 22.2307 158.989 21.4269 158.769 21.1749C158.769 20.9202 159.95 21.2041 160.138 21.2147C161.252 21.289 162.382 21.2943 163.496 21.2996V19.9759H163.499Z" fill="#B89668"/>
<path d="M125.367 17.806H127.481C127.828 17.5354 127.91 17.0049 128.356 16.8457C128.574 16.8988 129.807 18.1004 129.68 18.4665H127.192L127.361 18.7557C126.812 19.3976 127.088 20.2491 127.024 21.0317C127.253 20.9972 127.664 21.1033 127.855 20.9892C128.003 20.9017 128.338 20.1563 128.643 20.0581C129.287 20.3871 129.773 20.976 130.157 21.5702C130.152 21.6153 129.985 21.7771 129.972 21.7771H127.027V24.1751C128.109 24.4324 127.987 23.6048 128.712 23.1936C128.873 23.2175 129.542 23.8886 129.68 24.0531C129.868 24.2812 130.147 24.5385 130.096 24.8356H127.027V27.5653C127.781 27.6183 128.879 27.0559 129.56 27.0798C129.812 27.0878 130.149 27.4406 129.929 27.6051C128.81 27.9658 127.68 28.3054 126.547 28.6157C125.717 28.8439 124.229 29.0508 123.544 29.3426C123.109 29.5283 123.069 30.4036 122.565 30.1119C122.51 30.08 121.833 29.2365 121.769 29.1304C121.6 28.8412 121.377 28.5282 121.777 28.3266L123.788 28.1409C123.727 27.7085 123.873 27.2761 123.878 26.8676C123.886 26.2442 123.841 24.4483 123.645 23.9496C123.504 23.5995 123.035 23.4164 123.348 23.0928L125.449 23.6791C125.518 24.0372 125.117 24.1035 124.95 24.2971C124.677 24.6155 124.796 25.4298 124.786 25.8702C124.783 26.0108 124.701 26.154 124.701 26.2893C124.701 26.8013 124.876 27.43 124.786 27.9817L126.024 27.812L126.03 21.7771L123.435 22.0927C123.128 22.053 122.364 21.2678 122.297 20.9919C122.202 20.5807 122.955 20.9203 123.178 20.9415C124.122 21.029 125.083 21.037 126.03 21.0343C126.117 20.9494 125.942 18.7848 125.847 18.6098C125.815 18.5514 125.804 18.493 125.727 18.4798C124.701 18.2543 124.682 18.8087 124.162 19.379C124.038 19.517 123.321 20.2544 123.231 20.2756C123.027 20.3287 122.754 20.082 122.648 19.9149C123.953 18.379 125.184 16.6759 125.443 14.6148C125.611 14.4928 126.828 15.1984 126.948 15.3602C127.345 15.8987 126.489 15.7528 126.276 16.026L125.367 17.806Z" fill="#B89668"/>
<path d="M67.519 32.1279C67.6888 33.0882 67.5721 33.7646 66.4102 33.6055L66.2696 33.4092L66.5243 30.7671C66.5694 29.698 66.6596 25.093 66.259 24.4059C66.1423 24.207 65.8001 24.069 65.9805 23.7719C66.0415 23.6685 66.4049 23.7878 66.5216 23.8144C66.9275 23.9099 67.3917 24.1433 67.8055 24.1884C69.673 24.39 71.8801 24.0345 73.7847 24.1937C74.233 24.1778 74.1587 23.4324 74.6734 23.5385C74.8935 23.5836 76.1509 24.4988 76.1323 24.711C76.1005 25.0983 75.0872 25.3821 75.0633 25.4856C75.0898 26.3344 75.0421 27.1886 75.0633 28.0401C75.1031 29.5468 75.3339 31.096 75.3975 32.5868C75.4055 32.7593 75.4294 32.9874 75.3816 33.1492C75.2569 33.571 74.1561 33.7726 74.1561 33.4967V32.1306H67.519V32.1279ZM70.0921 24.9311H67.6861C67.7206 25.0558 67.519 25.2627 67.519 25.3025V27.743H70.3388C70.3388 26.8039 70.3574 25.8304 70.0895 24.9311H70.0921ZM74.1561 27.743V25.0558L74.0314 24.9311H71.4185C71.774 25.2893 71.3814 25.3954 71.3336 25.7986C71.2912 26.162 71.2089 27.1302 71.2487 27.4592C71.262 27.5785 71.2593 27.6714 71.376 27.743H74.1561ZM70.3415 28.4062H67.6464L67.5217 28.5309V31.3852H70.3415V28.4062ZM74.1561 28.4062H71.376C71.2567 28.4778 71.262 28.5706 71.2487 28.6927C71.1506 29.5362 71.323 30.5336 71.3363 31.3852H74.1561V28.4062Z" fill="#B89668"/>
<path d="M152.387 25.2441C152.185 27.1063 151.495 29.2656 150.312 30.7432C150.159 30.9368 149.4 31.7433 149.233 31.8255C149.066 31.9077 148.747 31.6663 148.734 31.4859C148.721 31.3056 149.888 29.9076 150.1 29.5389C151.811 26.5599 151.734 21.8063 151.556 18.4214C151.527 17.8696 151.498 17.1428 151.243 16.6653C151.106 16.408 150.726 16.2913 151.029 15.973C152.132 16.1719 153.363 16.6892 154.501 16.4743C154.806 16.416 154.827 15.8005 155.164 15.6706C155.795 15.9624 156.326 16.4239 156.777 16.9412C156.814 17.1534 156.162 17.5301 155.968 17.5646C156.008 17.9413 155.891 18.3206 155.872 18.6681C155.655 22.6286 156.016 26.7615 156.018 30.7246C155.891 31.2472 155.517 31.7884 154.965 31.9077C154.079 32.0961 154.14 31.5549 153.493 31.2154C153.018 30.966 151.546 30.8864 152.278 30.2153C152.867 30.2445 154.512 30.8095 154.814 30.1039C154.859 29.5654 154.941 28.9659 154.963 28.4327C154.997 27.6369 155.053 26.284 154.963 25.528C154.949 25.4086 154.952 25.3158 154.835 25.2415H152.389L152.387 25.2441ZM154.793 17.2197H152.843C152.809 17.2197 152.673 17.3816 152.652 17.4452C152.639 17.485 152.551 17.9784 152.551 18.0076V20.4481H154.875L154.793 17.2224V17.2197ZM154.875 21.1908H152.551L152.469 24.5836H154.833C154.952 24.512 154.947 24.4192 154.96 24.2971C155.077 23.2997 154.785 22.1989 154.872 21.1908H154.875Z" fill="#B89668"/>
<path d="M97.0755 27.0798C97.3991 27.4008 97.0755 27.4804 97.0012 27.7907C96.8845 28.2576 96.911 28.7537 96.911 29.2312H99.4417C99.6009 29.0508 100.177 28.1568 100.399 28.1913C100.744 28.3345 101.978 29.4805 101.972 29.775L101.848 29.9766H96.911V31.7539C96.911 31.799 97.0384 31.9369 96.9933 32.043H102.593C102.816 31.799 103.309 30.8679 103.66 30.9024C103.967 30.9315 104.917 31.9661 105.121 32.2526C105.248 32.4303 105.458 32.6027 105.235 32.7937L92.1388 32.7858L88.6877 33.0776C88.3932 33.0298 87.5444 32.1544 87.5391 31.921L87.6611 31.7326C90.396 32.2552 93.2238 31.9714 96.0012 32.0457V29.9766C95.4096 29.9713 94.8075 30.0057 94.2186 30.0588C93.7809 30.0986 92.5474 30.3851 92.2396 30.2127C92.1044 30.1357 91.2979 29.2816 91.2741 29.1861L91.404 28.9871C92.9187 29.2816 94.4653 29.2312 96.0012 29.2312C95.9746 28.5096 95.9508 27.7775 95.7439 27.0878C95.1072 27.1223 94.4387 27.1143 93.8047 27.162C93.2079 27.2071 91.9028 27.4989 91.4014 27.4061C91.091 27.3477 90.5791 26.7588 90.4066 26.4936C90.3324 26.3795 90.1812 26.1355 90.4066 26.0904C90.4836 26.0744 91.7171 26.3132 91.9797 26.3318C92.6137 26.3742 93.2583 26.2601 93.8843 26.4193C95.7677 26.2283 98.1207 26.6607 99.9484 26.4193C100.415 26.3583 100.757 25.3741 101.185 25.4192C101.41 25.4431 102.694 26.674 102.712 26.8835L102.598 27.0772H97.0835L97.0755 27.0798Z" fill="#B89668"/>
<path d="M99.5929 16.721C99.8131 16.6574 99.9484 15.9385 100.333 15.973C100.543 15.9915 101.71 16.9279 101.752 17.1269C101.84 17.5354 100.94 17.6654 100.877 18.0023C100.938 18.7981 100.914 19.6072 100.962 20.4003C100.994 20.9282 101.333 22.3686 101.02 22.7347C100.877 22.9018 100.238 23.1061 100.044 22.9708L99.9669 22.2625H93.6217L93.4519 22.3421C93.3962 22.9124 93.2317 23.1777 92.6269 23.1804C92.42 23.1804 92.1919 23.2175 92.168 22.9655C92.3325 21.3473 92.5341 19.6284 92.4227 17.9996C92.3908 17.5328 92.306 17.0818 92.1043 16.6627C92.0089 16.4611 91.7542 16.3629 91.8391 16.0605C92.5023 15.9783 93.9559 16.9757 94.4918 16.6786C94.7279 16.5486 95.8818 14.3522 95.6616 13.9171C95.8128 13.6598 97.0437 14.4477 97.2241 14.6174C97.7254 15.0896 96.9853 15.0949 96.7307 15.1904C96.415 15.3072 95.6961 16.4133 95.4043 16.7237H99.5929V16.721ZM99.9669 19.1217V17.5089L99.8423 17.3842H93.6217C93.5952 17.3842 93.497 17.493 93.4148 17.4664V19.1217H99.9669ZM99.9669 19.8645H93.4148V21.602H99.9669V19.8645Z" fill="#B89668"/>
<path d="M135.184 18.2225C134.744 18.3498 134.914 20.1483 134.898 20.5834C134.754 24.2441 134.797 27.9181 135.059 31.5735C134.998 32.2499 133.701 32.2075 133.648 31.982L133.903 27.3663C133.927 25.0744 133.9 22.7798 133.813 20.5011C133.784 19.7372 133.908 18.7663 133.715 18.0368C133.64 17.7556 132.89 16.9253 133.505 16.9969C134.012 17.0553 134.723 17.485 135.189 17.5566C135.479 17.6017 137.155 17.5964 137.328 17.485C137.455 17.4028 137.529 16.9094 137.837 16.9014C138.115 16.8961 139.357 17.7848 139.283 18.0819C139.211 18.3684 138.662 18.4612 138.566 18.5753C138.394 18.7822 138.447 21.5728 138.458 22.0742C138.42 23.244 138.794 25.0823 138.606 26.1859C138.529 26.6448 138.168 27.2072 137.717 27.3663C136.869 27.6634 136.834 27.0559 136.211 26.7111C135.863 26.5174 135.447 26.4352 135.07 26.3185C135.017 26.1514 135.065 25.8118 135.264 25.7827C135.744 25.8596 137.224 26.2946 137.428 25.6712C137.526 24.3316 137.566 22.9947 137.553 21.6498C137.553 21.4137 137.468 21.2147 137.463 20.9945C137.436 20.074 137.553 19.1217 137.383 18.2198H135.184V18.2225Z" fill="#B89668"/>
<path d="M55.0806 28.8333C54.9771 29.3107 54.0221 29.5999 53.6985 29.1701L54.0062 25.528C53.9187 23.9337 54.1442 22.1511 53.9001 20.5807C53.8418 20.2146 53.6083 19.8194 53.3404 19.5647C53.3192 19.4745 53.3988 19.3976 53.4757 19.3711C53.9266 19.2278 54.9612 19.8618 55.4599 19.9308C56.0515 20.013 56.7571 19.8804 57.3645 19.9441L57.8182 19.3154C58.155 19.0634 59.3063 20.3207 59.3594 20.5144C59.4893 20.9839 58.6617 21.0688 58.6405 21.1457L58.8792 27.9048C58.7758 28.2417 57.8341 28.5308 57.5688 28.1674V26.8013H55.0806C54.9957 27.3822 55.1973 28.2921 55.0806 28.8279V28.8333ZM57.5714 20.6868H55.2052L55.0806 20.8937L54.9983 26.0638H57.6537L57.5714 20.6868Z" fill="#B89668"/>
<path d="M69.6466 18.2861L69.7978 20.5409C69.6917 21.0821 68.5828 21.2572 68.4979 20.8831C68.4661 20.7372 68.6359 19.9653 68.6492 19.7319C68.673 19.2782 68.6332 18.8193 68.6492 18.3684L66.2909 18.6151C66.1105 18.5859 65.8771 18.3737 65.7444 18.2463C65.6012 18.1111 64.9088 17.3869 65.2988 17.302C65.3784 17.2861 66.5296 17.5248 66.787 17.5407C67.4316 17.5805 68.0894 17.5142 68.7367 17.5407C68.6651 16.5698 68.7791 15.7236 68.3388 14.835C68.2751 14.7076 67.9648 14.4716 68.1611 14.3177C68.2539 14.2461 70.1718 14.644 70.2753 14.8058C70.4662 15.1082 69.6492 15.4186 69.6492 15.843V17.6203H72.1374V15.7581C72.1374 15.721 72.0181 15.3204 71.9889 15.2435C71.9199 15.0578 71.3416 14.3814 71.6785 14.331L73.798 14.8058C73.9599 15.0419 73.1349 15.5379 73.1349 15.7555V17.6177H74.8352C75.1827 17.2357 75.4082 16.7104 75.899 16.4717C76.1112 16.4903 76.9441 17.2914 77.1139 17.4956C77.1882 17.5858 77.7585 18.2782 77.4057 18.2782H73.1349L73.2038 20.7876C72.8988 21.1643 72.4054 21.0953 71.973 21.09L72.1401 18.2782H69.6519L69.6466 18.2861Z" fill="#B89668"/>
<path d="M161.971 32.2579C162.127 33.1996 161.785 33.8097 160.764 33.502C160.806 33.0298 160.942 32.5205 160.976 32.051C161.04 31.1729 161.114 29.5017 160.716 28.7563C160.645 28.6237 160.265 28.3823 160.485 28.2099C160.727 28.0242 162.093 28.7271 162.432 28.7775C163.032 28.8677 165.39 28.8704 165.998 28.7855C166.454 28.7245 166.401 28.2947 166.616 28.1568C166.913 27.9711 167.969 28.9526 168.168 29.2338C168.207 29.5044 167.42 29.6688 167.361 29.9792C167.321 30.1941 167.353 30.645 167.361 30.8891C167.38 31.3241 167.674 32.7486 167.595 33.0219C167.475 33.4224 166.812 33.5736 166.449 33.494V32.2526H161.968L161.971 32.2579ZM166.451 31.5125V29.568L166.327 29.4434H162.18C162.165 29.4434 161.974 29.6344 161.974 29.6503V31.5125H166.454H166.451Z" fill="#B89668"/>
<path d="M117.27 23.0636L118.512 23.5199C118.408 23.8462 117.984 23.9152 117.888 24.2202C117.83 24.4059 117.782 25.1672 117.769 25.4245C117.65 27.6395 117.878 29.9102 117.931 32.1226C117.899 32.6027 116.615 32.7752 116.61 32.3799C116.671 31.913 116.75 31.3454 116.772 30.8811C116.851 29.0216 116.875 27.1992 116.772 25.3423C116.742 24.833 116.872 24.2892 116.65 23.809C116.546 23.6631 116.53 23.7825 116.443 23.8515C116.045 24.1645 115.679 24.5306 115.273 24.8356C114.764 25.2176 113.726 26.2283 113.374 25.2601C113.827 24.886 114.344 24.573 114.785 24.1831C115.559 23.4987 117.453 21.5622 117.642 20.5966C117.674 20.4348 117.501 20.1748 117.772 20.0422C117.997 19.9308 119.4 20.8274 119.411 20.9547C119.438 21.2518 118.965 21.2465 118.801 21.3235C118.326 21.541 117.708 22.679 117.273 23.0663L117.27 23.0636Z" fill="#B89668"/>
<path d="M197.18 15.774C196.997 15.7899 196.827 15.8483 196.644 15.8616C193.018 16.1136 189.1 15.6785 185.439 15.8536C184.468 15.9014 183.397 16.2144 182.452 16.026C182.338 15.9597 181.548 15.0843 181.529 14.9888C181.529 14.9756 181.574 14.7687 181.641 14.7766C182.593 15.0419 183.567 14.9782 184.535 15.026C187.784 15.1798 191.058 15.0923 194.318 15.1109C194.636 15.0472 195.146 13.941 195.464 13.9675C195.732 13.9914 197.058 15.27 197.146 15.5194C197.175 15.6043 197.193 15.6838 197.18 15.7714V15.774Z" fill="#B89668"/>
<path d="M118.626 14.6891C118.859 14.6387 120.074 15.3682 120.133 15.5592C120.159 15.6494 120.167 15.7634 120.109 15.8403C119.223 15.9491 118.841 16.9359 118.278 17.5726C117.812 18.1004 117.167 18.6973 116.615 19.1403C116.342 19.3605 115.225 20.212 114.957 20.212C114.801 20.212 114.382 19.9202 114.419 19.7663C115.705 18.8379 117.897 16.9863 118.395 15.4584C118.485 15.1798 118.361 14.7474 118.623 14.6891H118.626Z" fill="#B89668"/>
<path d="M163.135 15.5379C163.589 16.0711 162.992 16.9173 162.581 16.8006C162.35 16.7343 161.918 15.9836 161.714 15.7555C161.443 15.4557 160.164 14.5326 160.928 14.2222C160.984 14.1771 161.032 14.2036 161.093 14.2169C161.435 14.2991 162.899 15.2568 163.138 15.5379H163.135Z" fill="#B89668"/>
</g>
<g clip-path="url(#clip1_3792_105)">
<path d="M32.9461 41.7913L34.9704 39.8127C34.808 38.5141 35.0147 36.8987 34.9557 35.5517C34.7065 29.8617 31.7688 21.4459 25.8509 19.5697C24.9172 19.2735 23.9373 19.1691 23.0867 18.6363C22.6696 18.3736 21.4942 17.4681 21.3558 17.3488C20.398 18.4984 19.134 19.5809 17.8405 20.3485C14.4026 22.3868 9.73772 21.1459 9.73772 21.1459C9.50706 22.3309 9.81338 23.5177 10.2802 24.602C11.1734 26.6831 12.7769 28.4364 14.4248 29.9343C14.4875 29.0978 14.0945 28.3041 13.873 27.5253C13.8546 27.4582 13.7863 27.298 13.9118 27.3148C14.22 28.0358 14.5134 28.7624 14.685 29.5337C15.2017 31.8478 15.0301 34.7095 14.7994 37.0739C14.7348 37.7427 14.2034 41.8584 13.8952 42.1267C12.9375 42.4863 11.2841 43.0881 11.1254 44.2656C11.1069 44.3997 11.1512 44.9549 11.1881 45.0667C11.238 45.2232 12.1145 45.3089 12.3027 45.3201C13.7144 45.4039 15.1463 45.3033 15.8143 43.8929L17.6079 43.5613C17.5526 43.7141 17.5083 43.8762 17.4806 44.0569C17.1835 45.9946 19.7836 44.6401 20.577 44.4258C22.474 43.9116 24.7585 44.4836 26.7164 44.5618C28.1649 44.6196 32.0641 44.6792 32.8446 43.2259C33.2229 42.5217 32.9553 42.1267 32.697 41.4541C32.7893 41.5715 32.8723 41.6833 32.9443 41.7951L32.9461 41.7913ZM25.6941 42.0652L27.2091 41.7857L28.3937 42.2776L25.6941 42.0652Z" fill="#343A40"/>
<path d="M15.4306 16.9464C17.1394 17.4681 19.232 17.4886 20.9721 16.9818C20.568 15.8732 20.1177 14.5262 20.09 13.0375C18.3702 12.7115 15.7296 12.2848 15.2424 10.2764L15.5838 10.8614C16.8681 12.3221 18.8998 12.2979 20.6639 12.5606C21.5903 12.6984 23.1385 13.2406 23.991 12.7972C24.2715 12.65 24.4265 12.3314 24.6332 12.2047C24.7771 12.1171 24.9542 12.1358 25.0779 12.0333C25.2827 11.8638 25.4045 11.2154 25.3215 10.962C25.2809 10.8334 25.1277 10.7701 25.148 10.621H25.7625L25.6592 11.1725C25.9138 10.9601 26.2497 10.3229 26.1352 10.0043C25.9452 9.47708 24.9044 8.94795 24.5704 8.47844C24.1866 7.93813 24.0925 7.10903 23.7253 6.50351C23.0868 5.45084 21.3504 4.58821 20.1749 4.36277C19.3205 4.19881 19.0474 4.54908 18.6728 3.60261C18.3019 2.66359 18.3997 1.87921 18.313 0.930871C18.193 -0.399409 17.2944 -0.129254 16.6079 0.655127C16.0045 1.34449 14.6279 4.10938 14.5578 4.99996C14.5154 5.53655 14.6408 5.97252 14.7608 6.48116L14.2847 5.37818C14.0762 5.73218 13.8031 6.00233 13.589 6.36564C12.277 8.59023 12.0519 11.6402 11.5149 14.1349C12.5962 15.3273 13.8603 16.4638 15.4306 16.9445V16.9464ZM21.8652 6.58735C22.7233 6.87987 22.6532 7.52824 23.0259 8.17288C23.1901 8.45608 23.4595 8.62935 23.6422 8.89392C23.4393 8.92373 23.1237 8.64053 22.9816 8.63122C22.8949 8.62563 22.7196 8.78027 22.5683 8.81008C21.6622 8.98521 20.9112 8.50639 20.4997 7.72387C21.2784 7.81889 21.9519 8.34802 22.7546 8.27349C22.2287 7.41459 21.9003 6.92645 20.8042 6.95998C20.3428 6.97489 19.9387 7.1817 19.5014 7.23014C19.4257 7.23759 19.1914 7.29907 19.2024 7.17052C20.0771 6.73641 20.8355 6.23336 21.8634 6.58549L21.8652 6.58735ZM17.0527 3.10515L17.4955 2.13818V3.20762C17.4955 3.33432 17.7649 3.78892 17.7723 4.03672C17.7834 4.39631 17.4642 4.77639 17.5638 5.17137L17.0527 4.34414C16.8681 3.94729 16.9512 3.50759 17.0527 3.10515Z" fill="#343A40"/>
<path d="M13.4837 41.9143C13.7716 41.6777 14.3123 37.698 14.3824 37.0627C14.5282 35.7417 14.6204 34.4003 14.626 33.0718C14.6278 32.6061 14.6518 30.8547 14.4894 30.5585C13.6553 29.8691 12.9744 29.0288 12.275 28.209C12.6644 30.9516 12.8563 33.7444 12.7548 36.5224C12.7105 37.7576 12.5961 39.4997 12.3101 40.6939C11.9835 42.0652 11.0977 41.8733 10.1087 42.4714C8.35931 43.5278 8.70992 45.8734 10.9501 45.1058C10.9501 45.1058 10.629 43.9656 11.3432 43.2744C11.8986 42.7378 12.7604 42.149 13.4856 41.9143H13.4837Z" fill="#343A40"/>
<path d="M19.1764 4.06094C19.4661 4.24353 20.5142 4.1187 20.8777 4.41121C20.946 4.35904 20.9534 4.35532 20.9534 4.26961C20.9479 3.98083 20.8519 3.62683 20.8408 3.3455C20.8205 2.7791 20.9589 0.617865 20.2485 0.422236C19.8702 0.3179 19.4532 1.05757 19.2723 1.34263C19.0029 1.76556 18.6172 2.34686 18.6652 2.85363C18.691 3.13124 18.9439 3.91375 19.1782 4.06094H19.1764Z" fill="#343A40"/>
<path d="M24.0757 33.3308H23.0405V35.2629H24.0757V33.3308Z" fill="#B89668"/>
<path d="M25.1516 33.5991V33.5972C25.1516 33.3091 24.9203 33.0756 24.6349 33.0756H22.4815C22.1961 33.0756 21.9648 33.3091 21.9648 33.5972V33.5991C21.9648 33.8872 22.1961 34.1208 22.4815 34.1208H24.6349C24.9203 34.1208 25.1516 33.8872 25.1516 33.5991Z" fill="#B89668"/>
<path d="M33.7949 45.3629H13.3618C13.3618 39.6655 17.9363 35.0468 23.5793 35.0468C29.2222 35.0468 33.7967 39.6655 33.7967 45.3629H33.7949Z" fill="#B89668"/>
<path d="M34.9687 39.8108C35.1956 41.6236 37.4211 42.598 35.7012 44.7928C34.3523 46.5125 31.6914 47.3062 29.5914 47.3844C26.4581 47.5018 22.9354 46.3299 19.9387 47.295C19.4736 47.4441 18.2834 48.0999 17.9217 47.9881C17.4014 47.8297 18.1672 46.6112 18.3849 46.3467C20.7137 43.524 26.5153 45.4654 29.7963 45.2474C31.8519 45.1114 33.4241 44.2879 33.0865 41.6087" fill="#343A40"/>
<path d="M17.8422 20.3466C19.1155 19.592 20.3574 18.5301 21.3096 17.401C21.3225 17.3805 21.3372 17.3619 21.352 17.3414C21.1675 17.2333 21.0346 17.0638 20.97 16.9706C20.97 16.9743 20.9719 16.9781 20.9737 16.9799C19.2354 17.4867 17.1521 17.1905 15.4433 16.6669C13.8748 16.1881 12.6034 15.331 11.5221 14.1405C11.3966 15.0721 9.78933 20.7695 9.7395 21.144C9.7395 21.144 14.4063 22.3849 17.8422 20.3466Z" fill="#B89668"/>
<path d="M15.5911 15.9105C17.5157 16.5812 19.2946 16.5887 20.7635 16.3856C20.7136 16.2365 20.6638 16.0856 20.614 15.931C19.2595 16.026 17.4161 15.9738 15.6833 15.3534C14.1997 14.8224 12.8047 13.8238 11.7953 12.6854C11.7584 12.8922 11.7215 13.0971 11.6846 13.2984C12.6312 14.5802 13.9801 15.3497 15.5929 15.9105H15.5911Z" fill="#B89668"/>
<path d="M22.4075 18.1537C22.2304 18.0233 22.0495 17.8854 21.8853 17.7606C21.3963 18.3978 19.4052 20.8031 16.5745 21.7198C14.1387 22.5097 10.8688 22.1725 9.66016 21.9918C9.66016 22.2414 9.6823 22.4892 9.71921 22.7352C11.5147 22.9569 13.9819 23.132 17.0137 22.2824C19.7964 21.5036 21.8853 18.8282 22.4075 18.1518V18.1537Z" fill="#B89668"/>
</g>
<defs>
<clipPath id="clip0_3792_105">
<rect width="145" height="21" fill="white" transform="translate(53 13.5)"/>
</clipPath>
<clipPath id="clip1_3792_105">
<rect width="45" height="48" fill="white"/>
</clipPath>
</defs>
</svg>
