<svg width="147" height="23" viewBox="0 0 147 23" fill="none" xmlns="http://www.w3.org/2000/svg">
<g clip-path="url(#clip0_3478_3146)">
<path d="M138.26 16.2909C137.47 18.1271 135.867 19.7221 134.226 20.6867C133.82 20.925 132.96 21.4014 132.54 21.506C132.228 21.5845 131.932 21.3317 131.905 21.0005C134.702 19.7134 137.332 17.3194 137.838 13.9347L134.705 14.2834L133.887 13.6616C133.296 15.9133 132.083 17.9789 130.44 19.5072C130.2 19.7309 129.057 20.6925 128.815 20.6257C128.673 20.5879 128.474 20.3148 128.498 20.1434C128.52 19.9081 129.558 19.1614 129.808 18.9174C132.543 16.2474 134.124 11.224 133.258 7.31346C133.156 6.8486 132.763 6.61037 132.79 6.14261L134.934 6.68591L142.001 6.69172L142.655 5.88403C143.004 6.01187 144.394 6.97063 144.303 7.34832C144.247 7.58075 143.456 7.96425 143.23 8.05722C142.961 8.94626 143.951 10.826 142.864 11.1514C142.146 11.3664 142.17 11.0933 142.205 10.396H134.385L134.138 12.9295L138.674 13.1154C138.685 12.5431 138.709 12.0056 138.47 11.4797C138.349 11.2153 137.943 10.9655 138.225 10.6633L140.237 11.2066C140.422 11.6424 140.016 11.6802 139.85 11.8894C139.629 12.1683 139.608 12.7522 139.599 13.1154H144.561C144.698 12.7697 145.139 11.962 145.508 12.0404C145.755 12.0956 147.006 13.4437 147 13.7081L146.874 13.9289H139.011C139.04 14.1148 139.481 14.08 139.43 14.3357C139.411 14.4315 138.543 14.9894 138.758 15.4687H141.996C142.197 15.4687 142.222 14.3618 143.131 15.1521C143.94 15.8551 144.639 16.6657 143.053 16.8371C142.872 18.4641 142.351 21.015 140.74 21.6368C140.487 21.7355 139.898 21.8634 139.645 21.8111C139.433 21.7675 139.212 21.4043 138.986 21.2504C138.448 20.8872 137.806 20.6954 137.241 20.3991C137.252 20.2131 137.332 19.9168 137.537 19.911C138.36 20.1783 139.271 20.4833 140.143 20.3555C141.565 20.1463 141.955 17.5344 141.958 16.2851H138.258L138.26 16.2909ZM142.213 7.5023H134.603C134.509 7.58075 134.393 8.07756 134.393 8.18215V9.58543H142.213V7.5023Z" fill="#EDE2CC"/>
<path d="M112.023 7.0927C111.445 7.15372 110.434 7.47911 109.896 7.34547C109.506 7.24959 109.108 6.52616 108.828 6.22982C108.74 5.80564 109.912 6.17171 110.133 6.18624C110.719 6.22401 111.329 6.09908 111.897 6.2763L111.991 6.09327L111.77 4.73938L108.624 5.09674C108.167 5.0212 107.715 4.21642 107.4 3.8794C107.392 3.58596 108.68 3.91136 108.871 3.92298C109.318 3.95203 109.772 3.89974 110.219 3.92298C111.001 3.95785 111.816 4.12926 112.612 3.97237C112.865 3.84744 114.226 1.48541 114.282 1.14258C114.312 0.953729 114.11 0.39881 114.505 0.430769C114.721 0.448201 115.955 1.24717 115.96 1.51155L115.874 1.73526C115.111 1.72945 114.936 2.3541 114.508 2.8422C114.185 3.20827 113.72 3.56563 113.54 4.01886H115.433L116.149 2.97294C116.332 2.8451 116.514 3.04267 116.654 3.15597C116.826 3.29833 117.803 4.38202 117.821 4.52729L117.703 4.74229H113.121C113.51 5.16065 112.806 5.64875 113.032 6.23853L114.239 6.26468C114.546 6.09036 114.791 5.23619 115.162 5.29721C115.409 5.33788 116.471 6.53488 116.533 6.82251L116.444 7.00845H113.08L112.954 7.145V8.54828H115.519L116.345 7.4733L117.824 9.05671L117.706 9.2717H113.08C112.959 9.35015 112.965 9.45184 112.948 9.58548C112.86 10.399 113.11 11.2619 113.037 12.0812C113.169 12.1073 113.231 12.0666 113.336 11.994C113.551 11.8429 114.484 10.675 114.57 10.4251C114.656 10.1753 114.583 9.71913 114.863 9.64649C115.121 9.57967 116.014 10.367 116.28 10.5413L116.216 10.8871C115.63 10.858 115.003 11.3897 114.608 11.8255C114.535 11.9039 114.425 11.901 114.465 12.0812H116.861L117.797 10.9132C118.026 10.8696 119.309 12.3252 119.33 12.5925L119.201 12.7901L111.305 12.8017L107.54 13.1503C107.4 13.1038 106.583 12.1654 106.513 11.9911C106.448 11.8313 106.483 11.8197 106.602 11.7267C107.801 12.0812 109.046 11.901 110.254 12.0812C110.377 11.9591 109.06 10.3757 108.923 10.2101C108.933 10.0213 109.103 9.73075 109.286 9.72494C109.52 9.71913 111.042 10.951 111.184 11.2125C111.391 11.5931 111.155 11.7296 111.095 12.0783C111.397 12.0376 111.797 12.2003 112.021 11.9417V9.35886C111.617 9.3763 111.206 9.33272 110.802 9.35886C110.168 9.40244 108.917 9.74527 108.363 9.62616C108.065 9.56224 107.451 8.68192 107.228 8.40591C107.228 8.127 108.425 8.43787 108.616 8.44949C109.745 8.53084 110.891 8.53665 112.021 8.54247V7.0927H112.023Z" fill="#EDE2CC"/>
<path d="M73.3647 4.71613H75.5081C75.8604 4.41978 75.9437 3.83872 76.3955 3.6644C76.6161 3.7225 77.8666 5.03862 77.7375 5.43956H75.2149L75.387 5.75624C74.8304 6.45933 75.1101 7.39194 75.0455 8.24902C75.2768 8.21125 75.6936 8.32746 75.8873 8.20253C76.0379 8.10665 76.3767 7.29026 76.686 7.18276C77.3395 7.54302 77.8316 8.188 78.2216 8.8388C78.2162 8.88819 78.0468 9.06541 78.0333 9.06541H75.0482V11.6918C76.1454 11.9737 76.0217 11.0672 76.7559 10.6169C76.9199 10.643 77.5976 11.3781 77.7375 11.5582C77.9284 11.8081 78.2108 12.0899 78.1597 12.4153H75.0482V15.4049C75.812 15.463 76.9253 14.847 77.6165 14.8732C77.872 14.8819 78.2135 15.2683 77.9903 15.4484C76.8554 15.8436 75.7098 16.2154 74.5614 16.5554C73.7197 16.8052 72.211 17.0318 71.5172 17.3514C71.0761 17.5548 71.0358 18.5136 70.5248 18.194C70.4683 18.1591 69.7826 17.2352 69.718 17.119C69.5459 16.8023 69.32 16.4595 69.7261 16.2387L71.7646 16.0353C71.7027 15.5617 71.8506 15.0882 71.856 14.6408C71.8641 13.958 71.8184 11.9911 71.6194 11.4449C71.4768 11.0614 71.0008 10.8609 71.3182 10.5065L73.4481 11.1485C73.518 11.5408 73.1119 11.6134 72.9425 11.8255C72.6655 12.1741 72.7865 13.0661 72.7758 13.5483C72.7731 13.7023 72.6897 13.8592 72.6897 14.0074C72.6897 14.5681 72.8672 15.2567 72.7758 15.861L74.0317 15.6751L74.037 9.06541L71.4069 9.41115C71.095 9.36757 70.3204 8.50759 70.2532 8.20544C70.1564 7.75511 70.9201 8.12699 71.146 8.15023C72.1034 8.24611 73.077 8.25483 74.037 8.25192C74.1258 8.15895 73.9483 5.7882 73.8515 5.59644C73.8192 5.53253 73.8084 5.46861 73.7305 5.45408C72.6897 5.20713 72.6709 5.81434 72.1438 6.43899C72.0174 6.59007 71.2913 7.39775 71.1998 7.421C70.9928 7.4791 70.7158 7.20891 70.6082 7.02587C71.9313 5.34368 73.1791 3.47845 73.4427 1.22101C73.6121 1.08736 74.8465 1.86018 74.9675 2.03741C75.3709 2.62719 74.5023 2.4674 74.2871 2.76665L73.3647 4.71613Z" fill="#EDE2CC"/>
<path d="M14.7194 20.4022C14.8915 21.4539 14.7732 22.1948 13.5953 22.0205L13.4528 21.8055L13.7109 18.9118C13.7567 17.7409 13.8481 12.6972 13.442 11.9448C13.3237 11.7269 12.9768 11.5758 13.1596 11.2504C13.2215 11.1371 13.5899 11.2678 13.7083 11.2969C14.1197 11.4015 14.5903 11.6571 15.0099 11.7065C16.9031 11.9273 19.1406 11.538 21.0715 11.7123C21.526 11.6949 21.4507 10.8785 21.9724 10.9947C22.1956 11.0441 23.4704 12.0465 23.4515 12.2789C23.4193 12.7031 22.392 13.0139 22.3678 13.1272C22.3946 14.0569 22.3462 14.9925 22.3678 15.9251C22.4081 17.5753 22.6421 19.272 22.7066 20.9048C22.7147 21.0937 22.7389 21.3435 22.6905 21.5208C22.5641 21.9827 21.448 22.2035 21.448 21.9013V20.4051H14.7194V20.4022ZM17.328 12.52H14.8889C14.9238 12.6566 14.7194 12.8832 14.7194 12.9268V15.5997H17.5781C17.5781 14.5712 17.597 13.5049 17.3253 12.52H17.328ZM21.448 15.5997V12.6566L21.3216 12.52H18.6727C19.033 12.9122 18.635 13.0285 18.5866 13.4701C18.5436 13.8681 18.4602 14.9285 18.5006 15.2888C18.514 15.4195 18.5113 15.5212 18.6296 15.5997H21.448ZM17.5808 16.326H14.8485L14.7221 16.4626V19.5887H17.5808V16.326ZM21.448 16.326H18.6296C18.5086 16.4045 18.514 16.5061 18.5006 16.6398C18.4011 17.5637 18.5759 18.6561 18.5893 19.5887H21.448V16.326Z" fill="#EDE2CC"/>
<path d="M100.758 12.8628C100.554 14.9023 99.8544 17.2673 98.6549 18.8856C98.499 19.0976 97.7298 19.9809 97.5604 20.0709C97.391 20.161 97.0682 19.8966 97.0548 19.699C97.0414 19.5015 98.2246 17.9704 98.4398 17.5665C100.174 14.3038 100.096 9.09748 99.9162 5.39027C99.8866 4.78596 99.857 3.9899 99.5989 3.46694C99.459 3.18512 99.0745 3.05729 99.381 2.70865C100.5 2.92655 101.748 3.49309 102.901 3.25776C103.211 3.19384 103.232 2.5198 103.574 2.37744C104.214 2.69703 104.752 3.20256 105.209 3.7691C105.246 4.00152 104.585 4.41408 104.388 4.45185C104.429 4.86441 104.31 5.27987 104.292 5.66047C104.071 9.99813 104.437 14.5246 104.44 18.8652C104.31 19.4376 103.931 20.0303 103.372 20.161C102.474 20.3673 102.536 19.7746 101.879 19.4027C101.398 19.1296 99.9054 19.0424 100.648 18.3074C101.245 18.3394 102.912 18.9582 103.219 18.1854C103.264 17.5956 103.348 16.939 103.369 16.355C103.404 15.4834 103.461 14.0017 103.369 13.1737C103.356 13.0429 103.358 12.9412 103.24 12.8599H100.761L100.758 12.8628ZM103.197 4.07416H101.221C101.186 4.07416 101.048 4.25138 101.027 4.32111C101.013 4.36469 100.925 4.90508 100.925 4.93704V7.60995H103.28L103.197 4.07706V4.07416ZM103.28 8.42344H100.925L100.841 12.1394H103.237C103.358 12.0609 103.353 11.9592 103.367 11.8256C103.485 10.7332 103.189 9.52747 103.278 8.42344H103.28Z" fill="#EDE2CC"/>
<path d="M44.6836 14.8731C45.0117 15.2247 44.6836 15.3118 44.6083 15.6518C44.49 16.1631 44.5169 16.7064 44.5169 17.2293H47.0825C47.2438 17.0318 47.8274 16.0527 48.0533 16.0905C48.4029 16.2473 49.6534 17.5024 49.648 17.8249L49.5216 18.0457H44.5169V19.9923C44.5169 20.0417 44.646 20.1928 44.6002 20.309H50.2773C50.5032 20.0417 51.0034 19.0219 51.3584 19.0597C51.6704 19.0917 52.6331 20.2247 52.8402 20.5385C52.9693 20.7332 53.1818 20.922 52.9559 21.1312L39.6789 21.1225L36.1801 21.4421C35.8816 21.3898 35.021 20.431 35.0156 20.1754L35.1393 19.9691C37.912 20.5414 40.7788 20.2306 43.5945 20.3119V18.0457C42.9947 18.0399 42.3843 18.0777 41.7873 18.1358C41.3435 18.1794 40.093 18.4932 39.781 18.3043C39.6439 18.2201 38.8263 17.2845 38.8021 17.18L38.9339 16.9621C40.4695 17.2845 42.0374 17.2293 43.5945 17.2293C43.5676 16.4391 43.5434 15.6372 43.3336 14.8818C42.6882 14.9196 42.0105 14.9109 41.3677 14.9632C40.7626 15.0126 39.4395 15.3322 38.9312 15.2305C38.6166 15.1666 38.0976 14.5216 37.9227 14.231C37.8474 14.1061 37.6942 13.8388 37.9227 13.7894C38.0007 13.772 39.2513 14.0335 39.5175 14.0538C40.1602 14.1003 40.8137 13.9754 41.4484 14.1497C43.3578 13.9405 45.7432 14.4141 47.5961 14.1497C48.0694 14.0829 48.4163 13.005 48.8493 13.0544C49.0779 13.0805 50.3795 14.4286 50.3983 14.6581L50.2827 14.8702H44.6917L44.6836 14.8731Z" fill="#EDE2CC"/>
<path d="M47.2355 3.52788C47.4587 3.45815 47.5959 2.67081 47.9858 2.70857C48.1983 2.72891 49.3815 3.7545 49.4246 3.9724C49.5133 4.41982 48.6017 4.56218 48.5371 4.93116C48.599 5.80276 48.5748 6.68888 48.6232 7.55758C48.6554 8.13574 48.9997 9.71334 48.6823 10.1143C48.5371 10.2973 47.889 10.521 47.6927 10.3728L47.6147 9.59712H41.1819L41.0098 9.68428C40.9533 10.3089 40.7866 10.5995 40.1734 10.6024C39.9637 10.6024 39.7324 10.643 39.7082 10.367C39.8749 8.59478 40.0793 6.71213 39.9664 4.92825C39.9341 4.41691 39.848 3.923 39.6436 3.46396C39.5468 3.24316 39.2887 3.13566 39.3747 2.80445C40.047 2.71439 41.5208 3.80679 42.064 3.48139C42.3033 3.33903 43.4732 0.933415 43.25 0.45694C43.4033 0.175122 44.6511 1.03801 44.834 1.22395C45.3422 1.7411 44.5919 1.74691 44.3338 1.8515C44.0137 1.97934 43.2849 3.19086 42.9891 3.53078H47.2355V3.52788ZM47.6147 6.15721V4.39076L47.4883 4.25421H41.1819C41.155 4.25421 41.0555 4.37333 40.9721 4.34428V6.15721H47.6147ZM47.6147 6.9707H40.9721V8.8737H47.6147V6.9707Z" fill="#EDE2CC"/>
<path d="M83.3178 5.17222C82.8714 5.31168 83.0435 7.2815 83.0274 7.75797C82.8821 11.7673 82.9252 15.7912 83.1914 19.7948C83.1296 20.5356 81.8145 20.4892 81.7607 20.2422L82.0189 15.1869C82.0431 12.6767 82.0162 10.1636 81.9274 7.66791C81.8979 6.83117 82.0243 5.76782 81.8279 4.96885C81.7526 4.66089 80.9916 3.75152 81.6155 3.82996C82.1291 3.89388 82.8499 4.36454 83.3232 4.44299C83.6163 4.49238 85.3159 4.48657 85.4907 4.36454C85.6198 4.27448 85.6951 3.73408 86.0071 3.72537C86.2895 3.71956 87.548 4.69284 87.4727 5.01824C87.4001 5.33202 86.8435 5.43371 86.7466 5.55863C86.5718 5.78525 86.6256 8.84166 86.6364 9.39077C86.5987 10.672 86.9779 12.6854 86.787 13.894C86.709 14.3967 86.3433 15.0126 85.8861 15.1869C85.0255 15.5123 84.9905 14.847 84.3586 14.4693C84.0063 14.2572 83.584 14.1671 83.2022 14.0393C83.1484 13.8563 83.1968 13.4844 83.3985 13.4524C83.8852 13.5367 85.3859 14.0132 85.5929 13.3304C85.6924 11.8632 85.7328 10.3989 85.7193 8.92592C85.7193 8.66734 85.6333 8.44944 85.6279 8.2083C85.601 7.20015 85.7193 6.15713 85.5472 5.16932H83.3178V5.17222Z" fill="#EDE2CC"/>
<path d="M2.1095 16.7938C2.00462 17.3167 1.03647 17.6334 0.708381 17.1627L1.02034 13.1737C0.931592 11.4276 1.16018 9.47522 0.912767 7.75526C0.853602 7.35432 0.616945 6.92143 0.345327 6.64251C0.323813 6.54373 0.404492 6.45948 0.482481 6.43043C0.93966 6.27354 1.98848 6.96791 2.49407 7.04345C3.09378 7.13352 3.80913 6.98825 4.42497 7.05798L4.88484 6.36941C5.22638 6.09341 6.39353 7.47054 6.44732 7.68262C6.57909 8.19687 5.74004 8.28984 5.71852 8.37409L5.96056 15.7769C5.85568 16.1459 4.90098 16.4625 4.63205 16.0645V14.5683H2.1095C2.02344 15.2045 2.22783 16.2011 2.1095 16.7879V16.7938ZM4.63474 7.87147H2.2359L2.1095 8.09809L2.02613 13.7606H4.71811L4.63474 7.87147Z" fill="#EDE2CC"/>
<path d="M16.8766 5.24196L17.0299 7.7115C16.9223 8.30419 15.7982 8.49594 15.7122 8.08629C15.6799 7.92649 15.852 7.08104 15.8654 6.82537C15.8896 6.32856 15.8493 5.82594 15.8654 5.33203L13.4747 5.60222C13.2918 5.57027 13.0551 5.33784 12.9207 5.19838C12.7755 5.05021 12.0735 4.25705 12.4689 4.16408C12.5496 4.14665 13.7167 4.40813 13.9776 4.42556C14.6311 4.46914 15.298 4.39651 15.9542 4.42556C15.8816 3.36221 15.9972 2.43541 15.5508 1.46212C15.4863 1.32267 15.1716 1.06409 15.3706 0.895581C15.4647 0.817137 17.4091 1.25294 17.514 1.43016C17.7076 1.76137 16.8793 2.1013 16.8793 2.56615V4.51272H19.4019V2.47318C19.4019 2.4325 19.2808 1.9938 19.2513 1.90954C19.1813 1.70617 18.5951 0.965309 18.9366 0.910108L21.0853 1.43016C21.2494 1.68874 20.413 2.23204 20.413 2.47027V4.50982H22.1369C22.4892 4.09145 22.7177 3.51619 23.2153 3.25471C23.4304 3.27505 24.2748 4.15246 24.447 4.37617C24.5223 4.47495 25.1005 5.23325 24.7428 5.23325H20.413L20.4829 7.98169C20.1737 8.39425 19.6735 8.31871 19.2351 8.3129L19.4045 5.23325H16.882L16.8766 5.24196Z" fill="#EDE2CC"/>
<path d="M110.474 20.5444C110.633 21.5758 110.286 22.244 109.251 21.907C109.294 21.3899 109.431 20.832 109.466 20.3178C109.53 19.3561 109.606 17.5258 109.202 16.7094C109.13 16.5641 108.745 16.2997 108.968 16.1109C109.213 15.9075 110.598 16.6774 110.942 16.7326C111.55 16.8314 113.941 16.8343 114.557 16.7413C115.019 16.6745 114.965 16.2038 115.183 16.0528C115.484 15.8494 116.555 16.9244 116.756 17.2323C116.797 17.5287 115.998 17.7088 115.939 18.0487C115.899 18.2841 115.931 18.778 115.939 19.0452C115.958 19.5217 116.256 21.0819 116.176 21.3811C116.055 21.8198 115.382 21.9854 115.014 21.8983V20.5386H110.472L110.474 20.5444ZM115.016 19.728V17.5984L114.89 17.4618H110.687C110.671 17.4618 110.477 17.671 110.477 17.6885V19.728H115.019H115.016Z" fill="#EDE2CC"/>
<path d="M65.1571 10.4744L66.4157 10.9741C66.3108 11.3315 65.8805 11.407 65.7837 11.7412C65.7245 11.9445 65.6761 12.7784 65.6627 13.0602C65.5417 15.4861 65.7729 17.9731 65.8267 20.3962C65.7945 20.922 64.4928 21.1109 64.4875 20.678C64.5493 20.1666 64.63 19.5449 64.6515 19.0365C64.7322 16.9998 64.7564 15.0038 64.6515 12.9701C64.6219 12.4123 64.7537 11.8167 64.5278 11.2908C64.4229 11.131 64.4068 11.2618 64.318 11.3373C63.9147 11.6801 63.5435 12.0811 63.1321 12.4152C62.6157 12.8336 61.5642 13.9405 61.2065 12.8801C61.6664 12.4704 62.1908 12.1276 62.6372 11.7005C63.4225 10.9509 65.3427 8.83001 65.5336 7.77247C65.5659 7.59525 65.3911 7.31052 65.6654 7.16526C65.894 7.04323 67.3166 8.02523 67.3274 8.16469C67.3542 8.49009 66.8756 8.48428 66.7088 8.56853C66.2274 8.80677 65.6008 10.0532 65.1598 10.4773L65.1571 10.4744Z" fill="#EDE2CC"/>
<path d="M146.169 2.49077C145.983 2.5082 145.811 2.57212 145.626 2.58664C141.95 2.86265 137.977 2.38617 134.266 2.57793C133.282 2.63022 132.196 2.97305 131.238 2.76677C131.122 2.69414 130.321 1.73538 130.302 1.63079C130.302 1.61626 130.348 1.38964 130.415 1.39836C131.381 1.68889 132.368 1.61917 133.349 1.67146C136.644 1.83997 139.962 1.7441 143.267 1.76443C143.59 1.6947 144.106 0.48318 144.429 0.512233C144.701 0.538381 146.045 1.93875 146.134 2.21185C146.164 2.30482 146.182 2.39198 146.169 2.48786V2.49077Z" fill="#EDE2CC"/>
<path d="M66.5312 1.30229C66.7679 1.24709 67.9996 2.04605 68.0587 2.25524C68.0856 2.35402 68.0937 2.47895 68.0345 2.5632C67.1363 2.68232 66.7491 3.76311 66.1789 4.46039C65.7056 5.03855 65.0521 5.69225 64.4928 6.17744C64.2158 6.41858 63.0836 7.35119 62.8119 7.35119C62.6533 7.35119 62.2284 7.03161 62.266 6.8631C63.5703 5.84623 65.7917 3.81831 66.2973 2.14483C66.3887 1.83977 66.2623 1.3662 66.5285 1.30229H66.5312Z" fill="#EDE2CC"/>
<path d="M111.655 2.23208C112.115 2.81605 111.51 3.74286 111.093 3.61502C110.859 3.54239 110.42 2.72018 110.213 2.47032C109.939 2.14202 108.643 1.13096 109.417 0.791036C109.474 0.741645 109.522 0.770698 109.584 0.785225C109.931 0.87529 111.415 1.92412 111.658 2.23208H111.655Z" fill="#EDE2CC"/>
</g>
<defs>
<clipPath id="clip0_3478_3146">
<rect width="147" height="23" fill="white"/>
</clipPath>
</defs>
</svg>
