<svg width="145" height="21" viewBox="0 0 145 21" fill="none" xmlns="http://www.w3.org/2000/svg">
<g clip-path="url(#clip0_3261_662)">
<path d="M136.379 14.8743C135.599 16.5508 134.018 18.0072 132.4 18.8879C131.999 19.1054 131.15 19.5404 130.736 19.6359C130.429 19.7076 130.137 19.4768 130.11 19.1744C132.869 17.9992 135.464 15.8134 135.962 12.723L132.872 13.0413L132.065 12.4736C131.482 14.5295 130.285 16.4156 128.665 17.8109C128.429 18.0151 127.301 18.8932 127.062 18.8322C126.922 18.7977 126.726 18.5483 126.749 18.3918C126.771 18.1769 127.795 17.4952 128.041 17.2724C130.739 14.8345 132.299 10.248 131.445 6.6775C131.344 6.25307 130.957 6.03555 130.983 5.60847L133.097 6.10452L140.069 6.10983L140.713 5.37238C141.058 5.48909 142.43 6.36448 142.339 6.70933C142.284 6.92155 141.504 7.27171 141.281 7.35659C141.016 8.16832 141.992 9.88461 140.92 10.1817C140.212 10.378 140.236 10.1287 140.27 9.49201H132.556L132.312 11.8052L136.787 11.9749C136.798 11.4524 136.822 10.9616 136.586 10.4815C136.466 10.2401 136.066 10.0119 136.344 9.73606L138.328 10.2321C138.511 10.63 138.111 10.6645 137.946 10.8555C137.729 11.1102 137.708 11.6434 137.7 11.9749H142.594C142.729 11.6593 143.164 10.9218 143.528 10.9934C143.772 11.0438 145.005 12.2747 145 12.5161L144.875 12.7177H137.119C137.148 12.8875 137.583 12.8556 137.533 13.0891C137.514 13.1766 136.657 13.6859 136.869 14.1236H140.063C140.262 14.1236 140.286 13.1129 141.183 13.8345C141.981 14.4764 142.671 15.2165 141.106 15.373C140.928 16.8586 140.413 19.1876 138.824 19.7553C138.575 19.8455 137.994 19.9622 137.745 19.9145C137.535 19.8747 137.318 19.5431 137.095 19.4025C136.564 19.0709 135.93 18.8958 135.373 18.6253C135.384 18.4555 135.464 18.1849 135.665 18.1796C136.477 18.4236 137.376 18.7022 138.236 18.5855C139.639 18.3945 140.024 16.0097 140.026 14.869H136.376L136.379 14.8743ZM140.278 6.84993H132.771C132.678 6.92155 132.564 7.37516 132.564 7.47066V8.75191H140.278V6.84993Z" fill="#B89668"/>
<path d="M110.499 6.47591C109.929 6.53161 108.931 6.82871 108.401 6.70669C108.016 6.61915 107.623 5.95863 107.348 5.68805C107.26 5.30076 108.417 5.635 108.634 5.64826C109.212 5.68275 109.815 5.56868 110.374 5.7305L110.467 5.56338L110.25 4.32722L107.146 4.6535C106.695 4.58453 106.249 3.84973 105.939 3.54202C105.931 3.2741 107.202 3.5712 107.39 3.58181C107.83 3.60834 108.279 3.56059 108.719 3.58181C109.491 3.61364 110.295 3.77015 111.08 3.62691C111.329 3.51284 112.672 1.3562 112.727 1.04318C112.756 0.870755 112.557 0.36409 112.947 0.393269C113.16 0.409185 114.377 1.13868 114.383 1.38007L114.298 1.58433C113.544 1.57903 113.372 2.14935 112.95 2.59501C112.632 2.92925 112.173 3.25553 111.995 3.66935H113.863L114.568 2.71438C114.749 2.59766 114.929 2.77804 115.067 2.8815C115.237 3.01148 116.2 4.00094 116.218 4.13357L116.101 4.32987H111.581C111.966 4.71186 111.271 5.15751 111.494 5.69601L112.685 5.71989C112.987 5.56072 113.229 4.78083 113.595 4.83654C113.839 4.87368 114.887 5.96659 114.948 6.2292L114.86 6.39898H111.541L111.417 6.52365V7.80491H113.947L114.762 6.82341L116.221 8.26913L116.104 8.46543H111.541C111.422 8.53705 111.427 8.6299 111.412 8.75192C111.324 9.49467 111.571 10.2825 111.499 11.0306C111.629 11.0545 111.69 11.0173 111.794 10.951C112.006 10.8131 112.926 9.74668 113.011 9.51855C113.096 9.29042 113.024 8.87394 113.3 8.80763C113.555 8.74661 114.436 9.4655 114.698 9.62466L114.635 9.94033C114.056 9.9138 113.438 10.3992 113.048 10.7971C112.977 10.8688 112.868 10.8661 112.908 11.0306H115.271L116.194 9.9642C116.42 9.92441 117.685 11.2534 117.706 11.4975L117.579 11.6778L109.791 11.6885L106.077 12.0068C105.939 11.9643 105.133 11.1075 105.064 10.9484C105 10.8025 105.034 10.7918 105.151 10.707C106.334 11.0306 107.562 10.8661 108.754 11.0306C108.876 10.9192 107.576 9.47345 107.44 9.32225C107.451 9.14982 107.618 8.88455 107.799 8.87925C108.029 8.87394 109.531 9.99869 109.671 10.2374C109.876 10.5849 109.642 10.7096 109.584 11.0279C109.881 10.9908 110.276 11.1393 110.496 10.9033V8.54501C110.098 8.56093 109.693 8.52113 109.295 8.54501C108.669 8.5848 107.435 8.89782 106.889 8.78906C106.594 8.7307 105.989 7.92693 105.769 7.67492C105.769 7.42027 106.95 7.7041 107.138 7.71472C108.252 7.78899 109.382 7.7943 110.496 7.7996V6.47591H110.499Z" fill="#B89668"/>
<path d="M72.3665 4.306H74.4807C74.8282 4.03543 74.9104 3.50489 75.3561 3.34573C75.5736 3.39878 76.8071 4.60045 76.6798 4.96652H74.1915L74.3613 5.25567C73.8122 5.89762 74.0881 6.74914 74.0244 7.53168C74.2525 7.4972 74.6637 7.60331 74.8547 7.48924C75.0033 7.4017 75.3375 6.65629 75.6426 6.55814C76.2872 6.88708 76.7726 7.47598 77.1572 8.07018C77.1519 8.11528 76.9848 8.27709 76.9716 8.27709H74.0271V10.6751C75.1094 10.9324 74.9873 10.1048 75.7115 9.69363C75.8733 9.71751 76.5418 10.3886 76.6798 10.5531C76.8681 10.7812 77.1466 11.0385 77.0962 11.3357H74.0271V14.0653C74.7804 14.1183 75.8786 13.556 76.5604 13.5798C76.8124 13.5878 77.1493 13.9406 76.9291 14.1051C75.8097 14.4658 74.6796 14.8054 73.5469 15.1157C72.7166 15.3439 71.2285 15.5508 70.5441 15.8426C70.109 16.0283 70.0692 16.9037 69.5652 16.6119C69.5095 16.58 68.8331 15.7365 68.7694 15.6304C68.5996 15.3412 68.3768 15.0282 68.7774 14.8266L70.7881 14.6409C70.7271 14.2085 70.873 13.7761 70.8783 13.3676C70.8863 12.7442 70.8412 10.9484 70.6449 10.4497C70.5043 10.0995 70.0348 9.91646 70.3478 9.59283L72.4487 10.1791C72.5177 10.5372 72.1171 10.6035 71.95 10.7972C71.6768 11.1155 71.7961 11.9299 71.7855 12.3702C71.7829 12.5108 71.7006 12.654 71.7006 12.7893C71.7006 13.3013 71.8757 13.93 71.7855 14.4818L73.0243 14.312L73.0296 8.27709L70.4353 8.59276C70.1276 8.55297 69.3636 7.76777 69.2973 7.49189C69.2018 7.08073 69.9552 7.42027 70.178 7.44149C71.1224 7.52903 72.0826 7.53699 73.0296 7.53434C73.1172 7.44945 72.9421 5.28485 72.8466 5.10977C72.8148 5.05141 72.8042 4.99305 72.7272 4.97979C71.7006 4.75431 71.6821 5.30872 71.1621 5.87905C71.0375 6.01699 70.3212 6.75444 70.231 6.77566C70.0268 6.82872 69.7536 6.58202 69.6475 6.4149C70.9526 4.87899 72.1834 3.17595 72.4434 1.11481C72.6105 0.992784 73.8281 1.6984 73.9475 1.86022C74.3454 2.39871 73.4886 2.25282 73.2763 2.52604L72.3665 4.306Z" fill="#B89668"/>
<path d="M14.5191 18.6279C14.6889 19.5882 14.5722 20.2646 13.4103 20.1055L13.2697 19.9092L13.5243 17.2671C13.5694 16.198 13.6596 11.593 13.2591 10.9059C13.1423 10.707 12.8001 10.569 12.9805 10.2719C13.0415 10.1685 13.405 10.2878 13.5217 10.3144C13.9275 10.4099 14.3918 10.6433 14.8056 10.6884C16.6731 10.89 18.8801 10.5345 20.7848 10.6937C21.2331 10.6778 21.1588 9.93237 21.6734 10.0385C21.8936 10.0836 23.151 10.9988 23.1324 11.211C23.1006 11.5983 22.0872 11.8821 22.0634 11.9856C22.0899 12.8344 22.0421 13.6886 22.0634 14.5401C22.1032 16.0468 22.3339 17.596 22.3976 19.0868C22.4056 19.2593 22.4294 19.4874 22.3817 19.6492C22.257 20.071 21.1561 20.2726 21.1561 19.9967V18.6306H14.5191V18.6279ZM17.0922 11.4311H14.6862C14.7207 11.5558 14.5191 11.7627 14.5191 11.8025V14.243H17.3389C17.3389 13.3039 17.3575 12.3304 17.0896 11.4311H17.0922ZM21.1561 14.243V11.5558L21.0315 11.4311H18.4186C18.774 11.7893 18.3814 11.8954 18.3337 12.2986C18.2912 12.662 18.209 13.6302 18.2488 13.9592C18.2621 14.0785 18.2594 14.1714 18.3761 14.243H21.1561ZM17.3416 14.9062H14.6464L14.5217 15.0309V17.8852H17.3416V14.9062ZM21.1561 14.9062H18.3761C18.2567 14.9778 18.2621 15.0706 18.2488 15.1927C18.1506 16.0362 18.3231 17.0336 18.3363 17.8852H21.1561V14.9062Z" fill="#B89668"/>
<path d="M99.3868 11.7441C99.1852 13.6063 98.4955 15.7656 97.3124 17.2432C97.1586 17.4368 96.3999 18.2433 96.2328 18.3255C96.0657 18.4077 95.7473 18.1663 95.7341 17.9859C95.7208 17.8056 96.888 16.4076 97.1002 16.0389C98.8112 13.0599 98.7343 8.30625 98.5565 4.92141C98.5274 4.36965 98.4982 3.64281 98.2435 3.16532C98.1056 2.90801 97.7262 2.79129 98.0287 2.47297C99.1322 2.67192 100.363 3.1892 101.501 2.97433C101.806 2.91597 101.827 2.30054 102.164 2.17056C102.796 2.46236 103.326 2.92393 103.777 3.4412C103.814 3.65342 103.162 4.0301 102.968 4.06459C103.008 4.44127 102.891 4.82061 102.872 5.16811C102.655 9.12859 103.016 13.2615 103.018 17.2246C102.891 17.7472 102.517 18.2884 101.965 18.4077C101.079 18.5961 101.14 18.0549 100.493 17.7154C100.018 17.466 98.5459 17.3864 99.2781 16.7153C99.867 16.7445 101.512 17.3095 101.814 16.6039C101.859 16.0654 101.941 15.4659 101.963 14.9327C101.997 14.1369 102.053 12.784 101.963 12.028C101.949 11.9086 101.952 11.8158 101.835 11.7415H99.3895L99.3868 11.7441ZM101.793 3.71974H99.8431C99.8086 3.71974 99.6733 3.88155 99.6521 3.94522C99.6389 3.98501 99.5513 4.47841 99.5513 4.50759V6.94807H101.875L101.793 3.72239V3.71974ZM101.875 7.69083H99.5513L99.4691 11.0836H101.833C101.952 11.012 101.947 10.9192 101.96 10.7971C102.077 9.79972 101.785 8.69885 101.872 7.69083H101.875Z" fill="#B89668"/>
<path d="M44.0755 13.5798C44.3991 13.9008 44.0755 13.9804 44.0012 14.2907C43.8845 14.7576 43.911 15.2537 43.911 15.7312H46.4417C46.6008 15.5508 47.1765 14.6568 47.3993 14.6913C47.7441 14.8345 48.9776 15.9805 48.9723 16.275L48.8477 16.4766H43.911V18.2539C43.911 18.299 44.0383 18.4369 43.9932 18.543H49.5931C49.8159 18.299 50.3093 17.3679 50.6594 17.4024C50.9672 17.4315 51.9168 18.4661 52.1211 18.7526C52.2484 18.9303 52.458 19.1027 52.2351 19.2937L39.1388 19.2858L35.6876 19.5776C35.3932 19.5298 34.5443 18.6544 34.539 18.421L34.661 18.2326C37.396 18.7552 40.2237 18.4714 43.0011 18.5457V16.4766C42.4096 16.4713 41.8074 16.5057 41.2185 16.5588C40.7808 16.5986 39.5473 16.8851 39.2396 16.7127C39.1043 16.6357 38.2979 15.7816 38.274 15.6861L38.404 15.4871C39.9187 15.7816 41.4652 15.7312 43.0011 15.7312C42.9746 15.0096 42.9507 14.2775 42.7438 13.5878C42.1071 13.6223 41.4387 13.6143 40.8047 13.662C40.2078 13.7071 38.9027 13.9989 38.4013 13.9061C38.091 13.8477 37.579 13.2588 37.4066 12.9936C37.3323 12.8795 37.1811 12.6355 37.4066 12.5904C37.4835 12.5744 38.717 12.8132 38.9796 12.8318C39.6136 12.8742 40.2582 12.7601 40.8843 12.9193C42.7677 12.7283 45.1206 13.1607 46.9483 12.9193C47.4152 12.8583 47.7574 11.8741 48.1845 11.9192C48.41 11.9431 49.6939 13.174 49.7124 13.3835L49.5984 13.5772H44.0834L44.0755 13.5798Z" fill="#B89668"/>
<path d="M46.5929 3.22102C46.813 3.15736 46.9483 2.43848 47.333 2.47296C47.5425 2.49153 48.7097 3.42793 48.7522 3.62689C48.8397 4.0354 47.9404 4.16538 47.8768 4.50228C47.9378 5.29809 47.9139 6.10716 47.9617 6.90031C47.9935 7.4282 48.333 8.86862 48.02 9.23469C47.8768 9.40181 47.2375 9.60607 47.0438 9.47078L46.9669 8.76251H40.6216L40.4519 8.84209C40.3962 9.41242 40.2317 9.67769 39.6269 9.68034C39.42 9.68034 39.1918 9.71748 39.168 9.46547C39.3324 7.84733 39.534 6.12838 39.4226 4.49962C39.3908 4.03275 39.3059 3.58179 39.1043 3.16266C39.0088 2.96106 38.7541 2.86291 38.839 2.5605C39.5022 2.47827 40.9559 3.47568 41.4917 3.17858C41.7278 3.0486 42.8817 0.852165 42.6616 0.417122C42.8128 0.159811 44.0436 0.947662 44.224 1.11743C44.7254 1.58961 43.9853 1.59492 43.7306 1.69042C43.4149 1.80714 42.696 2.91331 42.4043 3.22368H46.5929V3.22102ZM46.9669 5.62171V4.00887L46.8422 3.8842H40.6216C40.5951 3.8842 40.497 3.99296 40.4147 3.96643V5.62171H46.9669ZM46.9669 6.36447H40.4147V8.10199H46.9669V6.36447Z" fill="#B89668"/>
<path d="M82.1841 4.72246C81.7437 4.84979 81.9135 6.64832 81.8976 7.08337C81.7543 10.7441 81.7968 14.4181 82.0594 18.0735C81.9984 18.7499 80.7012 18.7075 80.6482 18.482L80.9028 13.8663C80.9267 11.5744 80.9002 9.2798 80.8126 7.00113C80.7835 6.23715 80.9081 5.26627 80.7145 4.53678C80.6402 4.25559 79.8895 3.4253 80.5049 3.49692C81.0116 3.55528 81.7225 3.98501 82.1894 4.05664C82.4785 4.10173 84.155 4.09643 84.3275 3.98502C84.4548 3.90278 84.5291 3.40938 84.8368 3.40142C85.1153 3.39612 86.3568 4.28477 86.2825 4.58187C86.2109 4.86836 85.6618 4.96121 85.5663 5.07527C85.3939 5.28218 85.4469 8.07282 85.4575 8.57418C85.4204 9.74402 85.7944 11.5823 85.6061 12.6859C85.5291 13.1448 85.1684 13.7072 84.7174 13.8663C83.8686 14.1634 83.8341 13.5559 83.2107 13.2111C82.8632 13.0174 82.4467 12.9352 82.07 12.8185C82.017 12.6514 82.0647 12.3118 82.2637 12.2827C82.7438 12.3596 84.224 12.7946 84.4283 12.1712C84.5264 10.8316 84.5662 9.49467 84.5529 8.14975C84.5529 7.91366 84.4681 7.71471 84.4628 7.49453C84.4362 6.57405 84.5529 5.62173 84.3832 4.71981H82.1841V4.72246Z" fill="#B89668"/>
<path d="M2.0806 15.3333C1.97714 15.8107 1.02217 16.0999 0.698541 15.6701L1.00625 12.028C0.918715 10.4337 1.14419 8.65111 0.900146 7.08071C0.841787 6.71464 0.608349 6.31939 0.340427 6.06473C0.319205 5.97454 0.398786 5.89761 0.475715 5.87108C0.926673 5.72784 1.96123 6.36183 2.45993 6.4308C3.05148 6.51303 3.7571 6.3804 4.36457 6.44406L4.81818 5.81538C5.15507 5.56337 6.30634 6.82075 6.3594 7.01439C6.48938 7.48392 5.66174 7.56881 5.64052 7.64574L5.87926 14.4048C5.7758 14.7417 4.8341 15.0308 4.56883 14.6674V13.3013H2.0806C1.99571 13.8822 2.19732 14.7921 2.0806 15.3279V15.3333ZM4.57148 7.18682H2.20527L2.0806 7.39373L1.99836 12.5638H4.65371L4.57148 7.18682Z" fill="#B89668"/>
<path d="M16.6466 4.78612L16.7978 7.04091C16.6917 7.58206 15.5828 7.75714 15.4979 7.38311C15.4661 7.23721 15.6359 6.46527 15.6491 6.23184C15.673 5.77823 15.6332 5.31931 15.6491 4.86835L13.2909 5.11505C13.1105 5.08587 12.8771 4.87366 12.7444 4.74633C12.6012 4.61104 11.9088 3.88685 12.2988 3.80197C12.3784 3.78605 13.5296 4.02479 13.7869 4.04071C14.4316 4.0805 15.0894 4.01418 15.7367 4.04071C15.6651 3.06982 15.7791 2.22361 15.3388 1.33496C15.2751 1.20763 14.9647 0.971537 15.161 0.817681C15.2539 0.746058 17.1718 1.14396 17.2752 1.30578C17.4662 1.60818 16.6492 1.91855 16.6492 2.34298V4.12029H19.1374V2.2581C19.1374 2.22096 19.0181 1.8204 18.9889 1.74347C18.9199 1.55778 18.3416 0.881345 18.6785 0.830944L20.798 1.30578C20.9598 1.54187 20.1349 2.03792 20.1349 2.25544V4.11764H21.8352C22.1827 3.73565 22.4082 3.21041 22.899 2.97167C23.1112 2.99024 23.9441 3.79135 24.1139 3.99561C24.1882 4.0858 24.7585 4.77816 24.4057 4.77816H20.1349L20.2038 7.28761C19.8988 7.66429 19.4054 7.59532 18.973 7.59002L19.1401 4.77816H16.6519L16.6466 4.78612Z" fill="#B89668"/>
<path d="M108.971 18.7579C109.128 19.6996 108.785 20.3097 107.764 20.002C107.807 19.5298 107.942 19.0205 107.976 18.551C108.04 17.6729 108.114 16.0017 107.716 15.2563C107.645 15.1237 107.265 14.8823 107.486 14.7099C107.727 14.5242 109.093 15.2271 109.433 15.2775C110.032 15.3677 112.39 15.3704 112.998 15.2855C113.454 15.2245 113.401 14.7947 113.616 14.6568C113.913 14.4711 114.969 15.4526 115.168 15.7338C115.208 16.0044 114.42 16.1688 114.361 16.4792C114.322 16.6941 114.353 17.145 114.361 17.3891C114.38 17.8241 114.674 19.2486 114.595 19.5219C114.475 19.9224 113.812 20.0736 113.449 19.994V18.7526H108.968L108.971 18.7579ZM113.451 18.0125V16.068L113.327 15.9434H109.181C109.165 15.9434 108.974 16.1344 108.974 16.1503V18.0125H113.454H113.451Z" fill="#B89668"/>
<path d="M64.2704 9.56364L65.5119 10.0199C65.4084 10.3462 64.984 10.4152 64.8885 10.7202C64.8302 10.9059 64.7824 11.6672 64.7691 11.9245C64.6498 14.1395 64.8779 16.4102 64.931 18.6226C64.8991 19.1027 63.6152 19.2752 63.6099 18.8799C63.6709 18.413 63.7505 17.8454 63.7717 17.3811C63.8513 15.5216 63.8752 13.6992 63.7717 11.8423C63.7426 11.333 63.8725 10.7892 63.6497 10.309C63.5463 10.1631 63.5303 10.2825 63.4428 10.3515C63.0449 10.6645 62.6788 11.0306 62.273 11.3356C61.7636 11.7176 60.7264 12.7283 60.3736 11.7601C60.8272 11.386 61.3445 11.073 61.7849 10.6831C62.5594 9.99868 64.4535 8.06221 64.6418 7.09663C64.6736 6.93481 64.5012 6.67485 64.7718 6.54221C64.9973 6.4308 66.4006 7.32741 66.4112 7.45474C66.4377 7.75184 65.9655 7.74654 65.801 7.82347C65.3262 8.04099 64.7081 9.17899 64.2731 9.56629L64.2704 9.56364Z" fill="#B89668"/>
<path d="M144.18 2.27403C143.997 2.28994 143.827 2.3483 143.644 2.36157C140.018 2.61357 136.1 2.17853 132.439 2.35361C131.469 2.40136 130.397 2.71438 129.453 2.52603C129.338 2.45972 128.548 1.58433 128.529 1.48883C128.529 1.47557 128.574 1.26866 128.641 1.27661C129.593 1.54188 130.567 1.47822 131.535 1.52597C134.784 1.67982 138.058 1.59228 141.318 1.61085C141.636 1.54719 142.146 0.441014 142.464 0.467541C142.732 0.491415 144.058 1.77002 144.146 2.01937C144.175 2.10426 144.194 2.18384 144.18 2.27138V2.27403Z" fill="#B89668"/>
<path d="M65.626 1.18907C65.8594 1.13867 67.0743 1.86816 67.1327 2.05916C67.1592 2.14935 67.1672 2.26342 67.1088 2.34034C66.2228 2.44911 65.8408 3.43591 65.2785 4.07256C64.8116 4.60044 64.167 5.1973 63.6152 5.6403C63.342 5.86047 62.2252 6.71199 61.9573 6.71199C61.8008 6.71199 61.3817 6.42019 61.4188 6.26634C62.7053 5.33789 64.8965 3.48631 65.3952 1.95836C65.4854 1.67982 65.3607 1.24743 65.6233 1.18907H65.626Z" fill="#B89668"/>
<path d="M110.136 2.03794C110.589 2.57113 109.992 3.41734 109.581 3.30062C109.35 3.2343 108.918 2.48359 108.714 2.25546C108.443 1.9557 107.165 1.03256 107.929 0.722198C107.984 0.677102 108.032 0.703629 108.093 0.716893C108.435 0.799126 109.899 1.75675 110.138 2.03794H110.136Z" fill="#B89668"/>
</g>
<defs>
<clipPath id="clip0_3261_662">
<rect width="145" height="21" fill="white"/>
</clipPath>
</defs>
</svg>
