<svg xmlns="http://www.w3.org/2000/svg" width="520" height="80" fill="none" viewBox="0 0 520 80"><g clip-path="url(#a)"><path fill="url(#b)" d="M.801 80h518.39c1.074 0 1.074-1.678 0-1.678H.801c-1.073 0-1.073 1.678 0 1.678"/><path fill="url(#c)" d="M267.683 75.353h250.186a1.28 1.28 0 0 0 1.27-1.282v-.026a1.28 1.28 0 0 0-1.27-1.282c-18.153.042-225.121.43-249.922-4.983a1.272 1.272 0 0 0-1.534 1.256v5.043a1.28 1.28 0 0 0 1.27 1.282z"/><path fill="url(#d)" d="M262.868 72.65c0 1.49-1.202 2.703-2.676 2.703s-2.676-1.214-2.676-2.703 1.201-2.702 2.676-2.702c1.474 0 2.676 1.214 2.676 2.703"/><path fill="url(#e)" d="M252.317 75.353H2.13A1.28 1.28 0 0 1 .86 74.07v-.026a1.28 1.28 0 0 1 1.27-1.282c18.153.042 225.122.43 249.922-4.983a1.27 1.27 0 0 1 1.534 1.256v5.043a1.28 1.28 0 0 1-1.269 1.282z"/><path fill="url(#f)" d="M387.833 56.678s-.23.078-.664.215c-.222.07-.495.13-.819.215-.162.044-.341.07-.528.112-.188.035-.392.078-.605.112-1.722.276-4.261.379-7.372.078-3.111-.284-6.767-.947-10.747-1.98a97 97 0 0 1-9.409-2.969c-1.091-.404-2.173-.852-3.264-1.3-2.182-.903-4.278-1.824-6.315-2.641a79 79 0 0 0-5.915-2.143c-3.826-1.179-7.389-1.893-10.397-2.057a26 26 0 0 0-2.148-.017 18 18 0 0 0-1.909.18 12.3 12.3 0 0 0-2.957.818 9.6 9.6 0 0 0-1.713.956c-.188.129-.315.24-.409.318-.094.069-.137.112-.137.112s.043-.043.12-.13c.085-.085.196-.215.366-.37.333-.31.852-.757 1.611-1.204.758-.448 1.756-.887 2.966-1.214a19 19 0 0 1 1.968-.404 22 22 0 0 1 2.242-.207c3.153-.137 6.903.31 10.917 1.317a62 62 0 0 1 6.196 1.954c2.105.774 4.236 1.67 6.4 2.564 1.083.448 2.148.886 3.205 1.3a156 156 0 0 0 9.136 3.244c3.852 1.222 7.372 2.151 10.363 2.728 2.992.577 5.463.766 7.176.723.213 0 .418-.017.605-.026.188-.017.367-.017.529-.034.324-.043.605-.06.826-.095.444-.077.682-.112.682-.112z"/><path fill="url(#g)" d="M397.344 43.4q.192-.349.742-.414c.179-.017.4-.026.63.009.231.043.486.103.767.198.273.112.571.25.87.422.298.197.622.404.92.705a5.57 5.57 0 0 1 1.517 2.427 6 6 0 0 1 .213 2.04c-.059.809-.307 1.67-.707 2.47-.801 1.6-2.156 2.882-3.528 3.777a12.6 12.6 0 0 1-3.853 1.696c-1.065.25-1.755.224-1.781.12-.034-.112.563-.43 1.398-1.007.409-.292.886-.645 1.372-1.067s.98-.903 1.432-1.428a10 10 0 0 0 1.201-1.67 7 7 0 0 0 .708-1.67c.136-.516.162-.963.128-1.316a4.5 4.5 0 0 0-.179-.835 6 6 0 0 0-.554-1.265c-.103-.215-.256-.422-.367-.637a8 8 0 0 1-.375-.61 4 4 0 0 1-.324-.569 3.4 3.4 0 0 1-.23-.516c-.11-.327-.119-.62 0-.852z"/><path fill="url(#h)" d="M408.594 55.783c-.077.25-.23.465-.409.654-.179.19-.375.327-.597.482-.434.258-.911.465-1.465.534-.282.034-.75.034-1.338.103-.588.06-1.287.198-1.952.404-.162.052-.332.104-.494.164-.154.06-.316.12-.469.18-.29.13-.58.241-.81.362-.247.103-.443.207-.596.267-.154.06-.265.077-.316.043q-.061-.052-.008-.31c.034-.172.094-.404.221-.671.111-.276.282-.568.486-.904.111-.155.222-.318.35-.49q.191-.246.409-.49a8.3 8.3 0 0 1 2.071-1.68c.741-.43 1.483-.67 1.96-.73.946-.13 1.866.12 2.403.576.273.206.46.482.546.74.093.258.093.516.008.766"/><path fill="url(#i)" d="M423.185 49.725c-.009-.31-.06-.603-.086-.904-.034-.301-.059-.594-.11-.886-.384-2.35-1.27-4.57-2.549-6.403-1.295-1.825-2.931-3.27-4.644-4.346-1.722-1.076-3.529-1.79-5.276-2.29a26 26 0 0 0-5.088-.877 30 30 0 0 0-4.568.043c-.358.034-.699.069-1.039.103-.341.052-.674.095-.998.147a11 11 0 0 0-.954.172c-.307.06-.614.111-.912.18-.298.07-.58.147-.869.215l-.418.104c-.136.043-.273.077-.401.12-.264.078-.519.155-.775.233-.256.077-.494.172-.724.25a25 25 0 0 0-4.168 1.884c-.23.12-.426.25-.597.353s-.306.189-.426.267c-.23.137-.341.215-.341.215s.12-.06.358-.19c.12-.06.265-.137.444-.232.179-.086.375-.198.613-.301.938-.448 2.352-1.033 4.244-1.558.239-.06.478-.138.733-.198.256-.06.512-.112.776-.172.136-.026.264-.06.4-.095l.418-.077c.281-.052.563-.103.861-.155.29-.052.596-.077.903-.12.307-.044.622-.087.938-.104l.98-.077c.332-.009.673-.026 1.014-.035a31 31 0 0 1 4.398.215 26 26 0 0 1 4.772 1.093c1.619.551 3.256 1.3 4.764 2.35 1.5 1.05 2.872 2.384 3.929 4.01 1.031 1.635 1.713 3.554 1.977 5.603.034.258.043.516.068.774.018.258.052.525.052.783-.009.517 0 1.042-.069 1.558-.025.525-.153 1.033-.247 1.549-.068.25-.145.508-.221.757-.06.258-.171.5-.265.749-.17.5-.434.972-.664 1.454-.137.233-.281.465-.418.697l-.102.173-.119.163-.239.336a15.8 15.8 0 0 1-2.241 2.495c-1.688 1.54-3.716 2.815-5.907 3.856-2.198 1.041-4.568 1.85-7.022 2.427a35.6 35.6 0 0 1-7.577.955h-.954c-.315-.009-.631-.026-.946-.034l-.938-.078c-.323-.043-.647-.077-.971-.12-1.296-.172-2.582-.31-3.852-.543-.64-.103-1.27-.215-1.901-.318-.631-.12-1.253-.258-1.875-.387-.622-.13-1.244-.25-1.858-.396-.613-.146-1.227-.301-1.832-.448-4.866-1.204-9.503-2.693-13.883-4.225-4.389-1.532-8.54-3.09-12.452-4.51-3.911-1.42-7.576-2.693-10.959-3.769-1.696-.516-3.307-1.024-4.85-1.446-1.542-.43-3.008-.8-4.397-1.084-2.779-.568-5.233-.783-7.236-.628a13 13 0 0 0-2.616.439c-.29.077-.546.172-.793.258-.077.017-.153.043-.239.06-.102.026-.213.052-.315.086-.102.035-.204.06-.307.095a5 5 0 0 0-.307.112c-.204.069-.4.154-.588.24a10 10 0 0 0-1.108.577 9 9 0 0 0-1.005.697c-.307.258-.605.517-.878.8-1.091 1.12-1.798 2.48-2.088 3.796a7.04 7.04 0 0 0 .145 3.571c.145.5.349.973.579 1.429l.179.335a1 1 0 0 0 .103.164l.102.163c.068.112.145.216.221.319l.111.155.12.146a7.7 7.7 0 0 0 1.056 1.059c.384.31.776.593 1.185.834.818.482 1.687.844 2.557 1.093.434.12.878.224 1.312.293.222.043.435.06.656.086l.324.026c.111 0 .222.017.324.017h.81l.162-.017c.111 0 .213-.017.315-.026.102-.017.213-.026.315-.043l.154-.017.153-.026c.102-.017.205-.034.307-.06l.307-.078c.102-.026.204-.051.298-.086s.196-.06.298-.094c.196-.078.392-.138.571-.224.375-.155.725-.37 1.057-.585.077-.06.162-.121.239-.181l.119-.086.111-.095c.077-.069.153-.129.222-.19l.204-.206.102-.103s.06-.078.094-.112c.06-.077.128-.146.188-.224.059-.077.11-.155.17-.232l.085-.12s.051-.078.077-.121c.051-.078.094-.163.145-.241.042-.086.085-.163.119-.25l.06-.12.051-.13q.053-.128.094-.257l.076-.258c.009-.044.026-.087.034-.13l.026-.129.051-.258c.009-.086.026-.172.034-.258 0-.043.009-.086.017-.13v-.128q.015-.131.017-.25v-.37s-.008-.086-.017-.12c0-.078-.017-.164-.025-.241q-.015-.117-.043-.233c-.025-.154-.068-.31-.102-.456a4.6 4.6 0 0 0-.759-1.549 4.3 4.3 0 0 0-1.082-1.024 4 4 0 0 0-1.116-.516q-.065-.024-.128-.035l-.128-.025-.247-.052c-.162-.017-.307-.035-.452-.043h-.383q-.065-.002-.128.008a1.68 1.68 0 0 0-1.986.904 1.707 1.707 0 0 0 .793 2.272 1.676 1.676 0 0 0 2.249-.8 1.71 1.71 0 0 0-.323-1.928.6.6 0 0 1 .119.034c.068.026.145.052.213.07.034.008.077.025.111.034.034.017.077.034.111.051.306.12.622.301.929.542.306.242.596.551.843.93.239.379.443.826.554 1.334.026.129.051.25.068.387 0 .069.017.13.026.198 0 .069 0 .13.008.198v.206c0 .07.001.138-.008.207 0 .069-.017.138-.026.207v.103s-.025.069-.025.103c-.009.069-.026.138-.034.207l-.051.206-.026.104s-.026.068-.034.103a2 2 0 0 0-.068.206c-.026.07-.06.138-.085.198l-.043.103-.051.095c-.034.069-.068.13-.102.198-.043.06-.086.13-.12.19-.017.034-.042.06-.059.094l-.069.095c-.051.06-.093.12-.136.18-.051.06-.102.112-.153.173-.026.025-.052.06-.077.086l-.085.077c-.06.052-.111.112-.171.164-.059.051-.128.103-.187.154l-.094.078-.102.069c-.068.043-.137.094-.205.137-1.116.715-2.591 1.042-4.125.956-.093 0-.196-.009-.289-.017-.094-.01-.196-.018-.29-.026a12 12 0 0 1-.58-.086 12 12 0 0 1-1.167-.276 10 10 0 0 1-2.25-.998 8.5 8.5 0 0 1-1.023-.731 6.7 6.7 0 0 1-.886-.887l-.103-.12-.093-.13c-.06-.085-.128-.163-.179-.258l-.086-.129s-.059-.086-.076-.137l-.154-.284a7.7 7.7 0 0 1-.485-1.197 6.5 6.5 0 0 1-.248-1.36c-.034-.49 0-1.015.12-1.557a6.3 6.3 0 0 1 .605-1.635c.068-.138.153-.267.23-.405.085-.137.179-.266.264-.395a9 9 0 0 1 .631-.758c.23-.25.486-.473.75-.697.273-.215.554-.43.869-.61a8 8 0 0 1 .963-.517c.171-.07.341-.155.52-.215a3 3 0 0 1 .264-.095c.094-.026.179-.06.273-.086.094-.034.179-.052.273-.078l.281-.077.588-.13c.102-.016.196-.042.298-.06l.298-.051q.156-.025.299-.052.153-.028.307-.043c.204-.025.409-.051.613-.069.205-.017.409-.025.622-.043.205-.017.418-.017.631-.017h.315c.103 0 .213.009.316.009.102 0 .213.008.315.017.102 0 .213.009.315.026.213.026.426.043.64.069.511.06 1.022.069 1.534.146.451.06.903.138 1.363.172.801.052 1.594.138 2.386.241.333.043 1.816.241 1.816.241h-.017c.554.18 1.116.362 1.696.56 1.5.507 3.068 1.101 4.721 1.695 3.298 1.24 6.878 2.676 10.713 4.26 3.844 1.575 7.943 3.287 12.323 4.965 4.381 1.67 9.06 3.305 14.037 4.622l1.875.49c.631.155 1.27.284 1.909.43.639.138 1.278.293 1.935.422.647.12 1.304.233 1.96.353 1.312.258 2.65.413 3.988.594l1.014.129c.35.026.708.06 1.057.086.35.017.708.026 1.057.043.349.009.707 0 1.057 0 2.821-.034 5.574-.422 8.216-1.067 2.642-.646 5.19-1.55 7.568-2.72 2.377-1.179 4.602-2.633 6.502-4.44a18.2 18.2 0 0 0 2.54-2.97l.273-.404.136-.206.119-.215c.162-.284.316-.568.478-.852.272-.586.562-1.17.758-1.782.111-.301.222-.602.29-.912.077-.31.162-.62.23-.93.102-.628.222-1.247.247-1.876.068-.62.026-1.239.017-1.85z"/><path fill="url(#j)" d="m259.612 53.735-2.421 5.172.017.017c.989 1.334 2.455 8.15 2.455 8.15 0 .043.06.052.068 0 .281-1.429 1.423-6.988 2.284-8.158l.017-.018-2.42-5.172z"/><path fill="url(#k)" d="M277.979 16.859c.366-.164.639-.473.775-.973.128-.49.085-1.17-.255-1.936-.341-.757-1.04-1.583-2.037-2.169-.997-.593-2.276-.886-3.529-.791-.63.025-1.423.215-2.267.55a8.7 8.7 0 0 0-2.48 1.55 10.4 10.4 0 0 0-2.028 2.41 11.7 11.7 0 0 0-1.244 2.805 13 13 0 0 0-.452 2.702q-.025.634 0 1.179c.026.37.051.714.094 1.024.051.31.102.594.153.835.051.24.119.456.179.62.119.335.23.524.324.524.077 0 .196-.18.324-.499.136-.361.307-.8.503-1.3.102-.266.238-.55.358-.843.136-.292.289-.602.443-.912a13.4 13.4 0 0 1 1.167-1.824 9.3 9.3 0 0 1 1.5-1.515 7.2 7.2 0 0 1 1.586-.964 5 5 0 0 1 1.355-.396c.093-.026.187-.026.272-.034s.162-.026.239-.026.145-.009.204-.017h.171c.418-.026.758-.052 1.091-.069a6 6 0 0 1 1.108.026c.809.086 1.721.396 2.463.069z"/><path fill="url(#l)" d="M265.416 10.078c-2.25 5.154-2.855 12.383-2.924 13.33 0 .06-.042.103-.076.103l-2.191 2.505a.716.716 0 0 1-1.09 0l-2.191-2.505s-.076-.043-.076-.103c-.069-.955-.58-7.625-2.924-13.33-.017-.044 4.517-8.236 5.54-9.949.102-.172.307-.172.409 0 1.023 1.713 5.557 9.905 5.54 9.949z"/><path fill="url(#m)" d="M241.067 16.859c-.366-.164-.639-.473-.775-.973-.128-.49-.085-1.17.256-1.936.34-.757 1.039-1.583 2.036-2.169.998-.593 2.276-.886 3.529-.791.63.025 1.423.215 2.267.55a8.7 8.7 0 0 1 2.48 1.55 10.4 10.4 0 0 1 2.028 2.41c.554.894.963 1.858 1.244 2.805.265.946.401 1.867.452 2.702q.025.634 0 1.179c-.025.37-.051.714-.094 1.024-.051.31-.102.594-.153.835-.051.24-.119.456-.179.62-.119.335-.23.524-.324.524-.077 0-.196-.18-.324-.499-.136-.361-.307-.8-.503-1.3-.102-.266-.238-.55-.358-.843a40 40 0 0 0-.443-.912 13.4 13.4 0 0 0-1.167-1.824 9.3 9.3 0 0 0-1.5-1.515 7.2 7.2 0 0 0-1.585-.964 5 5 0 0 0-1.355-.396c-.094-.026-.188-.026-.265-.034-.085-.009-.162-.026-.238-.026a2 2 0 0 1-.205-.017h-.17c-.418-.026-.759-.052-1.091-.069a6 6 0 0 0-1.108.026c-.81.086-1.722.396-2.463.069z"/><path fill="url(#n)" d="m259.672 26.936-2.804 2.685c.503.68 2.804 4.622 2.804 4.622s2.19-3.942 2.693-4.622z"/><path fill="url(#o)" d="M247.869 23.778q.294.078.562.155c.776.224 1.474.43 2.097.602.622.172 1.15.319 1.593.44.546.128.938.223 1.159.275 0 0 0-.018.009-.026a65 65 0 0 1-1.117-.43c-.264-.104-.571-.233-.903-.362-.043-.034-.094-.077-.162-.129a5 5 0 0 0-.187-.146l.23.051a7.5 7.5 0 0 1 2.181.921c0-.017.018-.034.026-.06a2 2 0 0 1 .153-.336c-.656-.439-1.414-.774-2.232-1.015a13 13 0 0 0-1.441-.327 23 23 0 0 0-2.821-1.55 34 34 0 0 0-.554-.258c-.196-.077-.392-.163-.588-.249-.4-.172-.826-.318-1.261-.49-.886-.302-1.832-.612-2.864-.853a24.5 24.5 0 0 0-3.264-.559 17 17 0 0 0-1.764-.077c-.298 0-.596.017-.895.017-.298.008-.605.043-.903.06-3.298.267-6.29 1.102-8.77 1.945a56 56 0 0 0-5.812 2.392c-.699.25-1.568.534-2.548.93s-2.088.852-3.299 1.36c-1.184.559-2.463 1.187-3.818 1.85-1.321.723-2.727 1.471-4.142 2.306-1.031.62-2.045 1.24-3.008 1.842-.98.62-1.875 1.3-2.702 1.945l-2.326 1.859a50 50 0 0 1-2.054 1.549c-1.279.903-2.395 1.497-3.205 1.833-.204.077-.383.155-.537.215l-.409.129c-.221.069-.332.112-.332.112s.119-.017.349-.06c.111-.018.256-.043.427-.078.161-.034.349-.094.571-.146.852-.233 2.062-.714 3.443-1.515.69-.404 1.431-.869 2.198-1.394.776-.525 1.586-1.11 2.438-1.704.852-.602 1.738-1.222 2.693-1.781a221 221 0 0 0 3.017-1.782c1.406-.817 2.77-1.609 4.065-2.366a317 317 0 0 0 3.682-2.031 201 201 0 0 0 3.153-1.618c.938-.49 1.764-.87 2.438-1.188a102 102 0 0 1 5.948-1.833c2.497-.662 5.438-1.342 8.617-1.6.289-.018.579-.044.869-.06l.861-.027c.562-.008 1.116 0 1.662.043a28 28 0 0 1 3.153.413c1.006.181 1.943.422 2.829.655.435.129.861.24 1.262.378.204.07.4.13.596.19.196.068.384.137.563.197a28 28 0 0 1 2.199.887 15 15 0 0 0-.895-.086c-1.424-.517-3.128-1.033-5.071-1.265-.273-.043-.546-.052-.818-.078-.282-.017-.554-.043-.844-.06-.571 0-1.151-.043-1.739-.008-1.184.017-2.403.146-3.639.326-3.366.526-6.383 1.55-8.906 2.488-1.261.473-2.403.946-3.409 1.36-.503.215-.971.404-1.397.593-.427.198-.819.37-1.168.534-.367.12-.767.258-1.21.404-.435.172-.912.353-1.415.55-1.023.38-2.148.896-3.383 1.447-2.455 1.144-5.25 2.616-8.208 4.242-2.164 1.205-4.227 2.341-6.127 3.288-1.926.878-3.699 1.61-5.242 2.065-.767.233-1.457.482-2.079.611-.622.147-1.176.293-1.594.508a2.4 2.4 0 0 0-.358.215c-.179.017-.349.035-.528.043l-1.202.078-.596.034-.597.017c-.401.009-.793.035-1.185.035a36 36 0 0 1-4.636-.215l-.562-.078c-.188-.026-.375-.043-.563-.086l-1.099-.206c-.358-.087-.725-.181-1.083-.267a5 5 0 0 1-.528-.155c-.179-.052-.349-.112-.528-.164-.171-.06-.35-.103-.52-.172-.171-.06-.341-.129-.512-.19-.34-.128-.681-.249-1.005-.404-.333-.146-.665-.284-.98-.447-.324-.164-.639-.327-.955-.49-.162-.078-.315-.173-.469-.259s-.306-.18-.46-.267c-.153-.086-.307-.18-.46-.266s-.298-.19-.452-.284c-.298-.19-.588-.38-.886-.568-.145-.095-.273-.198-.409-.293s-.273-.19-.401-.301c-.127-.104-.264-.207-.392-.31s-.247-.215-.375-.327c-.255-.207-.485-.448-.716-.671a16 16 0 0 1-1.269-1.446 18 18 0 0 1-1.057-1.54 14 14 0 0 1-.818-1.618c-.248-.543-.426-1.093-.597-1.636-.068-.275-.145-.55-.204-.817-.052-.276-.12-.542-.145-.809a11.4 11.4 0 0 1-.043-3.09c.119-.972.366-1.867.699-2.667s.741-1.506 1.176-2.126c.426-.628.946-1.179 1.474-1.713.137-.129.273-.258.418-.387.068-.069.136-.12.205-.18l.213-.173c.136-.12.289-.215.434-.318l.222-.155.23-.138a11.7 11.7 0 0 1 1.943-.955c.673-.25 1.372-.456 2.08-.602a16.4 16.4 0 0 1 4.235-.31c.699.043 1.381.112 2.054.232.341.052.665.13.997.207.162.034.324.086.486.129s.324.086.477.138c2.549.765 4.747 2.203 6.154 4.062q.13.182.247.352l.128.181.11.18c.077.121.145.242.222.362.06.13.128.25.187.379l.094.19c.026.06.051.128.077.189.051.129.102.258.153.378q.066.194.12.388l.059.197c.017.07.034.13.043.198.034.13.06.259.094.388.017.129.042.266.059.395l.026.198.017.198.025.388v.577l-.017.189c-.008.129-.017.25-.034.378-.017.12-.042.25-.059.37l-.026.181-.043.18c-.025.121-.059.242-.085.362-.034.112-.076.233-.111.344l-.051.172a1 1 0 0 1-.068.164c-.042.112-.085.224-.128.327s-.102.206-.145.318c-.093.216-.213.405-.323.603a7 7 0 0 1-1.662 1.884 6.5 6.5 0 0 1-1.909 1.05 6.3 6.3 0 0 1-1.816.353c-.068 0-.136.009-.204.018h-.597c-.076 0-.145-.018-.213-.026 1.074-.543 1.756-1.73 1.628-3.03-.17-1.66-1.602-2.857-3.205-2.685s-2.761 1.661-2.59 3.314c.153 1.48 1.312 2.599 2.701 2.693.068.035.128.06.205.095.196.069.4.146.622.224.23.069.486.129.758.198.137.017.282.043.427.06.076.009.153.017.221.034.077 0 .154.009.23.017.631.052 1.355 0 2.114-.189a7.3 7.3 0 0 0 2.335-1.05 7.9 7.9 0 0 0 2.114-2.125c.144-.224.306-.448.434-.698.068-.12.137-.24.196-.37l.179-.387c.026-.069.06-.129.085-.198l.077-.206.154-.413c.042-.147.085-.284.119-.43l.06-.216.051-.224c.034-.146.059-.3.093-.447.026-.155.043-.31.06-.465l.026-.232q.002-.117.017-.232c0-.155.017-.319.025-.474 0-.163-.008-.318-.017-.482v-.24l-.034-.242-.051-.49c-.034-.164-.06-.327-.094-.49l-.051-.25-.068-.241c-.043-.164-.085-.327-.136-.49-.06-.164-.12-.32-.171-.483-.034-.077-.06-.163-.094-.24l-.102-.233c-.068-.155-.145-.319-.213-.473-.085-.155-.17-.302-.256-.456l-.127-.233-.145-.215c-.094-.146-.196-.293-.29-.439-.418-.568-.861-1.119-1.389-1.618-.247-.258-.529-.482-.801-.723-.137-.112-.282-.223-.427-.335a5 5 0 0 0-.443-.319c-.153-.103-.298-.206-.451-.31-.154-.094-.316-.189-.469-.284l-.239-.137-.247-.13q-.241-.128-.494-.258c-.171-.077-.333-.154-.503-.232l-.256-.112-.255-.103c-.171-.069-.35-.138-.52-.207q-.27-.09-.529-.18-.268-.088-.537-.164c-.179-.051-.366-.112-.545-.155-.366-.086-.741-.18-1.116-.25a17 17 0 0 0-2.302-.3 18 18 0 0 0-4.781.292c-.809.155-1.61.387-2.403.671-.793.293-1.577.663-2.327 1.128l-.281.172-.273.19c-.179.128-.366.249-.545.395l-.264.215c-.085.07-.179.138-.256.215-.162.147-.324.302-.486.448-.63.62-1.244 1.282-1.764 2.04a13 13 0 0 0-1.432 2.59c-.4.98-.707 2.091-.843 3.279-.282 2.375.076 5.06 1.218 7.573.273.637.614 1.248.963 1.859.375.602.776 1.196 1.228 1.764.443.577.946 1.11 1.466 1.635.272.25.536.516.826.749.145.12.281.25.435.361.145.112.298.233.452.344.144.12.306.224.46.336l.468.318c.316.198.631.388.946.586.162.094.316.198.478.292.162.095.332.181.494.276.162.094.332.189.494.275.162.095.333.19.503.267.341.172.691.344 1.031.516.35.164.716.31 1.074.465.358.163.725.292 1.1.422.187.068.375.137.554.198.187.068.375.12.571.172.187.06.383.111.571.172s.383.112.579.155c.392.086.784.18 1.176.266.392.07.793.138 1.193.207.196.043.401.06.606.077.204.026.4.043.605.07 1.61.163 3.247.206 4.883.154.409 0 .818-.034 1.227-.06l.614-.035.613-.051 1.228-.103 1.227-.13q.614-.062 1.227-.137.613-.08 1.227-.146c.418-.06.827-.121 1.245-.19l.622-.094c.204-.035.409-.078.622-.121.409-.077.827-.163 1.236-.24.409-.087.818-.19 1.227-.285.827-.18 1.628-.422 2.446-.637.409-.112.801-.24 1.21-.361.401-.13.81-.241 1.202-.379.792-.275 1.594-.533 2.378-.835 1.576-.568 3.119-1.213 4.653-1.85a201 201 0 0 0 4.525-2.005c1.492-.68 2.958-1.368 4.415-2.04 1.457-.68 2.889-1.325 4.312-1.979 2.847-1.308 5.583-2.608 8.25-3.718a65 65 0 0 1 3.946-1.506 45 45 0 0 1 3.827-1.119c2.437-.559 4.789-.826 6.937-.74zm2.786.327a11 11 0 0 1 .495.284c-.162-.06-.324-.129-.495-.198-.127-.051-.264-.112-.409-.163q.205.035.409.086zm-9.877-.344c-1.287.284-2.6.62-3.929 1.041-1.33.422-2.676.895-4.031 1.429-2.719 1.058-5.497 2.306-8.361 3.554-1.432.62-2.897 1.248-4.355 1.893-1.466.646-2.949 1.3-4.44 1.945a192 192 0 0 1-4.525 1.902c-1.526.602-3.068 1.205-4.62 1.738-.775.284-1.559.525-2.343.775-.392.129-.784.232-1.185.353-.392.112-.784.24-1.185.335-.792.198-1.585.422-2.386.577-.4.086-.792.18-1.193.258-.401.069-.801.147-1.202.215-.196.035-.4.078-.596.104l-.605.077a58 58 0 0 0-1.202.163l-1.219.13c-.4.043-.809.086-1.21.12-.094 0-.187.017-.281.026.008 0 .017 0 .034-.009.418-.155.954-.232 1.594-.31.647-.068 1.363-.25 2.156-.413 1.594-.327 3.451-.929 5.471-1.73 1.995-.868 4.108-1.962 6.273-3.166 2.957-1.635 5.676-3.21 8.037-4.501 1.184-.628 2.258-1.23 3.238-1.695.486-.241.938-.474 1.355-.68.426-.198.81-.37 1.159-.534.367-.12.767-.258 1.21-.404.444-.147.929-.293 1.441-.457 1.031-.318 2.207-.697 3.485-1.084 2.557-.766 5.557-1.644 8.821-2.143 1.202-.172 2.369-.318 3.511-.37.571-.043 1.125-.026 1.679-.043.273 0 .546.017.81.026s.537 0 .793.034c.775.052 1.517.147 2.224.267a30.4 30.4 0 0 0-4.406.585z"/><path fill="url(#p)" d="M227.371 20.843c-.255.087-.502.164-.758.241-.222.078-.452.138-.673.198-.231.06-.452.138-.682.19-.452.111-.912.24-1.364.335-.23.052-.46.104-.682.147-.23.043-.46.077-.69.12-.111.017-.23.043-.341.06l-.341.043c-.23.035-.46.06-.69.095-.23.026-.469.052-.699.069q-.345.04-.69.069a1 1 0 0 0-.162.017h.017a4.5 4.5 0 0 1 .741-.155c-.255.026-.52.052-.784.06a1.2 1.2 0 0 0-.204.12q-.156.015-.299.026c-.23.018-.46.026-.69.044l-.341.017h-.341c-.23.017-.451.034-.681.034a21 21 0 0 1-2.659-.12c-.111-.017-.214-.026-.324-.043-.111-.018-.213-.026-.324-.052-.213-.043-.426-.077-.631-.12-.204-.052-.417-.104-.622-.155q-.154-.037-.307-.086c-.102-.035-.204-.06-.298-.095-.102-.035-.205-.06-.298-.095-.094-.034-.196-.077-.29-.112-.196-.077-.392-.146-.58-.232s-.375-.164-.562-.258c-.188-.095-.367-.19-.546-.284a3 3 0 0 1-.264-.146c-.085-.052-.179-.104-.264-.155l-.264-.155c-.085-.051-.171-.112-.256-.164-.17-.112-.341-.215-.511-.327-.085-.051-.154-.112-.239-.163q-.115-.08-.23-.172c-.077-.06-.153-.12-.222-.172a2 2 0 0 1-.213-.19c-.144-.12-.272-.258-.409-.387a8 8 0 0 1-.724-.826 9 9 0 0 1-.605-.887c-.171-.31-.341-.61-.469-.92a8 8 0 0 1-.341-.939c-.042-.154-.085-.31-.119-.473-.026-.155-.068-.31-.085-.465a6.5 6.5 0 0 1-.026-1.772c.068-.56.213-1.068.401-1.532a6.6 6.6 0 0 1 1.517-2.195c.076-.077.162-.146.238-.223.043-.035.077-.07.12-.104l.119-.094c.077-.07.162-.12.247-.181l.128-.086.136-.078c.35-.215.725-.404 1.117-.542a7.3 7.3 0 0 1 1.193-.344 9.7 9.7 0 0 1 2.429-.18c.4.025.792.06 1.176.137.196.026.383.077.571.12.094.018.187.052.281.078l.273.077c1.457.44 2.718 1.265 3.528 2.324.051.069.094.138.145.206l.068.104.06.103.128.207c.034.068.068.146.11.215l.052.103s.034.077.042.112c.026.077.06.146.085.215.026.077.052.146.069.224l.034.112.025.112.051.223c.009.078.026.155.035.224l.017.112v.112c.017.077.017.146.025.223v.448c-.017.069-.017.146-.025.215s-.026.138-.035.215a.4.4 0 0 1-.017.104l-.025.103-.051.206c-.017.07-.043.13-.06.198l-.034.095s-.026.06-.034.095c-.026.06-.051.129-.077.189-.025.06-.059.12-.085.18a3 3 0 0 1-.188.345c-.264.439-.596.8-.946 1.084a4 4 0 0 1-1.09.603 3.7 3.7 0 0 1-1.04.198h-.46c-.043 0-.086-.009-.128-.009.613-.31 1.005-.99.929-1.738-.094-.947-.921-1.636-1.833-1.54-.92.102-1.585.946-1.483 1.901.086.852.75 1.489 1.552 1.54q.053.027.119.052.166.064.358.13c.128.042.281.077.434.111.077.009.162.026.248.034.042 0 .085.01.127.018h.137c.366.034.775 0 1.21-.104a4.1 4.1 0 0 0 1.338-.602 4.5 4.5 0 0 0 1.21-1.213c.085-.13.171-.259.247-.405.034-.069.077-.138.111-.215s.068-.146.102-.224c.018-.034.035-.077.052-.112l.042-.12c.026-.078.06-.155.085-.241.026-.078.052-.164.069-.25l.034-.12.025-.13.051-.257a2 2 0 0 0 .034-.267l.018-.138v-.138c0-.094 0-.18.008-.275v-.413l-.017-.138a3 3 0 0 0-.034-.284l-.051-.284-.026-.137-.034-.138-.077-.284c-.034-.095-.068-.18-.102-.275-.017-.043-.034-.095-.051-.138l-.06-.138-.127-.267c-.052-.086-.094-.172-.145-.258l-.077-.129-.085-.129c-.051-.086-.111-.164-.162-.25a6 6 0 0 0-.793-.92c-.145-.147-.307-.276-.46-.413-.077-.07-.162-.13-.247-.19s-.162-.129-.256-.18c-.085-.06-.17-.121-.264-.173s-.179-.112-.273-.163l-.136-.078-.136-.077c-.094-.052-.188-.095-.282-.146-.093-.043-.196-.086-.289-.13l-.145-.068-.145-.06c-.103-.044-.196-.078-.299-.121l-.306-.103c-.103-.035-.205-.07-.307-.095-.102-.026-.205-.06-.315-.086q-.32-.08-.64-.146a11 11 0 0 0-1.321-.172 10.5 10.5 0 0 0-2.735.163 9 9 0 0 0-1.381.387 7 7 0 0 0-1.338.646l-.162.094-.153.112c-.103.078-.213.147-.307.224l-.154.12c-.051.044-.102.078-.144.121l-.282.258c-.358.353-.716.732-1.005 1.17-.299.43-.588.921-.819 1.49a7 7 0 0 0-.485 1.875 8.2 8.2 0 0 0 .699 4.338c.153.361.349.714.553 1.067.214.344.444.689.708 1.007.256.327.545.637.844.938.153.146.306.293.477.43.085.069.162.138.247.207s.17.129.256.198.17.129.264.189.179.13.273.18l.537.336c.093.052.178.112.272.172l.281.155q.141.076.282.164c.093.052.187.112.289.155.196.095.393.198.597.292.196.095.409.181.614.267.204.095.417.164.63.241.103.035.213.078.324.112.102.043.222.069.324.103.111.035.222.07.332.095.111.034.222.069.333.086.221.052.451.103.673.155.23.043.452.077.682.12.111.026.23.035.341.043.119.018.23.026.349.044.921.094 1.858.12 2.796.085.238 0 .468-.025.698-.034l.35-.017.349-.026c.23-.017.469-.034.708-.06.23-.026.468-.052.707-.069l.707-.078c.239-.025.469-.06.708-.085l.716-.104.358-.051q.178-.028.358-.07c.238-.042.468-.094.707-.137.239-.052.469-.112.707-.163.469-.104.938-.241 1.398-.37.23-.06.46-.138.69-.207.23-.078.46-.138.691-.215.451-.155.911-.31 1.363-.482.316-.112.631-.241.938-.362q.027-.296.068-.593a47 47 0 0 1-1.867.318z"/><path fill="url(#q)" d="M256.595 32.057c-2.267-3.288-6.715-5.628-10.874-6.257-4.245-.636-8.548.827-12.239 2.72-4.329 2.22-8.241 5.06-12.357 7.599-3.904 2.4-8.199 4.63-12.963 4.82-.537.016-1.031.292-1.04.67-.247.327-.034.852.401 1.162 3.273 2.332 7.968 2.324 11.855 1.222 4.005-1.136 6.221-4.707 8.198-7.926.188 1.876.691 3.692 2.353 4.949.724.55 3.059 1.531 1.431-.964-1.696-2.616.699-6.05 2.719-8.288 2.412-2.676 6.383-3.898 9.988-4.328.103-.009.188-.044.273-.07.358.018.716.044 1.074.087 6.869.843 11.164 6.076 12.059 11.98.699 4.603-.085 11.04-4.866 13.812-2.105 1.222-4.875 1.17-7.031.31-.426-.173-1.057-.784-1.432-1.163-.98-.98-1.244-2.805-.861-4.337 1.858.766 4.432.319 6.307-.499 2.497-1.093 4.253-3.924 3.034-5.93a1.6 1.6 0 0 0-.196-.404c-.051-.258-.256-.482-.52-.62-5.318-2.633-10.628.646-11.991 5.715-1.526 5.662 3.511 9.449 9.315 9.449 5.48 0 8.633-4.647 9.741-8.993 1.236-4.854.537-10.525-2.352-14.716zm-6.528 12.263s.043-.008.06-.017l-.085.086z"/><path fill="url(#r)" d="M278.123 24.527c1.253.31 2.531.671 3.827 1.118s2.616.947 3.946 1.506c2.667 1.11 5.403 2.41 8.249 3.718 1.432.654 2.864 1.3 4.313 1.98 1.457.67 2.923 1.36 4.414 2.04 1.483.679 3 1.35 4.526 2.004 1.534.637 3.076 1.283 4.653 1.85.784.302 1.585.56 2.378.835.392.138.801.25 1.202.379.4.12.801.258 1.21.361.809.224 1.619.457 2.446.637.409.095.818.198 1.227.284.409.078.827.164 1.236.241.204.035.409.086.622.12l.622.095c.418.06.827.12 1.244.19.409.051.818.103 1.228.146.409.052.818.095 1.227.138l1.227.129 1.227.103.614.052.613.034c.41.017.819.052 1.228.06a37 37 0 0 0 4.883-.154c.205-.026.401-.044.605-.07.205-.025.401-.042.605-.077.401-.069.793-.138 1.193-.206.392-.086.784-.181 1.177-.267.196-.043.383-.095.579-.155.188-.06.384-.112.571-.172.188-.06.384-.103.571-.172q.284-.106.554-.198c.375-.138.742-.258 1.099-.422.358-.155.725-.301 1.074-.465.35-.172.691-.344 1.032-.516.17-.086.34-.172.502-.267.162-.094.333-.19.495-.275.162-.095.332-.18.494-.276.162-.094.315-.197.477-.292.316-.198.631-.396.946-.585l.469-.319c.153-.112.315-.215.46-.335.154-.112.298-.233.452-.345l.434-.361c.29-.241.554-.5.827-.749a16 16 0 0 0 1.466-1.635c.46-.56.852-1.162 1.227-1.764.358-.611.699-1.222.963-1.859 1.134-2.513 1.5-5.207 1.219-7.573a12.6 12.6 0 0 0-2.275-5.87c-.52-.757-1.134-1.41-1.765-2.039-.162-.146-.323-.301-.485-.447a2 2 0 0 0-.256-.216l-.264-.215c-.171-.146-.358-.266-.537-.396l-.273-.189-.281-.172a13 13 0 0 0-2.327-1.127 15.4 15.4 0 0 0-2.403-.672 18.4 18.4 0 0 0-4.781-.292c-.784.051-1.551.146-2.301.301-.375.069-.75.163-1.117.25-.187.043-.366.103-.545.154s-.367.104-.537.164c-.179.06-.358.12-.529.18-.179.07-.349.138-.519.207l-.256.103-.256.112c-.17.078-.341.155-.503.233-.162.086-.332.172-.494.258l-.247.129-.239.138-.468.284q-.233.154-.452.31c-.154.094-.298.206-.443.318s-.29.215-.426.336c-.273.24-.554.464-.802.722-.519.491-.971 1.05-1.389 1.618-.093.147-.196.293-.289.44l-.145.214-.128.233c-.085.155-.171.301-.256.456-.077.155-.145.318-.213.473l-.102.233c-.034.077-.06.163-.094.24-.06.164-.119.319-.17.482q-.074.246-.137.491l-.068.24c-.017.078-.034.165-.051.25-.034.164-.06.327-.094.491l-.051.49-.025.242v.24a9 9 0 0 0-.018.482c0 .164.018.319.026.474 0 .077 0 .155.017.232l.026.232c.017.155.034.31.059.465.034.155.06.301.094.448.017.077.026.146.051.223l.06.216c.042.146.085.284.119.43l.154.413.076.206c.026.07.06.13.085.198l.179.388c.06.129.137.25.196.37.128.25.282.473.435.697a8.2 8.2 0 0 0 2.114 2.126 7.2 7.2 0 0 0 2.335 1.05c.767.18 1.483.24 2.113.189.077 0 .154 0 .231-.018.076-.008.153-.025.221-.034.145-.026.29-.043.426-.06.273-.069.529-.12.759-.198.221-.077.434-.155.622-.224.068-.034.136-.069.204-.095 1.39-.094 2.557-1.204 2.702-2.693.171-1.661-.989-3.141-2.591-3.313s-3.034 1.024-3.204 2.685a3.03 3.03 0 0 0 1.628 3.029c-.069 0-.145.017-.213.026h-.597c-.068 0-.136-.009-.205-.018a6 6 0 0 1-1.815-.352 6.3 6.3 0 0 1-1.909-1.05 7 7 0 0 1-1.662-1.885c-.111-.198-.23-.387-.324-.602-.051-.104-.102-.207-.145-.319s-.085-.215-.127-.327a1 1 0 0 0-.069-.163l-.051-.172c-.034-.112-.068-.233-.11-.345a6 6 0 0 0-.086-.361l-.042-.18-.026-.181c-.017-.121-.042-.25-.06-.37a5 5 0 0 0-.034-.38l-.017-.189v-.576l.026-.387.017-.198.025-.198c.018-.13.043-.259.06-.396.034-.13.06-.258.094-.387.017-.07.025-.13.043-.198l.059-.198c.043-.13.077-.258.119-.388.052-.129.103-.258.154-.378.025-.06.051-.13.077-.19l.093-.189c.06-.129.128-.25.188-.378.077-.121.145-.241.221-.362l.111-.18.128-.181c.085-.12.17-.241.247-.353 1.415-1.86 3.605-3.296 6.153-4.062.154-.052.316-.095.478-.138s.324-.095.485-.129c.333-.069.657-.155.998-.207.673-.12 1.363-.197 2.054-.232a16.4 16.4 0 0 1 4.235.31c.708.146 1.398.353 2.08.602q1.022.375 1.943.956l.23.137.222.155c.144.103.298.207.434.319l.213.172q.103.077.205.18c.136.13.272.259.417.388.537.533 1.049 1.084 1.475 1.712.434.62.843 1.326 1.176 2.126s.579 1.695.699 2.668c.119.972.11 2.014-.043 3.09-.034.266-.094.541-.145.808-.051.276-.136.542-.204.818-.171.542-.35 1.093-.597 1.635-.23.55-.52 1.084-.818 1.618-.324.525-.665 1.05-1.057 1.54-.383.508-.818.981-1.27 1.446-.238.224-.468.456-.716.671-.127.104-.247.215-.375.327-.127.103-.264.207-.392.31-.127.103-.264.198-.4.301-.137.095-.273.198-.409.293q-.437.285-.887.568c-.144.095-.298.198-.451.284s-.307.18-.46.267c-.154.086-.307.18-.461.266-.153.086-.307.181-.468.259-.316.163-.64.327-.955.49-.324.155-.656.293-.98.448-.324.154-.665.275-1.006.404-.17.06-.341.13-.511.19-.171.068-.349.111-.52.172-.179.051-.349.111-.528.163s-.35.112-.529.155c-.358.086-.716.18-1.082.267l-1.099.206c-.188.043-.375.06-.563.086l-.562.078c-1.509.18-3.06.25-4.637.215-.392 0-.792-.026-1.184-.035l-.597-.017-.596-.034-1.202-.078c-.171-.017-.35-.034-.529-.043a3 3 0 0 0-.357-.215c-.418-.215-.972-.353-1.594-.508-.622-.129-1.313-.387-2.08-.61-1.534-.465-3.315-1.188-5.241-2.066-1.892-.947-3.954-2.083-6.128-3.287-2.948-1.627-5.752-3.098-8.207-4.243-1.236-.55-2.361-1.067-3.383-1.446-.512-.198-.98-.378-1.415-.55-.443-.147-.852-.285-1.21-.405-.35-.164-.742-.336-1.168-.534-.426-.189-.895-.378-1.397-.594-1.006-.413-2.148-.886-3.409-1.36-2.523-.946-5.54-1.97-8.906-2.486-1.236-.181-2.455-.31-3.64-.327-.588-.035-1.176 0-1.738.008-.281.009-.563.043-.844.06-.281.026-.554.035-.818.078-1.943.224-3.639.749-5.071 1.265-.307.026-.605.052-.903.086a28 28 0 0 1 2.198-.886c.188-.07.375-.13.563-.198.196-.06.392-.13.597-.19.4-.137.826-.25 1.261-.378a36 36 0 0 1 2.829-.654 30 30 0 0 1 3.154-.413 21 21 0 0 1 1.662-.043l.86.025c.29.01.58.043.87.06 3.179.259 6.119.939 8.616 1.601 2.488.68 4.542 1.36 5.949 1.833.673.328 1.5.706 2.437 1.188s1.994 1.033 3.153 1.618c1.142.637 2.37 1.325 3.682 2.03 1.295.758 2.659 1.55 4.065 2.367a219 219 0 0 0 3.017 1.782c.955.568 1.841 1.188 2.693 1.781.853.603 1.662 1.18 2.438 1.704.775.525 1.517.99 2.199 1.395 1.389.8 2.59 1.273 3.443 1.514.213.06.4.112.571.146.17.026.306.052.426.078.23.043.349.06.349.06s-.119-.034-.332-.112l-.409-.129c-.162-.06-.341-.138-.537-.215-.81-.336-1.926-.938-3.205-1.833a50 50 0 0 1-2.054-1.55c-.724-.584-1.508-1.204-2.326-1.858-.827-.645-1.713-1.325-2.702-1.945-.971-.602-1.977-1.213-3.008-1.842-1.415-.834-2.821-1.583-4.142-2.306a229 229 0 0 0-3.818-1.85 267 267 0 0 0-3.298-1.36c-.981-.404-1.85-.688-2.549-.93a60 60 0 0 0-5.812-2.392c-2.48-.843-5.463-1.678-8.77-1.945-.306-.017-.605-.051-.903-.06-.298 0-.597-.017-.895-.017-.597 0-1.193.026-1.764.077a24.5 24.5 0 0 0-3.264.56c-1.023.24-1.977.55-2.864.852-.434.163-.861.31-1.261.49-.196.086-.392.164-.588.25q-.284.129-.554.258a23 23 0 0 0-2.821 1.549c-.494.086-.98.19-1.44.327-.819.241-1.577.577-2.233 1.016.059.103.119.215.153.335 0 .017.017.035.026.06a7.5 7.5 0 0 1 2.181-.92l.231-.052a5 5 0 0 0-.188.146c-.068.052-.119.095-.162.13-.332.137-.639.258-.903.36a55 55 0 0 0-1.117.431s0 .017.009.026l1.159-.275 1.594-.44c.613-.18 1.321-.378 2.096-.602l.563-.155c2.156-.077 4.5.181 6.937.74zm-9.307-.508a8 8 0 0 1-.409.164l-.494.197.06-.034c.111-.069.255-.155.434-.25.137-.025.273-.06.409-.086zm5.063-.843c.707-.12 1.449-.215 2.224-.267.256-.035.529-.026.793-.035.264 0 .537-.017.809-.025.546.017 1.108 0 1.679.043 1.142.043 2.31.189 3.512.37 3.264.499 6.255 1.377 8.82 2.142 1.279.388 2.446.767 3.486 1.085.52.163 1.006.31 1.44.456.444.146.844.284 1.211.404.349.164.733.336 1.159.534.417.207.869.439 1.355.68.98.465 2.054 1.067 3.238 1.695 2.361 1.291 5.08 2.875 8.037 4.501 2.173 1.205 4.278 2.29 6.273 3.167 2.019.8 3.877 1.403 5.471 1.73.801.163 1.509.344 2.156.413.639.077 1.176.155 1.594.31q.01-.002.034.008c-.094 0-.187-.017-.281-.026-.401-.034-.81-.068-1.21-.12l-1.219-.13a57 57 0 0 1-1.202-.163l-.605-.077c-.204-.026-.4-.069-.596-.103-.401-.07-.802-.147-1.202-.215-.401-.078-.793-.173-1.193-.259-.801-.163-1.594-.378-2.387-.576-.4-.095-.792-.224-1.184-.336-.392-.12-.793-.224-1.185-.353-.784-.25-1.568-.499-2.344-.774-1.559-.534-3.093-1.136-4.619-1.739a217 217 0 0 1-4.525-1.901c-1.492-.646-2.975-1.3-4.44-1.945-1.466-.646-2.932-1.274-4.355-1.894-2.864-1.239-5.634-2.495-8.361-3.554a65 65 0 0 0-4.031-1.428 45 45 0 0 0-3.929-1.042 30 30 0 0 0-4.406-.585z"/><path fill="url(#s)" d="M291.691 20.843c.256.087.503.164.759.241.221.078.451.138.673.198.23.06.452.138.682.19.451.111.912.24 1.363.335.23.052.461.104.682.147.23.043.46.077.69.12.111.017.231.043.341.06l.341.043c.23.035.46.06.691.095.23.026.468.052.698.069q.346.04.691.069c.051 0 .11.008.162.017h-.017a4.5 4.5 0 0 0-.742-.155c.256.026.52.052.784.06.077.035.145.078.205.12.102.01.204.018.298.026.23.018.46.026.69.044l.341.017h.341c.23.017.452.034.682.034a21 21 0 0 0 2.659-.12c.111-.017.213-.026.324-.043.111-.018.213-.026.324-.052.213-.043.426-.077.63-.12l.622-.155a4 4 0 0 0 .307-.086c.103-.035.205-.06.299-.095.102-.035.204-.06.298-.095.094-.034.196-.077.29-.112.196-.077.392-.146.579-.232.188-.086.375-.164.563-.258.187-.095.366-.19.545-.284.094-.043.179-.095.264-.146.085-.052.179-.104.264-.155s.179-.104.265-.155c.085-.052.17-.112.255-.164.171-.112.341-.215.512-.327.085-.051.153-.112.238-.163q.116-.08.23-.172l.222-.172a2 2 0 0 0 .213-.19c.145-.12.273-.258.409-.387a8 8 0 0 0 .725-.826c.23-.284.417-.585.605-.887.17-.31.341-.61.468-.92a7.3 7.3 0 0 0 .461-1.411c.025-.156.068-.31.085-.466.094-.62.094-1.213.025-1.772a6 6 0 0 0-.4-1.532 6.3 6.3 0 0 0-.673-1.214 6.7 6.7 0 0 0-.844-.98c-.077-.078-.162-.147-.239-.224-.042-.035-.076-.07-.119-.104l-.119-.094c-.077-.07-.162-.12-.248-.181l-.127-.086-.137-.078a5.8 5.8 0 0 0-1.116-.542 7.3 7.3 0 0 0-1.193-.344 9.7 9.7 0 0 0-2.429-.18c-.401.025-.793.06-1.176.137-.196.026-.384.077-.571.12-.094.018-.188.052-.282.078l-.272.077c-1.458.44-2.719 1.265-3.529 2.324-.051.069-.093.138-.145.206l-.068.104-.059.103-.128.207c-.034.068-.068.146-.111.215l-.051.103s-.026.077-.043.112c-.025.077-.059.146-.085.215-.026.077-.043.146-.068.224l-.034.112-.026.112-.051.223c-.008.078-.026.155-.034.224l-.017.112v.112c-.017.077-.017.146-.026.223v.448c.017.069.017.146.026.215s.025.138.034.215c0 .035.009.07.017.104l.026.103.051.206c.017.07.042.13.059.198l.034.095s.026.06.035.095l.076.189c.026.06.06.12.086.18.051.121.119.233.187.345.264.439.597.8.946 1.084a4 4 0 0 0 1.091.603c.366.12.716.189 1.04.198h.46c.042 0 .085-.009.128-.009a1.74 1.74 0 0 1-.929-1.738c.093-.947.92-1.636 1.832-1.54.92.102 1.585.946 1.483 1.901-.085.852-.75 1.489-1.551 1.54-.034.018-.077.035-.119.052a9 9 0 0 1-.358.13 5 5 0 0 1-.435.111c-.077.009-.162.026-.247.034-.043 0-.085.01-.128.018h-.136c-.367.034-.776 0-1.211-.104a4.1 4.1 0 0 1-1.338-.602 4.5 4.5 0 0 1-1.21-1.213c-.085-.13-.17-.259-.247-.405-.034-.069-.077-.138-.111-.215s-.068-.146-.102-.224c-.017-.034-.034-.077-.051-.112l-.043-.12c-.025-.078-.059-.155-.085-.241-.026-.078-.043-.164-.068-.25l-.034-.12-.026-.13-.051-.257a2 2 0 0 1-.034-.267l-.017-.138v-.138c0-.094-.009-.18-.009-.275v-.413l.017-.138c.009-.094.017-.189.035-.284l.051-.284.025-.137.034-.138.077-.284c.034-.095.068-.18.102-.275.017-.043.034-.095.051-.138l.06-.138c.043-.086.085-.18.128-.267.051-.086.094-.172.145-.258l.077-.129.085-.129c.051-.086.111-.164.162-.25.238-.327.494-.645.792-.92.145-.147.307-.276.46-.413.077-.07.162-.13.248-.19s.162-.129.255-.18c.086-.06.171-.121.264-.173.094-.051.179-.112.273-.163l.137-.078.136-.077c.094-.052.187-.095.281-.146.094-.043.196-.086.29-.13l.145-.068.145-.06c.102-.044.196-.078.298-.121l.307-.103c.102-.035.204-.07.307-.095.102-.026.204-.06.315-.086q.32-.08.639-.146c.435-.086.869-.138 1.321-.172a10.5 10.5 0 0 1 2.736.163c.46.086.92.224 1.38.387.461.164.904.379 1.339.646l.161.094.154.112c.102.078.213.147.307.224l.153.12c.051.044.102.078.145.121l.281.258c.358.353.716.732 1.006 1.17.298.43.588.921.818 1.49.23.567.409 1.196.486 1.875a8.23 8.23 0 0 1-.699 4.338 10 10 0 0 1-.554 1.067 9 9 0 0 1-.707 1.007c-.256.327-.546.637-.844.938-.154.146-.307.293-.477.43-.086.069-.162.138-.248.207s-.17.129-.255.198-.171.129-.264.189c-.086.06-.179.13-.273.18l-.537.336c-.094.052-.179.112-.273.172l-.281.155a5 5 0 0 0-.281.164c-.094.052-.188.112-.29.155-.196.095-.392.198-.597.292-.196.095-.409.181-.613.267-.205.095-.418.164-.631.241-.102.035-.213.078-.324.112-.102.043-.221.069-.324.103-.11.035-.221.07-.332.095a2.4 2.4 0 0 1-.332.086l-.674.155c-.23.043-.451.077-.681.12a2 2 0 0 1-.341.043c-.12.018-.23.026-.35.044-.92.094-1.858.12-2.795.085-.239 0-.469-.025-.699-.034l-.349-.017-.35-.026c-.23-.017-.469-.034-.707-.06-.23-.026-.469-.052-.708-.069l-.707-.078c-.239-.025-.469-.06-.707-.085l-.716-.104-.358-.051a5 5 0 0 1-.358-.07c-.239-.042-.469-.094-.707-.137-.239-.052-.469-.112-.708-.163-.469-.104-.937-.241-1.397-.37-.231-.06-.461-.138-.691-.207-.23-.078-.46-.138-.69-.215-.452-.155-.912-.31-1.364-.482-.315-.112-.63-.241-.937-.362-.017-.197-.043-.395-.068-.593.622.12 1.244.223 1.866.318z"/><path fill="url(#t)" d="M260.106 46.773c1.108 4.346 4.253 8.993 9.741 8.993 5.804 0 10.833-3.787 9.316-9.45-1.364-5.068-6.674-8.347-11.992-5.714a.95.95 0 0 0-.519.62c-.086.12-.154.258-.197.404-1.218 2.006.537 4.837 3.034 5.93 1.875.826 4.449 1.265 6.307.499.384 1.532.043 3.219-.895 4.234-.341.37-.801 1.033-1.397 1.256-2.174.827-4.926.913-7.031-.31-4.79-2.779-5.566-9.207-4.867-13.812.895-5.903 5.19-11.136 12.059-11.979q.537-.062 1.074-.086c.086.034.171.06.273.069 3.605.43 7.577 1.652 9.988 4.329 2.02 2.246 4.415 5.68 2.719 8.287-1.628 2.496.707 1.515 1.432.964 1.662-1.257 2.165-3.072 2.352-4.949 1.977 3.219 4.185 6.79 8.199 7.926 3.886 1.102 8.582 1.102 11.855-1.222.434-.31.647-.834.4-1.161-.008-.38-.503-.646-1.04-.672-4.764-.18-9.059-2.418-12.962-4.819-4.117-2.53-8.02-5.379-12.358-7.599-3.69-1.893-7.994-3.356-12.238-2.72-4.159.629-8.608 2.97-10.875 6.257-2.889 4.191-3.588 9.862-2.352 14.716zm8.915-2.376-.085-.085c.017 0 .042.008.059.017 0 .026.017.051.026.069"/><path fill="url(#u)" d="M125.86 56.532s.23.077.665.215c.222.069.494.13.818.215.162.043.341.07.529.112.187.035.392.078.605.112 1.721.275 4.261.379 7.372.077 3.102-.284 6.767-.946 10.747-1.979a96 96 0 0 0 9.408-2.969c1.091-.404 2.174-.852 3.265-1.3 2.181-.903 4.278-1.824 6.315-2.641a79 79 0 0 1 5.914-2.143c3.827-1.18 7.389-1.894 10.398-2.057q1.125-.054 2.147-.017c.674.034 1.313.086 1.909.18 1.185.181 2.174.482 2.958.818a9.6 9.6 0 0 1 1.713.955c.187.13.315.241.409.319.094.069.136.111.136.111q-.002 0-.119-.129c-.085-.086-.196-.215-.367-.37a9 9 0 0 0-1.61-1.204c-.759-.448-1.756-.887-2.966-1.214a19 19 0 0 0-1.969-.404 22 22 0 0 0-2.241-.207c-3.154-.138-6.903.31-10.918 1.317a62 62 0 0 0-6.195 1.953c-2.105.775-4.236 1.67-6.401 2.565a177 177 0 0 1-3.204 1.3q-1.587.619-3.137 1.187a156 156 0 0 1-5.999 2.057c-3.853 1.222-7.372 2.16-10.364 2.728-2.991.576-5.463.766-7.176.723-.213 0-.417-.017-.605-.026-.187-.017-.366-.017-.528-.035-.324-.042-.605-.06-.827-.094-.443-.078-.682-.112-.682-.112z"/><path fill="url(#v)" d="M116.349 43.244q-.192-.348-.741-.413a2.6 2.6 0 0 0-.631.009 6 6 0 0 0-.767.198c-.273.112-.571.25-.869.421-.298.198-.622.405-.921.706a5.6 5.6 0 0 0-1.517 2.427 6 6 0 0 0-.213 2.04c.06.809.307 1.67.708 2.47.801 1.6 2.156 2.882 3.528 3.777a12.5 12.5 0 0 0 3.852 1.696c1.066.25 1.756.223 1.781.12.035-.112-.562-.43-1.397-1.007a18 18 0 0 1-1.372-1.067c-.486-.421-.98-.903-1.432-1.428a10 10 0 0 1-1.202-1.67 7 7 0 0 1-.707-1.67 3.8 3.8 0 0 1-.128-1.316 4.5 4.5 0 0 1 .179-.835 5.8 5.8 0 0 1 .554-1.265c.102-.215.256-.422.366-.637a7 7 0 0 0 .375-.61c.128-.19.239-.38.324-.569.094-.18.179-.353.23-.516.111-.327.12-.62 0-.852z"/><path fill="url(#w)" d="M105.099 55.637c.077.25.23.465.409.654.179.19.375.327.597.482.434.258.912.464 1.466.533.281.035.75.035 1.338.104.588.06 1.286.198 1.951.404.162.052.333.103.495.164.153.06.315.12.468.18.29.13.58.241.81.362.247.103.443.206.596.266.154.06.265.078.316.044q.061-.052.008-.31a2.8 2.8 0 0 0-.221-.672c-.111-.275-.281-.567-.486-.903-.111-.155-.222-.319-.349-.49a11 11 0 0 0-.41-.491 8.3 8.3 0 0 0-2.071-1.678c-.741-.43-1.482-.672-1.96-.732-.946-.129-1.866.12-2.403.577-.273.206-.46.482-.545.74a1.13 1.13 0 0 0-.009.766"/><path fill="url(#x)" d="M90.509 49.578c.008-.31.06-.602.085-.903.034-.301.06-.594.11-.887.384-2.349 1.27-4.57 2.549-6.402 1.296-1.825 2.932-3.27 4.645-4.346 1.721-1.076 3.528-1.79 5.275-2.29a26 26 0 0 1 5.088-.877 30 30 0 0 1 4.568.043c.358.034.699.069 1.048.103.341.052.674.095.998.146.323.043.647.104.954.172.307.06.614.112.912.181s.588.146.869.215l.418.104c.136.043.273.077.4.12.265.078.52.155.776.232s.494.172.724.25a25 25 0 0 1 4.168 1.885c.23.12.426.25.597.352.17.104.306.19.426.267.23.138.341.215.341.215s-.12-.06-.358-.189c-.12-.06-.265-.138-.444-.232-.179-.086-.375-.198-.613-.302-.938-.447-2.352-1.032-4.244-1.557-.239-.06-.478-.138-.733-.198-.256-.06-.512-.112-.776-.172-.136-.026-.264-.06-.4-.095l-.418-.077a85 85 0 0 0-.861-.155c-.29-.052-.596-.078-.903-.12a11 11 0 0 0-.938-.104c-.324-.026-.647-.052-.98-.077-.332-.009-.673-.026-1.014-.035a31 31 0 0 0-4.398.215 26 26 0 0 0-4.772 1.093c-1.619.551-3.256 1.3-4.764 2.35-1.5 1.05-2.872 2.383-3.93 4.01-1.03 1.635-1.712 3.554-1.976 5.602-.034.259-.043.517-.069.775-.016.258-.05.525-.05.783.008.516 0 1.041.068 1.558.025.525.153 1.032.247 1.549.068.25.145.508.221.757.06.258.17.5.264.749.171.499.435.972.665 1.454.137.232.281.465.418.697l.102.172.12.164.238.335a15.8 15.8 0 0 0 2.241 2.496c1.688 1.54 3.716 2.814 5.907 3.856 2.198 1.04 4.568 1.85 7.022 2.426a35.6 35.6 0 0 0 7.577.955h.954c.315-.008.631-.025.946-.034l.938-.077c.323-.043.647-.078.971-.12 1.296-.173 2.582-.31 3.852-.543.64-.103 1.27-.215 1.901-.318.631-.12 1.253-.258 1.875-.387.622-.13 1.244-.25 1.858-.396.613-.147 1.227-.302 1.832-.448 4.866-1.205 9.503-2.693 13.883-4.225 4.389-1.532 8.54-3.09 12.452-4.51 3.911-1.42 7.576-2.693 10.959-3.77 1.696-.515 3.307-1.023 4.85-1.445 1.542-.43 3.008-.8 4.397-1.084 2.779-.568 5.233-.783 7.236-.629.997.07 1.875.233 2.616.44.29.077.546.172.793.258.077.017.153.043.239.06.102.026.213.051.315.086s.204.06.307.095a5 5 0 0 1 .307.111c.204.07.4.155.588.241.383.172.758.362 1.108.577.357.206.681.447 1.005.697.307.258.605.516.878.8 1.091 1.12 1.798 2.479 2.088 3.796a7 7 0 0 1 .153 1.91 7 7 0 0 1-.298 1.661c-.145.5-.349.972-.579 1.429l-.179.335a1 1 0 0 1-.103.164l-.102.163c-.068.112-.145.215-.221.319l-.111.154-.12.147a7.7 7.7 0 0 1-1.056 1.058c-.384.31-.776.594-1.185.835-.818.482-1.687.843-2.557 1.093-.434.12-.878.224-1.312.293-.222.043-.435.06-.656.086l-.324.026c-.111 0-.222.017-.324.017h-.81l-.162-.017c-.111 0-.213-.018-.315-.026-.102-.017-.213-.026-.315-.043l-.154-.017-.153-.026c-.102-.018-.205-.035-.307-.06l-.307-.078c-.102-.026-.204-.052-.298-.086-.102-.034-.196-.06-.298-.095-.196-.077-.392-.137-.571-.224-.375-.154-.725-.37-1.057-.585-.077-.06-.162-.12-.239-.18l-.119-.087-.111-.094q-.117-.102-.222-.19l-.204-.206-.102-.103s-.06-.078-.094-.112c-.06-.078-.128-.146-.188-.224-.059-.077-.11-.155-.17-.232l-.085-.12s-.051-.078-.077-.121c-.051-.078-.094-.164-.145-.241-.042-.086-.085-.164-.119-.25l-.06-.12-.051-.13a3 3 0 0 1-.094-.258l-.076-.258c-.009-.043-.026-.086-.034-.129l-.026-.129-.051-.258c-.009-.086-.026-.172-.034-.258 0-.043-.009-.086-.017-.13v-.128a3 3 0 0 1-.017-.25v-.37s.008-.086.017-.12c0-.078.017-.164.025-.241.009-.078.026-.155.043-.233.025-.155.068-.31.102-.456a4.6 4.6 0 0 1 .759-1.549 4.3 4.3 0 0 1 1.082-1.024c.383-.25.767-.422 1.116-.516.043-.009.086-.026.128-.035l.128-.026.247-.051c.162-.017.307-.035.452-.043h.383q.065-.002.128.008a1.68 1.68 0 0 1 1.986.904 1.707 1.707 0 0 1-.793 2.272 1.676 1.676 0 0 1-2.249-.8 1.71 1.71 0 0 1 .323-1.928.6.6 0 0 0-.119.034 2 2 0 0 1-.213.069c-.034.009-.077.026-.111.034-.034.018-.077.035-.111.052a3.7 3.7 0 0 0-.929.542 3.9 3.9 0 0 0-.843.93 4.2 4.2 0 0 0-.554 1.334c-.026.129-.051.25-.068.387 0 .069-.017.129-.026.198 0 .069 0 .129-.009.198v.206c0 .07 0 .138.009.207 0 .069.017.138.026.206v.104s.025.069.025.103c.009.069.026.138.034.206l.051.207.026.103s.026.07.034.104q.04.102.068.206c.026.069.06.138.085.198l.043.103.051.095c.034.069.068.129.102.198.043.06.086.129.12.19.017.034.042.06.059.094l.069.094c.051.06.093.121.136.181.051.06.102.112.153.172.026.026.052.06.077.086l.085.078c.06.052.12.112.171.163.059.052.128.104.187.155l.094.078.102.069c.068.043.137.094.205.137 1.116.715 2.591 1.042 4.125.956.093 0 .196-.01.289-.018l.29-.026a10.4 10.4 0 0 0 1.747-.361 10 10 0 0 0 2.25-.998 8.6 8.6 0 0 0 1.023-.732 6.7 6.7 0 0 0 .886-.886l.103-.12.093-.13c.06-.086.128-.163.179-.258l.086-.129c.025-.043.059-.086.076-.138l.154-.284c.187-.387.366-.783.485-1.196.12-.413.213-.87.248-1.36.034-.49 0-1.015-.12-1.557a6.3 6.3 0 0 0-.605-1.635c-.068-.138-.153-.267-.23-.405-.085-.138-.179-.267-.264-.396a9 9 0 0 0-.631-.757 8 8 0 0 0-.75-.697 7 7 0 0 0-.869-.611 8 8 0 0 0-.963-.517c-.171-.068-.341-.154-.52-.215a3 3 0 0 0-.264-.094c-.094-.026-.179-.06-.273-.086-.094-.035-.179-.052-.273-.078l-.281-.077-.588-.13c-.102-.017-.196-.042-.298-.06l-.299-.051-.298-.052q-.153-.027-.307-.043a15 15 0 0 0-.613-.069c-.205-.017-.409-.026-.622-.043-.205-.017-.418-.017-.631-.017h-.315c-.103 0-.213.009-.316.009-.102 0-.213.008-.315.017a2 2 0 0 0-.315.026c-.213.026-.426.043-.64.069-.511.06-1.022.068-1.534.146-.451.06-.903.137-1.363.172-.801.052-1.594.138-2.386.24l-1.816.242h.017c-.554.18-1.116.361-1.696.56-1.5.507-3.068 1.1-4.721 1.695-3.298 1.239-6.878 2.676-10.713 4.26-3.844 1.574-7.943 3.287-12.323 4.965-4.381 1.67-9.06 3.305-14.037 4.621-.622.164-1.253.328-1.875.491-.631.155-1.27.284-1.909.43-.639.138-1.278.293-1.935.422-.647.12-1.304.232-1.96.353-1.312.258-2.65.413-3.988.594l-1.014.129c-.35.026-.708.06-1.057.086-.35.017-.708.025-1.057.043-.349.008-.707 0-1.057 0-2.821-.035-5.574-.422-8.216-1.067-2.642-.646-5.19-1.55-7.568-2.72-2.377-1.179-4.602-2.633-6.502-4.44a18.2 18.2 0 0 1-2.54-2.97l-.273-.404-.136-.206-.12-.216c-.161-.284-.315-.568-.477-.852-.272-.593-.562-1.17-.758-1.781a7 7 0 0 1-.29-.912c-.077-.31-.162-.62-.23-.93-.102-.628-.222-1.248-.247-1.876-.068-.62-.026-1.239-.017-1.85z"/></g><defs><linearGradient id="b" x1="38.965" x2="425.371" y1="184.234" y2="4.086" gradientUnits="userSpaceOnUse"><stop stop-color="#eedebc"/><stop offset=".15" stop-color="#eedebc"/><stop offset=".35" stop-color="#ddc5a3"/><stop offset=".61" stop-color="#c9a885"/><stop offset=".72" stop-color="#9a7a5f"/><stop offset=".84" stop-color="#c9a885"/><stop offset="1" stop-color="#eedebc"/></linearGradient><linearGradient id="c" x1="60.143" x2="446.558" y1="229.673" y2="49.525" gradientUnits="userSpaceOnUse"><stop stop-color="#eedebc"/><stop offset=".15" stop-color="#eedebc"/><stop offset=".35" stop-color="#ddc5a3"/><stop offset=".61" stop-color="#c9a885"/><stop offset=".72" stop-color="#9a7a5f"/><stop offset=".84" stop-color="#c9a885"/><stop offset="1" stop-color="#eedebc"/></linearGradient><linearGradient id="d" x1="36.51" x2="422.925" y1="178.984" y2="-1.163" gradientUnits="userSpaceOnUse"><stop stop-color="#eedebc"/><stop offset=".15" stop-color="#eedebc"/><stop offset=".35" stop-color="#ddc5a3"/><stop offset=".61" stop-color="#c9a885"/><stop offset=".72" stop-color="#9a7a5f"/><stop offset=".84" stop-color="#c9a885"/><stop offset="1" stop-color="#eedebc"/></linearGradient><linearGradient id="e" x1="12.928" x2="399.343" y1="128.391" y2="-51.757" gradientUnits="userSpaceOnUse"><stop stop-color="#eedebc"/><stop offset=".15" stop-color="#eedebc"/><stop offset=".35" stop-color="#ddc5a3"/><stop offset=".61" stop-color="#c9a885"/><stop offset=".72" stop-color="#9a7a5f"/><stop offset=".84" stop-color="#c9a885"/><stop offset="1" stop-color="#eedebc"/></linearGradient><linearGradient id="f" x1="45.595" x2="432.002" y1="198.46" y2="18.312" gradientUnits="userSpaceOnUse"><stop stop-color="#eedebc"/><stop offset=".15" stop-color="#eedebc"/><stop offset=".35" stop-color="#ddc5a3"/><stop offset=".61" stop-color="#c9a885"/><stop offset=".72" stop-color="#9a7a5f"/><stop offset=".84" stop-color="#c9a885"/><stop offset="1" stop-color="#eedebc"/></linearGradient><linearGradient id="g" x1="52.576" x2="438.99" y1="213.442" y2="33.295" gradientUnits="userSpaceOnUse"><stop stop-color="#eedebc"/><stop offset=".15" stop-color="#eedebc"/><stop offset=".35" stop-color="#ddc5a3"/><stop offset=".61" stop-color="#c9a885"/><stop offset=".72" stop-color="#9a7a5f"/><stop offset=".84" stop-color="#c9a885"/><stop offset="1" stop-color="#eedebc"/></linearGradient><linearGradient id="h" x1="56.419" x2="442.834" y1="221.678" y2="41.539" gradientUnits="userSpaceOnUse"><stop stop-color="#eedebc"/><stop offset=".15" stop-color="#eedebc"/><stop offset=".35" stop-color="#ddc5a3"/><stop offset=".61" stop-color="#c9a885"/><stop offset=".72" stop-color="#9a7a5f"/><stop offset=".84" stop-color="#c9a885"/><stop offset="1" stop-color="#eedebc"/></linearGradient><linearGradient id="i" x1="50.325" x2="436.732" y1="208.597" y2="28.458" gradientUnits="userSpaceOnUse"><stop stop-color="#eedebc"/><stop offset=".15" stop-color="#eedebc"/><stop offset=".35" stop-color="#ddc5a3"/><stop offset=".61" stop-color="#c9a885"/><stop offset=".72" stop-color="#9a7a5f"/><stop offset=".84" stop-color="#c9a885"/><stop offset="1" stop-color="#eedebc"/></linearGradient><linearGradient id="j" x1="31.755" x2="418.161" y1="168.769" y2="-11.378" gradientUnits="userSpaceOnUse"><stop stop-color="#eedebc"/><stop offset=".15" stop-color="#eedebc"/><stop offset=".35" stop-color="#ddc5a3"/><stop offset=".61" stop-color="#c9a885"/><stop offset=".72" stop-color="#9a7a5f"/><stop offset=".84" stop-color="#c9a885"/><stop offset="1" stop-color="#eedebc"/></linearGradient><linearGradient id="k" x1="17.199" x2="403.605" y1="137.539" y2="-42.6" gradientUnits="userSpaceOnUse"><stop stop-color="#eedebc"/><stop offset=".15" stop-color="#eedebc"/><stop offset=".35" stop-color="#ddc5a3"/><stop offset=".61" stop-color="#c9a885"/><stop offset=".72" stop-color="#9a7a5f"/><stop offset=".84" stop-color="#c9a885"/><stop offset="1" stop-color="#eedebc"/></linearGradient><linearGradient id="l" x1="13.712" x2="400.127" y1="130.077" y2="-50.062" gradientUnits="userSpaceOnUse"><stop stop-color="#eedebc"/><stop offset=".15" stop-color="#eedebc"/><stop offset=".35" stop-color="#ddc5a3"/><stop offset=".61" stop-color="#c9a885"/><stop offset=".72" stop-color="#9a7a5f"/><stop offset=".84" stop-color="#c9a885"/><stop offset="1" stop-color="#eedebc"/></linearGradient><linearGradient id="m" x1="13.662" x2="400.076" y1="129.966" y2="-50.173" gradientUnits="userSpaceOnUse"><stop stop-color="#eedebc"/><stop offset=".15" stop-color="#eedebc"/><stop offset=".35" stop-color="#ddc5a3"/><stop offset=".61" stop-color="#c9a885"/><stop offset=".72" stop-color="#9a7a5f"/><stop offset=".84" stop-color="#c9a885"/><stop offset="1" stop-color="#eedebc"/></linearGradient><linearGradient id="n" x1="20.369" x2="406.775" y1="144.346" y2="-35.794" gradientUnits="userSpaceOnUse"><stop stop-color="#eedebc"/><stop offset=".15" stop-color="#eedebc"/><stop offset=".35" stop-color="#ddc5a3"/><stop offset=".61" stop-color="#c9a885"/><stop offset=".72" stop-color="#9a7a5f"/><stop offset=".84" stop-color="#c9a885"/><stop offset="1" stop-color="#eedebc"/></linearGradient><linearGradient id="o" x1="7.279" x2="393.693" y1="116.274" y2="-63.865" gradientUnits="userSpaceOnUse"><stop stop-color="#eedebc"/><stop offset=".15" stop-color="#eedebc"/><stop offset=".35" stop-color="#ddc5a3"/><stop offset=".61" stop-color="#c9a885"/><stop offset=".72" stop-color="#9a7a5f"/><stop offset=".84" stop-color="#c9a885"/><stop offset="1" stop-color="#eedebc"/></linearGradient><linearGradient id="p" x1="6.468" x2="392.883" y1="114.535" y2="-65.612" gradientUnits="userSpaceOnUse"><stop stop-color="#eedebc"/><stop offset=".15" stop-color="#eedebc"/><stop offset=".35" stop-color="#ddc5a3"/><stop offset=".61" stop-color="#c9a885"/><stop offset=".72" stop-color="#9a7a5f"/><stop offset=".84" stop-color="#c9a885"/><stop offset="1" stop-color="#eedebc"/></linearGradient><linearGradient id="q" x1="21.63" x2="408.045" y1="147.066" y2="-33.082" gradientUnits="userSpaceOnUse"><stop stop-color="#eedebc"/><stop offset=".15" stop-color="#eedebc"/><stop offset=".35" stop-color="#ddc5a3"/><stop offset=".61" stop-color="#c9a885"/><stop offset=".72" stop-color="#9a7a5f"/><stop offset=".84" stop-color="#c9a885"/><stop offset="1" stop-color="#eedebc"/></linearGradient><linearGradient id="r" x1="29.292" x2="415.707" y1="163.494" y2="-16.654" gradientUnits="userSpaceOnUse"><stop stop-color="#eedebc"/><stop offset=".15" stop-color="#eedebc"/><stop offset=".35" stop-color="#ddc5a3"/><stop offset=".61" stop-color="#c9a885"/><stop offset=".72" stop-color="#9a7a5f"/><stop offset=".84" stop-color="#c9a885"/><stop offset="1" stop-color="#eedebc"/></linearGradient><linearGradient id="s" x1="22.712" x2="409.119" y1="149.372" y2="-30.776" gradientUnits="userSpaceOnUse"><stop stop-color="#eedebc"/><stop offset=".15" stop-color="#eedebc"/><stop offset=".35" stop-color="#ddc5a3"/><stop offset=".61" stop-color="#c9a885"/><stop offset=".72" stop-color="#9a7a5f"/><stop offset=".84" stop-color="#c9a885"/><stop offset="1" stop-color="#eedebc"/></linearGradient><linearGradient id="t" x1="27.587" x2="414.002" y1="159.836" y2="-20.303" gradientUnits="userSpaceOnUse"><stop stop-color="#eedebc"/><stop offset=".15" stop-color="#eedebc"/><stop offset=".35" stop-color="#ddc5a3"/><stop offset=".61" stop-color="#c9a885"/><stop offset=".72" stop-color="#9a7a5f"/><stop offset=".84" stop-color="#c9a885"/><stop offset="1" stop-color="#eedebc"/></linearGradient><linearGradient id="u" x1="10.006" x2="396.412" y1="122.117" y2="-58.031" gradientUnits="userSpaceOnUse"><stop stop-color="#eedebc"/><stop offset=".15" stop-color="#eedebc"/><stop offset=".35" stop-color="#ddc5a3"/><stop offset=".61" stop-color="#c9a885"/><stop offset=".72" stop-color="#9a7a5f"/><stop offset=".84" stop-color="#c9a885"/><stop offset="1" stop-color="#eedebc"/></linearGradient><linearGradient id="v" x1="1.909" x2="388.324" y1="104.759" y2="-75.38" gradientUnits="userSpaceOnUse"><stop stop-color="#eedebc"/><stop offset=".15" stop-color="#eedebc"/><stop offset=".35" stop-color="#ddc5a3"/><stop offset=".61" stop-color="#c9a885"/><stop offset=".72" stop-color="#9a7a5f"/><stop offset=".84" stop-color="#c9a885"/><stop offset="1" stop-color="#eedebc"/></linearGradient><linearGradient id="w" x1="3.008" x2="389.414" y1="107.108" y2="-73.039" gradientUnits="userSpaceOnUse"><stop stop-color="#eedebc"/><stop offset=".15" stop-color="#eedebc"/><stop offset=".35" stop-color="#ddc5a3"/><stop offset=".61" stop-color="#c9a885"/><stop offset=".72" stop-color="#9a7a5f"/><stop offset=".84" stop-color="#c9a885"/><stop offset="1" stop-color="#eedebc"/></linearGradient><linearGradient id="x" x1="7.295" x2="393.701" y1="116.3" y2="-63.848" gradientUnits="userSpaceOnUse"><stop stop-color="#eedebc"/><stop offset=".15" stop-color="#eedebc"/><stop offset=".35" stop-color="#ddc5a3"/><stop offset=".61" stop-color="#c9a885"/><stop offset=".72" stop-color="#9a7a5f"/><stop offset=".84" stop-color="#c9a885"/><stop offset="1" stop-color="#eedebc"/></linearGradient><clipPath id="a"><path fill="#fff" d="M0 0h520v80H0z"/></clipPath></defs></svg>