<svg xmlns="http://www.w3.org/2000/svg" width="520" height="12" fill="none" viewBox="0 0 520 12"><g clip-path="url(#a)"><path fill="url(#b)" d="M.8 1.644h518.39c1.074 0 1.074-1.644 0-1.644H.8C-.263 0-.263 1.644.8 1.644"/><path fill="url(#c)" d="M267.683 4.545h250.186c.699 0 1.27.565 1.27 1.257v.025c0 .692-.571 1.257-1.27 1.257-18.153-.043-225.121-.422-249.922 4.882a1.265 1.265 0 0 1-1.534-1.231V5.793c0-.691.571-1.256 1.27-1.256z"/><path fill="url(#d)" d="M262.868 7.202c0-1.46-1.202-2.648-2.676-2.648s-2.676 1.189-2.676 2.648 1.201 2.648 2.676 2.648c1.474 0 2.676-1.19 2.676-2.648"/><path fill="url(#e)" d="M252.317 4.545H2.13c-.699 0-1.27.565-1.27 1.257v.025c0 .692.571 1.257 1.27 1.257 18.153-.043 225.122-.422 249.922 4.882a1.264 1.264 0 0 0 1.534-1.231V5.793c0-.691-.571-1.256-1.269-1.256z"/></g><defs><linearGradient id="b" x1="59.367" x2="442.936" y1="94.28" y2="-88.213" gradientUnits="userSpaceOnUse"><stop stop-color="#eedebc"/><stop offset=".15" stop-color="#eedebc"/><stop offset=".35" stop-color="#ddc5a3"/><stop offset=".61" stop-color="#c9a885"/><stop offset=".72" stop-color="#9a7a5f"/><stop offset=".84" stop-color="#c9a885"/><stop offset="1" stop-color="#eedebc"/></linearGradient><linearGradient id="c" x1="85.395" x2="468.972" y1="149.001" y2="-33.492" gradientUnits="userSpaceOnUse"><stop stop-color="#eedebc"/><stop offset=".15" stop-color="#eedebc"/><stop offset=".35" stop-color="#ddc5a3"/><stop offset=".61" stop-color="#c9a885"/><stop offset=".72" stop-color="#9a7a5f"/><stop offset=".84" stop-color="#c9a885"/><stop offset="1" stop-color="#eedebc"/></linearGradient><linearGradient id="d" x1="61.882" x2="445.458" y1="99.576" y2="-82.917" gradientUnits="userSpaceOnUse"><stop stop-color="#eedebc"/><stop offset=".15" stop-color="#eedebc"/><stop offset=".35" stop-color="#ddc5a3"/><stop offset=".61" stop-color="#c9a885"/><stop offset=".72" stop-color="#9a7a5f"/><stop offset=".84" stop-color="#c9a885"/><stop offset="1" stop-color="#eedebc"/></linearGradient><linearGradient id="e" x1="38.18" x2="421.757" y1="49.754" y2="-132.738" gradientUnits="userSpaceOnUse"><stop stop-color="#eedebc"/><stop offset=".346" stop-color="#c9a885"/><stop offset=".596" stop-color="#9a7a5f"/><stop offset=".84" stop-color="#c9a885"/><stop offset="1" stop-color="#eedebc"/></linearGradient><clipPath id="a"><path fill="#fff" d="M0 0h520v12H0z"/></clipPath></defs></svg>