<svg xmlns="http://www.w3.org/2000/svg" width="155" height="45" fill="none" viewBox="0 0 155 45"><g fill="#dcc9a8" clip-path="url(#a)"><path d="M68.317 29.244c0-3.559-2.366-4.293-4.393-4.293a2.764 2.764 0 0 0-2.76 2.767 2.765 2.765 0 0 0 2.76 2.767c.748 0 1.425-.299 1.922-.784 1.216 2.274-1.315 5.568-5.322 5.568s-6.46-2.185-7.079-4.5c0 0-.79.676-.845 1.526-1.352-1.073-3.323-4.236-3.24-6.413 0 0-1.435 1.044-1.435 2.683-1.802-2.825-2.197-7.908-1.577-9.998 0 0-.902 0-1.522.79.225-5.338 3.943-7.966 5.688-7.683-5.014 3.446-3.1 10.227-1.24 12.314-4.252-11.467 4.9-12.684 5.745-10.507 2.987-4.123-.31-7.344-3.577-7.344s-5.887 2.825-7.576 5.537c-.282-1.13-2.084-2.74-3.465-1.61 1.522.763 1.323 3.588 1.323 7.881 0 5.61 2.385 9.99 6.925 14.182.8.74-.034 2.017-1.033 1.581-8.185-3.559-11.763-10.598-11.525-12.996.395 1.64 2.987 4.236 4.564 4.52-4.245-2.996-4.318-7.1-2.534-8.079-1.896-1.77-4.451-.677-5.068 1.243-.544-.676-.733-1.977.337-2.767-1.972-1.356-2.61-3.181-1.69-5.311-5.687 4.991-3.172 12.034-.337 14.914-7.66-2.88-14.59-.171-14.59 4.97 0 5.14 5.239 6.384 7.942 6.384-.319-.396-.525-1.167-.525-2.054 0-2.135 2.346-3.672 4.694-3.257-2.91-1.658-5.934.658-5.688 3.163-.47-.49-.714-1.13-.714-1.92 0-3.541 6.648-6.14 13.612-3.389-3.549 2.26-1.182 6.177.47 6.177-.17-.677.262-2.56 3.249-2.56 3.736 0 8.054 3.955 15.939 3.955 9.349 0 12.56-3.897 12.56-7.457zm-44.135-9.397c-.397.5-.314 1.232.188 1.631.5.399 1.23.315 1.627-.189.397-.5.314-1.232-.188-1.631a1.155 1.155 0 0 0-1.627.189m-3.938 2.106c.5.399 1.229.315 1.626-.189a1.163 1.163 0 0 0-.188-1.631 1.155 1.155 0 0 0-1.627.189 1.163 1.163 0 0 0 .189 1.63m3.65-4.614c.5.399 1.23.315 1.627-.188a1.163 1.163 0 0 0-.188-1.632 1.155 1.155 0 0 0-1.627.189 1.163 1.163 0 0 0 .188 1.631m30.174.493c-.15 4.596 2.965 8.25 5.22 9.078-.903-1.356.826-5.348 4.58-5.348 3.756 0 6.986 3.614 6.986 6.78 0 2.851-1.138 6.618-4.43 8.697l3.436 2.471c1.862-2.743 2.665-5.801 2.665-8.414 0-9.644-9.218-17.628-18.458-13.26zm69.564 7.402c2.835-2.88 5.35-9.925-.337-14.913.92 2.127.282 3.955-1.69 5.31 1.07.793.882 2.091.338 2.768-.62-1.92-3.173-3.014-5.068-1.243 1.783.978 1.707 5.083-2.535 8.078 1.577-.283 4.169-2.88 4.564-4.52.238 2.398-3.337 9.438-11.525 12.997-.999.433-1.833-.844-1.033-1.581 4.54-4.192 6.925-8.572 6.925-14.182 0-4.294-.196-7.119 1.323-7.882-1.381-1.13-3.182.48-3.465 1.61-1.689-2.711-4.31-5.536-7.576-5.536s-6.561 3.22-3.577 7.344c.844-2.175 9.997-.96 5.745 10.507 1.859-2.09 3.774-8.87-1.239-12.314 1.746-.284 5.462 2.345 5.687 7.682-.619-.79-1.522-.79-1.522-.79.62 2.09.225 7.174-1.577 9.999 0-1.64-1.435-2.684-1.435-2.684.083 2.175-1.888 5.338-3.238 6.413-.057-.847-.844-1.526-.844-1.526-.62 2.316-2.966 4.5-7.08 4.5s-6.537-3.294-5.321-5.568a2.74 2.74 0 0 0 1.922.785 2.764 2.764 0 0 0 2.759-2.767 2.765 2.765 0 0 0-2.76-2.768c-2.026 0-4.392.735-4.392 4.294 0 3.56 3.21 7.457 12.56 7.457 7.884 0 12.205-3.956 15.939-3.956 2.986 0 3.418 1.884 3.248 2.56 1.653 0 4.017-3.916.471-6.176 6.966-2.75 13.611-.152 13.611 3.388 0 .792-.243 1.432-.714 1.92.244-2.505-2.78-4.82-5.688-3.163 2.346-.414 4.695 1.123 4.695 3.258 0 .884-.207 1.657-.526 2.053 2.704 0 7.942-1.243 7.942-6.384 0-5.14-6.927-7.852-14.59-4.97zm6.998-3.756a1.165 1.165 0 0 0 .188-1.631 1.158 1.158 0 1 0-1.815 1.442 1.157 1.157 0 0 0 1.627.19m4.127.475a1.167 1.167 0 0 0 .188-1.631 1.155 1.155 0 0 0-1.627-.19 1.16 1.16 0 0 0 1.439 1.82m-3.651-4.614a1.167 1.167 0 0 0 .188-1.631 1.158 1.158 0 1 0-1.815 1.443 1.157 1.157 0 0 0 1.627.188m-46.96 11.003c0-3.163 3.23-6.78 6.985-6.78s5.482 3.992 4.582 5.348c2.254-.829 5.369-4.482 5.22-9.078-9.237-4.37-18.458 3.617-18.458 13.261 0 2.616.803 5.671 2.665 8.415l3.436-2.471c-3.292-2.08-4.43-5.846-4.43-8.697zm-2.738-3.215a28 28 0 0 1-3.907.278c-1.325 0-2.63-.1-3.907-.279 1.593 3.413 1.693 10.801-1.474 16.005L77.5 45l5.382-3.869c-3.167-5.204-3.067-12.592-1.475-16.004m2.067-12.611c.139.034.251-.052.251-.191a.35.35 0 0 0-.25-.32 24.96 24.96 0 0 0-11.952 0 .35.35 0 0 0-.251.32c0 .141.112.228.251.191l.042-.01v2.219l-.042.01a.35.35 0 0 0-.251.32c0 .142.112.226.251.191a24.96 24.96 0 0 1 11.951 0c.139.035.251-.052.251-.191a.35.35 0 0 0-.25-.32l-.043-.01v-2.22zm-5.22-2.384c.264-3.027 1.22-6.14 1.841-6.667-.473-.672-1.6-1.065-2.596-1.065-.997 0-2.121.39-2.597 1.065.62.527 1.577 3.64 1.84 6.667a24 24 0 0 1 1.512 0m-5.554.433c-.426-1.695-1.493-2.817-.905-4.698.413-1.322 1.961-1.86 3.138-1.479-.13-.286-.384-.598-.403-.622-1.145-.312-2.259-.403-3.36.7-2.022 2.028-.003 4.42.622 6.288q.453-.103.908-.187zm10.502-4.7c.588 1.883-.478 3.005-.905 4.697q.456.087.908.186c.625-1.867 2.644-4.26.622-6.287-1.1-1.104-2.215-1.012-3.36-.7-.019.024-.272.336-.403.622 1.177-.38 2.725.157 3.138 1.479zm-6.26-3.924h1.12a1.45 1.45 0 0 1-.36-.771c.278.04.547.157.77.36V.41a1.43 1.43 0 0 1-.77.359 1.45 1.45 0 0 1 .36-.771h-1.12c.201.223.319.49.358.77a1.44 1.44 0 0 1-.769-.359v1.123a1.44 1.44 0 0 1 .77-.36 1.45 1.45 0 0 1-.36.772zM9.396 10.877a6.92 6.92 0 0 1-4.153-4.168.426.426 0 0 0-.805 0 6.92 6.92 0 0 1-4.15 4.168.42.42 0 0 0-.286.401c0 .184.11.339.285.402a6.9 6.9 0 0 1 4.15 4.165.428.428 0 0 0 .806 0 6.9 6.9 0 0 1 4.153-4.165.42.42 0 0 0 .282-.402.42.42 0 0 0-.282-.401M14.6 38.498a3.86 3.86 0 0 1-2.317-2.324.237.237 0 0 0-.45 0 3.86 3.86 0 0 1-2.314 2.324.23.23 0 0 0-.16.223c0 .102.06.189.16.223a3.85 3.85 0 0 1 2.314 2.324.24.24 0 0 0 .223.16c.104 0 .193-.06.227-.16a3.85 3.85 0 0 1 2.317-2.324.23.23 0 0 0 .157-.223.23.23 0 0 0-.157-.223m130.721-27.22c0 .184.11.339.283.402a6.91 6.91 0 0 1 4.153 4.165.425.425 0 0 0 .805 0 6.9 6.9 0 0 1 4.15-4.165.42.42 0 0 0 .285-.402.42.42 0 0 0-.285-.401 6.92 6.92 0 0 1-4.15-4.168.43.43 0 0 0-.398-.286.43.43 0 0 0-.407.286 6.92 6.92 0 0 1-4.153 4.168.42.42 0 0 0-.283.401m-5.078 27.445c0 .103.06.19.157.223a3.86 3.86 0 0 1 2.317 2.324.238.238 0 0 0 .45 0 3.85 3.85 0 0 1 2.314-2.324.24.24 0 0 0 .16-.223.23.23 0 0 0-.16-.223 3.86 3.86 0 0 1-2.314-2.323.238.238 0 0 0-.45 0A3.85 3.85 0 0 1 140.4 38.5a.23.23 0 0 0-.157.223"/></g><defs><clipPath id="a"><path fill="#fff" d="M0 0h155v45H0z"/></clipPath></defs></svg>