<svg xmlns="http://www.w3.org/2000/svg" width="416" height="64" fill="none" viewBox="0 0 416 64"><g clip-path="url(#a)"><g clip-path="url(#b)" opacity=".2"><path fill="url(#c)" d="M401.472 11.843c-2.01-5.18-7.042-8.859-12.942-8.859H29.598c-5.9 0-10.932 3.679-12.942 8.859-6.315.312-11.336 5.502-11.336 11.871v17.304c0 6.37 5.021 11.56 11.336 11.862 2.01 5.18 7.042 8.858 12.942 8.858H388.53c5.9 0 10.932-3.678 12.942-8.858 6.315-.313 11.336-5.493 11.336-11.862V23.714c0-6.369-5.021-11.559-11.336-11.861z"/></g><path fill="url(#d)" d="M6.974 20.936c.785 0 1.309-.398 1.56-1.182.906-2.917 2.214-5.804 5.606-7.216.895-.366 1.76-.45 2.455-.512.473-.042.876-.084 1.198-.188.594-.199 1.047-.753 1.751-1.631.362-.46.745-.931 1.198-1.391 3.26-3.284 7.618-5.083 12.61-5.187.865-.021 1.74-.021 2.606-.021s1.721 0 2.577.01c.845 0 1.7.01 2.546.01h329.913c1.43 0 2.939-.052 4.529-.114 1.701-.063 3.462-.126 5.233-.126 6.421 0 13.647.753 18.538 6.306.242.272.463.554.674.826.503.638.805 1.004 1.228 1.213.272.136.745.168 1.238.21.594.052 1.268.104 1.972.334 3.845 1.234 5.324 4.465 6.25 7.467.302.972 1.017 1.171 1.56 1.171.624 0 1.238-.282 1.54-.711.141-.199.302-.534.09-1.192-1.097-3.535-3.935-9.6-10.567-10.426l-.754-.095-.504-.596C397.855 2.928 391.998.272 385.074.24H51.064c-2.063 0-4.197-.062-6.25-.125-2.073-.063-4.216-.125-6.31-.125-3.25 0-5.877.156-8.252.491-5.052.722-9.712 3.346-13.103 7.414l-.503.596-.755.095c-6.622.836-9.46 6.891-10.557 10.426-.201.659-.04.993.09 1.192.292.429.916.711 1.54.711z"/><path fill="url(#e)" d="M412.206 43.064c-.785 0-1.309.397-1.56 1.182-.906 2.917-2.214 5.804-5.606 7.215-.896.366-1.761.45-2.455.513-.473.042-.876.083-1.198.188-.594.199-1.047.753-1.751 1.631-.362.46-.745.931-1.198 1.391-3.26 3.284-7.618 5.083-12.61 5.187-.865.021-1.741.021-2.606.021-.866 0-1.721 0-2.577-.01-.845 0-1.7-.01-2.546-.01H48.196c-1.43 0-2.94.051-4.53.114-1.7.063-3.461.126-5.232.126-6.421 0-13.647-.753-18.538-6.306a16 16 0 0 1-.674-.826c-.504-.638-.805-1.004-1.228-1.213-.272-.136-.745-.168-1.238-.21-.594-.052-1.268-.104-1.973-.334-3.844-1.234-5.323-4.466-6.25-7.467-.301-.972-1.016-1.171-1.56-1.171-.623 0-1.237.282-1.539.7-.14.2-.302.534-.09 1.193 1.097 3.534 3.935 9.6 10.567 10.426l.754.094.504.596c4.166 4.967 10.023 7.624 16.947 7.655h334c2.063 0 4.196.063 6.249.125 2.074.063 4.217.126 6.311.126 3.25 0 5.877-.157 8.242-.492 5.052-.721 9.711-3.346 13.103-7.414l.503-.596.755-.094c6.622-.837 9.46-6.892 10.557-10.426.201-.66.04-.994-.091-1.193-.302-.428-.915-.71-1.539-.71z"/><path fill="url(#f)" d="M412.246 28.235a3.756 3.756 0 0 0-3.754 3.755 3.756 3.756 0 0 0 3.754 3.754A3.756 3.756 0 0 0 416 31.99a3.756 3.756 0 0 0-3.754-3.755"/><path fill="url(#g)" d="M7.508 32a3.756 3.756 0 0 0-3.754-3.754A3.756 3.756 0 0 0 0 32c0 2.07 1.68 3.754 3.754 3.754A3.756 3.756 0 0 0 7.508 32"/></g><defs><linearGradient id="c" x1="5.32" x2="412.808" y1="32.361" y2="32.361" gradientUnits="userSpaceOnUse"><stop stop-color="#f7f3e8"/><stop offset=".35" stop-color="#8a724c"/><stop offset=".5" stop-color="#8a724c"/><stop offset=".65" stop-color="#8a724c"/><stop offset="1" stop-color="#f7f3e8"/></linearGradient><linearGradient id="d" x1="103.678" x2="321.975" y1="128.167" y2="-81.912" gradientUnits="userSpaceOnUse"><stop stop-color="#eedebc"/><stop offset=".06" stop-color="#ddc5a3"/><stop offset=".14" stop-color="#c9a885"/><stop offset=".26" stop-color="#9a7a5f"/><stop offset=".36" stop-color="#c9a885"/><stop offset=".49" stop-color="#eedebc"/><stop offset=".54" stop-color="#ddc5a3"/><stop offset=".61" stop-color="#c9a885"/><stop offset=".72" stop-color="#9a7a5f"/><stop offset=".84" stop-color="#c9a885"/><stop offset="1" stop-color="#eedebc"/></linearGradient><linearGradient id="e" x1="103.678" x2="321.974" y1="155.942" y2="-54.137" gradientUnits="userSpaceOnUse"><stop stop-color="#eedebc"/><stop offset=".06" stop-color="#ddc5a3"/><stop offset=".14" stop-color="#c9a885"/><stop offset=".26" stop-color="#9a7a5f"/><stop offset=".36" stop-color="#c9a885"/><stop offset=".49" stop-color="#eedebc"/><stop offset=".54" stop-color="#ddc5a3"/><stop offset=".61" stop-color="#c9a885"/><stop offset=".72" stop-color="#9a7a5f"/><stop offset=".84" stop-color="#c9a885"/><stop offset="1" stop-color="#eedebc"/></linearGradient><linearGradient id="f" x1="125.929" x2="426.174" y1="329.506" y2="40.564" gradientUnits="userSpaceOnUse"><stop stop-color="#eedebc"/><stop offset=".06" stop-color="#ddc5a3"/><stop offset=".14" stop-color="#c9a885"/><stop offset=".26" stop-color="#9a7a5f"/><stop offset=".36" stop-color="#c9a885"/><stop offset=".49" stop-color="#eedebc"/><stop offset=".54" stop-color="#ddc5a3"/><stop offset=".61" stop-color="#c9a885"/><stop offset=".72" stop-color="#9a7a5f"/><stop offset=".84" stop-color="#c9a885"/><stop offset="1" stop-color="#eedebc"/></linearGradient><linearGradient id="g" x1=".926" x2="301.17" y1="34.939" y2="-254.004" gradientUnits="userSpaceOnUse"><stop stop-color="#eedebc"/><stop offset=".06" stop-color="#ddc5a3"/><stop offset=".14" stop-color="#c9a885"/><stop offset=".26" stop-color="#9a7a5f"/><stop offset=".36" stop-color="#c9a885"/><stop offset=".49" stop-color="#eedebc"/><stop offset=".54" stop-color="#ddc5a3"/><stop offset=".61" stop-color="#c9a885"/><stop offset=".72" stop-color="#9a7a5f"/><stop offset=".84" stop-color="#c9a885"/><stop offset="1" stop-color="#eedebc"/></linearGradient><clipPath id="a"><path fill="#fff" d="M0 0h416v64H0z"/></clipPath><clipPath id="b"><path fill="#fff" d="M6.554 3.147H412.98v58.754H6.554z"/></clipPath></defs></svg>