<svg xmlns="http://www.w3.org/2000/svg" width="652" height="471" fill="none" viewBox="0 0 652 471"><g filter="url(#a)"><path fill="#f4f1eb" d="M586.225 55.334C574.074 25.17 545.593 4 512.394 4H139.44c-33.199 0-61.68 21.171-73.832 51.334C32.367 65.169 8 97.176 8 135.163v192.674c0 37.987 24.367 69.994 57.608 79.829C77.76 437.829 106.241 459 139.44 459h372.954c33.199 0 61.68-21.171 73.831-51.334 33.242-9.835 57.609-41.842 57.609-79.829V135.163c0-37.987-24.367-69.994-57.609-79.83"/><path stroke="#e1beb6" d="M148.859 21.268h354.282c31.322 0 58.202 19.47 69.672 47.223l.093.222.232.068c31.363 9.045 54.362 38.486 54.362 73.436v178.406c0 34.95-22.999 64.391-54.362 73.436l-.232.066-.093.223c-11.47 27.753-38.35 47.223-69.672 47.223H148.859c-31.322 0-58.202-19.47-69.673-47.223l-.092-.223-.232-.066-.733-.216C47.14 384.553 24.5 355.3 24.5 320.623V142.217c0-34.95 23-64.39 54.362-73.436l.232-.068.093-.222c11.47-27.753 38.35-47.223 69.672-47.223Z"/></g><defs><filter id="a" width="651.834" height="471" x="0" y="0" color-interpolation-filters="sRGB" filterUnits="userSpaceOnUse"><feFlood flood-opacity="0" result="BackgroundImageFix"/><feColorMatrix in="SourceAlpha" result="hardAlpha" values="0 0 0 0 0 0 0 0 0 0 0 0 0 0 0 0 0 0 127 0"/><feOffset dy="4"/><feGaussianBlur stdDeviation="4"/><feComposite in2="hardAlpha" operator="out"/><feColorMatrix values="0 0 0 0 0.741176 0 0 0 0 0.568627 0 0 0 0 0.552941 0 0 0 0.5 0"/><feBlend in2="BackgroundImageFix" result="effect1_dropShadow_3478_2948"/><feBlend in="SourceGraphic" in2="effect1_dropShadow_3478_2948" result="shape"/></filter></defs></svg>