<svg xmlns="http://www.w3.org/2000/svg" width="128" height="128" fill="none" viewBox="0 0 128 128"><g fill="#dcc9a8" clip-path="url(#a)"><path d="M117.539 125.941a.34.34 0 0 0 .019.286.67.67 0 0 0 .34.286c.174.073.417.103.674.044.256-.059.518-.212.712-.424.102-.103.204-.261.296-.448.087-.192.15-.413.179-.655a2.6 2.6 0 0 0-.029-.723 2.65 2.65 0 0 0-.562-1.197 7 7 0 0 0-.18-.202c-.063-.059-.116-.113-.174-.157-.058-.045-.107-.084-.155-.118a.7.7 0 0 0-.126-.074q-.112-.06-.136-.04c-.014.015 0 .059.024.138q.051.124.117.301c.024.059.043.128.072.196.025.069.044.148.068.222.039.158.073.325.087.492q.016.254-.019.493a2 2 0 0 1-.116.413 1.2 1.2 0 0 1-.165.281c-.01.02-.029.035-.039.049l-.034.04c-.009.01-.024.024-.029.034l-.029.03c-.068.069-.116.128-.174.182a2 2 0 0 1-.19.172c-.15.113-.349.207-.421.379zm3.152-.846c-.417-1.226-1.43-2.536-1.566-2.708-.01-.01-.01-.025 0-.03l-.02-.768c0-.103.083-.182.185-.172l.756.074h.029c.16.147 1.275 1.191 2.545 1.787.01 0 .514 2.103.606 2.551.009.044-.024.078-.068.064-.436-.128-2.458-.788-2.463-.803zm3.034-4.988c.087-.03.179-.02.281.044a.7.7 0 0 1 .257.369c.058.183.072.434-.01.69a1.47 1.47 0 0 1-.47.689 1.8 1.8 0 0 1-.466.266 2.1 2.1 0 0 1-.654.133c-.237.01-.48-.02-.713-.084a2.7 2.7 0 0 1-.639-.276 3 3 0 0 1-.495-.384 3 3 0 0 1-.184-.197c-.053-.069-.102-.128-.141-.187l-.101-.162q-.041-.074-.068-.133c-.034-.074-.044-.123-.029-.138s.058 0 .131.034q.117.058.286.138c.058.03.126.054.189.084.067.03.14.054.213.084.15.054.315.093.48.123q.25.035.485.02a1.6 1.6 0 0 0 .412-.089c.121-.044.218-.099.286-.148q.027-.017.048-.034a.3.3 0 0 0 .044-.035l.038-.029q.015-.016.029-.025c.073-.059.136-.108.194-.162.059-.05.122-.109.18-.183.121-.142.228-.339.402-.398zm-1.241-1.349c-.068-.01-.131-.074-.184-.182a2.5 2.5 0 0 1-.151-.458c-.024-.104-.048-.207-.072-.32q-.017-.089-.039-.178l-.044-.192c-.024-.133-.063-.266-.092-.413-.039-.143-.073-.291-.121-.443a5 5 0 0 0-.359-.906c-.082-.143-.164-.291-.266-.424-.049-.069-.102-.128-.155-.197-.059-.059-.112-.123-.175-.182a3.3 3.3 0 0 0-.906-.601 6 6 0 0 0-1.241-.384 13 13 0 0 0-1.862-.236 40 40 0 0 0-2.666-.054c-.989 0-2.065.019-3.184-.05a17 17 0 0 1-.849-.073c-.14-.02-.286-.035-.431-.059l-.107-.02-.111-.025-.228-.044a6.1 6.1 0 0 1-1.663-.67c-.257-.143-.489-.31-.722-.477a8 8 0 0 1-.635-.547 7 7 0 0 1-1.018-1.216c-.562-.847-.887-1.738-1.008-2.506-.034-.192-.049-.379-.063-.552-.005-.177-.015-.34 0-.497 0-.153.024-.296.034-.428.014-.133.043-.252.063-.355.053-.212.097-.369.145-.478.044-.103.073-.157.087-.152.015 0 .015.064.01.177a8 8 0 0 0-.019.483c0 .103 0 .216.009.339.01.123.015.256.039.399.015.143.044.291.073.448.039.158.077.32.131.488a6.05 6.05 0 0 0 1.182 2.102c.291.34.631.665 1.004.95.184.148.388.276.591.404.209.118.417.237.64.33.441.197.907.33 1.372.394.058.01.116.01.174.02l.088.01h.092q.189.02.378.019c.257.005.514 0 .771-.005 1.037-.034 2.084-.138 3.083-.216.998-.084 1.953-.138 2.806-.128.853.005 1.614.083 2.201.206a6.6 6.6 0 0 1 1.706.591 4.7 4.7 0 0 1 1.416 1.133c.097.113.179.231.261.349.078.123.155.242.214.365.131.246.227.492.305.733.15.483.204.931.218 1.33.01.202 0 .389-.01.566-.019.177-.033.34-.063.488q-.023.111-.038.216l-.049.197a3 3 0 0 1-.106.34 1.7 1.7 0 0 1-.233.448q-.117.146-.218.138z"/><path d="M115.004 117.059c.048.074-.019.227-.204.433a3.3 3.3 0 0 1-.964.685c-.058.024-.121.054-.18.079-.063.024-.131.044-.198.069-.136.049-.282.078-.437.113a3.3 3.3 0 0 1-1.018.024 3.4 3.4 0 0 1-1.085-.344 4 4 0 0 1-.965-.699 5.8 5.8 0 0 1-.921-1.192 8.3 8.3 0 0 1-.766-1.797c-.204-.685-.305-1.404-.422-2.108-.111-.704-.223-1.403-.421-2.038a6 6 0 0 0-.359-.906 5 5 0 0 0-.48-.783c-.354-.468-.776-.847-1.125-1.182a16 16 0 0 1-.465-.467c-.131-.148-.237-.281-.325-.389-.16-.232-.237-.365-.218-.38.015-.009.131.094.325.281.107.089.228.192.378.315.15.113.32.246.519.384.383.281.867.606 1.323 1.083.461.473.853 1.094 1.139 1.778.291.684.475 1.413.65 2.112.174.695.334 1.369.547 1.94.214.576.48 1.084.747 1.492.267.404.538.709.751.916.432.419.902.689 1.372.803.233.059.465.078.693.083.112-.005.223 0 .33-.019q.08-.006.16-.02.078-.016.155-.025c.402-.074.742-.182.994-.241.247-.064.412-.074.46 0zm-10.596-5.465q-.074.058-.228-.025c-.053-.024-.107-.064-.17-.108a2 2 0 0 1-.193-.172c-.272-.266-.587-.709-.805-1.266a5 5 0 0 1-.296-1.295 6.4 6.4 0 0 1 .073-1.738c.024-.143.058-.276.082-.413.015-.069.039-.138.054-.202q.03-.097.067-.187c.093-.242.19-.444.267-.616q.117-.258.175-.413c.034-.099.063-.158.077-.158.01 0 .02.064.02.177s-.025.271-.059.463c-.038.187-.087.409-.126.645q-.015.088-.024.177c0 .059-.01.119-.014.183 0 .128-.01.261-.01.393 0 .537.058 1.094.17 1.566.106.473.261.862.349 1.098.184.478.378.906.509 1.236q.049.127.077.232.035.103.049.187c.019.108.004.192-.039.226z"/><path d="M116.226 124.662c0 .069-.049.143-.151.212a1.7 1.7 0 0 1-.46.201 2.5 2.5 0 0 1-.339.084c-.063.01-.131.025-.199.035-.073.009-.141.014-.218.024-.151.02-.311.02-.485.025-.175 0-.359-.005-.553-.03a4.8 4.8 0 0 1-1.289-.315 4.5 4.5 0 0 1-.698-.364c-.116-.069-.228-.158-.344-.246-.112-.094-.223-.187-.325-.291a4.5 4.5 0 0 1-1.003-1.516 7 7 0 0 1-.456-1.773c-.078-.601-.097-1.374-.044-2.24s.18-1.832.33-2.836c.15-1.005.33-2.059.436-3.107.024-.261.049-.522.063-.783l.015-.384v-.36a5.3 5.3 0 0 0-.286-1.413 7 7 0 0 0-.277-.674 6.8 6.8 0 0 0-1.211-1.714 5.9 5.9 0 0 0-1.973-1.349c-.16-.069-.32-.118-.47-.168-.151-.039-.296-.083-.437-.108-.135-.034-.266-.049-.388-.069q-.181-.02-.334-.034c-.204-.01-.364-.02-.475-.02-.112 0-.17-.015-.175-.029q0-.023.16-.074.16-.058.48-.109c.107-.01.223-.029.354-.034.131 0 .272-.015.422 0 .15 0 .315.02.485.039.169.03.349.059.533.104.742.182 1.59.571 2.38 1.206.397.315.776.689 1.12 1.118a7.2 7.2 0 0 1 .906 1.447c.252.532.436 1.118.533 1.733l.029.232.015.118.01.113c.014.148.019.296.029.439.014.29.014.581.014.866-.014 1.138-.111 2.226-.184 3.23-.077 1.005-.136 1.92-.14 2.708-.01.783.033 1.433.092 1.906s.155.906.286 1.285c.135.379.305.699.523.965.053.069.112.128.165.192.063.059.116.118.179.172.121.114.257.207.393.301.276.177.577.315.863.428.145.059.286.103.426.153.141.039.272.088.398.123q.096.03.184.054l.175.049c.106.035.208.064.31.099.189.064.334.123.441.187.102.064.16.133.165.202z"/><path d="M115.106 116.96c-.068-.059-.049-.221.034-.467.073-.251.208-.586.31-.99.015-.049.024-.103.039-.153.014-.054.019-.108.029-.157.024-.109.029-.222.044-.335a3.3 3.3 0 0 0-.029-.709c-.078-.483-.311-.98-.689-1.448a5.8 5.8 0 0 0-.843-.832 7.3 7.3 0 0 0-1.411-.866c-.543-.261-1.192-.468-1.861-.695s-1.377-.467-2.026-.812a5.8 5.8 0 0 1-1.663-1.285c-.436-.502-.718-1.01-.965-1.423-.121-.207-.237-.389-.339-.552l-.276-.403c-.17-.212-.262-.34-.248-.355.01-.015.136.079.349.256.097.094.223.212.354.36.131.147.277.315.427.507.305.374.64.832 1.076 1.226.213.202.465.379.732.546s.557.306.863.429c.611.251 1.289.408 1.973.576.683.167 1.376.325 2.036.576a7.7 7.7 0 0 1 1.711.906c.48.34.853.704 1.105 1.019s.465.66.616 1.029.237.753.256 1.123c.02.369-.024.719-.101 1.029-.044.152-.088.3-.146.433-.029.064-.053.133-.082.192s-.063.118-.092.177a3.3 3.3 0 0 1-.742.931c-.223.172-.373.231-.441.177zm1.164 3.32a1.34 1.34 0 0 1 .067-1.871 1.29 1.29 0 0 1 1.842.069c.49.536.461 1.374-.067 1.871a1.29 1.29 0 0 1-1.842-.069m-14.363-15.816a1.2 1.2 0 0 1 .063-1.679 1.154 1.154 0 0 1 1.653.064 1.2 1.2 0 0 1-.063 1.679 1.155 1.155 0 0 1-1.653-.064m8.55 1.423c-.039.045-.121.049-.228.025a1 1 0 0 1-.179-.064 3 3 0 0 1-.223-.099c-.315-.152-.722-.379-1.178-.605-.228-.109-.596-.291-1.057-.434a6.7 6.7 0 0 0-1.527-.285q-.196-.014-.387-.02h-.18c-.058 0-.116.01-.174.015-.233.025-.451.059-.64.084a3 3 0 0 1-.456.024q-.168-.013-.169-.034c0-.01.058-.035.16-.059q.153-.045.416-.148c.175-.064.379-.148.621-.227.063-.014.121-.039.189-.054q.102-.022.204-.039c.13-.02.271-.039.407-.054a6.2 6.2 0 0 1 1.711.054c.538.093.989.266 1.25.394.529.261.941.61 1.183.906q.089.11.155.212c.039.068.073.128.092.182.044.108.049.187.005.231zM94.47 120.442c-.222-.231.034-.876.543-1.748.504-.876 1.26-1.989 1.993-3.235.189-.31.421-.718.678-1.206.252-.487.514-1.059.747-1.694s.426-1.329.557-2.058c.136-.729.204-1.482.209-2.225.014-1.487-.233-2.906-.466-3.94-.237-1.034-.436-1.693-.363-1.728.048-.024.44.547.916 1.531.465.985 1.008 2.408 1.255 4.033.126.813.18 1.669.146 2.521-.034.847-.15 1.689-.335 2.457a13.4 13.4 0 0 1-.669 2.068 13 13 0 0 1-.717 1.443c-.853 1.447-1.91 2.516-2.763 3.156-.863.64-1.522.862-1.74.635zm-60.688-2.315c.514.099 1.042.227 1.58.394q.806.25 1.648.581c1.12.438 2.274.975 3.47 1.507.602.266 1.203.532 1.819.807.61.276 1.23.557 1.856.833.626.28 1.26.546 1.9.807.64.256 1.29.507 1.944.724.325.118.66.212.99.315.164.054.329.094.498.138.165.044.33.093.5.133.334.074.669.162 1.003.217.17.029.334.064.504.088.17.025.335.044.504.069.083.01.17.025.252.03l.252.019c.17.015.335.025.505.04l.494.019q.248.015.494.015.248.001.495.01h.741l.248-.015c.165-.01.325-.01.49-.024a11.6 11.6 0 0 0 2.166-.345q.117-.028.233-.064c.155-.049.31-.103.46-.153.15-.064.3-.123.451-.187q.115-.044.223-.103l.218-.109c.073-.039.146-.068.218-.113.073-.039.14-.083.214-.123.14-.084.28-.162.412-.261.135-.093.271-.182.402-.28q.194-.15.383-.301.096-.075.184-.157c.063-.055.121-.109.184-.163.059-.054.122-.108.18-.157.058-.055.116-.114.174-.168.117-.113.228-.226.344-.335.059-.059.112-.123.17-.182q.085-.09.165-.187l.16-.192q.079-.097.15-.202c.102-.133.194-.276.286-.413a10 10 0 0 0 .5-.882c.15-.3.276-.62.397-.935.111-.32.213-.64.286-.97.32-1.31.325-2.669.087-3.846a7.6 7.6 0 0 0-.509-1.605 7.3 7.3 0 0 0-.703-1.236 7.3 7.3 0 0 0-.805-.945c-.072-.069-.145-.133-.218-.202-.034-.035-.072-.064-.111-.099l-.116-.093c-.078-.064-.156-.118-.238-.177l-.116-.084-.121-.074a4.7 4.7 0 0 0-.985-.463 5 5 0 0 0-.988-.236 5.9 5.9 0 0 0-2.807.31c-.145.049-.286.113-.431.172-.073.03-.141.069-.209.099-.068.034-.14.069-.203.108q-.102.06-.204.113c-.068.04-.13.084-.194.123l-.097.064-.097.069c-.063.045-.126.094-.189.138q-.093.074-.18.148l-.091.074-.088.079q-.088.081-.17.162c-.053.059-.11.113-.164.172-.053.055-.107.119-.16.178l-.155.187c-.097.133-.194.256-.281.399-.18.266-.33.566-.466.866-.029.079-.063.158-.092.232l-.043.118-.04.118q-.034.117-.077.241a4 4 0 0 1-.063.246l-.029.124c-.01.039-.014.083-.024.123l-.044.246-.029.251-.014.123c0 .039 0 .084-.005.123q-.001.126-.01.251v.37l.015.123.02.241c.009.079.023.157.033.236q.006.06.02.118l.024.114q.02.116.048.226l.058.222.03.108.033.108q.037.102.073.212c.03.069.053.133.082.202l.04.098q.02.05.043.094c.029.064.063.123.092.187.029.059.068.118.097.177.063.119.136.227.208.33.286.424.62.739.95.97.335.232.67.365.984.429.31.059.602.059.849 0l.092-.015q.044-.016.087-.025c.058-.015.112-.034.165-.049q.16-.064.29-.128c.083-.049.166-.098.238-.138l.073-.059c.548-.108.95-.714.93-1.462-.019-.837-.557-1.532-1.202-1.546-.644-.02-1.148.645-1.129 1.482.015.655.35 1.221.805 1.447-.03.005-.058.015-.087.02-.049.005-.102.015-.156.02q-.037.001-.082.01h-.082a2 2 0 0 1-.737-.099 2.6 2.6 0 0 1-.815-.443 3.4 3.4 0 0 1-.756-.872c-.053-.093-.111-.182-.16-.285-.024-.049-.053-.099-.077-.153-.025-.054-.044-.103-.068-.157l-.034-.079-.03-.084c-.019-.054-.038-.113-.062-.167-.02-.059-.034-.118-.053-.178l-.025-.088a1 1 0 0 1-.02-.089c-.014-.059-.028-.123-.043-.182a3 3 0 0 0-.034-.187l-.014-.094a1 1 0 0 0-.01-.093l-.02-.192q0-.095-.009-.197v-.394l.015-.202c0-.034 0-.069.01-.098l.014-.099.029-.202.044-.197c.004-.034.014-.069.019-.098l.029-.099c.02-.064.034-.133.053-.197.025-.064.044-.128.068-.192l.034-.098.039-.094c.029-.064.053-.128.082-.187a4.93 4.93 0 0 1 2.23-2.294c.058-.035.121-.059.184-.089s.121-.059.19-.084c.125-.049.251-.103.382-.142a5.44 5.44 0 0 1 2.502-.237 4.4 4.4 0 0 1 1.672.606l.097.059.097.069c.063.044.13.088.189.143l.092.073c.029.025.063.05.092.079.063.059.121.118.184.173.238.241.475.497.674.792a6 6 0 0 1 .999 2.319c.096.483.15 1.005.145 1.547 0 .137-.01.275-.015.413q-.016.206-.038.419c-.04.28-.083.566-.15.847-.064.285-.15.561-.243.842a9 9 0 0 1-.34.817 8 8 0 0 1-.426.778c-.082.123-.16.251-.252.364l-.13.177-.141.173c-.044.059-.097.113-.146.167q-.071.081-.15.163c-.107.108-.213.211-.32.32q-.079.081-.165.162c-.058.049-.111.104-.17.153-.058.049-.111.103-.17.153-.057.049-.11.103-.174.147l-.354.286c-.12.093-.242.177-.368.266-.121.093-.252.167-.378.246q-.093.059-.194.118c-.063.039-.13.069-.199.108l-.198.104q-.102.053-.204.098l-.417.178c-.14.049-.286.098-.426.152-.073.03-.146.044-.219.064l-.218.059q-.888.23-1.827.306c-.155.014-.315.019-.475.034l-.238.015h-.237q-.24.014-.48.019h-.209a1 1 0 0 0-.155-.093c-.18-.089-.402-.138-.659-.182-.252-.04-.538-.138-.858-.217-.635-.167-1.377-.453-2.186-.812a64 64 0 0 1-2.603-1.384c-1.256-.689-2.443-1.305-3.476-1.773-.518-.221-.993-.433-1.415-.581-.213-.078-.407-.147-.592-.216a18 18 0 0 1-.504-.153l-.49-.216c-.179-.079-.377-.153-.586-.237a43 43 0 0 0-1.425-.537c-1.052-.364-2.302-.748-3.665-.861-.499-.035-.988-.054-1.459-.01-.237.01-.465.054-.688.079-.111.019-.223.044-.33.064-.106.024-.218.039-.32.074-.76.197-1.405.531-1.943.851q-.181.039-.354.084c.232-.167.509-.349.824-.537.068-.039.14-.083.213-.123l.228-.118c.15-.084.315-.157.48-.241.34-.153.698-.315 1.086-.448.387-.133.8-.256 1.231-.34q.326-.065.66-.093.167-.009.343-.025c.117-.005.233 0 .35-.005 1.274-.01 2.476.207 3.504.433 1.023.237 1.876.483 2.458.665.28.133.63.286 1.027.492q.597.305 1.338.675c.485.271 1.013.561 1.57.862.553.32 1.135.659 1.736 1.009q.663.4 1.29.763c.407.241.794.512 1.163.778.368.266.722.522 1.057.749.334.231.654.433.945.605.591.34 1.095.527 1.444.611.088.02.165.039.233.049q.103.014.17.02l.14.015-.14-.04-.17-.049c-.068-.025-.14-.054-.228-.084-.34-.133-.814-.384-1.367-.783a21 21 0 0 1-.896-.689l-1.018-.827a13 13 0 0 0-1.173-.857c-.417-.261-.849-.522-1.29-.793-.606-.354-1.202-.669-1.764-.975q-.859-.414-1.61-.763c-.504-.202-.97-.384-1.381-.541-.407-.158-.771-.266-1.062-.36-.567-.261-1.4-.62-2.433-.945-1.028-.315-2.254-.606-3.582-.596-.122 0-.243 0-.364.01l-.359.029q-.357.037-.693.118c-.45.104-.872.257-1.265.419-.393.167-.756.359-1.09.551-.166.104-.325.193-.476.296-.072.049-.15.098-.218.148-.073.049-.14.103-.208.152-.437.32-.786.635-1.038.896a4 4 0 0 0-.557.227 2.8 2.8 0 0 0-.834.606q.047.073.078.162c0 .01.01.02.014.03a2.8 2.8 0 0 1 .82-.557q.043-.02.087-.034l-.068.083q-.037.047-.058.069-.188.126-.34.222-.297.186-.421.261s0 .01.005.015q.132-.054.445-.187l.611-.291q.357-.17.8-.394c.073-.034.14-.069.218-.103.848-.133 1.794-.099 2.792.074zm-3.723.153q-.079.053-.15.098-.096.066-.184.124c.004-.005.014-.01.019-.02q.066-.061.16-.143l.16-.059zm1.968-.645c.276-.094.562-.172.868-.227.102-.029.208-.034.315-.054.106-.014.213-.034.32-.044.218-.015.44-.049.669-.049.455-.025.926 0 1.41.034 1.319.113 2.555.424 3.612.694.528.138 1.013.276 1.44.394a42 42 0 0 1 1.095.316l.49.216c.174.089.368.182.571.286.412.192.873.448 1.372.709 1.004.546 2.167 1.221 3.427 1.91.926.512 1.818.965 2.657 1.315.843.315 1.609.537 2.263.63.325.049.62.108.878.113.257.015.475.03.65.089h.014-.112c-.16 0-.324 0-.484-.005-.165 0-.325-.01-.49-.01l-.485-.029-.242-.015c-.083-.005-.16-.02-.242-.025-.16-.019-.325-.034-.49-.054a8 8 0 0 1-.49-.079c-.324-.044-.65-.123-.974-.187-.165-.034-.325-.079-.49-.118-.16-.044-.324-.074-.49-.123-.324-.094-.649-.182-.969-.286a35 35 0 0 1-1.924-.669 84 84 0 0 1-1.895-.758q-.941-.391-1.867-.783c-.615-.261-1.23-.512-1.827-.759-1.202-.497-2.366-1.004-3.505-1.418a22 22 0 0 0-1.677-.541 16 16 0 0 0-1.614-.355 10 10 0 0 0-1.78-.103zm-8.478 6.367s-.757-2.467.14-3.59c0 0-13.936 2.757-23.689 2.644z"/><path d="m66.84 107.739-.067.202-.087.246c-.034.098-.078.212-.102.35-.034.132-.068.285-.107.448-.029.167-.048.354-.078.556-.019.098-.019.207-.024.315 0 .108-.01.222-.01.34-.004.236.025.482.04.748.019.133.043.266.062.404.01.069.025.138.034.212.015.069.034.143.054.212q.057.213.116.443.079.22.165.448a7 7 0 0 0 1.076 1.836 6.7 6.7 0 0 0 1.895 1.571c.184.118.398.197.601.295.204.104.422.168.64.242.112.034.218.074.33.113.111.039.228.054.344.084.116.024.233.054.349.078.116.03.233.055.359.064 1.914.316 4.183-.093 6.122-1.442.242-.168.465-.36.703-.547.223-.202.436-.413.66-.625.198-.232.401-.463.595-.709.087-.128.18-.256.267-.389s.189-.256.257-.399l.232-.418a3 3 0 0 0 .214-.434l.189-.448c.029-.074.063-.152.092-.226l.073-.232c.092-.31.203-.615.28-.935.069-.32.132-.645.2-.97a11.2 11.2 0 0 0-.146-4.082 11.3 11.3 0 0 0-1.701-3.91 10.9 10.9 0 0 0-3.185-3.057c-.32-.197-.654-.365-.989-.552-.34-.157-.693-.295-1.042-.443a13.1 13.1 0 0 0-8.148-.286 13.3 13.3 0 0 0-5.042 2.748 13.35 13.35 0 0 0-3.286 4.348c-.761 1.61-1.159 3.259-1.353 4.86a16.4 16.4 0 0 0 .117 4.593 16.5 16.5 0 0 0 1.168 3.925 15.6 15.6 0 0 0 1.779 3.067 16 16 0 0 0 1.968 2.206 16 16 0 0 0 2.186 1.989c.868.65 1.876 1.271 3.034 1.783a19.4 19.4 0 0 0 3.83 1.221c1.391.29 2.899.443 4.474.404 1.575-.03 3.214-.286 4.857-.749.209-.054.412-.123.616-.187.203-.069.412-.128.615-.207.407-.157.82-.3 1.222-.487.819-.345 1.614-.773 2.4-1.236a21.5 21.5 0 0 0 2.278-1.6 22 22 0 0 0 2.084-1.965 20.3 20.3 0 0 0 3.335-4.889c.17-.33.315-.675.46-1.01.156-.334.272-.684.403-1.029.135-.344.232-.689.344-1.029l.165-.512.14-.517c.378-1.379.65-2.777.766-4.175a20 20 0 0 0-.077-4.126c-.165-1.34-.47-2.63-.873-3.841-.795-2.432-1.963-4.535-3.141-6.396-1.192-1.861-2.428-3.486-3.577-4.939a136 136 0 0 0-3.19-3.845c-.955-1.113-1.789-2.063-2.467-2.841l-2.123-2.403s.659.936 1.876 2.61c.606.837 1.347 1.86 2.21 3.047.858 1.187 1.837 2.541 2.88 4.058 1.037 1.516 2.151 3.195 3.203 5.056 1.043 1.867 2.046 3.92 2.69 6.185.326 1.127.558 2.309.675 3.52a18.5 18.5 0 0 1-.03 3.728 22.7 22.7 0 0 1-.765 3.811l-.136.477-.155.478c-.107.315-.2.645-.325.945-.116.311-.228.626-.368.926-.131.305-.262.615-.417.911-1.59 3.279-4.053 5.953-6.855 7.745a19 19 0 0 1-2.147 1.197c-.359.182-.737.325-1.1.487-.184.074-.374.138-.558.207s-.368.138-.557.197c-1.488.482-2.986.793-4.44.896a19.2 19.2 0 0 1-7.863-1.044 15.5 15.5 0 0 1-5.24-3.191 16 16 0 0 1-3.18-5.298 15.76 15.76 0 0 1-.727-7.922c.252-1.438.684-2.93 1.401-4.294a11.9 11.9 0 0 1 2.971-3.663 11.7 11.7 0 0 1 4.368-2.26 11.5 11.5 0 0 1 5.085-.222c.63.119 1.25.286 1.842.498.286.123.577.231.858.36.271.147.548.285.81.437a9.2 9.2 0 0 1 2.646 2.462 9.6 9.6 0 0 1 1.493 3.196 9.7 9.7 0 0 1 .237 3.407c-.043.276-.092.552-.135.827-.053.271-.14.537-.204.803a7.6 7.6 0 0 1-.596 1.477c-.053.123-.13.227-.199.335-.068.108-.135.221-.203.33-.15.212-.31.408-.46.615-.175.182-.345.375-.52.552-.189.162-.368.335-.562.487-1.56 1.221-3.48 1.719-5.182 1.561-.106 0-.213-.02-.315-.034a6 6 0 0 1-.31-.05c-.102-.019-.208-.024-.31-.054-.102-.024-.199-.054-.3-.079-.2-.054-.398-.093-.582-.172-.185-.074-.374-.123-.543-.217a6.1 6.1 0 0 1-1.794-1.26 6.7 6.7 0 0 1-1.125-1.59l-.189-.404q-.072-.206-.145-.404a2 2 0 0 1-.068-.197c-.014-.064-.034-.133-.048-.197-.034-.128-.063-.256-.097-.379-.034-.251-.087-.487-.102-.709-.005-.113-.015-.222-.02-.33-.004-.103-.014-.207-.01-.305.01-.197.01-.379.025-.547q.037-.25.058-.448a2 2 0 0 1 .068-.354c.024-.099.044-.187.058-.251l.049-.207z"/><path d="M66.443 110.038c2.162 1.831 4.27-1.694 2.297-2.886-1.367-.827-3.073 1.349-2.19 2.689zm-39.579 14.009c-.228-.06-.397-.252-.49-.532-.092-.281-.101-.66.025-1.069a3.6 3.6 0 0 1 .446-.866c.232-.345.567-.714.955-.965.387-.252.8-.37 1.095-.38.146-.014.267.015.35.03q.122.03.13.069c.01.049-.14.158-.334.315a2.4 2.4 0 0 0-.548.689c-.306.557-.388 1.305-.49 1.63-.102.32-.266.616-.47.822-.204.207-.446.316-.674.257zm4.169-.543c-.121.099-.29.118-.475.059a1.16 1.16 0 0 1-.557-.438 2.3 2.3 0 0 1-.281-.586 2.4 2.4 0 0 1-.131-.906c.02-.31.12-.586.232-.748.117-.163.214-.242.243-.222.029.015.024.138.034.305.01.168.058.38.145.572.175.389.538.728.669.91.13.183.218.389.247.581.03.193-.01.37-.13.468zm88.349-92.174c.033-.074.072-.148.106-.217.15-.295.286-.566.407-.802l.301-.61c.092-.213.16-.36.199-.449 0 0-.01 0-.01-.005-.053.079-.141.222-.267.419-.068.098-.14.211-.228.34l-.072.058-.083.064c.015-.03.025-.059.039-.088a2.9 2.9 0 0 1 .567-.817c-.009 0-.019-.01-.029-.015a1 1 0 0 1-.155-.084 3 3 0 0 0-.616.832 4 4 0 0 0-.237.556 8.6 8.6 0 0 0-.911 1.035q-.075.103-.155.206c-.049.074-.102.143-.151.222-.106.148-.198.31-.305.473-.199.334-.398.699-.572 1.093a8 8 0 0 0-.446 1.275 6 6 0 0 0-.131.704c-.015.118-.024.241-.039.36q-.012.184-.019.369c-.044 1.344.208 2.6.494 3.653a22 22 0 0 0 .868 2.497c.082.3.179.664.325 1.088.145.418.31.896.494 1.413.213.512.451 1.069.708 1.654.286.581.582 1.192.916 1.817q.376.687.747 1.33c.252.438.538.837.814 1.216.276.374.543.724.79 1.058.247.33.461.64.654.926.374.576.611 1.064.732 1.408.029.09.059.163.078.232.014.069.029.123.044.172q.035.142.034.143s0-.05-.01-.143c0-.049-.01-.103-.015-.177-.009-.069-.029-.148-.043-.236-.073-.36-.243-.877-.563-1.482q-.24-.457-.567-.98c-.218-.345-.46-.71-.712-1.093a16 16 0 0 1-.737-1.202q-.344-.65-.718-1.33c-.329-.62-.644-1.22-.95-1.791a118 118 0 0 0-.804-1.616q-.342-.76-.626-1.373c-.189-.409-.334-.768-.455-1.059a36 36 0 0 1-.587-2.511c-.194-1.044-.373-2.275-.334-3.57l.014-.354.029-.345a7 7 0 0 1 .107-.665 9.5 9.5 0 0 1 .368-1.24c.141-.39.311-.754.471-1.094.087-.167.164-.33.252-.482.043-.079.082-.153.126-.227l.126-.211c.189-.32.378-.591.552-.823a9 9 0 0 0-.092.355c-.329.537-.674 1.186-.887 1.95-.039.103-.053.216-.082.325-.025.108-.054.221-.073.334-.034.227-.082.458-.097.7a9.5 9.5 0 0 0-.029 1.482c.078 1.388.422 2.668.751 3.747.165.536.34 1.029.49 1.457.077.217.145.419.218.6l.199.503.136.517q.089.281.198.606c.136.438.325.92.533 1.452.432 1.059 1.009 2.285 1.653 3.58.48.95.931 1.856 1.295 2.678.329.833.596 1.596.741 2.24.073.326.16.616.194.877.039.261.083.493.165.675q.036.09.087.157.001.107-.005.212c-.009.163-.014.325-.024.488l-.014.24-.02.242c-.014.158-.024.32-.043.478a11.5 11.5 0 0 1-.349 1.846c-.025.074-.044.148-.068.222s-.044.148-.073.216l-.16.429q-.095.206-.189.418c-.029.07-.068.138-.102.202-.034.07-.072.133-.106.202-.039.064-.068.133-.112.197l-.121.192c-.082.128-.16.256-.252.38-.092.122-.175.245-.272.363q-.145.18-.29.35c-.049.06-.102.113-.151.172-.053.055-.101.114-.155.168s-.102.113-.155.167a5 5 0 0 1-.165.163q-.165.16-.325.32c-.053.05-.111.098-.164.148q-.08.075-.165.142c-.058.045-.116.094-.17.138-.058.044-.121.084-.179.128-.116.089-.243.163-.369.246a7 7 0 0 1-.775.414 7 7 0 0 1-.814.32 9 9 0 0 1-.834.222 7 7 0 0 1-.834.128c-.141.01-.276.024-.412.03-.136 0-.271.009-.407 0a7 7 0 0 1-1.517-.188 6 6 0 0 1-1.275-.458 5.6 5.6 0 0 1-.979-.615 5.5 5.5 0 0 1-.761-.71c-.054-.063-.112-.127-.165-.191q-.043-.047-.078-.094l-.073-.093a3 3 0 0 1-.135-.197l-.063-.099-.058-.103a4 4 0 0 1-.364-.847 4.7 4.7 0 0 1-.184-.872 5.5 5.5 0 0 1 .072-1.718q.08-.414.223-.813c.044-.133.102-.26.156-.389l.087-.187q.042-.095.092-.182a4.9 4.9 0 0 1 2.317-2.2q.095-.036.189-.08l.092-.039.097-.03c.063-.02.126-.044.189-.063.063-.015.131-.035.194-.05l.097-.024c.034-.005.068-.015.097-.02.068-.01.131-.025.194-.035.068-.01.131-.014.199-.024l.096-.01q.052.001.097-.005c.068 0 .131-.005.199-.01h.291l.097.01.194.015q.095.017.189.024c.029 0 .063.01.092.015l.092.02c.063.015.121.024.184.04.058.014.121.034.18.048.029.01.058.015.087.025l.087.03.17.059c.053.024.111.044.165.069l.082.034c.024.01.053.025.078.04.053.024.101.049.155.073.048.025.097.055.145.08.097.049.189.113.276.172.354.236.631.512.839.792a2.5 2.5 0 0 1 .412.837c.073.271.097.527.078.754v.083c0 .03-.01.055-.015.08-.01.053-.014.103-.024.157-.01.03-.015.059-.024.083-.209-.467-.757-.822-1.401-.856-.824-.045-1.488.453-1.488 1.108 0 .654.669 1.22 1.493 1.26.736.04 1.347-.354 1.463-.906l.059-.074q.065-.11.145-.236c.049-.089.087-.187.136-.29l.053-.168.029-.089q.014-.044.02-.093c.058-.251.067-.542.019-.862a2.7 2.7 0 0 0-.393-1.01 3.7 3.7 0 0 0-.93-.989c-.102-.074-.204-.153-.32-.221-.058-.035-.112-.07-.17-.104s-.121-.064-.179-.098l-.092-.05-.097-.044-.194-.089c-.068-.024-.136-.054-.204-.078l-.102-.04-.106-.034a4 4 0 0 1-.218-.07c-.073-.019-.151-.034-.223-.053l-.112-.03a1 1 0 0 0-.116-.02c-.078-.014-.155-.024-.233-.039-.077-.01-.16-.02-.237-.025l-.122-.014h-.121a2 2 0 0 0-.242-.015h-.373l-.122.01q-.123.008-.247.024c-.082.015-.165.025-.247.04q-.06.006-.121.02l-.121.024c-.083.02-.16.035-.243.054-.077.025-.16.05-.237.07l-.121.034-.117.044-.232.089c-.301.128-.597.27-.868.448-.141.083-.267.182-.398.275a5 5 0 0 0-.184.153c-.063.05-.126.103-.179.158l-.175.162a4 4 0 0 1-.165.172l-.082.084-.077.089q-.076.087-.151.182l-.14.187-.068.094-.063.098-.131.197c-.039.069-.078.133-.116.202q-.06.103-.112.207c-.034.069-.073.137-.107.211-.063.143-.13.286-.184.434-.116.29-.203.596-.271.906-.136.62-.18 1.27-.112 1.94.034.334.107.674.204 1.009.102.34.242.68.431 1.01l.068.123.078.123c.053.083.102.162.165.246l.092.118q.042.06.092.118c.063.074.131.148.194.227.271.295.562.586.906.842.339.26.737.517 1.197.748.461.227.989.424 1.566.556a8.6 8.6 0 0 0 3.786.015 10 10 0 0 0 .965-.266c.315-.113.63-.231.93-.379a8 8 0 0 0 .878-.482c.135-.094.281-.183.412-.281q.103-.075.198-.148c.063-.054.126-.103.194-.157.068-.05.126-.109.189-.163s.126-.113.185-.167q.166-.17.339-.34c.058-.059.116-.113.17-.172q.08-.088.159-.182l.165-.183c.054-.059.112-.118.16-.187l.306-.384c.101-.128.189-.266.286-.399s.179-.27.266-.413q.067-.107.126-.212c.044-.069.078-.143.117-.217q.058-.11.111-.221c.039-.074.078-.148.107-.222.063-.152.131-.3.194-.453q.078-.23.164-.468c.03-.078.049-.157.073-.236l.068-.236c.165-.635.276-1.29.335-1.95.019-.167.024-.33.038-.497l.015-.251.01-.252.014-.502v-1.004q-.001-.252-.01-.502c-.009-.173-.019-.34-.024-.513l-.014-.256a4 4 0 0 0-.025-.256l-.053-.512c-.019-.172-.048-.34-.073-.512-.043-.344-.121-.684-.184-1.024-.034-.172-.077-.34-.116-.512-.044-.167-.078-.34-.126-.507-.092-.34-.18-.675-.286-1.01a43 43 0 0 0-.664-1.994c-.243-.655-.49-1.31-.747-1.95q-.386-.966-.771-1.91c-.256-.63-.499-1.25-.746-1.866-.495-1.231-.989-2.418-1.391-3.565a23 23 0 0 1-.529-1.689 15 15 0 0 1-.344-1.615c-.145-1.02-.155-1.98 0-2.836zm.305-1.093.145-.158c.005-.01.015-.015.02-.02l-.126.188q-.051.072-.102.152.028-.081.063-.162m-.693 3.944c.072.537.169 1.088.305 1.65.141.56.301 1.132.49 1.718.378 1.162.843 2.363 1.304 3.594.227.616.46 1.246.698 1.876s.484 1.27.722 1.916c.242.645.47 1.294.698 1.944.218.655.431 1.31.611 1.975.097.33.174.66.257.994.043.168.072.33.111.498.034.167.073.33.102.497.058.335.121.665.16.995.019.167.048.33.063.497l.044.497c.004.084.014.168.019.246l.01.247.014.492v.497q.001.25-.005.493v.113-.015c-.053-.177-.063-.399-.068-.66 0-.265-.053-.56-.087-.896-.077-.664-.276-1.452-.562-2.314-.325-.862-.747-1.777-1.222-2.733-.644-1.295-1.279-2.496-1.788-3.53-.243-.517-.485-.99-.664-1.413q-.145-.318-.267-.591-.11-.273-.199-.502-.06-.23-.136-.512c-.048-.187-.092-.394-.145-.61-.102-.44-.228-.931-.349-1.473-.242-1.078-.514-2.344-.591-3.688-.02-.492-.034-.975.005-1.433.009-.231.043-.453.067-.674a7 7 0 0 1 .054-.325c.019-.109.029-.217.058-.316.063-.305.15-.6.247-.876-.034.576-.019 1.182.053 1.807zm6.432-10.246s-2.409-.832-3.533.049c0 0 3.078-14.077 3.228-23.984l.31 23.935z"/><path d="m108.28 67.467.204-.044q.1-.024.252-.055a2 2 0 0 1 .349-.059l.446-.049c.165-.005.344 0 .538-.01.097-.005.199.005.301.015l.32.03c.222.02.45.078.698.123q.18.05.368.108.095.031.189.054c.063.02.126.05.189.074l.393.157c.126.07.257.133.392.202.524.29 1.057.68 1.537 1.182a6.1 6.1 0 0 1 1.192 1.851c.088.173.136.37.204.557.073.187.107.394.15.596.024.103.044.201.068.305s.029.212.044.315.024.212.039.32.029.212.024.325c.111 1.733-.427 3.668-1.673 5.22-.155.191-.329.369-.494.56-.179.173-.373.34-.557.513-.204.147-.408.31-.616.453-.112.064-.218.133-.33.197-.111.064-.213.142-.334.192a7.7 7.7 0 0 1-1.469.566c-.267.059-.523.138-.795.187q-.407.061-.814.113a9.2 9.2 0 0 1-3.345-.33 9.2 9.2 0 0 1-3.107-1.6 9.2 9.2 0 0 1-2.351-2.752c-.146-.271-.272-.557-.412-.832-.117-.29-.218-.586-.33-.877a12 12 0 0 1-.087-7.046 12 12 0 0 1 2.341-4.377 11.8 11.8 0 0 1 3.679-2.92c1.358-.69 2.836-1.093 4.261-1.31a15.1 15.1 0 0 1 7.78.946 15.7 15.7 0 0 1 5.134 3.367 15.8 15.8 0 0 1 3 5.402 19.9 19.9 0 0 1 .819 8.011c-.14 1.472-.484 2.984-.998 4.486-.058.187-.136.374-.209.561s-.14.374-.218.561c-.164.365-.315.744-.509 1.108-.354.739-.78 1.448-1.231 2.152a19.03 19.03 0 0 1-7.799 6.755c-.296.148-.601.271-.907.4-.3.132-.615.236-.921.349-.305.118-.625.207-.94.305l-.47.148-.475.123a22 22 0 0 1-3.772.674 17.8 17.8 0 0 1-3.664-.069 18.5 18.5 0 0 1-3.452-.777c-2.21-.714-4.207-1.788-6.015-2.896-1.808-1.117-3.427-2.294-4.891-3.387-1.464-1.098-2.768-2.127-3.917-3.028-1.144-.906-2.133-1.69-2.937-2.33-1.615-1.275-2.516-1.974-2.516-1.974s.824.788 2.312 2.216c.746.714 1.658 1.58 2.729 2.58s2.298 2.132 3.699 3.343c1.4 1.207 2.966 2.507 4.77 3.762 1.803 1.246 3.843 2.487 6.214 3.358 1.182.438 2.438.783 3.756.985 1.314.207 2.681.27 4.058.187a22 22 0 0 0 4.13-.67c.169-.044.344-.083.514-.128l.508-.152c.34-.104.679-.192 1.023-.325.34-.123.689-.237 1.023-.38.339-.137.679-.275 1.008-.438a20 20 0 0 0 4.901-3.254 21 21 0 0 0 1.987-2.068 23 23 0 0 0 1.639-2.27c.48-.788.921-1.586 1.28-2.403.193-.404.344-.822.513-1.231.078-.207.146-.414.219-.62.072-.207.145-.409.203-.62.499-1.66.79-3.315.863-4.915a20.7 20.7 0 0 0-.276-4.55 20.4 20.4 0 0 0-1.101-3.924 15.7 15.7 0 0 0-1.672-3.131 15.5 15.5 0 0 0-1.9-2.27 16 16 0 0 0-2.119-2.058 15.5 15.5 0 0 0-2.971-1.886 15.6 15.6 0 0 0-3.829-1.29 15.7 15.7 0 0 0-4.518-.236c-1.58.157-3.214.517-4.818 1.245a13.2 13.2 0 0 0-4.363 3.225 13.6 13.6 0 0 0-2.84 5.047c-.602 1.91-.762 4.003-.456 6.066q.174 1.138.523 2.216c.136.36.262.719.412 1.074.17.34.33.684.514 1.014a11 11 0 0 0 2.923 3.314 10.9 10.9 0 0 0 3.805 1.831 10.7 10.7 0 0 0 4.014.251l.96-.177c.315-.069.62-.172.925-.26l.228-.07.223-.088c.151-.06.296-.124.446-.183.151-.054.291-.132.432-.206q.212-.11.417-.227c.14-.069.266-.167.397-.251.131-.089.257-.177.388-.261.247-.187.48-.394.712-.586.214-.217.432-.428.635-.65.189-.236.383-.458.558-.699 1.377-1.93 1.842-4.225 1.58-6.174a2.3 2.3 0 0 0-.053-.365l-.068-.354c-.024-.119-.039-.237-.073-.35l-.102-.34c-.067-.221-.126-.443-.223-.655-.092-.211-.164-.423-.276-.615a6.7 6.7 0 0 0-1.498-1.965 6.8 6.8 0 0 0-1.779-1.142c-.15-.06-.295-.123-.436-.177a21 21 0 0 0-.431-.128c-.073-.02-.141-.045-.209-.06l-.606-.113c-.262-.02-.504-.059-.737-.059h-.334c-.107 0-.213 0-.31.015-.199.025-.383.04-.548.064q-.249.053-.446.099c-.136.024-.247.064-.344.093q-.145.052-.247.079a5 5 0 0 1-.199.064z"/><path d="M110.554 67.122c1.745 2.245-1.779 4.293-2.899 2.26-.775-1.408 1.411-3.082 2.7-2.157zm14.828-39.815c.053.232-.063.478-.271.68s-.5.364-.82.458c-.32.093-1.056.162-1.609.463a2.4 2.4 0 0 0-.688.536c-.165.187-.272.34-.33.325-.024 0-.044-.049-.058-.133-.01-.083-.034-.206-.019-.354.014-.3.14-.714.397-1.103.252-.39.621-.724.97-.95.344-.227.664-.375.862-.434.403-.118.776-.098 1.052 0 .277.104.456.28.509.512zm-.64 4.215c-.101.119-.276.153-.465.119a1.3 1.3 0 0 1-.567-.266c-.18-.138-.504-.512-.882-.7a1.6 1.6 0 0 0-.558-.162c-.165-.015-.286-.015-.3-.05-.01-.024.063-.122.227-.23.165-.109.437-.207.742-.217.305-.015.63.054.887.152.257.099.461.217.572.3.223.173.359.385.417.577.053.192.034.36-.068.482zm-3.906 65.34c.193.246-.107.886-.839 1.674-.732.778-1.91 1.713-3.427 2.388a12.3 12.3 0 0 1-3.602.955c-.775.089-1.609.103-2.443.035a12.5 12.5 0 0 1-2.443-.458c-1.561-.453-2.884-1.177-3.786-1.773-.901-.606-1.405-1.073-1.372-1.133.039-.063.655.227 1.634.596.979.365 2.336.793 3.796.965.727.084 1.478.109 2.205.064a12 12 0 0 0 2.08-.31c.649-.152 1.236-.35 1.745-.541.509-.202.935-.385 1.265-.537 1.313-.581 2.491-1.202 3.412-1.6.917-.404 1.576-.581 1.775-.325"/></g><defs><clipPath id="a"><path fill="#fff" d="M0 0h128v128H0z"/></clipPath></defs></svg>