<svg xmlns="http://www.w3.org/2000/svg" width="367" height="442" fill="none" viewBox="0 0 367 442"><g filter="url(#a)"><path fill="#f4f1eb" d="M327.198 34.18C320.49 16.446 304.768 4 286.441 4H80.559c-18.327 0-34.05 12.447-40.757 30.18C21.452 39.961 8 58.778 8 81.11v271.78c0 22.332 13.451 41.149 31.802 46.932C46.51 417.553 62.232 430 80.559 430H286.44c18.327 0 34.049-12.447 40.757-30.179 18.351-5.783 31.802-24.6 31.802-46.932V81.111c0-22.332-13.451-41.15-31.802-46.932"/><path stroke="#e1beb6" d="M87.598 16.5h191.804c16.83 0 31.312 11.58 37.502 28.154l.085.228.232.073c16.862 5.382 29.279 22.926 29.279 43.812v256.466c0 20.886-12.417 38.43-29.279 43.812l-.232.073-.085.228c-6.19 16.574-20.672 28.154-37.502 28.154H87.598c-16.83 0-31.312-11.58-37.502-28.154l-.085-.228-.232-.073-.787-.262c-16.46-5.67-28.492-22.991-28.492-43.55V88.767c0-20.886 12.417-38.43 29.28-43.812l.23-.073.086-.228C56.286 28.08 70.769 16.5 87.598 16.5Z"/></g><defs><filter id="a" width="367" height="442" x="0" y="0" color-interpolation-filters="sRGB" filterUnits="userSpaceOnUse"><feFlood flood-opacity="0" result="BackgroundImageFix"/><feColorMatrix in="SourceAlpha" result="hardAlpha" values="0 0 0 0 0 0 0 0 0 0 0 0 0 0 0 0 0 0 127 0"/><feOffset dy="4"/><feGaussianBlur stdDeviation="4"/><feComposite in2="hardAlpha" operator="out"/><feColorMatrix values="0 0 0 0 0.741176 0 0 0 0 0.568627 0 0 0 0 0.552941 0 0 0 0.5 0"/><feBlend in2="BackgroundImageFix" result="effect1_dropShadow_3478_3057"/><feBlend in="SourceGraphic" in2="effect1_dropShadow_3478_3057" result="shape"/></filter></defs></svg>