<svg xmlns="http://www.w3.org/2000/svg" width="198" height="48" fill="none" viewBox="0 0 198 48"><g fill="#b89668" clip-path="url(#a)"><path d="M189.379 28.374c-.78 1.677-2.361 3.133-3.979 4.014-.401.217-1.25.652-1.664.748a.52.52 0 0 1-.626-.462c2.759-1.175 5.353-3.36 5.852-6.451l-3.09.318-.807-.567a11.1 11.1 0 0 1-3.4 5.337c-.237.204-1.364 1.082-1.603 1.021-.14-.034-.337-.284-.313-.44.022-.215 1.045-.897 1.292-1.12 2.698-2.437 4.258-7.024 3.404-10.594-.101-.425-.489-.643-.462-1.07l2.114.497 6.971.005.645-.738c.345.117 1.716.992 1.626 1.337-.056.213-.835.563-1.058.648-.265.811.711 2.528-.361 2.825-.708.196-.684-.053-.65-.69h-7.714l-.244 2.313 4.475.17c.011-.523.035-1.013-.201-1.494-.12-.24-.52-.47-.242-.745l1.984.496c.183.398-.217.433-.382.624-.217.254-.238.787-.246 1.119h4.894c.135-.316.57-1.053.934-.982.244.05 1.477 1.282 1.472 1.523l-.125.202h-7.756c.029.17.464.138.414.371-.019.088-.876.597-.664 1.035h3.194c.199 0 .223-1.011 1.12-.29.798.642 1.488 1.383-.077 1.539-.178 1.486-.693 3.815-2.282 4.382-.249.09-.83.207-1.079.16-.21-.04-.427-.372-.65-.512-.531-.332-1.165-.507-1.722-.778.011-.17.09-.44.292-.445.812.244 1.711.522 2.57.406 1.404-.191 1.788-2.576 1.791-3.717h-3.65zm3.899-8.024h-7.507c-.093.072-.207.525-.207.62v1.282h7.714zm-29.779-.374c-.57.056-1.568.353-2.098.23-.385-.087-.778-.747-1.054-1.018-.087-.387 1.07-.053 1.287-.04.578.035 1.18-.08 1.74.082l.093-.167-.217-1.236-3.104.326c-.451-.069-.897-.803-1.207-1.111-.008-.268 1.263.03 1.451.04.44.026.889-.021 1.329 0 .772.032 1.576.188 2.361.045.249-.114 1.591-2.27 1.647-2.584.029-.172-.17-.679.22-.65.213.016 1.43.746 1.435.987l-.084.204c-.754-.005-.926.565-1.348 1.011-.318.334-.777.66-.955 1.074h1.868l.705-.955c.181-.116.361.064.499.168.17.13 1.133 1.119 1.151 1.252l-.117.196h-4.52c.385.382-.31.828-.087 1.366l1.191.024c.302-.16.544-.94.91-.883.244.037 1.291 1.13 1.352 1.392l-.087.17h-3.319l-.124.125v1.28h2.53l.815-.98 1.459 1.445-.117.196h-4.563c-.119.072-.114.165-.13.287-.087.743.16 1.53.088 2.279.13.023.191-.014.294-.08.213-.138 1.133-1.204 1.218-1.433.085-.228.013-.644.289-.71.255-.061 1.135.657 1.398.817l-.064.315c-.578-.026-1.196.46-1.586.857-.071.072-.18.07-.14.234h2.363l.923-1.067c.226-.04 1.491 1.29 1.512 1.533l-.127.18-7.788.011-3.714.319c-.138-.043-.945-.9-1.013-1.059-.064-.146-.03-.156.087-.241 1.183.324 2.411.16 3.602.324.122-.112-1.177-1.558-1.313-1.709.011-.172.178-.437.358-.443.231-.005 1.733 1.12 1.873 1.358.205.348-.029.473-.087.79.297-.036.692.112.912-.124v-2.358c-.398.016-.804-.024-1.201 0-.626.04-1.86.353-2.406.244-.295-.058-.9-.862-1.12-1.114 0-.255 1.181.03 1.369.04 1.114.074 2.244.08 3.358.085v-1.324zm-38.132-2.17h2.114c.347-.27.429-.801.875-.96.218.053 1.451 1.254 1.324 1.62h-2.488l.169.29c-.549.642-.273 1.493-.337 2.276.229-.035.64.071.831-.043.148-.087.483-.833.788-.93.644.328 1.13.917 1.514 1.511-.005.045-.172.207-.185.207h-2.945v2.398c1.082.257.96-.57 1.685-.981.161.024.83.695.968.86.188.227.467.485.416.782h-3.069v2.73c.754.052 1.852-.51 2.533-.486.252.008.589.36.369.525a80 80 0 0 1-3.382 1.01c-.83.229-2.318.436-3.003.728-.435.185-.475 1.06-.979.769-.055-.032-.732-.875-.796-.982-.169-.289-.392-.602.008-.803l2.011-.186c-.061-.432.085-.865.09-1.273.008-.624-.037-2.42-.233-2.918-.141-.35-.61-.534-.297-.857l2.101.586c.069.358-.332.425-.499.618-.273.319-.154 1.133-.164 1.573-.003.14-.085.284-.085.42 0 .511.175 1.14.085 1.692l1.238-.17.006-6.035-2.595.316c-.307-.04-1.071-.825-1.138-1.101-.095-.411.658-.072.881-.05.944.087 1.905.095 2.852.092.087-.085-.088-2.25-.183-2.424-.032-.059-.043-.117-.12-.13-1.026-.226-1.045.329-1.565.899-.124.138-.841.875-.931.897-.204.053-.477-.194-.583-.361 1.305-1.536 2.536-3.24 2.795-5.3.168-.122 1.385.583 1.505.745.397.539-.459.393-.672.666zM67.519 32.128c.17.96.053 1.637-1.109 1.477l-.14-.196.254-2.642c.045-1.069.136-5.674-.265-6.361-.117-.199-.459-.337-.278-.634.06-.103.424.016.54.042.406.096.87.33 1.284.374 1.868.202 4.075-.153 5.98.006.448-.016.374-.762.888-.655.22.045 1.478.96 1.46 1.172-.032.387-1.046.671-1.07.775.027.848-.02 1.703 0 2.554.04 1.507.27 3.056.334 4.547.008.172.032.4-.015.562-.125.422-1.226.624-1.226.348V32.13H67.52zm2.573-7.197h-2.406c.035.125-.167.332-.167.371v2.441h2.82c0-.94.018-1.913-.25-2.812zm4.064 2.812v-2.687l-.125-.125h-2.613c.356.358-.037.464-.084.868-.043.363-.125 1.331-.085 1.66.013.12.01.212.127.284zm-3.815.663h-2.695l-.124.125v2.854h2.82zm3.815 0h-2.78c-.12.072-.114.165-.127.287-.098.843.074 1.84.087 2.692h2.82zm78.231-3.162c-.202 1.862-.892 4.022-2.075 5.5-.153.193-.912 1-1.079 1.082s-.486-.16-.499-.34 1.154-1.578 1.366-1.947c1.711-2.98 1.634-7.733 1.456-11.118-.029-.551-.058-1.278-.313-1.756-.137-.257-.517-.374-.214-.692 1.103.199 2.334.716 3.472.501.305-.058.326-.674.663-.803.631.291 1.162.753 1.613 1.27.037.212-.615.59-.809.624.04.376-.077.756-.096 1.103-.217 3.96.144 8.094.146 12.057-.127.522-.501 1.063-1.053 1.183-.886.188-.825-.353-1.472-.693-.475-.249-1.947-.329-1.215-1 .589.03 2.234.595 2.536-.111.045-.539.127-1.138.149-1.671.034-.796.09-2.149 0-2.905-.014-.12-.011-.212-.128-.287h-2.446zm2.406-8.024h-1.95c-.034 0-.17.162-.191.225-.013.04-.101.533-.101.563v2.44h2.324l-.082-3.226zm.082 3.97h-2.324l-.082 3.394h2.364c.119-.072.114-.165.127-.287.117-.997-.175-2.098-.088-3.106zm-57.799 5.89c.323.32 0 .4-.075.71-.117.468-.09.964-.09 1.441h2.53c.16-.18.736-1.074.958-1.04.345.143 1.579 1.29 1.573 1.584l-.124.202h-4.937v1.777c0 .045.127.183.082.289h5.6c.223-.244.716-1.175 1.067-1.14.307.029 1.257 1.063 1.461 1.35.127.177.337.35.114.54l-13.096-.007-3.451.292c-.295-.048-1.144-.924-1.149-1.157l.122-.188c2.735.522 5.563.238 8.34.313v-2.07c-.591-.005-1.194.03-1.782.083-.438.04-1.672.326-1.98.154-.135-.077-.941-.931-.965-1.027l.13-.199c1.515.295 3.061.244 4.597.244-.026-.721-.05-1.454-.257-2.143-.637.034-1.305.026-1.94.074-.596.045-1.901.337-2.403.244-.31-.058-.822-.647-.994-.912-.075-.114-.226-.358 0-.404.077-.016 1.31.223 1.573.242.634.042 1.278-.072 1.904.087 1.884-.19 4.237.242 6.064 0 .467-.06.809-1.045 1.237-1 .225.024 1.509 1.255 1.527 1.465l-.114.193h-5.514zm2.517-10.359c.22-.064.355-.783.74-.748.21.018 1.377.955 1.419 1.154.088.408-.812.538-.875.875.061.796.037 1.605.085 2.398.032.528.371 1.969.058 2.335-.143.167-.782.371-.976.236l-.077-.709h-6.345l-.17.08c-.056.57-.22.836-.825.838-.207 0-.435.038-.459-.215.164-1.618.366-3.337.255-4.965-.032-.467-.117-.918-.319-1.337-.095-.202-.35-.3-.265-.602.663-.083 2.117.915 2.653.618.236-.13 1.39-2.327 1.17-2.762.15-.257 1.382.53 1.562.7.501.473-.239.478-.493.573-.316.117-1.035 1.223-1.327 1.534h4.189zm.374 2.4V17.51l-.125-.125h-6.22c-.027 0-.125.109-.207.082v1.656zm0 .744h-6.552v1.737h6.552zm35.217-1.642c-.44.127-.27 1.925-.286 2.36a99 99 0 0 0 .161 10.99c-.061.677-1.358.635-1.411.409l.255-4.616c.024-2.292-.003-4.586-.09-6.865-.029-.764.095-1.735-.098-2.464-.075-.281-.825-1.112-.21-1.04.507.058 1.218.488 1.684.56.29.045 1.966.04 2.139-.072.127-.082.201-.576.509-.584.278-.005 1.52.884 1.446 1.18-.072.287-.621.38-.717.494-.172.207-.119 2.998-.108 3.5-.038 1.169.336 3.007.148 4.11-.077.46-.438 1.022-.889 1.181-.848.297-.883-.31-1.506-.655-.348-.194-.764-.276-1.141-.392-.053-.168-.005-.507.194-.536.48.077 1.96.512 2.164-.112.098-1.34.138-2.676.125-4.021 0-.236-.085-.435-.09-.655-.027-.921.09-1.873-.08-2.775h-2.199zM55.08 28.833c-.103.478-1.058.767-1.381.337l.307-3.642c-.087-1.594.138-3.377-.106-4.947-.058-.366-.292-.762-.56-1.016-.02-.09.059-.167.136-.194.45-.143 1.485.49 1.984.56.591.082 1.297-.05 1.904.013l.454-.629c.337-.252 1.488 1.006 1.541 1.2.13.469-.697.554-.718.63l.238 6.76c-.103.337-1.045.626-1.31.262v-1.366H55.08c-.085.581.116 1.491 0 2.027zm2.491-8.146h-2.366l-.124.207-.083 5.17h2.656zm12.076-2.401.15 2.255c-.105.541-1.214.716-1.3.342-.03-.146.139-.918.152-1.151.024-.454-.016-.913 0-1.364l-2.358.247c-.18-.03-.414-.241-.547-.369-.143-.135-.835-.86-.445-.944.08-.016 1.23.223 1.488.239.645.04 1.302-.027 1.95 0-.072-.971.042-1.817-.398-2.706-.064-.127-.374-.363-.178-.517.093-.072 2.01.326 2.114.488.191.302-.626.613-.626 1.037v1.777h2.488v-1.862c0-.037-.119-.438-.148-.514-.07-.186-.647-.863-.31-.913l2.119.475c.162.236-.663.732-.663.95v1.862h1.7c.348-.382.573-.908 1.064-1.146.212.018 1.045.82 1.215 1.024.074.09.644.782.292.782h-4.271l.069 2.51c-.305.376-.799.307-1.231.302l.167-2.812h-2.488zm92.324 13.972c.156.942-.186 1.552-1.207 1.244.042-.472.178-.982.212-1.451.064-.878.138-2.55-.26-3.295-.071-.132-.451-.374-.231-.546.242-.186 1.608.517 1.947.567.6.09 2.958.093 3.566.008.456-.06.403-.49.618-.628.297-.186 1.353.796 1.552 1.077.039.27-.748.435-.807.745-.04.215-.008.666 0 .91.019.435.313 1.86.234 2.133-.12.4-.783.552-1.146.472v-1.241h-4.481zm4.48-.746v-1.944l-.124-.125h-4.147c-.015 0-.206.191-.206.207v1.863h4.48zm-49.181-8.448 1.242.456c-.104.326-.528.395-.624.7-.058.186-.106.947-.119 1.204-.119 2.216.109 4.486.162 6.699-.032.48-1.316.652-1.321.257.061-.467.14-1.035.162-1.499.079-1.86.103-3.682 0-5.539-.03-.509.1-1.053-.122-1.533-.104-.146-.12-.027-.207.043-.398.313-.764.679-1.17.984-.509.382-1.547 1.392-1.899.424.453-.374.97-.687 1.411-1.077.774-.684 2.668-2.62 2.857-3.586.032-.162-.141-.422.13-.555.225-.111 1.628.785 1.639.913.027.297-.446.292-.61.369-.475.217-1.093 1.355-1.528 1.742zm79.91-7.29c-.183.016-.353.074-.536.088-3.626.252-7.544-.184-11.205-.008-.971.047-2.042.36-2.987.172-.114-.066-.904-.942-.923-1.037 0-.013.045-.22.112-.212.952.265 1.926.201 2.894.249 3.249.154 6.523.066 9.783.085.318-.064.828-1.17 1.146-1.144.268.024 1.594 1.303 1.682 1.552a.5.5 0 0 1 .034.252zm-78.554-1.084c.233-.051 1.448.678 1.507.87.026.09.034.203-.024.28-.886.11-1.268 1.096-1.831 1.733a14.5 14.5 0 0 1-1.663 1.567c-.273.22-1.39 1.072-1.658 1.072-.156 0-.575-.292-.538-.446 1.286-.928 3.478-2.78 3.976-4.308.09-.278-.034-.71.228-.769z"/><path d="M163.135 15.538c.454.533-.143 1.38-.554 1.263-.231-.067-.663-.817-.867-1.045-.271-.3-1.55-1.223-.786-1.534.056-.045.104-.018.165-.005.342.082 1.806 1.04 2.045 1.32z"/></g><g clip-path="url(#b)"><path fill="#343a40" d="m32.946 41.791 2.024-1.978c-.162-1.299.045-2.914-.014-4.261-.25-5.69-3.187-14.106-9.105-15.982-.934-.297-1.914-.4-2.764-.934-.417-.262-1.593-1.168-1.731-1.287a14.1 14.1 0 0 1-3.516 3c-3.437 2.038-8.102.797-8.102.797-.23 1.185.075 2.372.542 3.456.893 2.081 2.497 3.834 4.145 5.332.063-.836-.33-1.63-.552-2.409-.018-.067-.087-.227.039-.21.308.72.601 1.447.773 2.219.517 2.314.345 5.176.114 7.54-.064.669-.596 4.784-.904 5.053-.957.36-2.61.961-2.77 2.139-.018.134.026.689.063.8.05.157.926.243 1.115.254 1.411.084 2.843-.017 3.511-1.427l1.794-.332c-.055.153-.1.315-.127.496-.298 1.938 2.303.583 3.096.369 1.897-.514 4.182.058 6.14.136 1.448.058 5.347.117 6.128-1.336.378-.704.11-1.1-.148-1.772q.138.175.247.341zm-7.252.274 1.515-.28 1.185.493zM15.43 16.946c1.71.522 3.802.543 5.542.036-.404-1.109-.854-2.456-.882-3.944-1.72-.327-4.36-.753-4.848-2.762l.342.585c1.284 1.461 3.316 1.437 5.08 1.7.926.137 2.474.68 3.327.236.28-.147.436-.466.642-.592.144-.088.321-.07.445-.172.205-.17.326-.818.244-1.071-.041-.129-.194-.192-.174-.341h.614l-.103.551c.255-.212.59-.85.476-1.168-.19-.527-1.23-1.056-1.565-1.526-.383-.54-.477-1.369-.845-1.974-.638-1.053-2.375-1.916-3.55-2.141-.855-.164-1.128.186-1.502-.76-.371-.94-.273-1.724-.36-2.672-.12-1.33-1.019-1.06-1.705-.276-.604.69-1.98 3.454-2.05 4.345-.043.537.083.973.203 1.481l-.476-1.103c-.209.354-.482.624-.696.988-1.312 2.224-1.537 5.274-2.074 7.769 1.081 1.192 2.345 2.329 3.916 2.81zm6.435-10.359c.858.293.788.941 1.16 1.586.165.283.434.456.617.72-.203.03-.518-.252-.66-.262-.087-.005-.262.15-.414.18-.906.174-1.657-.305-2.068-1.087.778.095 1.452.624 2.255.55-.526-.86-.855-1.348-1.95-1.314-.462.015-.866.222-1.304.27-.075.008-.31.07-.299-.06.875-.434 1.633-.937 2.661-.585zm-4.812-3.482.442-.967v1.07c0 .126.27.58.277.829.011.36-.308.74-.208 1.134l-.511-.827c-.185-.397-.102-.836 0-1.239"/><path fill="#343a40" d="M13.484 41.914c.288-.236.828-4.216.898-4.851.146-1.321.238-2.663.244-3.991.002-.466.026-2.217-.137-2.514-.834-.689-1.515-1.53-2.214-2.349.39 2.743.581 5.535.48 8.313-.045 1.236-.159 2.978-.445 4.172-.327 1.371-1.212 1.18-2.201 1.777-1.75 1.057-1.4 3.402.841 2.635 0 0-.321-1.14.393-1.832.556-.536 1.417-1.125 2.143-1.36zM19.176 4.06c.29.184 1.338.059 1.702.351.068-.052.075-.056.075-.141-.005-.29-.101-.643-.112-.924-.02-.567.118-2.728-.593-2.924-.378-.104-.795.636-.976.92-.27.424-.655 1.005-.607 1.512.026.277.279 1.06.513 1.207z"/><path fill="#b89668" d="M24.076 33.33H23.04v1.933h1.035z"/><path fill="#b89668" d="M25.152 33.6v-.003a.52.52 0 0 0-.517-.521H22.48a.52.52 0 0 0-.516.521v.002a.52.52 0 0 0 .517.522h2.153a.52.52 0 0 0 .517-.522m8.644 11.764H13.362c0-5.697 4.574-10.316 10.217-10.316s10.218 4.619 10.218 10.316z"/><path fill="#343a40" d="M34.969 39.81c.227 1.814 2.452 2.788.732 4.983-1.349 1.72-4.01 2.513-6.11 2.591-3.133.118-6.656-1.054-9.652-.089-.465.15-1.656.805-2.017.693-.52-.158.245-1.377.463-1.641 2.329-2.823 8.13-.882 11.411-1.1 2.056-.136 3.628-.96 3.29-3.638"/><path fill="#b89668" d="M17.842 20.347A14.1 14.1 0 0 0 21.31 17.4l.042-.06a1.3 1.3 0 0 1-.378-.361c-1.739.507-3.822.21-5.53-.313-1.57-.479-2.84-1.336-3.922-2.527-.125.932-1.733 6.63-1.783 7.004 0 0 4.667 1.24 8.103-.797"/><path fill="#b89668" d="M15.591 15.91c1.925.671 3.704.679 5.173.476q-.075-.224-.15-.455c-1.355.095-3.198.043-4.93-.578-1.484-.53-2.88-1.53-3.889-2.668l-.11.613c.946 1.282 2.295 2.052 3.908 2.613zm6.817 2.244c-.178-.13-.359-.269-.523-.393-.489.637-2.48 3.042-5.31 3.959-2.436.79-5.706.453-6.915.272q.002.375.06.743c1.795.222 4.262.397 7.294-.453 2.782-.778 4.871-3.454 5.393-4.13z"/></g><defs><clipPath id="a"><path fill="#fff" d="M53 13.5h145v21H53z"/></clipPath><clipPath id="b"><path fill="#fff" d="M0 0h45v48H0z"/></clipPath></defs></svg>