<svg xmlns="http://www.w3.org/2000/svg" width="147" height="23" fill="none" viewBox="0 0 147 23"><g fill="#ede2cc" clip-path="url(#a)"><path d="M138.26 16.29c-.79 1.837-2.393 3.432-4.034 4.397-.406.238-1.266.714-1.686.819-.312.078-.608-.174-.635-.506 2.797-1.287 5.427-3.68 5.933-7.065l-3.133.348-.818-.621c-.591 2.251-1.804 4.317-3.447 5.845-.24.224-1.383 1.185-1.625 1.119-.142-.038-.341-.311-.317-.483.022-.235 1.06-.982 1.31-1.226 2.735-2.67 4.316-7.693 3.45-11.604-.102-.464-.495-.703-.468-1.17l2.144.543 7.067.006.654-.808c.349.128 1.739 1.087 1.648 1.464-.056.233-.847.616-1.073.71-.269.888.721 2.768-.366 3.093-.718.215-.694-.058-.659-.755h-7.82l-.247 2.534 4.536.185c.011-.572.035-1.11-.204-1.635-.121-.265-.527-.514-.245-.817l2.012.544c.185.435-.221.473-.387.682-.221.28-.242.863-.251 1.226h4.962c.137-.345.578-1.153.947-1.075.247.056 1.498 1.404 1.492 1.668l-.126.22h-7.863c.029.187.47.152.419.408-.019.095-.887.653-.672 1.133h3.238c.201 0 .226-1.107 1.135-.317.809.703 1.508 1.514-.078 1.685-.181 1.627-.702 4.178-2.313 4.8-.253.098-.842.226-1.095.174-.212-.044-.433-.407-.659-.56-.538-.364-1.18-.556-1.745-.852.011-.186.091-.482.296-.488.823.267 1.734.572 2.606.444 1.422-.209 1.812-2.82 1.815-4.07h-3.7zm3.953-8.788h-7.61c-.094.079-.21.576-.21.68v1.403h7.82zm-30.19-.409c-.578.06-1.589.386-2.127.252-.39-.095-.788-.819-1.068-1.115-.088-.424 1.084-.058 1.305-.044.586.038 1.196-.087 1.764.09l.094-.183-.221-1.354-3.146.358c-.457-.076-.909-.88-1.224-1.218-.008-.293 1.28.032 1.471.044.447.029.901-.023 1.348 0 .782.035 1.597.206 2.393.05.253-.126 1.614-2.488 1.67-2.83.03-.19-.172-.744.223-.712.216.017 1.45.816 1.455 1.08l-.086.224c-.763-.006-.938.62-1.366 1.107-.323.366-.788.724-.968 1.177h1.893l.716-1.046c.183-.128.365.07.505.183.172.142 1.149 1.226 1.167 1.371l-.118.215h-4.582c.389.419-.315.907-.089 1.497l1.207.026c.307-.175.552-1.029.923-.968.247.04 1.309 1.238 1.371 1.526l-.089.185h-3.364l-.126.137v1.403h2.565l.826-1.075 1.479 1.584-.118.215h-4.626c-.121.078-.115.18-.132.313-.088.814.162 1.677.089 2.496.132.026.194-.014.299-.087.215-.151 1.148-1.319 1.234-1.569s.013-.706.293-.779c.258-.066 1.151.721 1.417.895l-.064.346c-.586-.029-1.213.503-1.608.938-.073.079-.183.076-.143.256h2.396l.936-1.168c.229-.043 1.512 1.412 1.533 1.68l-.129.197-7.896.012-3.765.348c-.14-.046-.957-.985-1.027-1.159-.065-.16-.03-.171.089-.264 1.199.354 2.444.174 3.652.354.123-.122-1.194-1.705-1.331-1.87.01-.19.18-.48.363-.486.234-.006 1.756 1.226 1.898 1.488.207.38-.029.517-.089.865.302-.04.702.122.926-.136V9.359c-.404.017-.815-.026-1.219 0-.634.043-1.885.386-2.439.267-.298-.064-.912-.944-1.135-1.22 0-.279 1.197.032 1.388.043 1.129.082 2.275.088 3.405.093v-1.45zM73.365 4.716h2.143c.352-.296.436-.877.888-1.052.22.059 1.47 1.375 1.341 1.776h-2.522l.172.316c-.557.703-.277 1.636-.341 2.493.23-.038.648.078.841-.046.15-.096.49-.913.799-1.02.653.36 1.146 1.005 1.536 1.656-.006.05-.175.226-.189.226h-2.985v2.627c1.097.282.974-.625 1.708-1.075.164.026.842.761.981.941.191.25.474.532.423.857h-3.112v2.99c.764.058 1.877-.558 2.569-.532.255.009.596.395.373.575q-1.704.596-3.429 1.107c-.841.25-2.35.477-3.044.796-.44.204-.481 1.163-.992.843-.057-.035-.742-.959-.807-1.075-.172-.317-.398-.66.008-.88l2.039-.204c-.062-.473.086-.947.091-1.394.008-.683-.038-2.65-.237-3.196-.142-.384-.618-.584-.3-.938l2.13.642c.069.392-.337.464-.507.677-.276.348-.155 1.24-.166 1.722-.003.154-.086.311-.086.46 0 .56.177 1.249.086 1.853l1.256-.186.005-6.61-2.63.346c-.312-.043-1.087-.903-1.154-1.206-.097-.45.667-.078.893-.055.957.096 1.931.105 2.891.102.089-.093-.089-2.464-.186-2.656-.032-.063-.043-.127-.12-.142-1.041-.247-1.06.36-1.587.985-.127.151-.853.959-.944.982-.207.058-.484-.212-.592-.395 1.323-1.682 2.571-3.548 2.835-5.805.17-.134 1.404.64 1.525.816.403.59-.466.43-.68.73zM14.72 20.402c.172 1.052.053 1.793-1.125 1.618l-.142-.215.258-2.893c.046-1.171.137-6.215-.269-6.967-.118-.218-.465-.37-.282-.695.062-.113.43.018.548.047.412.104.882.36 1.302.41 1.893.22 4.13-.169 6.062.005.454-.017.379-.833.9-.717.224.05 1.498 1.052 1.48 1.284-.033.424-1.06.735-1.084.848.027.93-.022 1.865 0 2.798.04 1.65.274 3.347.339 4.98.008.189.032.438-.017.616-.126.462-1.242.682-1.242.38v-1.496h-6.729zm2.608-7.882h-2.44c.036.137-.169.363-.169.407V15.6h2.86c0-1.029.018-2.095-.254-3.08zm4.12 3.08v-2.943l-.126-.137h-2.65c.361.392-.037.508-.085.95-.043.398-.127 1.458-.086 1.819.013.13.01.232.129.31zm-3.867.726h-2.732l-.127.137v3.126h2.859zm3.867 0H18.63c-.121.078-.116.18-.13.314-.099.924.076 2.016.09 2.949h2.858zm79.31-3.463c-.204 2.04-.904 4.404-2.103 6.023-.156.212-.925 1.095-1.095 1.185s-.492-.174-.505-.372 1.17-1.729 1.385-2.133c1.734-3.262 1.656-8.469 1.476-12.176-.03-.604-.059-1.4-.317-1.923-.14-.282-.525-.41-.218-.758 1.119.218 2.367.784 3.52.549.31-.064.331-.738.673-.88.64.319 1.178.825 1.635 1.391.037.233-.624.645-.821.683.041.412-.078.828-.096 1.208-.221 4.338.145 8.865.148 13.205-.13.573-.509 1.165-1.068 1.296-.898.206-.836-.386-1.493-.758-.481-.273-1.974-.36-1.231-1.096.597.032 2.264.651 2.571-.122.045-.59.129-1.246.15-1.83.035-.872.092-2.353 0-3.181-.013-.131-.011-.233-.129-.314h-2.479zm2.439-8.789h-1.976c-.035 0-.173.177-.194.247-.014.044-.102.584-.102.616V7.61h2.355l-.083-3.533zm.083 4.35h-2.355l-.084 3.715h2.396c.121-.078.116-.18.13-.313.118-1.093-.178-2.299-.089-3.403zm-58.596 6.449c.328.352 0 .439-.076.779-.118.511-.091 1.054-.091 1.577h2.566c.16-.197.744-1.176.97-1.139.35.157 1.6 1.412 1.595 1.735l-.126.22h-5.005v1.947c0 .05.129.2.083.317h5.677c.226-.267.726-1.287 1.081-1.25.312.033 1.275 1.166 1.482 1.48.13.194.342.383.116.592l-13.277-.009-3.499.32c-.298-.052-1.159-1.011-1.164-1.267l.123-.206c2.773.572 5.64.262 8.455.343v-2.266c-.6-.006-1.21.032-1.807.09-.444.043-1.694.357-2.006.168-.137-.084-.955-1.02-.979-1.124l.132-.218c1.535.323 3.103.267 4.66.267-.026-.79-.05-1.592-.26-2.347-.646.038-1.324.029-1.966.081-.605.05-1.928.37-2.437.268-.314-.064-.833-.71-1.008-1-.076-.125-.229-.392 0-.442.078-.017 1.328.245 1.594.265.643.046 1.297-.079 1.931.096 1.91-.21 4.295.264 6.148 0 .473-.067.82-1.145 1.253-1.096.229.027 1.53 1.375 1.55 1.604l-.116.212h-5.591zm2.552-11.345c.223-.07.36-.857.75-.82.212.02 1.396 1.047 1.439 1.264.088.448-.823.59-.888.96.062.87.038 1.757.086 2.626.032.578.377 2.155.06 2.556-.146.183-.794.407-.99.259l-.078-.776h-6.433l-.172.087c-.057.625-.223.916-.837.918-.21 0-.44.041-.465-.235.167-1.772.371-3.655.258-5.439-.032-.511-.118-1.005-.322-1.464-.097-.22-.355-.328-.27-.66.673-.09 2.147 1.003 2.69.677.24-.142 1.41-2.548 1.186-3.024.153-.282 1.401.581 1.584.767.508.517-.242.523-.5.628-.32.127-1.05 1.339-1.345 1.679h4.247zm.379 2.63V4.39l-.127-.137h-6.306c-.027 0-.127.12-.21.09v1.813zm0 .813h-6.643v1.903h6.643zm35.703-1.799c-.447.14-.275 2.11-.29 2.586a117 117 0 0 0 .163 12.037c-.061.74-1.377.694-1.43.447l.258-5.055a167 167 0 0 0-.092-7.52c-.03-.836.097-1.9-.1-2.698-.074-.308-.835-1.217-.212-1.139.514.064 1.235.535 1.708.613.293.05 1.993.044 2.168-.078.129-.09.204-.63.516-.64.282-.005 1.541.968 1.466 1.293-.073.314-.63.416-.726.54-.175.227-.121 3.284-.11 3.833-.038 1.281.34 3.294.15 4.503-.078.503-.444 1.119-.9 1.293-.862.325-.897-.34-1.528-.718-.353-.212-.775-.302-1.157-.43-.054-.183-.005-.555.197-.587.486.085 1.987.561 2.194-.122.1-1.467.14-2.931.126-4.404 0-.259-.086-.477-.091-.718-.027-1.008.091-2.05-.08-3.039h-2.23zM2.11 16.794c-.105.523-1.074.84-1.402.369l.312-3.99c-.088-1.745.14-3.698-.107-5.418-.06-.4-.296-.834-.568-1.112-.021-.1.06-.184.137-.213.458-.156 1.506.538 2.012.613.6.09 1.315-.055 1.931.015l.46-.689c.341-.276 1.509 1.102 1.562 1.314.132.514-.707.607-.728.691l.242 7.403c-.105.369-1.06.685-1.329.287v-1.496H2.11c-.087.636.118 1.633 0 2.22zM4.635 7.87h-2.4l-.125.227-.084 5.663h2.692zm12.242-2.628.153 2.47c-.108.592-1.232.784-1.318.374-.032-.16.14-1.005.153-1.26.025-.497-.016-1 0-1.494l-2.39.27c-.183-.032-.42-.264-.554-.404-.146-.148-.848-.941-.452-1.034.08-.017 1.248.244 1.509.262.653.043 1.32-.03 1.976 0-.072-1.064.043-1.99-.403-2.964-.065-.14-.38-.398-.18-.566.094-.079 2.038.357 2.143.534.194.331-.635.671-.635 1.136v1.947h2.523v-2.04c0-.04-.121-.48-.15-.563-.07-.204-.657-.945-.315-1l2.148.52c.164.259-.672.802-.672 1.04v2.04h1.724c.352-.419.58-.994 1.078-1.255.215.02 1.06.897 1.232 1.121.075.099.654.857.296.857h-4.33l.07 2.749c-.31.412-.81.337-1.248.33l.17-3.079h-2.523zm93.597 15.302c.159 1.032-.188 1.7-1.223 1.363.043-.517.18-1.075.215-1.59.064-.96.14-2.791-.264-3.608-.072-.145-.457-.41-.234-.598.245-.203 1.63.566 1.974.622.608.098 2.999.101 3.615.008.462-.067.408-.537.626-.688.301-.204 1.372.871 1.573 1.18.041.296-.758.476-.817.816-.04.235-.008.729 0 .996.019.477.317 2.037.237 2.336-.121.439-.794.604-1.162.517v-1.36h-4.542zm4.542-.816v-2.13l-.126-.136h-4.203c-.016 0-.21.209-.21.227v2.039h4.542zm-49.859-9.254 1.259.5c-.105.357-.535.433-.632.767-.06.204-.108 1.037-.121 1.32-.121 2.425.11 4.912.164 7.335-.032.526-1.334.715-1.34.282.062-.511.143-1.133.165-1.642.08-2.036.104-4.032 0-6.066-.03-.558.102-1.153-.124-1.68-.105-.159-.121-.028-.21.047-.403.343-.774.744-1.186 1.078-.516.419-1.568 1.526-1.925.465.46-.41.984-.752 1.43-1.18.785-.75 2.706-2.87 2.897-3.928.032-.177-.143-.461.131-.607.229-.122 1.652.86 1.662 1 .027.325-.451.32-.618.404-.482.238-1.108 1.484-1.55 1.908zm81.012-7.984c-.186.018-.358.082-.543.097-3.676.276-7.649-.2-11.36-.01-.984.053-2.07.396-3.028.19-.116-.073-.917-1.032-.936-1.136 0-.015.046-.241.113-.233.966.29 1.953.221 2.934.273 3.295.169 6.613.073 9.918.093.323-.07.839-1.28 1.162-1.252.272.026 1.616 1.427 1.705 1.7.03.093.048.18.035.276zM66.531 1.302c.237-.055 1.469.744 1.528.953.027.099.035.224-.025.308-.898.12-1.285 1.2-1.855 1.897a15 15 0 0 1-1.686 1.717c-.277.242-1.41 1.174-1.681 1.174-.159 0-.584-.32-.546-.488 1.304-1.017 3.526-3.045 4.031-4.718.092-.305-.035-.779.231-.843z"/><path d="M111.655 2.232c.46.584-.145 1.51-.562 1.383-.234-.073-.673-.895-.88-1.145-.274-.328-1.57-1.339-.796-1.679.057-.05.105-.02.167-.006.347.09 1.831 1.14 2.074 1.447z"/></g><defs><clipPath id="a"><path fill="#fff" d="M0 0h147v23H0z"/></clipPath></defs></svg>