<svg width="416" height="64" viewBox="0 0 416 64" fill="none" xmlns="http://www.w3.org/2000/svg">
<g clip-path="url(#clip0_3533_3815)">
<g opacity="0.2" clip-path="url(#clip1_3533_3815)">
<path d="M401.472 11.8426C399.462 6.66256 394.43 2.98413 388.53 2.98413H29.5982C23.6978 2.98413 18.6664 6.66256 16.6558 11.8426C10.3412 12.155 5.31982 17.3451 5.31982 23.7144V41.0181C5.31982 47.3873 10.3412 52.5774 16.6558 52.8798C18.6664 58.0598 23.6978 61.7382 29.5982 61.7382H388.53C394.43 61.7382 399.462 58.0598 401.472 52.8798C407.787 52.5673 412.808 47.3873 412.808 41.0181V23.7144C412.808 17.3451 407.787 12.155 401.472 11.8527V11.8426Z" fill="url(#paint0_linear_3533_3815)"/>
</g>
<path d="M6.97426 20.9359C7.75925 20.9359 8.28257 20.5385 8.53416 19.7542C9.43991 16.8366 10.7482 13.9503 14.1397 12.5385C15.0354 12.1725 15.9009 12.0888 16.5953 12.0261C17.0683 11.9843 17.4709 11.9424 17.7929 11.8379C18.3867 11.6392 18.8396 11.0849 19.544 10.2065C19.9063 9.74636 20.2888 9.27578 20.7416 8.81565C24.0023 5.53199 28.36 3.73329 33.3517 3.62872C34.2172 3.6078 35.0927 3.6078 35.9582 3.6078C36.8237 3.6078 37.6791 3.6078 38.5346 3.61826C39.3799 3.61826 40.2353 3.62872 41.0807 3.62872H370.994C372.424 3.62872 373.933 3.57643 375.523 3.51368C377.224 3.45094 378.985 3.38819 380.756 3.38819C387.177 3.38819 394.403 4.14114 399.294 9.69408C399.536 9.96597 399.757 10.2483 399.968 10.5202C400.471 11.1581 400.773 11.5241 401.196 11.7333C401.468 11.8692 401.941 11.9006 402.434 11.9424C403.028 11.9947 403.702 12.047 404.406 12.2771C408.251 13.5111 409.73 16.7424 410.656 19.7437C410.958 20.7163 411.673 20.915 412.216 20.915C412.84 20.915 413.454 20.6326 413.756 20.2039C413.897 20.0052 414.058 19.6705 413.846 19.0117C412.749 15.4771 409.911 9.41172 403.279 8.58558L402.525 8.49146L402.021 7.89538C397.855 2.92806 391.998 0.271855 385.074 0.240482C384.037 0.240482 383.001 0.240482 381.964 0.240482C380.927 0.240482 379.891 0.240482 378.844 0.240482C377.808 0.240482 376.761 0.240482 375.724 0.240482H51.0641C49.001 0.240482 46.8674 0.177737 44.8144 0.114992C42.7412 0.052247 40.5976 -0.010498 38.5044 -0.010498C35.2537 -0.010498 32.6271 0.146365 30.252 0.481005C25.1999 1.20257 20.5404 3.82741 17.1488 7.89538L16.6456 8.49146L15.8909 8.58558C9.26883 9.42218 6.43082 15.4771 5.33385 19.0117C5.13258 19.6705 5.2936 20.0052 5.42443 20.2039C5.71628 20.6326 6.34024 20.915 6.9642 20.915L6.97426 20.9359Z" fill="url(#paint1_linear_3533_3815)"/>
<path d="M412.206 43.064C411.421 43.064 410.897 43.4614 410.646 44.2457C409.74 47.1633 408.432 50.0496 405.04 51.4613C404.144 51.8274 403.279 51.911 402.585 51.9738C402.112 52.0156 401.709 52.0574 401.387 52.162C400.793 52.3607 400.34 52.9149 399.636 53.7934C399.274 54.2535 398.891 54.7241 398.438 55.1842C395.178 58.4679 390.82 60.2666 385.828 60.3712C384.963 60.3921 384.087 60.3921 383.222 60.3921C382.356 60.3921 381.501 60.3921 380.645 60.3816C379.8 60.3816 378.945 60.3712 378.099 60.3712H48.1955C46.7665 60.3712 45.2569 60.4234 43.6668 60.4862C41.966 60.5489 40.2048 60.6117 38.4336 60.6117C32.0128 60.6117 24.787 59.8587 19.896 54.3058C19.6544 54.0339 19.433 53.7515 19.2217 53.4796C18.7185 52.8417 18.4166 52.4757 17.9939 52.2666C17.7222 52.1306 17.2492 52.0993 16.756 52.0574C16.1623 52.0051 15.488 51.9529 14.7835 51.7228C10.9391 50.4888 9.45972 47.2574 8.53384 44.2561C8.23193 43.2836 7.51739 43.0849 6.97394 43.0849C6.34998 43.0849 5.73609 43.3672 5.43417 43.7855C5.29328 43.9842 5.13226 44.3189 5.3436 44.9777C6.44056 48.5123 9.27857 54.5777 15.9107 55.4038L16.6654 55.498L17.1686 56.094C21.3351 61.0613 27.1923 63.7176 34.1162 63.7489C35.1528 63.7489 36.1894 63.7489 37.2259 63.7489C38.2625 63.7489 39.2991 63.7489 40.3457 63.7489C41.3823 63.7489 42.4289 63.7489 43.4655 63.7489H368.116C370.179 63.7489 372.312 63.8117 374.365 63.8744C376.439 63.9372 378.582 63.9999 380.676 63.9999C383.926 63.9999 386.553 63.843 388.918 63.5084C393.97 62.7868 398.629 60.162 402.021 56.094L402.524 55.498L403.279 55.4038C409.901 54.5672 412.739 48.5123 413.836 44.9777C414.037 44.3189 413.876 43.9842 413.745 43.7855C413.443 43.3568 412.83 43.0744 412.206 43.0744V43.064Z" fill="url(#paint2_linear_3533_3815)"/>
<path d="M412.246 28.2354C410.173 28.2354 408.492 29.919 408.492 31.9896C408.492 34.0602 410.173 35.7438 412.246 35.7438C414.319 35.7438 416 34.0602 416 31.9896C416 29.919 414.319 28.2354 412.246 28.2354Z" fill="url(#paint3_linear_3533_3815)"/>
<path d="M7.50765 32.0001C7.50765 29.9295 5.82698 28.2458 3.75382 28.2458C1.68067 28.2458 0 29.9295 0 32.0001C0 34.0707 1.68067 35.7543 3.75382 35.7543C5.82698 35.7543 7.50765 34.0707 7.50765 32.0001Z" fill="url(#paint4_linear_3533_3815)"/>
</g>
<defs>
<linearGradient id="paint0_linear_3533_3815" x1="5.31982" y1="32.3612" x2="412.808" y2="32.3612" gradientUnits="userSpaceOnUse">
<stop stop-color="#F7F3E8"/>
<stop offset="0.35" stop-color="#8A724C"/>
<stop offset="0.5" stop-color="#8A724C"/>
<stop offset="0.65" stop-color="#8A724C"/>
<stop offset="1" stop-color="#F7F3E8"/>
</linearGradient>
<linearGradient id="paint1_linear_3533_3815" x1="103.678" y1="128.167" x2="321.975" y2="-81.9122" gradientUnits="userSpaceOnUse">
<stop stop-color="#EEDEBC"/>
<stop offset="0.06" stop-color="#DDC5A3"/>
<stop offset="0.14" stop-color="#C9A885"/>
<stop offset="0.26" stop-color="#9A7A5F"/>
<stop offset="0.36" stop-color="#C9A885"/>
<stop offset="0.49" stop-color="#EEDEBC"/>
<stop offset="0.54" stop-color="#DDC5A3"/>
<stop offset="0.61" stop-color="#C9A885"/>
<stop offset="0.72" stop-color="#9A7A5F"/>
<stop offset="0.84" stop-color="#C9A885"/>
<stop offset="1" stop-color="#EEDEBC"/>
</linearGradient>
<linearGradient id="paint2_linear_3533_3815" x1="103.678" y1="155.942" x2="321.974" y2="-54.1371" gradientUnits="userSpaceOnUse">
<stop stop-color="#EEDEBC"/>
<stop offset="0.06" stop-color="#DDC5A3"/>
<stop offset="0.14" stop-color="#C9A885"/>
<stop offset="0.26" stop-color="#9A7A5F"/>
<stop offset="0.36" stop-color="#C9A885"/>
<stop offset="0.49" stop-color="#EEDEBC"/>
<stop offset="0.54" stop-color="#DDC5A3"/>
<stop offset="0.61" stop-color="#C9A885"/>
<stop offset="0.72" stop-color="#9A7A5F"/>
<stop offset="0.84" stop-color="#C9A885"/>
<stop offset="1" stop-color="#EEDEBC"/>
</linearGradient>
<linearGradient id="paint3_linear_3533_3815" x1="125.929" y1="329.506" x2="426.174" y2="40.564" gradientUnits="userSpaceOnUse">
<stop stop-color="#EEDEBC"/>
<stop offset="0.06" stop-color="#DDC5A3"/>
<stop offset="0.14" stop-color="#C9A885"/>
<stop offset="0.26" stop-color="#9A7A5F"/>
<stop offset="0.36" stop-color="#C9A885"/>
<stop offset="0.49" stop-color="#EEDEBC"/>
<stop offset="0.54" stop-color="#DDC5A3"/>
<stop offset="0.61" stop-color="#C9A885"/>
<stop offset="0.72" stop-color="#9A7A5F"/>
<stop offset="0.84" stop-color="#C9A885"/>
<stop offset="1" stop-color="#EEDEBC"/>
</linearGradient>
<linearGradient id="paint4_linear_3533_3815" x1="0.925875" y1="34.9387" x2="301.17" y2="-254.004" gradientUnits="userSpaceOnUse">
<stop stop-color="#EEDEBC"/>
<stop offset="0.06" stop-color="#DDC5A3"/>
<stop offset="0.14" stop-color="#C9A885"/>
<stop offset="0.26" stop-color="#9A7A5F"/>
<stop offset="0.36" stop-color="#C9A885"/>
<stop offset="0.49" stop-color="#EEDEBC"/>
<stop offset="0.54" stop-color="#DDC5A3"/>
<stop offset="0.61" stop-color="#C9A885"/>
<stop offset="0.72" stop-color="#9A7A5F"/>
<stop offset="0.84" stop-color="#C9A885"/>
<stop offset="1" stop-color="#EEDEBC"/>
</linearGradient>
<clipPath id="clip0_3533_3815">
<rect width="416" height="64" fill="white"/>
</clipPath>
<clipPath id="clip1_3533_3815">
<rect width="406.425" height="58.7541" fill="white" transform="translate(6.5542 3.14746)"/>
</clipPath>
</defs>
</svg>
