<svg width="520" height="80" viewBox="0 0 520 80" fill="none" xmlns="http://www.w3.org/2000/svg">
<g clip-path="url(#clip0_4048_2562)">
<path d="M0.801469 79.9999H519.191C520.265 79.9999 520.265 78.3218 519.191 78.3218H0.801469C-0.272365 78.3218 -0.272365 79.9999 0.801469 79.9999Z" fill="url(#paint0_linear_4048_2562)"/>
<path d="M267.683 75.3528H517.869C518.568 75.3528 519.139 74.7762 519.139 74.0706V74.0447C519.139 73.3391 518.568 72.7625 517.869 72.7625C499.716 72.8055 292.748 73.1928 267.947 67.7797C267.155 67.6076 266.413 68.2186 266.413 69.0361V74.0792C266.413 74.7848 266.984 75.3614 267.683 75.3614V75.3528Z" fill="url(#paint1_linear_4048_2562)"/>
<path d="M262.868 72.6505C262.868 74.1393 261.666 75.3527 260.192 75.3527C258.717 75.3527 257.516 74.1393 257.516 72.6505C257.516 71.1617 258.717 69.9482 260.192 69.9482C261.666 69.9482 262.868 71.1617 262.868 72.6505Z" fill="url(#paint2_linear_4048_2562)"/>
<path d="M252.317 75.3528H2.1302C1.43136 75.3528 0.860352 74.7762 0.860352 74.0706V74.0447C0.860352 73.3391 1.43136 72.7625 2.1302 72.7625C20.2831 72.8055 227.252 73.1928 252.052 67.7797C252.845 67.6076 253.586 68.2186 253.586 69.0361V74.0792C253.586 74.7848 253.015 75.3614 252.317 75.3614V75.3528Z" fill="url(#paint3_linear_4048_2562)"/>
<path d="M387.833 56.6782C387.833 56.6782 387.603 56.7556 387.169 56.8933C386.947 56.9622 386.674 57.0224 386.35 57.1085C386.188 57.1515 386.009 57.1773 385.822 57.2203C385.634 57.2548 385.43 57.2978 385.217 57.3322C383.495 57.6076 380.956 57.7109 377.845 57.4097C374.734 57.1257 371.078 56.463 367.098 55.4303C365.112 54.914 363.033 54.3029 360.911 53.5973C359.845 53.2444 358.772 52.8658 357.689 52.4613C356.598 52.0568 355.516 51.6093 354.425 51.1618C352.243 50.2582 350.147 49.3374 348.11 48.5198C346.073 47.6937 344.104 46.9794 342.195 46.377C338.369 45.198 334.806 44.4837 331.798 44.3202C331.048 44.2857 330.332 44.2771 329.65 44.303C328.977 44.3374 328.338 44.389 327.741 44.4837C326.557 44.6644 325.568 44.9656 324.784 45.3012C324 45.6369 323.446 45.9983 323.071 46.2565C322.883 46.3856 322.756 46.4974 322.662 46.5749C322.568 46.6437 322.525 46.6868 322.525 46.6868C322.525 46.6868 322.568 46.6437 322.645 46.5577C322.73 46.4716 322.841 46.3425 323.011 46.1876C323.344 45.8778 323.863 45.4303 324.622 44.9828C325.38 44.5353 326.378 44.0964 327.588 43.7694C328.193 43.6059 328.849 43.4768 329.556 43.3649C330.264 43.2616 331.014 43.1928 331.798 43.1584C334.951 43.0207 338.701 43.4682 342.715 44.4751C344.726 44.9914 346.806 45.6455 348.911 46.4286C351.016 47.2031 353.147 48.0981 355.311 48.9931C356.394 49.4406 357.459 49.8795 358.516 50.2926C359.573 50.7057 360.621 51.1016 361.652 51.4802C363.715 52.2375 365.726 52.9174 367.652 53.537C371.504 54.7591 375.024 55.6885 378.015 56.2651C381.007 56.8417 383.478 57.031 385.191 56.988C385.404 56.988 385.609 56.9708 385.796 56.9622C385.984 56.9449 386.163 56.9449 386.325 56.9277C386.649 56.8847 386.93 56.8675 387.151 56.8331C387.595 56.7556 387.833 56.7212 387.833 56.7212V56.6782Z" fill="url(#paint4_linear_4048_2562)"/>
<path d="M397.344 43.3993C397.472 43.167 397.719 43.0293 398.086 42.9863C398.265 42.969 398.486 42.9604 398.716 42.9949C398.947 43.0379 399.202 43.0981 399.483 43.1928C399.756 43.3047 400.054 43.4424 400.353 43.6145C400.651 43.8124 400.975 44.019 401.273 44.3202C401.878 44.8881 402.475 45.7057 402.79 46.747C402.944 47.2634 403.054 47.9776 403.003 48.7866C402.944 49.5955 402.696 50.4561 402.296 51.2565C401.495 52.8572 400.14 54.1394 398.768 55.0344C398.077 55.4906 397.378 55.852 396.722 56.1274C396.066 56.4114 395.444 56.5921 394.915 56.7298C393.85 56.9794 393.16 56.9535 393.134 56.8503C393.1 56.7384 393.697 56.42 394.532 55.8434C394.941 55.5508 395.418 55.198 395.904 54.7763C396.39 54.3546 396.884 53.8727 397.336 53.3477C397.796 52.8227 398.214 52.2548 398.537 51.6782C398.87 51.1016 399.108 50.525 399.245 50.0086C399.381 49.4923 399.407 49.0448 399.373 48.6919C399.33 48.3391 399.262 48.0723 399.194 47.8572C399.074 47.4355 398.878 47.0138 398.64 46.5921C398.537 46.377 398.384 46.1704 398.273 45.9553C398.137 45.7487 398.009 45.5508 397.898 45.3443C397.77 45.1549 397.66 44.9656 397.574 44.7763C397.481 44.5955 397.395 44.4234 397.344 44.2599C397.234 43.9329 397.225 43.6403 397.344 43.4079V43.3993Z" fill="url(#paint5_linear_4048_2562)"/>
<path d="M408.594 55.783C408.517 56.0326 408.364 56.2477 408.185 56.4371C408.006 56.6264 407.81 56.7641 407.588 56.919C407.154 57.1772 406.677 57.3837 406.123 57.4526C405.841 57.487 405.373 57.487 404.785 57.5558C404.197 57.6161 403.498 57.7538 402.833 57.9603C402.671 58.0119 402.501 58.0636 402.339 58.1238C402.185 58.1841 402.023 58.2443 401.87 58.3045C401.58 58.4336 401.29 58.5455 401.06 58.666C400.813 58.7693 400.617 58.8725 400.464 58.9328C400.31 58.993 400.199 59.0102 400.148 58.9758C400.106 58.9414 400.106 58.8381 400.14 58.666C400.174 58.4939 400.234 58.2615 400.361 57.9947C400.472 57.7193 400.643 57.4267 400.847 57.0911C400.958 56.9362 401.069 56.7727 401.197 56.6006C401.324 56.4371 401.461 56.2736 401.606 56.1101C402.185 55.456 402.927 54.8536 403.677 54.4319C404.418 54.0016 405.16 53.7607 405.637 53.7004C406.583 53.5713 407.503 53.8209 408.04 54.277C408.313 54.4835 408.5 54.7589 408.586 55.0171C408.679 55.2753 408.679 55.5335 408.594 55.783Z" fill="url(#paint6_linear_4048_2562)"/>
<path d="M423.185 49.7246C423.176 49.4148 423.125 49.1222 423.099 48.821C423.065 48.5198 423.04 48.2272 422.989 47.9346C422.605 45.5852 421.719 43.3649 420.44 41.5318C419.145 39.7074 417.509 38.2616 415.796 37.1859C414.074 36.1102 412.267 35.3959 410.52 34.8967C408.765 34.4062 407.052 34.1394 405.432 34.0189C403.813 33.9071 402.279 33.9415 400.864 34.062C400.506 34.0964 400.165 34.1308 399.825 34.1652C399.484 34.2169 399.151 34.2599 398.827 34.3115C398.504 34.3546 398.18 34.4148 397.873 34.4836C397.566 34.5439 397.259 34.5955 396.961 34.6644C396.663 34.7332 396.381 34.8107 396.092 34.8795C395.947 34.9139 395.81 34.9484 395.674 34.9828C395.538 35.0258 395.401 35.0602 395.273 35.1033C395.009 35.1807 394.754 35.2582 394.498 35.3356C394.242 35.4131 394.004 35.5077 393.774 35.5852C391.89 36.2478 390.509 36.9535 389.606 37.4699C389.376 37.5904 389.18 37.7195 389.009 37.8227C388.839 37.926 388.703 38.012 388.583 38.0895C388.353 38.2272 388.242 38.3046 388.242 38.3046C388.242 38.3046 388.362 38.2444 388.6 38.1153C388.72 38.0551 388.865 37.9776 389.044 37.883C389.223 37.7969 389.419 37.685 389.657 37.5818C390.595 37.1343 392.009 36.5491 393.901 36.0241C394.14 35.9639 394.379 35.8864 394.634 35.8262C394.89 35.7659 395.146 35.7143 395.41 35.654C395.546 35.6282 395.674 35.5938 395.81 35.5594C395.947 35.5336 396.083 35.5077 396.228 35.4819C396.509 35.4303 396.791 35.3787 397.089 35.327C397.379 35.2754 397.685 35.2496 397.992 35.2065C398.299 35.1635 398.614 35.1205 398.93 35.1033C399.254 35.0775 399.577 35.0516 399.91 35.0258C400.242 35.0172 400.583 35 400.924 34.9914C402.305 34.9656 403.779 35.0172 405.322 35.2065C406.864 35.4131 408.475 35.7573 410.094 36.2995C411.713 36.8503 413.35 37.599 414.858 38.6489C416.358 39.6988 417.73 41.0327 418.787 42.6592C419.818 44.2943 420.5 46.2134 420.764 48.2616C420.798 48.5198 420.807 48.778 420.832 49.0361C420.85 49.2943 420.884 49.5611 420.884 49.8193C420.875 50.3356 420.884 50.8606 420.815 51.3769C420.79 51.9019 420.662 52.4096 420.568 52.926C420.5 53.1756 420.423 53.4337 420.347 53.6833C420.287 53.9415 420.176 54.1824 420.082 54.432C419.912 54.9312 419.648 55.4045 419.418 55.8864C419.281 56.1188 419.137 56.3511 419 56.5835L418.898 56.7556L418.779 56.9191L418.54 57.2547C417.892 58.1411 417.151 58.9931 416.299 59.7504C414.611 61.2909 412.583 62.5645 410.392 63.6059C408.194 64.6472 405.824 65.4561 403.37 66.0327C402.143 66.3167 400.89 66.5577 399.62 66.7126C398.35 66.8675 397.072 66.9707 395.793 66.9879C395.478 66.9879 395.154 66.9879 394.839 66.9879C394.524 66.9793 394.208 66.9621 393.893 66.9535C393.578 66.9277 393.271 66.9019 392.955 66.8761C392.632 66.833 392.308 66.7986 391.984 66.7556C390.688 66.5835 389.402 66.4458 388.132 66.2134C387.492 66.1102 386.862 65.9983 386.231 65.895C385.6 65.7745 384.978 65.6368 384.356 65.5077C383.734 65.3787 383.112 65.2582 382.498 65.1119C381.885 64.9656 381.271 64.8107 380.666 64.6644C375.8 63.4596 371.163 61.9707 366.783 60.4389C362.394 58.9071 358.243 57.3494 354.331 55.9294C350.42 54.5095 346.755 53.2358 343.372 52.1601C341.676 51.6437 340.065 51.136 338.522 50.7143C336.98 50.284 335.514 49.9139 334.125 49.6299C331.346 49.062 328.892 48.8468 326.889 49.0017C325.892 49.0706 325.014 49.2341 324.273 49.4406C323.983 49.5181 323.727 49.6127 323.48 49.6988C323.403 49.716 323.327 49.7418 323.241 49.759C323.139 49.7849 323.028 49.8107 322.926 49.8451C322.824 49.8795 322.722 49.9053 322.619 49.9398C322.517 49.9742 322.415 50.0086 322.312 50.0516C322.108 50.1205 321.912 50.2065 321.724 50.2926C321.341 50.4647 320.966 50.654 320.616 50.8692C320.259 51.0757 319.935 51.3167 319.611 51.5663C319.304 51.8244 319.006 52.0826 318.733 52.3666C317.642 53.4854 316.935 54.8451 316.645 56.1618C316.5 56.8244 316.457 57.4699 316.492 58.0723C316.526 58.6747 316.636 59.2341 316.79 59.7332C316.935 60.2324 317.139 60.7057 317.369 61.1618C317.429 61.2737 317.489 61.3855 317.548 61.4974C317.574 61.5491 317.608 61.6093 317.651 61.6609L317.753 61.8244C317.821 61.9363 317.898 62.0396 317.974 62.1429L318.085 62.2978L318.205 62.4441C318.528 62.8399 318.886 63.1928 319.261 63.5026C319.645 63.8124 320.037 64.0964 320.446 64.3374C321.264 64.8193 322.133 65.1807 323.003 65.4303C323.437 65.5508 323.881 65.654 324.315 65.7229C324.537 65.7659 324.75 65.7831 324.971 65.809C325.082 65.8176 325.193 65.8262 325.295 65.8348C325.406 65.8348 325.517 65.852 325.619 65.852C325.73 65.852 325.832 65.852 325.943 65.852C326.054 65.852 326.156 65.852 326.267 65.852H326.429L326.591 65.8348C326.702 65.8348 326.804 65.8176 326.906 65.809C327.008 65.7917 327.119 65.7831 327.221 65.7659L327.375 65.7487L327.528 65.7229C327.63 65.7057 327.733 65.6885 327.835 65.6627C327.937 65.6368 328.04 65.611 328.142 65.5852C328.244 65.5594 328.346 65.5336 328.44 65.4991C328.534 65.4647 328.636 65.4389 328.738 65.4045C328.934 65.327 329.13 65.2668 329.309 65.1807C329.684 65.0258 330.034 64.8107 330.366 64.5955C330.443 64.5353 330.528 64.475 330.605 64.4148L330.724 64.3287L330.835 64.2341C330.912 64.1652 330.988 64.105 331.057 64.0448C331.125 63.9759 331.193 63.9071 331.261 63.8382L331.363 63.7349C331.363 63.7349 331.423 63.6575 331.457 63.6231C331.517 63.5456 331.585 63.4768 331.645 63.3993C331.704 63.3219 331.755 63.2444 331.815 63.167L331.9 63.0465C331.9 63.0465 331.951 62.969 331.977 62.926C332.028 62.8485 332.071 62.7625 332.122 62.685C332.164 62.599 332.207 62.5215 332.241 62.4355L332.301 62.315L332.352 62.1859C332.386 62.0998 332.42 62.0138 332.446 61.9277C332.471 61.8417 332.497 61.7556 332.522 61.6695C332.531 61.6265 332.548 61.5835 332.556 61.5405L332.582 61.4114C332.599 61.3253 332.616 61.2392 332.633 61.1532C332.642 61.0671 332.659 60.9811 332.667 60.895C332.667 60.852 332.676 60.809 332.684 60.7659V60.6368C332.693 60.5508 332.701 60.4647 332.701 60.3873C332.701 60.3012 332.701 60.2238 332.701 60.1377V60.0172C332.701 60.0172 332.693 59.9312 332.684 59.8967C332.684 59.8193 332.667 59.7332 332.659 59.6558C332.65 59.5783 332.633 59.5009 332.616 59.4234C332.591 59.2685 332.548 59.1136 332.514 58.9673C332.352 58.3735 332.079 57.8485 331.755 57.4182C331.431 56.988 331.057 56.6437 330.673 56.3941C330.289 56.1446 329.906 55.9725 329.557 55.8778C329.514 55.8606 329.471 55.852 329.429 55.8434C329.386 55.8348 329.344 55.8262 329.301 55.8176C329.216 55.8003 329.139 55.7831 329.054 55.7659C328.892 55.7487 328.747 55.7315 328.602 55.7229C328.466 55.7229 328.338 55.7229 328.219 55.7229C328.176 55.7229 328.133 55.7229 328.091 55.7315C327.315 55.5077 326.471 55.8692 326.105 56.6351C325.704 57.4871 326.054 58.5026 326.898 58.9071C327.741 59.3115 328.747 58.9587 329.147 58.1067C329.463 57.4441 329.309 56.6695 328.824 56.179C328.866 56.1876 328.9 56.1962 328.943 56.2134C329.011 56.2392 329.088 56.2651 329.156 56.2823C329.19 56.2909 329.233 56.3081 329.267 56.3167C329.301 56.3339 329.344 56.3511 329.378 56.3683C329.684 56.4888 330 56.6695 330.307 56.9105C330.613 57.1515 330.903 57.4613 331.15 57.8399C331.389 58.2186 331.593 58.6661 331.704 59.1738C331.73 59.3029 331.755 59.4234 331.772 59.5611C331.772 59.6299 331.789 59.6902 331.798 59.759C331.798 59.8279 331.798 59.8881 331.806 59.957C331.806 59.9914 331.806 60.0258 331.806 60.0602V60.1635C331.806 60.2324 331.807 60.3012 331.798 60.3701C331.798 60.4389 331.781 60.5077 331.772 60.5766V60.6799C331.772 60.6799 331.747 60.7487 331.747 60.7831C331.738 60.852 331.721 60.9208 331.713 60.9897C331.696 61.0585 331.679 61.1274 331.662 61.1962L331.636 61.2995C331.636 61.2995 331.61 61.3683 331.602 61.4028C331.576 61.4716 331.551 61.5404 331.534 61.6093C331.508 61.6781 331.474 61.747 331.449 61.8072L331.406 61.9105L331.355 62.0052C331.321 62.074 331.287 62.1343 331.253 62.2031C331.21 62.2633 331.167 62.3322 331.133 62.3924C331.116 62.4269 331.091 62.4527 331.074 62.4871L331.005 62.5818C330.954 62.642 330.912 62.7022 330.869 62.7625C330.818 62.8227 330.767 62.8744 330.716 62.9346C330.69 62.9604 330.664 62.9948 330.639 63.0207L330.554 63.0981C330.494 63.1497 330.443 63.21 330.383 63.2616C330.324 63.3133 330.255 63.3649 330.196 63.4165L330.102 63.494L330 63.5628C329.932 63.6059 329.863 63.6575 329.795 63.7005C328.679 64.4148 327.204 64.7418 325.67 64.6558C325.577 64.6558 325.474 64.6472 325.381 64.6386C325.287 64.6299 325.185 64.6213 325.091 64.6127C324.895 64.5869 324.699 64.5611 324.511 64.5267C324.119 64.4578 323.736 64.3632 323.344 64.2513C322.568 64.0189 321.81 63.6833 321.094 63.253C320.736 63.0379 320.395 62.7883 320.071 62.5215C319.747 62.2547 319.449 61.9535 319.185 61.6351L319.082 61.5146L318.989 61.3855C318.929 61.2995 318.861 61.222 318.81 61.1274L318.724 60.9983C318.724 60.9983 318.665 60.9122 318.648 60.8606C318.597 60.7659 318.545 60.6713 318.494 60.5766C318.307 60.1893 318.128 59.7935 318.009 59.3804C317.889 58.9673 317.796 58.5112 317.761 58.0207C317.727 57.5301 317.761 57.0052 317.881 56.463C318 55.9208 318.196 55.3701 318.486 54.8279C318.554 54.6902 318.639 54.5611 318.716 54.4234C318.801 54.2857 318.895 54.1566 318.98 54.0275C319.176 53.7694 319.381 53.5112 319.611 53.2702C319.841 53.0207 320.097 52.7969 320.361 52.5732C320.634 52.358 320.915 52.1429 321.23 51.9621C321.537 51.7642 321.861 51.6007 322.193 51.4458C322.364 51.3769 322.534 51.2909 322.713 51.2306C322.798 51.1962 322.892 51.1618 322.977 51.136C323.071 51.1102 323.156 51.0757 323.25 51.0499C323.344 51.0155 323.429 50.9983 323.523 50.9725C323.616 50.9466 323.71 50.9208 323.804 50.895C324 50.852 324.196 50.809 324.392 50.7659C324.494 50.7487 324.588 50.7229 324.69 50.7057C324.792 50.6885 324.886 50.6713 324.988 50.654C325.091 50.6368 325.193 50.6196 325.287 50.6024C325.389 50.5852 325.491 50.568 325.594 50.5594C325.798 50.5336 326.003 50.5077 326.207 50.4905C326.412 50.4733 326.616 50.4647 326.829 50.4475C327.034 50.4303 327.247 50.4303 327.46 50.4303C327.562 50.4303 327.673 50.4303 327.775 50.4303C327.878 50.4303 327.988 50.4389 328.091 50.4389C328.193 50.4389 328.304 50.4475 328.406 50.4561C328.508 50.4561 328.619 50.4647 328.721 50.4819C328.934 50.5077 329.147 50.525 329.361 50.5508C329.872 50.611 330.383 50.6196 330.895 50.6971C331.346 50.7573 331.798 50.8348 332.258 50.8692C333.059 50.9208 333.852 51.0069 334.644 51.1102C334.977 51.1532 336.46 51.3511 336.46 51.3511C336.46 51.3511 336.451 51.3511 336.443 51.3511C336.997 51.5318 337.559 51.7126 338.139 51.9105C339.639 52.4182 341.207 53.0121 342.86 53.6059C346.158 54.8451 349.738 56.2823 353.573 57.8657C357.417 59.4406 361.516 61.1532 365.896 62.8313C370.277 64.5009 374.956 66.136 379.933 67.4527C380.555 67.6162 381.186 67.7797 381.808 67.9432C382.439 68.0981 383.078 68.2272 383.717 68.3735C384.356 68.5112 384.995 68.6661 385.652 68.7952C386.299 68.9157 386.956 69.0275 387.612 69.148C388.924 69.4062 390.262 69.5611 391.6 69.7418C391.933 69.7849 392.274 69.8279 392.614 69.8709C392.964 69.8967 393.322 69.9312 393.671 69.957C394.021 69.9742 394.379 69.9828 394.728 70C395.077 70.0086 395.435 70 395.785 70C398.606 69.9656 401.359 69.5783 404.001 68.9329C406.643 68.2874 409.191 67.3838 411.569 66.2134C413.946 65.0344 416.171 63.58 418.071 61.7728C419.026 60.8778 419.878 59.8709 420.611 58.8038L420.884 58.3993L421.02 58.1928L421.139 57.9776C421.301 57.6936 421.455 57.4096 421.617 57.1256C421.889 56.5404 422.179 55.9552 422.375 55.3442C422.486 55.043 422.597 54.7418 422.665 54.432C422.742 54.1222 422.827 53.8124 422.895 53.5026C422.997 52.8744 423.117 52.2547 423.142 51.6265C423.21 51.0069 423.168 50.3873 423.159 49.7762L423.185 49.7246Z" fill="url(#paint7_linear_4048_2562)"/>
<path d="M259.612 53.7349L257.191 58.907L257.208 58.9243C258.197 60.2582 259.663 67.074 259.663 67.074C259.663 67.117 259.723 67.1256 259.731 67.074C260.012 65.6454 261.154 60.086 262.015 58.9156L262.032 58.8984L259.612 53.7263V53.7349Z" fill="url(#paint8_linear_4048_2562)"/>
<path d="M277.979 16.8589C278.345 16.6954 278.618 16.3856 278.754 15.8864C278.882 15.3959 278.839 14.716 278.499 13.9501C278.158 13.1928 277.459 12.3666 276.462 11.7814C275.465 11.1876 274.186 10.895 272.933 10.9897C272.303 11.0155 271.51 11.2048 270.666 11.5405C269.831 11.8761 268.962 12.401 268.186 13.0895C267.402 13.7694 266.712 14.5955 266.158 15.4992C265.604 16.3942 265.195 17.358 264.914 18.3047C264.649 19.2513 264.513 20.1721 264.462 21.0069C264.445 21.4286 264.445 21.8245 264.462 22.1859C264.488 22.5559 264.513 22.9002 264.556 23.21C264.607 23.5198 264.658 23.8038 264.709 24.0448C264.76 24.2857 264.828 24.5009 264.888 24.6644C265.007 25 265.118 25.1893 265.212 25.1893C265.289 25.1893 265.408 25.0086 265.536 24.6902C265.672 24.3288 265.843 23.8899 266.039 23.3907C266.141 23.1239 266.277 22.8399 266.397 22.5473C266.533 22.2547 266.686 21.9449 266.84 21.6351C267.172 21.0155 267.564 20.3873 268.007 19.8107C268.468 19.2341 268.97 18.7177 269.507 18.2961C270.036 17.8744 270.581 17.5559 271.093 17.3322C271.604 17.1084 272.064 16.988 272.448 16.9363C272.541 16.9105 272.635 16.9105 272.72 16.9019C272.806 16.8933 272.882 16.8761 272.959 16.8761C273.036 16.8761 273.104 16.8675 273.163 16.8589C273.223 16.8589 273.283 16.8589 273.334 16.8589C273.752 16.8331 274.092 16.8072 274.425 16.79C274.757 16.7728 275.132 16.7642 275.533 16.8158C276.342 16.9019 277.254 17.2117 277.996 16.8847L277.979 16.8589Z" fill="url(#paint9_linear_4048_2562)"/>
<path d="M265.416 10.0775C263.166 15.2324 262.561 22.4613 262.492 23.4079C262.492 23.4682 262.45 23.5112 262.416 23.5112L260.225 26.0155C259.936 26.3511 259.424 26.3511 259.135 26.0155L256.944 23.5112C256.944 23.5112 256.868 23.4682 256.868 23.4079C256.799 22.4527 256.288 15.7831 253.944 10.0775C253.927 10.0344 258.461 1.84165 259.484 0.129088C259.586 -0.0430293 259.791 -0.0430293 259.893 0.129088C260.916 1.84165 265.45 10.0344 265.433 10.0775H265.416Z" fill="url(#paint10_linear_4048_2562)"/>
<path d="M241.067 16.8589C240.701 16.6954 240.428 16.3856 240.292 15.8864C240.164 15.3959 240.207 14.716 240.548 13.9501C240.888 13.1928 241.587 12.3666 242.584 11.7814C243.582 11.1876 244.86 10.895 246.113 10.9897C246.743 11.0155 247.536 11.2048 248.38 11.5405C249.215 11.8761 250.084 12.401 250.86 13.0895C251.644 13.7694 252.334 14.5955 252.888 15.4992C253.442 16.3942 253.851 17.358 254.132 18.3047C254.397 19.2513 254.533 20.1721 254.584 21.0069C254.601 21.4286 254.601 21.8245 254.584 22.1859C254.559 22.5559 254.533 22.9002 254.49 23.21C254.439 23.5198 254.388 23.8038 254.337 24.0448C254.286 24.2857 254.218 24.5009 254.158 24.6644C254.039 25 253.928 25.1893 253.834 25.1893C253.757 25.1893 253.638 25.0086 253.51 24.6902C253.374 24.3288 253.203 23.8899 253.007 23.3907C252.905 23.1239 252.769 22.8399 252.649 22.5473C252.513 22.2547 252.36 21.9449 252.206 21.6351C251.874 21.0155 251.482 20.3873 251.039 19.8107C250.579 19.2341 250.076 18.7177 249.539 18.2961C249.01 17.8744 248.465 17.5559 247.954 17.3322C247.442 17.1084 246.982 16.988 246.599 16.9363C246.505 16.9105 246.411 16.9105 246.334 16.9019C246.249 16.8933 246.172 16.8761 246.096 16.8761C246.019 16.8761 245.951 16.8675 245.891 16.8589C245.831 16.8589 245.772 16.8589 245.721 16.8589C245.303 16.8331 244.962 16.8072 244.63 16.79C244.297 16.7728 243.922 16.7642 243.522 16.8158C242.712 16.9019 241.8 17.2117 241.059 16.8847L241.067 16.8589Z" fill="url(#paint11_linear_4048_2562)"/>
<path d="M259.672 26.9363L256.868 29.6213C257.371 30.3012 259.672 34.2426 259.672 34.2426C259.672 34.2426 261.862 30.3012 262.365 29.6213L259.672 26.9363Z" fill="url(#paint12_linear_4048_2562)"/>
<path d="M247.869 23.778C248.065 23.8297 248.252 23.8813 248.431 23.9329C249.207 24.1567 249.905 24.3632 250.528 24.5353C251.15 24.7075 251.678 24.8538 252.121 24.9742C252.667 25.1033 253.059 25.198 253.28 25.2496C253.28 25.2496 253.28 25.2324 253.289 25.2238C253.076 25.1464 252.701 25.0001 252.172 24.7935C251.908 24.6903 251.601 24.5612 251.269 24.4321C251.226 24.3977 251.175 24.3546 251.107 24.303C251.056 24.26 250.988 24.2083 250.92 24.1567C250.996 24.1739 251.073 24.1911 251.15 24.2083C251.959 24.4149 252.701 24.7247 253.331 25.1291C253.331 25.1119 253.349 25.0947 253.357 25.0689C253.4 24.9484 253.451 24.8365 253.51 24.7333C252.854 24.2944 252.096 23.9588 251.278 23.7178C250.817 23.5801 250.332 23.4768 249.837 23.3908C249.13 22.9347 248.184 22.3839 247.016 21.8417C246.837 21.7557 246.65 21.6696 246.462 21.5835C246.266 21.5061 246.07 21.42 245.874 21.334C245.474 21.1619 245.048 21.0156 244.613 20.8434C243.727 20.5422 242.781 20.2324 241.749 19.9915C240.727 19.7505 239.636 19.544 238.485 19.4321C237.914 19.3804 237.318 19.346 236.721 19.3546C236.423 19.3546 236.125 19.3718 235.826 19.3718C235.528 19.3804 235.221 19.4149 234.923 19.4321C231.625 19.6989 228.633 20.5336 226.153 21.377C223.673 22.2376 221.687 23.124 220.341 23.7694C219.642 24.019 218.773 24.303 217.793 24.6989C216.813 25.0947 215.705 25.5508 214.494 26.0586C213.31 26.618 212.031 27.2462 210.676 27.9088C209.355 28.6317 207.949 29.3804 206.534 30.2152C205.503 30.8348 204.489 31.4545 203.526 32.0569C202.546 32.6765 201.651 33.3563 200.824 34.0018C200.006 34.6558 199.231 35.2754 198.498 35.8606C197.773 36.4372 197.083 36.9536 196.444 37.4097C195.165 38.3133 194.049 38.9071 193.239 39.2427C193.035 39.3202 192.856 39.3976 192.702 39.4579C192.541 39.5095 192.404 39.5526 192.293 39.587C192.072 39.6558 191.961 39.6989 191.961 39.6989C191.961 39.6989 192.08 39.6816 192.31 39.6386C192.421 39.6214 192.566 39.5956 192.737 39.5612C192.898 39.5267 193.086 39.4665 193.308 39.4149C194.16 39.1825 195.37 38.7006 196.751 37.9002C197.441 37.4958 198.182 37.031 198.949 36.5061C199.725 35.9811 200.535 35.3959 201.387 34.8021C202.239 34.1997 203.125 33.5801 204.08 33.0207C205.06 32.4527 206.066 31.8589 207.097 31.2393C208.503 30.4217 209.867 29.63 211.162 28.8727C212.475 28.1584 213.71 27.4785 214.844 26.8417C216.003 26.2565 217.068 25.7143 217.997 25.2238C218.935 24.7333 219.761 24.3546 220.435 24.0362C221.841 23.5629 223.886 22.883 226.383 22.2032C228.88 21.5405 231.821 20.8606 235 20.6025C235.289 20.5853 235.579 20.5594 235.869 20.5422C236.159 20.5336 236.44 20.525 236.73 20.5164C237.292 20.5078 237.846 20.5164 238.392 20.5594C239.482 20.6369 240.548 20.7832 241.545 20.9725C242.551 21.1532 243.488 21.3942 244.374 21.6266C244.809 21.7557 245.235 21.8675 245.636 22.0052C245.84 22.0741 246.036 22.1343 246.232 22.1946C246.428 22.2634 246.616 22.3322 246.795 22.3925C247.638 22.6937 248.371 22.9949 248.994 23.2789C248.695 23.2445 248.397 23.21 248.099 23.1928C246.675 22.6765 244.971 22.1601 243.028 21.9278C242.755 21.8847 242.482 21.8761 242.21 21.8503C241.928 21.8331 241.656 21.8073 241.366 21.7901C240.795 21.7901 240.215 21.747 239.627 21.7815C238.443 21.7987 237.224 21.9278 235.988 22.1085C232.622 22.6335 229.605 23.6575 227.082 24.5956C225.821 25.0689 224.679 25.5422 223.673 25.9553C223.17 26.1705 222.702 26.3598 222.276 26.5491C221.849 26.747 221.457 26.9192 221.108 27.0827C220.741 27.2032 220.341 27.3409 219.898 27.4872C219.463 27.6593 218.986 27.84 218.483 28.0379C217.46 28.4166 216.335 28.9329 215.1 29.4837C212.645 30.6283 209.85 32.0999 206.892 33.7264C204.728 34.9312 202.665 36.0672 200.765 37.0138C198.839 37.8916 197.066 38.6231 195.523 39.0792C194.756 39.3116 194.066 39.5612 193.444 39.6903C192.822 39.8365 192.268 39.9828 191.85 40.198C191.714 40.2668 191.595 40.3357 191.492 40.4131C191.313 40.4304 191.143 40.4476 190.964 40.4562C190.563 40.482 190.163 40.5078 189.762 40.5336L189.166 40.568L188.569 40.5853C188.168 40.5939 187.776 40.6197 187.384 40.6197C185.808 40.6455 184.257 40.5767 182.748 40.4045C182.561 40.3787 182.373 40.3529 182.186 40.3271C181.998 40.3013 181.811 40.2841 181.623 40.241C181.257 40.1722 180.89 40.1033 180.524 40.0345C180.166 39.9484 179.799 39.8538 179.441 39.7677C179.262 39.7247 179.084 39.673 178.913 39.6128C178.734 39.5612 178.564 39.5009 178.385 39.4493C178.214 39.389 178.035 39.346 177.865 39.2772C177.694 39.2169 177.524 39.1481 177.353 39.0878C177.013 38.9588 176.672 38.8383 176.348 38.6834C176.015 38.5371 175.683 38.3994 175.368 38.2359C175.044 38.0724 174.729 37.9088 174.413 37.7453C174.251 37.6679 174.098 37.5732 173.944 37.4872C173.791 37.4011 173.638 37.3064 173.484 37.2204C173.331 37.1343 173.177 37.0396 173.024 36.9536C172.871 36.8675 172.726 36.7643 172.572 36.6696C172.274 36.4803 171.984 36.2909 171.686 36.1016C171.541 36.0069 171.413 35.9037 171.277 35.809C171.141 35.7143 171.004 35.6197 170.876 35.5078C170.749 35.4045 170.612 35.3013 170.484 35.198C170.356 35.0947 170.237 34.9829 170.109 34.871C169.854 34.6644 169.624 34.4235 169.393 34.1997C168.942 33.735 168.507 33.2617 168.124 32.7539C167.732 32.2548 167.391 31.7298 167.067 31.2135C166.76 30.6799 166.479 30.1464 166.249 29.5956C166.001 29.0534 165.823 28.5026 165.652 27.9605C165.584 27.6851 165.507 27.4097 165.448 27.1429C165.396 26.8675 165.328 26.6007 165.303 26.334C165.141 25.2582 165.141 24.2169 165.26 23.2445C165.379 22.272 165.626 21.377 165.959 20.5767C166.291 19.7763 166.7 19.0706 167.135 18.451C167.561 17.8228 168.081 17.272 168.609 16.7384C168.746 16.6094 168.882 16.4803 169.027 16.3512C169.095 16.2823 169.163 16.2307 169.232 16.1705L169.445 15.9983C169.581 15.8779 169.734 15.7832 169.879 15.6799L170.101 15.525L170.331 15.3873C170.945 15.0087 171.601 14.6903 172.274 14.4321C172.947 14.1825 173.646 13.976 174.354 13.8297C175.76 13.5371 177.192 13.4424 178.589 13.5199C179.288 13.5629 179.97 13.6317 180.643 13.7522C180.984 13.8038 181.308 13.8813 181.64 13.9588C181.802 13.9932 181.964 14.0448 182.126 14.0878C182.288 14.1309 182.45 14.1739 182.603 14.2255C185.152 14.9915 187.35 16.4286 188.757 18.2875C188.842 18.408 188.927 18.5285 189.004 18.6403L189.132 18.8211L189.242 19.0018C189.319 19.1223 189.387 19.2427 189.464 19.3632C189.524 19.4923 189.592 19.6128 189.651 19.7419L189.745 19.9312C189.771 19.9915 189.796 20.0603 189.822 20.1205C189.873 20.2496 189.924 20.3787 189.975 20.4992C190.018 20.6283 190.06 20.7574 190.095 20.8865L190.154 21.0844C190.171 21.1532 190.188 21.2135 190.197 21.2823C190.231 21.4114 190.257 21.5405 190.291 21.6696C190.308 21.7987 190.333 21.9364 190.35 22.0655L190.376 22.2634L190.393 22.4613C190.401 22.5904 190.41 22.7195 190.418 22.8486C190.418 22.9777 190.418 23.1068 190.418 23.2359C190.418 23.2961 190.418 23.3649 190.418 23.4252L190.401 23.6145C190.393 23.7436 190.384 23.8641 190.367 23.9932C190.35 24.1137 190.325 24.2427 190.308 24.3632C190.299 24.4235 190.291 24.4837 190.282 24.544L190.239 24.7247C190.214 24.8452 190.18 24.9656 190.154 25.0861C190.12 25.198 190.078 25.3185 190.043 25.4304L189.992 25.6025C189.975 25.6541 189.95 25.7143 189.924 25.766C189.882 25.8779 189.839 25.9897 189.796 26.093C189.754 26.1963 189.694 26.2995 189.651 26.4114C189.558 26.6266 189.438 26.8159 189.328 27.0138C188.867 27.7884 188.279 28.408 187.666 28.8985C187.052 29.389 186.396 29.7247 185.757 29.9484C185.117 30.1636 184.504 30.2841 183.941 30.3013C183.873 30.3013 183.805 30.3099 183.737 30.3185C183.669 30.3185 183.6 30.3185 183.532 30.3185C183.396 30.3185 183.268 30.3185 183.14 30.3185C183.064 30.3185 182.995 30.3013 182.927 30.2927C184.001 29.7505 184.683 28.5629 184.555 27.2634C184.385 25.6025 182.953 24.4063 181.35 24.5784C179.748 24.7505 178.589 26.2393 178.76 27.8916C178.913 29.3718 180.072 30.4906 181.461 30.5853C181.529 30.6197 181.589 30.6455 181.666 30.6799C181.862 30.7488 182.066 30.8262 182.288 30.9037C182.518 30.9725 182.774 31.0328 183.046 31.1016C183.183 31.1188 183.328 31.1446 183.473 31.1618C183.549 31.1705 183.626 31.1791 183.694 31.1963C183.771 31.1963 183.848 31.2049 183.924 31.2135C184.555 31.2651 185.279 31.2135 186.038 31.0242C186.796 30.8348 187.606 30.4992 188.373 29.9742C189.14 29.4493 189.89 28.7436 190.487 27.8486C190.631 27.6248 190.793 27.4011 190.921 27.1515C190.989 27.031 191.058 26.9106 191.117 26.7815C191.177 26.6524 191.237 26.5233 191.296 26.3942C191.322 26.3254 191.356 26.2651 191.381 26.1963L191.458 25.9897C191.509 25.852 191.56 25.7143 191.612 25.5767C191.654 25.4304 191.697 25.2927 191.731 25.1464L191.791 24.9312C191.808 24.8538 191.825 24.7849 191.842 24.7075C191.876 24.5612 191.901 24.4063 191.935 24.26C191.961 24.1051 191.978 23.9501 191.995 23.7952L192.021 23.5629C192.021 23.4854 192.029 23.408 192.038 23.3305C192.038 23.1756 192.055 23.0121 192.063 22.8572C192.063 22.6937 192.055 22.5388 192.046 22.3753V22.1343L192.012 21.8933C191.995 21.7298 191.978 21.5663 191.961 21.4028C191.927 21.2393 191.901 21.0758 191.867 20.9123C191.85 20.8262 191.833 20.7488 191.816 20.6627L191.748 20.4217C191.705 20.2582 191.663 20.0947 191.612 19.9312C191.552 19.7677 191.492 19.6128 191.441 19.4493C191.407 19.3718 191.381 19.2858 191.347 19.2083L191.245 18.976C191.177 18.8211 191.1 18.6575 191.032 18.5026C190.947 18.3477 190.862 18.2014 190.776 18.0465L190.649 17.8142L190.504 17.599C190.41 17.4527 190.308 17.3064 190.214 17.1601C189.796 16.5921 189.353 16.0414 188.825 15.5422C188.578 15.2841 188.296 15.0603 188.024 14.8193C187.887 14.7075 187.742 14.5956 187.597 14.4837C187.453 14.3718 187.308 14.26 187.154 14.1653C187.001 14.062 186.856 13.9588 186.703 13.8555C186.549 13.7608 186.387 13.6662 186.234 13.5715L185.995 13.4338L185.748 13.3047C185.586 13.2187 185.424 13.1326 185.254 13.0465C185.083 12.9691 184.921 12.8916 184.751 12.8142L184.495 12.7023L184.24 12.599C184.069 12.5302 183.89 12.4613 183.72 12.3925C183.541 12.3322 183.362 12.272 183.191 12.2118C183.012 12.1515 182.833 12.0999 182.654 12.0483C182.475 11.9966 182.288 11.9364 182.109 11.8933C181.743 11.8073 181.368 11.7126 180.993 11.6438C180.243 11.4889 179.476 11.3942 178.691 11.3426C177.132 11.2307 175.521 11.3168 173.91 11.6352C173.101 11.7901 172.3 12.0224 171.507 12.3064C170.714 12.599 169.93 12.9691 169.18 13.4338L168.899 13.6059L168.626 13.7952C168.447 13.9243 168.26 14.0448 168.081 14.1911L167.817 14.4063C167.732 14.4751 167.638 14.544 167.561 14.6214C167.399 14.7677 167.237 14.9226 167.075 15.0689C166.445 15.6885 165.831 16.3512 165.311 17.1085C164.783 17.8572 164.28 18.7178 163.879 19.6989C163.479 20.6799 163.172 21.7901 163.036 22.9777C162.754 25.3529 163.112 28.0379 164.254 30.5508C164.527 31.1877 164.868 31.7987 165.217 32.4097C165.592 33.0121 165.993 33.6059 166.445 34.1739C166.888 34.7505 167.391 35.2841 167.911 35.809C168.183 36.0586 168.447 36.3254 168.737 36.5577C168.882 36.6782 169.018 36.8073 169.172 36.9192C169.317 37.031 169.47 37.1515 169.624 37.2634C169.768 37.3839 169.93 37.4872 170.084 37.599C170.237 37.7023 170.399 37.8142 170.552 37.9174C170.868 38.1154 171.183 38.3047 171.498 38.5026C171.66 38.5973 171.814 38.7006 171.976 38.7952C172.138 38.8899 172.308 38.976 172.47 39.0706C172.632 39.1653 172.802 39.26 172.964 39.346C173.126 39.4407 173.297 39.5353 173.467 39.6128C173.808 39.7849 174.158 39.957 174.498 40.1292C174.848 40.2927 175.214 40.439 175.572 40.5939C175.93 40.7574 176.297 40.8865 176.672 41.0156C176.859 41.0844 177.047 41.1532 177.226 41.2135C177.413 41.2823 177.601 41.334 177.797 41.3856C177.984 41.4458 178.18 41.4975 178.368 41.5577C178.555 41.618 178.751 41.6696 178.947 41.7126C179.339 41.7987 179.731 41.8933 180.123 41.9794C180.515 42.0483 180.916 42.1171 181.316 42.1859C181.512 42.229 181.717 42.2462 181.922 42.2634C182.126 42.2892 182.322 42.3064 182.527 42.3322C184.137 42.4958 185.774 42.5388 187.41 42.4872C187.819 42.4872 188.228 42.4527 188.637 42.4269L189.251 42.3925L189.864 42.3409C190.274 42.3064 190.683 42.272 191.092 42.2376C191.501 42.1946 191.91 42.1515 192.319 42.1085C192.728 42.0655 193.137 42.0224 193.546 41.9708C193.955 41.9192 194.364 41.8675 194.773 41.8245C195.191 41.7643 195.6 41.704 196.018 41.6352L196.64 41.5405C196.844 41.5061 197.049 41.4631 197.262 41.42C197.671 41.3426 198.089 41.2565 198.498 41.1791C198.907 41.093 199.316 40.9897 199.725 40.8951C200.552 40.7143 201.353 40.4734 202.171 40.2582C202.58 40.1464 202.972 40.0173 203.381 39.8968C203.782 39.7677 204.191 39.6558 204.583 39.5181C205.375 39.2427 206.177 38.9846 206.961 38.6834C208.537 38.1154 210.08 37.4699 211.614 36.8331C213.139 36.1791 214.656 35.5078 216.139 34.8279C217.631 34.1481 219.097 33.4596 220.554 32.7884C222.011 32.1085 223.443 31.4631 224.866 30.809C227.713 29.5009 230.449 28.2014 233.116 27.0913C234.446 26.5319 235.767 26.0328 237.062 25.5853C238.357 25.1378 239.644 24.7763 240.889 24.4665C243.326 23.9071 245.678 23.6403 247.826 23.7264L247.869 23.778ZM250.655 24.1051C250.826 24.1997 250.979 24.2858 251.09 24.3546C251.107 24.3632 251.124 24.3718 251.15 24.389C250.988 24.3288 250.826 24.26 250.655 24.1911C250.528 24.1395 250.391 24.0792 250.246 24.0276C250.383 24.0534 250.519 24.0792 250.655 24.1137V24.1051ZM240.778 23.7608C239.491 24.0448 238.178 24.3804 236.849 24.8021C235.519 25.2238 234.173 25.6971 232.818 26.2307C230.099 27.2892 227.321 28.5371 224.457 29.7849C223.025 30.4045 221.56 31.0328 220.102 31.6782C218.636 32.3236 217.153 32.9777 215.662 33.6231C214.171 34.2772 212.654 34.9054 211.137 35.525C209.611 36.1274 208.069 36.7298 206.517 37.2634C205.742 37.5474 204.958 37.7884 204.174 38.0379C203.782 38.167 203.39 38.2703 202.989 38.3908C202.597 38.5026 202.205 38.6317 201.804 38.7264C201.012 38.9243 200.219 39.1481 199.418 39.303C199.018 39.389 198.626 39.4837 198.225 39.5612C197.824 39.63 197.424 39.7075 197.023 39.7763C196.827 39.8107 196.623 39.8538 196.427 39.8796L195.822 39.957C195.421 40.0087 195.021 40.0603 194.62 40.1205C194.211 40.1636 193.81 40.2066 193.401 40.2496C193.001 40.2927 192.592 40.3357 192.191 40.3701C192.097 40.3701 192.004 40.3873 191.91 40.3959C191.918 40.3959 191.927 40.3959 191.944 40.3873C192.362 40.2324 192.898 40.155 193.538 40.0775C194.185 40.0087 194.901 39.8279 195.694 39.6644C197.288 39.3374 199.145 38.735 201.165 37.9347C203.16 37.0655 205.273 35.9725 207.438 34.7677C210.395 33.1326 213.114 31.5577 215.475 30.2668C216.659 29.6386 217.733 29.0362 218.713 28.5715C219.199 28.3305 219.651 28.0982 220.068 27.8916C220.494 27.6937 220.878 27.5216 221.227 27.3581C221.594 27.2376 221.994 27.0999 222.437 26.9536C222.881 26.8073 223.366 26.661 223.878 26.4975C224.909 26.1791 226.085 25.8004 227.363 25.4131C229.92 24.6472 232.92 23.7694 236.184 23.2703C237.386 23.0982 238.553 22.9519 239.695 22.9002C240.266 22.8572 240.82 22.8744 241.374 22.8572C241.647 22.8572 241.92 22.8744 242.184 22.883C242.448 22.8916 242.721 22.883 242.977 22.9174C243.752 22.9691 244.494 23.0637 245.201 23.1842C243.786 23.2617 242.312 23.4596 240.795 23.7694L240.778 23.7608Z" fill="url(#paint13_linear_4048_2562)"/>
<path d="M227.371 20.8434C227.116 20.9295 226.869 21.0069 226.613 21.0844C226.391 21.1618 226.161 21.2221 225.94 21.2823C225.709 21.3426 225.488 21.42 225.258 21.4717C224.806 21.5835 224.346 21.7126 223.894 21.8073C223.664 21.8589 223.434 21.9106 223.212 21.9536C222.982 21.9966 222.752 22.031 222.522 22.0741C222.411 22.0913 222.292 22.1171 222.181 22.1343L221.84 22.1773C221.61 22.2118 221.38 22.2376 221.15 22.272C220.92 22.2978 220.681 22.3236 220.451 22.3408C220.221 22.3667 219.991 22.3925 219.761 22.4097C219.71 22.4097 219.65 22.4183 219.599 22.4269C219.599 22.4269 219.607 22.4269 219.616 22.4269C219.82 22.3581 220.068 22.315 220.357 22.272C220.102 22.2978 219.837 22.3236 219.573 22.3322C219.497 22.3667 219.428 22.4097 219.369 22.4527C219.266 22.4613 219.164 22.4699 219.07 22.4785C218.84 22.4958 218.61 22.5044 218.38 22.5216L218.039 22.5388H217.698C217.468 22.556 217.247 22.5732 217.017 22.5732C216.113 22.5904 215.227 22.5474 214.358 22.4527C214.247 22.4355 214.144 22.4269 214.034 22.4097C213.923 22.3925 213.821 22.3839 213.71 22.3581C213.497 22.315 213.284 22.2806 213.079 22.2376C212.875 22.1859 212.662 22.1343 212.457 22.0827C212.355 22.0569 212.252 22.031 212.15 21.9966C212.048 21.9622 211.946 21.9364 211.852 21.902C211.75 21.8675 211.647 21.8417 211.554 21.8073C211.46 21.7729 211.358 21.7298 211.264 21.6954C211.068 21.618 210.872 21.5491 210.684 21.4631C210.497 21.377 210.309 21.2995 210.122 21.2049C209.934 21.1102 209.755 21.0155 209.576 20.9209C209.483 20.8779 209.397 20.8262 209.312 20.7746C209.227 20.7229 209.133 20.6713 209.048 20.6197C208.963 20.568 208.869 20.5164 208.784 20.4648C208.699 20.4131 208.613 20.3529 208.528 20.3013C208.358 20.1894 208.187 20.0861 208.017 19.9742C207.932 19.9226 207.863 19.8624 207.778 19.8107C207.701 19.7591 207.625 19.6989 207.548 19.6386C207.471 19.5784 207.395 19.5181 207.326 19.4665C207.25 19.4063 207.182 19.346 207.113 19.2772C206.969 19.1567 206.841 19.019 206.704 18.8899C206.44 18.6231 206.193 18.3477 205.98 18.0637C205.75 17.7797 205.562 17.4785 205.375 17.1773C205.204 16.8675 205.034 16.5663 204.906 16.2565C204.77 15.9467 204.659 15.6283 204.565 15.3185C204.523 15.1636 204.48 15.0087 204.446 14.8451C204.42 14.6902 204.378 14.5353 204.361 14.3804C204.267 13.7608 204.267 13.167 204.335 12.6076C204.403 12.0482 204.548 11.5405 204.736 11.0758C204.923 10.6197 205.162 10.2152 205.409 9.86236C205.656 9.50092 205.946 9.1825 206.253 8.88129C206.329 8.80384 206.415 8.735 206.491 8.65754C206.534 8.62312 206.568 8.5887 206.611 8.55427L206.73 8.45961C206.807 8.39076 206.892 8.33913 206.977 8.27888L207.105 8.19283L207.241 8.11537C207.591 7.90023 207.966 7.7109 208.358 7.5732C208.75 7.42691 209.142 7.30642 209.551 7.22897C210.36 7.06546 211.179 7.00522 211.98 7.04825C212.38 7.07406 212.772 7.10849 213.156 7.18594C213.352 7.21176 213.539 7.26339 213.727 7.30642C213.821 7.32363 213.914 7.35806 214.008 7.38388C214.102 7.40969 214.196 7.43551 214.281 7.46133C215.738 7.90023 216.999 8.72639 217.809 9.78491C217.86 9.85376 217.903 9.9226 217.954 9.99145L218.022 10.0947L218.082 10.198C218.124 10.2668 218.167 10.3357 218.21 10.4045C218.244 10.4734 218.278 10.5508 218.32 10.6197L218.372 10.7229C218.372 10.7229 218.406 10.8004 218.414 10.8348C218.44 10.9123 218.474 10.9811 218.499 11.05C218.525 11.1274 218.551 11.1963 218.568 11.2737L218.602 11.3856C218.602 11.3856 218.619 11.463 218.627 11.4975C218.644 11.5749 218.661 11.6438 218.678 11.7212C218.687 11.7987 218.704 11.8761 218.713 11.945L218.73 12.0569V12.1687C218.747 12.2462 218.747 12.315 218.755 12.3925C218.755 12.4699 218.755 12.5388 218.755 12.6162C218.755 12.6507 218.755 12.6937 218.755 12.7281V12.84C218.738 12.9088 218.738 12.9863 218.73 13.0551C218.721 13.124 218.704 13.1928 218.695 13.2703C218.695 13.3047 218.687 13.3391 218.678 13.3735L218.653 13.4768C218.636 13.5457 218.619 13.6145 218.602 13.6834C218.585 13.7522 218.559 13.8124 218.542 13.8813L218.508 13.976C218.508 13.976 218.482 14.0362 218.474 14.0706C218.448 14.1309 218.423 14.1997 218.397 14.26C218.372 14.3202 218.338 14.3804 218.312 14.4407C218.261 14.5612 218.193 14.673 218.124 14.7849C217.86 15.2238 217.528 15.5853 217.178 15.8692C216.829 16.1446 216.446 16.3426 216.088 16.4717C215.721 16.5921 215.372 16.661 215.048 16.6696C215.005 16.6696 214.971 16.6696 214.929 16.6696C214.886 16.6696 214.852 16.6696 214.809 16.6696C214.733 16.6696 214.656 16.6696 214.588 16.6696C214.545 16.6696 214.502 16.661 214.46 16.661C215.073 16.3512 215.465 15.6713 215.389 14.9226C215.295 13.976 214.468 13.2875 213.556 13.3822C212.636 13.4854 211.971 14.3288 212.073 15.284C212.159 16.136 212.823 16.7729 213.625 16.8245C213.659 16.8417 213.701 16.8589 213.744 16.8761C213.855 16.9192 213.974 16.9622 214.102 17.0052C214.23 17.0482 214.383 17.0827 214.536 17.1171C214.613 17.1257 214.698 17.1429 214.784 17.1515C214.826 17.1515 214.869 17.1601 214.911 17.1687C214.954 17.1687 214.997 17.1687 215.048 17.1687C215.414 17.2032 215.823 17.1687 216.258 17.0655C216.693 16.9622 217.153 16.7643 217.596 16.463C218.039 16.1618 218.465 15.7574 218.806 15.2496C218.891 15.1205 218.977 14.9914 219.053 14.8451C219.087 14.7763 219.13 14.7075 219.164 14.63C219.198 14.5526 219.232 14.4837 219.266 14.4063C219.284 14.3718 219.301 14.3288 219.318 14.2944L219.36 14.1739C219.386 14.0964 219.42 14.019 219.445 13.9329C219.471 13.8555 219.497 13.7694 219.514 13.6834L219.548 13.5629C219.548 13.5629 219.565 13.4768 219.573 13.4338C219.59 13.3477 219.607 13.2617 219.624 13.1756C219.641 13.0896 219.65 13.0035 219.658 12.9088L219.676 12.7711C219.676 12.7281 219.676 12.6851 219.676 12.6334C219.676 12.5388 219.676 12.4527 219.684 12.3581C219.684 12.2634 219.684 12.1773 219.684 12.0827V11.945L219.667 11.8073C219.659 11.7126 219.65 11.618 219.633 11.5233C219.616 11.4286 219.599 11.334 219.582 11.2393C219.573 11.1963 219.565 11.1446 219.556 11.1016L219.522 10.9639C219.497 10.8692 219.471 10.7746 219.445 10.6799C219.411 10.5853 219.377 10.4992 219.343 10.4045C219.326 10.3615 219.309 10.3099 219.292 10.2668L219.232 10.1291C219.19 10.0431 219.147 9.94842 219.105 9.86236C219.053 9.7763 219.011 9.69024 218.96 9.60419L218.883 9.4751L218.798 9.34601C218.747 9.25995 218.687 9.1825 218.636 9.09644C218.397 8.76942 218.142 8.451 217.843 8.17561C217.698 8.02931 217.536 7.90023 217.383 7.76253C217.306 7.69369 217.221 7.63345 217.136 7.5732C217.051 7.51296 216.974 7.44412 216.88 7.39248C216.795 7.33224 216.71 7.272 216.616 7.22037C216.522 7.16873 216.437 7.10849 216.343 7.05685L216.207 6.9794L216.071 6.90195C215.977 6.85031 215.883 6.80728 215.789 6.75565C215.696 6.71262 215.593 6.66959 215.5 6.62656L215.355 6.55771L215.21 6.49747C215.107 6.45444 215.014 6.42002 214.911 6.37699C214.809 6.34257 214.707 6.30814 214.605 6.27372C214.502 6.2393 214.4 6.20487 214.298 6.17906C214.196 6.15324 214.093 6.11882 213.983 6.093C213.769 6.04136 213.556 5.98973 213.343 5.9467C212.909 5.86064 212.474 5.809 212.022 5.77458C211.127 5.71434 210.207 5.75737 209.287 5.93809C208.826 6.02415 208.366 6.16184 207.906 6.32536C207.446 6.48887 207.003 6.70401 206.568 6.9708L206.406 7.06546L206.253 7.17734C206.15 7.25479 206.04 7.32364 205.946 7.40109L205.792 7.52157C205.741 7.5646 205.69 7.59902 205.648 7.64205C205.554 7.72811 205.46 7.81417 205.366 7.90023C205.008 8.25307 204.65 8.63172 204.361 9.07062C204.062 9.50092 203.773 9.99145 203.542 10.5594C203.312 11.1274 203.133 11.7556 203.057 12.4355C202.895 13.7952 203.099 15.3357 203.756 16.7729C203.909 17.1343 204.105 17.4871 204.309 17.84C204.523 18.1842 204.753 18.5285 205.017 18.8469C205.273 19.1739 205.562 19.4837 205.861 19.7849C206.014 19.9312 206.167 20.0775 206.338 20.2152C206.423 20.284 206.5 20.3529 206.585 20.4217C206.67 20.4906 206.755 20.5508 206.841 20.6197C206.926 20.6885 207.011 20.7488 207.105 20.809C207.199 20.8692 207.284 20.9381 207.378 20.9897C207.557 21.1016 207.736 21.2135 207.915 21.3254C208.008 21.377 208.093 21.4372 208.187 21.4975C208.281 21.5491 208.375 21.6007 208.468 21.6524C208.562 21.704 208.656 21.7556 208.75 21.8159C208.843 21.8675 208.937 21.9278 209.039 21.9708C209.235 22.0655 209.432 22.1687 209.636 22.2634C209.832 22.3581 210.045 22.4441 210.25 22.5302C210.454 22.6248 210.667 22.6937 210.88 22.7711C210.983 22.8056 211.093 22.8486 211.204 22.883C211.306 22.926 211.426 22.9519 211.528 22.9863C211.639 23.0207 211.75 23.0551 211.86 23.081C211.971 23.1154 212.082 23.1498 212.193 23.167C212.414 23.2186 212.644 23.2703 212.866 23.3219C213.096 23.3649 213.318 23.3994 213.548 23.4424C213.659 23.4682 213.778 23.4768 213.889 23.4854C214.008 23.5026 214.119 23.5112 214.238 23.5285C215.159 23.6231 216.096 23.6489 217.034 23.6145C217.272 23.6145 217.502 23.5887 217.732 23.5801L218.082 23.5629L218.431 23.5371C218.661 23.5198 218.9 23.5026 219.139 23.4768C219.369 23.451 219.607 23.4252 219.846 23.408C220.085 23.3822 220.315 23.3563 220.553 23.3305C220.792 23.3047 221.022 23.2703 221.261 23.2445C221.499 23.21 221.738 23.1756 221.977 23.1412L222.335 23.0896C222.454 23.0723 222.573 23.0465 222.693 23.0207C222.931 22.9777 223.161 22.926 223.4 22.883C223.639 22.8314 223.869 22.7711 224.107 22.7195C224.576 22.6162 225.045 22.4785 225.505 22.3495C225.735 22.2892 225.965 22.2118 226.195 22.1429C226.425 22.0655 226.655 22.0052 226.886 21.9278C227.337 21.7729 227.797 21.618 228.249 21.4458C228.565 21.334 228.88 21.2049 229.187 21.0844C229.204 20.8865 229.229 20.6885 229.255 20.4906C228.633 20.6111 228.011 20.7143 227.388 20.809L227.371 20.8434Z" fill="url(#paint14_linear_4048_2562)"/>
<path d="M256.595 32.0569C254.328 28.7695 249.88 26.4287 245.721 25.8004C241.476 25.1636 237.173 26.6266 233.482 28.5199C229.153 30.7402 225.241 33.5801 221.125 36.1189C217.221 38.5199 212.926 40.7488 208.162 40.9381C207.625 40.9553 207.131 41.2307 207.122 41.6094C206.875 41.9364 207.088 42.4614 207.523 42.7712C210.796 45.1034 215.491 45.0948 219.378 43.9932C223.383 42.8572 225.599 39.2858 227.576 36.0672C227.764 37.9433 228.267 39.7591 229.929 41.0156C230.653 41.5664 232.988 42.5474 231.36 40.0517C229.664 37.4356 232.059 34.0018 234.079 31.7643C236.491 29.0879 240.462 27.8658 244.067 27.4356C244.17 27.427 244.255 27.3925 244.34 27.3667C244.698 27.3839 245.056 27.4097 245.414 27.4528C252.283 28.2961 256.578 33.5285 257.473 39.4321C258.172 44.0362 257.388 50.4734 252.607 53.2445C250.502 54.4665 247.732 54.4149 245.576 53.5543C245.15 53.3822 244.519 52.7712 244.144 52.3925C243.164 51.4115 242.9 49.587 243.283 48.0552C245.141 48.8211 247.715 48.3736 249.59 47.556C252.087 46.4631 253.843 43.6318 252.624 41.6266C252.573 41.4803 252.513 41.3426 252.428 41.2221C252.377 40.964 252.172 40.7402 251.908 40.6025C246.59 37.9691 241.28 41.2479 239.917 46.3168C238.391 51.9794 243.428 55.766 249.232 55.766C254.712 55.766 257.865 51.1189 258.973 46.7729C260.209 41.9192 259.51 36.2479 256.621 32.0569H256.595ZM250.067 44.3202C250.067 44.3202 250.11 44.3116 250.127 44.303C250.101 44.3288 250.067 44.3633 250.042 44.3891C250.05 44.3633 250.059 44.3375 250.067 44.3202Z" fill="url(#paint15_linear_4048_2562)"/>
<path d="M278.123 24.5267C279.376 24.8365 280.654 25.198 281.95 25.6455C283.245 26.093 284.566 26.5921 285.896 27.1515C288.563 28.2617 291.299 29.5612 294.145 30.8692C295.577 31.5233 297.009 32.1687 298.458 32.8486C299.915 33.5198 301.381 34.2083 302.872 34.8882C304.355 35.568 305.872 36.2393 307.398 36.8933C308.932 37.5302 310.474 38.1756 312.051 38.7436C312.835 39.0448 313.636 39.303 314.429 39.5784C314.821 39.7161 315.23 39.8279 315.631 39.957C316.031 40.0775 316.432 40.2152 316.841 40.3185C317.65 40.5422 318.46 40.7746 319.287 40.9553C319.696 41.05 320.105 41.1532 320.514 41.2393C320.923 41.3167 321.341 41.4028 321.75 41.4803C321.954 41.5147 322.159 41.5663 322.372 41.6007L322.994 41.6954C323.412 41.7557 323.821 41.8159 324.238 41.8847C324.647 41.9364 325.056 41.988 325.466 42.031C325.875 42.0827 326.284 42.1257 326.693 42.1687C327.102 42.2118 327.511 42.2548 327.92 42.2978C328.329 42.3322 328.738 42.3667 329.147 42.4011L329.761 42.4527L330.374 42.4871C330.784 42.5044 331.193 42.5388 331.602 42.5474C333.238 42.599 334.874 42.556 336.485 42.3925C336.69 42.3667 336.886 42.3495 337.09 42.3236C337.295 42.2978 337.491 42.2806 337.695 42.2462C338.096 42.1773 338.488 42.1085 338.888 42.0396C339.28 41.9536 339.672 41.8589 340.065 41.7729C340.261 41.7298 340.448 41.6782 340.644 41.618C340.832 41.5577 341.028 41.5061 341.215 41.4458C341.403 41.3856 341.599 41.3426 341.786 41.2737C341.974 41.2049 342.161 41.136 342.34 41.0758C342.715 40.9381 343.082 40.8176 343.439 40.6541C343.797 40.4992 344.164 40.3529 344.513 40.1894C344.863 40.0173 345.204 39.8451 345.545 39.673C345.715 39.587 345.885 39.5009 346.047 39.4063C346.209 39.3116 346.38 39.2169 346.542 39.1309C346.704 39.0362 346.874 38.9501 347.036 38.8555C347.198 38.7608 347.351 38.6575 347.513 38.5629C347.829 38.3649 348.144 38.167 348.459 37.9777C348.613 37.8744 348.775 37.7625 348.928 37.6593C349.081 37.5474 349.243 37.4441 349.388 37.3236C349.542 37.2118 349.686 37.0913 349.84 36.9794C349.985 36.8589 350.13 36.7384 350.274 36.618C350.564 36.377 350.828 36.1188 351.101 35.8692C351.63 35.3443 352.124 34.8107 352.567 34.2341C353.027 33.6748 353.419 33.0723 353.794 32.4699C354.152 31.8589 354.493 31.2479 354.757 30.6111C355.891 28.0982 356.257 25.4045 355.976 23.0379C355.831 21.8503 355.533 20.7402 355.132 19.7591C354.732 18.7694 354.229 17.9088 353.701 17.1687C353.181 16.4114 352.567 15.7574 351.936 15.1291C351.774 14.9828 351.613 14.8279 351.451 14.6816C351.374 14.6042 351.289 14.5353 351.195 14.4665L350.931 14.2513C350.76 14.105 350.573 13.9846 350.394 13.8555L350.121 13.6661L349.84 13.494C349.09 13.0293 348.306 12.6593 347.513 12.3667C346.721 12.0741 345.911 11.8503 345.11 11.6954C343.499 11.377 341.888 11.2995 340.329 11.4028C339.545 11.4544 338.778 11.5491 338.028 11.704C337.653 11.7729 337.278 11.8675 336.911 11.9536C336.724 11.9966 336.545 12.0569 336.366 12.1085C336.187 12.1601 335.999 12.2118 335.829 12.272C335.65 12.3322 335.471 12.3925 335.3 12.4527C335.121 12.5216 334.951 12.5904 334.781 12.6593L334.525 12.7625L334.269 12.8744C334.099 12.9519 333.928 13.0293 333.766 13.1068C333.604 13.1928 333.434 13.2789 333.272 13.3649L333.025 13.494L332.786 13.6317C332.633 13.7264 332.471 13.8211 332.318 13.9157C332.164 14.019 332.011 14.1223 331.866 14.2255C331.712 14.3202 331.568 14.4321 331.423 14.5439C331.278 14.6558 331.133 14.7591 330.997 14.8796C330.724 15.1205 330.443 15.3443 330.195 15.6025C329.676 16.093 329.224 16.6524 328.806 17.2204C328.713 17.3667 328.61 17.513 328.517 17.6593L328.372 17.8744L328.244 18.1068C328.159 18.2617 328.073 18.408 327.988 18.5629C327.911 18.7178 327.843 18.8813 327.775 19.0362L327.673 19.2686C327.639 19.346 327.613 19.4321 327.579 19.5095C327.519 19.673 327.46 19.8279 327.409 19.9914C327.358 20.155 327.315 20.3185 327.272 20.482L327.204 20.7229C327.187 20.8004 327.17 20.8865 327.153 20.9725C327.119 21.136 327.093 21.2995 327.059 21.4631C327.042 21.6266 327.025 21.7901 327.008 21.9536L326.983 22.1945V22.4355C326.974 22.599 326.965 22.7625 326.965 22.9174C326.965 23.0809 326.983 23.2359 326.991 23.3908C326.991 23.4682 326.991 23.5457 327.008 23.6231L327.034 23.8555C327.051 24.0104 327.068 24.1653 327.093 24.3202C327.127 24.4751 327.153 24.6214 327.187 24.7677C327.204 24.8452 327.213 24.914 327.238 24.9915L327.298 25.2066C327.34 25.3529 327.383 25.4906 327.417 25.6369C327.468 25.7746 327.519 25.9123 327.571 26.05L327.647 26.2565C327.673 26.3254 327.707 26.3856 327.732 26.4544C327.792 26.5835 327.852 26.7126 327.911 26.8417C327.971 26.9708 328.048 27.0913 328.107 27.2118C328.235 27.4613 328.389 27.6851 328.542 27.9088C329.147 28.8038 329.889 29.5009 330.656 30.0345C331.431 30.5594 332.232 30.9037 332.991 31.0844C333.758 31.2651 334.474 31.3254 335.104 31.2737C335.181 31.2737 335.258 31.2737 335.335 31.2565C335.411 31.2479 335.488 31.2307 335.556 31.2221C335.701 31.1963 335.846 31.1791 335.982 31.1618C336.255 31.093 336.511 31.0414 336.741 30.9639C336.962 30.8865 337.175 30.809 337.363 30.7402C337.431 30.7057 337.499 30.6713 337.567 30.6455C338.957 30.5508 340.124 29.4407 340.269 27.9519C340.44 26.2909 339.28 24.8107 337.678 24.6386C336.076 24.4665 334.644 25.6627 334.474 27.3236C334.337 28.6231 335.028 29.8107 336.102 30.3529C336.033 30.3529 335.957 30.3701 335.889 30.3787C335.761 30.3787 335.633 30.3787 335.496 30.3787C335.428 30.3787 335.36 30.3787 335.292 30.3787C335.224 30.3787 335.156 30.3701 335.087 30.3615C334.525 30.3443 333.911 30.2324 333.272 30.0087C332.633 29.7935 331.977 29.4493 331.363 28.9587C330.749 28.4682 330.161 27.8486 329.701 27.0741C329.59 26.8761 329.471 26.6868 329.377 26.4717C329.326 26.3684 329.275 26.2651 329.232 26.1532C329.19 26.0414 329.147 25.9381 329.105 25.8262C329.088 25.7746 329.062 25.7143 329.036 25.6627L328.985 25.4906C328.951 25.3787 328.917 25.2582 328.875 25.1464C328.849 25.0259 328.823 24.9054 328.789 24.7849L328.747 24.6042C328.738 24.5439 328.73 24.4837 328.721 24.4235C328.704 24.303 328.679 24.1739 328.661 24.0534C328.653 23.9243 328.644 23.8038 328.627 23.6748L328.61 23.4854C328.61 23.4252 328.61 23.3563 328.61 23.2961C328.61 23.167 328.61 23.0379 328.61 22.9088C328.619 22.7797 328.627 22.6507 328.636 22.5216L328.653 22.3236L328.678 22.1257C328.696 21.9966 328.721 21.8675 328.738 21.7298C328.772 21.6007 328.798 21.4717 328.832 21.3426C328.849 21.2737 328.857 21.2135 328.875 21.1446L328.934 20.9467C328.977 20.8176 329.011 20.6885 329.053 20.5594C329.105 20.4303 329.156 20.3013 329.207 20.1808C329.232 20.1205 329.258 20.0517 329.284 19.9914L329.377 19.8021C329.437 19.673 329.505 19.5526 329.565 19.4235C329.642 19.303 329.71 19.1825 329.786 19.062L329.897 18.8813L330.025 18.7006C330.11 18.5801 330.195 18.4596 330.272 18.3477C331.687 16.4889 333.877 15.0517 336.425 14.2858C336.579 14.2341 336.741 14.1911 336.903 14.1481C337.065 14.105 337.227 14.0534 337.388 14.019C337.721 13.9501 338.045 13.8641 338.386 13.8124C339.059 13.692 339.749 13.6145 340.44 13.5801C341.829 13.5026 343.26 13.5973 344.675 13.8899C345.383 14.0362 346.073 14.2427 346.755 14.4923C347.436 14.7419 348.084 15.0603 348.698 15.4476L348.928 15.5853L349.15 15.7402C349.294 15.8434 349.448 15.9467 349.584 16.0586L349.797 16.2307C349.865 16.2823 349.934 16.3426 350.002 16.4114C350.138 16.5405 350.274 16.6696 350.419 16.7987C350.956 17.3322 351.468 17.883 351.894 18.5112C352.328 19.1309 352.737 19.8365 353.07 20.6369C353.402 21.4372 353.649 22.3322 353.769 23.3047C353.888 24.2772 353.879 25.3185 353.726 26.3942C353.692 26.661 353.632 26.9364 353.581 27.2032C353.53 27.4785 353.445 27.7453 353.377 28.0207C353.206 28.5629 353.027 29.1137 352.78 29.6558C352.55 30.2066 352.26 30.7402 351.962 31.2737C351.638 31.7987 351.297 32.3236 350.905 32.8142C350.522 33.3219 350.087 33.7952 349.635 34.26C349.397 34.4837 349.167 34.7161 348.919 34.9312C348.792 35.0345 348.672 35.1464 348.544 35.2582C348.417 35.3615 348.28 35.4648 348.152 35.568C348.025 35.6713 347.888 35.766 347.752 35.8692C347.615 35.9639 347.479 36.0672 347.343 36.1618C347.053 36.3512 346.755 36.5405 346.456 36.7298C346.312 36.8245 346.158 36.9278 346.005 37.0138C345.851 37.0999 345.698 37.1945 345.545 37.2806C345.391 37.3667 345.238 37.4613 345.084 37.5474C344.931 37.6334 344.777 37.7281 344.616 37.8056C344.3 37.9691 343.976 38.1326 343.661 38.2961C343.337 38.451 343.005 38.5887 342.681 38.7436C342.357 38.8985 342.016 39.019 341.675 39.1481C341.505 39.2083 341.334 39.2772 341.164 39.3374C340.993 39.4063 340.815 39.4493 340.644 39.5095C340.465 39.5612 340.295 39.6214 340.116 39.673C339.937 39.7247 339.766 39.7849 339.587 39.8279C339.229 39.914 338.871 40.0087 338.505 40.0947C338.138 40.1636 337.772 40.2324 337.406 40.3013C337.218 40.3443 337.031 40.3615 336.843 40.3873C336.656 40.4131 336.468 40.439 336.281 40.4648C334.772 40.6455 333.221 40.7143 331.644 40.6799C331.252 40.6799 330.852 40.6541 330.46 40.6455L329.863 40.6283L329.267 40.5939C328.866 40.568 328.465 40.5422 328.065 40.5164C327.894 40.4992 327.715 40.482 327.536 40.4734C327.426 40.3959 327.315 40.3271 327.179 40.2582C326.761 40.0431 326.207 39.9054 325.585 39.7505C324.963 39.6214 324.272 39.3632 323.505 39.1395C321.971 38.6748 320.19 37.9519 318.264 37.0741C316.372 36.1274 314.31 34.9914 312.136 33.7866C309.188 32.1601 306.384 30.6885 303.929 29.5439C302.693 28.9932 301.568 28.4768 300.546 28.0982C300.034 27.9002 299.566 27.7195 299.131 27.5474C298.688 27.4011 298.279 27.2634 297.921 27.1429C297.571 26.9794 297.179 26.8073 296.753 26.6093C296.327 26.42 295.858 26.2307 295.356 26.0155C294.35 25.6025 293.208 25.1291 291.947 24.6558C289.424 23.7092 286.407 22.6851 283.041 22.1687C281.805 21.988 280.586 21.8589 279.401 21.8417C278.813 21.8073 278.225 21.8417 277.663 21.8503C277.382 21.8589 277.1 21.8933 276.819 21.9106C276.538 21.9364 276.265 21.945 276.001 21.988C274.058 22.2118 272.362 22.7367 270.93 23.2531C270.623 23.2789 270.325 23.3047 270.027 23.3391C270.649 23.0551 271.382 22.7539 272.225 22.4527C272.413 22.3839 272.6 22.3236 272.788 22.2548C272.984 22.1945 273.18 22.1257 273.385 22.0655C273.785 21.9278 274.211 21.8159 274.646 21.6868C275.524 21.4544 276.47 21.2135 277.475 21.0328C278.481 20.852 279.538 20.6971 280.629 20.6197C281.174 20.5853 281.728 20.568 282.291 20.5766C282.572 20.5853 282.862 20.5939 283.151 20.6025C283.441 20.6111 283.731 20.6455 284.021 20.6627C287.2 20.9209 290.14 21.6007 292.637 22.2634C295.125 22.9433 297.179 23.6231 298.586 24.0964C299.259 24.4235 300.086 24.8021 301.023 25.284C301.96 25.766 303.017 26.3168 304.176 26.9019C305.318 27.5388 306.546 28.2272 307.858 28.9329C309.153 29.6902 310.517 30.482 311.923 31.2995C312.954 31.9192 313.96 32.513 314.94 33.0809C315.895 33.6489 316.781 34.2686 317.633 34.8624C318.486 35.4648 319.295 36.0414 320.071 36.5663C320.846 37.0913 321.588 37.556 322.27 37.9605C323.659 38.7608 324.86 39.2341 325.713 39.4751C325.926 39.5353 326.113 39.587 326.284 39.6214C326.454 39.6472 326.59 39.673 326.71 39.6989C326.94 39.7419 327.059 39.7591 327.059 39.7591C327.059 39.7591 326.94 39.7247 326.727 39.6472C326.616 39.6128 326.48 39.5698 326.318 39.5181C326.156 39.4579 325.977 39.3804 325.781 39.303C324.971 38.9674 323.855 38.3649 322.576 37.4699C321.937 37.0138 321.247 36.4975 320.522 35.9209C319.798 35.3357 319.014 34.7161 318.196 34.062C317.369 33.4166 316.483 32.7367 315.494 32.1171C314.523 31.5147 313.517 30.9037 312.486 30.2754C311.071 29.4407 309.665 28.692 308.344 27.9691C306.989 27.2978 305.71 26.6782 304.526 26.1188C303.316 25.6111 302.208 25.155 301.228 24.7591C300.247 24.3546 299.378 24.0706 298.679 23.8297C297.333 23.1928 295.347 22.3064 292.867 21.4372C290.387 20.5939 287.404 19.7591 284.097 19.4923C283.791 19.4751 283.492 19.4407 283.194 19.4321C282.896 19.4321 282.597 19.4149 282.299 19.4149C281.702 19.4149 281.106 19.4407 280.535 19.4923C279.384 19.6042 278.293 19.8107 277.271 20.0517C276.248 20.2927 275.294 20.6025 274.407 20.9037C273.973 21.0672 273.546 21.2135 273.146 21.3942C272.95 21.4803 272.754 21.5577 272.558 21.6438C272.37 21.7298 272.183 21.8159 272.004 21.9019C270.828 22.4441 269.89 22.9949 269.183 23.451C268.689 23.5371 268.203 23.6403 267.743 23.778C266.924 24.019 266.166 24.3546 265.51 24.7935C265.569 24.8968 265.629 25.0087 265.663 25.1291C265.663 25.1464 265.68 25.1636 265.689 25.1894C266.319 24.7849 267.061 24.4751 267.87 24.2686C267.947 24.2513 268.024 24.2341 268.101 24.2169C268.032 24.2686 267.964 24.3202 267.913 24.3632C267.845 24.4149 267.794 24.4579 267.751 24.4923C267.419 24.63 267.112 24.7505 266.848 24.8538C266.319 25.0517 265.944 25.198 265.731 25.284C265.731 25.284 265.731 25.3013 265.74 25.3099C265.961 25.2582 266.353 25.1636 266.899 25.0345C267.334 24.914 267.87 24.7677 268.493 24.5956C269.106 24.4149 269.814 24.2169 270.589 23.9932C270.777 23.9415 270.964 23.8899 271.152 23.8383C273.308 23.7608 275.652 24.019 278.089 24.5784L278.123 24.5267ZM268.816 24.019C268.68 24.0792 268.544 24.1309 268.407 24.1825C268.237 24.2513 268.066 24.3202 267.913 24.3804C267.93 24.3718 267.947 24.3632 267.973 24.346C268.084 24.2772 268.228 24.1911 268.407 24.0964C268.544 24.0706 268.68 24.0362 268.816 24.0104V24.019ZM273.879 23.1756C274.586 23.0551 275.328 22.9605 276.103 22.9088C276.359 22.8744 276.632 22.883 276.896 22.8744C277.16 22.8744 277.433 22.8572 277.705 22.8486C278.251 22.8658 278.813 22.8486 279.384 22.8916C280.526 22.9347 281.694 23.081 282.896 23.2617C286.16 23.7608 289.151 24.6386 291.716 25.4045C292.995 25.7918 294.162 26.1705 295.202 26.4889C295.722 26.6524 296.208 26.7987 296.642 26.945C297.086 27.0913 297.486 27.229 297.853 27.3495C298.202 27.513 298.586 27.6851 299.012 27.883C299.429 28.0896 299.881 28.3219 300.367 28.5629C301.347 29.0276 302.421 29.63 303.605 30.2582C305.966 31.5491 308.685 33.1326 311.642 34.7591C313.815 35.9639 315.92 37.0482 317.915 37.926C319.934 38.7264 321.792 39.3288 323.386 39.6558C324.187 39.8193 324.895 40.0001 325.542 40.0689C326.181 40.1464 326.718 40.2238 327.136 40.3787C327.144 40.3787 327.153 40.3787 327.17 40.3873C327.076 40.3873 326.983 40.3701 326.889 40.3615C326.488 40.3271 326.079 40.2927 325.679 40.241C325.278 40.198 324.869 40.155 324.46 40.1119C324.059 40.0603 323.659 40.0087 323.258 39.9484L322.653 39.871C322.449 39.8452 322.253 39.8021 322.057 39.7677C321.656 39.6989 321.255 39.6214 320.855 39.5526C320.454 39.4751 320.062 39.3804 319.662 39.2944C318.861 39.1309 318.068 38.9157 317.275 38.7178C316.875 38.6231 316.483 38.494 316.091 38.3822C315.699 38.2617 315.298 38.1584 314.906 38.0293C314.122 37.7797 313.338 37.5302 312.562 37.2548C311.003 36.7212 309.469 36.1188 307.943 35.5164C306.418 34.8968 304.909 34.26 303.418 33.6145C301.926 32.9691 300.443 32.315 298.978 31.6696C297.512 31.0242 296.046 30.3959 294.623 29.7763C291.759 28.5371 288.989 27.2806 286.262 26.2221C284.907 25.6885 283.552 25.2152 282.231 24.7935C280.901 24.3718 279.589 24.0362 278.302 23.7522C276.794 23.4424 275.319 23.2445 273.896 23.167L273.879 23.1756Z" fill="url(#paint16_linear_4048_2562)"/>
<path d="M291.691 20.8434C291.947 20.9295 292.194 21.0069 292.45 21.0844C292.671 21.1618 292.901 21.2221 293.123 21.2823C293.353 21.3426 293.575 21.42 293.805 21.4717C294.256 21.5835 294.717 21.7126 295.168 21.8073C295.398 21.8589 295.629 21.9106 295.85 21.9536C296.08 21.9966 296.31 22.031 296.54 22.0741C296.651 22.0913 296.771 22.1171 296.881 22.1343L297.222 22.1773C297.452 22.2118 297.682 22.2376 297.913 22.272C298.143 22.2978 298.381 22.3236 298.611 22.3408C298.841 22.3667 299.072 22.3925 299.302 22.4097C299.353 22.4097 299.412 22.4183 299.464 22.4269C299.464 22.4269 299.455 22.4269 299.447 22.4269C299.242 22.3581 298.995 22.315 298.705 22.272C298.961 22.2978 299.225 22.3236 299.489 22.3322C299.566 22.3667 299.634 22.4097 299.694 22.4527C299.796 22.4613 299.898 22.4699 299.992 22.4785C300.222 22.4958 300.452 22.5044 300.682 22.5216L301.023 22.5388H301.364C301.594 22.556 301.816 22.5732 302.046 22.5732C302.949 22.5904 303.836 22.5474 304.705 22.4527C304.816 22.4355 304.918 22.4269 305.029 22.4097C305.14 22.3925 305.242 22.3839 305.353 22.3581C305.566 22.315 305.779 22.2806 305.983 22.2376C306.188 22.1859 306.401 22.1343 306.605 22.0827C306.708 22.0569 306.81 22.031 306.912 21.9966C307.015 21.9622 307.117 21.9364 307.211 21.902C307.313 21.8675 307.415 21.8417 307.509 21.8073C307.603 21.7729 307.705 21.7298 307.799 21.6954C307.995 21.618 308.191 21.5491 308.378 21.4631C308.566 21.377 308.753 21.2995 308.941 21.2049C309.128 21.1102 309.307 21.0155 309.486 20.9209C309.58 20.8779 309.665 20.8262 309.75 20.7746C309.835 20.7229 309.929 20.6713 310.014 20.6197C310.1 20.568 310.193 20.5164 310.279 20.4648C310.364 20.4131 310.449 20.3529 310.534 20.3013C310.705 20.1894 310.875 20.0861 311.046 19.9742C311.131 19.9226 311.199 19.8624 311.284 19.8107C311.361 19.7591 311.438 19.6989 311.514 19.6386C311.591 19.5784 311.668 19.5181 311.736 19.4665C311.813 19.4063 311.881 19.346 311.949 19.2772C312.094 19.1567 312.222 19.019 312.358 18.8899C312.622 18.6231 312.869 18.3477 313.083 18.0637C313.313 17.7797 313.5 17.4785 313.688 17.1773C313.858 16.8675 314.029 16.5663 314.156 16.2565C314.293 15.9467 314.404 15.6283 314.497 15.3185C314.54 15.1636 314.583 15.0087 314.617 14.8451C314.642 14.6902 314.685 14.5353 314.702 14.3804C314.796 13.7608 314.796 13.167 314.727 12.6076C314.659 12.0482 314.514 11.5405 314.327 11.0758C314.139 10.6197 313.901 10.2152 313.654 9.86236C313.406 9.50092 313.117 9.1825 312.81 8.88129C312.733 8.80384 312.648 8.735 312.571 8.65754C312.529 8.62312 312.495 8.5887 312.452 8.55427L312.333 8.45961C312.256 8.39076 312.171 8.33913 312.085 8.27888L311.958 8.19283L311.821 8.11537C311.472 7.90023 311.097 7.7109 310.705 7.5732C310.313 7.42691 309.921 7.30642 309.512 7.22897C308.702 7.06546 307.884 7.00522 307.083 7.04825C306.682 7.07406 306.29 7.10849 305.907 7.18594C305.711 7.21176 305.523 7.26339 305.336 7.30642C305.242 7.32363 305.148 7.35806 305.054 7.38388C304.961 7.40969 304.867 7.43551 304.782 7.46133C303.324 7.90023 302.063 8.72639 301.253 9.78491C301.202 9.85376 301.16 9.9226 301.108 9.99145L301.04 10.0947L300.981 10.198C300.938 10.2668 300.895 10.3357 300.853 10.4045C300.819 10.4734 300.785 10.5508 300.742 10.6197L300.691 10.7229C300.691 10.7229 300.665 10.8004 300.648 10.8348C300.623 10.9123 300.589 10.9811 300.563 11.05C300.537 11.1274 300.52 11.1963 300.495 11.2737L300.461 11.3856C300.461 11.3856 300.444 11.463 300.435 11.4975C300.418 11.5749 300.401 11.6438 300.384 11.7212C300.376 11.7987 300.358 11.8761 300.35 11.945L300.333 12.0569V12.1687C300.316 12.2462 300.316 12.315 300.307 12.3925C300.307 12.4699 300.307 12.5388 300.307 12.6162C300.307 12.6507 300.307 12.6937 300.307 12.7281V12.84C300.324 12.9088 300.324 12.9863 300.333 13.0551C300.341 13.124 300.358 13.1928 300.367 13.2703C300.367 13.3047 300.376 13.3391 300.384 13.3735L300.41 13.4768C300.427 13.5457 300.444 13.6145 300.461 13.6834C300.478 13.7522 300.503 13.8124 300.52 13.8813L300.554 13.976C300.554 13.976 300.58 14.0362 300.589 14.0706C300.614 14.1309 300.64 14.1997 300.665 14.26C300.691 14.3202 300.725 14.3804 300.751 14.4407C300.802 14.5612 300.87 14.673 300.938 14.7849C301.202 15.2238 301.535 15.5853 301.884 15.8692C302.233 16.1446 302.617 16.3426 302.975 16.4717C303.341 16.5921 303.691 16.661 304.015 16.6696C304.057 16.6696 304.091 16.6696 304.134 16.6696C304.177 16.6696 304.211 16.6696 304.253 16.6696C304.33 16.6696 304.407 16.6696 304.475 16.6696C304.517 16.6696 304.56 16.661 304.603 16.661C303.989 16.3512 303.597 15.6713 303.674 14.9226C303.767 13.976 304.594 13.2875 305.506 13.3822C306.426 13.4854 307.091 14.3288 306.989 15.284C306.904 16.136 306.239 16.7729 305.438 16.8245C305.404 16.8417 305.361 16.8589 305.319 16.8761C305.208 16.9192 305.088 16.9622 304.961 17.0052C304.833 17.0482 304.679 17.0827 304.526 17.1171C304.449 17.1257 304.364 17.1429 304.279 17.1515C304.236 17.1515 304.194 17.1601 304.151 17.1687C304.108 17.1687 304.066 17.1687 304.015 17.1687C303.648 17.2032 303.239 17.1687 302.804 17.0655C302.37 16.9622 301.91 16.7643 301.466 16.463C301.023 16.1618 300.597 15.7574 300.256 15.2496C300.171 15.1205 300.086 14.9914 300.009 14.8451C299.975 14.7763 299.932 14.7075 299.898 14.63C299.864 14.5526 299.83 14.4837 299.796 14.4063C299.779 14.3718 299.762 14.3288 299.745 14.2944L299.702 14.1739C299.677 14.0964 299.643 14.019 299.617 13.9329C299.591 13.8555 299.574 13.7694 299.549 13.6834L299.515 13.5629C299.515 13.5629 299.498 13.4768 299.489 13.4338C299.472 13.3477 299.455 13.2617 299.438 13.1756C299.421 13.0896 299.412 13.0035 299.404 12.9088L299.387 12.7711C299.387 12.7281 299.387 12.6851 299.387 12.6334C299.387 12.5388 299.378 12.4527 299.378 12.3581C299.378 12.2634 299.378 12.1773 299.378 12.0827V11.945L299.395 11.8073C299.404 11.7126 299.412 11.618 299.43 11.5233C299.447 11.4286 299.464 11.334 299.481 11.2393C299.489 11.1963 299.498 11.1446 299.506 11.1016L299.54 10.9639C299.566 10.8692 299.591 10.7746 299.617 10.6799C299.651 10.5853 299.685 10.4992 299.719 10.4045C299.736 10.3615 299.753 10.3099 299.77 10.2668L299.83 10.1291C299.873 10.0431 299.915 9.94842 299.958 9.86236C300.009 9.7763 300.052 9.69024 300.103 9.60419L300.18 9.4751L300.265 9.34601C300.316 9.25995 300.376 9.1825 300.427 9.09644C300.665 8.76942 300.921 8.451 301.219 8.17561C301.364 8.02931 301.526 7.90023 301.679 7.76253C301.756 7.69369 301.841 7.63345 301.927 7.5732C302.012 7.51296 302.089 7.44412 302.182 7.39248C302.268 7.33224 302.353 7.272 302.446 7.22037C302.54 7.16873 302.625 7.10849 302.719 7.05685L302.856 6.9794L302.992 6.90195C303.086 6.85031 303.179 6.80728 303.273 6.75565C303.367 6.71262 303.469 6.66959 303.563 6.62656L303.708 6.55771L303.853 6.49747C303.955 6.45444 304.049 6.42002 304.151 6.37699C304.253 6.34257 304.356 6.30814 304.458 6.27372C304.56 6.2393 304.662 6.20487 304.765 6.17906C304.867 6.15324 304.969 6.11882 305.08 6.093C305.293 6.04136 305.506 5.98973 305.719 5.9467C306.154 5.86064 306.588 5.809 307.04 5.77458C307.935 5.71434 308.855 5.75737 309.776 5.93809C310.236 6.02415 310.696 6.16184 311.156 6.32536C311.617 6.48887 312.06 6.70401 312.495 6.9708L312.656 7.06546L312.81 7.17734C312.912 7.25479 313.023 7.32364 313.117 7.40109L313.27 7.52157C313.321 7.5646 313.372 7.59902 313.415 7.64205C313.509 7.72811 313.602 7.81417 313.696 7.90023C314.054 8.25307 314.412 8.63172 314.702 9.07062C315 9.50092 315.29 9.99145 315.52 10.5594C315.75 11.1274 315.929 11.7556 316.006 12.4355C316.168 13.7952 315.963 15.3357 315.307 16.7729C315.154 17.1343 314.958 17.4871 314.753 17.84C314.54 18.1842 314.31 18.5285 314.046 18.8469C313.79 19.1739 313.5 19.4837 313.202 19.7849C313.048 19.9312 312.895 20.0775 312.725 20.2152C312.639 20.284 312.563 20.3529 312.477 20.4217C312.392 20.4906 312.307 20.5508 312.222 20.6197C312.137 20.6885 312.051 20.7488 311.958 20.809C311.872 20.8692 311.779 20.9381 311.685 20.9897C311.506 21.1016 311.327 21.2135 311.148 21.3254C311.054 21.377 310.969 21.4372 310.875 21.4975C310.781 21.5491 310.688 21.6007 310.594 21.6524C310.5 21.704 310.406 21.7556 310.313 21.8159C310.219 21.8675 310.125 21.9278 310.023 21.9708C309.827 22.0655 309.631 22.1687 309.426 22.2634C309.23 22.3581 309.017 22.4441 308.813 22.5302C308.608 22.6248 308.395 22.6937 308.182 22.7711C308.08 22.8056 307.969 22.8486 307.858 22.883C307.756 22.926 307.637 22.9519 307.534 22.9863C307.424 23.0207 307.313 23.0551 307.202 23.081C307.091 23.1154 306.98 23.1498 306.87 23.167C306.648 23.2186 306.418 23.2703 306.196 23.3219C305.966 23.3649 305.745 23.3994 305.515 23.4424C305.404 23.4682 305.284 23.4768 305.174 23.4854C305.054 23.5026 304.944 23.5112 304.824 23.5285C303.904 23.6231 302.966 23.6489 302.029 23.6145C301.79 23.6145 301.56 23.5887 301.33 23.5801L300.981 23.5629L300.631 23.5371C300.401 23.5198 300.162 23.5026 299.924 23.4768C299.694 23.451 299.455 23.4252 299.216 23.408C298.978 23.3822 298.748 23.3563 298.509 23.3305C298.27 23.3047 298.04 23.2703 297.802 23.2445C297.563 23.21 297.324 23.1756 297.086 23.1412L296.728 23.0896C296.609 23.0723 296.489 23.0465 296.37 23.0207C296.131 22.9777 295.901 22.926 295.663 22.883C295.424 22.8314 295.194 22.7711 294.955 22.7195C294.486 22.6162 294.018 22.4785 293.558 22.3495C293.327 22.2892 293.097 22.2118 292.867 22.1429C292.637 22.0655 292.407 22.0052 292.177 21.9278C291.725 21.7729 291.265 21.618 290.813 21.4458C290.498 21.334 290.183 21.2049 289.876 21.0844C289.859 20.8865 289.833 20.6885 289.808 20.4906C290.43 20.6111 291.052 20.7143 291.674 20.809L291.691 20.8434Z" fill="url(#paint17_linear_4048_2562)"/>
<path d="M260.106 46.7727C261.214 51.1187 264.359 55.7658 269.847 55.7658C275.651 55.7658 280.68 51.9793 279.163 46.3166C277.799 41.2478 272.489 37.9689 267.171 40.6023C266.907 40.7314 266.711 40.9638 266.652 41.222C266.566 41.3424 266.498 41.4801 266.455 41.6264C265.237 43.6316 266.992 46.4629 269.489 47.5559C271.364 48.382 273.938 48.8209 275.796 48.055C276.18 49.5868 275.839 51.2736 274.901 52.2891C274.56 52.6591 274.1 53.3218 273.504 53.5455C271.33 54.3717 268.578 54.4578 266.473 53.2357C261.683 50.456 260.907 44.0275 261.606 39.4233C262.501 33.5197 266.796 28.2874 273.665 27.444C274.023 27.401 274.381 27.3751 274.739 27.3579C274.825 27.3923 274.91 27.4182 275.012 27.4268C278.617 27.8571 282.589 29.0791 285 31.7555C287.02 34.0016 289.415 37.4354 287.719 40.0429C286.091 42.5386 288.426 41.5576 289.151 41.0068C290.813 39.7503 291.316 37.9345 291.503 36.0584C293.48 39.277 295.688 42.8485 299.702 43.9844C303.588 45.086 308.284 45.086 311.557 42.7624C311.991 42.4526 312.204 41.9276 311.957 41.6006C311.949 41.2219 311.454 40.9552 310.917 40.9294C306.153 40.7486 301.858 38.5111 297.955 36.1101C293.838 33.58 289.935 30.7314 285.597 28.5111C281.907 26.6178 277.603 25.1548 273.359 25.7917C269.2 26.4199 264.751 28.7607 262.484 32.0481C259.595 36.2392 258.896 41.9104 260.132 46.7641L260.106 46.7727ZM269.021 44.3975C269.021 44.3975 268.961 44.3373 268.936 44.3115C268.953 44.3115 268.978 44.3201 268.995 44.3287C268.995 44.3545 269.012 44.3803 269.021 44.3975Z" fill="url(#paint18_linear_4048_2562)"/>
<path d="M125.86 56.5319C125.86 56.5319 126.09 56.6094 126.525 56.7471C126.747 56.8159 127.019 56.8762 127.343 56.9622C127.505 57.0053 127.684 57.0311 127.872 57.0741C128.059 57.1085 128.264 57.1515 128.477 57.186C130.198 57.4614 132.738 57.5646 135.849 57.2634C138.951 56.9794 142.616 56.3168 146.596 55.2841C148.59 54.7677 150.661 54.1567 152.783 53.451C153.848 53.0982 154.922 52.7195 156.004 52.3151C157.095 51.9106 158.178 51.4631 159.269 51.0156C161.45 50.112 163.547 49.1911 165.584 48.3736C167.621 47.5474 169.589 46.8331 171.498 46.2307C175.325 45.0517 178.887 44.3374 181.896 44.1739C182.646 44.1395 183.362 44.1309 184.043 44.1567C184.717 44.1911 185.356 44.2428 185.952 44.3374C187.137 44.5182 188.126 44.8194 188.91 45.155C189.694 45.4906 190.248 45.8521 190.623 46.1102C190.81 46.2393 190.938 46.3512 191.032 46.4287C191.126 46.4975 191.168 46.5405 191.168 46.5405C191.168 46.5405 191.126 46.4975 191.049 46.4114C190.964 46.3254 190.853 46.1963 190.682 46.0414C190.35 45.7316 189.83 45.2841 189.072 44.8366C188.313 44.3891 187.316 43.9502 186.106 43.6231C185.501 43.4596 184.845 43.3306 184.137 43.2187C183.43 43.1154 182.68 43.0466 181.896 43.0121C178.742 42.8744 174.993 43.3219 170.978 44.3288C168.967 44.8452 166.888 45.4992 164.783 46.2824C162.678 47.0569 160.547 47.9519 158.382 48.8469C157.3 49.2944 156.235 49.7333 155.178 50.1464C154.121 50.5595 153.073 50.9553 152.041 51.334C149.979 52.0913 147.968 52.7712 146.042 53.3908C142.189 54.6128 138.67 55.5509 135.678 56.1188C132.687 56.6954 130.215 56.8848 128.502 56.8417C128.289 56.8417 128.085 56.8245 127.897 56.8159C127.71 56.7987 127.531 56.7987 127.369 56.7815C127.045 56.7385 126.764 56.7213 126.542 56.6868C126.099 56.6094 125.86 56.575 125.86 56.575V56.5319Z" fill="url(#paint19_linear_4048_2562)"/>
<path d="M116.349 43.2443C116.221 43.0119 115.974 42.8743 115.608 42.8312C115.429 42.814 115.207 42.8054 114.977 42.8398C114.747 42.8829 114.491 42.9431 114.21 43.0378C113.937 43.1496 113.639 43.2873 113.341 43.4594C113.043 43.6574 112.719 43.8639 112.42 44.1651C111.815 44.7331 111.219 45.5507 110.903 46.592C110.75 47.1083 110.639 47.8226 110.69 48.6316C110.75 49.4405 110.997 50.3011 111.398 51.1014C112.199 52.7021 113.554 53.9844 114.926 54.8794C115.616 55.3355 116.315 55.697 116.971 55.9724C117.628 56.2564 118.25 56.4371 118.778 56.5748C119.844 56.8243 120.534 56.7985 120.559 56.6952C120.594 56.5834 119.997 56.265 119.162 55.6884C118.753 55.3958 118.275 55.0429 117.79 54.6212C117.304 54.1996 116.81 53.7176 116.358 53.1927C115.898 52.6677 115.48 52.0997 115.156 51.5231C114.824 50.9465 114.585 50.3699 114.449 49.8536C114.312 49.3372 114.287 48.8897 114.321 48.5369C114.364 48.1841 114.432 47.9173 114.5 47.7021C114.619 47.2804 114.815 46.8588 115.054 46.4371C115.156 46.2219 115.31 46.0154 115.42 45.8002C115.557 45.5937 115.685 45.3958 115.795 45.1892C115.923 44.9999 116.034 44.8106 116.119 44.6212C116.213 44.4405 116.298 44.2684 116.349 44.1049C116.46 43.7779 116.469 43.4853 116.349 43.2529V43.2443Z" fill="url(#paint20_linear_4048_2562)"/>
<path d="M105.099 55.6368C105.176 55.8864 105.329 56.1015 105.508 56.2908C105.687 56.4802 105.883 56.6179 106.105 56.7728C106.539 57.0309 107.017 57.2375 107.571 57.3063C107.852 57.3407 108.321 57.3407 108.909 57.4096C109.497 57.4698 110.195 57.6075 110.86 57.8141C111.022 57.8657 111.193 57.9173 111.355 57.9776C111.508 58.0378 111.67 58.0981 111.823 58.1583C112.113 58.2874 112.403 58.3993 112.633 58.5198C112.88 58.623 113.076 58.7263 113.229 58.7865C113.383 58.8468 113.494 58.864 113.545 58.8296C113.587 58.7951 113.587 58.6919 113.553 58.5198C113.519 58.3476 113.46 58.1153 113.332 57.8485C113.221 57.5731 113.051 57.2805 112.846 56.9449C112.735 56.79 112.624 56.6265 112.497 56.4543C112.369 56.2908 112.232 56.1273 112.087 55.9638C111.508 55.3098 110.766 54.7074 110.016 54.2857C109.275 53.8554 108.534 53.6144 108.056 53.5542C107.11 53.4251 106.19 53.6747 105.653 54.1308C105.38 54.3373 105.193 54.6127 105.108 54.8709C105.014 55.129 105.014 55.3872 105.099 55.6368Z" fill="url(#paint21_linear_4048_2562)"/>
<path d="M90.5088 49.5784C90.5173 49.2686 90.5685 48.976 90.594 48.6748C90.6281 48.3736 90.6537 48.081 90.7048 47.7884C91.0883 45.439 91.9747 43.2186 93.253 41.3856C94.5485 39.5612 96.1848 38.1154 97.8978 37.0396C99.6193 35.9639 101.426 35.2496 103.173 34.7505C104.929 34.26 106.642 33.9932 108.261 33.8727C109.88 33.7608 111.414 33.7952 112.829 33.9157C113.187 33.9501 113.528 33.9846 113.877 34.019C114.218 34.0706 114.551 34.1137 114.875 34.1653C115.198 34.2083 115.522 34.2686 115.829 34.3374C116.136 34.3977 116.443 34.4493 116.741 34.5181C117.039 34.587 117.329 34.6644 117.61 34.7333C117.755 34.7677 117.892 34.8021 118.028 34.8365C118.164 34.8796 118.301 34.914 118.428 34.957C118.693 35.0345 118.948 35.1119 119.204 35.1894C119.46 35.2668 119.698 35.3615 119.928 35.439C121.812 36.1016 123.193 36.8073 124.096 37.3236C124.326 37.4441 124.522 37.5732 124.693 37.6765C124.863 37.7797 124.999 37.8658 125.119 37.9433C125.349 38.081 125.46 38.1584 125.46 38.1584C125.46 38.1584 125.34 38.0982 125.102 37.9691C124.982 37.9088 124.837 37.8314 124.658 37.7367C124.479 37.6507 124.283 37.5388 124.045 37.4355C123.107 36.988 121.693 36.4028 119.801 35.8779C119.562 35.8176 119.323 35.7402 119.068 35.6799C118.812 35.6197 118.556 35.568 118.292 35.5078C118.156 35.482 118.028 35.4476 117.892 35.4131C117.755 35.3873 117.619 35.3615 117.474 35.3357C117.193 35.2841 116.911 35.2324 116.613 35.1808C116.323 35.1291 116.017 35.1033 115.71 35.0603C115.403 35.0173 115.088 34.9742 114.772 34.957C114.448 34.9312 114.125 34.9054 113.792 34.8796C113.46 34.871 113.119 34.8538 112.778 34.8452C111.397 34.8193 109.923 34.871 108.38 35.0603C106.838 35.2668 105.227 35.6111 103.608 36.1532C101.989 36.704 100.352 37.4527 98.8438 38.5026C97.3438 39.5526 95.9717 40.8865 94.9149 42.513C93.8837 44.1481 93.2019 46.0672 92.9377 48.1154C92.9036 48.3736 92.8951 48.6317 92.8695 48.8899C92.8525 49.1481 92.8184 49.4149 92.8184 49.673C92.8269 50.1894 92.8184 50.7143 92.8866 51.2307C92.9121 51.7557 93.04 52.2634 93.1337 52.7798C93.2019 53.0293 93.2786 53.2875 93.3553 53.5371C93.415 53.7952 93.5258 54.0362 93.6195 54.2858C93.79 54.7849 94.0541 55.2582 94.2843 55.7402C94.4206 55.9725 94.5655 56.2049 94.7019 56.4372L94.8041 56.6094L94.9234 56.7729L95.1621 57.1085C95.8098 57.9949 96.5512 58.8469 97.4035 59.6042C99.0909 61.1446 101.119 62.4183 103.31 63.4596C105.508 64.5009 107.878 65.3099 110.332 65.8865C111.559 66.1705 112.812 66.4114 114.082 66.5663C115.352 66.7212 116.63 66.8245 117.909 66.8417C118.232 66.8417 118.548 66.8417 118.863 66.8417C119.178 66.8331 119.494 66.8159 119.809 66.8073C120.124 66.7815 120.431 66.7557 120.747 66.7298C121.07 66.6868 121.394 66.6524 121.718 66.6094C123.014 66.4372 124.3 66.2995 125.57 66.0672C126.21 65.9639 126.84 65.852 127.471 65.7488C128.102 65.6283 128.724 65.4906 129.346 65.3615C129.968 65.2324 130.59 65.1119 131.204 64.9656C131.817 64.8193 132.431 64.6644 133.036 64.5181C137.902 63.3133 142.539 61.8245 146.919 60.2927C151.308 58.7608 155.459 57.2032 159.371 55.7832C163.282 54.3632 166.947 53.0896 170.33 52.0138C172.026 51.4975 173.637 50.9897 175.18 50.568C176.722 50.1378 178.188 49.7677 179.577 49.4837C182.356 48.9157 184.81 48.7006 186.813 48.8555C187.81 48.9243 188.688 49.0878 189.429 49.2944C189.719 49.3718 189.975 49.4665 190.222 49.5526C190.299 49.5698 190.375 49.5956 190.461 49.6128C190.563 49.6386 190.674 49.6644 190.776 49.6989C190.878 49.7333 190.98 49.7591 191.083 49.7935C191.185 49.8279 191.287 49.8624 191.39 49.9054C191.594 49.9742 191.79 50.0603 191.978 50.1464C192.361 50.3185 192.736 50.5078 193.086 50.7229C193.443 50.9295 193.767 51.1705 194.091 51.42C194.398 51.6782 194.696 51.9364 194.969 52.2204C196.06 53.3391 196.767 54.6989 197.057 56.0155C197.202 56.6782 197.244 57.3236 197.21 57.926C197.176 58.5285 197.066 59.0878 196.912 59.587C196.767 60.0861 196.563 60.5594 196.333 61.0156C196.273 61.1274 196.213 61.2393 196.154 61.3512C196.128 61.4028 196.094 61.4631 196.051 61.5147L195.949 61.6782C195.881 61.7901 195.804 61.8934 195.728 61.9966L195.617 62.1515L195.497 62.2978C195.174 62.6937 194.816 63.0465 194.441 63.3563C194.057 63.6662 193.665 63.9501 193.256 64.1911C192.438 64.673 191.569 65.0345 190.699 65.2841C190.265 65.4045 189.821 65.5078 189.387 65.5767C189.165 65.6197 188.952 65.6369 188.731 65.6627C188.62 65.6713 188.509 65.6799 188.407 65.6885C188.296 65.6885 188.185 65.7057 188.083 65.7057C187.972 65.7057 187.87 65.7057 187.759 65.7057C187.648 65.7057 187.546 65.7057 187.435 65.7057H187.273L187.111 65.6885C187 65.6885 186.898 65.6713 186.796 65.6627C186.694 65.6455 186.583 65.6369 186.481 65.6197L186.327 65.6025L186.174 65.5767C186.072 65.5594 185.969 65.5422 185.867 65.5164C185.765 65.4906 185.662 65.4648 185.56 65.439C185.458 65.4131 185.356 65.3873 185.262 65.3529C185.16 65.3185 185.066 65.2927 184.964 65.2582C184.768 65.1808 184.572 65.1205 184.393 65.0345C184.018 64.8796 183.668 64.6644 183.336 64.4493C183.259 64.389 183.174 64.3288 183.097 64.2686L182.978 64.1825L182.867 64.0878C182.79 64.019 182.714 63.9588 182.645 63.8985C182.577 63.8297 182.509 63.7608 182.441 63.692L182.339 63.5887C182.339 63.5887 182.279 63.5113 182.245 63.4768C182.185 63.3994 182.117 63.3305 182.057 63.2531C181.998 63.1756 181.947 63.0982 181.887 63.0207L181.802 62.9002C181.802 62.9002 181.751 62.8228 181.725 62.7797C181.674 62.7023 181.631 62.6162 181.58 62.5388C181.538 62.4527 181.495 62.3753 181.461 62.2892L181.401 62.1687L181.35 62.0396C181.316 61.9536 181.282 61.8675 181.256 61.7815C181.231 61.6954 181.205 61.6094 181.18 61.5233C181.171 61.4803 181.154 61.4372 181.146 61.3942L181.12 61.2651C181.103 61.1791 181.086 61.093 181.069 61.0069C181.06 60.9209 181.043 60.8348 181.035 60.7488C181.035 60.7057 181.026 60.6627 181.018 60.6197V60.4906C181.009 60.4045 181.001 60.3185 181.001 60.241C181.001 60.155 181.001 60.0775 181.001 59.9915V59.871C181.001 59.871 181.009 59.7849 181.018 59.7505C181.018 59.673 181.035 59.587 181.043 59.5095C181.052 59.4321 181.069 59.3546 181.086 59.2772C181.111 59.1223 181.154 58.9674 181.188 58.8211C181.35 58.2273 181.623 57.7023 181.947 57.272C182.27 56.8417 182.645 56.4975 183.029 56.2479C183.412 55.9983 183.796 55.8262 184.145 55.7316C184.188 55.723 184.231 55.7057 184.273 55.6971C184.316 55.6885 184.358 55.6799 184.401 55.6713C184.486 55.6541 184.563 55.6369 184.648 55.6197C184.81 55.6025 184.955 55.5853 185.1 55.5767C185.236 55.5767 185.364 55.5767 185.483 55.5767C185.526 55.5767 185.569 55.5766 185.611 55.5853C186.387 55.3615 187.231 55.723 187.597 56.4889C187.998 57.3409 187.648 58.3563 186.804 58.7608C185.961 59.1653 184.955 58.8125 184.555 57.9605C184.239 57.2978 184.393 56.5233 184.878 56.0328C184.836 56.0414 184.802 56.05 184.759 56.0672C184.691 56.093 184.614 56.1188 184.546 56.136C184.512 56.1446 184.469 56.1618 184.435 56.1705C184.401 56.1877 184.358 56.2049 184.324 56.2221C184.018 56.3426 183.702 56.5233 183.395 56.7643C183.089 57.0052 182.799 57.315 182.552 57.6937C182.313 58.0723 182.109 58.5198 181.998 59.0276C181.972 59.1567 181.947 59.2772 181.93 59.4149C181.93 59.4837 181.913 59.5439 181.904 59.6128C181.904 59.6816 181.904 59.7419 181.895 59.8107C181.895 59.8452 181.895 59.8796 181.895 59.914V60.0173C181.895 60.0861 181.895 60.155 181.904 60.2238C181.904 60.2927 181.921 60.3615 181.93 60.4304V60.5336C181.93 60.5336 181.955 60.6025 181.955 60.6369C181.964 60.7057 181.981 60.7746 181.989 60.8434C182.006 60.9123 182.023 60.9811 182.04 61.05L182.066 61.1532C182.066 61.1532 182.092 61.2221 182.1 61.2565C182.126 61.3254 182.151 61.3942 182.168 61.4631C182.194 61.5319 182.228 61.6008 182.253 61.661L182.296 61.7643L182.347 61.8589C182.381 61.9278 182.415 61.988 182.449 62.0569C182.492 62.1171 182.535 62.1859 182.569 62.2462C182.586 62.2806 182.611 62.3064 182.628 62.3409L182.697 62.4355C182.748 62.4958 182.79 62.556 182.833 62.6162C182.884 62.6765 182.935 62.7281 182.986 62.7884C183.012 62.8142 183.038 62.8486 183.063 62.8744L183.148 62.9519C183.208 63.0035 183.268 63.0637 183.319 63.1154C183.378 63.167 183.447 63.2186 183.506 63.2703L183.6 63.3477L183.702 63.4166C183.77 63.4596 183.839 63.5112 183.907 63.5543C185.023 64.2686 186.498 64.5956 188.032 64.5095C188.125 64.5095 188.228 64.5009 188.321 64.4923C188.415 64.4837 188.517 64.4751 188.611 64.4665C188.807 64.4407 189.003 64.4149 189.191 64.3804C189.583 64.3116 189.966 64.2169 190.358 64.1051C191.134 63.8727 191.892 63.5371 192.608 63.1068C192.966 62.8916 193.307 62.6421 193.631 62.3753C193.955 62.1085 194.253 61.8073 194.517 61.4889L194.62 61.3684L194.713 61.2393C194.773 61.1532 194.841 61.0758 194.892 60.9811L194.978 60.852C195.003 60.809 195.037 60.766 195.054 60.7143C195.105 60.6197 195.156 60.525 195.208 60.4304C195.395 60.0431 195.574 59.6472 195.693 59.2341C195.813 58.8211 195.906 58.3649 195.941 57.8744C195.975 57.3839 195.941 56.8589 195.821 56.3168C195.702 55.7746 195.506 55.2238 195.216 54.6816C195.148 54.544 195.063 54.4149 194.986 54.2772C194.901 54.1395 194.807 54.0104 194.722 53.8813C194.526 53.6231 194.321 53.3649 194.091 53.124C193.861 52.8744 193.605 52.6507 193.341 52.4269C193.068 52.2118 192.787 51.9966 192.472 51.8159C192.165 51.618 191.841 51.4545 191.509 51.2995C191.338 51.2307 191.168 51.1446 190.989 51.0844C190.904 51.05 190.81 51.0156 190.725 50.9897C190.631 50.9639 190.546 50.9295 190.452 50.9037C190.358 50.8693 190.273 50.852 190.179 50.8262C190.086 50.8004 189.992 50.7746 189.898 50.7488C189.702 50.7057 189.506 50.6627 189.31 50.6197C189.208 50.6025 189.114 50.5767 189.012 50.5594C188.91 50.5422 188.816 50.525 188.713 50.5078C188.611 50.4906 188.509 50.4734 188.415 50.4562C188.313 50.439 188.211 50.4217 188.108 50.4131C187.904 50.3873 187.699 50.3615 187.495 50.3443C187.29 50.3271 187.086 50.3185 186.873 50.3013C186.668 50.2841 186.455 50.2841 186.242 50.2841C186.14 50.2841 186.029 50.2841 185.927 50.2841C185.824 50.2841 185.714 50.2927 185.611 50.2927C185.509 50.2927 185.398 50.3013 185.296 50.3099C185.194 50.3099 185.083 50.3185 184.981 50.3357C184.768 50.3615 184.555 50.3787 184.341 50.4045C183.83 50.4648 183.319 50.4734 182.807 50.5508C182.356 50.6111 181.904 50.6885 181.444 50.7229C180.643 50.7746 179.85 50.8606 179.058 50.9639C178.725 51.0069 177.242 51.2049 177.242 51.2049C177.242 51.2049 177.251 51.2049 177.259 51.2049C176.705 51.3856 176.143 51.5663 175.563 51.7643C174.063 52.272 172.495 52.8658 170.842 53.4596C167.544 54.6989 163.964 56.136 160.129 57.7195C156.285 59.2944 152.186 61.0069 147.806 62.6851C143.425 64.3546 138.746 65.9897 133.769 67.3064C133.147 67.4699 132.516 67.6335 131.894 67.797C131.263 67.9519 130.624 68.081 129.985 68.2273C129.346 68.3649 128.707 68.5199 128.05 68.6489C127.403 68.7694 126.746 68.8813 126.09 69.0018C124.778 69.26 123.44 69.4149 122.102 69.5956C121.769 69.6386 121.428 69.6816 121.088 69.7247C120.738 69.7505 120.38 69.7849 120.031 69.8107C119.681 69.8279 119.323 69.8365 118.974 69.8538C118.625 69.8624 118.267 69.8538 117.917 69.8538C115.096 69.8193 112.343 69.4321 109.701 68.7866C107.059 68.1412 104.511 67.2376 102.133 66.0672C99.7557 64.8882 97.5313 63.4338 95.6308 61.6266C94.6763 60.7316 93.824 59.7247 93.0911 58.6576L92.8184 58.2531L92.682 58.0465L92.5627 57.8314C92.4008 57.5474 92.2474 57.2634 92.0855 56.9794C91.8127 56.3856 91.523 55.809 91.327 55.198C91.2162 54.8968 91.1054 54.5956 91.0372 54.2858C90.9605 53.976 90.8753 53.6662 90.8071 53.3563C90.7048 52.7281 90.5855 52.1085 90.5599 51.4803C90.4917 50.8606 90.5344 50.241 90.5429 49.63L90.5088 49.5784Z" fill="url(#paint22_linear_4048_2562)"/>
</g>
<defs>
<linearGradient id="paint0_linear_4048_2562" x1="38.9652" y1="184.234" x2="425.371" y2="4.08597" gradientUnits="userSpaceOnUse">
<stop stop-color="#EEDEBC"/>
<stop offset="0.15" stop-color="#EEDEBC"/>
<stop offset="0.35" stop-color="#DDC5A3"/>
<stop offset="0.61" stop-color="#C9A885"/>
<stop offset="0.72" stop-color="#9A7A5F"/>
<stop offset="0.84" stop-color="#C9A885"/>
<stop offset="1" stop-color="#EEDEBC"/>
</linearGradient>
<linearGradient id="paint1_linear_4048_2562" x1="60.1432" y1="229.673" x2="446.558" y2="49.5252" gradientUnits="userSpaceOnUse">
<stop stop-color="#EEDEBC"/>
<stop offset="0.15" stop-color="#EEDEBC"/>
<stop offset="0.35" stop-color="#DDC5A3"/>
<stop offset="0.61" stop-color="#C9A885"/>
<stop offset="0.72" stop-color="#9A7A5F"/>
<stop offset="0.84" stop-color="#C9A885"/>
<stop offset="1" stop-color="#EEDEBC"/>
</linearGradient>
<linearGradient id="paint2_linear_4048_2562" x1="36.5104" y1="178.984" x2="422.925" y2="-1.16323" gradientUnits="userSpaceOnUse">
<stop stop-color="#EEDEBC"/>
<stop offset="0.15" stop-color="#EEDEBC"/>
<stop offset="0.35" stop-color="#DDC5A3"/>
<stop offset="0.61" stop-color="#C9A885"/>
<stop offset="0.72" stop-color="#9A7A5F"/>
<stop offset="0.84" stop-color="#C9A885"/>
<stop offset="1" stop-color="#EEDEBC"/>
</linearGradient>
<linearGradient id="paint3_linear_4048_2562" x1="12.9282" y1="128.391" x2="399.343" y2="-51.757" gradientUnits="userSpaceOnUse">
<stop stop-color="#EEDEBC"/>
<stop offset="0.15" stop-color="#EEDEBC"/>
<stop offset="0.35" stop-color="#DDC5A3"/>
<stop offset="0.61" stop-color="#C9A885"/>
<stop offset="0.72" stop-color="#9A7A5F"/>
<stop offset="0.84" stop-color="#C9A885"/>
<stop offset="1" stop-color="#EEDEBC"/>
</linearGradient>
<linearGradient id="paint4_linear_4048_2562" x1="45.5954" y1="198.46" x2="432.002" y2="18.3118" gradientUnits="userSpaceOnUse">
<stop stop-color="#EEDEBC"/>
<stop offset="0.15" stop-color="#EEDEBC"/>
<stop offset="0.35" stop-color="#DDC5A3"/>
<stop offset="0.61" stop-color="#C9A885"/>
<stop offset="0.72" stop-color="#9A7A5F"/>
<stop offset="0.84" stop-color="#C9A885"/>
<stop offset="1" stop-color="#EEDEBC"/>
</linearGradient>
<linearGradient id="paint5_linear_4048_2562" x1="52.5757" y1="213.442" x2="438.99" y2="33.295" gradientUnits="userSpaceOnUse">
<stop stop-color="#EEDEBC"/>
<stop offset="0.15" stop-color="#EEDEBC"/>
<stop offset="0.35" stop-color="#DDC5A3"/>
<stop offset="0.61" stop-color="#C9A885"/>
<stop offset="0.72" stop-color="#9A7A5F"/>
<stop offset="0.84" stop-color="#C9A885"/>
<stop offset="1" stop-color="#EEDEBC"/>
</linearGradient>
<linearGradient id="paint6_linear_4048_2562" x1="56.419" y1="221.678" x2="442.834" y2="41.5388" gradientUnits="userSpaceOnUse">
<stop stop-color="#EEDEBC"/>
<stop offset="0.15" stop-color="#EEDEBC"/>
<stop offset="0.35" stop-color="#DDC5A3"/>
<stop offset="0.61" stop-color="#C9A885"/>
<stop offset="0.72" stop-color="#9A7A5F"/>
<stop offset="0.84" stop-color="#C9A885"/>
<stop offset="1" stop-color="#EEDEBC"/>
</linearGradient>
<linearGradient id="paint7_linear_4048_2562" x1="50.3255" y1="208.597" x2="436.732" y2="28.4581" gradientUnits="userSpaceOnUse">
<stop stop-color="#EEDEBC"/>
<stop offset="0.15" stop-color="#EEDEBC"/>
<stop offset="0.35" stop-color="#DDC5A3"/>
<stop offset="0.61" stop-color="#C9A885"/>
<stop offset="0.72" stop-color="#9A7A5F"/>
<stop offset="0.84" stop-color="#C9A885"/>
<stop offset="1" stop-color="#EEDEBC"/>
</linearGradient>
<linearGradient id="paint8_linear_4048_2562" x1="31.7547" y1="168.769" x2="418.161" y2="-11.3779" gradientUnits="userSpaceOnUse">
<stop stop-color="#EEDEBC"/>
<stop offset="0.15" stop-color="#EEDEBC"/>
<stop offset="0.35" stop-color="#DDC5A3"/>
<stop offset="0.61" stop-color="#C9A885"/>
<stop offset="0.72" stop-color="#9A7A5F"/>
<stop offset="0.84" stop-color="#C9A885"/>
<stop offset="1" stop-color="#EEDEBC"/>
</linearGradient>
<linearGradient id="paint9_linear_4048_2562" x1="17.199" y1="137.539" x2="403.605" y2="-42.6003" gradientUnits="userSpaceOnUse">
<stop stop-color="#EEDEBC"/>
<stop offset="0.15" stop-color="#EEDEBC"/>
<stop offset="0.35" stop-color="#DDC5A3"/>
<stop offset="0.61" stop-color="#C9A885"/>
<stop offset="0.72" stop-color="#9A7A5F"/>
<stop offset="0.84" stop-color="#C9A885"/>
<stop offset="1" stop-color="#EEDEBC"/>
</linearGradient>
<linearGradient id="paint10_linear_4048_2562" x1="13.7121" y1="130.077" x2="400.127" y2="-50.0619" gradientUnits="userSpaceOnUse">
<stop stop-color="#EEDEBC"/>
<stop offset="0.15" stop-color="#EEDEBC"/>
<stop offset="0.35" stop-color="#DDC5A3"/>
<stop offset="0.61" stop-color="#C9A885"/>
<stop offset="0.72" stop-color="#9A7A5F"/>
<stop offset="0.84" stop-color="#C9A885"/>
<stop offset="1" stop-color="#EEDEBC"/>
</linearGradient>
<linearGradient id="paint11_linear_4048_2562" x1="13.6618" y1="129.966" x2="400.076" y2="-50.1734" gradientUnits="userSpaceOnUse">
<stop stop-color="#EEDEBC"/>
<stop offset="0.15" stop-color="#EEDEBC"/>
<stop offset="0.35" stop-color="#DDC5A3"/>
<stop offset="0.61" stop-color="#C9A885"/>
<stop offset="0.72" stop-color="#9A7A5F"/>
<stop offset="0.84" stop-color="#C9A885"/>
<stop offset="1" stop-color="#EEDEBC"/>
</linearGradient>
<linearGradient id="paint12_linear_4048_2562" x1="20.3685" y1="144.346" x2="406.775" y2="-35.7938" gradientUnits="userSpaceOnUse">
<stop stop-color="#EEDEBC"/>
<stop offset="0.15" stop-color="#EEDEBC"/>
<stop offset="0.35" stop-color="#DDC5A3"/>
<stop offset="0.61" stop-color="#C9A885"/>
<stop offset="0.72" stop-color="#9A7A5F"/>
<stop offset="0.84" stop-color="#C9A885"/>
<stop offset="1" stop-color="#EEDEBC"/>
</linearGradient>
<linearGradient id="paint13_linear_4048_2562" x1="7.27857" y1="116.274" x2="393.693" y2="-63.8654" gradientUnits="userSpaceOnUse">
<stop stop-color="#EEDEBC"/>
<stop offset="0.15" stop-color="#EEDEBC"/>
<stop offset="0.35" stop-color="#DDC5A3"/>
<stop offset="0.61" stop-color="#C9A885"/>
<stop offset="0.72" stop-color="#9A7A5F"/>
<stop offset="0.84" stop-color="#C9A885"/>
<stop offset="1" stop-color="#EEDEBC"/>
</linearGradient>
<linearGradient id="paint14_linear_4048_2562" x1="6.46826" y1="114.535" x2="392.883" y2="-65.6123" gradientUnits="userSpaceOnUse">
<stop stop-color="#EEDEBC"/>
<stop offset="0.15" stop-color="#EEDEBC"/>
<stop offset="0.35" stop-color="#DDC5A3"/>
<stop offset="0.61" stop-color="#C9A885"/>
<stop offset="0.72" stop-color="#9A7A5F"/>
<stop offset="0.84" stop-color="#C9A885"/>
<stop offset="1" stop-color="#EEDEBC"/>
</linearGradient>
<linearGradient id="paint15_linear_4048_2562" x1="21.6302" y1="147.066" x2="408.045" y2="-33.0821" gradientUnits="userSpaceOnUse">
<stop stop-color="#EEDEBC"/>
<stop offset="0.15" stop-color="#EEDEBC"/>
<stop offset="0.35" stop-color="#DDC5A3"/>
<stop offset="0.61" stop-color="#C9A885"/>
<stop offset="0.72" stop-color="#9A7A5F"/>
<stop offset="0.84" stop-color="#C9A885"/>
<stop offset="1" stop-color="#EEDEBC"/>
</linearGradient>
<linearGradient id="paint16_linear_4048_2562" x1="29.2918" y1="163.494" x2="415.707" y2="-16.6536" gradientUnits="userSpaceOnUse">
<stop stop-color="#EEDEBC"/>
<stop offset="0.15" stop-color="#EEDEBC"/>
<stop offset="0.35" stop-color="#DDC5A3"/>
<stop offset="0.61" stop-color="#C9A885"/>
<stop offset="0.72" stop-color="#9A7A5F"/>
<stop offset="0.84" stop-color="#C9A885"/>
<stop offset="1" stop-color="#EEDEBC"/>
</linearGradient>
<linearGradient id="paint17_linear_4048_2562" x1="22.7125" y1="149.372" x2="409.119" y2="-30.776" gradientUnits="userSpaceOnUse">
<stop stop-color="#EEDEBC"/>
<stop offset="0.15" stop-color="#EEDEBC"/>
<stop offset="0.35" stop-color="#DDC5A3"/>
<stop offset="0.61" stop-color="#C9A885"/>
<stop offset="0.72" stop-color="#9A7A5F"/>
<stop offset="0.84" stop-color="#C9A885"/>
<stop offset="1" stop-color="#EEDEBC"/>
</linearGradient>
<linearGradient id="paint18_linear_4048_2562" x1="27.587" y1="159.836" x2="414.002" y2="-20.3027" gradientUnits="userSpaceOnUse">
<stop stop-color="#EEDEBC"/>
<stop offset="0.15" stop-color="#EEDEBC"/>
<stop offset="0.35" stop-color="#DDC5A3"/>
<stop offset="0.61" stop-color="#C9A885"/>
<stop offset="0.72" stop-color="#9A7A5F"/>
<stop offset="0.84" stop-color="#C9A885"/>
<stop offset="1" stop-color="#EEDEBC"/>
</linearGradient>
<linearGradient id="paint19_linear_4048_2562" x1="10.0056" y1="122.117" x2="396.412" y2="-58.0306" gradientUnits="userSpaceOnUse">
<stop stop-color="#EEDEBC"/>
<stop offset="0.15" stop-color="#EEDEBC"/>
<stop offset="0.35" stop-color="#DDC5A3"/>
<stop offset="0.61" stop-color="#C9A885"/>
<stop offset="0.72" stop-color="#9A7A5F"/>
<stop offset="0.84" stop-color="#C9A885"/>
<stop offset="1" stop-color="#EEDEBC"/>
</linearGradient>
<linearGradient id="paint20_linear_4048_2562" x1="1.90922" y1="104.759" x2="388.324" y2="-75.3803" gradientUnits="userSpaceOnUse">
<stop stop-color="#EEDEBC"/>
<stop offset="0.15" stop-color="#EEDEBC"/>
<stop offset="0.35" stop-color="#DDC5A3"/>
<stop offset="0.61" stop-color="#C9A885"/>
<stop offset="0.72" stop-color="#9A7A5F"/>
<stop offset="0.84" stop-color="#C9A885"/>
<stop offset="1" stop-color="#EEDEBC"/>
</linearGradient>
<linearGradient id="paint21_linear_4048_2562" x1="3.00805" y1="107.108" x2="389.414" y2="-73.0393" gradientUnits="userSpaceOnUse">
<stop stop-color="#EEDEBC"/>
<stop offset="0.15" stop-color="#EEDEBC"/>
<stop offset="0.35" stop-color="#DDC5A3"/>
<stop offset="0.61" stop-color="#C9A885"/>
<stop offset="0.72" stop-color="#9A7A5F"/>
<stop offset="0.84" stop-color="#C9A885"/>
<stop offset="1" stop-color="#EEDEBC"/>
</linearGradient>
<linearGradient id="paint22_linear_4048_2562" x1="7.29515" y1="116.3" x2="393.701" y2="-63.8481" gradientUnits="userSpaceOnUse">
<stop stop-color="#EEDEBC"/>
<stop offset="0.15" stop-color="#EEDEBC"/>
<stop offset="0.35" stop-color="#DDC5A3"/>
<stop offset="0.61" stop-color="#C9A885"/>
<stop offset="0.72" stop-color="#9A7A5F"/>
<stop offset="0.84" stop-color="#C9A885"/>
<stop offset="1" stop-color="#EEDEBC"/>
</linearGradient>
<clipPath id="clip0_4048_2562">
<rect width="520" height="80" fill="white"/>
</clipPath>
</defs>
</svg>
