<svg width="128" height="128" viewBox="0 0 128 128" fill="none" xmlns="http://www.w3.org/2000/svg">
<g clip-path="url(#clip0_3478_3163)">
<path d="M117.539 2.05865C117.505 1.97494 117.505 1.87647 117.558 1.77307C117.612 1.66967 117.723 1.56134 117.898 1.48748C118.072 1.41362 118.315 1.38408 118.572 1.44317C118.828 1.50225 119.09 1.65488 119.284 1.86661C119.386 1.97001 119.488 2.12758 119.58 2.31469C119.667 2.50672 119.73 2.72829 119.759 2.96956C119.783 3.2059 119.774 3.45701 119.73 3.69336C119.686 3.93462 119.604 4.16112 119.507 4.363C119.405 4.56487 119.289 4.74214 119.168 4.88985C119.105 4.96371 119.047 5.02772 118.988 5.09173C118.925 5.15082 118.872 5.20497 118.814 5.24929C118.756 5.2936 118.707 5.333 118.659 5.36746C118.61 5.40193 118.567 5.42655 118.533 5.44132C118.46 5.48071 118.412 5.49548 118.397 5.48071C118.383 5.46594 118.397 5.42162 118.421 5.34284C118.455 5.25914 118.494 5.16066 118.538 5.04249C118.562 4.9834 118.581 4.91447 118.61 4.84554C118.635 4.7766 118.654 4.69782 118.678 4.62396C118.717 4.4664 118.751 4.29899 118.765 4.13158C118.775 3.96417 118.77 3.79676 118.746 3.63919C118.722 3.48655 118.678 3.34376 118.63 3.22559C118.581 3.10742 118.518 3.01387 118.465 2.94494C118.455 2.92524 118.436 2.91047 118.426 2.8957C118.412 2.88092 118.402 2.86615 118.392 2.8563C118.383 2.84646 118.368 2.83169 118.363 2.82184C118.353 2.81199 118.344 2.80215 118.334 2.7923C118.266 2.72337 118.218 2.66428 118.16 2.61011C118.106 2.55595 118.043 2.49687 117.97 2.43778C117.82 2.32454 117.621 2.23098 117.549 2.05865H117.539Z" fill="#DCC9A8"/>
<path d="M120.691 2.90505C120.274 4.13108 119.261 5.44082 119.125 5.61316C119.115 5.623 119.115 5.63777 119.125 5.6427L119.105 6.41082C119.105 6.51422 119.188 6.593 119.29 6.58315L120.046 6.50929C120.046 6.50929 120.065 6.50929 120.075 6.50929C120.235 6.36158 121.35 5.31773 122.62 4.72194C122.63 4.72194 123.134 2.61946 123.226 2.17139C123.235 2.12708 123.202 2.09262 123.158 2.10739C122.722 2.23541 120.7 2.8952 120.695 2.90997L120.691 2.90505Z" fill="#DCC9A8"/>
<path d="M123.725 7.89327C123.812 7.92281 123.904 7.91296 124.006 7.84895C124.103 7.78494 124.2 7.66677 124.263 7.47966C124.321 7.29748 124.335 7.04637 124.253 6.79033C124.175 6.53429 124.006 6.28317 123.783 6.10099C123.671 6.00743 123.511 5.91388 123.317 5.8351C123.124 5.76125 122.901 5.71201 122.663 5.70216C122.426 5.69231 122.183 5.72185 121.95 5.78586C121.718 5.84987 121.505 5.94835 121.311 6.0616C121.122 6.17977 120.957 6.31272 120.816 6.44566C120.748 6.5146 120.685 6.5786 120.632 6.64261C120.579 6.71155 120.53 6.77063 120.491 6.82972C120.453 6.88881 120.419 6.94297 120.39 6.99221C120.361 7.04145 120.341 7.08575 120.322 7.12515C120.288 7.199 120.278 7.24824 120.293 7.26301C120.307 7.27778 120.351 7.26302 120.424 7.22855C120.501 7.18916 120.598 7.14484 120.71 7.09068C120.768 7.06114 120.836 7.03652 120.899 7.00698C120.966 6.97744 121.039 6.95282 121.112 6.92327C121.262 6.86911 121.427 6.82972 121.592 6.80018C121.757 6.77556 121.921 6.77063 122.077 6.78048C122.232 6.79525 122.372 6.8248 122.489 6.86911C122.61 6.91343 122.707 6.96758 122.775 7.01682C122.794 7.02667 122.808 7.04144 122.823 7.05129C122.838 7.06114 122.852 7.07098 122.867 7.08575C122.881 7.0956 122.891 7.10546 122.905 7.1153C122.915 7.12515 122.925 7.13499 122.934 7.13992C123.007 7.199 123.07 7.24824 123.128 7.3024C123.187 7.35164 123.25 7.41073 123.308 7.48459C123.429 7.62738 123.536 7.82433 123.71 7.88342L123.725 7.89327Z" fill="#DCC9A8"/>
<path d="M122.484 9.24224C122.416 9.25209 122.353 9.3161 122.3 9.42442C122.246 9.53274 122.198 9.69031 122.149 9.88234C122.125 9.98574 122.101 10.0891 122.077 10.2024C122.067 10.2615 122.052 10.3206 122.038 10.3796C122.023 10.4437 122.009 10.5077 121.994 10.5717C121.97 10.7046 121.931 10.8376 121.902 10.9853C121.863 11.1281 121.829 11.2758 121.781 11.4284C121.689 11.7288 121.577 12.0439 121.422 12.3344C121.34 12.4772 121.258 12.6249 121.156 12.7579C121.107 12.8268 121.054 12.8859 121.001 12.9548C120.942 13.0139 120.889 13.0779 120.826 13.137C120.584 13.3733 120.278 13.5703 119.92 13.7377C119.556 13.9002 119.139 14.0282 118.679 14.1218C118.223 14.2202 117.588 14.3089 116.817 14.3581C116.047 14.4073 115.14 14.4172 114.151 14.4123C113.162 14.4123 112.086 14.3926 110.967 14.4615C110.685 14.4812 110.404 14.5009 110.118 14.5354C109.978 14.5551 109.832 14.5698 109.687 14.5944L109.58 14.6141L109.469 14.6388C109.391 14.6535 109.318 14.6683 109.241 14.6831C108.645 14.8259 108.082 15.0573 107.578 15.3527C107.321 15.4955 107.089 15.6629 106.856 15.8303C106.633 16.0076 106.415 16.1849 106.221 16.3769C105.823 16.7609 105.479 17.1696 105.203 17.5931C104.641 18.44 104.316 19.3312 104.195 20.0993C104.161 20.2913 104.146 20.4784 104.132 20.6508C104.127 20.828 104.117 20.9905 104.132 21.1481C104.132 21.3007 104.156 21.4435 104.166 21.5764C104.18 21.7094 104.209 21.8276 104.229 21.931C104.282 22.1427 104.326 22.3003 104.374 22.4086C104.418 22.512 104.447 22.5661 104.461 22.5612C104.476 22.5612 104.476 22.4972 104.471 22.384C104.461 22.2707 104.456 22.1082 104.452 21.9014C104.452 21.798 104.452 21.6848 104.461 21.5617C104.471 21.4386 104.476 21.3056 104.5 21.1628C104.515 21.0201 104.544 20.8723 104.573 20.7148C104.612 20.5572 104.65 20.3947 104.704 20.2273C104.912 19.5527 105.305 18.8043 105.886 18.1248C106.177 17.7851 106.517 17.4601 106.89 17.1745C107.074 17.0268 107.278 16.8988 107.481 16.7708C107.69 16.6526 107.898 16.5344 108.121 16.4409C108.562 16.2439 109.028 16.111 109.493 16.047C109.551 16.0371 109.609 16.0371 109.667 16.0273L109.755 16.0174H109.847C109.973 16.0027 110.099 15.9977 110.225 15.9977C110.482 15.9928 110.739 15.9977 110.996 16.0027C112.033 16.0371 113.08 16.1405 114.079 16.2193C115.077 16.303 116.032 16.3572 116.885 16.3473C117.738 16.3424 118.499 16.2636 119.086 16.1405C119.668 16.0224 120.249 15.8303 120.792 15.5497C121.33 15.2641 121.829 14.88 122.208 14.4172C122.305 14.3039 122.387 14.1858 122.469 14.0676C122.547 13.9445 122.624 13.8263 122.683 13.7032C122.814 13.457 122.91 13.2109 122.988 12.9696C123.138 12.4871 123.192 12.039 123.206 11.6401C123.216 11.4383 123.206 11.2512 123.196 11.0739C123.177 10.8967 123.163 10.7342 123.133 10.5864C123.119 10.5126 123.104 10.4387 123.095 10.3698C123.08 10.3009 123.061 10.2369 123.046 10.1728C123.012 10.0448 122.978 9.93158 122.94 9.8331C122.867 9.63122 122.784 9.48351 122.707 9.38504C122.629 9.28656 122.557 9.24225 122.489 9.24717L122.484 9.24224Z" fill="#DCC9A8"/>
<path d="M115.004 10.9409C115.052 10.8671 114.985 10.7144 114.8 10.5076C114.606 10.3058 114.301 10.0448 113.836 9.82322C113.778 9.7986 113.715 9.76905 113.656 9.74443C113.593 9.71981 113.525 9.70012 113.458 9.6755C113.322 9.62626 113.176 9.59672 113.021 9.56225C112.711 9.50809 112.367 9.48839 112.003 9.53763C111.645 9.58687 111.271 9.70012 110.918 9.8823C110.569 10.0596 110.239 10.3008 109.953 10.5815C109.662 10.8621 109.332 11.2659 109.032 11.7731C108.736 12.2851 108.465 12.8957 108.266 13.5703C108.062 14.2547 107.961 14.9735 107.844 15.6777C107.733 16.3818 107.621 17.0809 107.423 17.7161C107.321 18.0362 107.209 18.3414 107.064 18.6221C106.923 18.9028 106.763 19.1736 106.584 19.405C106.23 19.8728 105.808 20.2519 105.459 20.5867C105.285 20.7541 105.13 20.9117 104.994 21.0545C104.863 21.2022 104.757 21.3351 104.669 21.4435C104.509 21.6749 104.432 21.8078 104.451 21.8226C104.466 21.8324 104.582 21.729 104.776 21.5419C104.883 21.4533 105.004 21.3499 105.154 21.2268C105.304 21.1136 105.474 20.9806 105.673 20.8428C106.056 20.5621 106.54 20.2371 106.996 19.7595C107.457 19.2868 107.849 18.6664 108.135 17.982C108.426 17.2976 108.61 16.5689 108.785 15.8697C108.959 15.1754 109.119 14.5009 109.332 13.9297C109.546 13.3536 109.812 12.8464 110.079 12.4378C110.346 12.034 110.617 11.7287 110.83 11.5219C111.262 11.1034 111.732 10.8326 112.202 10.7193C112.435 10.6603 112.667 10.6406 112.895 10.6356C113.007 10.6406 113.118 10.6356 113.225 10.6553C113.278 10.6603 113.332 10.6652 113.385 10.675C113.438 10.6849 113.487 10.6947 113.54 10.6997C113.942 10.7735 114.282 10.8818 114.534 10.9409C114.781 11.0049 114.946 11.0148 114.994 10.9409H115.004Z" fill="#DCC9A8"/>
<path d="M104.408 16.406C104.359 16.3666 104.282 16.3765 104.18 16.4306C104.127 16.4552 104.073 16.4946 104.01 16.539C103.947 16.5882 103.884 16.6424 103.817 16.7113C103.545 16.9772 103.23 17.4203 103.012 17.9767C102.905 18.2524 102.769 18.7202 102.716 19.2717C102.658 19.8231 102.687 20.4436 102.789 21.0098C102.813 21.1526 102.847 21.2855 102.871 21.4234C102.886 21.4923 102.91 21.5613 102.925 21.6253C102.944 21.6893 102.968 21.7533 102.992 21.8124C103.085 22.0536 103.182 22.2555 103.259 22.4279C103.337 22.6002 103.395 22.7381 103.434 22.8415C103.468 22.9399 103.497 22.999 103.511 22.999C103.521 22.999 103.531 22.935 103.531 22.8218C103.531 22.7085 103.506 22.551 103.472 22.3589C103.434 22.1718 103.385 21.9502 103.346 21.7139C103.337 21.6548 103.327 21.5957 103.322 21.5366C103.322 21.4776 103.312 21.4185 103.308 21.3545C103.308 21.2264 103.298 21.0935 103.298 20.9606C103.298 20.4239 103.356 19.8675 103.468 19.3948C103.574 18.9221 103.729 18.5331 103.817 18.2968C104.001 17.8191 104.195 17.3908 104.326 17.0609C104.359 16.9772 104.384 16.8984 104.403 16.8295C104.427 16.7605 104.442 16.6965 104.452 16.6424C104.471 16.534 104.456 16.4503 104.413 16.4159L104.408 16.406Z" fill="#DCC9A8"/>
<path d="M116.226 3.33816C116.226 3.26922 116.177 3.19536 116.075 3.12643C115.974 3.0575 115.818 2.98364 115.615 2.92455C115.513 2.89008 115.402 2.86547 115.276 2.84085C115.213 2.831 115.145 2.81623 115.077 2.80638C115.004 2.79654 114.936 2.79161 114.859 2.78176C114.708 2.76207 114.548 2.76207 114.374 2.75714C114.199 2.75714 114.015 2.76206 113.821 2.78668C113.429 2.82607 112.992 2.91963 112.532 3.10181C112.304 3.20028 112.067 3.31354 111.834 3.46618C111.718 3.53511 111.606 3.62374 111.49 3.71237C111.378 3.80592 111.267 3.89947 111.165 4.00287C110.738 4.41647 110.399 4.94825 110.162 5.51941C109.924 6.09058 109.784 6.69129 109.706 7.292C109.628 7.8927 109.609 8.66574 109.662 9.53233C109.716 10.3989 109.842 11.364 109.992 12.3685C110.142 13.3729 110.322 14.4266 110.428 15.4754C110.452 15.7364 110.477 15.9973 110.491 16.2583C110.496 16.3863 110.501 16.5143 110.506 16.6424V16.7359V16.8245C110.506 16.8836 110.506 16.9427 110.506 17.0018C110.477 17.4745 110.38 17.957 110.22 18.4149C110.142 18.6464 110.045 18.8679 109.943 19.0895C109.837 19.3061 109.72 19.5179 109.59 19.7148C109.333 20.1137 109.047 20.4829 108.732 20.803C108.106 21.4431 107.403 21.8912 106.759 22.1521C106.599 22.2211 106.439 22.2703 106.289 22.3195C106.138 22.3589 105.993 22.4032 105.852 22.4279C105.717 22.4623 105.586 22.4771 105.464 22.4968C105.343 22.5116 105.232 22.5214 105.13 22.5313C104.926 22.5411 104.766 22.551 104.655 22.551C104.543 22.551 104.485 22.5657 104.48 22.5805C104.48 22.5953 104.534 22.6199 104.64 22.6544C104.747 22.6937 104.907 22.7282 105.12 22.7627C105.227 22.7725 105.343 22.7922 105.474 22.7971C105.605 22.7971 105.746 22.8119 105.896 22.7971C106.046 22.7971 106.211 22.7774 106.381 22.7578C106.55 22.7282 106.73 22.6987 106.914 22.6544C107.656 22.4722 108.504 22.0832 109.294 21.448C109.691 21.1329 110.07 20.7587 110.414 20.3303C110.588 20.1186 110.748 19.8872 110.903 19.6459C111.054 19.4046 111.199 19.1486 111.32 18.8827C111.572 18.3509 111.756 17.765 111.853 17.1495C111.863 17.0707 111.873 16.9969 111.882 16.9181L111.897 16.7999L111.907 16.6867C111.921 16.539 111.926 16.3912 111.936 16.2484C111.95 15.9579 111.95 15.6674 111.95 15.3819C111.936 14.2444 111.839 13.1563 111.766 12.1518C111.689 11.1474 111.63 10.2315 111.626 9.44371C111.616 8.66082 111.659 8.01087 111.718 7.53819C111.776 7.0655 111.873 6.6322 112.004 6.25307C112.139 5.87393 112.309 5.55388 112.527 5.28799C112.58 5.21906 112.639 5.15997 112.692 5.09596C112.755 5.03688 112.808 4.97779 112.871 4.92363C112.992 4.81038 113.128 4.71682 113.264 4.62327C113.54 4.44601 113.841 4.30815 114.127 4.1949C114.272 4.13581 114.413 4.0915 114.553 4.04226C114.694 4.00287 114.825 3.95363 114.951 3.91917C115.014 3.89947 115.077 3.87978 115.135 3.865C115.193 3.85023 115.251 3.83053 115.31 3.81576C115.416 3.7813 115.518 3.75175 115.62 3.71729C115.809 3.65328 115.954 3.5942 116.061 3.53019C116.163 3.46618 116.221 3.39724 116.226 3.32831V3.33816Z" fill="#DCC9A8"/>
<path d="M115.106 11.0395C115.038 11.0986 115.057 11.2611 115.14 11.5073C115.213 11.7584 115.348 12.0932 115.45 12.497C115.465 12.5462 115.474 12.6004 115.489 12.6496C115.503 12.7038 115.508 12.758 115.518 12.8072C115.542 12.9155 115.547 13.0288 115.562 13.142C115.576 13.3685 115.571 13.6098 115.533 13.851C115.455 14.3336 115.222 14.8309 114.844 15.2987C114.655 15.5301 114.379 15.8255 114.001 16.1308C113.623 16.4311 113.143 16.7364 112.59 16.9974C112.047 17.2583 111.398 17.4651 110.729 17.6916C110.06 17.9181 109.352 18.1594 108.703 18.5041C108.053 18.8438 107.471 19.2919 107.04 19.7892C106.604 20.2914 106.322 20.7986 106.075 21.2122C105.954 21.419 105.838 21.6012 105.736 21.7637C105.629 21.9212 105.537 22.0542 105.46 22.1674C105.29 22.3791 105.198 22.5071 105.212 22.5219C105.222 22.5367 105.348 22.4431 105.561 22.2659C105.658 22.1723 105.784 22.0542 105.915 21.9064C106.046 21.7587 106.192 21.5913 106.342 21.3993C106.647 21.0251 106.982 20.5672 107.418 20.1732C107.631 19.9714 107.883 19.7941 108.15 19.6267C108.417 19.4593 108.707 19.3214 109.013 19.1983C109.624 18.9472 110.302 18.7897 110.986 18.6222C111.669 18.4548 112.362 18.2973 113.022 18.0462C113.671 17.8 114.253 17.4799 114.733 17.1402C115.213 16.8004 115.586 16.4361 115.838 16.1209C116.09 15.8058 116.303 15.4611 116.454 15.0919C116.604 14.7226 116.691 14.3385 116.71 13.9692C116.73 13.5999 116.686 13.2503 116.609 12.9401C116.565 12.7875 116.521 12.6398 116.463 12.5068C116.434 12.4428 116.41 12.3739 116.381 12.3148C116.352 12.2557 116.318 12.1966 116.289 12.1376C116.041 11.6846 115.76 11.3891 115.547 11.2069C115.324 11.0346 115.174 10.9755 115.106 11.0297V11.0395Z" fill="#DCC9A8"/>
<path d="M116.27 7.72009C115.78 8.25679 115.809 9.09384 116.337 9.59115C116.866 10.0885 117.69 10.0589 118.179 9.52221C118.669 8.98552 118.64 8.14846 118.112 7.65116C117.583 7.15385 116.759 7.18339 116.27 7.72009Z" fill="#DCC9A8"/>
<path d="M101.907 23.5363C101.466 24.0189 101.495 24.7673 101.97 25.2154C102.445 25.6634 103.182 25.6339 103.623 25.1513C104.064 24.6688 104.035 23.9204 103.56 23.4723C103.085 23.0242 102.348 23.0538 101.907 23.5363Z" fill="#DCC9A8"/>
<path d="M110.457 22.1128C110.418 22.0684 110.336 22.0635 110.229 22.0881C110.176 22.1029 110.113 22.1226 110.05 22.1522C109.982 22.1768 109.909 22.2112 109.827 22.2506C109.512 22.4033 109.105 22.6298 108.649 22.8563C108.421 22.9646 108.053 23.1468 107.592 23.2896C107.137 23.4373 106.594 23.5358 106.065 23.5751C105.935 23.585 105.804 23.5899 105.678 23.5948C105.619 23.5948 105.561 23.5948 105.498 23.5948C105.44 23.5948 105.382 23.585 105.324 23.5801C105.091 23.5554 104.873 23.521 104.684 23.4964C104.495 23.4717 104.335 23.4668 104.228 23.4717C104.117 23.4816 104.059 23.4914 104.059 23.5062C104.059 23.5161 104.117 23.5407 104.219 23.5653C104.32 23.5948 104.461 23.6441 104.635 23.713C104.81 23.777 105.014 23.8607 105.256 23.9395C105.319 23.9543 105.377 23.9789 105.445 23.9937C105.513 24.0084 105.581 24.0232 105.649 24.0331C105.779 24.0528 105.92 24.0725 106.056 24.0872C106.618 24.1463 107.229 24.1315 107.767 24.0331C108.305 23.9395 108.756 23.7672 109.017 23.6392C109.546 23.3782 109.958 23.0286 110.2 22.7332C110.258 22.6593 110.312 22.5904 110.355 22.5214C110.394 22.4525 110.428 22.3934 110.447 22.3393C110.491 22.2309 110.496 22.1522 110.452 22.1078L110.457 22.1128Z" fill="#DCC9A8"/>
<path d="M94.4705 7.55768C94.2475 7.7891 94.5044 8.43413 95.0134 9.30565C95.5175 10.1821 96.2737 11.2949 97.0057 12.5406C97.1947 12.8508 97.4274 13.2595 97.6843 13.7469C97.9364 14.2344 98.1981 14.8056 98.4308 15.4407C98.6635 16.0759 98.8574 16.7702 98.9882 17.4989C99.124 18.2276 99.1918 18.981 99.1967 19.7245C99.2112 21.2115 98.964 22.6295 98.7313 23.6636C98.4938 24.6976 98.2951 25.3573 98.3678 25.3918C98.4162 25.4164 98.8089 24.8453 99.2839 23.8605C99.7493 22.8757 100.292 21.4527 100.539 19.8279C100.665 19.0154 100.719 18.1587 100.685 17.3069C100.651 16.46 100.535 15.618 100.35 14.8499C100.171 14.0818 99.9286 13.3777 99.6814 12.7819C99.4294 12.191 99.1773 11.6986 98.964 11.3392C98.1109 9.89159 97.0541 8.82311 96.201 8.18301C95.3382 7.54291 94.6789 7.32134 94.4608 7.54783L94.4705 7.55768Z" fill="#DCC9A8"/>
<path d="M33.7818 9.87264C34.2957 9.77416 34.824 9.64614 35.3621 9.47873C35.9001 9.31132 36.4479 9.1193 37.0102 8.89772C38.1299 8.4595 39.2836 7.92281 40.4809 7.39103C41.082 7.12514 41.6831 6.85926 42.2987 6.58352C42.9095 6.30779 43.5299 6.02713 44.1552 5.75139C44.7805 5.47074 45.4156 5.20485 46.0554 4.94389C46.6953 4.68785 47.3448 4.43673 47.9992 4.22008C48.324 4.10191 48.6584 4.00836 48.9881 3.90496C49.1529 3.85079 49.3177 3.8114 49.4874 3.76709C49.6522 3.72277 49.817 3.67353 49.9866 3.63414C50.3211 3.56029 50.6556 3.47166 50.99 3.41749C51.1597 3.38795 51.3245 3.35349 51.4942 3.32887C51.6638 3.30425 51.8286 3.28455 51.9983 3.25994C52.0807 3.25009 52.168 3.23532 52.2504 3.23039L52.5024 3.21069C52.6721 3.19592 52.8369 3.18607 53.0066 3.1713C53.1714 3.16638 53.3362 3.15653 53.501 3.15161C53.6658 3.14176 53.8306 3.13684 53.9954 3.13684C54.1602 3.13684 54.325 3.13191 54.4899 3.12699C54.6547 3.12699 54.8195 3.12699 54.9843 3.12699H55.2315L55.4787 3.14176C55.6435 3.15161 55.8035 3.15161 55.9683 3.16638C56.6179 3.2107 57.2674 3.29932 57.8976 3.45196C57.9751 3.47166 58.0527 3.49135 58.1351 3.51105C58.2126 3.53074 58.2902 3.55044 58.3678 3.57506C58.5229 3.6243 58.678 3.67846 58.8283 3.7277C58.9785 3.79171 59.1288 3.8508 59.2791 3.91481C59.3566 3.94435 59.4293 3.97881 59.502 4.0182C59.5748 4.05267 59.6475 4.09206 59.7202 4.12653C59.7929 4.16592 59.8656 4.19546 59.9383 4.23977C60.011 4.27916 60.0789 4.32348 60.1516 4.36287C60.2922 4.44657 60.4327 4.52536 60.5636 4.62383C60.6994 4.71738 60.8351 4.80602 60.966 4.90449C61.0968 5.00297 61.2229 5.10637 61.3489 5.20485C61.4119 5.25409 61.4749 5.30824 61.5331 5.36241C61.5961 5.41657 61.6543 5.47073 61.7173 5.52489C61.7755 5.57906 61.8385 5.63322 61.8967 5.68246C61.9548 5.73662 62.013 5.79571 62.0712 5.84987C62.1875 5.96312 62.299 6.07637 62.4153 6.18469C62.4735 6.24378 62.5268 6.30779 62.585 6.36687C62.6432 6.42596 62.6965 6.48997 62.7498 6.55398C62.8031 6.61799 62.8564 6.682 62.9098 6.74601C62.9631 6.81002 63.0115 6.87895 63.06 6.94788C63.1618 7.08083 63.2539 7.22362 63.346 7.36149C63.5254 7.64707 63.695 7.93758 63.8453 8.24285C63.9956 8.54321 64.1216 8.86325 64.2428 9.17838C64.3543 9.49843 64.4561 9.81848 64.5288 10.1484C64.8487 11.4581 64.8536 12.8171 64.616 13.9939C64.4997 14.5798 64.3203 15.1215 64.1071 15.5991C63.8938 16.0767 63.6514 16.4854 63.4042 16.8349C63.157 17.1895 62.8807 17.4947 62.5995 17.7803C62.5268 17.8493 62.4541 17.9133 62.3814 17.9822C62.3475 18.0167 62.3087 18.0462 62.2699 18.0807L62.1536 18.1742C62.076 18.2382 61.9985 18.2924 61.916 18.3515L61.7997 18.4352L61.6785 18.5091C61.3586 18.706 61.0241 18.8636 60.6945 18.9719C60.3649 19.0851 60.0304 19.1639 59.7056 19.2082C59.0512 19.2969 58.4065 19.2673 57.7958 19.1491C57.4904 19.0901 57.1898 19.0064 56.899 18.898C56.7536 18.8488 56.613 18.7848 56.4676 18.7257C56.3949 18.6962 56.327 18.6568 56.2591 18.6272C56.1913 18.5928 56.1186 18.5583 56.0556 18.5189C55.9877 18.4795 55.9198 18.4401 55.852 18.4056C55.7841 18.3663 55.7211 18.3219 55.6581 18.2826L55.5611 18.2185L55.4642 18.1496C55.4012 18.1053 55.3381 18.0561 55.2751 18.0117C55.2121 17.9625 55.1539 17.9133 55.0958 17.864L55.0037 17.7902L54.9164 17.7114C54.8583 17.6572 54.8001 17.6031 54.7468 17.5489C54.6934 17.4898 54.6353 17.4357 54.582 17.3766C54.5286 17.3224 54.4753 17.2584 54.422 17.1993C54.3687 17.1353 54.3202 17.0762 54.2669 17.0122C54.1699 16.8793 54.073 16.7562 53.9857 16.6134C53.8064 16.3475 53.6561 16.0471 53.5204 15.7468C53.4913 15.668 53.4574 15.5892 53.4283 15.5154L53.3846 15.3972L53.3459 15.279C53.3216 15.2002 53.2974 15.1215 53.2683 15.0377C53.2489 14.954 53.2295 14.8753 53.2053 14.7916L53.1762 14.6685C53.1665 14.6291 53.1617 14.5848 53.152 14.5454C53.1374 14.4617 53.1229 14.378 53.1083 14.2992C53.0987 14.2155 53.089 14.1318 53.0793 14.0481L53.0647 13.925C53.0647 13.8856 53.0647 13.8413 53.0599 13.8019C53.0599 13.7182 53.055 13.6345 53.0502 13.5507C53.0502 13.467 53.0502 13.3833 53.0502 13.3046V13.1815L53.0647 13.0584C53.0696 12.9747 53.0793 12.8959 53.0841 12.8171C53.0938 12.7383 53.1083 12.6595 53.118 12.5807C53.1229 12.5414 53.1277 12.502 53.1374 12.4626L53.1617 12.3493C53.1762 12.2705 53.1908 12.1967 53.2101 12.1228C53.2295 12.049 53.2489 11.9751 53.2683 11.9013C53.278 11.8668 53.2877 11.8274 53.2974 11.7929L53.3313 11.6846C53.3556 11.6157 53.3798 11.5467 53.404 11.4729C53.4331 11.404 53.4574 11.3399 53.4864 11.271L53.5252 11.1725C53.5398 11.1381 53.5543 11.1085 53.5688 11.079C53.5979 11.015 53.6319 10.9559 53.6609 10.8919C53.69 10.8328 53.7288 10.7737 53.7579 10.7146C53.8209 10.5964 53.8936 10.4881 53.9663 10.3847C54.2523 9.96127 54.5868 9.64615 54.9164 9.41473C55.2509 9.18331 55.5854 9.05036 55.9004 8.98635C56.2107 8.92726 56.5015 8.92726 56.7487 8.98635C56.7778 8.99127 56.8118 8.9962 56.8408 9.00113C56.8699 9.01098 56.899 9.02082 56.9281 9.02574C56.9863 9.04051 57.0396 9.06021 57.0929 9.07498C57.1995 9.1193 57.2965 9.15868 57.3837 9.203C57.4661 9.25224 57.5486 9.30148 57.6213 9.34087C57.6455 9.36056 57.6697 9.38026 57.694 9.39996C58.2417 9.50828 58.6441 10.1139 58.6247 10.8623C58.6053 11.6994 58.0672 12.3936 57.4225 12.4084C56.7778 12.4281 56.2737 11.7634 56.2931 10.9263C56.3076 10.2715 56.6421 9.70523 57.0977 9.47873C57.0687 9.47381 57.0396 9.46396 57.0105 9.45904C56.962 9.45412 56.9087 9.44427 56.8554 9.43935C56.8311 9.43935 56.8021 9.43442 56.773 9.4295C56.7439 9.4295 56.7196 9.4295 56.6906 9.4295C56.4676 9.41473 56.2155 9.44427 55.9538 9.52797C55.692 9.61168 55.4109 9.75447 55.1394 9.97112C54.8728 10.1878 54.6062 10.4783 54.3832 10.8426C54.3299 10.9362 54.2717 11.0248 54.2232 11.1282C54.199 11.1775 54.1699 11.2267 54.1457 11.2809C54.1215 11.335 54.1021 11.3843 54.0778 11.4384C54.0681 11.463 54.0536 11.4926 54.0439 11.5172L54.0148 11.6009C53.9954 11.6551 53.976 11.7142 53.9518 11.7683C53.9324 11.8274 53.9179 11.8865 53.8985 11.9456L53.8742 12.0342C53.8645 12.0637 53.8597 12.0933 53.8548 12.1228C53.8403 12.1819 53.8258 12.2459 53.8112 12.305C53.8015 12.369 53.7918 12.4281 53.7773 12.4921L53.7627 12.5857C53.7627 12.6152 53.7579 12.6497 53.753 12.6792C53.7482 12.7432 53.7385 12.8072 53.7337 12.8713C53.7337 12.9353 53.7288 12.9993 53.724 13.0682V13.1667V13.2652C53.724 13.3292 53.724 13.3981 53.724 13.4621C53.7288 13.5261 53.7337 13.5951 53.7385 13.664C53.7385 13.6985 53.7385 13.7329 53.7482 13.7625L53.7627 13.8609C53.7724 13.925 53.7821 13.9939 53.7918 14.0628C53.8064 14.1268 53.8209 14.1958 53.8355 14.2598C53.8403 14.2942 53.85 14.3287 53.8548 14.3583L53.8839 14.4567C53.9033 14.5207 53.9179 14.5897 53.9372 14.6537C53.9615 14.7177 53.9809 14.7817 54.0051 14.8457L54.039 14.9442L54.0778 15.0377C54.1069 15.1018 54.1311 15.1658 54.1602 15.2249C54.6207 16.2145 55.4206 17.027 56.39 17.5194C56.4482 17.5538 56.5112 17.5784 56.5742 17.608C56.6372 17.6375 56.6954 17.6671 56.7633 17.6917C56.8893 17.7409 57.0153 17.7951 57.1462 17.8345C57.408 17.9231 57.6746 17.992 57.9509 18.0413C58.4986 18.1398 59.0706 18.1545 59.6475 18.0708C59.9335 18.0314 60.2195 17.9576 60.5006 17.8591C60.7818 17.7606 61.0581 17.6326 61.3198 17.4652L61.4168 17.4061L61.5137 17.3372C61.5767 17.2929 61.6446 17.2486 61.7028 17.1944L61.7949 17.1205C61.8239 17.0959 61.8579 17.0713 61.887 17.0417C61.95 16.9827 62.0081 16.9236 62.0712 16.8694C62.3087 16.6281 62.5462 16.3721 62.7449 16.0767C62.9485 15.7862 63.1521 15.4513 63.3266 15.0624C63.5011 14.6783 63.6466 14.2401 63.7435 13.7575C63.8405 13.275 63.8938 12.7531 63.8889 12.2115C63.8889 12.0736 63.8792 11.9357 63.8744 11.7979C63.8647 11.66 63.8501 11.5221 63.8356 11.3793C63.7968 11.0987 63.7532 10.8131 63.6853 10.5324C63.6223 10.2469 63.5351 9.97112 63.443 9.69046C63.3412 9.41473 63.2345 9.13899 63.1036 8.8731C62.9776 8.60229 62.8322 8.34625 62.6771 8.09514C62.5947 7.97204 62.5171 7.84403 62.425 7.73078C62.3814 7.67169 62.3378 7.61261 62.2941 7.55352C62.2457 7.49443 62.202 7.44027 62.1536 7.38118C62.1099 7.3221 62.0566 7.26794 62.0081 7.21377C61.9597 7.15961 61.9112 7.10545 61.8579 7.05129C61.7512 6.94296 61.6446 6.83956 61.5379 6.73124C61.4846 6.67708 61.4313 6.62291 61.3731 6.56875C61.315 6.51951 61.2617 6.46535 61.2035 6.41611C61.1453 6.36688 61.092 6.31271 61.0338 6.26347C60.9757 6.21423 60.9223 6.16008 60.8593 6.11576C60.743 6.02221 60.6218 5.92373 60.5055 5.83018C60.3843 5.73662 60.2631 5.65292 60.1371 5.56429C60.0159 5.47073 59.885 5.39688 59.759 5.31809C59.6959 5.2787 59.6329 5.23932 59.5651 5.19993C59.502 5.16054 59.4342 5.13099 59.3663 5.0916C59.2985 5.05714 59.2354 5.02267 59.1676 4.9882C59.0997 4.95373 59.0319 4.91927 58.964 4.88972C58.8283 4.83064 58.6877 4.77155 58.5471 4.71246C58.4065 4.66323 58.2611 4.61399 58.1205 4.55983C58.0478 4.53028 57.9751 4.51551 57.9024 4.49581C57.8297 4.47612 57.757 4.45643 57.6843 4.43673C57.0929 4.28409 56.4821 4.18069 55.8568 4.13145C55.7017 4.11668 55.5417 4.11176 55.3818 4.09699L55.1443 4.08221H54.9067C54.7468 4.07237 54.5868 4.06744 54.4268 4.06252C54.359 4.06252 54.2863 4.06252 54.2184 4.06252C54.1699 4.09698 54.1215 4.12653 54.0633 4.15607C53.8839 4.2447 53.6609 4.29394 53.404 4.33826C53.152 4.37765 52.866 4.47612 52.5461 4.5549C51.911 4.72231 51.1694 5.0079 50.3599 5.36734C49.5601 5.76124 48.6827 6.23885 47.7568 6.75093C46.5014 7.44027 45.3138 8.05575 44.2813 8.52352C43.7626 8.74509 43.2875 8.95681 42.8658 9.10452C42.6525 9.18331 42.4586 9.25224 42.2744 9.32117C42.0902 9.37534 41.9206 9.42457 41.7703 9.47381C41.6249 9.53782 41.4601 9.61168 41.2807 9.69046C41.1014 9.76924 40.9026 9.8431 40.6942 9.9268C40.2725 10.0942 39.7974 10.2764 39.2691 10.4635C38.2172 10.8279 36.9666 11.2119 35.6044 11.3252C35.1052 11.3596 34.6156 11.3793 34.1454 11.335C33.9079 11.3252 33.68 11.2809 33.4571 11.2562C33.3456 11.2365 33.2341 11.2119 33.1274 11.1922C33.0208 11.1676 32.9093 11.1528 32.8075 11.1184C32.0465 10.9214 31.4018 10.5866 30.8637 10.2665C30.7425 10.2419 30.6262 10.2124 30.5098 10.1828C30.7425 10.3503 31.0188 10.5324 31.3339 10.7195C31.4018 10.7589 31.4745 10.8032 31.5472 10.8426C31.6199 10.882 31.6975 10.9214 31.775 10.9608C31.9253 11.0445 32.0901 11.1184 32.2549 11.2021C32.5942 11.3547 32.9529 11.5172 33.3407 11.6501C33.7285 11.7831 34.1405 11.9062 34.572 11.9899C34.7901 12.0342 35.0082 12.0638 35.2312 12.0834C35.3427 12.0884 35.459 12.0982 35.5754 12.1081C35.6917 12.113 35.808 12.1081 35.9244 12.113C37.1992 12.1228 38.4014 11.9062 39.429 11.6797C40.4518 11.4433 41.305 11.1972 41.8867 11.015C42.1678 10.882 42.5168 10.7294 42.9143 10.5226C43.3118 10.3207 43.7577 10.0942 44.2522 9.84802C44.7369 9.57721 45.2653 9.2867 45.8227 8.98635C46.3753 8.6663 46.957 8.32656 47.5581 7.97697C47.9992 7.71108 48.4306 7.45504 48.8475 7.21377C49.2547 6.97251 49.6425 6.70169 50.0109 6.43581C50.3793 6.16992 50.7331 5.91388 51.0676 5.68738C51.4021 5.45596 51.722 5.25409 52.0128 5.08175C52.6042 4.74201 53.1083 4.5549 53.4574 4.47119C53.5446 4.4515 53.6222 4.43181 53.69 4.42196C53.7579 4.41211 53.8161 4.40718 53.8597 4.40226C53.9518 4.39241 54.0003 4.38749 54.0003 4.38749C54.0003 4.38749 53.9518 4.40226 53.8597 4.42688C53.8161 4.44165 53.7579 4.45643 53.69 4.47612C53.6222 4.50074 53.5495 4.53028 53.4622 4.55983C53.1229 4.69277 52.6478 4.94388 52.0952 5.34272C51.8189 5.54459 51.5184 5.77109 51.1985 6.03205C50.8786 6.29301 50.5392 6.56875 50.1805 6.85926C49.817 7.14976 49.4292 7.45012 49.0075 7.71601C48.5906 7.97697 48.1592 8.23793 47.7181 8.50874C47.1121 8.86326 46.5159 9.17838 45.9536 9.48366C45.3816 9.7594 44.8436 10.0154 44.3443 10.2469C43.8402 10.4487 43.3748 10.6309 42.9628 10.7885C42.5556 10.946 42.192 11.0544 41.9012 11.1479C41.3341 11.4089 40.5003 11.7683 39.4678 12.0933C38.4402 12.4084 37.2138 12.6989 35.8856 12.6891C35.7644 12.6891 35.6432 12.6891 35.522 12.6792C35.4009 12.6694 35.2845 12.6595 35.1633 12.6497C34.9258 12.6251 34.6931 12.5857 34.4702 12.5315C34.0194 12.4281 33.5976 12.2755 33.205 12.113C32.8124 11.9456 32.4488 11.7535 32.1143 11.5615C31.9495 11.4581 31.7896 11.3695 31.6393 11.2661C31.5666 11.2168 31.489 11.1676 31.4212 11.1184C31.3484 11.0691 31.2806 11.015 31.2127 10.9657C30.7765 10.6457 30.4274 10.3306 30.1754 10.0696C29.9815 10.0056 29.7973 9.93173 29.6179 9.8431C29.3028 9.69046 29.0217 9.48859 28.7842 9.23747C28.8133 9.18823 28.8423 9.13407 28.8617 9.07498C28.8617 9.06514 28.8714 9.05529 28.8763 9.04544C29.1041 9.27686 29.3853 9.45904 29.6955 9.60183C29.7246 9.6166 29.7537 9.62645 29.7827 9.6363C29.7585 9.60676 29.7343 9.57721 29.7149 9.5526C29.6906 9.52305 29.6713 9.49843 29.6567 9.48366C29.5307 9.39996 29.4192 9.3261 29.3174 9.26209C29.1186 9.13899 28.9781 9.05037 28.8957 9.00113C28.8957 9.00113 28.8957 8.99127 28.9005 8.98635C28.9878 9.02082 29.138 9.08483 29.3465 9.17346C29.5113 9.25224 29.7197 9.35071 29.9572 9.46396C30.1948 9.57721 30.4614 9.71016 30.7571 9.85787C30.8298 9.89234 30.8976 9.92681 30.9752 9.96127C31.8235 10.0942 32.7687 10.0597 33.7673 9.88741L33.7818 9.87264ZM30.059 9.72C30.0057 9.68554 29.9572 9.65107 29.9088 9.62153C29.8458 9.57721 29.7827 9.53782 29.7246 9.49843C29.7294 9.50336 29.7391 9.50828 29.744 9.51812C29.7876 9.55752 29.8409 9.60676 29.9039 9.66092C29.9572 9.68062 30.0106 9.70031 30.0639 9.72H30.059ZM32.0271 10.365C32.3034 10.4586 32.5894 10.5374 32.8948 10.5915C32.9966 10.6211 33.1032 10.626 33.2098 10.6457C33.3165 10.6605 33.4231 10.6802 33.5298 10.69C33.7479 10.7048 33.9709 10.7392 34.1987 10.7392C34.6544 10.7639 35.1246 10.7392 35.6093 10.7048C36.9278 10.5915 38.1639 10.2813 39.2206 10.0105C39.749 9.87264 40.2337 9.73478 40.6603 9.61661C40.8736 9.55752 41.0723 9.50335 41.2565 9.44919C41.4407 9.39503 41.6055 9.34579 41.7558 9.30147C41.9012 9.23746 42.066 9.16361 42.2454 9.08483C42.4199 8.9962 42.6138 8.90265 42.8174 8.79925C43.2294 8.60722 43.6899 8.35118 44.1892 8.09022C45.1926 7.54367 46.3559 6.8691 47.6163 6.17977C48.5421 5.66769 49.434 5.21469 50.2726 4.8651C51.1161 4.54998 51.882 4.32841 52.5364 4.23485C52.8611 4.18561 53.1568 4.12653 53.4137 4.12161C53.6706 4.10683 53.8888 4.09206 54.0633 4.03297C54.0633 4.03297 54.073 4.03297 54.0778 4.03297C54.039 4.03297 54.0003 4.03297 53.9663 4.03297C53.8064 4.03297 53.6416 4.03298 53.4816 4.0379C53.3168 4.0379 53.1568 4.04774 52.992 4.04774C52.832 4.05759 52.6672 4.06745 52.5073 4.07729L52.2649 4.09206C52.1825 4.09699 52.1049 4.11175 52.0225 4.11668C51.8626 4.13637 51.6978 4.15114 51.5329 4.17084C51.3681 4.19054 51.2082 4.22008 51.0434 4.24962C50.7186 4.29394 50.3938 4.37272 50.069 4.43673C49.9042 4.4712 49.7443 4.51551 49.5795 4.5549C49.4195 4.59921 49.2547 4.62876 49.0899 4.67799C48.7651 4.77155 48.4403 4.86018 48.1204 4.96358C47.4757 5.16053 46.831 5.39688 46.196 5.63322C45.561 5.87941 44.926 6.13053 44.3007 6.39149C43.6753 6.65246 43.05 6.91342 42.4344 7.17438C41.8188 7.43534 41.2032 7.68646 40.6069 7.93265C39.4048 8.42996 38.2414 8.93711 37.1023 9.35072C36.5351 9.55752 35.9728 9.7397 35.4251 9.89234C34.8773 10.045 34.3344 10.1582 33.8109 10.2469C33.1953 10.3355 32.5991 10.3699 32.0319 10.3503L32.0271 10.365Z" fill="#DCC9A8"/>
<path d="M23.5486 3.99842C23.5486 3.99842 22.7924 6.46526 23.6892 7.58789C23.6892 7.58789 9.75293 4.83055 0 4.94379L23.5486 3.99842Z" fill="#DCC9A8"/>
<path d="M66.8407 20.2611C66.8407 20.2611 66.8164 20.1922 66.7728 20.0592C66.7486 19.9952 66.7195 19.9115 66.6855 19.813C66.6516 19.7146 66.608 19.6013 66.5837 19.4634C66.5498 19.3305 66.5159 19.1779 66.4771 19.0154C66.448 18.848 66.4286 18.6609 66.3995 18.459C66.3802 18.3605 66.3802 18.2522 66.3753 18.1439C66.3753 18.0355 66.3656 17.9223 66.3656 17.8041C66.3608 17.5678 66.3899 17.3216 66.4044 17.0557C66.4238 16.9227 66.448 16.7898 66.4674 16.6519C66.4771 16.583 66.4916 16.5141 66.5013 16.4402C66.5159 16.3713 66.5353 16.2974 66.5547 16.2285C66.5934 16.0857 66.6322 15.938 66.671 15.7853C66.7243 15.6376 66.7776 15.4899 66.8358 15.3373C67.0782 14.7316 67.4272 14.0965 67.9119 13.5007C68.4015 12.9098 69.0365 12.3584 69.8073 11.93C69.9915 11.8118 70.2047 11.733 70.4083 11.6345C70.6119 11.5311 70.8301 11.4671 71.0482 11.3933C71.1597 11.3588 71.2663 11.3194 71.3778 11.28C71.4893 11.2406 71.6056 11.2259 71.722 11.1963C71.8383 11.1717 71.9546 11.1422 72.071 11.1175C72.1873 11.088 72.3037 11.0634 72.4297 11.0535C74.3444 10.7384 76.613 11.1471 78.5519 12.4962C78.7943 12.6636 79.0173 12.8557 79.2548 13.0428C79.4778 13.2446 79.6911 13.4564 79.9141 13.6681C80.1128 13.8995 80.3164 14.1309 80.5103 14.3771C80.5975 14.5051 80.6896 14.6332 80.7769 14.7661C80.8641 14.8991 80.9659 15.0221 81.0338 15.1649C81.1114 15.3028 81.1889 15.4456 81.2665 15.5835C81.344 15.7213 81.4216 15.8641 81.4798 16.0168C81.5428 16.1645 81.6058 16.3171 81.6688 16.4648C81.6979 16.5387 81.7318 16.6175 81.7609 16.6913L81.8336 16.9227C81.9257 17.233 82.0372 17.5382 82.1148 17.8583C82.1826 18.1783 82.2456 18.5033 82.3135 18.8283C82.5122 20.1479 82.4735 21.5413 82.1681 22.9101C81.8627 24.279 81.2907 25.6182 80.4667 26.8197C79.6426 28.0211 78.5568 29.0797 77.2819 29.8774C76.962 30.0743 76.6275 30.2417 76.2931 30.4288C75.9537 30.5864 75.5999 30.7243 75.2509 30.872C74.548 31.128 73.8257 31.325 73.0841 31.4628C71.0676 31.8272 68.9977 31.7139 67.1024 31.1576C65.2071 30.6061 63.4766 29.6509 62.0611 28.4101C60.6409 27.1742 59.5308 25.6626 58.7746 24.0623C58.0136 22.4522 57.6161 20.8027 57.4222 19.2025C57.2428 17.5973 57.2913 16.0463 57.5385 14.6085C57.7712 13.1708 58.1978 11.8561 58.7067 10.6842C59.2157 9.51238 59.841 8.48822 60.4857 7.6167C61.1304 6.74025 61.8091 6.01153 62.4538 5.41082C63.05 4.75595 63.7723 4.07647 64.6399 3.42159C65.5076 2.77165 66.5159 2.15124 67.6744 1.63916C68.8329 1.13201 70.1078 0.708565 71.5038 0.41806C72.895 0.127552 74.4026 -0.0250893 75.978 0.0143013C77.5534 0.0438461 79.1918 0.299877 80.8351 0.762718C81.0435 0.816883 81.2471 0.885818 81.4507 0.949829C81.6543 1.01876 81.8627 1.07785 82.0663 1.15664C82.4735 1.3142 82.8855 1.45699 83.2878 1.64409C84.107 1.98876 84.902 2.41713 85.6873 2.87997C86.4726 3.35266 87.2288 3.89428 87.9656 4.48022C88.6878 5.08585 89.3955 5.73087 90.0499 6.44483C91.3587 7.86782 92.5075 9.5173 93.3849 11.3342C93.5546 11.6641 93.7 12.0088 93.8454 12.3436C94.0005 12.6784 94.1169 13.028 94.2478 13.3727C94.3835 13.7173 94.4804 14.062 94.5919 14.4017L94.7567 14.9138C94.8052 15.0862 94.8488 15.2585 94.8973 15.4308C95.2754 16.8095 95.5469 18.2079 95.6632 19.6062C95.7795 21.0046 95.7553 22.3931 95.5856 23.7324C95.4208 25.0717 95.1154 26.3617 94.7131 27.573C93.9181 30.0054 92.7499 32.1079 91.572 33.9691C90.3796 35.8303 89.1435 37.4551 87.9946 38.9077C86.841 40.3602 85.76 41.6355 84.8051 42.7532C83.8501 43.866 83.0164 44.8163 82.3377 45.5942C80.9708 47.1403 80.2146 47.9971 80.2146 47.9971C80.2146 47.9971 80.8738 47.0615 82.0905 45.3874C82.6965 44.5504 83.4381 43.5262 84.3009 42.3396C85.1589 41.1529 86.1381 39.7989 87.1803 38.2823C88.2176 36.7658 89.3325 35.0868 90.3844 33.2256C91.4266 31.3594 92.43 29.3062 93.0747 27.0412C93.3995 25.9137 93.6321 24.7319 93.7485 23.5207C93.8648 22.3045 93.8551 21.0588 93.7194 19.7933C93.5837 18.5279 93.3171 17.2526 92.9535 15.9823L92.8178 15.5047L92.6627 15.0271C92.556 14.7119 92.4639 14.382 92.3379 14.0817C92.2216 13.7715 92.1101 13.4564 91.9695 13.156C91.8386 12.8507 91.7077 12.5405 91.5526 12.2451C89.9627 8.96583 87.5002 6.29218 84.6984 4.49991C83.9955 4.05676 83.283 3.64317 82.551 3.30342C82.1923 3.12124 81.8142 2.97844 81.4507 2.81596C81.2665 2.7421 81.0774 2.67809 80.8932 2.60916C80.709 2.54022 80.5248 2.47129 80.3358 2.41221C78.8476 1.92967 77.3498 1.61946 75.8956 1.51606C72.9871 1.28957 70.2775 1.76226 68.0331 2.55993C65.7888 3.36743 64.0486 4.59346 62.7931 5.75056C61.6491 7.02092 60.4276 8.77872 59.6132 11.0486C58.794 13.3037 58.4014 16.0709 58.8861 18.9711C59.1382 20.4088 59.5696 21.9007 60.287 23.2646C60.9996 24.6335 62.0078 25.894 63.2584 26.928C64.5042 27.962 66.0021 28.7449 67.6259 29.188C69.2498 29.641 70.9997 29.7149 72.7108 29.4096C73.341 29.2914 73.9615 29.124 74.5528 28.9123C74.8388 28.7892 75.1297 28.6809 75.4108 28.5528C75.6823 28.4051 75.9586 28.2673 76.2203 28.1146C77.2674 27.4745 78.1641 26.6276 78.867 25.6527C79.5699 24.6778 80.0692 23.5847 80.36 22.4571C80.646 21.3296 80.7187 20.1676 80.5975 19.0498C80.5539 18.7741 80.5054 18.4984 80.4618 18.2226C80.4085 17.9518 80.3212 17.6859 80.2582 17.4201C80.1128 16.8932 79.9044 16.4107 79.662 15.9429C79.6087 15.8198 79.5311 15.7164 79.4632 15.6081C79.3954 15.4998 79.3275 15.3865 79.2597 15.2782C79.1094 15.0665 78.9494 14.8695 78.7992 14.6627C78.6246 14.4805 78.455 14.2885 78.2805 14.1112C78.0914 13.9487 77.9121 13.7764 77.7182 13.6238C76.1573 12.4027 74.2378 11.9054 72.5363 12.0629C72.4297 12.0629 72.3231 12.0826 72.2213 12.0974C72.1146 12.1122 72.0128 12.1269 71.911 12.1466C71.8092 12.1663 71.7026 12.1712 71.6008 12.2008C71.499 12.2254 71.402 12.2549 71.3002 12.2796C71.1015 12.3337 70.9028 12.3731 70.7186 12.4519C70.5344 12.5258 70.3453 12.575 70.1757 12.6686C69.4728 12.9935 68.8717 13.4317 68.3821 13.9291C67.8974 14.4313 67.5338 14.9828 67.2575 15.5195C67.1945 15.6573 67.1315 15.7903 67.0685 15.9232C67.02 16.0611 66.9715 16.194 66.9231 16.327C66.8988 16.391 66.8746 16.455 66.8552 16.5239C66.8407 16.5879 66.8213 16.6569 66.8067 16.7209C66.7728 16.8489 66.7437 16.9769 66.7098 17.1C66.6758 17.3511 66.6225 17.5875 66.608 17.809C66.6031 17.9223 66.5934 18.0306 66.5886 18.1389C66.5837 18.2423 66.5741 18.3457 66.5789 18.4442C66.5886 18.6412 66.5886 18.8233 66.6031 18.9908C66.6274 19.1582 66.6468 19.3059 66.6613 19.4388C66.6758 19.5767 66.7001 19.6899 66.7292 19.7933C66.7534 19.8918 66.7728 19.9804 66.7873 20.0445C66.8213 20.1823 66.8358 20.2513 66.8358 20.2513L66.8407 20.2611Z" fill="#DCC9A8"/>
<path d="M66.4426 17.9624C68.6046 16.1307 70.7132 19.6562 68.7403 20.8478C67.3733 21.675 65.667 19.4986 66.5493 18.1593L66.4426 17.9624Z" fill="#DCC9A8"/>
<path d="M26.864 3.95349C26.6362 4.01257 26.4666 4.20459 26.3745 4.48525C26.2824 4.76591 26.2727 5.14505 26.3987 5.55373C26.4617 5.75561 26.612 6.07566 26.8447 6.42032C27.0773 6.76499 27.4118 7.13428 27.7996 7.38539C28.1874 7.63651 28.5994 7.75468 28.8951 7.76453C29.0405 7.7793 29.1617 7.74976 29.2441 7.73499C29.3265 7.71529 29.3701 7.69067 29.375 7.66605C29.3847 7.61682 29.2344 7.50849 29.0405 7.35093C28.8466 7.18844 28.643 6.94225 28.4928 6.66159C28.1874 6.1052 28.105 5.35677 28.0032 5.0318C27.9014 4.71175 27.7366 4.41632 27.533 4.20952C27.3294 4.00272 27.087 3.8944 26.8592 3.95349H26.864Z" fill="#DCC9A8"/>
<path d="M31.0332 4.49582C30.912 4.39734 30.7424 4.37765 30.5582 4.43674C30.374 4.49582 30.1655 4.64354 30.0007 4.87496C29.9183 4.98821 29.8068 5.19993 29.7196 5.46089C29.6275 5.72186 29.5693 6.05668 29.5887 6.36688C29.6081 6.67708 29.7099 6.95282 29.8214 7.1153C29.9377 7.27779 30.0346 7.35657 30.0637 7.33687C30.0928 7.3221 30.088 7.19901 30.0977 7.0316C30.1074 6.86419 30.1558 6.65246 30.2431 6.46043C30.4176 6.07145 30.7811 5.7317 30.912 5.54952C31.0429 5.36734 31.1302 5.16054 31.1592 4.96851C31.1883 4.77648 31.1495 4.59922 31.0284 4.50074L31.0332 4.49582Z" fill="#DCC9A8"/>
<path d="M119.382 96.6701C119.415 96.744 119.454 96.8178 119.488 96.8867C119.638 97.1822 119.774 97.453 119.895 97.6893C120.012 97.9257 120.113 98.1325 120.196 98.2999C120.288 98.5116 120.356 98.6593 120.395 98.748C120.395 98.748 120.385 98.748 120.385 98.7529C120.332 98.6741 120.244 98.5313 120.118 98.3344C120.05 98.2359 119.978 98.1226 119.89 97.9946C119.871 97.9798 119.847 97.9601 119.818 97.9355C119.794 97.9158 119.764 97.8961 119.735 97.8715C119.75 97.9011 119.76 97.9306 119.774 97.9601C119.92 98.2703 120.109 98.5461 120.341 98.7775C120.332 98.7775 120.322 98.7873 120.312 98.7923C120.254 98.8169 120.206 98.8464 120.157 98.876C119.905 98.6396 119.701 98.359 119.541 98.0438C119.449 97.8666 119.372 97.6795 119.304 97.4875C119.042 97.2363 118.722 96.8917 118.393 96.4535C118.344 96.3845 118.291 96.3156 118.238 96.2467C118.189 96.1728 118.136 96.1039 118.087 96.0251C117.981 95.8774 117.889 95.7149 117.782 95.5524C117.583 95.2176 117.384 94.8532 117.21 94.4593C117.035 94.0654 116.88 93.6419 116.764 93.184C116.706 92.9575 116.662 92.7212 116.633 92.4799C116.618 92.3617 116.609 92.2386 116.594 92.1205C116.585 91.9974 116.58 91.8743 116.575 91.7512C116.531 90.407 116.783 89.1514 117.069 88.0977C117.365 87.044 117.695 86.1873 117.937 85.6013C118.019 85.301 118.116 84.9366 118.262 84.5132C118.407 84.0946 118.572 83.617 118.756 83.1C118.969 82.5879 119.207 82.0315 119.464 81.4456C119.75 80.8646 120.046 80.254 120.38 79.6287C120.632 79.1708 120.879 78.7276 121.127 78.2993C121.379 77.861 121.665 77.4622 121.941 77.0831C122.217 76.7089 122.484 76.3593 122.731 76.0245C122.978 75.6946 123.192 75.3844 123.385 75.0988C123.759 74.5227 123.996 74.0352 124.117 73.6906C124.146 73.6019 124.176 73.5281 124.195 73.4591C124.209 73.3902 124.224 73.336 124.239 73.2868C124.263 73.1933 124.273 73.144 124.273 73.144C124.273 73.144 124.273 73.1933 124.263 73.2868C124.263 73.336 124.253 73.3902 124.248 73.4641C124.239 73.533 124.219 73.6118 124.205 73.7004C124.132 74.0599 123.962 74.5769 123.642 75.1825C123.482 75.4878 123.293 75.8127 123.075 76.1623C122.857 76.507 122.615 76.8714 122.363 77.2554C122.111 77.6395 121.854 78.0334 121.626 78.4568C121.398 78.8901 121.156 79.3333 120.908 79.7863C120.579 80.4067 120.264 81.0074 119.958 81.5785C119.677 82.1546 119.406 82.6963 119.154 83.1936C118.926 83.7007 118.717 84.1586 118.528 84.5673C118.339 84.976 118.194 85.3354 118.073 85.6259C117.913 86.2217 117.69 87.0883 117.486 88.1371C117.292 89.1809 117.113 90.4119 117.152 91.7069C117.157 91.825 117.161 91.9432 117.166 92.0614C117.176 92.1796 117.186 92.2928 117.195 92.4061C117.22 92.6326 117.258 92.8541 117.302 93.0708C117.399 93.5041 117.525 93.9226 117.67 94.3116C117.811 94.7006 117.981 95.0649 118.141 95.4047C118.228 95.5721 118.305 95.7346 118.393 95.8872C118.436 95.966 118.475 96.0398 118.519 96.1137C118.562 96.1876 118.606 96.2565 118.645 96.3254C118.834 96.6455 119.023 96.9163 119.197 97.1477C119.163 97.0295 119.134 96.9114 119.105 96.7932C118.776 96.2565 118.431 95.6066 118.218 94.8434C118.179 94.74 118.165 94.6267 118.136 94.5184C118.111 94.4101 118.082 94.2968 118.063 94.1836C118.029 93.9571 117.981 93.7256 117.966 93.4844C117.913 93.0068 117.913 92.5095 117.937 92.0023C118.015 90.6138 118.359 89.3336 118.688 88.2553C118.853 87.7186 119.028 87.2262 119.178 86.7978C119.255 86.5812 119.323 86.3793 119.396 86.1971C119.469 86.0149 119.537 85.8426 119.595 85.6949C119.634 85.5422 119.682 85.3699 119.731 85.1779C119.789 84.9908 119.857 84.7889 119.929 84.5722C120.065 84.134 120.254 83.6515 120.462 83.1197C120.894 82.0611 121.471 80.835 122.115 79.5401C122.595 78.5898 123.046 77.6838 123.41 76.8615C123.739 76.0294 124.006 75.2662 124.151 74.6212C124.224 74.2962 124.311 74.0057 124.345 73.7447C124.384 73.4838 124.428 73.2523 124.51 73.0702C124.534 73.0111 124.563 72.9569 124.597 72.9126C124.597 72.8437 124.597 72.7698 124.592 72.7009C124.583 72.5384 124.578 72.3759 124.568 72.2134L124.554 71.9721L124.534 71.7309C124.52 71.5733 124.51 71.4108 124.491 71.2533C124.423 70.6181 124.306 69.9977 124.142 69.4068C124.117 69.333 124.098 69.2591 124.074 69.1853C124.05 69.1114 124.03 69.0375 124.001 68.9686C123.948 68.8258 123.894 68.683 123.841 68.5402C123.778 68.4024 123.715 68.2645 123.652 68.1217C123.623 68.0528 123.584 67.9838 123.55 67.9198C123.516 67.8509 123.478 67.7869 123.444 67.718C123.405 67.6539 123.376 67.585 123.332 67.521C123.293 67.457 123.25 67.393 123.211 67.329C123.129 67.2009 123.051 67.0729 122.959 66.9498C122.867 66.8267 122.784 66.7036 122.687 66.5855C122.59 66.4673 122.494 66.3491 122.397 66.2359C122.348 66.1768 122.295 66.1226 122.246 66.0635C122.193 66.0094 122.145 65.9503 122.091 65.8961C122.038 65.842 121.989 65.7829 121.936 65.7287C121.883 65.6746 121.829 65.6204 121.771 65.5662C121.66 65.4579 121.553 65.3545 121.446 65.2462C121.393 65.1969 121.335 65.1477 121.282 65.0985C121.228 65.0492 121.175 65 121.117 64.9557C121.059 64.9114 121.001 64.8621 120.947 64.8178C120.889 64.7735 120.826 64.7341 120.768 64.6898C120.652 64.6012 120.525 64.5273 120.399 64.4436C120.147 64.291 119.89 64.1482 119.624 64.03C119.362 63.902 119.081 63.8035 118.81 63.7099C118.533 63.6262 118.257 63.5425 117.976 63.4884C117.699 63.4244 117.413 63.3899 117.142 63.3604C117.001 63.3505 116.866 63.3357 116.73 63.3308C116.594 63.3308 116.459 63.321 116.323 63.3308C115.785 63.3407 115.276 63.4047 114.806 63.5179C114.335 63.6312 113.909 63.7887 113.531 63.9758C113.153 64.1629 112.828 64.3747 112.552 64.5913C112.266 64.803 112.023 65.0492 111.791 65.3004C111.737 65.3644 111.679 65.4284 111.626 65.4924C111.597 65.5219 111.572 65.5564 111.548 65.5859L111.475 65.6795C111.427 65.7435 111.383 65.8075 111.34 65.8764L111.277 65.9749L111.219 66.0783C111.063 66.3491 110.942 66.6347 110.855 66.9252C110.768 67.2157 110.7 67.5062 110.671 67.7967C110.603 68.3827 110.632 68.9637 110.743 69.5152C110.797 69.7909 110.869 70.0617 110.966 70.3276C111.01 70.4605 111.068 70.5885 111.122 70.7166C111.151 70.7806 111.18 70.8397 111.209 70.9037C111.238 70.9677 111.267 71.0268 111.301 71.0859C111.81 72.0608 112.634 72.8437 113.618 73.2868C113.681 73.3114 113.744 73.336 113.807 73.3656L113.899 73.405L113.996 73.4345C114.059 73.4542 114.122 73.4788 114.185 73.4985C114.248 73.5133 114.316 73.533 114.379 73.5478L114.476 73.5724C114.51 73.5773 114.544 73.5872 114.573 73.5921C114.641 73.6019 114.704 73.6167 114.767 73.6266C114.835 73.6364 114.898 73.6413 114.966 73.6512L115.062 73.661C115.096 73.661 115.13 73.661 115.159 73.6659C115.227 73.6659 115.29 73.6709 115.358 73.6758C115.426 73.6758 115.489 73.6758 115.552 73.6758H115.649L115.746 73.6659C115.809 73.661 115.877 73.6561 115.94 73.6512C116.003 73.6413 116.066 73.6315 116.129 73.6266C116.158 73.6266 116.192 73.6167 116.221 73.6118L116.313 73.5921C116.376 73.5773 116.434 73.5675 116.497 73.5527C116.555 73.5379 116.618 73.5182 116.677 73.5035C116.706 73.4936 116.735 73.4887 116.764 73.4788L116.851 73.4493C116.909 73.4296 116.968 73.4099 117.021 73.3902C117.074 73.3656 117.132 73.3459 117.186 73.3213L117.268 73.2868C117.292 73.277 117.321 73.2622 117.346 73.2474C117.399 73.2228 117.447 73.1982 117.501 73.1736C117.549 73.1489 117.598 73.1194 117.646 73.0948C117.743 73.0455 117.835 72.9815 117.922 72.9224C118.276 72.6861 118.553 72.4104 118.761 72.1297C118.969 71.849 119.1 71.5635 119.173 71.2927C119.246 71.0218 119.27 70.7658 119.251 70.5393C119.251 70.5098 119.251 70.4802 119.251 70.4556C119.251 70.4261 119.241 70.4014 119.236 70.3768C119.226 70.3227 119.222 70.2734 119.212 70.2193C119.202 70.1897 119.197 70.1602 119.188 70.1356C118.979 70.6033 118.431 70.9578 117.787 70.9923C116.963 71.0366 116.299 70.5393 116.299 69.8844C116.299 69.2296 116.968 68.6633 117.792 68.6239C118.528 68.5845 119.139 68.9785 119.255 69.5299C119.275 69.5545 119.294 69.5792 119.314 69.6038C119.357 69.6776 119.406 69.7564 119.459 69.8401C119.508 69.9288 119.546 70.0272 119.595 70.1306C119.614 70.1848 119.629 70.239 119.648 70.298C119.658 70.3276 119.668 70.3571 119.677 70.3867C119.687 70.4162 119.692 70.4458 119.697 70.4802C119.755 70.7313 119.764 71.0218 119.716 71.3419C119.663 71.6619 119.541 72.0066 119.323 72.3513C119.105 72.6959 118.8 73.0406 118.393 73.341C118.291 73.4148 118.189 73.4936 118.073 73.5625C118.015 73.597 117.961 73.6315 117.903 73.6659C117.845 73.7004 117.782 73.73 117.724 73.7644C117.695 73.7792 117.661 73.7989 117.632 73.8137L117.535 73.858C117.472 73.8875 117.404 73.9171 117.341 73.9466C117.273 73.9712 117.205 74.0008 117.137 74.0254L117.035 74.0648C117.001 74.0746 116.963 74.0894 116.929 74.0992C116.856 74.1189 116.783 74.1436 116.711 74.1682C116.638 74.1879 116.56 74.2026 116.488 74.2223L116.376 74.2519C116.337 74.2617 116.299 74.2666 116.26 74.2716C116.182 74.2863 116.105 74.2962 116.027 74.311C115.95 74.3208 115.867 74.3307 115.79 74.3356L115.668 74.3504H115.547C115.465 74.3602 115.387 74.3651 115.305 74.3651C115.222 74.3651 115.14 74.3651 115.058 74.3651C115.019 74.3651 114.975 74.3651 114.932 74.3651L114.81 74.3553C114.728 74.3504 114.646 74.3405 114.563 74.3307C114.481 74.3159 114.398 74.306 114.316 74.2913C114.277 74.2863 114.234 74.2814 114.195 74.2716L114.074 74.247C113.991 74.2273 113.914 74.2125 113.831 74.1928C113.754 74.1682 113.671 74.1436 113.594 74.1239L113.473 74.0894L113.356 74.0451C113.279 74.0155 113.201 73.986 113.124 73.9564C112.823 73.8284 112.527 73.6856 112.256 73.5084C112.115 73.4247 111.989 73.3262 111.858 73.2326C111.795 73.1834 111.737 73.1342 111.674 73.08C111.611 73.0308 111.548 72.9766 111.495 72.9224C111.437 72.8683 111.378 72.8141 111.32 72.76C111.267 72.7009 111.214 72.6467 111.155 72.5876L111.073 72.5039L110.996 72.4153C110.947 72.3562 110.894 72.2971 110.845 72.2331C110.797 72.1691 110.753 72.11 110.705 72.046L110.637 71.9524L110.574 71.854C110.53 71.79 110.487 71.726 110.443 71.657C110.404 71.5881 110.365 71.5241 110.327 71.4551C110.288 71.3862 110.249 71.3173 110.215 71.2483C110.181 71.1794 110.142 71.1105 110.108 71.0366C110.045 70.8938 109.978 70.751 109.924 70.6033C109.808 70.3128 109.721 70.0075 109.653 69.6973C109.517 69.0769 109.473 68.427 109.541 67.7573C109.575 67.4225 109.648 67.0828 109.745 66.748C109.847 66.4082 109.987 66.0685 110.176 65.7386L110.244 65.6155L110.322 65.4924C110.375 65.4087 110.424 65.3299 110.487 65.2462L110.579 65.128C110.608 65.0886 110.637 65.0492 110.671 65.0098C110.734 64.936 110.802 64.8621 110.865 64.7833C111.136 64.4879 111.427 64.1974 111.771 63.9414C112.11 63.6804 112.508 63.4244 112.968 63.1929C113.429 62.9665 113.957 62.7695 114.534 62.6366C115.683 62.3657 117.021 62.3313 118.32 62.6218C118.645 62.6907 118.965 62.7843 119.285 62.8877C119.6 63.0009 119.915 63.1191 120.215 63.2668C120.521 63.4096 120.811 63.5721 121.093 63.7493C121.228 63.8429 121.374 63.9315 121.505 64.03C121.573 64.0792 121.64 64.1285 121.703 64.1777C121.766 64.2319 121.829 64.2811 121.897 64.3353C121.965 64.3845 122.023 64.4436 122.086 64.4978C122.149 64.5519 122.212 64.611 122.271 64.6652C122.382 64.7784 122.494 64.8917 122.61 65.0049C122.668 65.064 122.726 65.1182 122.78 65.1773C122.833 65.2363 122.886 65.2954 122.939 65.3594C122.993 65.4185 123.046 65.4776 123.104 65.5416C123.158 65.6007 123.216 65.6598 123.264 65.7287C123.366 65.8567 123.468 65.9848 123.57 66.1128C123.671 66.2408 123.759 66.3787 123.856 66.5116C123.953 66.6446 124.035 66.7824 124.122 66.9252C124.166 66.9941 124.21 67.068 124.248 67.1369C124.292 67.2059 124.326 67.2797 124.365 67.3536C124.403 67.4274 124.442 67.5013 124.476 67.5752C124.515 67.649 124.554 67.7229 124.583 67.7967C124.646 67.9494 124.714 68.0971 124.777 68.2497C124.83 68.4024 124.883 68.5599 124.941 68.7175C124.971 68.7963 124.99 68.8751 125.014 68.9538C125.038 69.0326 125.058 69.1114 125.082 69.1902C125.247 69.8254 125.358 70.4802 125.417 71.14C125.436 71.3074 125.441 71.4699 125.455 71.6373L125.47 71.8884L125.48 72.1396C125.484 72.307 125.489 72.4744 125.494 72.6418C125.494 72.8092 125.494 72.9766 125.494 73.144C125.494 73.3114 125.494 73.4788 125.494 73.6462C125.494 73.8137 125.489 73.9811 125.484 74.1485C125.475 74.3208 125.465 74.4882 125.46 74.6606L125.446 74.9166C125.441 75.0003 125.431 75.0889 125.421 75.1726C125.402 75.345 125.387 75.5124 125.368 75.6847C125.349 75.857 125.32 76.0245 125.295 76.1968C125.252 76.5415 125.174 76.8812 125.111 77.221C125.077 77.3933 125.034 77.5607 124.995 77.733C124.951 77.9004 124.917 78.0728 124.869 78.2402C124.777 78.5799 124.689 78.9147 124.583 79.2496C124.384 79.9192 124.151 80.5839 123.919 81.2437C123.676 81.8986 123.429 82.5535 123.172 83.1936C122.915 83.8386 122.658 84.4738 122.401 85.104C122.145 85.7343 121.902 86.3547 121.655 86.9701C121.16 88.2011 120.666 89.3877 120.264 90.535C120.06 91.1062 119.886 91.6724 119.735 92.2239C119.585 92.7753 119.474 93.312 119.391 93.8389C119.246 94.8581 119.236 95.8183 119.391 96.675L119.382 96.6701ZM119.687 97.7632C119.745 97.8272 119.794 97.8814 119.832 97.9208C119.837 97.9306 119.847 97.9355 119.852 97.9404C119.813 97.8814 119.769 97.8174 119.726 97.7533C119.692 97.7041 119.658 97.6549 119.624 97.6007C119.643 97.6549 119.663 97.709 119.687 97.7632ZM118.994 93.8192C119.066 93.2825 119.163 92.731 119.299 92.1697C119.44 91.6084 119.6 91.0372 119.789 90.4513C120.167 89.2893 120.632 88.0879 121.093 86.8569C121.32 86.2414 121.553 85.6112 121.791 84.9809C122.028 84.3507 122.275 83.7106 122.513 83.0655C122.755 82.4205 122.983 81.7706 123.211 81.1206C123.429 80.4658 123.642 79.8109 123.822 79.1462C123.919 78.8163 123.996 78.4864 124.079 78.1516C124.122 77.9841 124.151 77.8217 124.19 77.6542C124.224 77.4868 124.263 77.3244 124.292 77.1569C124.35 76.8221 124.413 76.4922 124.452 76.1623C124.471 75.9949 124.5 75.8324 124.515 75.665C124.529 75.4976 124.544 75.3351 124.559 75.1677C124.563 75.084 124.573 75.0003 124.578 74.9215L124.588 74.6753C124.592 74.5128 124.597 74.3454 124.602 74.1829C124.602 74.0155 124.602 73.8531 124.602 73.6856C124.602 73.5182 124.602 73.3557 124.597 73.1933C124.597 73.1539 124.597 73.1145 124.597 73.08C124.597 73.08 124.597 73.0899 124.597 73.0948C124.544 73.272 124.534 73.4936 124.529 73.7546C124.529 74.0205 124.476 74.3159 124.442 74.6507C124.365 75.3154 124.166 76.1032 123.88 76.9649C123.555 77.8266 123.133 78.7424 122.658 79.6976C122.014 80.9926 121.379 82.194 120.87 83.228C120.627 83.745 120.385 84.2177 120.206 84.6412C120.109 84.8529 120.021 85.0498 119.939 85.232C119.866 85.4142 119.798 85.5816 119.74 85.7343C119.701 85.8869 119.653 86.0592 119.604 86.2463C119.556 86.4334 119.512 86.6402 119.459 86.8569C119.357 87.2951 119.231 87.7875 119.11 88.3291C118.868 89.4074 118.596 90.6729 118.519 92.0171C118.499 92.5095 118.485 92.992 118.524 93.4499C118.533 93.6813 118.567 93.9029 118.591 94.1245C118.606 94.2328 118.625 94.3411 118.645 94.4495C118.664 94.5578 118.674 94.6661 118.703 94.7646C118.766 95.0699 118.853 95.3653 118.95 95.641C118.916 95.0649 118.931 94.4593 119.003 93.834L118.994 93.8192Z" fill="#DCC9A8"/>
<path d="M125.426 104.065C125.426 104.065 123.017 104.897 121.893 104.016C121.893 104.016 124.971 118.093 125.121 128L125.431 104.065H125.426Z" fill="#DCC9A8"/>
<path d="M108.28 60.5332C108.28 60.5332 108.348 60.548 108.484 60.5775C108.552 60.5923 108.634 60.612 108.736 60.6317C108.833 60.6563 108.949 60.6809 109.085 60.6908C109.216 60.7055 109.366 60.7203 109.531 60.74C109.696 60.7449 109.875 60.74 110.069 60.7498C110.166 60.7548 110.268 60.7449 110.37 60.7351C110.471 60.7252 110.583 60.7154 110.69 60.7055C110.912 60.6858 111.14 60.6267 111.388 60.5824C111.509 60.548 111.63 60.5135 111.756 60.4741C111.819 60.4544 111.882 60.4347 111.945 60.4199C112.008 60.4002 112.071 60.3707 112.134 60.3461C112.26 60.2968 112.391 60.2427 112.527 60.1885C112.653 60.1196 112.784 60.0556 112.919 59.9866C113.443 59.6961 113.976 59.3072 114.456 58.8049C114.931 58.2978 115.353 57.6724 115.648 56.9536C115.736 56.7812 115.784 56.5843 115.852 56.3972C115.925 56.2101 115.959 56.0033 116.002 55.8014C116.026 55.698 116.046 55.5995 116.07 55.4961C116.094 55.3927 116.099 55.2844 116.114 55.181C116.128 55.0776 116.138 54.9693 116.153 54.8609C116.167 54.7526 116.182 54.6492 116.177 54.536C116.288 52.8028 115.75 50.8677 114.504 49.3167C114.349 49.1247 114.175 48.9474 114.01 48.7554C113.831 48.583 113.637 48.4156 113.453 48.2433C113.249 48.0956 113.045 47.9331 112.837 47.7903C112.725 47.7263 112.619 47.6574 112.507 47.5934C112.396 47.5293 112.294 47.4506 112.173 47.4013C111.707 47.1699 111.228 46.9729 110.704 46.8351C110.437 46.776 110.181 46.6972 109.909 46.648C109.638 46.6086 109.366 46.5692 109.095 46.5347C107.994 46.4412 106.855 46.5446 105.75 46.8646C104.645 47.1847 103.583 47.7263 102.643 48.4649C101.702 49.2034 100.893 50.139 100.292 51.2173C100.146 51.4881 100.02 51.7737 99.8799 52.0494C99.7635 52.3399 99.6617 52.6354 99.5502 52.9259C99.3563 53.5364 99.2109 54.1716 99.1091 54.8117C98.8522 56.5597 98.9734 58.3372 99.463 59.9719C99.9429 61.6066 100.752 63.1084 101.804 64.3492C102.851 65.59 104.121 66.5797 105.483 67.269C106.841 67.9583 108.319 68.3621 109.744 68.5787C112.609 68.9923 115.328 68.5246 117.524 67.6334C119.74 66.7471 121.436 65.4619 122.658 64.2655C123.763 62.9606 124.926 61.1585 125.658 58.864C126.385 56.5646 126.783 53.8023 126.477 50.8529C126.337 49.3807 125.993 47.8691 125.479 46.3673C125.421 46.1802 125.343 45.9931 125.27 45.806C125.198 45.6189 125.13 45.4318 125.052 45.2447C124.888 44.8803 124.737 44.5012 124.543 44.1368C124.189 43.3982 123.763 42.6892 123.312 41.9851C121.475 39.1834 118.78 36.756 115.513 35.2296C115.217 35.0819 114.912 34.9588 114.606 34.8308C114.306 34.6978 113.991 34.5944 113.685 34.4812C113.38 34.363 113.06 34.2744 112.745 34.1759L112.275 34.0282L111.8 33.9051C110.534 33.5703 109.274 33.3339 108.028 33.2305C106.783 33.1271 105.551 33.1517 104.364 33.2995C103.171 33.4472 102.018 33.718 100.912 34.0774C98.7019 34.7914 96.7048 35.8648 94.8967 36.9726C93.0887 38.0904 91.4696 39.2671 90.0057 40.3602C88.5418 41.4583 87.2379 42.4873 86.089 43.3884C84.9451 44.2944 83.9562 45.0773 83.1515 45.7174C81.5373 46.9926 80.6357 47.6918 80.6357 47.6918C80.6357 47.6918 81.4598 46.904 82.9479 45.4761C83.6944 44.7621 84.6057 43.8956 85.677 42.896C86.7483 41.8965 87.9747 40.764 89.3756 39.5527C90.7765 38.3464 92.3422 37.0465 94.1454 35.7909C95.9486 34.5452 97.9894 33.3044 100.36 32.4329C101.542 31.9946 102.798 31.65 104.116 31.4481C105.43 31.2413 106.797 31.1773 108.174 31.261C109.55 31.3447 110.937 31.581 112.304 31.9306C112.473 31.9749 112.648 32.0143 112.818 32.0587L113.326 32.2113C113.666 32.3147 114.005 32.4033 114.349 32.5363C114.689 32.6594 115.038 32.7726 115.372 32.9154C115.711 33.0533 116.051 33.1911 116.38 33.3536C118.193 34.1956 119.846 35.3182 121.281 36.6083C122.003 37.2533 122.653 37.9574 123.268 38.6763C123.865 39.4099 124.417 40.1633 124.907 40.9462C125.387 41.734 125.828 42.5317 126.187 43.349C126.38 43.7528 126.531 44.1713 126.7 44.58C126.778 44.7868 126.846 44.9936 126.919 45.2004C126.991 45.4072 127.064 45.609 127.122 45.8208C127.621 47.4801 127.912 49.1345 127.985 50.7348C128.063 52.3301 127.956 53.8663 127.709 55.2844C127.461 56.7074 127.074 58.0171 126.608 59.2087C126.138 60.4002 125.552 61.4441 124.936 62.3402C124.316 63.2364 123.671 63.9897 123.036 64.6101C122.459 65.2847 121.761 65.9888 120.917 66.6683C120.074 67.3478 119.085 68.0026 117.946 68.5541C116.807 69.1056 115.522 69.5733 114.117 69.8442C112.711 70.1297 111.184 70.2233 109.599 70.0805C108.019 69.9229 106.385 69.5635 104.781 68.8348C103.186 68.111 101.673 67.0179 100.418 65.6097C99.1576 64.2064 98.1687 62.4732 97.5773 60.5627C96.9763 58.6523 96.8163 56.5597 97.1217 54.4966C97.238 53.7383 97.4125 52.9997 97.6452 52.2808C97.7809 51.9214 97.907 51.562 98.0572 51.2074C98.2269 50.8677 98.3869 50.523 98.5711 50.1931C99.3224 48.8785 100.336 47.7509 101.494 46.8794C102.653 46.0079 103.961 45.3924 105.299 45.0477C106.637 44.7031 108.009 44.6292 109.313 44.7966C109.638 44.8557 109.958 44.9148 110.273 44.9739C110.588 45.0428 110.893 45.1462 111.198 45.2348L111.426 45.3038C111.504 45.3333 111.577 45.3629 111.649 45.3924C111.8 45.4515 111.945 45.5155 112.095 45.5746C112.246 45.6287 112.386 45.7075 112.527 45.7814C112.667 45.8552 112.808 45.9291 112.944 46.0079C113.084 46.0768 113.21 46.1753 113.341 46.259C113.472 46.3476 113.598 46.4363 113.729 46.52C113.976 46.7071 114.209 46.9139 114.441 47.1059C114.655 47.3225 114.873 47.5343 115.076 47.7558C115.265 47.9922 115.459 48.2138 115.634 48.455C117.011 50.3852 117.476 52.6797 117.214 54.6295C117.209 54.7526 117.185 54.8757 117.161 54.9939C117.137 55.112 117.117 55.2302 117.093 55.3484C117.069 55.4666 117.054 55.5847 117.02 55.698C116.986 55.8112 116.952 55.9245 116.918 56.0377C116.851 56.2593 116.792 56.4809 116.695 56.6926C116.603 56.9043 116.531 57.116 116.419 57.3081C116.017 58.1008 115.493 58.7606 114.921 59.2727C114.344 59.7848 113.734 60.1541 113.142 60.415C112.992 60.4741 112.847 60.5381 112.706 60.5923C112.561 60.6366 112.415 60.6809 112.275 60.7203C112.202 60.74 112.134 60.7646 112.066 60.7794C111.998 60.7942 111.926 60.8089 111.858 60.8188C111.722 60.8434 111.591 60.868 111.46 60.8926C111.198 60.9123 110.956 60.9517 110.723 60.9517C110.607 60.9517 110.496 60.9517 110.389 60.9517C110.282 60.9517 110.176 60.9517 110.079 60.9369C109.88 60.9123 109.696 60.8976 109.531 60.8729C109.366 60.8385 109.216 60.804 109.085 60.7745C108.949 60.7498 108.838 60.7104 108.741 60.6809C108.644 60.6464 108.562 60.6218 108.494 60.6021C108.363 60.5578 108.295 60.5381 108.295 60.5381L108.28 60.5332Z" fill="#DCC9A8"/>
<path d="M110.554 60.8781C112.299 58.6328 108.775 56.5845 107.655 58.618C106.88 60.0262 109.066 61.7003 110.355 60.7747L110.554 60.8781Z" fill="#DCC9A8"/>
<path d="M125.382 100.693C125.435 100.461 125.319 100.215 125.111 100.013C124.902 99.8113 124.611 99.6488 124.291 99.5552C123.971 99.4617 123.235 99.3928 122.682 99.0924C122.406 98.9496 122.159 98.7477 121.994 98.5557C121.829 98.3686 121.722 98.216 121.664 98.2307C121.64 98.2307 121.62 98.28 121.606 98.3637C121.596 98.4474 121.572 98.5705 121.587 98.7182C121.601 99.0185 121.727 99.4321 121.984 99.8211C122.236 100.21 122.605 100.545 122.954 100.771C123.298 100.998 123.618 101.146 123.816 101.205C124.219 101.323 124.592 101.303 124.868 101.205C125.145 101.101 125.324 100.924 125.377 100.693H125.382Z" fill="#DCC9A8"/>
<path d="M124.742 96.4776C124.641 96.3595 124.466 96.325 124.277 96.3595C124.088 96.3939 123.884 96.4875 123.71 96.6254C123.53 96.7632 123.206 97.1374 122.828 97.3245C122.643 97.4181 122.435 97.4723 122.27 97.487C122.105 97.5018 121.984 97.5018 121.97 97.5363C121.96 97.5609 122.033 97.6594 122.197 97.7677C122.362 97.876 122.634 97.9745 122.939 97.9843C123.244 97.9991 123.569 97.9302 123.826 97.8317C124.083 97.7332 124.287 97.615 124.398 97.5313C124.621 97.359 124.757 97.1473 124.815 96.9553C124.868 96.7632 124.849 96.5958 124.747 96.4727L124.742 96.4776Z" fill="#DCC9A8"/>
<path d="M120.836 31.1383C121.029 30.8922 120.729 30.2521 119.997 29.4642C119.265 28.6863 118.087 27.7507 116.57 27.0762C116.192 26.9039 115.678 26.7167 115.072 26.5346C114.461 26.3622 113.744 26.2047 112.968 26.121C112.193 26.0323 111.359 26.0176 110.525 26.0865C109.691 26.1554 108.858 26.3179 108.082 26.5444C106.521 26.9974 105.198 27.7212 104.296 28.317C103.395 28.9226 102.891 29.3904 102.924 29.4495C102.963 29.5135 103.579 29.223 104.558 28.8537C105.537 28.4893 106.894 28.0609 108.354 27.8886C109.081 27.8049 109.832 27.7803 110.559 27.8246C111.286 27.8689 111.994 27.9772 112.639 28.1348C113.288 28.2874 113.875 28.4844 114.384 28.6764C114.893 28.8783 115.319 29.0605 115.649 29.2131C116.962 29.7941 118.14 30.4145 119.061 30.8134C119.978 31.2171 120.637 31.3944 120.836 31.1383Z" fill="#DCC9A8"/>
</g>
<defs>
<clipPath id="clip0_3478_3163">
<rect width="128" height="128" fill="white" transform="matrix(1 0 0 -1 0 128)"/>
</clipPath>
</defs>
</svg>
