<svg width="128" height="128" viewBox="0 0 128 128" fill="none" xmlns="http://www.w3.org/2000/svg">
<g clip-path="url(#clip0_3478_3244)">
<path d="M10.4609 2.05865C10.4949 1.97494 10.4949 1.87647 10.4416 1.77307C10.3882 1.66967 10.2767 1.56134 10.1022 1.48748C9.92773 1.41362 9.68536 1.38408 9.42845 1.44317C9.17154 1.50225 8.90978 1.65488 8.71588 1.86661C8.61409 1.97001 8.51229 2.12758 8.42019 2.31469C8.33294 2.50672 8.26993 2.72829 8.24084 2.96956C8.2166 3.2059 8.2263 3.45701 8.26992 3.69336C8.31355 3.93462 8.39596 4.16112 8.49291 4.363C8.5947 4.56487 8.71104 4.74214 8.83222 4.88985C8.89524 4.96371 8.95341 5.02772 9.01157 5.09173C9.07459 5.15082 9.12791 5.20497 9.18608 5.24929C9.24425 5.2936 9.29273 5.333 9.3412 5.36746C9.38967 5.40193 9.4333 5.42655 9.46723 5.44132C9.53994 5.48071 9.58841 5.49548 9.60296 5.48071C9.6175 5.46594 9.60295 5.42162 9.57872 5.34284C9.54479 5.25914 9.50601 5.16066 9.46238 5.04249C9.43815 4.9834 9.41875 4.91447 9.38967 4.84554C9.36543 4.7766 9.34604 4.69782 9.32181 4.62396C9.28303 4.4664 9.2491 4.29899 9.23456 4.13158C9.22486 3.96417 9.22971 3.79676 9.25394 3.63919C9.27818 3.48655 9.32181 3.34376 9.37028 3.22559C9.41876 3.10742 9.48177 3.01387 9.53509 2.94494C9.54479 2.92524 9.56418 2.91047 9.57387 2.8957C9.58841 2.88092 9.59811 2.86615 9.6078 2.8563C9.61749 2.84646 9.63204 2.83169 9.63689 2.82184C9.64659 2.81199 9.65628 2.80215 9.66597 2.7923C9.73384 2.72337 9.78231 2.66428 9.84048 2.61011C9.8938 2.55595 9.95682 2.49687 10.0295 2.43778C10.1798 2.32454 10.3785 2.23098 10.4512 2.05865H10.4609Z" fill="#DCC9A8"/>
<path d="M7.30944 2.90505C7.72632 4.13108 8.73942 5.44082 8.87514 5.61316C8.88484 5.623 8.88484 5.63777 8.87514 5.6427L8.89453 6.41082C8.89453 6.51422 8.81213 6.593 8.71034 6.58315L7.95415 6.50929C7.95415 6.50929 7.93475 6.50929 7.92505 6.50929C7.76509 6.36158 6.65019 5.31773 5.38018 4.72194C5.37048 4.72194 4.86636 2.61946 4.77426 2.17139C4.76456 2.12708 4.79849 2.09262 4.84212 2.10739C5.27838 2.23541 7.29974 2.8952 7.30459 2.90997L7.30944 2.90505Z" fill="#DCC9A8"/>
<path d="M4.27537 7.89327C4.18812 7.92281 4.09602 7.91296 3.99423 7.84895C3.89728 7.78494 3.80033 7.66677 3.73732 7.47966C3.67915 7.29748 3.66461 7.04637 3.74702 6.79033C3.82458 6.53429 3.99423 6.28317 4.21721 6.10099C4.3287 6.00743 4.48867 5.91388 4.68256 5.8351C4.87646 5.76125 5.09943 5.71201 5.33695 5.70216C5.57447 5.69231 5.81684 5.72185 6.04952 5.78586C6.28219 5.84987 6.49548 5.94835 6.68938 6.0616C6.87842 6.17977 7.04323 6.31272 7.1838 6.44566C7.25167 6.5146 7.31469 6.5786 7.36801 6.64261C7.42133 6.71155 7.4698 6.77063 7.50858 6.82972C7.54736 6.88881 7.58129 6.94297 7.61038 6.99221C7.63946 7.04145 7.65885 7.08575 7.67824 7.12515C7.71217 7.199 7.72187 7.24824 7.70732 7.26301C7.69278 7.27778 7.64916 7.26302 7.57645 7.22855C7.49889 7.18916 7.40194 7.14484 7.29045 7.09068C7.23228 7.06114 7.16442 7.03652 7.1014 7.00698C7.03354 6.97744 6.96082 6.95282 6.88811 6.92327C6.73785 6.86911 6.57304 6.82972 6.40823 6.80018C6.24342 6.77556 6.07861 6.77063 5.92349 6.78048C5.76837 6.79525 5.6278 6.8248 5.51146 6.86911C5.39027 6.91343 5.29333 6.96758 5.22547 7.01682C5.20608 7.02667 5.19153 7.04144 5.17699 7.05129C5.16245 7.06114 5.14791 7.07098 5.13336 7.08575C5.11882 7.0956 5.10913 7.10546 5.09458 7.1153C5.08489 7.12515 5.0752 7.13499 5.0655 7.13992C4.99279 7.199 4.92978 7.24824 4.87161 7.3024C4.81344 7.35164 4.75042 7.41073 4.69225 7.48459C4.57107 7.62738 4.46442 7.82433 4.28992 7.88342L4.27537 7.89327Z" fill="#DCC9A8"/>
<path d="M5.51611 9.24224C5.58397 9.25209 5.64698 9.3161 5.70031 9.42442C5.75363 9.53274 5.8021 9.69031 5.85057 9.88234C5.87481 9.98574 5.89905 10.0891 5.92329 10.2024C5.93298 10.2615 5.94753 10.3206 5.96207 10.3796C5.97661 10.4437 5.99115 10.5077 6.00569 10.5717C6.02993 10.7046 6.06871 10.8376 6.0978 10.9853C6.13657 11.1281 6.17051 11.2758 6.21898 11.4284C6.31108 11.7288 6.42257 12.0439 6.57768 12.3344C6.66009 12.4772 6.74249 12.6249 6.84429 12.7579C6.89276 12.8268 6.94609 12.8859 6.99941 12.9548C7.05758 13.0139 7.1109 13.0779 7.17391 13.137C7.41628 13.3733 7.72167 13.5703 8.08037 13.7377C8.44393 13.9002 8.8608 14.0282 9.3213 14.1218C9.77696 14.2202 10.412 14.3089 11.1827 14.3581C11.9534 14.4073 12.8599 14.4172 13.8488 14.4123C14.8376 14.4123 15.9137 14.3926 17.0335 14.4615C17.3146 14.4812 17.5958 14.5009 17.8818 14.5354C18.0224 14.5551 18.1678 14.5698 18.3132 14.5944L18.4198 14.6141L18.5313 14.6388C18.6089 14.6535 18.6816 14.6683 18.7592 14.6831C19.3554 14.8259 19.9177 15.0573 20.4218 15.3527C20.6787 15.4955 20.9114 15.6629 21.1441 15.8303C21.367 16.0076 21.5852 16.1849 21.7791 16.3769C22.1766 16.7609 22.5207 17.1696 22.797 17.5931C23.3593 18.44 23.6841 19.3312 23.8053 20.0993C23.8392 20.2913 23.8538 20.4784 23.8683 20.6508C23.8731 20.828 23.8828 20.9905 23.8683 21.1481C23.8683 21.3007 23.8441 21.4435 23.8344 21.5764C23.8198 21.7094 23.7907 21.8276 23.7713 21.931C23.718 22.1427 23.6744 22.3003 23.6259 22.4086C23.5823 22.512 23.5532 22.5661 23.5387 22.5612C23.5241 22.5612 23.5241 22.4972 23.529 22.384C23.5387 22.2707 23.5435 22.1082 23.5484 21.9014C23.5484 21.798 23.5484 21.6848 23.5387 21.5617C23.529 21.4386 23.5241 21.3056 23.4999 21.1628C23.4854 21.0201 23.4563 20.8723 23.4272 20.7148C23.3884 20.5572 23.3496 20.3947 23.2963 20.2273C23.0879 19.5527 22.6952 18.8043 22.1135 18.1248C21.8227 17.7851 21.4834 17.4601 21.1101 17.1745C20.9259 17.0268 20.7224 16.8988 20.5188 16.7708C20.3103 16.6526 20.1019 16.5344 19.8789 16.4409C19.4378 16.2439 18.9724 16.111 18.5071 16.047C18.4489 16.0371 18.3908 16.0371 18.3326 16.0273L18.2453 16.0174H18.1532C18.0272 16.0027 17.9012 15.9977 17.7751 15.9977C17.5182 15.9928 17.2613 15.9977 17.0044 16.0027C15.9671 16.0371 14.92 16.1405 13.9215 16.2193C12.9229 16.303 11.968 16.3572 11.1148 16.3473C10.2617 16.3424 9.50066 16.2636 8.91412 16.1405C8.33244 16.0224 7.75075 15.8303 7.20784 15.5497C6.66978 15.2641 6.1705 14.88 5.79241 14.4172C5.69546 14.3039 5.61306 14.1858 5.53065 14.0676C5.45309 13.9445 5.37553 13.8263 5.31737 13.7032C5.18649 13.457 5.08954 13.2109 5.01198 12.9696C4.86171 12.4871 4.80839 12.039 4.79385 11.6401C4.78415 11.4383 4.79385 11.2512 4.80354 11.0739C4.82294 10.8967 4.83747 10.7342 4.86656 10.5864C4.8811 10.5126 4.89564 10.4387 4.90534 10.3698C4.91988 10.3009 4.93927 10.2369 4.95381 10.1728C4.98774 10.0448 5.02168 9.93158 5.06046 9.8331C5.13317 9.63122 5.21557 9.48351 5.29313 9.38504C5.37069 9.28656 5.4434 9.24225 5.51126 9.24717L5.51611 9.24224Z" fill="#DCC9A8"/>
<path d="M12.9961 10.9409C12.9476 10.8671 13.0155 10.7144 13.1997 10.5076C13.3936 10.3058 13.699 10.0448 14.1643 9.82322C14.2225 9.7986 14.2855 9.76905 14.3437 9.74443C14.4067 9.71981 14.4745 9.70012 14.5424 9.6755C14.6781 9.62626 14.8235 9.59672 14.9787 9.56225C15.2889 9.50809 15.6331 9.48839 15.9966 9.53763C16.3553 9.58687 16.7286 9.70012 17.0824 9.8823C17.4314 10.0596 17.7611 10.3008 18.0471 10.5815C18.3379 10.8621 18.6675 11.2659 18.9681 11.7731C19.2637 12.2851 19.5352 12.8957 19.7339 13.5703C19.9375 14.2547 20.0393 14.9735 20.1557 15.6777C20.2672 16.3818 20.3786 17.0809 20.5774 17.7161C20.6792 18.0362 20.7907 18.3414 20.9361 18.6221C21.0767 18.9028 21.2366 19.1736 21.416 19.405C21.7698 19.8728 22.1916 20.2519 22.5406 20.5867C22.7151 20.7541 22.8702 20.9117 23.0059 21.0545C23.1368 21.2022 23.2435 21.3351 23.3307 21.4435C23.4907 21.6749 23.5682 21.8078 23.5488 21.8226C23.5343 21.8324 23.418 21.729 23.2241 21.5419C23.1174 21.4533 22.9962 21.3499 22.846 21.2268C22.6957 21.1136 22.526 20.9806 22.3273 20.8428C21.9443 20.5621 21.4596 20.2371 21.004 19.7595C20.5435 19.2868 20.1508 18.6664 19.8648 17.982C19.574 17.2976 19.3898 16.5689 19.2153 15.8697C19.0408 15.1754 18.8808 14.5009 18.6675 13.9297C18.4542 13.3536 18.1876 12.8464 17.921 12.4378C17.6544 12.034 17.383 11.7287 17.1697 11.5219C16.7383 11.1034 16.2681 10.8326 15.7979 10.7193C15.5652 10.6603 15.3325 10.6406 15.1047 10.6356C14.9932 10.6406 14.8817 10.6356 14.7751 10.6553C14.7217 10.6603 14.6684 10.6652 14.6151 10.675C14.5618 10.6849 14.5133 10.6947 14.46 10.6997C14.0577 10.7735 13.7183 10.8818 13.4663 10.9409C13.2191 11.0049 13.0542 11.0148 13.0058 10.9409H12.9961Z" fill="#DCC9A8"/>
<path d="M23.5921 16.406C23.6406 16.3666 23.7181 16.3765 23.8199 16.4306C23.8732 16.4552 23.9266 16.4946 23.9896 16.539C24.0526 16.5882 24.1156 16.6424 24.1835 16.7113C24.4549 16.9772 24.77 17.4203 24.9881 17.9767C25.0948 18.2524 25.2305 18.7202 25.2838 19.2717C25.342 19.8231 25.3129 20.4436 25.2111 21.0098C25.1869 21.1526 25.1529 21.2855 25.1287 21.4234C25.1142 21.4923 25.0899 21.5613 25.0754 21.6253C25.056 21.6893 25.0318 21.7533 25.0075 21.8124C24.9154 22.0536 24.8185 22.2555 24.7409 22.4279C24.6634 22.6002 24.6052 22.7381 24.5664 22.8415C24.5325 22.9399 24.5034 22.999 24.4889 22.999C24.4792 22.999 24.4695 22.935 24.4695 22.8218C24.4695 22.7085 24.4937 22.551 24.5276 22.3589C24.5664 22.1718 24.6149 21.9502 24.6537 21.7139C24.6634 21.6548 24.6731 21.5957 24.6779 21.5366C24.6779 21.4776 24.6876 21.4185 24.6924 21.3545C24.6924 21.2264 24.7021 21.0935 24.7021 20.9606C24.7021 20.4239 24.644 19.8675 24.5325 19.3948C24.4258 18.9221 24.2707 18.5331 24.1835 18.2968C23.9993 17.8191 23.8054 17.3908 23.6745 17.0609C23.6406 16.9772 23.6163 16.8984 23.5969 16.8295C23.5727 16.7605 23.5582 16.6965 23.5485 16.6424C23.5291 16.534 23.5436 16.4503 23.5872 16.4159L23.5921 16.406Z" fill="#DCC9A8"/>
<path d="M11.7743 3.33816C11.7743 3.26922 11.8228 3.19536 11.9246 3.12643C12.0264 3.0575 12.1815 2.98364 12.3851 2.92455C12.4869 2.89008 12.5984 2.86547 12.7244 2.84085C12.7874 2.831 12.8553 2.81623 12.9232 2.80638C12.9959 2.79654 13.0637 2.79161 13.1413 2.78176C13.2916 2.76207 13.4515 2.76207 13.626 2.75714C13.8005 2.75714 13.9847 2.76206 14.1786 2.78668C14.5713 2.82607 15.0075 2.91963 15.468 3.10181C15.6959 3.20028 15.9334 3.31354 16.166 3.46618C16.2824 3.53511 16.3939 3.62374 16.5102 3.71237C16.6217 3.80592 16.7332 3.89947 16.835 4.00287C17.2616 4.41647 17.6009 4.94825 17.8384 5.51941C18.0759 6.09058 18.2165 6.69129 18.294 7.292C18.3716 7.8927 18.391 8.66574 18.3377 9.53233C18.2844 10.3989 18.1583 11.364 18.0081 12.3685C17.8578 13.3729 17.6784 14.4266 17.5718 15.4754C17.5476 15.7364 17.5233 15.9973 17.5088 16.2583C17.5039 16.3863 17.4991 16.5143 17.4942 16.6424V16.7359V16.8245C17.4942 16.8836 17.4942 16.9427 17.4942 17.0018C17.5233 17.4745 17.6203 17.957 17.7802 18.4149C17.8578 18.6464 17.9547 18.8679 18.0565 19.0895C18.1632 19.3061 18.2795 19.5179 18.4104 19.7148C18.6673 20.1137 18.9533 20.4829 19.2684 20.803C19.8937 21.4431 20.5966 21.8912 21.2413 22.1521C21.4012 22.2211 21.5612 22.2703 21.7115 22.3195C21.8617 22.3589 22.0071 22.4032 22.1477 22.4279C22.2834 22.4623 22.4143 22.4771 22.5355 22.4968C22.6567 22.5116 22.7682 22.5214 22.87 22.5313C23.0736 22.5411 23.2335 22.551 23.345 22.551C23.4565 22.551 23.5147 22.5657 23.5195 22.5805C23.5195 22.5953 23.4662 22.6199 23.3596 22.6544C23.2529 22.6937 23.093 22.7282 22.8797 22.7627C22.773 22.7725 22.6567 22.7922 22.5258 22.7971C22.3949 22.7971 22.2544 22.8119 22.1041 22.7971C21.9538 22.7971 21.789 22.7774 21.6194 22.7578C21.4497 22.7282 21.2703 22.6987 21.0861 22.6544C20.3445 22.4722 19.4962 22.0832 18.7061 21.448C18.3086 21.1329 17.9305 20.7587 17.5863 20.3303C17.4118 20.1186 17.2519 19.8872 17.0967 19.6459C16.9465 19.4046 16.8011 19.1486 16.6799 18.8827C16.4278 18.3509 16.2436 17.765 16.1467 17.1495C16.137 17.0707 16.1273 16.9969 16.1176 16.9181L16.103 16.7999L16.0933 16.6867C16.0788 16.539 16.0739 16.3912 16.0643 16.2484C16.0497 15.9579 16.0497 15.6674 16.0497 15.3819C16.0643 14.2444 16.1612 13.1563 16.2339 12.1518C16.3115 11.1474 16.3696 10.2315 16.3745 9.44371C16.3842 8.66082 16.3406 8.01087 16.2824 7.53819C16.2242 7.0655 16.1273 6.6322 15.9964 6.25307C15.8607 5.87393 15.691 5.55388 15.4729 5.28799C15.4196 5.21906 15.3614 5.15997 15.3081 5.09596C15.245 5.03688 15.1917 4.97779 15.1287 4.92363C15.0075 4.81038 14.8718 4.71682 14.7361 4.62327C14.4598 4.44601 14.1592 4.30815 13.8732 4.1949C13.7278 4.13581 13.5872 4.0915 13.4467 4.04226C13.3061 4.00287 13.1752 3.95363 13.0492 3.91917C12.9862 3.89947 12.9231 3.87978 12.865 3.865C12.8068 3.85023 12.7486 3.83053 12.6905 3.81576C12.5838 3.7813 12.482 3.75175 12.3802 3.71729C12.1912 3.65328 12.0458 3.5942 11.9391 3.53019C11.8373 3.46618 11.7792 3.39724 11.7743 3.32831V3.33816Z" fill="#DCC9A8"/>
<path d="M12.8941 11.0395C12.9619 11.0986 12.9425 11.2611 12.8601 11.5073C12.7874 11.7584 12.6517 12.0932 12.5499 12.497C12.5354 12.5462 12.5257 12.6004 12.5111 12.6496C12.4966 12.7038 12.4917 12.758 12.482 12.8072C12.4578 12.9155 12.4529 13.0288 12.4384 13.142C12.4239 13.3685 12.4287 13.6098 12.4675 13.851C12.545 14.3336 12.7777 14.8309 13.1558 15.2987C13.3449 15.5301 13.6212 15.8255 13.9993 16.1308C14.3774 16.4311 14.8572 16.7364 15.4098 16.9974C15.9528 17.2583 16.6023 17.4651 17.2712 17.6916C17.9402 17.9181 18.6479 18.1594 19.2975 18.5041C19.947 18.8438 20.5287 19.2919 20.9601 19.7892C21.3964 20.2914 21.6775 20.7986 21.9247 21.2122C22.0459 21.419 22.1623 21.6012 22.264 21.7637C22.3707 21.9212 22.4628 22.0542 22.5404 22.1674C22.71 22.3791 22.8021 22.5071 22.7876 22.5219C22.7779 22.5367 22.6518 22.4431 22.4386 22.2659C22.3416 22.1723 22.2156 22.0542 22.0847 21.9064C21.9538 21.7587 21.8084 21.5913 21.6581 21.3993C21.3527 21.0251 21.0183 20.5672 20.582 20.1732C20.3687 19.9714 20.1167 19.7941 19.8501 19.6267C19.5834 19.4593 19.2926 19.3214 18.9872 19.1983C18.3764 18.9472 17.6978 18.7897 17.0143 18.6222C16.3308 18.4548 15.6377 18.2973 14.9784 18.0462C14.3289 17.8 13.7472 17.4799 13.2673 17.1402C12.7874 16.8004 12.4142 16.4361 12.1621 16.1209C11.91 15.8058 11.6968 15.4611 11.5465 15.0919C11.3962 14.7226 11.309 14.3385 11.2896 13.9692C11.2702 13.5999 11.3138 13.2503 11.3914 12.9401C11.435 12.7875 11.4786 12.6398 11.5368 12.5068C11.5659 12.4428 11.5901 12.3739 11.6192 12.3148C11.6483 12.2557 11.6822 12.1966 11.7113 12.1376C11.9585 11.6846 12.2397 11.3891 12.4529 11.2069C12.6759 11.0346 12.8262 10.9755 12.8941 11.0297V11.0395Z" fill="#DCC9A8"/>
<path d="M11.7304 7.72009C12.22 8.25679 12.1909 9.09384 11.6626 9.59115C11.1342 10.0885 10.3102 10.0589 9.82057 9.52221C9.33098 8.98552 9.36006 8.14846 9.88843 7.65116C10.4168 7.15385 11.2409 7.18339 11.7304 7.72009Z" fill="#DCC9A8"/>
<path d="M26.0933 23.5363C26.5344 24.0189 26.5054 24.7673 26.0303 25.2154C25.5553 25.6634 24.8185 25.6339 24.3774 25.1513C23.9362 24.6688 23.9653 23.9204 24.4404 23.4723C24.9154 23.0242 25.6522 23.0538 26.0933 23.5363Z" fill="#DCC9A8"/>
<path d="M17.5429 22.1128C17.5816 22.0684 17.664 22.0635 17.7707 22.0881C17.824 22.1029 17.887 22.1226 17.95 22.1522C18.0179 22.1768 18.0906 22.2112 18.173 22.2506C18.4881 22.4033 18.8953 22.6298 19.3509 22.8563C19.5788 22.9646 19.9472 23.1468 20.4077 23.2896C20.8633 23.4373 21.4062 23.5358 21.9346 23.5751C22.0655 23.585 22.1964 23.5899 22.3224 23.5948C22.3806 23.5948 22.4387 23.5948 22.5017 23.5948C22.5599 23.5948 22.6181 23.585 22.6762 23.5801C22.9089 23.5554 23.127 23.521 23.3161 23.4964C23.5051 23.4717 23.6651 23.4668 23.7717 23.4717C23.8832 23.4816 23.9414 23.4914 23.9414 23.5062C23.9414 23.5161 23.8832 23.5407 23.7814 23.5653C23.6796 23.5948 23.5391 23.6441 23.3646 23.713C23.1901 23.777 22.9865 23.8607 22.7441 23.9395C22.6811 23.9543 22.6229 23.9789 22.5551 23.9937C22.4872 24.0084 22.4193 24.0232 22.3515 24.0331C22.2206 24.0528 22.08 24.0725 21.9443 24.0872C21.382 24.1463 20.7712 24.1315 20.2332 24.0331C19.6951 23.9395 19.2443 23.7672 18.9825 23.6392C18.4542 23.3782 18.0421 23.0286 17.7998 22.7332C17.7416 22.6593 17.6883 22.5904 17.6447 22.5214C17.6059 22.4525 17.5719 22.3934 17.5526 22.3393C17.5089 22.2309 17.5041 22.1522 17.5477 22.1078L17.5429 22.1128Z" fill="#DCC9A8"/>
<path d="M33.5295 7.55768C33.7525 7.7891 33.4956 8.43413 32.9866 9.30565C32.4825 10.1821 31.7263 11.2949 30.9943 12.5406C30.8053 12.8508 30.5726 13.2595 30.3157 13.7469C30.0636 14.2344 29.8019 14.8056 29.5692 15.4407C29.3365 16.0759 29.1426 16.7702 29.0118 17.4989C28.876 18.2276 28.8082 18.981 28.8033 19.7245C28.7888 21.2115 29.036 22.6295 29.2687 23.6636C29.5062 24.6976 29.7049 25.3573 29.6322 25.3918C29.5838 25.4164 29.1911 24.8453 28.7161 23.8605C28.2507 22.8757 27.7078 21.4527 27.4606 19.8279C27.3346 19.0154 27.2812 18.1587 27.3152 17.3069C27.3491 16.46 27.4654 15.618 27.6496 14.8499C27.829 14.0818 28.0714 13.3777 28.3186 12.7819C28.5706 12.191 28.8227 11.6986 29.036 11.3392C29.8891 9.89159 30.9459 8.82311 31.799 8.18301C32.6618 7.54291 33.3211 7.32134 33.5392 7.54783L33.5295 7.55768Z" fill="#DCC9A8"/>
<path d="M94.2182 9.87264C93.7043 9.77416 93.176 9.64614 92.6379 9.47873C92.0999 9.31132 91.5521 9.1193 90.9898 8.89772C89.8701 8.4595 88.7164 7.92281 87.5191 7.39103C86.918 7.12514 86.3169 6.85926 85.7013 6.58352C85.0905 6.30779 84.4701 6.02713 83.8448 5.75139C83.2195 5.47074 82.5844 5.20485 81.9446 4.94389C81.3047 4.68785 80.6552 4.43673 80.0008 4.22008C79.676 4.10191 79.3416 4.00836 79.0119 3.90496C78.8471 3.85079 78.6823 3.8114 78.5126 3.76709C78.3478 3.72277 78.183 3.67353 78.0134 3.63414C77.6789 3.56029 77.3444 3.47166 77.01 3.41749C76.8403 3.38795 76.6755 3.35349 76.5058 3.32887C76.3362 3.30425 76.1714 3.28455 76.0017 3.25994C75.9193 3.25009 75.832 3.23532 75.7496 3.23039L75.4976 3.21069C75.3279 3.19592 75.1631 3.18607 74.9934 3.1713C74.8286 3.16638 74.6638 3.15653 74.499 3.15161C74.3342 3.14176 74.1694 3.13684 74.0046 3.13684C73.8398 3.13684 73.675 3.13191 73.5101 3.12699C73.3453 3.12699 73.1805 3.12699 73.0157 3.12699H72.7685L72.5213 3.14176C72.3565 3.15161 72.1965 3.15161 72.0317 3.16638C71.3821 3.2107 70.7326 3.29932 70.1024 3.45196C70.0249 3.47166 69.9473 3.49135 69.8649 3.51105C69.7874 3.53074 69.7098 3.55044 69.6322 3.57506C69.4771 3.6243 69.322 3.67846 69.1717 3.7277C69.0215 3.79171 68.8712 3.8508 68.7209 3.91481C68.6434 3.94435 68.5707 3.97881 68.498 4.0182C68.4252 4.05267 68.3525 4.09206 68.2798 4.12653C68.2071 4.16592 68.1344 4.19546 68.0617 4.23977C67.989 4.27916 67.9211 4.32348 67.8484 4.36287C67.7078 4.44657 67.5673 4.52536 67.4364 4.62383C67.3006 4.71738 67.1649 4.80602 67.034 4.90449C66.9032 5.00297 66.7771 5.10637 66.6511 5.20485C66.5881 5.25409 66.5251 5.30824 66.4669 5.36241C66.4039 5.41657 66.3457 5.47073 66.2827 5.52489C66.2245 5.57906 66.1615 5.63322 66.1033 5.68246C66.0452 5.73662 65.987 5.79571 65.9288 5.84987C65.8125 5.96312 65.701 6.07637 65.5847 6.18469C65.5265 6.24378 65.4732 6.30779 65.415 6.36687C65.3568 6.42596 65.3035 6.48997 65.2502 6.55398C65.1969 6.61799 65.1436 6.682 65.0902 6.74601C65.0369 6.81002 64.9885 6.87895 64.94 6.94788C64.8382 7.08083 64.7461 7.22362 64.654 7.36149C64.4746 7.64707 64.305 7.93758 64.1547 8.24285C64.0044 8.54321 63.8784 8.86325 63.7572 9.17838C63.6457 9.49843 63.5439 9.81848 63.4712 10.1484C63.1513 11.4581 63.1464 12.8171 63.384 13.9939C63.5003 14.5798 63.6797 15.1215 63.8929 15.5991C64.1062 16.0767 64.3486 16.4854 64.5958 16.8349C64.843 17.1895 65.1193 17.4947 65.4005 17.7803C65.4732 17.8493 65.5459 17.9133 65.6186 17.9822C65.6525 18.0167 65.6913 18.0462 65.7301 18.0807L65.8464 18.1742C65.924 18.2382 66.0015 18.2924 66.084 18.3515L66.2003 18.4352L66.3215 18.5091C66.6414 18.706 66.9759 18.8636 67.3055 18.9719C67.6351 19.0851 67.9696 19.1639 68.2944 19.2082C68.9488 19.2969 69.5935 19.2673 70.2042 19.1491C70.5096 19.0901 70.8102 19.0064 71.101 18.898C71.2464 18.8488 71.387 18.7848 71.5324 18.7257C71.6051 18.6962 71.673 18.6568 71.7409 18.6272C71.8087 18.5928 71.8814 18.5583 71.9444 18.5189C72.0123 18.4795 72.0802 18.4401 72.148 18.4056C72.2159 18.3663 72.2789 18.3219 72.3419 18.2826L72.4389 18.2185L72.5358 18.1496C72.5988 18.1053 72.6619 18.0561 72.7249 18.0117C72.7879 17.9625 72.8461 17.9133 72.9042 17.864L72.9963 17.7902L73.0836 17.7114C73.1417 17.6572 73.1999 17.6031 73.2532 17.5489C73.3066 17.4898 73.3647 17.4357 73.418 17.3766C73.4714 17.3224 73.5247 17.2584 73.578 17.1993C73.6313 17.1353 73.6798 17.0762 73.7331 17.0122C73.8301 16.8793 73.927 16.7562 74.0143 16.6134C74.1936 16.3475 74.3439 16.0471 74.4796 15.7468C74.5087 15.668 74.5426 15.5892 74.5717 15.5154L74.6154 15.3972L74.6541 15.279C74.6784 15.2002 74.7026 15.1215 74.7317 15.0377C74.7511 14.954 74.7705 14.8753 74.7947 14.7916L74.8238 14.6685C74.8335 14.6291 74.8383 14.5848 74.848 14.5454C74.8626 14.4617 74.8771 14.378 74.8917 14.2992C74.9013 14.2155 74.911 14.1318 74.9207 14.0481L74.9353 13.925C74.9353 13.8856 74.9353 13.8413 74.9401 13.8019C74.9401 13.7182 74.945 13.6345 74.9498 13.5507C74.9498 13.467 74.9498 13.3833 74.9498 13.3046V13.1815L74.9353 13.0584C74.9304 12.9747 74.9207 12.8959 74.9159 12.8171C74.9062 12.7383 74.8917 12.6595 74.882 12.5807C74.8771 12.5414 74.8723 12.502 74.8626 12.4626L74.8383 12.3493C74.8238 12.2705 74.8092 12.1967 74.7899 12.1228C74.7705 12.049 74.7511 11.9751 74.7317 11.9013C74.722 11.8668 74.7123 11.8274 74.7026 11.7929L74.6687 11.6846C74.6444 11.6157 74.6202 11.5467 74.596 11.4729C74.5669 11.404 74.5426 11.3399 74.5136 11.271L74.4748 11.1725C74.4602 11.1381 74.4457 11.1085 74.4312 11.079C74.4021 11.015 74.3681 10.9559 74.3391 10.8919C74.31 10.8328 74.2712 10.7737 74.2421 10.7146C74.1791 10.5964 74.1064 10.4881 74.0337 10.3847C73.7477 9.96127 73.4132 9.64615 73.0836 9.41473C72.7491 9.18331 72.4146 9.05036 72.0996 8.98635C71.7893 8.92726 71.4985 8.92726 71.2513 8.98635C71.2222 8.99127 71.1882 8.9962 71.1592 9.00113C71.1301 9.01098 71.101 9.02082 71.0719 9.02574C71.0137 9.04051 70.9604 9.06021 70.9071 9.07498C70.8005 9.1193 70.7035 9.15868 70.6163 9.203C70.5339 9.25224 70.4514 9.30148 70.3787 9.34087C70.3545 9.36056 70.3303 9.38026 70.306 9.39996C69.7583 9.50828 69.3559 10.1139 69.3753 10.8623C69.3947 11.6994 69.9328 12.3936 70.5775 12.4084C71.2222 12.4281 71.7263 11.7634 71.7069 10.9263C71.6924 10.2715 71.3579 9.70523 70.9023 9.47873C70.9313 9.47381 70.9604 9.46396 70.9895 9.45904C71.038 9.45412 71.0913 9.44427 71.1446 9.43935C71.1689 9.43935 71.1979 9.43442 71.227 9.4295C71.2561 9.4295 71.2804 9.4295 71.3094 9.4295C71.5324 9.41473 71.7845 9.44427 72.0462 9.52797C72.308 9.61168 72.5891 9.75447 72.8606 9.97112C73.1272 10.1878 73.3938 10.4783 73.6168 10.8426C73.6701 10.9362 73.7283 11.0248 73.7768 11.1282C73.801 11.1775 73.8301 11.2267 73.8543 11.2809C73.8785 11.335 73.8979 11.3843 73.9222 11.4384C73.9319 11.463 73.9464 11.4926 73.9561 11.5172L73.9852 11.6009C74.0046 11.6551 74.024 11.7142 74.0482 11.7683C74.0676 11.8274 74.0821 11.8865 74.1015 11.9456L74.1258 12.0342C74.1355 12.0637 74.1403 12.0933 74.1452 12.1228C74.1597 12.1819 74.1742 12.2459 74.1888 12.305C74.1985 12.369 74.2082 12.4281 74.2227 12.4921L74.2373 12.5857C74.2373 12.6152 74.2421 12.6497 74.247 12.6792C74.2518 12.7432 74.2615 12.8072 74.2663 12.8713C74.2663 12.9353 74.2712 12.9993 74.276 13.0682V13.1667V13.2652C74.276 13.3292 74.276 13.3981 74.276 13.4621C74.2712 13.5261 74.2663 13.5951 74.2615 13.664C74.2615 13.6985 74.2615 13.7329 74.2518 13.7625L74.2373 13.8609C74.2276 13.925 74.2179 13.9939 74.2082 14.0628C74.1936 14.1268 74.1791 14.1958 74.1645 14.2598C74.1597 14.2942 74.15 14.3287 74.1452 14.3583L74.1161 14.4567C74.0967 14.5207 74.0821 14.5897 74.0628 14.6537C74.0385 14.7177 74.0191 14.7817 73.9949 14.8457L73.961 14.9442L73.9222 15.0377C73.8931 15.1018 73.8689 15.1658 73.8398 15.2249C73.3793 16.2145 72.5794 17.027 71.61 17.5194C71.5518 17.5538 71.4888 17.5784 71.4258 17.608C71.3628 17.6375 71.3046 17.6671 71.2367 17.6917C71.1107 17.7409 70.9847 17.7951 70.8538 17.8345C70.592 17.9231 70.3254 17.992 70.0491 18.0413C69.5014 18.1398 68.9294 18.1545 68.3525 18.0708C68.0665 18.0314 67.7805 17.9576 67.4994 17.8591C67.2182 17.7606 66.9419 17.6326 66.6802 17.4652L66.5832 17.4061L66.4863 17.3372C66.4233 17.2929 66.3554 17.2486 66.2972 17.1944L66.2051 17.1205C66.1761 17.0959 66.1421 17.0713 66.113 17.0417C66.05 16.9827 65.9919 16.9236 65.9288 16.8694C65.6913 16.6281 65.4538 16.3721 65.2551 16.0767C65.0515 15.7862 64.8479 15.4513 64.6734 15.0624C64.4989 14.6783 64.3534 14.2401 64.2565 13.7575C64.1595 13.275 64.1062 12.7531 64.1111 12.2115C64.1111 12.0736 64.1208 11.9357 64.1256 11.7979C64.1353 11.66 64.1499 11.5221 64.1644 11.3793C64.2032 11.0987 64.2468 10.8131 64.3147 10.5324C64.3777 10.2469 64.4649 9.97112 64.557 9.69046C64.6588 9.41473 64.7655 9.13899 64.8964 8.8731C65.0224 8.60229 65.1678 8.34625 65.3229 8.09514C65.4053 7.97204 65.4829 7.84403 65.575 7.73078C65.6186 7.67169 65.6622 7.61261 65.7059 7.55352C65.7543 7.49443 65.798 7.44027 65.8464 7.38118C65.8901 7.3221 65.9434 7.26794 65.9919 7.21377C66.0403 7.15961 66.0888 7.10545 66.1421 7.05129C66.2488 6.94296 66.3554 6.83956 66.4621 6.73124C66.5154 6.67708 66.5687 6.62291 66.6269 6.56875C66.685 6.51951 66.7383 6.46535 66.7965 6.41611C66.8547 6.36688 66.908 6.31271 66.9662 6.26347C67.0243 6.21423 67.0777 6.16008 67.1407 6.11576C67.257 6.02221 67.3782 5.92373 67.4945 5.83018C67.6157 5.73662 67.7369 5.65292 67.8629 5.56429C67.9841 5.47073 68.115 5.39688 68.241 5.31809C68.3041 5.2787 68.3671 5.23932 68.4349 5.19993C68.498 5.16054 68.5658 5.13099 68.6337 5.0916C68.7015 5.05714 68.7646 5.02267 68.8324 4.9882C68.9003 4.95373 68.9681 4.91927 69.036 4.88972C69.1717 4.83064 69.3123 4.77155 69.4529 4.71246C69.5935 4.66323 69.7389 4.61399 69.8795 4.55983C69.9522 4.53028 70.0249 4.51551 70.0976 4.49581C70.1703 4.47612 70.243 4.45643 70.3157 4.43673C70.9071 4.28409 71.5179 4.18069 72.1432 4.13145C72.2983 4.11668 72.4583 4.11176 72.6182 4.09699L72.8557 4.08221H73.0933C73.2532 4.07237 73.4132 4.06744 73.5732 4.06252C73.641 4.06252 73.7137 4.06252 73.7816 4.06252C73.8301 4.09698 73.8785 4.12653 73.9367 4.15607C74.1161 4.2447 74.3391 4.29394 74.596 4.33826C74.848 4.37765 75.134 4.47612 75.4539 4.5549C76.089 4.72231 76.8306 5.0079 77.6401 5.36734C78.4399 5.76124 79.3173 6.23885 80.2432 6.75093C81.4986 7.44027 82.6862 8.05575 83.7187 8.52352C84.2374 8.74509 84.7125 8.95681 85.1342 9.10452C85.3475 9.18331 85.5414 9.25224 85.7256 9.32117C85.9098 9.37534 86.0794 9.42457 86.2297 9.47381C86.3751 9.53782 86.5399 9.61168 86.7193 9.69046C86.8986 9.76924 87.0974 9.8431 87.3058 9.9268C87.7275 10.0942 88.2026 10.2764 88.7309 10.4635C89.7828 10.8279 91.0334 11.2119 92.3956 11.3252C92.8948 11.3596 93.3844 11.3793 93.8546 11.335C94.0921 11.3252 94.32 11.2809 94.5429 11.2562C94.6544 11.2365 94.7659 11.2119 94.8726 11.1922C94.9792 11.1676 95.0907 11.1528 95.1925 11.1184C95.9535 10.9214 96.5982 10.5866 97.1363 10.2665C97.2575 10.2419 97.3738 10.2124 97.4902 10.1828C97.2575 10.3503 96.9812 10.5324 96.6661 10.7195C96.5982 10.7589 96.5255 10.8032 96.4528 10.8426C96.3801 10.882 96.3025 10.9214 96.225 10.9608C96.0747 11.0445 95.9099 11.1184 95.7451 11.2021C95.4058 11.3547 95.0471 11.5172 94.6593 11.6501C94.2715 11.7831 93.8595 11.9062 93.428 11.9899C93.2099 12.0342 92.9918 12.0638 92.7688 12.0834C92.6573 12.0884 92.541 12.0982 92.4246 12.1081C92.3083 12.113 92.192 12.1081 92.0756 12.113C90.8008 12.1228 89.5986 11.9062 88.571 11.6797C87.5482 11.4433 86.695 11.1972 86.1133 11.015C85.8322 10.882 85.4832 10.7294 85.0857 10.5226C84.6882 10.3207 84.2423 10.0942 83.7478 9.84802C83.2631 9.57721 82.7347 9.2867 82.1773 8.98635C81.6247 8.6663 81.043 8.32656 80.4419 7.97697C80.0008 7.71108 79.5694 7.45504 79.1525 7.21377C78.7453 6.97251 78.3575 6.70169 77.9891 6.43581C77.6207 6.16992 77.2669 5.91388 76.9324 5.68738C76.5979 5.45596 76.278 5.25409 75.9872 5.08175C75.3958 4.74201 74.8917 4.5549 74.5426 4.47119C74.4554 4.4515 74.3778 4.43181 74.31 4.42196C74.2421 4.41211 74.1839 4.40718 74.1403 4.40226C74.0482 4.39241 73.9997 4.38749 73.9997 4.38749C73.9997 4.38749 74.0482 4.40226 74.1403 4.42688C74.1839 4.44165 74.2421 4.45643 74.31 4.47612C74.3778 4.50074 74.4505 4.53028 74.5378 4.55983C74.8771 4.69277 75.3522 4.94388 75.9048 5.34272C76.1811 5.54459 76.4816 5.77109 76.8015 6.03205C77.1214 6.29301 77.4608 6.56875 77.8195 6.85926C78.183 7.14976 78.5708 7.45012 78.9925 7.71601C79.4094 7.97697 79.8408 8.23793 80.2819 8.50874C80.8879 8.86326 81.4841 9.17838 82.0464 9.48366C82.6184 9.7594 83.1564 10.0154 83.6557 10.2469C84.1598 10.4487 84.6252 10.6309 85.0372 10.7885C85.4444 10.946 85.808 11.0544 86.0988 11.1479C86.6659 11.4089 87.4997 11.7683 88.5322 12.0933C89.5598 12.4084 90.7862 12.6989 92.1144 12.6891C92.2356 12.6891 92.3568 12.6891 92.478 12.6792C92.5991 12.6694 92.7155 12.6595 92.8367 12.6497C93.0742 12.6251 93.3069 12.5857 93.5298 12.5315C93.9806 12.4281 94.4024 12.2755 94.795 12.113C95.1876 11.9456 95.5512 11.7535 95.8857 11.5615C96.0505 11.4581 96.2104 11.3695 96.3607 11.2661C96.4334 11.2168 96.511 11.1676 96.5788 11.1184C96.6516 11.0691 96.7194 11.015 96.7873 10.9657C97.2235 10.6457 97.5726 10.3306 97.8246 10.0696C98.0185 10.0056 98.2027 9.93173 98.3821 9.8431C98.6972 9.69046 98.9783 9.48859 99.2158 9.23747C99.1867 9.18823 99.1577 9.13407 99.1383 9.07498C99.1383 9.06514 99.1286 9.05529 99.1237 9.04544C98.8959 9.27686 98.6147 9.45904 98.3045 9.60183C98.2754 9.6166 98.2463 9.62645 98.2173 9.6363C98.2415 9.60676 98.2657 9.57721 98.2851 9.5526C98.3094 9.52305 98.3287 9.49843 98.3433 9.48366C98.4693 9.39996 98.5808 9.3261 98.6826 9.26209C98.8814 9.13899 99.0219 9.05037 99.1043 9.00113C99.1043 9.00113 99.1043 8.99127 99.0995 8.98635C99.0122 9.02082 98.862 9.08483 98.6535 9.17346C98.4887 9.25224 98.2803 9.35071 98.0428 9.46396C97.8052 9.57721 97.5386 9.71016 97.2429 9.85787C97.1702 9.89234 97.1024 9.92681 97.0248 9.96127C96.1765 10.0942 95.2313 10.0597 94.2327 9.88741L94.2182 9.87264ZM97.941 9.72C97.9943 9.68554 98.0428 9.65107 98.0912 9.62153C98.1542 9.57721 98.2173 9.53782 98.2754 9.49843C98.2706 9.50336 98.2609 9.50828 98.256 9.51812C98.2124 9.55752 98.1591 9.60676 98.0961 9.66092C98.0428 9.68062 97.9894 9.70031 97.9361 9.72H97.941ZM95.9729 10.365C95.6966 10.4586 95.4106 10.5374 95.1052 10.5915C95.0034 10.6211 94.8968 10.626 94.7902 10.6457C94.6835 10.6605 94.5769 10.6802 94.4702 10.69C94.2521 10.7048 94.0291 10.7392 93.8013 10.7392C93.3456 10.7639 92.8754 10.7392 92.3907 10.7048C91.0722 10.5915 89.8361 10.2813 88.7794 10.0105C88.251 9.87264 87.7663 9.73478 87.3397 9.61661C87.1264 9.55752 86.9277 9.50335 86.7435 9.44919C86.5593 9.39503 86.3945 9.34579 86.2442 9.30147C86.0988 9.23746 85.934 9.16361 85.7546 9.08483C85.5801 8.9962 85.3862 8.90265 85.1826 8.79925C84.7706 8.60722 84.3101 8.35118 83.8108 8.09022C82.8074 7.54367 81.6441 6.8691 80.3837 6.17977C79.4579 5.66769 78.566 5.21469 77.7274 4.8651C76.8839 4.54998 76.118 4.32841 75.4636 4.23485C75.1389 4.18561 74.8432 4.12653 74.5863 4.12161C74.3294 4.10683 74.1112 4.09206 73.9367 4.03297C73.9367 4.03297 73.927 4.03297 73.9222 4.03297C73.961 4.03297 73.9997 4.03297 74.0337 4.03297C74.1936 4.03297 74.3584 4.03298 74.5184 4.0379C74.6832 4.0379 74.8432 4.04774 75.008 4.04774C75.168 4.05759 75.3328 4.06745 75.4927 4.07729L75.7351 4.09206C75.8175 4.09699 75.8951 4.11175 75.9775 4.11668C76.1374 4.13637 76.3022 4.15114 76.4671 4.17084C76.6319 4.19054 76.7918 4.22008 76.9566 4.24962C77.2814 4.29394 77.6062 4.37272 77.931 4.43673C78.0958 4.4712 78.2557 4.51551 78.4205 4.5549C78.5805 4.59921 78.7453 4.62876 78.9101 4.67799C79.2349 4.77155 79.5597 4.86018 79.8796 4.96358C80.5243 5.16053 81.169 5.39688 81.804 5.63322C82.439 5.87941 83.074 6.13053 83.6993 6.39149C84.3247 6.65246 84.95 6.91342 85.5656 7.17438C86.1812 7.43534 86.7968 7.68646 87.3931 7.93265C88.5952 8.42996 89.7586 8.93711 90.8977 9.35072C91.4649 9.55752 92.0272 9.7397 92.5749 9.89234C93.1227 10.045 93.6656 10.1582 94.1891 10.2469C94.8047 10.3355 95.4009 10.3699 95.9681 10.3503L95.9729 10.365Z" fill="#DCC9A8"/>
<path d="M104.451 3.99842C104.451 3.99842 105.208 6.46526 104.311 7.58789C104.311 7.58789 118.247 4.83055 128 4.94379L104.451 3.99842Z" fill="#DCC9A8"/>
<path d="M61.1593 20.2611C61.1593 20.2611 61.1836 20.1922 61.2272 20.0592C61.2514 19.9952 61.2805 19.9115 61.3145 19.813C61.3484 19.7146 61.392 19.6013 61.4163 19.4634C61.4502 19.3305 61.4841 19.1779 61.5229 19.0154C61.552 18.848 61.5714 18.6609 61.6005 18.459C61.6198 18.3605 61.6198 18.2522 61.6247 18.1439C61.6247 18.0355 61.6344 17.9223 61.6344 17.8041C61.6392 17.5678 61.6101 17.3216 61.5956 17.0557C61.5762 16.9227 61.552 16.7898 61.5326 16.6519C61.5229 16.583 61.5084 16.5141 61.4987 16.4402C61.4841 16.3713 61.4647 16.2974 61.4453 16.2285C61.4066 16.0857 61.3678 15.938 61.329 15.7853C61.2757 15.6376 61.2224 15.4899 61.1642 15.3373C60.9218 14.7316 60.5728 14.0965 60.0881 13.5007C59.5985 12.9098 58.9635 12.3584 58.1927 11.93C58.0085 11.8118 57.7953 11.733 57.5917 11.6345C57.3881 11.5311 57.1699 11.4671 56.9518 11.3933C56.8403 11.3588 56.7337 11.3194 56.6222 11.28C56.5107 11.2406 56.3944 11.2259 56.278 11.1963C56.1617 11.1717 56.0454 11.1422 55.929 11.1175C55.8127 11.088 55.6963 11.0634 55.5703 11.0535C53.6556 10.7384 51.387 11.1471 49.4481 12.4962C49.2057 12.6636 48.9827 12.8557 48.7452 13.0428C48.5222 13.2446 48.3089 13.4564 48.0859 13.6681C47.8872 13.8995 47.6836 14.1309 47.4897 14.3771C47.4025 14.5051 47.3104 14.6332 47.2231 14.7661C47.1359 14.8991 47.0341 15.0221 46.9662 15.1649C46.8886 15.3028 46.8111 15.4456 46.7335 15.5835C46.656 15.7213 46.5784 15.8641 46.5202 16.0168C46.4572 16.1645 46.3942 16.3171 46.3312 16.4648C46.3021 16.5387 46.2682 16.6175 46.2391 16.6913L46.1664 16.9227C46.0743 17.233 45.9628 17.5382 45.8852 17.8583C45.8174 18.1783 45.7544 18.5033 45.6865 18.8283C45.4878 20.1479 45.5265 21.5413 45.8319 22.9101C46.1373 24.279 46.7093 25.6182 47.5333 26.8197C48.3574 28.0211 49.4432 29.0797 50.7181 29.8774C51.038 30.0743 51.3725 30.2417 51.7069 30.4288C52.0463 30.5864 52.4001 30.7243 52.7491 30.872C53.452 31.128 54.1743 31.325 54.9159 31.4628C56.9324 31.8272 59.0023 31.7139 60.8976 31.1576C62.7929 30.6061 64.5234 29.6509 65.9389 28.4101C67.3591 27.1742 68.4692 25.6626 69.2254 24.0623C69.9864 22.4522 70.3839 20.8027 70.5778 19.2025C70.7572 17.5973 70.7087 16.0463 70.4615 14.6085C70.2288 13.1708 69.8022 11.8561 69.2933 10.6842C68.7843 9.51238 68.159 8.48822 67.5143 7.6167C66.8696 6.74025 66.1909 6.01153 65.5462 5.41082C64.95 4.75595 64.2277 4.07647 63.3601 3.42159C62.4924 2.77165 61.4841 2.15124 60.3256 1.63916C59.1671 1.13201 57.8922 0.708565 56.4962 0.41806C55.105 0.127552 53.5974 -0.0250893 52.022 0.0143013C50.4466 0.0438461 48.8082 0.299877 47.1649 0.762718C46.9565 0.816883 46.7529 0.885818 46.5493 0.949829C46.3457 1.01876 46.1373 1.07785 45.9337 1.15664C45.5265 1.3142 45.1145 1.45699 44.7122 1.64409C43.893 1.98876 43.098 2.41713 42.3127 2.87997C41.5274 3.35266 40.7712 3.89428 40.0344 4.48022C39.3122 5.08585 38.6045 5.73087 37.9501 6.44483C36.6413 7.86782 35.4925 9.5173 34.6151 11.3342C34.4454 11.6641 34.3 12.0088 34.1546 12.3436C33.9995 12.6784 33.8831 13.028 33.7522 13.3727C33.6165 13.7173 33.5196 14.062 33.4081 14.4017L33.2433 14.9138C33.1948 15.0862 33.1512 15.2585 33.1027 15.4308C32.7246 16.8095 32.4531 18.2079 32.3368 19.6062C32.2205 21.0046 32.2447 22.3931 32.4144 23.7324C32.5792 25.0717 32.8846 26.3617 33.2869 27.573C34.0819 30.0054 35.2501 32.1079 36.428 33.9691C37.6204 35.8303 38.8565 37.4551 40.0054 38.9077C41.159 40.3602 42.24 41.6355 43.1949 42.7532C44.1499 43.866 44.9836 44.8163 45.6623 45.5942C47.0292 47.1403 47.7854 47.9971 47.7854 47.9971C47.7854 47.9971 47.1262 47.0615 45.9095 45.3874C45.3035 44.5504 44.5619 43.5262 43.6991 42.3396C42.8411 41.1529 41.8619 39.7989 40.8197 38.2823C39.7824 36.7658 38.6675 35.0868 37.6156 33.2256C36.5734 31.3594 35.57 29.3062 34.9253 27.0412C34.6005 25.9137 34.3679 24.7319 34.2515 23.5207C34.1352 22.3045 34.1449 21.0588 34.2806 19.7933C34.4163 18.5279 34.6829 17.2526 35.0465 15.9823L35.1822 15.5047L35.3373 15.0271C35.444 14.7119 35.5361 14.382 35.6621 14.0817C35.7784 13.7715 35.8899 13.4564 36.0305 13.156C36.1614 12.8507 36.2923 12.5405 36.4474 12.2451C38.0373 8.96583 40.4998 6.29218 43.3016 4.49991C44.0045 4.05676 44.717 3.64317 45.449 3.30342C45.8077 3.12124 46.1858 2.97844 46.5493 2.81596C46.7335 2.7421 46.9226 2.67809 47.1068 2.60916C47.291 2.54022 47.4752 2.47129 47.6642 2.41221C49.1524 1.92967 50.6502 1.61946 52.1044 1.51606C55.0129 1.28957 57.7225 1.76226 59.9669 2.55993C62.2112 3.36743 63.9514 4.59346 65.2069 5.75056C66.3509 7.02092 67.5724 8.77872 68.3868 11.0486C69.206 13.3037 69.5986 16.0709 69.1139 18.9711C68.8618 20.4088 68.4304 21.9007 67.713 23.2646C67.0004 24.6335 65.9922 25.894 64.7416 26.928C63.4958 27.962 61.9979 28.7449 60.3741 29.188C58.7502 29.641 57.0003 29.7149 55.2892 29.4096C54.659 29.2914 54.0385 29.124 53.4472 28.9123C53.1612 28.7892 52.8703 28.6809 52.5892 28.5528C52.3177 28.4051 52.0414 28.2673 51.7797 28.1146C50.7326 27.4745 49.8359 26.6276 49.133 25.6527C48.4301 24.6778 47.9308 23.5847 47.64 22.4571C47.354 21.3296 47.2813 20.1676 47.4025 19.0498C47.4461 18.7741 47.4946 18.4984 47.5382 18.2226C47.5915 17.9518 47.6788 17.6859 47.7418 17.4201C47.8872 16.8932 48.0956 16.4107 48.338 15.9429C48.3913 15.8198 48.4689 15.7164 48.5368 15.6081C48.6046 15.4998 48.6725 15.3865 48.7403 15.2782C48.8906 15.0665 49.0506 14.8695 49.2008 14.6627C49.3754 14.4805 49.545 14.2885 49.7195 14.1112C49.9086 13.9487 50.0879 13.7764 50.2818 13.6238C51.8427 12.4027 53.7622 11.9054 55.4637 12.0629C55.5703 12.0629 55.6769 12.0826 55.7787 12.0974C55.8854 12.1122 55.9872 12.1269 56.089 12.1466C56.1908 12.1663 56.2974 12.1712 56.3992 12.2008C56.501 12.2254 56.598 12.2549 56.6998 12.2796C56.8985 12.3337 57.0972 12.3731 57.2814 12.4519C57.4656 12.5258 57.6547 12.575 57.8243 12.6686C58.5272 12.9935 59.1283 13.4317 59.6179 13.9291C60.1026 14.4313 60.4662 14.9828 60.7425 15.5195C60.8055 15.6573 60.8685 15.7903 60.9315 15.9232C60.98 16.0611 61.0285 16.194 61.0769 16.327C61.1012 16.391 61.1254 16.455 61.1448 16.5239C61.1593 16.5879 61.1787 16.6569 61.1933 16.7209C61.2272 16.8489 61.2563 16.9769 61.2902 17.1C61.3242 17.3511 61.3775 17.5875 61.392 17.809C61.3969 17.9223 61.4066 18.0306 61.4114 18.1389C61.4163 18.2423 61.4259 18.3457 61.4211 18.4442C61.4114 18.6412 61.4114 18.8233 61.3969 18.9908C61.3726 19.1582 61.3532 19.3059 61.3387 19.4388C61.3242 19.5767 61.2999 19.6899 61.2708 19.7933C61.2466 19.8918 61.2272 19.9804 61.2127 20.0445C61.1787 20.1823 61.1642 20.2513 61.1642 20.2513L61.1593 20.2611Z" fill="#DCC9A8"/>
<path d="M61.5574 17.9624C59.3954 16.1307 57.2868 19.6562 59.2597 20.8478C60.6267 21.675 62.333 19.4986 61.4507 18.1593L61.5574 17.9624Z" fill="#DCC9A8"/>
<path d="M101.136 3.95349C101.364 4.01257 101.533 4.20459 101.626 4.48525C101.718 4.76591 101.727 5.14505 101.601 5.55373C101.538 5.75561 101.388 6.07566 101.155 6.42032C100.923 6.76499 100.588 7.13428 100.2 7.38539C99.8126 7.63651 99.4006 7.75468 99.1049 7.76453C98.9595 7.7793 98.8383 7.74976 98.7559 7.73499C98.6735 7.71529 98.6299 7.69067 98.625 7.66605C98.6153 7.61682 98.7656 7.50849 98.9595 7.35093C99.1534 7.18844 99.357 6.94225 99.5072 6.66159C99.8126 6.1052 99.895 5.35677 99.9968 5.0318C100.099 4.71175 100.263 4.41632 100.467 4.20952C100.671 4.00272 100.913 3.8944 101.141 3.95349H101.136Z" fill="#DCC9A8"/>
<path d="M96.9668 4.49582C97.088 4.39734 97.2576 4.37765 97.4418 4.43674C97.626 4.49582 97.8345 4.64354 97.9993 4.87496C98.0817 4.98821 98.1932 5.19993 98.2804 5.46089C98.3725 5.72186 98.4307 6.05668 98.4113 6.36688C98.3919 6.67708 98.2901 6.95282 98.1786 7.1153C98.0623 7.27779 97.9654 7.35657 97.9363 7.33687C97.9072 7.3221 97.912 7.19901 97.9023 7.0316C97.8926 6.86419 97.8442 6.65246 97.7569 6.46043C97.5824 6.07145 97.2189 5.7317 97.088 5.54952C96.9571 5.36734 96.8698 5.16054 96.8408 4.96851C96.8117 4.77648 96.8505 4.59922 96.9716 4.50074L96.9668 4.49582Z" fill="#DCC9A8"/>
<path d="M8.61849 96.6701C8.58456 96.744 8.54578 96.8178 8.51185 96.8867C8.36158 97.1822 8.22586 97.453 8.10467 97.6893C7.98834 97.9257 7.88654 98.1325 7.80413 98.2999C7.71203 98.5116 7.64417 98.6593 7.60539 98.748C7.60539 98.748 7.61508 98.748 7.61508 98.7529C7.6684 98.6741 7.75566 98.5313 7.88169 98.3344C7.94955 98.2359 8.02227 98.1226 8.10952 97.9946C8.12891 97.9798 8.15315 97.9601 8.18223 97.9355C8.20647 97.9158 8.23555 97.8961 8.26464 97.8715C8.2501 97.9011 8.2404 97.9306 8.22586 97.9601C8.08044 98.2703 7.89139 98.5461 7.65872 98.7775C7.66841 98.7775 7.6781 98.7873 7.6878 98.7923C7.74597 98.8169 7.79444 98.8464 7.84291 98.876C8.09497 98.6396 8.29857 98.359 8.45853 98.0438C8.55063 97.8666 8.62819 97.6795 8.69606 97.4875C8.95781 97.2363 9.27774 96.8917 9.60736 96.4535C9.65583 96.3845 9.70916 96.3156 9.76248 96.2467C9.81095 96.1728 9.86427 96.1039 9.91275 96.0251C10.0194 95.8774 10.1115 95.7149 10.2181 95.5524C10.4169 95.2176 10.6156 94.8532 10.7901 94.4593C10.9646 94.0654 11.1197 93.6419 11.2361 93.184C11.2942 92.9575 11.3379 92.7212 11.367 92.4799C11.3815 92.3617 11.3912 92.2386 11.4057 92.1205C11.4154 91.9974 11.4203 91.8743 11.4251 91.7512C11.4688 90.407 11.2167 89.1514 10.9307 88.0977C10.635 87.044 10.3054 86.1873 10.063 85.6013C9.98061 85.301 9.88366 84.9366 9.73824 84.5132C9.59282 84.0946 9.42801 83.617 9.2438 83.1C9.03052 82.5879 8.793 82.0315 8.53609 81.4456C8.2501 80.8646 7.9544 80.254 7.61994 79.6287C7.36787 79.1708 7.12065 78.7276 6.87343 78.2993C6.62137 77.861 6.33538 77.4622 6.05908 77.0831C5.78278 76.7089 5.51617 76.3593 5.26895 76.0245C5.02174 75.6946 4.80845 75.3844 4.61456 75.0988C4.24131 74.5227 4.00379 74.0352 3.88261 73.6906C3.85352 73.6019 3.82444 73.5281 3.80505 73.4591C3.79051 73.3902 3.77596 73.336 3.76142 73.2868C3.73719 73.1933 3.72749 73.144 3.72749 73.144C3.72749 73.144 3.72748 73.1933 3.73718 73.2868C3.73718 73.336 3.74687 73.3902 3.75172 73.4641C3.76141 73.533 3.7808 73.6118 3.79534 73.7004C3.86805 74.0599 4.03771 74.5769 4.35764 75.1825C4.5176 75.4878 4.70666 75.8127 4.92479 76.1623C5.14292 76.507 5.38529 76.8714 5.63736 77.2554C5.88942 77.6395 6.14633 78.0334 6.37415 78.4568C6.60198 78.8901 6.84436 79.3333 7.09157 79.7863C7.42119 80.4067 7.73627 81.0074 8.04166 81.5785C8.3228 82.1546 8.59426 82.6963 8.84632 83.1936C9.07415 83.7007 9.28258 84.1586 9.47163 84.5673C9.66068 84.976 9.8061 85.3354 9.92729 85.6259C10.0873 86.2217 10.3102 87.0883 10.5138 88.1371C10.7077 89.1809 10.8871 90.4119 10.8483 91.7069C10.8434 91.825 10.8386 91.9432 10.8337 92.0614C10.8241 92.1796 10.8144 92.2928 10.8047 92.4061C10.7804 92.6326 10.7416 92.8541 10.698 93.0708C10.6011 93.5041 10.475 93.9226 10.3296 94.3116C10.189 94.7006 10.0194 95.0649 9.85942 95.4047C9.77217 95.5721 9.69461 95.7346 9.60736 95.8872C9.56373 95.966 9.52495 96.0398 9.48133 96.1137C9.4377 96.1876 9.39408 96.2565 9.3553 96.3254C9.16625 96.6455 8.9772 96.9163 8.8027 97.1477C8.83663 97.0295 8.86571 96.9114 8.89479 96.7932C9.22441 96.2565 9.56858 95.6066 9.78186 94.8434C9.82064 94.74 9.83518 94.6267 9.86427 94.5184C9.88851 94.4101 9.91759 94.2968 9.93698 94.1836C9.97092 93.9571 10.0194 93.7256 10.0339 93.4844C10.0873 93.0068 10.0872 92.5095 10.063 92.0023C9.98546 90.6138 9.64129 89.3336 9.31167 88.2553C9.14686 87.7186 8.97235 87.2262 8.82208 86.7978C8.74453 86.5812 8.67666 86.3793 8.60395 86.1971C8.53124 86.0149 8.46338 85.8426 8.40521 85.6949C8.36643 85.5422 8.31796 85.3699 8.26948 85.1779C8.21131 84.9908 8.14345 84.7889 8.07074 84.5722C7.93501 84.134 7.74597 83.6515 7.53753 83.1197C7.10611 82.0611 6.52927 80.835 5.88457 79.5401C5.40468 78.5898 4.95387 77.6838 4.59032 76.8615C4.2607 76.0294 3.99409 75.2662 3.84867 74.6212C3.77596 74.2962 3.68871 74.0057 3.65478 73.7447C3.616 73.4838 3.57238 73.2523 3.48997 73.0702C3.46573 73.0111 3.43664 72.9569 3.40271 72.9126C3.40271 72.8437 3.40271 72.7698 3.40756 72.7009C3.41725 72.5384 3.42209 72.3759 3.43179 72.2134L3.44633 71.9721L3.46572 71.7309C3.48027 71.5733 3.48996 71.4108 3.50935 71.2533C3.57721 70.6181 3.69355 69.9977 3.85836 69.4068C3.8826 69.333 3.90199 69.2591 3.92622 69.1853C3.95046 69.1114 3.96986 69.0375 3.99894 68.9686C4.05226 68.8258 4.10558 68.683 4.1589 68.5402C4.22192 68.4024 4.28494 68.2645 4.34795 68.1217C4.37704 68.0528 4.41581 67.9838 4.44974 67.9198C4.48367 67.8509 4.52245 67.7869 4.55639 67.718C4.59516 67.6539 4.62425 67.585 4.66788 67.521C4.70666 67.457 4.75029 67.393 4.78907 67.329C4.87147 67.2009 4.94902 67.0729 5.04112 66.9498C5.13322 66.8267 5.21563 66.7036 5.31258 66.5855C5.40952 66.4673 5.50647 66.3491 5.60342 66.2359C5.6519 66.1768 5.70522 66.1226 5.75369 66.0635C5.80701 66.0094 5.85549 65.9503 5.90881 65.8961C5.96213 65.842 6.0106 65.7829 6.06392 65.7287C6.11724 65.6746 6.17056 65.6204 6.22873 65.5662C6.34022 65.4579 6.44687 65.3545 6.55351 65.2462C6.60683 65.1969 6.665 65.1477 6.71832 65.0985C6.77164 65.0492 6.82496 65 6.88313 64.9557C6.9413 64.9114 6.99947 64.8621 7.05279 64.8178C7.11096 64.7735 7.17397 64.7341 7.23214 64.6898C7.34848 64.6012 7.47451 64.5273 7.60054 64.4436C7.85261 64.291 8.10952 64.1482 8.37613 64.03C8.63789 63.902 8.91903 63.8035 9.19048 63.7099C9.46678 63.6262 9.74308 63.5425 10.0242 63.4884C10.3005 63.4244 10.5865 63.3899 10.858 63.3604C10.9986 63.3505 11.1343 63.3357 11.27 63.3308C11.4057 63.3308 11.5415 63.321 11.6772 63.3308C12.2153 63.3407 12.7242 63.4047 13.1944 63.5179C13.6646 63.6312 14.0912 63.7887 14.4693 63.9758C14.8474 64.1629 15.1722 64.3747 15.4485 64.5913C15.7345 64.803 15.9768 65.0492 16.2095 65.3004C16.2628 65.3644 16.321 65.4284 16.3743 65.4924C16.4034 65.5219 16.4276 65.5564 16.4519 65.5859L16.5246 65.6795C16.5731 65.7435 16.6167 65.8075 16.6603 65.8764L16.7233 65.9749L16.7815 66.0783C16.9366 66.3491 17.0578 66.6347 17.145 66.9252C17.2323 67.2157 17.3002 67.5062 17.3292 67.7967C17.3971 68.3827 17.368 68.9637 17.2565 69.5152C17.2032 69.7909 17.1305 70.0617 17.0336 70.3276C16.9899 70.4605 16.9318 70.5885 16.8784 70.7166C16.8493 70.7806 16.8203 70.8397 16.7912 70.9037C16.7621 70.9677 16.733 71.0268 16.6991 71.0859C16.1901 72.0608 15.3661 72.8437 14.382 73.2868C14.319 73.3114 14.256 73.336 14.193 73.3656L14.1009 73.405L14.0039 73.4345C13.9409 73.4542 13.8779 73.4788 13.8149 73.4985C13.7519 73.5133 13.684 73.533 13.621 73.5478L13.524 73.5724C13.4901 73.5773 13.4562 73.5872 13.4271 73.5921C13.3592 73.6019 13.2962 73.6167 13.2332 73.6266C13.1653 73.6364 13.1023 73.6413 13.0345 73.6512L12.9375 73.661C12.9036 73.661 12.8696 73.661 12.8406 73.6659C12.7727 73.6659 12.7097 73.6709 12.6418 73.6758C12.574 73.6758 12.5109 73.6758 12.4479 73.6758H12.351L12.254 73.6659C12.191 73.661 12.1232 73.6561 12.0601 73.6512C11.9971 73.6413 11.9341 73.6315 11.8711 73.6266C11.842 73.6266 11.8081 73.6167 11.779 73.6118L11.6869 73.5921C11.6239 73.5773 11.5657 73.5675 11.5027 73.5527C11.4445 73.5379 11.3815 73.5182 11.3233 73.5035C11.2943 73.4936 11.2652 73.4887 11.2361 73.4788L11.1488 73.4493C11.0907 73.4296 11.0325 73.4099 10.9792 73.3902C10.9258 73.3656 10.8677 73.3459 10.8144 73.3213L10.732 73.2868C10.7077 73.277 10.6786 73.2622 10.6544 73.2474C10.6011 73.2228 10.5526 73.1982 10.4993 73.1736C10.4508 73.1489 10.4023 73.1194 10.3539 73.0948C10.2569 73.0455 10.1648 72.9815 10.0776 72.9224C9.7237 72.6861 9.4474 72.4104 9.23896 72.1297C9.03052 71.849 8.89964 71.5635 8.82693 71.2927C8.75422 71.0218 8.72999 70.7658 8.74938 70.5393C8.74938 70.5098 8.74938 70.4802 8.74938 70.4556C8.74938 70.4261 8.75907 70.4014 8.76392 70.3768C8.77361 70.3227 8.77846 70.2734 8.78816 70.2193C8.79785 70.1897 8.80269 70.1602 8.81239 70.1356C9.02083 70.6033 9.56858 70.9578 10.2133 70.9923C11.0373 71.0366 11.7014 70.5393 11.7014 69.8844C11.7014 69.2296 11.0325 68.6633 10.2084 68.6239C9.47163 68.5845 8.86086 68.9785 8.74452 69.5299C8.72513 69.5545 8.70575 69.5792 8.68636 69.6038C8.64273 69.6776 8.59426 69.7564 8.54094 69.8401C8.49246 69.9288 8.45368 70.0272 8.40521 70.1306C8.38582 70.1848 8.37128 70.239 8.35189 70.298C8.34219 70.3276 8.3325 70.3571 8.3228 70.3867C8.31311 70.4162 8.30827 70.4458 8.30342 70.4802C8.24525 70.7313 8.23555 71.0218 8.28402 71.3419C8.33735 71.6619 8.45853 72.0066 8.67666 72.3513C8.89479 72.6959 9.20018 73.0406 9.60736 73.341C9.70915 73.4148 9.81095 73.4936 9.92729 73.5625C9.98546 73.597 10.0388 73.6315 10.0969 73.6659C10.1551 73.7004 10.2181 73.73 10.2763 73.7644C10.3054 73.7792 10.3393 73.7989 10.3684 73.8137L10.4653 73.858C10.5284 73.8875 10.5962 73.9171 10.6592 73.9466C10.7271 73.9712 10.795 74.0008 10.8628 74.0254L10.9646 74.0648C10.9986 74.0746 11.0373 74.0894 11.0713 74.0992C11.144 74.1189 11.2167 74.1436 11.2894 74.1682C11.3621 74.1879 11.4397 74.2026 11.5124 74.2223L11.6239 74.2519C11.6627 74.2617 11.7014 74.2666 11.7402 74.2716C11.8178 74.2863 11.8953 74.2962 11.9729 74.311C12.0504 74.3208 12.1329 74.3307 12.2104 74.3356L12.3316 74.3504H12.4528C12.5352 74.3602 12.6127 74.3651 12.6951 74.3651C12.7776 74.3651 12.86 74.3651 12.9424 74.3651C12.9811 74.3651 13.0248 74.3651 13.0684 74.3651L13.1896 74.3553C13.272 74.3504 13.3544 74.3405 13.4368 74.3307C13.5192 74.3159 13.6016 74.306 13.684 74.2913C13.7228 74.2863 13.7664 74.2814 13.8052 74.2716L13.9264 74.247C14.0088 74.2273 14.0863 74.2125 14.1687 74.1928C14.2463 74.1682 14.3287 74.1436 14.4063 74.1239L14.5275 74.0894L14.6438 74.0451C14.7213 74.0155 14.7989 73.986 14.8765 73.9564C15.177 73.8284 15.4727 73.6856 15.7441 73.5084C15.8847 73.4247 16.0108 73.3262 16.1416 73.2326C16.2047 73.1834 16.2628 73.1342 16.3258 73.08C16.3888 73.0308 16.4519 72.9766 16.5052 72.9224C16.5634 72.8683 16.6215 72.8141 16.6797 72.76C16.733 72.7009 16.7863 72.6467 16.8445 72.5876L16.9269 72.5039L17.0045 72.4153C17.0529 72.3562 17.1063 72.2971 17.1547 72.2331C17.2032 72.1691 17.2468 72.11 17.2953 72.046L17.3632 71.9524L17.4262 71.854C17.4698 71.79 17.5134 71.726 17.5571 71.657C17.5959 71.5881 17.6346 71.5241 17.6734 71.4551C17.7122 71.3862 17.751 71.3173 17.7849 71.2483C17.8188 71.1794 17.8576 71.1105 17.8915 71.0366C17.9546 70.8938 18.0224 70.751 18.0757 70.6033C18.1921 70.3128 18.2793 70.0075 18.3472 69.6973C18.4829 69.0769 18.5265 68.427 18.4587 67.7573C18.4248 67.4225 18.352 67.0828 18.2551 66.748C18.1533 66.4082 18.0127 66.0685 17.8237 65.7386L17.7558 65.6155L17.6783 65.4924C17.6249 65.4087 17.5765 65.3299 17.5134 65.2462L17.4213 65.128C17.3923 65.0886 17.3632 65.0492 17.3292 65.0098C17.2662 64.936 17.1984 64.8621 17.1353 64.7833C16.8639 64.4879 16.573 64.1974 16.2289 63.9414C15.8896 63.6804 15.4921 63.4244 15.0316 63.1929C14.5711 62.9665 14.0427 62.7695 13.4659 62.6366C12.317 62.3657 10.9792 62.3313 9.68007 62.6218C9.3553 62.6907 9.03537 62.7843 8.71544 62.8877C8.40036 63.0009 8.08528 63.1191 7.78474 63.2668C7.47936 63.4096 7.18852 63.5721 6.90737 63.7493C6.77164 63.8429 6.62622 63.9315 6.49534 64.03C6.42748 64.0792 6.35961 64.1285 6.29659 64.1777C6.23358 64.2319 6.17057 64.2811 6.1027 64.3353C6.03484 64.3845 5.97667 64.4436 5.91365 64.4978C5.85064 64.5519 5.78762 64.611 5.72945 64.6652C5.61796 64.7784 5.50647 64.8917 5.39014 65.0049C5.33197 65.064 5.2738 65.1182 5.22048 65.1773C5.16716 65.2363 5.11384 65.2954 5.06052 65.3594C5.0072 65.4185 4.95387 65.4776 4.8957 65.5416C4.84238 65.6007 4.78422 65.6598 4.73574 65.7287C4.63395 65.8567 4.53215 65.9848 4.43036 66.1128C4.32856 66.2408 4.24131 66.3787 4.14436 66.5116C4.04741 66.6446 3.96501 66.7824 3.87776 66.9252C3.83413 66.9941 3.7905 67.068 3.75172 67.1369C3.70809 67.2059 3.67416 67.2797 3.63539 67.3536C3.59661 67.4274 3.55782 67.5013 3.52389 67.5752C3.48511 67.649 3.44633 67.7229 3.41725 67.7967C3.35423 67.9494 3.28637 68.0971 3.22336 68.2497C3.17003 68.4024 3.11671 68.5599 3.05855 68.7175C3.02946 68.7963 3.01008 68.8751 2.98584 68.9538C2.9616 69.0326 2.9422 69.1114 2.91797 69.1902C2.75316 69.8254 2.64167 70.4802 2.5835 71.14C2.56411 71.3074 2.55927 71.4699 2.54472 71.6373L2.53018 71.8884L2.52049 72.1396C2.51565 72.307 2.51078 72.4744 2.50594 72.6418C2.50594 72.8092 2.50594 72.9766 2.50594 73.144C2.50594 73.3114 2.50594 73.4788 2.50594 73.6462C2.50594 73.8137 2.51079 73.9811 2.51564 74.1485C2.52534 74.3208 2.53502 74.4882 2.53987 74.6606L2.55441 74.9166C2.55926 75.0003 2.56896 75.0889 2.57866 75.1726C2.59805 75.345 2.61258 75.5124 2.63197 75.6847C2.65136 75.857 2.68044 76.0245 2.70468 76.1968C2.74831 76.5415 2.82587 76.8812 2.88888 77.221C2.92282 77.3933 2.96645 77.5607 3.00523 77.733C3.04886 77.9004 3.08278 78.0728 3.13125 78.2402C3.22335 78.5799 3.31061 78.9147 3.41725 79.2496C3.61599 79.9192 3.84867 80.5839 4.08134 81.2437C4.32371 81.8986 4.57093 82.5535 4.82784 83.1936C5.08475 83.8386 5.34167 84.4738 5.59858 85.104C5.85549 85.7343 6.09785 86.3547 6.34507 86.9701C6.8395 88.2011 7.33393 89.3877 7.73627 90.535C7.93986 91.1062 8.11437 91.6724 8.26464 92.2239C8.41491 92.7753 8.52639 93.312 8.6088 93.8389C8.75422 94.8581 8.76391 95.8183 8.6088 96.675L8.61849 96.6701ZM8.31311 97.7632C8.25494 97.8272 8.20646 97.8814 8.16768 97.9208C8.16284 97.9306 8.15315 97.9355 8.1483 97.9404C8.18708 97.8814 8.2307 97.8174 8.27433 97.7533C8.30826 97.7041 8.34219 97.6549 8.37613 97.6007C8.35674 97.6549 8.33734 97.709 8.31311 97.7632ZM9.00629 93.8192C8.93358 93.2825 8.83663 92.731 8.7009 92.1697C8.56033 91.6084 8.40036 91.0372 8.21132 90.4513C7.83322 89.2893 7.36787 88.0879 6.90737 86.8569C6.67954 86.2414 6.44687 85.6112 6.20934 84.9809C5.97182 84.3507 5.7246 83.7106 5.48708 83.0655C5.24471 82.4205 5.01689 81.7706 4.78907 81.1206C4.57093 80.4658 4.35764 79.8109 4.17829 79.1462C4.08134 78.8163 4.00379 78.4864 3.92138 78.1516C3.87775 77.9841 3.84866 77.8217 3.80988 77.6542C3.77595 77.4868 3.73718 77.3244 3.70809 77.1569C3.64993 76.8221 3.58692 76.4922 3.54814 76.1623C3.52875 75.9949 3.49966 75.8324 3.48512 75.665C3.47058 75.4976 3.45604 75.3351 3.44149 75.1677C3.43665 75.084 3.42695 75.0003 3.4221 74.9215L3.41241 74.6753C3.40756 74.5128 3.40272 74.3454 3.39787 74.1829C3.39787 74.0155 3.39787 73.8531 3.39787 73.6856C3.39787 73.5182 3.39786 73.3557 3.40271 73.1933C3.40271 73.1539 3.40271 73.1145 3.40271 73.08C3.40271 73.08 3.40271 73.0899 3.40271 73.0948C3.45603 73.272 3.46573 73.4936 3.47058 73.7546C3.47058 74.0205 3.52389 74.3159 3.55783 74.6507C3.63538 75.3154 3.83413 76.1032 4.12012 76.9649C4.4449 77.8266 4.86662 78.7424 5.34167 79.6976C5.98637 80.9926 6.62137 82.194 7.13035 83.228C7.37271 83.745 7.61509 84.2177 7.79444 84.6412C7.89139 84.8529 7.97864 85.0498 8.06105 85.232C8.13376 85.4142 8.20162 85.5816 8.25979 85.7343C8.29856 85.8869 8.34704 86.0592 8.39551 86.2463C8.44399 86.4334 8.48761 86.6402 8.54094 86.8569C8.64273 87.2951 8.76876 87.7875 8.88995 88.3291C9.13232 89.4074 9.40377 90.6729 9.48133 92.0171C9.50072 92.5095 9.51526 92.992 9.47648 93.4499C9.46679 93.6813 9.43286 93.9029 9.40862 94.1245C9.39408 94.2328 9.37469 94.3411 9.3553 94.4495C9.33591 94.5578 9.32621 94.6661 9.29713 94.7646C9.23411 95.0699 9.14686 95.3653 9.04991 95.641C9.08384 95.0649 9.0693 94.4593 8.99659 93.834L9.00629 93.8192Z" fill="#DCC9A8"/>
<path d="M2.57368 104.065C2.57368 104.065 4.98283 104.897 6.10742 104.016C6.10742 104.016 3.02934 118.093 2.87907 128L2.56883 104.065H2.57368Z" fill="#DCC9A8"/>
<path d="M19.7196 60.5332C19.7196 60.5332 19.6518 60.548 19.516 60.5775C19.4482 60.5923 19.3658 60.612 19.264 60.6317C19.167 60.6563 19.0507 60.6809 18.915 60.6908C18.7841 60.7055 18.6338 60.7203 18.469 60.74C18.3042 60.7449 18.1248 60.74 17.9309 60.7498C17.834 60.7548 17.7322 60.7449 17.6304 60.7351C17.5286 60.7252 17.4171 60.7154 17.3105 60.7055C17.0875 60.6858 16.8597 60.6267 16.6125 60.5824C16.4913 60.548 16.3701 60.5135 16.2441 60.4741C16.181 60.4544 16.118 60.4347 16.055 60.4199C15.992 60.4002 15.929 60.3707 15.866 60.3461C15.7399 60.2968 15.6091 60.2427 15.4733 60.1885C15.3473 60.1196 15.2164 60.0556 15.0807 59.9866C14.5572 59.6961 14.024 59.3072 13.5441 58.8049C13.069 58.2978 12.6473 57.6724 12.3516 56.9536C12.2644 56.7812 12.2159 56.5843 12.148 56.3972C12.0753 56.2101 12.0414 56.0033 11.9978 55.8014C11.9735 55.698 11.9541 55.5995 11.9299 55.4961C11.9057 55.3927 11.9008 55.2844 11.8863 55.181C11.8717 55.0776 11.862 54.9693 11.8475 54.8609C11.8329 54.7526 11.8184 54.6492 11.8232 54.536C11.7118 52.8028 12.2498 50.8677 13.4956 49.3167C13.6507 49.1247 13.8252 48.9474 13.99 48.7554C14.1694 48.583 14.3633 48.4156 14.5475 48.2433C14.7511 48.0956 14.9547 47.9331 15.1631 47.7903C15.2746 47.7263 15.3812 47.6574 15.4927 47.5934C15.6042 47.5293 15.706 47.4506 15.8272 47.4013C16.2925 47.1699 16.7724 46.9729 17.2959 46.8351C17.5625 46.776 17.8195 46.6972 18.0909 46.648C18.3624 46.6086 18.6338 46.5692 18.9053 46.5347C20.0056 46.4412 21.1448 46.5446 22.25 46.8646C23.3552 47.1847 24.4167 47.7263 25.3571 48.4649C26.2975 49.2034 27.107 50.139 27.7081 51.2173C27.8535 51.4881 27.9796 51.7737 28.1201 52.0494C28.2365 52.3399 28.3383 52.6354 28.4498 52.9259C28.6437 53.5364 28.7891 54.1716 28.8909 54.8117C29.1478 56.5597 29.0266 58.3372 28.537 59.9719C28.0571 61.6066 27.2476 63.1084 26.1957 64.3492C25.1487 65.59 23.8787 66.5797 22.5166 67.269C21.1593 67.9583 19.6809 68.3621 18.2557 68.5787C15.3909 68.9923 12.6715 68.5246 10.4757 67.6334C8.26042 66.7471 6.56384 65.4619 5.3423 64.2655C4.23709 62.9606 3.07372 61.1585 2.34176 58.864C1.61465 56.5646 1.21717 53.8023 1.52255 50.8529C1.66312 49.3807 2.00731 47.8691 2.52113 46.3673C2.5793 46.1802 2.65685 45.9931 2.72956 45.806C2.80227 45.6189 2.87012 45.4318 2.94768 45.2447C3.1125 44.8803 3.26277 44.5012 3.45667 44.1368C3.81053 43.3982 4.23709 42.6892 4.6879 41.9851C6.52506 39.1834 9.2202 36.756 12.4873 35.2296C12.783 35.0819 13.0884 34.9588 13.3938 34.8308C13.6943 34.6978 14.0094 34.5944 14.3148 34.4812C14.6202 34.363 14.9401 34.2744 15.2552 34.1759L15.7254 34.0282L16.2004 33.9051C17.4656 33.5703 18.7259 33.3339 19.9717 33.2305C21.2175 33.1271 22.4487 33.1517 23.6363 33.2995C24.8288 33.4472 25.9825 33.718 27.0877 34.0774C29.2981 34.7914 31.2952 35.8648 33.1033 36.9726C34.9113 38.0904 36.5304 39.2671 37.9943 40.3602C39.4582 41.4583 40.7621 42.4873 41.911 43.3884C43.0549 44.2944 44.0438 45.0773 44.8485 45.7174C46.4627 46.9926 47.3643 47.6918 47.3643 47.6918C47.3643 47.6918 46.5402 46.904 45.0521 45.4761C44.3056 44.7621 43.3943 43.8956 42.323 42.896C41.2517 41.8965 40.0253 40.764 38.6244 39.5527C37.2235 38.3464 35.6578 37.0465 33.8546 35.7909C32.0514 34.5452 30.0106 33.3044 27.6403 32.4329C26.4575 31.9946 25.202 31.65 23.8835 31.4481C22.5699 31.2413 21.2029 31.1773 19.8263 31.261C18.4496 31.3447 17.0633 31.581 15.6963 31.9306C15.5267 31.9749 15.3521 32.0143 15.1825 32.0587L14.6735 32.2113C14.3342 32.3147 13.9949 32.4033 13.6507 32.5363C13.3114 32.6594 12.9624 32.7726 12.6279 32.9154C12.2886 33.0533 11.9493 33.1911 11.6197 33.3536C9.80674 34.1956 8.15378 35.3182 6.71896 36.6083C5.99669 37.2533 5.34714 37.9574 4.73153 38.6763C4.1353 39.4099 3.5827 40.1633 3.09311 40.9462C2.61322 41.734 2.1721 42.5317 1.8134 43.349C1.6195 43.7528 1.46923 44.1713 1.29958 44.58C1.22202 44.7868 1.15416 44.9936 1.08145 45.2004C1.00874 45.4072 0.936024 45.609 0.877857 45.8208C0.378574 47.4801 0.0877342 49.1345 0.0150223 50.7348C-0.0625343 52.3301 0.0441093 53.8663 0.291328 55.2844C0.538544 56.7074 0.926327 58.0171 1.39168 59.2087C1.86187 60.4002 2.44841 61.4441 3.06403 62.3402C3.68449 63.2364 4.32919 63.9897 4.9642 64.6101C5.54103 65.2847 6.23906 65.9888 7.08251 66.6683C7.92595 67.3478 8.91481 68.0026 10.0539 68.5541C11.1931 69.1056 12.4776 69.5733 13.8834 69.8442C15.2891 70.1297 16.816 70.2233 18.4011 70.0805C19.9814 69.9229 21.615 69.5635 23.2194 68.8348C24.8142 68.111 26.3266 67.0179 27.5821 65.6097C28.8424 64.2064 29.8313 62.4732 30.4227 60.5627C31.0237 58.6523 31.1837 56.5597 30.8783 54.4966C30.762 53.7383 30.5875 52.9997 30.3548 52.2808C30.2191 51.9214 30.093 51.562 29.9428 51.2074C29.7731 50.8677 29.6131 50.523 29.4289 50.1931C28.6776 48.8785 27.6645 47.7509 26.506 46.8794C25.3474 46.0079 24.0387 45.3924 22.7008 45.0477C21.3629 44.7031 19.9911 44.6292 18.6871 44.7966C18.3624 44.8557 18.0424 44.9148 17.7274 44.9739C17.4123 45.0428 17.1069 45.1462 16.8015 45.2348L16.5737 45.3038C16.4961 45.3333 16.4234 45.3629 16.3507 45.3924C16.2004 45.4515 16.055 45.5155 15.9047 45.5746C15.7545 45.6287 15.6139 45.7075 15.4733 45.7814C15.3328 45.8552 15.1922 45.9291 15.0564 46.0079C14.9159 46.0768 14.7898 46.1753 14.659 46.259C14.5281 46.3476 14.4021 46.4363 14.2712 46.52C14.024 46.7071 13.7913 46.9139 13.5586 47.1059C13.3453 47.3225 13.1272 47.5343 12.9236 47.7558C12.7346 47.9922 12.5407 48.2138 12.3662 48.455C10.9895 50.3852 10.5242 52.6797 10.7859 54.6295C10.7908 54.7526 10.815 54.8757 10.8392 54.9939C10.8635 55.112 10.8829 55.2302 10.9071 55.3484C10.9313 55.4666 10.9459 55.5847 10.9798 55.698C11.0137 55.8112 11.0477 55.9245 11.0816 56.0377C11.1495 56.2593 11.2076 56.4809 11.3046 56.6926C11.3967 56.9043 11.4694 57.116 11.5809 57.3081C11.9832 58.1008 12.5067 58.7606 13.0787 59.2727C13.6556 59.7848 14.2663 60.1541 14.8577 60.415C15.008 60.4741 15.1534 60.5381 15.294 60.5923C15.4394 60.6366 15.5848 60.6809 15.7254 60.7203C15.7981 60.74 15.866 60.7646 15.9338 60.7794C16.0017 60.7942 16.0744 60.8089 16.1423 60.8188C16.278 60.8434 16.4089 60.868 16.5397 60.8926C16.8015 60.9123 17.0439 60.9517 17.2766 60.9517C17.3929 60.9517 17.5044 60.9517 17.611 60.9517C17.7177 60.9517 17.8243 60.9517 17.9213 60.9369C18.12 60.9123 18.3042 60.8976 18.469 60.8729C18.6338 60.8385 18.7841 60.804 18.915 60.7745C19.0507 60.7498 19.1622 60.7104 19.2591 60.6809C19.3561 60.6464 19.4385 60.6218 19.5063 60.6021C19.6372 60.5578 19.7051 60.5381 19.7051 60.5381L19.7196 60.5332Z" fill="#DCC9A8"/>
<path d="M17.4458 60.8781C15.7007 58.6328 19.2248 56.5845 20.3445 58.618C21.1201 60.0262 18.9339 61.7003 17.6445 60.7747L17.4458 60.8781Z" fill="#DCC9A8"/>
<path d="M2.61793 100.693C2.56461 100.461 2.68095 100.215 2.88938 100.013C3.09782 99.8113 3.38867 99.6488 3.70859 99.5552C4.02852 99.4617 4.76533 99.3928 5.31793 99.0924C5.59423 98.9496 5.84144 98.7477 6.00625 98.5557C6.17107 98.3686 6.2777 98.216 6.33587 98.2307C6.36011 98.2307 6.3795 98.28 6.39405 98.3637C6.40374 98.4474 6.42798 98.5705 6.41343 98.7182C6.39889 99.0185 6.27286 99.4321 6.01595 99.8211C5.76389 100.21 5.39549 100.545 5.04648 100.771C4.70231 100.998 4.38238 101.146 4.18364 101.205C3.78131 101.323 3.40805 101.303 3.13175 101.205C2.85545 101.101 2.6761 100.924 2.62278 100.693H2.61793Z" fill="#DCC9A8"/>
<path d="M3.25769 96.4776C3.35949 96.3595 3.53399 96.325 3.72304 96.3595C3.91209 96.3939 4.11567 96.4875 4.29018 96.6254C4.46953 96.7632 4.79431 97.1374 5.17241 97.3245C5.35661 97.4181 5.56504 97.4723 5.72985 97.487C5.89466 97.5018 6.01585 97.5018 6.0304 97.5363C6.04009 97.5609 5.96738 97.6594 5.80257 97.7677C5.63776 97.876 5.3663 97.9745 5.06092 97.9843C4.75553 97.9991 4.43076 97.9302 4.17385 97.8317C3.91694 97.7332 3.71334 97.615 3.60185 97.5313C3.37887 97.359 3.24315 97.1473 3.18499 96.9553C3.13166 96.7632 3.15105 96.5958 3.25284 96.4727L3.25769 96.4776Z" fill="#DCC9A8"/>
<path d="M7.16446 31.1383C6.97057 30.8922 7.2711 30.2521 8.00306 29.4642C8.73501 28.6863 9.91293 27.7507 11.4302 27.0762C11.8083 26.9039 12.3221 26.7167 12.928 26.5346C13.5388 26.3622 14.2562 26.2047 15.0318 26.121C15.8073 26.0323 16.6411 26.0176 17.4748 26.0865C18.3086 26.1554 19.1423 26.3179 19.9179 26.5444C21.4788 26.9974 22.8021 27.7212 23.7037 28.317C24.6053 28.9226 25.1095 29.3904 25.0755 29.4495C25.0368 29.5135 24.4211 29.223 23.442 28.8537C22.4628 28.4893 21.1055 28.0609 19.6465 27.8886C18.9194 27.8049 18.168 27.7803 17.4409 27.8246C16.7138 27.8689 16.0061 27.9772 15.3614 28.1348C14.7118 28.2874 14.1253 28.4844 13.6163 28.6764C13.1074 28.8783 12.6808 29.0605 12.3512 29.2131C11.0375 29.7941 9.85961 30.4145 8.9386 30.8134C8.02245 31.2171 7.3632 31.3944 7.16446 31.1383Z" fill="#DCC9A8"/>
</g>
<defs>
<clipPath id="clip0_3478_3244">
<rect width="128" height="128" fill="white" transform="matrix(-1 0 0 -1 128 128)"/>
</clipPath>
</defs>
</svg>
