<svg width="128" height="128" viewBox="0 0 128 128" fill="none" xmlns="http://www.w3.org/2000/svg">
<g clip-path="url(#clip0_3478_3190)">
<path d="M117.539 125.941C117.505 126.025 117.505 126.124 117.558 126.227C117.612 126.33 117.723 126.439 117.898 126.513C118.072 126.586 118.315 126.616 118.572 126.557C118.828 126.498 119.09 126.345 119.284 126.133C119.386 126.03 119.488 125.872 119.58 125.685C119.667 125.493 119.73 125.272 119.759 125.03C119.783 124.794 119.774 124.543 119.73 124.307C119.686 124.065 119.604 123.839 119.507 123.637C119.405 123.435 119.289 123.258 119.168 123.11C119.105 123.036 119.047 122.972 118.988 122.908C118.925 122.849 118.872 122.795 118.814 122.751C118.756 122.706 118.707 122.667 118.659 122.633C118.61 122.598 118.567 122.573 118.533 122.559C118.46 122.519 118.412 122.505 118.397 122.519C118.383 122.534 118.397 122.578 118.421 122.657C118.455 122.741 118.494 122.839 118.538 122.958C118.562 123.017 118.581 123.086 118.61 123.154C118.635 123.223 118.654 123.302 118.678 123.376C118.717 123.534 118.751 123.701 118.765 123.868C118.775 124.036 118.77 124.203 118.746 124.361C118.722 124.513 118.678 124.656 118.63 124.774C118.581 124.893 118.518 124.986 118.465 125.055C118.455 125.075 118.436 125.09 118.426 125.104C118.412 125.119 118.402 125.134 118.392 125.144C118.383 125.154 118.368 125.168 118.363 125.178C118.353 125.188 118.344 125.198 118.334 125.208C118.266 125.277 118.218 125.336 118.16 125.39C118.106 125.444 118.043 125.503 117.97 125.562C117.82 125.675 117.621 125.769 117.549 125.941H117.539Z" fill="#DCC9A8"/>
<path d="M120.691 125.095C120.274 123.869 119.261 122.559 119.125 122.387C119.115 122.377 119.115 122.362 119.125 122.357L119.105 121.589C119.105 121.486 119.188 121.407 119.29 121.417L120.046 121.491C120.046 121.491 120.065 121.491 120.075 121.491C120.235 121.638 121.35 122.682 122.62 123.278C122.63 123.278 123.134 125.381 123.226 125.829C123.235 125.873 123.202 125.907 123.158 125.893C122.722 125.765 120.7 125.105 120.695 125.09L120.691 125.095Z" fill="#DCC9A8"/>
<path d="M123.725 120.107C123.812 120.077 123.904 120.087 124.006 120.151C124.103 120.215 124.2 120.333 124.263 120.52C124.321 120.703 124.335 120.954 124.253 121.21C124.175 121.466 124.006 121.717 123.783 121.899C123.671 121.993 123.511 122.086 123.317 122.165C123.124 122.239 122.901 122.288 122.663 122.298C122.426 122.308 122.183 122.278 121.95 122.214C121.718 122.15 121.505 122.052 121.311 121.938C121.122 121.82 120.957 121.687 120.816 121.554C120.748 121.485 120.685 121.421 120.632 121.357C120.579 121.288 120.53 121.229 120.491 121.17C120.453 121.111 120.419 121.057 120.39 121.008C120.361 120.959 120.341 120.914 120.322 120.875C120.288 120.801 120.278 120.752 120.293 120.737C120.307 120.722 120.351 120.737 120.424 120.771C120.501 120.811 120.598 120.855 120.71 120.909C120.768 120.939 120.836 120.963 120.899 120.993C120.966 121.023 121.039 121.047 121.112 121.077C121.262 121.131 121.427 121.17 121.592 121.2C121.757 121.224 121.921 121.229 122.077 121.22C122.232 121.205 122.372 121.175 122.489 121.131C122.61 121.087 122.707 121.032 122.775 120.983C122.794 120.973 122.808 120.959 122.823 120.949C122.838 120.939 122.852 120.929 122.867 120.914C122.881 120.904 122.891 120.895 122.905 120.885C122.915 120.875 122.925 120.865 122.934 120.86C123.007 120.801 123.07 120.752 123.128 120.698C123.187 120.648 123.25 120.589 123.308 120.515C123.429 120.373 123.536 120.176 123.71 120.117L123.725 120.107Z" fill="#DCC9A8"/>
<path d="M122.484 118.758C122.416 118.748 122.353 118.684 122.3 118.576C122.246 118.467 122.198 118.31 122.149 118.118C122.125 118.014 122.101 117.911 122.077 117.798C122.067 117.739 122.052 117.679 122.038 117.62C122.023 117.556 122.009 117.492 121.994 117.428C121.97 117.295 121.931 117.162 121.902 117.015C121.863 116.872 121.829 116.724 121.781 116.572C121.689 116.271 121.577 115.956 121.422 115.666C121.34 115.523 121.258 115.375 121.156 115.242C121.107 115.173 121.054 115.114 121.001 115.045C120.942 114.986 120.889 114.922 120.826 114.863C120.584 114.627 120.278 114.43 119.92 114.262C119.556 114.1 119.139 113.972 118.679 113.878C118.223 113.78 117.588 113.691 116.817 113.642C116.047 113.593 115.14 113.583 114.151 113.588C113.162 113.588 112.086 113.607 110.967 113.538C110.685 113.519 110.404 113.499 110.118 113.465C109.978 113.445 109.832 113.43 109.687 113.406L109.58 113.386L109.469 113.361C109.391 113.346 109.318 113.332 109.241 113.317C108.645 113.174 108.082 112.943 107.578 112.647C107.321 112.504 107.089 112.337 106.856 112.17C106.633 111.992 106.415 111.815 106.221 111.623C105.823 111.239 105.479 110.83 105.203 110.407C104.641 109.56 104.316 108.669 104.195 107.901C104.161 107.709 104.146 107.522 104.132 107.349C104.127 107.172 104.117 107.009 104.132 106.852C104.132 106.699 104.156 106.556 104.166 106.424C104.18 106.291 104.209 106.172 104.229 106.069C104.282 105.857 104.326 105.7 104.374 105.591C104.418 105.488 104.447 105.434 104.461 105.439C104.476 105.439 104.476 105.503 104.471 105.616C104.461 105.729 104.456 105.892 104.452 106.099C104.452 106.202 104.452 106.315 104.461 106.438C104.471 106.561 104.476 106.694 104.5 106.837C104.515 106.98 104.544 107.128 104.573 107.285C104.612 107.443 104.65 107.605 104.704 107.773C104.912 108.447 105.305 109.196 105.886 109.875C106.177 110.215 106.517 110.54 106.89 110.825C107.074 110.973 107.278 111.101 107.481 111.229C107.69 111.347 107.898 111.466 108.121 111.559C108.562 111.756 109.028 111.889 109.493 111.953C109.551 111.963 109.609 111.963 109.667 111.973L109.755 111.983H109.847C109.973 111.997 110.099 112.002 110.225 112.002C110.482 112.007 110.739 112.002 110.996 111.997C112.033 111.963 113.08 111.859 114.079 111.781C115.077 111.697 116.032 111.643 116.885 111.653C117.738 111.658 118.499 111.736 119.086 111.859C119.668 111.978 120.249 112.17 120.792 112.45C121.33 112.736 121.829 113.12 122.208 113.583C122.305 113.696 122.387 113.814 122.469 113.932C122.547 114.055 122.624 114.174 122.683 114.297C122.814 114.543 122.91 114.789 122.988 115.03C123.138 115.513 123.192 115.961 123.206 116.36C123.216 116.562 123.206 116.749 123.196 116.926C123.177 117.103 123.163 117.266 123.133 117.414C123.119 117.487 123.104 117.561 123.095 117.63C123.08 117.699 123.061 117.763 123.046 117.827C123.012 117.955 122.978 118.068 122.94 118.167C122.867 118.369 122.784 118.516 122.707 118.615C122.629 118.713 122.557 118.758 122.489 118.753L122.484 118.758Z" fill="#DCC9A8"/>
<path d="M115.004 117.059C115.052 117.133 114.985 117.286 114.8 117.492C114.606 117.694 114.301 117.955 113.836 118.177C113.778 118.201 113.715 118.231 113.656 118.256C113.593 118.28 113.525 118.3 113.458 118.325C113.322 118.374 113.176 118.403 113.021 118.438C112.711 118.492 112.367 118.512 112.003 118.462C111.645 118.413 111.271 118.3 110.918 118.118C110.569 117.94 110.239 117.699 109.953 117.419C109.662 117.138 109.332 116.734 109.032 116.227C108.736 115.715 108.465 115.104 108.266 114.43C108.062 113.745 107.961 113.026 107.844 112.322C107.733 111.618 107.621 110.919 107.423 110.284C107.321 109.964 107.209 109.659 107.064 109.378C106.923 109.097 106.763 108.826 106.584 108.595C106.23 108.127 105.808 107.748 105.459 107.413C105.285 107.246 105.13 107.088 104.994 106.946C104.863 106.798 104.757 106.665 104.669 106.557C104.509 106.325 104.432 106.192 104.451 106.177C104.466 106.168 104.582 106.271 104.776 106.458C104.883 106.547 105.004 106.65 105.154 106.773C105.304 106.886 105.474 107.019 105.673 107.157C106.056 107.438 106.54 107.763 106.996 108.24C107.457 108.713 107.849 109.334 108.135 110.018C108.426 110.702 108.61 111.431 108.785 112.13C108.959 112.825 109.119 113.499 109.332 114.07C109.546 114.646 109.812 115.154 110.079 115.562C110.346 115.966 110.617 116.271 110.83 116.478C111.262 116.897 111.732 117.167 112.202 117.281C112.435 117.34 112.667 117.359 112.895 117.364C113.007 117.359 113.118 117.364 113.225 117.345C113.278 117.34 113.332 117.335 113.385 117.325C113.438 117.315 113.487 117.305 113.54 117.3C113.942 117.226 114.282 117.118 114.534 117.059C114.781 116.995 114.946 116.985 114.994 117.059H115.004Z" fill="#DCC9A8"/>
<path d="M104.408 111.594C104.359 111.633 104.282 111.624 104.18 111.569C104.127 111.545 104.073 111.505 104.01 111.461C103.947 111.412 103.884 111.358 103.817 111.289C103.545 111.023 103.23 110.58 103.012 110.023C102.905 109.748 102.769 109.28 102.716 108.728C102.658 108.177 102.687 107.556 102.789 106.99C102.813 106.847 102.847 106.714 102.871 106.577C102.886 106.508 102.91 106.439 102.925 106.375C102.944 106.311 102.968 106.247 102.992 106.188C103.085 105.946 103.182 105.744 103.259 105.572C103.337 105.4 103.395 105.262 103.434 105.159C103.468 105.06 103.497 105.001 103.511 105.001C103.521 105.001 103.531 105.065 103.531 105.178C103.531 105.291 103.506 105.449 103.472 105.641C103.434 105.828 103.385 106.05 103.346 106.286C103.337 106.345 103.327 106.404 103.322 106.463C103.322 106.522 103.312 106.582 103.308 106.646C103.308 106.774 103.298 106.907 103.298 107.039C103.298 107.576 103.356 108.133 103.468 108.605C103.574 109.078 103.729 109.467 103.817 109.703C104.001 110.181 104.195 110.609 104.326 110.939C104.359 111.023 104.384 111.102 104.403 111.171C104.427 111.239 104.442 111.303 104.452 111.358C104.471 111.466 104.456 111.55 104.413 111.584L104.408 111.594Z" fill="#DCC9A8"/>
<path d="M116.226 124.662C116.226 124.731 116.177 124.805 116.075 124.874C115.974 124.943 115.818 125.016 115.615 125.075C115.513 125.11 115.402 125.135 115.276 125.159C115.213 125.169 115.145 125.184 115.077 125.194C115.004 125.203 114.936 125.208 114.859 125.218C114.708 125.238 114.548 125.238 114.374 125.243C114.199 125.243 114.015 125.238 113.821 125.213C113.429 125.174 112.992 125.08 112.532 124.898C112.304 124.8 112.067 124.686 111.834 124.534C111.718 124.465 111.606 124.376 111.49 124.288C111.378 124.194 111.267 124.101 111.165 123.997C110.738 123.584 110.399 123.052 110.162 122.481C109.924 121.909 109.784 121.309 109.706 120.708C109.628 120.107 109.609 119.334 109.662 118.468C109.716 117.601 109.842 116.636 109.992 115.632C110.142 114.627 110.322 113.573 110.428 112.525C110.452 112.264 110.477 112.003 110.491 111.742C110.496 111.614 110.501 111.486 110.506 111.358V111.264V111.175C110.506 111.116 110.506 111.057 110.506 110.998C110.477 110.526 110.38 110.043 110.22 109.585C110.142 109.354 110.045 109.132 109.943 108.911C109.837 108.694 109.72 108.482 109.59 108.285C109.333 107.886 109.047 107.517 108.732 107.197C108.106 106.557 107.403 106.109 106.759 105.848C106.599 105.779 106.439 105.73 106.289 105.68C106.138 105.641 105.993 105.597 105.852 105.572C105.717 105.538 105.586 105.523 105.464 105.503C105.343 105.488 105.232 105.479 105.13 105.469C104.926 105.459 104.766 105.449 104.655 105.449C104.543 105.449 104.485 105.434 104.48 105.42C104.48 105.405 104.534 105.38 104.64 105.346C104.747 105.306 104.907 105.272 105.12 105.237C105.227 105.227 105.343 105.208 105.474 105.203C105.605 105.203 105.746 105.188 105.896 105.203C106.046 105.203 106.211 105.223 106.381 105.242C106.55 105.272 106.73 105.301 106.914 105.346C107.656 105.528 108.504 105.917 109.294 106.552C109.691 106.867 110.07 107.241 110.414 107.67C110.588 107.881 110.748 108.113 110.903 108.354C111.054 108.595 111.199 108.851 111.32 109.117C111.572 109.649 111.756 110.235 111.853 110.85C111.863 110.929 111.873 111.003 111.882 111.082L111.897 111.2L111.907 111.313C111.921 111.461 111.926 111.609 111.936 111.752C111.95 112.042 111.95 112.333 111.95 112.618C111.936 113.756 111.839 114.844 111.766 115.848C111.689 116.853 111.63 117.768 111.626 118.556C111.616 119.339 111.659 119.989 111.718 120.462C111.776 120.935 111.873 121.368 112.004 121.747C112.139 122.126 112.309 122.446 112.527 122.712C112.58 122.781 112.639 122.84 112.692 122.904C112.755 122.963 112.808 123.022 112.871 123.076C112.992 123.19 113.128 123.283 113.264 123.377C113.54 123.554 113.841 123.692 114.127 123.805C114.272 123.864 114.413 123.908 114.553 123.958C114.694 123.997 114.825 124.046 114.951 124.081C115.014 124.101 115.077 124.12 115.135 124.135C115.193 124.15 115.251 124.169 115.31 124.184C115.416 124.219 115.518 124.248 115.62 124.283C115.809 124.347 115.954 124.406 116.061 124.47C116.163 124.534 116.221 124.603 116.226 124.672V124.662Z" fill="#DCC9A8"/>
<path d="M115.106 116.96C115.038 116.901 115.057 116.739 115.14 116.493C115.213 116.242 115.348 115.907 115.45 115.503C115.465 115.454 115.474 115.4 115.489 115.35C115.503 115.296 115.508 115.242 115.518 115.193C115.542 115.084 115.547 114.971 115.562 114.858C115.576 114.631 115.571 114.39 115.533 114.149C115.455 113.666 115.222 113.169 114.844 112.701C114.655 112.47 114.379 112.174 114.001 111.869C113.623 111.569 113.143 111.264 112.59 111.003C112.047 110.742 111.398 110.535 110.729 110.308C110.06 110.082 109.352 109.841 108.703 109.496C108.053 109.156 107.471 108.708 107.04 108.211C106.604 107.709 106.322 107.201 106.075 106.788C105.954 106.581 105.838 106.399 105.736 106.236C105.629 106.079 105.537 105.946 105.46 105.833C105.29 105.621 105.198 105.493 105.212 105.478C105.222 105.463 105.348 105.557 105.561 105.734C105.658 105.828 105.784 105.946 105.915 106.094C106.046 106.241 106.192 106.409 106.342 106.601C106.647 106.975 106.982 107.433 107.418 107.827C107.631 108.029 107.883 108.206 108.15 108.373C108.417 108.541 108.707 108.679 109.013 108.802C109.624 109.053 110.302 109.21 110.986 109.378C111.669 109.545 112.362 109.703 113.022 109.954C113.671 110.2 114.253 110.52 114.733 110.86C115.213 111.2 115.586 111.564 115.838 111.879C116.09 112.194 116.303 112.539 116.454 112.908C116.604 113.277 116.691 113.661 116.71 114.031C116.73 114.4 116.686 114.75 116.609 115.06C116.565 115.212 116.521 115.36 116.463 115.493C116.434 115.557 116.41 115.626 116.381 115.685C116.352 115.744 116.318 115.803 116.289 115.862C116.041 116.315 115.76 116.611 115.547 116.793C115.324 116.965 115.174 117.024 115.106 116.97V116.96Z" fill="#DCC9A8"/>
<path d="M116.27 120.28C115.78 119.743 115.809 118.906 116.337 118.409C116.866 117.912 117.69 117.941 118.179 118.478C118.669 119.014 118.64 119.852 118.112 120.349C117.583 120.846 116.759 120.817 116.27 120.28Z" fill="#DCC9A8"/>
<path d="M101.907 104.464C101.466 103.981 101.495 103.233 101.97 102.785C102.445 102.337 103.182 102.366 103.623 102.849C104.064 103.331 104.035 104.08 103.56 104.528C103.085 104.976 102.348 104.946 101.907 104.464Z" fill="#DCC9A8"/>
<path d="M110.457 105.887C110.418 105.932 110.336 105.936 110.229 105.912C110.176 105.897 110.113 105.877 110.05 105.848C109.982 105.823 109.909 105.789 109.827 105.749C109.512 105.597 109.105 105.37 108.649 105.144C108.421 105.035 108.053 104.853 107.592 104.71C107.137 104.563 106.594 104.464 106.065 104.425C105.935 104.415 105.804 104.41 105.678 104.405C105.619 104.405 105.561 104.405 105.498 104.405C105.44 104.405 105.382 104.415 105.324 104.42C105.091 104.445 104.873 104.479 104.684 104.504C104.495 104.528 104.335 104.533 104.228 104.528C104.117 104.518 104.059 104.509 104.059 104.494C104.059 104.484 104.117 104.459 104.219 104.435C104.32 104.405 104.461 104.356 104.635 104.287C104.81 104.223 105.014 104.139 105.256 104.06C105.319 104.046 105.377 104.021 105.445 104.006C105.513 103.992 105.581 103.977 105.649 103.967C105.779 103.947 105.92 103.928 106.056 103.913C106.618 103.854 107.229 103.868 107.767 103.967C108.305 104.06 108.756 104.233 109.017 104.361C109.546 104.622 109.958 104.971 110.2 105.267C110.258 105.341 110.312 105.41 110.355 105.479C110.394 105.547 110.428 105.607 110.447 105.661C110.491 105.769 110.496 105.848 110.452 105.892L110.457 105.887Z" fill="#DCC9A8"/>
<path d="M94.4705 120.442C94.2475 120.211 94.5044 119.566 95.0134 118.694C95.5175 117.818 96.2737 116.705 97.0057 115.459C97.1947 115.149 97.4274 114.741 97.6843 114.253C97.9364 113.766 98.1981 113.194 98.4308 112.559C98.6635 111.924 98.8574 111.23 98.9882 110.501C99.124 109.772 99.1918 109.019 99.1967 108.276C99.2112 106.789 98.964 105.37 98.7313 104.336C98.4938 103.302 98.2951 102.643 98.3678 102.608C98.4162 102.584 98.8089 103.155 99.2839 104.139C99.7493 105.124 100.292 106.547 100.539 108.172C100.665 108.985 100.719 109.841 100.685 110.693C100.651 111.54 100.535 112.382 100.35 113.15C100.171 113.918 99.9286 114.622 99.6814 115.218C99.4294 115.809 99.1773 116.301 98.964 116.661C98.1109 118.108 97.0541 119.177 96.201 119.817C95.3382 120.457 94.6789 120.679 94.4608 120.452L94.4705 120.442Z" fill="#DCC9A8"/>
<path d="M33.7818 118.127C34.2957 118.226 34.824 118.354 35.3621 118.521C35.9001 118.689 36.4479 118.881 37.0102 119.102C38.1299 119.54 39.2836 120.077 40.4809 120.609C41.082 120.875 41.6831 121.141 42.2987 121.416C42.9095 121.692 43.5299 121.973 44.1552 122.249C44.7805 122.529 45.4156 122.795 46.0554 123.056C46.6953 123.312 47.3448 123.563 47.9992 123.78C48.324 123.898 48.6584 123.992 48.9881 124.095C49.1529 124.149 49.3177 124.189 49.4874 124.233C49.6522 124.277 49.817 124.326 49.9866 124.366C50.3211 124.44 50.6556 124.528 50.99 124.583C51.1597 124.612 51.3245 124.647 51.4942 124.671C51.6638 124.696 51.8286 124.715 51.9983 124.74C52.0807 124.75 52.168 124.765 52.2504 124.77L52.5024 124.789C52.6721 124.804 52.8369 124.814 53.0066 124.829C53.1714 124.834 53.3362 124.843 53.501 124.848C53.6658 124.858 53.8306 124.863 53.9954 124.863C54.1602 124.863 54.325 124.868 54.4899 124.873C54.6547 124.873 54.8195 124.873 54.9843 124.873H55.2315L55.4787 124.858C55.6435 124.848 55.8035 124.848 55.9683 124.834C56.6179 124.789 57.2674 124.701 57.8976 124.548C57.9751 124.528 58.0527 124.509 58.1351 124.489C58.2126 124.469 58.2902 124.45 58.3678 124.425C58.5229 124.376 58.678 124.322 58.8283 124.272C58.9785 124.208 59.1288 124.149 59.2791 124.085C59.3566 124.056 59.4293 124.021 59.502 123.982C59.5748 123.947 59.6475 123.908 59.7202 123.873C59.7929 123.834 59.8656 123.805 59.9383 123.76C60.011 123.721 60.0789 123.677 60.1516 123.637C60.2922 123.553 60.4327 123.475 60.5636 123.376C60.6994 123.283 60.8351 123.194 60.966 123.096C61.0968 122.997 61.2229 122.894 61.3489 122.795C61.4119 122.746 61.4749 122.692 61.5331 122.638C61.5961 122.583 61.6543 122.529 61.7173 122.475C61.7755 122.421 61.8385 122.367 61.8967 122.318C61.9548 122.263 62.013 122.204 62.0712 122.15C62.1875 122.037 62.299 121.924 62.4153 121.815C62.4735 121.756 62.5268 121.692 62.585 121.633C62.6432 121.574 62.6965 121.51 62.7498 121.446C62.8031 121.382 62.8564 121.318 62.9098 121.254C62.9631 121.19 63.0115 121.121 63.06 121.052C63.1618 120.919 63.2539 120.776 63.346 120.639C63.5254 120.353 63.695 120.062 63.8453 119.757C63.9956 119.457 64.1216 119.137 64.2428 118.822C64.3543 118.502 64.4561 118.182 64.5288 117.852C64.8487 116.542 64.8536 115.183 64.616 114.006C64.4997 113.42 64.3203 112.879 64.1071 112.401C63.8938 111.923 63.6514 111.515 63.4042 111.165C63.157 110.811 62.8807 110.505 62.5995 110.22C62.5268 110.151 62.4541 110.087 62.3814 110.018C62.3475 109.983 62.3087 109.954 62.2699 109.919L62.1536 109.826C62.076 109.762 61.9985 109.708 61.916 109.649L61.7997 109.565L61.6785 109.491C61.3586 109.294 61.0241 109.136 60.6945 109.028C60.3649 108.915 60.0304 108.836 59.7056 108.792C59.0512 108.703 58.4065 108.733 57.7958 108.851C57.4904 108.91 57.1898 108.994 56.899 109.102C56.7536 109.151 56.613 109.215 56.4676 109.274C56.3949 109.304 56.327 109.343 56.2591 109.373C56.1913 109.407 56.1186 109.442 56.0556 109.481C55.9877 109.52 55.9198 109.56 55.852 109.594C55.7841 109.634 55.7211 109.678 55.6581 109.717L55.5611 109.781L55.4642 109.85C55.4012 109.895 55.3381 109.944 55.2751 109.988C55.2121 110.037 55.1539 110.087 55.0958 110.136L55.0037 110.21L54.9164 110.289C54.8583 110.343 54.8001 110.397 54.7468 110.451C54.6934 110.51 54.6353 110.564 54.582 110.623C54.5286 110.678 54.4753 110.742 54.422 110.801C54.3687 110.865 54.3202 110.924 54.2669 110.988C54.1699 111.121 54.073 111.244 53.9857 111.387C53.8064 111.653 53.6561 111.953 53.5204 112.253C53.4913 112.332 53.4574 112.411 53.4283 112.485L53.3846 112.603L53.3459 112.721C53.3216 112.8 53.2974 112.879 53.2683 112.962C53.2489 113.046 53.2295 113.125 53.2053 113.208L53.1762 113.332C53.1665 113.371 53.1617 113.415 53.152 113.455C53.1374 113.538 53.1229 113.622 53.1083 113.701C53.0987 113.785 53.089 113.868 53.0793 113.952L53.0647 114.075C53.0647 114.114 53.0647 114.159 53.0599 114.198C53.0599 114.282 53.055 114.366 53.0502 114.449C53.0502 114.533 53.0502 114.617 53.0502 114.695V114.819L53.0647 114.942C53.0696 115.025 53.0793 115.104 53.0841 115.183C53.0938 115.262 53.1083 115.34 53.118 115.419C53.1229 115.459 53.1277 115.498 53.1374 115.537L53.1617 115.651C53.1762 115.729 53.1908 115.803 53.2101 115.877C53.2295 115.951 53.2489 116.025 53.2683 116.099C53.278 116.133 53.2877 116.173 53.2974 116.207L53.3313 116.315C53.3556 116.384 53.3798 116.453 53.404 116.527C53.4331 116.596 53.4574 116.66 53.4864 116.729L53.5252 116.827C53.5398 116.862 53.5543 116.891 53.5688 116.921C53.5979 116.985 53.6319 117.044 53.6609 117.108C53.69 117.167 53.7288 117.226 53.7579 117.285C53.8209 117.404 53.8936 117.512 53.9663 117.615C54.2523 118.039 54.5868 118.354 54.9164 118.585C55.2509 118.817 55.5854 118.95 55.9004 119.014C56.2107 119.073 56.5015 119.073 56.7487 119.014C56.7778 119.009 56.8118 119.004 56.8408 118.999C56.8699 118.989 56.899 118.979 56.9281 118.974C56.9863 118.959 57.0396 118.94 57.0929 118.925C57.1995 118.881 57.2965 118.841 57.3837 118.797C57.4661 118.748 57.5486 118.699 57.6213 118.659C57.6455 118.639 57.6697 118.62 57.694 118.6C58.2417 118.492 58.6441 117.886 58.6247 117.138C58.6053 116.301 58.0672 115.606 57.4225 115.592C56.7778 115.572 56.2737 116.237 56.2931 117.074C56.3076 117.729 56.6421 118.295 57.0977 118.521C57.0687 118.526 57.0396 118.536 57.0105 118.541C56.962 118.546 56.9087 118.556 56.8554 118.561C56.8311 118.561 56.8021 118.566 56.773 118.571C56.7439 118.571 56.7196 118.571 56.6906 118.571C56.4676 118.585 56.2155 118.556 55.9538 118.472C55.692 118.388 55.4109 118.246 55.1394 118.029C54.8728 117.812 54.6062 117.522 54.3832 117.157C54.3299 117.064 54.2717 116.975 54.2232 116.872C54.199 116.823 54.1699 116.773 54.1457 116.719C54.1215 116.665 54.1021 116.616 54.0778 116.562C54.0681 116.537 54.0536 116.507 54.0439 116.483L54.0148 116.399C53.9954 116.345 53.976 116.286 53.9518 116.232C53.9324 116.173 53.9179 116.114 53.8985 116.054L53.8742 115.966C53.8645 115.936 53.8597 115.907 53.8548 115.877C53.8403 115.818 53.8258 115.754 53.8112 115.695C53.8015 115.631 53.7918 115.572 53.7773 115.508L53.7627 115.414C53.7627 115.385 53.7579 115.35 53.753 115.321C53.7482 115.257 53.7385 115.193 53.7337 115.129C53.7337 115.065 53.7288 115.001 53.724 114.932V114.833V114.735C53.724 114.671 53.724 114.602 53.724 114.538C53.7288 114.474 53.7337 114.405 53.7385 114.336C53.7385 114.302 53.7385 114.267 53.7482 114.238L53.7627 114.139C53.7724 114.075 53.7821 114.006 53.7918 113.937C53.8064 113.873 53.8209 113.804 53.8355 113.74C53.8403 113.706 53.85 113.671 53.8548 113.642L53.8839 113.543C53.9033 113.479 53.9179 113.41 53.9372 113.346C53.9615 113.282 53.9809 113.218 54.0051 113.154L54.039 113.056L54.0778 112.962C54.1069 112.898 54.1311 112.834 54.1602 112.775C54.6207 111.785 55.4206 110.973 56.39 110.481C56.4482 110.446 56.5112 110.422 56.5742 110.392C56.6372 110.362 56.6954 110.333 56.7633 110.308C56.8893 110.259 57.0153 110.205 57.1462 110.166C57.408 110.077 57.6746 110.008 57.9509 109.959C58.4986 109.86 59.0706 109.845 59.6475 109.929C59.9335 109.969 60.2195 110.042 60.5006 110.141C60.7818 110.239 61.0581 110.367 61.3198 110.535L61.4168 110.594L61.5137 110.663C61.5767 110.707 61.6446 110.751 61.7028 110.806L61.7949 110.879C61.8239 110.904 61.8579 110.929 61.887 110.958C61.95 111.017 62.0081 111.076 62.0712 111.131C62.3087 111.372 62.5462 111.628 62.7449 111.923C62.9485 112.214 63.1521 112.549 63.3266 112.938C63.5011 113.322 63.6466 113.76 63.7435 114.242C63.8405 114.725 63.8938 115.247 63.8889 115.789C63.8889 115.926 63.8792 116.064 63.8744 116.202C63.8647 116.34 63.8501 116.478 63.8356 116.621C63.7968 116.901 63.7532 117.187 63.6853 117.468C63.6223 117.753 63.5351 118.029 63.443 118.31C63.3412 118.585 63.2345 118.861 63.1036 119.127C62.9776 119.398 62.8322 119.654 62.6771 119.905C62.5947 120.028 62.5171 120.156 62.425 120.269C62.3814 120.328 62.3378 120.387 62.2941 120.446C62.2457 120.506 62.202 120.56 62.1536 120.619C62.1099 120.678 62.0566 120.732 62.0081 120.786C61.9597 120.84 61.9112 120.895 61.8579 120.949C61.7512 121.057 61.6446 121.16 61.5379 121.269C61.4846 121.323 61.4313 121.377 61.3731 121.431C61.315 121.48 61.2617 121.535 61.2035 121.584C61.1453 121.633 61.092 121.687 61.0338 121.737C60.9757 121.786 60.9223 121.84 60.8593 121.884C60.743 121.978 60.6218 122.076 60.5055 122.17C60.3843 122.263 60.2631 122.347 60.1371 122.436C60.0159 122.529 59.885 122.603 59.759 122.682C59.6959 122.721 59.6329 122.761 59.5651 122.8C59.502 122.839 59.4342 122.869 59.3663 122.908C59.2985 122.943 59.2354 122.977 59.1676 123.012C59.0997 123.046 59.0319 123.081 58.964 123.11C58.8283 123.169 58.6877 123.228 58.5471 123.288C58.4065 123.337 58.2611 123.386 58.1205 123.44C58.0478 123.47 57.9751 123.484 57.9024 123.504C57.8297 123.524 57.757 123.544 57.6843 123.563C57.0929 123.716 56.4821 123.819 55.8568 123.869C55.7017 123.883 55.5417 123.888 55.3818 123.903L55.1443 123.918H54.9067C54.7468 123.928 54.5868 123.933 54.4268 123.937C54.359 123.937 54.2863 123.937 54.2184 123.937C54.1699 123.903 54.1215 123.873 54.0633 123.844C53.8839 123.755 53.6609 123.706 53.404 123.662C53.152 123.622 52.866 123.524 52.5461 123.445C51.911 123.278 51.1694 122.992 50.3599 122.633C49.5601 122.239 48.6827 121.761 47.7568 121.249C46.5014 120.56 45.3138 119.944 44.2813 119.476C43.7626 119.255 43.2875 119.043 42.8658 118.895C42.6525 118.817 42.4586 118.748 42.2744 118.679C42.0902 118.625 41.9206 118.575 41.7703 118.526C41.6249 118.462 41.4601 118.388 41.2807 118.31C41.1014 118.231 40.9026 118.157 40.6942 118.073C40.2725 117.906 39.7974 117.724 39.2691 117.536C38.2172 117.172 36.9666 116.788 35.6044 116.675C35.1052 116.64 34.6156 116.621 34.1454 116.665C33.9079 116.675 33.68 116.719 33.4571 116.744C33.3456 116.763 33.2341 116.788 33.1274 116.808C33.0208 116.832 32.9093 116.847 32.8075 116.882C32.0465 117.079 31.4018 117.413 30.8637 117.733C30.7425 117.758 30.6262 117.788 30.5098 117.817C30.7425 117.65 31.0188 117.468 31.3339 117.28C31.4018 117.241 31.4745 117.197 31.5472 117.157C31.6199 117.118 31.6975 117.079 31.775 117.039C31.9253 116.955 32.0901 116.882 32.2549 116.798C32.5942 116.645 32.9529 116.483 33.3407 116.35C33.7285 116.217 34.1405 116.094 34.572 116.01C34.7901 115.966 35.0082 115.936 35.2312 115.917C35.3427 115.912 35.459 115.902 35.5754 115.892C35.6917 115.887 35.808 115.892 35.9244 115.887C37.1992 115.877 38.4014 116.094 39.429 116.32C40.4518 116.557 41.305 116.803 41.8867 116.985C42.1678 117.118 42.5168 117.271 42.9143 117.477C43.3118 117.679 43.7577 117.906 44.2522 118.152C44.7369 118.423 45.2653 118.713 45.8227 119.014C46.3753 119.334 46.957 119.673 47.5581 120.023C47.9992 120.289 48.4306 120.545 48.8475 120.786C49.2547 121.027 49.6425 121.298 50.0109 121.564C50.3793 121.83 50.7331 122.086 51.0676 122.313C51.4021 122.544 51.722 122.746 52.0128 122.918C52.6042 123.258 53.1083 123.445 53.4574 123.529C53.5446 123.549 53.6222 123.568 53.69 123.578C53.7579 123.588 53.8161 123.593 53.8597 123.598C53.9518 123.608 54.0003 123.613 54.0003 123.613C54.0003 123.613 53.9518 123.598 53.8597 123.573C53.8161 123.558 53.7579 123.544 53.69 123.524C53.6222 123.499 53.5495 123.47 53.4622 123.44C53.1229 123.307 52.6478 123.056 52.0952 122.657C51.8189 122.455 51.5184 122.229 51.1985 121.968C50.8786 121.707 50.5392 121.431 50.1805 121.141C49.817 120.85 49.4292 120.55 49.0075 120.284C48.5906 120.023 48.1592 119.762 47.7181 119.491C47.1121 119.137 46.5159 118.822 45.9536 118.516C45.3816 118.241 44.8436 117.985 44.3443 117.753C43.8402 117.551 43.3748 117.369 42.9628 117.212C42.5556 117.054 42.192 116.946 41.9012 116.852C41.3341 116.591 40.5003 116.232 39.4678 115.907C38.4402 115.592 37.2138 115.301 35.8856 115.311C35.7644 115.311 35.6432 115.311 35.522 115.321C35.4009 115.331 35.2845 115.34 35.1633 115.35C34.9258 115.375 34.6931 115.414 34.4702 115.468C34.0194 115.572 33.5976 115.725 33.205 115.887C32.8124 116.054 32.4488 116.246 32.1143 116.438C31.9495 116.542 31.7896 116.631 31.6393 116.734C31.5666 116.783 31.489 116.832 31.4212 116.882C31.3484 116.931 31.2806 116.985 31.2127 117.034C30.7765 117.354 30.4274 117.669 30.1754 117.93C29.9815 117.994 29.7973 118.068 29.6179 118.157C29.3028 118.31 29.0217 118.511 28.7842 118.763C28.8133 118.812 28.8423 118.866 28.8617 118.925C28.8617 118.935 28.8714 118.945 28.8763 118.955C29.1041 118.723 29.3853 118.541 29.6955 118.398C29.7246 118.383 29.7537 118.374 29.7827 118.364C29.7585 118.393 29.7343 118.423 29.7149 118.447C29.6906 118.477 29.6713 118.502 29.6567 118.516C29.5307 118.6 29.4192 118.674 29.3174 118.738C29.1186 118.861 28.9781 118.95 28.8957 118.999C28.8957 118.999 28.8957 119.009 28.9005 119.014C28.9878 118.979 29.138 118.915 29.3465 118.827C29.5113 118.748 29.7197 118.649 29.9572 118.536C30.1948 118.423 30.4614 118.29 30.7571 118.142C30.8298 118.108 30.8976 118.073 30.9752 118.039C31.8235 117.906 32.7687 117.94 33.7673 118.113L33.7818 118.127ZM30.059 118.28C30.0057 118.314 29.9572 118.349 29.9088 118.378C29.8458 118.423 29.7827 118.462 29.7246 118.502C29.7294 118.497 29.7391 118.492 29.744 118.482C29.7876 118.442 29.8409 118.393 29.9039 118.339C29.9572 118.319 30.0106 118.3 30.0639 118.28H30.059ZM32.0271 117.635C32.3034 117.541 32.5894 117.463 32.8948 117.408C32.9966 117.379 33.1032 117.374 33.2098 117.354C33.3165 117.34 33.4231 117.32 33.5298 117.31C33.7479 117.295 33.9709 117.261 34.1987 117.261C34.6544 117.236 35.1246 117.261 35.6093 117.295C36.9278 117.408 38.1639 117.719 39.2206 117.989C39.749 118.127 40.2337 118.265 40.6603 118.383C40.8736 118.442 41.0723 118.497 41.2565 118.551C41.4407 118.605 41.6055 118.654 41.7558 118.699C41.9012 118.763 42.066 118.836 42.2454 118.915C42.4199 119.004 42.6138 119.097 42.8174 119.201C43.2294 119.393 43.6899 119.649 44.1892 119.91C45.1926 120.456 46.3559 121.131 47.6163 121.82C48.5421 122.332 49.434 122.785 50.2726 123.135C51.1161 123.45 51.882 123.672 52.5364 123.765C52.8611 123.814 53.1568 123.873 53.4137 123.878C53.6706 123.893 53.8888 123.908 54.0633 123.967C54.0633 123.967 54.073 123.967 54.0778 123.967C54.039 123.967 54.0003 123.967 53.9663 123.967C53.8064 123.967 53.6416 123.967 53.4816 123.962C53.3168 123.962 53.1568 123.952 52.992 123.952C52.832 123.942 52.6672 123.933 52.5073 123.923L52.2649 123.908C52.1825 123.903 52.1049 123.888 52.0225 123.883C51.8626 123.864 51.6978 123.849 51.5329 123.829C51.3681 123.809 51.2082 123.78 51.0434 123.75C50.7186 123.706 50.3938 123.627 50.069 123.563C49.9042 123.529 49.7443 123.484 49.5795 123.445C49.4195 123.401 49.2547 123.371 49.0899 123.322C48.7651 123.228 48.4403 123.14 48.1204 123.036C47.4757 122.839 46.831 122.603 46.196 122.367C45.561 122.121 44.926 121.869 44.3007 121.609C43.6753 121.348 43.05 121.087 42.4344 120.826C41.8188 120.565 41.2032 120.314 40.6069 120.067C39.4048 119.57 38.2414 119.063 37.1023 118.649C36.5351 118.442 35.9728 118.26 35.4251 118.108C34.8773 117.955 34.3344 117.842 33.8109 117.753C33.1953 117.665 32.5991 117.63 32.0319 117.65L32.0271 117.635Z" fill="#DCC9A8"/>
<path d="M23.5486 124.002C23.5486 124.002 22.7924 121.535 23.6892 120.412C23.6892 120.412 9.75293 123.169 0 123.056L23.5486 124.002Z" fill="#DCC9A8"/>
<path d="M66.8407 107.739C66.8407 107.739 66.8164 107.808 66.7728 107.941C66.7486 108.005 66.7195 108.088 66.6855 108.187C66.6516 108.285 66.608 108.399 66.5837 108.537C66.5498 108.669 66.5159 108.822 66.4771 108.985C66.448 109.152 66.4286 109.339 66.3995 109.541C66.3802 109.639 66.3802 109.748 66.3753 109.856C66.3753 109.964 66.3656 110.078 66.3656 110.196C66.3608 110.432 66.3899 110.678 66.4044 110.944C66.4238 111.077 66.448 111.21 66.4674 111.348C66.4771 111.417 66.4916 111.486 66.5013 111.56C66.5159 111.629 66.5353 111.703 66.5547 111.772C66.5934 111.914 66.6322 112.062 66.671 112.215C66.7243 112.362 66.7776 112.51 66.8358 112.663C67.0782 113.268 67.4272 113.904 67.9119 114.499C68.4015 115.09 69.0365 115.642 69.8073 116.07C69.9915 116.188 70.2047 116.267 70.4083 116.365C70.6119 116.469 70.8301 116.533 71.0482 116.607C71.1597 116.641 71.2663 116.681 71.3778 116.72C71.4893 116.759 71.6056 116.774 71.722 116.804C71.8383 116.828 71.9546 116.858 72.071 116.882C72.1873 116.912 72.3037 116.937 72.4297 116.946C74.3444 117.262 76.613 116.853 78.5519 115.504C78.7943 115.336 79.0173 115.144 79.2548 114.957C79.4778 114.755 79.6911 114.544 79.9141 114.332C80.1128 114.1 80.3164 113.869 80.5103 113.623C80.5975 113.495 80.6896 113.367 80.7769 113.234C80.8641 113.101 80.9659 112.978 81.0338 112.835C81.1114 112.697 81.1889 112.554 81.2665 112.417C81.344 112.279 81.4216 112.136 81.4798 111.983C81.5428 111.836 81.6058 111.683 81.6688 111.535C81.6979 111.461 81.7318 111.383 81.7609 111.309L81.8336 111.077C81.9257 110.767 82.0372 110.462 82.1148 110.142C82.1826 109.822 82.2456 109.497 82.3135 109.172C82.5122 107.852 82.4735 106.459 82.1681 105.09C81.8627 103.721 81.2907 102.382 80.4667 101.18C79.6426 99.9789 78.5568 98.9203 77.2819 98.1226C76.962 97.9257 76.6275 97.7583 76.2931 97.5712C75.9537 97.4136 75.5999 97.2757 75.2509 97.128C74.548 96.872 73.8257 96.675 73.0841 96.5372C71.0676 96.1728 68.9977 96.2861 67.1024 96.8424C65.2071 97.3939 63.4766 98.3491 62.0611 99.5899C60.6409 100.826 59.5308 102.337 58.7746 103.938C58.0136 105.548 57.6161 107.197 57.4222 108.798C57.2428 110.403 57.2913 111.954 57.5385 113.391C57.7712 114.829 58.1978 116.144 58.7067 117.316C59.2157 118.488 59.841 119.512 60.4857 120.383C61.1304 121.26 61.8091 121.988 62.4538 122.589C63.05 123.244 63.7723 123.924 64.6399 124.578C65.5076 125.228 66.5159 125.849 67.6744 126.361C68.8329 126.868 70.1078 127.291 71.5038 127.582C72.895 127.872 74.4026 128.025 75.978 127.986C77.5534 127.956 79.1918 127.7 80.8351 127.237C81.0435 127.183 81.2471 127.114 81.4507 127.05C81.6543 126.981 81.8627 126.922 82.0663 126.843C82.4735 126.686 82.8855 126.543 83.2878 126.356C84.107 126.011 84.902 125.583 85.6873 125.12C86.4726 124.647 87.2288 124.106 87.9656 123.52C88.6878 122.914 89.3955 122.269 90.0499 121.555C91.3587 120.132 92.5075 118.483 93.3849 116.666C93.5546 116.336 93.7 115.991 93.8454 115.656C94.0005 115.322 94.1169 114.972 94.2478 114.627C94.3835 114.283 94.4804 113.938 94.5919 113.598L94.7567 113.086C94.8052 112.914 94.8488 112.742 94.8973 112.569C95.2754 111.19 95.5469 109.792 95.6632 108.394C95.7795 106.995 95.7553 105.607 95.5856 104.268C95.4208 102.928 95.1154 101.638 94.7131 100.427C93.9181 97.9946 92.7499 95.8921 91.572 94.0309C90.3796 92.1697 89.1435 90.5449 87.9946 89.0923C86.841 87.6398 85.76 86.3645 84.8051 85.2468C83.8501 84.134 83.0164 83.1837 82.3377 82.4058C80.9708 80.8597 80.2146 80.0029 80.2146 80.0029C80.2146 80.0029 80.8738 80.9385 82.0905 82.6126C82.6965 83.4496 83.4381 84.4738 84.3009 85.6604C85.1589 86.8471 86.1381 88.2011 87.1803 89.7177C88.2176 91.2342 89.3325 92.9132 90.3844 94.7744C91.4266 96.6406 92.43 98.6938 93.0747 100.959C93.3995 102.086 93.6321 103.268 93.7485 104.479C93.8648 105.696 93.8551 106.941 93.7194 108.207C93.5837 109.472 93.3171 110.747 92.9535 112.018L92.8178 112.495L92.6627 112.973C92.556 113.288 92.4639 113.618 92.3379 113.918C92.2216 114.229 92.1101 114.544 91.9695 114.844C91.8386 115.149 91.7077 115.459 91.5526 115.755C89.9627 119.034 87.5002 121.708 84.6984 123.5C83.9955 123.943 83.283 124.357 82.551 124.697C82.1923 124.879 81.8142 125.022 81.4507 125.184C81.2665 125.258 81.0774 125.322 80.8932 125.391C80.709 125.46 80.5248 125.529 80.3358 125.588C78.8476 126.07 77.3498 126.381 75.8956 126.484C72.9871 126.71 70.2775 126.238 68.0331 125.44C65.7888 124.633 64.0486 123.407 62.7931 122.249C61.6491 120.979 60.4276 119.221 59.6132 116.951C58.794 114.696 58.4014 111.929 58.8861 109.029C59.1382 107.591 59.5696 106.099 60.287 104.735C60.9996 103.367 62.0078 102.106 63.2584 101.072C64.5042 100.038 66.0021 99.2551 67.6259 98.812C69.2498 98.359 70.9997 98.2851 72.7108 98.5904C73.341 98.7086 73.9615 98.876 74.5528 99.0877C74.8388 99.2108 75.1297 99.3191 75.4108 99.4472C75.6823 99.5949 75.9586 99.7327 76.2203 99.8854C77.2674 100.525 78.1641 101.372 78.867 102.347C79.5699 103.322 80.0692 104.415 80.36 105.543C80.646 106.67 80.7187 107.832 80.5975 108.95C80.5539 109.226 80.5054 109.502 80.4618 109.777C80.4085 110.048 80.3212 110.314 80.2582 110.58C80.1128 111.107 79.9044 111.589 79.662 112.057C79.6087 112.18 79.5311 112.284 79.4632 112.392C79.3954 112.5 79.3275 112.613 79.2597 112.722C79.1094 112.934 78.9494 113.13 78.7992 113.337C78.6246 113.519 78.455 113.712 78.2805 113.889C78.0914 114.051 77.9121 114.224 77.7182 114.376C76.1573 115.597 74.2378 116.095 72.5363 115.937C72.4297 115.937 72.3231 115.917 72.2213 115.903C72.1146 115.888 72.0128 115.873 71.911 115.853C71.8092 115.834 71.7026 115.829 71.6008 115.799C71.499 115.775 71.402 115.745 71.3002 115.72C71.1015 115.666 70.9028 115.627 70.7186 115.548C70.5344 115.474 70.3453 115.425 70.1757 115.331C69.4728 115.006 68.8717 114.568 68.3821 114.071C67.8974 113.569 67.5338 113.017 67.2575 112.481C67.1945 112.343 67.1315 112.21 67.0685 112.077C67.02 111.939 66.9715 111.806 66.9231 111.673C66.8988 111.609 66.8746 111.545 66.8552 111.476C66.8407 111.412 66.8213 111.343 66.8067 111.279C66.7728 111.151 66.7437 111.023 66.7098 110.9C66.6758 110.649 66.6225 110.413 66.608 110.191C66.6031 110.078 66.5934 109.969 66.5886 109.861C66.5837 109.758 66.5741 109.654 66.5789 109.556C66.5886 109.359 66.5886 109.177 66.6031 109.009C66.6274 108.842 66.6468 108.694 66.6613 108.561C66.6758 108.423 66.7001 108.31 66.7292 108.207C66.7534 108.108 66.7728 108.02 66.7873 107.956C66.8213 107.818 66.8358 107.749 66.8358 107.749L66.8407 107.739Z" fill="#DCC9A8"/>
<path d="M66.4426 110.038C68.6046 111.869 70.7132 108.344 68.7403 107.152C67.3733 106.325 65.667 108.501 66.5493 109.841L66.4426 110.038Z" fill="#DCC9A8"/>
<path d="M26.864 124.047C26.6362 123.987 26.4666 123.795 26.3745 123.515C26.2824 123.234 26.2727 122.855 26.3987 122.446C26.4617 122.244 26.612 121.924 26.8447 121.58C27.0773 121.235 27.4118 120.866 27.7996 120.615C28.1874 120.363 28.5994 120.245 28.8951 120.235C29.0405 120.221 29.1617 120.25 29.2441 120.265C29.3265 120.285 29.3701 120.309 29.375 120.334C29.3847 120.383 29.2344 120.492 29.0405 120.649C28.8466 120.812 28.643 121.058 28.4928 121.338C28.1874 121.895 28.105 122.643 28.0032 122.968C27.9014 123.288 27.7366 123.584 27.533 123.79C27.3294 123.997 27.087 124.106 26.8592 124.047H26.864Z" fill="#DCC9A8"/>
<path d="M31.0332 123.504C30.912 123.603 30.7424 123.622 30.5582 123.563C30.374 123.504 30.1655 123.356 30.0007 123.125C29.9183 123.012 29.8068 122.8 29.7196 122.539C29.6275 122.278 29.5693 121.943 29.5887 121.633C29.6081 121.323 29.7099 121.047 29.8214 120.885C29.9377 120.722 30.0346 120.643 30.0637 120.663C30.0928 120.678 30.088 120.801 30.0977 120.968C30.1074 121.136 30.1558 121.348 30.2431 121.54C30.4176 121.929 30.7811 122.268 30.912 122.45C31.0429 122.633 31.1302 122.839 31.1592 123.031C31.1883 123.224 31.1495 123.401 31.0284 123.499L31.0332 123.504Z" fill="#DCC9A8"/>
<path d="M119.382 31.3299C119.415 31.256 119.454 31.1822 119.488 31.1133C119.638 30.8178 119.774 30.547 119.895 30.3107C120.012 30.0743 120.113 29.8675 120.196 29.7001C120.288 29.4884 120.356 29.3407 120.395 29.252C120.395 29.252 120.385 29.252 120.385 29.2471C120.332 29.3259 120.244 29.4687 120.118 29.6656C120.05 29.7641 119.978 29.8774 119.89 30.0054C119.871 30.0202 119.847 30.0399 119.818 30.0645C119.794 30.0842 119.764 30.1039 119.735 30.1285C119.75 30.0989 119.76 30.0694 119.774 30.0399C119.92 29.7297 120.109 29.4539 120.341 29.2225C120.332 29.2225 120.322 29.2127 120.312 29.2077C120.254 29.1831 120.206 29.1536 120.157 29.124C119.905 29.3604 119.701 29.641 119.541 29.9562C119.449 30.1334 119.372 30.3205 119.304 30.5125C119.042 30.7637 118.722 31.1083 118.393 31.5465C118.344 31.6155 118.291 31.6844 118.238 31.7533C118.189 31.8272 118.136 31.8961 118.087 31.9749C117.981 32.1226 117.889 32.2851 117.782 32.4476C117.583 32.7824 117.384 33.1468 117.21 33.5407C117.035 33.9346 116.88 34.3581 116.764 34.816C116.706 35.0425 116.662 35.2788 116.633 35.5201C116.618 35.6383 116.609 35.7614 116.594 35.8795C116.585 36.0026 116.58 36.1257 116.575 36.2488C116.531 37.593 116.783 38.8486 117.069 39.9023C117.365 40.956 117.695 41.8127 117.937 42.3987C118.019 42.699 118.116 43.0634 118.262 43.4868C118.407 43.9054 118.572 44.383 118.756 44.9C118.969 45.4121 119.207 45.9685 119.464 46.5544C119.75 47.1354 120.046 47.746 120.38 48.3713C120.632 48.8292 120.879 49.2724 121.127 49.7007C121.379 50.139 121.665 50.5378 121.941 50.9169C122.217 51.2911 122.484 51.6407 122.731 51.9755C122.978 52.3054 123.192 52.6156 123.385 52.9012C123.759 53.4773 123.996 53.9648 124.117 54.3094C124.146 54.3981 124.176 54.4719 124.195 54.5409C124.209 54.6098 124.224 54.664 124.239 54.7132C124.263 54.8067 124.273 54.856 124.273 54.856C124.273 54.856 124.273 54.8067 124.263 54.7132C124.263 54.664 124.253 54.6098 124.248 54.5359C124.239 54.467 124.219 54.3882 124.205 54.2996C124.132 53.9401 123.962 53.4231 123.642 52.8175C123.482 52.5122 123.293 52.1873 123.075 51.8377C122.857 51.493 122.615 51.1286 122.363 50.7446C122.111 50.3605 121.854 49.9666 121.626 49.5432C121.398 49.1099 121.156 48.6667 120.908 48.2137C120.579 47.5933 120.264 46.9926 119.958 46.4215C119.677 45.8454 119.406 45.3037 119.154 44.8064C118.926 44.2993 118.717 43.8414 118.528 43.4327C118.339 43.024 118.194 42.6646 118.073 42.3741C117.913 41.7783 117.69 40.9117 117.486 39.8629C117.292 38.8191 117.113 37.5881 117.152 36.2931C117.157 36.175 117.161 36.0568 117.166 35.9386C117.176 35.8204 117.186 35.7072 117.195 35.5939C117.22 35.3674 117.258 35.1459 117.302 34.9292C117.399 34.4959 117.525 34.0774 117.67 33.6884C117.811 33.2994 117.981 32.9351 118.141 32.5953C118.228 32.4279 118.305 32.2654 118.393 32.1128C118.436 32.034 118.475 31.9602 118.519 31.8863C118.562 31.8124 118.606 31.7435 118.645 31.6746C118.834 31.3545 119.023 31.0837 119.197 30.8523C119.163 30.9705 119.134 31.0886 119.105 31.2068C118.776 31.7435 118.431 32.3934 118.218 33.1566C118.179 33.26 118.165 33.3733 118.136 33.4816C118.111 33.5899 118.082 33.7032 118.063 33.8164C118.029 34.0429 117.981 34.2744 117.966 34.5156C117.913 34.9932 117.913 35.4905 117.937 35.9977C118.015 37.3862 118.359 38.6664 118.688 39.7447C118.853 40.2814 119.028 40.7738 119.178 41.2022C119.255 41.4188 119.323 41.6207 119.396 41.8029C119.469 41.9851 119.537 42.1574 119.595 42.3051C119.634 42.4578 119.682 42.6301 119.731 42.8221C119.789 43.0092 119.857 43.2111 119.929 43.4278C120.065 43.866 120.254 44.3485 120.462 44.8803C120.894 45.9389 121.471 47.165 122.115 48.4599C122.595 49.4102 123.046 50.3162 123.41 51.1385C123.739 51.9706 124.006 52.7338 124.151 53.3788C124.224 53.7038 124.311 53.9943 124.345 54.2553C124.384 54.5162 124.428 54.7477 124.51 54.9298C124.534 54.9889 124.563 55.0431 124.597 55.0874C124.597 55.1563 124.597 55.2302 124.592 55.2991C124.583 55.4616 124.578 55.6241 124.568 55.7866L124.554 56.0279L124.534 56.2691C124.52 56.4267 124.51 56.5892 124.491 56.7467C124.423 57.3819 124.306 58.0023 124.142 58.5932C124.117 58.667 124.098 58.7409 124.074 58.8147C124.05 58.8886 124.03 58.9625 124.001 59.0314C123.948 59.1742 123.894 59.317 123.841 59.4598C123.778 59.5976 123.715 59.7355 123.652 59.8783C123.623 59.9472 123.584 60.0162 123.55 60.0802C123.516 60.1491 123.478 60.2131 123.444 60.282C123.405 60.3461 123.376 60.415 123.332 60.479C123.293 60.543 123.25 60.607 123.211 60.671C123.129 60.7991 123.051 60.9271 122.959 61.0502C122.867 61.1733 122.784 61.2964 122.687 61.4145C122.59 61.5327 122.494 61.6509 122.397 61.7641C122.348 61.8232 122.295 61.8774 122.246 61.9365C122.193 61.9906 122.145 62.0497 122.091 62.1039C122.038 62.158 121.989 62.2171 121.936 62.2713C121.883 62.3254 121.829 62.3796 121.771 62.4338C121.66 62.5421 121.553 62.6455 121.446 62.7538C121.393 62.8031 121.335 62.8523 121.282 62.9015C121.228 62.9508 121.175 63 121.117 63.0443C121.059 63.0886 121.001 63.1379 120.947 63.1822C120.889 63.2265 120.826 63.2659 120.768 63.3102C120.652 63.3988 120.525 63.4727 120.399 63.5564C120.147 63.709 119.89 63.8518 119.624 63.97C119.362 64.098 119.081 64.1965 118.81 64.2901C118.533 64.3738 118.257 64.4575 117.976 64.5116C117.699 64.5756 117.413 64.6101 117.142 64.6396C117.001 64.6495 116.866 64.6643 116.73 64.6692C116.594 64.6692 116.459 64.679 116.323 64.6692C115.785 64.6593 115.276 64.5953 114.806 64.4821C114.335 64.3688 113.909 64.2113 113.531 64.0242C113.153 63.8371 112.828 63.6253 112.552 63.4087C112.266 63.197 112.023 62.9508 111.791 62.6996C111.737 62.6356 111.679 62.5716 111.626 62.5076C111.597 62.4781 111.572 62.4436 111.548 62.4141L111.475 62.3205C111.427 62.2565 111.383 62.1925 111.34 62.1236L111.277 62.0251L111.219 61.9217C111.063 61.6509 110.942 61.3653 110.855 61.0748C110.768 60.7843 110.7 60.4938 110.671 60.2033C110.603 59.6173 110.632 59.0363 110.743 58.4848C110.797 58.2091 110.869 57.9383 110.966 57.6724C111.01 57.5395 111.068 57.4115 111.122 57.2834C111.151 57.2194 111.18 57.1603 111.209 57.0963C111.238 57.0323 111.267 56.9732 111.301 56.9141C111.81 55.9392 112.634 55.1563 113.618 54.7132C113.681 54.6886 113.744 54.664 113.807 54.6344L113.899 54.595L113.996 54.5655C114.059 54.5458 114.122 54.5212 114.185 54.5015C114.248 54.4867 114.316 54.467 114.379 54.4522L114.476 54.4276C114.51 54.4227 114.544 54.4128 114.573 54.4079C114.641 54.3981 114.704 54.3833 114.767 54.3734C114.835 54.3636 114.898 54.3587 114.966 54.3488L115.062 54.339C115.096 54.339 115.13 54.339 115.159 54.3341C115.227 54.3341 115.29 54.3291 115.358 54.3242C115.426 54.3242 115.489 54.3242 115.552 54.3242H115.649L115.746 54.3341C115.809 54.339 115.877 54.3439 115.94 54.3488C116.003 54.3587 116.066 54.3685 116.129 54.3734C116.158 54.3734 116.192 54.3833 116.221 54.3882L116.313 54.4079C116.376 54.4227 116.434 54.4325 116.497 54.4473C116.555 54.4621 116.618 54.4818 116.677 54.4965C116.706 54.5064 116.735 54.5113 116.764 54.5212L116.851 54.5507C116.909 54.5704 116.968 54.5901 117.021 54.6098C117.074 54.6344 117.132 54.6541 117.186 54.6787L117.268 54.7132C117.292 54.723 117.321 54.7378 117.346 54.7526C117.399 54.7772 117.447 54.8018 117.501 54.8264C117.549 54.8511 117.598 54.8806 117.646 54.9052C117.743 54.9545 117.835 55.0185 117.922 55.0776C118.276 55.3139 118.553 55.5896 118.761 55.8703C118.969 56.151 119.1 56.4365 119.173 56.7073C119.246 56.9782 119.27 57.2342 119.251 57.4607C119.251 57.4902 119.251 57.5198 119.251 57.5444C119.251 57.5739 119.241 57.5986 119.236 57.6232C119.226 57.6773 119.222 57.7266 119.212 57.7807C119.202 57.8103 119.197 57.8398 119.188 57.8644C118.979 57.3967 118.431 57.0422 117.787 57.0077C116.963 56.9634 116.299 57.4607 116.299 58.1156C116.299 58.7704 116.968 59.3367 117.792 59.3761C118.528 59.4155 119.139 59.0215 119.255 58.4701C119.275 58.4455 119.294 58.4208 119.314 58.3962C119.357 58.3224 119.406 58.2436 119.459 58.1599C119.508 58.0712 119.546 57.9728 119.595 57.8694C119.614 57.8152 119.629 57.761 119.648 57.702C119.658 57.6724 119.668 57.6429 119.677 57.6133C119.687 57.5838 119.692 57.5542 119.697 57.5198C119.755 57.2687 119.764 56.9782 119.716 56.6581C119.663 56.3381 119.541 55.9934 119.323 55.6487C119.105 55.3041 118.8 54.9594 118.393 54.659C118.291 54.5852 118.189 54.5064 118.073 54.4375C118.015 54.403 117.961 54.3685 117.903 54.3341C117.845 54.2996 117.782 54.27 117.724 54.2356C117.695 54.2208 117.661 54.2011 117.632 54.1863L117.535 54.142C117.472 54.1125 117.404 54.0829 117.341 54.0534C117.273 54.0288 117.205 53.9992 117.137 53.9746L117.035 53.9352C117.001 53.9254 116.963 53.9106 116.929 53.9008C116.856 53.8811 116.783 53.8564 116.711 53.8318C116.638 53.8121 116.56 53.7974 116.488 53.7777L116.376 53.7481C116.337 53.7383 116.299 53.7334 116.26 53.7284C116.182 53.7137 116.105 53.7038 116.027 53.689C115.95 53.6792 115.867 53.6693 115.79 53.6644L115.668 53.6496H115.547C115.465 53.6398 115.387 53.6349 115.305 53.6349C115.222 53.6349 115.14 53.6349 115.058 53.6349C115.019 53.6349 114.975 53.6349 114.932 53.6349L114.81 53.6447C114.728 53.6496 114.646 53.6595 114.563 53.6693C114.481 53.6841 114.398 53.694 114.316 53.7087C114.277 53.7137 114.234 53.7186 114.195 53.7284L114.074 53.753C113.991 53.7727 113.914 53.7875 113.831 53.8072C113.754 53.8318 113.671 53.8564 113.594 53.8761L113.473 53.9106L113.356 53.9549C113.279 53.9845 113.201 54.014 113.124 54.0436C112.823 54.1716 112.527 54.3144 112.256 54.4916C112.115 54.5753 111.989 54.6738 111.858 54.7674C111.795 54.8166 111.737 54.8658 111.674 54.92C111.611 54.9692 111.548 55.0234 111.495 55.0776C111.437 55.1317 111.378 55.1859 111.32 55.24C111.267 55.2991 111.214 55.3533 111.155 55.4124L111.073 55.4961L110.996 55.5847C110.947 55.6438 110.894 55.7029 110.845 55.7669C110.797 55.8309 110.753 55.89 110.705 55.954L110.637 56.0476L110.574 56.146C110.53 56.21 110.487 56.274 110.443 56.343C110.404 56.4119 110.365 56.4759 110.327 56.5449C110.288 56.6138 110.249 56.6827 110.215 56.7517C110.181 56.8206 110.142 56.8895 110.108 56.9634C110.045 57.1062 109.978 57.249 109.924 57.3967C109.808 57.6872 109.721 57.9925 109.653 58.3027C109.517 58.9231 109.473 59.573 109.541 60.2427C109.575 60.5775 109.648 60.9172 109.745 61.252C109.847 61.5918 109.987 61.9315 110.176 62.2614L110.244 62.3845L110.322 62.5076C110.375 62.5913 110.424 62.6701 110.487 62.7538L110.579 62.872C110.608 62.9114 110.637 62.9508 110.671 62.9902C110.734 63.064 110.802 63.1379 110.865 63.2167C111.136 63.5121 111.427 63.8026 111.771 64.0586C112.11 64.3196 112.508 64.5756 112.968 64.8071C113.429 65.0335 113.957 65.2305 114.534 65.3634C115.683 65.6343 117.021 65.6687 118.32 65.3782C118.645 65.3093 118.965 65.2157 119.285 65.1123C119.6 64.9991 119.915 64.8809 120.215 64.7332C120.521 64.5904 120.811 64.4279 121.093 64.2507C121.228 64.1571 121.374 64.0685 121.505 63.97C121.573 63.9208 121.64 63.8715 121.703 63.8223C121.766 63.7681 121.829 63.7189 121.897 63.6647C121.965 63.6155 122.023 63.5564 122.086 63.5022C122.149 63.4481 122.212 63.389 122.271 63.3348C122.382 63.2216 122.494 63.1083 122.61 62.9951C122.668 62.936 122.726 62.8818 122.78 62.8227C122.833 62.7637 122.886 62.7046 122.939 62.6406C122.993 62.5815 123.046 62.5224 123.104 62.4584C123.158 62.3993 123.216 62.3402 123.264 62.2713C123.366 62.1433 123.468 62.0152 123.57 61.8872C123.671 61.7592 123.759 61.6213 123.856 61.4884C123.953 61.3554 124.035 61.2176 124.122 61.0748C124.166 61.0059 124.21 60.932 124.248 60.8631C124.292 60.7941 124.326 60.7203 124.365 60.6464C124.403 60.5726 124.442 60.4987 124.476 60.4248C124.515 60.351 124.554 60.2771 124.583 60.2033C124.646 60.0506 124.714 59.9029 124.777 59.7503C124.83 59.5976 124.883 59.4401 124.941 59.2825C124.971 59.2037 124.99 59.1249 125.014 59.0462C125.038 58.9674 125.058 58.8886 125.082 58.8098C125.247 58.1746 125.358 57.5198 125.417 56.86C125.436 56.6926 125.441 56.5301 125.455 56.3627L125.47 56.1116L125.48 55.8604C125.484 55.693 125.489 55.5256 125.494 55.3582C125.494 55.1908 125.494 55.0234 125.494 54.856C125.494 54.6886 125.494 54.5212 125.494 54.3538C125.494 54.1863 125.489 54.0189 125.484 53.8515C125.475 53.6792 125.465 53.5118 125.46 53.3394L125.446 53.0834C125.441 52.9997 125.431 52.9111 125.421 52.8274C125.402 52.655 125.387 52.4876 125.368 52.3153C125.349 52.143 125.32 51.9755 125.295 51.8032C125.252 51.4585 125.174 51.1188 125.111 50.779C125.077 50.6067 125.034 50.4393 124.995 50.267C124.951 50.0996 124.917 49.9272 124.869 49.7598C124.777 49.4201 124.689 49.0853 124.583 48.7504C124.384 48.0808 124.151 47.4161 123.919 46.7563C123.676 46.1014 123.429 45.4465 123.172 44.8064C122.915 44.1614 122.658 43.5262 122.401 42.896C122.145 42.2657 121.902 41.6453 121.655 41.0299C121.16 39.7989 120.666 38.6123 120.264 37.465C120.06 36.8938 119.886 36.3276 119.735 35.7761C119.585 35.2247 119.474 34.688 119.391 34.1611C119.246 33.1419 119.236 32.1817 119.391 31.325L119.382 31.3299ZM119.687 30.2368C119.745 30.1728 119.794 30.1186 119.832 30.0792C119.837 30.0694 119.847 30.0645 119.852 30.0596C119.813 30.1186 119.769 30.1826 119.726 30.2467C119.692 30.2959 119.658 30.3451 119.624 30.3993C119.643 30.3451 119.663 30.291 119.687 30.2368ZM118.994 34.1808C119.066 34.7175 119.163 35.269 119.299 35.8303C119.44 36.3916 119.6 36.9628 119.789 37.5487C120.167 38.7107 120.632 39.9121 121.093 41.1431C121.32 41.7586 121.553 42.3888 121.791 43.0191C122.028 43.6493 122.275 44.2894 122.513 44.9345C122.755 45.5795 122.983 46.2294 123.211 46.8794C123.429 47.5342 123.642 48.1891 123.822 48.8538C123.919 49.1837 123.996 49.5136 124.079 49.8484C124.122 50.0159 124.151 50.1783 124.19 50.3458C124.224 50.5132 124.263 50.6756 124.292 50.8431C124.35 51.1779 124.413 51.5078 124.452 51.8377C124.471 52.0051 124.5 52.1676 124.515 52.335C124.529 52.5024 124.544 52.6649 124.559 52.8323C124.563 52.916 124.573 52.9997 124.578 53.0785L124.588 53.3247C124.592 53.4872 124.597 53.6546 124.602 53.8171C124.602 53.9845 124.602 54.1469 124.602 54.3144C124.602 54.4818 124.602 54.6443 124.597 54.8067C124.597 54.8461 124.597 54.8855 124.597 54.92C124.597 54.92 124.597 54.9101 124.597 54.9052C124.544 54.728 124.534 54.5064 124.529 54.2454C124.529 53.9795 124.476 53.6841 124.442 53.3493C124.365 52.6846 124.166 51.8968 123.88 51.0351C123.555 50.1734 123.133 49.2576 122.658 48.3024C122.014 47.0074 121.379 45.806 120.87 44.772C120.627 44.255 120.385 43.7823 120.206 43.3588C120.109 43.1471 120.021 42.9502 119.939 42.768C119.866 42.5858 119.798 42.4184 119.74 42.2657C119.701 42.1131 119.653 41.9408 119.604 41.7537C119.556 41.5666 119.512 41.3598 119.459 41.1431C119.357 40.7049 119.231 40.2125 119.11 39.6709C118.868 38.5926 118.596 37.3271 118.519 35.9829C118.499 35.4905 118.485 35.008 118.524 34.5501C118.533 34.3187 118.567 34.0971 118.591 33.8755C118.606 33.7672 118.625 33.6589 118.645 33.5505C118.664 33.4422 118.674 33.3339 118.703 33.2354C118.766 32.9301 118.853 32.6347 118.95 32.359C118.916 32.9351 118.931 33.5407 119.003 34.166L118.994 34.1808Z" fill="#DCC9A8"/>
<path d="M125.426 23.9348C125.426 23.9348 123.017 23.1026 121.893 23.984C121.893 23.984 124.971 9.90676 125.121 0L125.431 23.9348H125.426Z" fill="#DCC9A8"/>
<path d="M108.28 67.4668C108.28 67.4668 108.348 67.452 108.484 67.4225C108.552 67.4077 108.634 67.388 108.736 67.3683C108.833 67.3437 108.949 67.3191 109.085 67.3092C109.216 67.2945 109.366 67.2797 109.531 67.26C109.696 67.2551 109.875 67.26 110.069 67.2502C110.166 67.2452 110.268 67.2551 110.37 67.2649C110.471 67.2748 110.583 67.2846 110.69 67.2945C110.912 67.3142 111.14 67.3733 111.388 67.4176C111.509 67.452 111.63 67.4865 111.756 67.5259C111.819 67.5456 111.882 67.5653 111.945 67.5801C112.008 67.5998 112.071 67.6293 112.134 67.6539C112.26 67.7032 112.391 67.7573 112.527 67.8115C112.653 67.8804 112.784 67.9444 112.919 68.0134C113.443 68.3039 113.976 68.6928 114.456 69.1951C114.931 69.7022 115.353 70.3276 115.648 71.0464C115.736 71.2188 115.784 71.4157 115.852 71.6028C115.925 71.7899 115.959 71.9967 116.002 72.1986C116.026 72.302 116.046 72.4005 116.07 72.5039C116.094 72.6073 116.099 72.7156 116.114 72.819C116.128 72.9224 116.138 73.0307 116.153 73.1391C116.167 73.2474 116.182 73.3508 116.177 73.464C116.288 75.1972 115.75 77.1323 114.504 78.6833C114.349 78.8753 114.175 79.0526 114.01 79.2446C113.831 79.417 113.637 79.5844 113.453 79.7567C113.249 79.9044 113.045 80.0669 112.837 80.2097C112.725 80.2737 112.619 80.3426 112.507 80.4066C112.396 80.4707 112.294 80.5494 112.173 80.5987C111.707 80.8301 111.228 81.0271 110.704 81.1649C110.437 81.224 110.181 81.3028 109.909 81.352C109.638 81.3914 109.366 81.4308 109.095 81.4653C107.994 81.5588 106.855 81.4554 105.75 81.1354C104.645 80.8153 103.583 80.2737 102.643 79.5351C101.702 78.7966 100.893 77.861 100.292 76.7827C100.146 76.5119 100.02 76.2263 99.8799 75.9506C99.7635 75.6601 99.6617 75.3646 99.5502 75.0741C99.3563 74.4636 99.2109 73.8284 99.1091 73.1883C98.8522 71.4403 98.9734 69.6628 99.463 68.0281C99.9429 66.3934 100.752 64.8916 101.804 63.6508C102.851 62.41 104.121 61.4203 105.483 60.731C106.841 60.0417 108.319 59.6379 109.744 59.4213C112.609 59.0077 115.328 59.4754 117.524 60.3666C119.74 61.2529 121.436 62.5381 122.658 63.7345C123.763 65.0394 124.926 66.8415 125.658 69.136C126.385 71.4354 126.783 74.1977 126.477 77.1471C126.337 78.6193 125.993 80.1309 125.479 81.6327C125.421 81.8198 125.343 82.0069 125.27 82.194C125.198 82.3811 125.13 82.5682 125.052 82.7553C124.888 83.1197 124.737 83.4988 124.543 83.8632C124.189 84.6018 123.763 85.3108 123.312 86.0149C121.475 88.8166 118.78 91.244 115.513 92.7704C115.217 92.9181 114.912 93.0412 114.606 93.1692C114.306 93.3022 113.991 93.4056 113.685 93.5188C113.38 93.637 113.06 93.7256 112.745 93.8241L112.275 93.9718L111.8 94.0949C110.534 94.4297 109.274 94.6661 108.028 94.7695C106.783 94.8729 105.551 94.8483 104.364 94.7005C103.171 94.5528 102.018 94.282 100.912 93.9226C98.7019 93.2086 96.7048 92.1352 94.8967 91.0274C93.0887 89.9096 91.4696 88.7329 90.0057 87.6398C88.5418 86.5417 87.2379 85.5127 86.089 84.6116C84.9451 83.7056 83.9562 82.9227 83.1515 82.2826C81.5373 81.0074 80.6357 80.3082 80.6357 80.3082C80.6357 80.3082 81.4598 81.096 82.9479 82.5239C83.6944 83.2379 84.6057 84.1044 85.677 85.104C86.7483 86.1035 87.9747 87.236 89.3756 88.4473C90.7765 89.6536 92.3422 90.9535 94.1454 92.2091C95.9486 93.4548 97.9894 94.6956 100.36 95.5671C101.542 96.0054 102.798 96.35 104.116 96.5519C105.43 96.7587 106.797 96.8227 108.174 96.739C109.55 96.6553 110.937 96.419 112.304 96.0694C112.473 96.0251 112.648 95.9857 112.818 95.9413L113.326 95.7887C113.666 95.6853 114.005 95.5967 114.349 95.4637C114.689 95.3406 115.038 95.2274 115.372 95.0846C115.711 94.9467 116.051 94.8089 116.38 94.6464C118.193 93.8044 119.846 92.6818 121.281 91.3917C122.003 90.7467 122.653 90.0426 123.268 89.3237C123.865 88.5901 124.417 87.8367 124.907 87.0538C125.387 86.266 125.828 85.4683 126.187 84.651C126.38 84.2472 126.531 83.8287 126.7 83.42C126.778 83.2132 126.846 83.0064 126.919 82.7996C126.991 82.5928 127.064 82.391 127.122 82.1792C127.621 80.5199 127.912 78.8655 127.985 77.2652C128.063 75.6699 127.956 74.1337 127.709 72.7156C127.461 71.2926 127.074 69.9829 126.608 68.7913C126.138 67.5998 125.552 66.5559 124.936 65.6598C124.316 64.7636 123.671 64.0103 123.036 63.3899C122.459 62.7153 121.761 62.0112 120.917 61.3317C120.074 60.6522 119.085 59.9974 117.946 59.4459C116.807 58.8944 115.522 58.4267 114.117 58.1558C112.711 57.8703 111.184 57.7767 109.599 57.9195C108.019 58.0771 106.385 58.4365 104.781 59.1652C103.186 59.889 101.673 60.9821 100.418 62.3903C99.1576 63.7936 98.1687 65.5268 97.5773 67.4373C96.9763 69.3477 96.8163 71.4403 97.1217 73.5034C97.238 74.2617 97.4125 75.0003 97.6452 75.7192C97.7809 76.0786 97.907 76.438 98.0572 76.7926C98.2269 77.1323 98.3869 77.477 98.5711 77.8069C99.3224 79.1215 100.336 80.2491 101.494 81.1206C102.653 81.9921 103.961 82.6076 105.299 82.9523C106.637 83.2969 108.009 83.3708 109.313 83.2034C109.638 83.1443 109.958 83.0852 110.273 83.0261C110.588 82.9572 110.893 82.8538 111.198 82.7652L111.426 82.6962C111.504 82.6667 111.577 82.6371 111.649 82.6076C111.8 82.5485 111.945 82.4845 112.095 82.4254C112.246 82.3713 112.386 82.2925 112.527 82.2186C112.667 82.1448 112.808 82.0709 112.944 81.9921C113.084 81.9232 113.21 81.8247 113.341 81.741C113.472 81.6524 113.598 81.5637 113.729 81.48C113.976 81.2929 114.209 81.0861 114.441 80.8941C114.655 80.6775 114.873 80.4657 115.076 80.2442C115.265 80.0078 115.459 79.7862 115.634 79.545C117.011 77.6148 117.476 75.3203 117.214 73.3705C117.209 73.2474 117.185 73.1243 117.161 73.0061C117.137 72.888 117.117 72.7698 117.093 72.6516C117.069 72.5334 117.054 72.4153 117.02 72.302C116.986 72.1888 116.952 72.0755 116.918 71.9623C116.851 71.7407 116.792 71.5191 116.695 71.3074C116.603 71.0957 116.531 70.884 116.419 70.6919C116.017 69.8992 115.493 69.2394 114.921 68.7273C114.344 68.2152 113.734 67.8459 113.142 67.585C112.992 67.5259 112.847 67.4619 112.706 67.4077C112.561 67.3634 112.415 67.3191 112.275 67.2797C112.202 67.26 112.134 67.2354 112.066 67.2206C111.998 67.2058 111.926 67.1911 111.858 67.1812C111.722 67.1566 111.591 67.132 111.46 67.1074C111.198 67.0877 110.956 67.0483 110.723 67.0483C110.607 67.0483 110.496 67.0483 110.389 67.0483C110.282 67.0483 110.176 67.0483 110.079 67.0631C109.88 67.0877 109.696 67.1024 109.531 67.1271C109.366 67.1615 109.216 67.196 109.085 67.2255C108.949 67.2502 108.838 67.2896 108.741 67.3191C108.644 67.3536 108.562 67.3782 108.494 67.3979C108.363 67.4422 108.295 67.4619 108.295 67.4619L108.28 67.4668Z" fill="#DCC9A8"/>
<path d="M110.554 67.1219C112.299 69.3672 108.775 71.4155 107.655 69.382C106.88 67.9738 109.066 66.2997 110.355 67.2253L110.554 67.1219Z" fill="#DCC9A8"/>
<path d="M125.382 27.3074C125.435 27.5388 125.319 27.785 125.111 27.9868C124.902 28.1887 124.611 28.3512 124.291 28.4448C123.971 28.5383 123.235 28.6072 122.682 28.9076C122.406 29.0504 122.159 29.2523 121.994 29.4443C121.829 29.6314 121.722 29.784 121.664 29.7693C121.64 29.7693 121.62 29.72 121.606 29.6363C121.596 29.5526 121.572 29.4295 121.587 29.2818C121.601 28.9815 121.727 28.5679 121.984 28.1789C122.236 27.7899 122.605 27.4551 122.954 27.2286C123.298 27.0021 123.618 26.8544 123.816 26.7953C124.219 26.6771 124.592 26.6968 124.868 26.7953C125.145 26.8987 125.324 27.0759 125.377 27.3074H125.382Z" fill="#DCC9A8"/>
<path d="M124.742 31.5224C124.641 31.6405 124.466 31.675 124.277 31.6405C124.088 31.6061 123.884 31.5125 123.71 31.3746C123.53 31.2368 123.206 30.8626 122.828 30.6755C122.643 30.5819 122.435 30.5277 122.27 30.513C122.105 30.4982 121.984 30.4982 121.97 30.4637C121.96 30.4391 122.033 30.3406 122.197 30.2323C122.362 30.124 122.634 30.0255 122.939 30.0157C123.244 30.0009 123.569 30.0698 123.826 30.1683C124.083 30.2668 124.287 30.385 124.398 30.4687C124.621 30.641 124.757 30.8527 124.815 31.0447C124.868 31.2368 124.849 31.4042 124.747 31.5273L124.742 31.5224Z" fill="#DCC9A8"/>
<path d="M120.836 96.8617C121.029 97.1078 120.729 97.7479 119.997 98.5358C119.265 99.3137 118.087 100.249 116.57 100.924C116.192 101.096 115.678 101.283 115.072 101.465C114.461 101.638 113.744 101.795 112.968 101.879C112.193 101.968 111.359 101.982 110.525 101.914C109.691 101.845 108.858 101.682 108.082 101.456C106.521 101.003 105.198 100.279 104.296 99.683C103.395 99.0774 102.891 98.6096 102.924 98.5505C102.963 98.4865 103.579 98.777 104.558 99.1463C105.537 99.5107 106.894 99.9391 108.354 100.111C109.081 100.195 109.832 100.22 110.559 100.175C111.286 100.131 111.994 100.023 112.639 99.8652C113.288 99.7126 113.875 99.5156 114.384 99.3236C114.893 99.1217 115.319 98.9395 115.649 98.7869C116.962 98.2059 118.14 97.5855 119.061 97.1866C119.978 96.7829 120.637 96.6056 120.836 96.8617Z" fill="#DCC9A8"/>
</g>
<defs>
<clipPath id="clip0_3478_3190">
<rect width="128" height="128" fill="white"/>
</clipPath>
</defs>
</svg>
