<svg width="155" height="45" viewBox="0 0 155 45" fill="none" xmlns="http://www.w3.org/2000/svg">
<g clip-path="url(#clip0_3478_3062)">
<path d="M68.3172 29.2444C68.3172 25.6852 65.9505 24.9508 63.9238 24.9508C62.3992 24.9508 61.1649 26.1914 61.1649 27.7179C61.1649 29.2444 62.4018 30.485 63.9238 30.485C64.6717 30.485 65.349 30.186 65.8459 29.7008C67.0619 31.9748 64.5305 35.269 60.5242 35.269C56.5178 35.269 54.0649 33.0842 53.4451 30.7683C53.4451 30.7683 52.6553 31.445 52.6004 32.2948C51.2484 31.222 49.2766 28.0589 49.3603 25.8819C49.3603 25.8819 47.9246 26.9258 47.9246 28.5651C46.1228 25.7403 45.7279 20.6572 46.3477 18.5668C46.3477 18.5668 45.4455 18.5668 44.8257 19.3563C45.0506 14.0188 48.7693 11.3907 50.5135 11.674C45.5004 15.1204 47.4146 21.9005 49.274 23.9882C45.0218 12.5212 54.1747 11.3042 55.0194 13.4811C58.0058 9.35805 54.7082 6.13721 51.4419 6.13721C48.1756 6.13721 45.5553 8.962 43.8659 11.674C43.5835 10.5436 41.7817 8.93315 40.4009 10.0636C41.9229 10.8268 41.7242 13.6516 41.7242 17.9452C41.7242 23.5555 44.1091 27.9356 48.649 32.1269C49.4492 32.8665 48.615 34.1439 47.616 33.7085C39.4307 30.1493 35.8533 23.1096 36.0912 20.7123C36.4861 22.3516 39.0777 24.9482 40.6546 25.2315C36.4103 22.2362 36.3371 18.1314 38.1206 17.1531C36.2246 15.3827 33.6696 16.4764 33.0525 18.3963C32.5085 17.7197 32.3202 16.4187 33.3898 15.6293C31.418 14.2732 30.78 12.4478 31.7005 10.318C26.0126 15.3093 28.5283 22.3516 31.3631 25.2315C23.7035 22.3516 16.7734 25.061 16.7734 30.2017C16.7734 35.3425 22.0115 36.5857 24.7155 36.5857C24.3965 36.1897 24.1899 35.4186 24.1899 34.532C24.1899 32.397 26.5356 30.8601 28.884 31.2745C25.9734 29.6168 22.9503 31.9328 23.1961 34.4376C22.7254 33.9471 22.4822 33.3072 22.4822 32.5177C22.4822 28.9769 29.1298 26.3776 36.0938 29.129C32.5451 31.3899 34.9118 35.3058 36.5646 35.3058C36.3946 34.6291 36.8261 32.7459 39.8125 32.7459C43.5495 32.7459 47.8671 36.7011 55.7516 36.7011C65.1006 36.7011 68.312 32.8036 68.312 29.2444H68.3172ZM24.182 19.8468C23.7845 20.3477 23.8682 21.0795 24.3703 21.4782C24.8698 21.8768 25.5994 21.7929 25.9969 21.2893C26.3944 20.7884 26.3107 20.0566 25.8086 19.6579C25.3091 19.2593 24.5795 19.3432 24.182 19.8468ZM20.2437 21.9529C20.7432 22.3516 21.4728 22.2677 21.8703 21.7641C22.2678 21.2631 22.1841 20.5313 21.682 20.1327C21.1825 19.734 20.4529 19.8179 20.0554 20.3215C19.6579 20.8225 19.7416 21.5542 20.2437 21.9529ZM23.8944 17.3393C24.3939 17.738 25.1235 17.6541 25.521 17.1505C25.9185 16.6495 25.8348 15.9178 25.3327 15.5191C24.8332 15.1204 24.1036 15.2044 23.7061 15.7079C23.3086 16.2089 23.3923 16.9407 23.8944 17.3393ZM54.0675 17.8324C53.9184 22.4276 57.033 26.0813 59.2872 26.9101C58.385 25.5541 60.1136 21.5621 63.8689 21.5621C67.6242 21.5621 70.8539 25.1764 70.8539 28.3421C70.8539 31.1932 69.7163 34.9596 66.4239 37.0395L69.8601 39.5102C71.7221 36.7667 72.5249 33.7085 72.5249 31.0961C72.5249 21.4519 63.3067 13.468 54.0675 17.8351V17.8324ZM123.632 25.2341C126.467 22.3542 128.982 15.3093 123.295 10.3206C124.215 12.4478 123.577 14.2759 121.605 15.6319C122.675 16.424 122.487 17.7223 121.943 18.399C121.323 16.4791 118.77 15.3853 116.875 17.1557C118.658 18.1341 118.582 22.2388 114.34 25.2341C115.917 24.9508 118.509 22.3542 118.904 20.7149C119.142 23.1122 115.567 30.1519 107.379 33.7111C106.38 34.1439 105.546 32.8665 106.346 32.1295C110.886 27.9382 113.271 23.5581 113.271 17.9478C113.271 13.6543 113.075 10.8295 114.594 10.0662C113.213 8.93577 111.412 10.5462 111.129 11.6766C109.44 8.96462 106.819 6.13983 103.553 6.13983C100.287 6.13983 96.9918 9.36067 99.9757 13.4838C100.82 11.3094 109.973 12.5238 105.721 23.9909C107.58 21.9005 109.495 15.1204 104.482 11.6766C106.228 11.3934 109.944 14.0215 110.169 19.3589C109.55 18.5694 108.647 18.5695 108.647 18.5695C109.267 20.6599 108.872 25.7429 107.07 28.5677C107.07 26.9284 105.635 25.8845 105.635 25.8845C105.718 28.0589 103.747 31.222 102.397 32.2974C102.34 31.4502 101.553 30.7709 101.553 30.7709C100.933 33.0868 98.5871 35.2717 94.4735 35.2717C90.3599 35.2717 87.9357 31.9774 89.1518 29.7034C89.6486 30.1886 90.3259 30.4876 91.0739 30.4876C92.5985 30.4876 93.8328 29.247 93.8328 27.7205C93.8328 26.194 92.5958 24.9534 91.0739 24.9534C89.0471 24.9534 86.6805 25.6878 86.6805 29.247C86.6805 32.8062 89.8918 36.7037 99.2408 36.7037C107.125 36.7037 111.446 32.7485 115.18 32.7485C118.166 32.7485 118.598 34.6317 118.428 35.3084C120.081 35.3084 122.445 31.3925 118.899 29.1316C125.865 26.3829 132.51 28.9795 132.51 32.5203C132.51 33.3124 132.267 33.9524 131.796 34.4402C132.04 31.9354 129.016 29.6195 126.108 31.2771C128.454 30.8627 130.803 32.3997 130.803 34.5347C130.803 35.4186 130.596 36.1923 130.277 36.5883C132.981 36.5883 138.219 35.3451 138.219 30.2044C138.219 25.0636 131.292 22.3516 123.629 25.2341H123.632ZM130.63 21.4782C131.129 21.0795 131.216 20.3504 130.818 19.8468C130.421 19.3458 129.694 19.2619 129.192 19.6579C128.692 20.0566 128.608 20.7857 129.003 21.2893C129.401 21.7903 130.128 21.8768 130.63 21.4782ZM134.757 21.9529C135.256 21.5542 135.34 20.8251 134.945 20.3215C134.547 19.8179 133.82 19.734 133.318 20.1327C132.819 20.5313 132.735 21.2605 133.13 21.7641C133.528 22.265 134.254 22.349 134.757 21.9529ZM131.106 17.3393C131.605 16.9407 131.689 16.2115 131.294 15.7079C130.897 15.207 130.17 15.123 129.668 15.5191C129.168 15.9178 129.084 16.6469 129.479 17.1505C129.877 17.6515 130.604 17.738 131.106 17.3393ZM84.1464 28.3421C84.1464 25.179 87.3761 21.5621 91.1314 21.5621C94.8867 21.5621 96.6126 25.5541 95.7131 26.9101C97.9673 26.0813 101.082 22.4276 100.933 17.8324C91.6963 13.4628 82.4754 21.4493 82.4754 31.0935C82.4754 33.7085 83.2782 36.7641 85.1402 39.5076L88.5764 37.0368C85.284 34.9569 84.1464 31.1905 84.1464 28.3395V28.3421ZM81.4084 25.1265C80.1296 25.3049 78.8273 25.4046 77.5014 25.4046C76.1756 25.4046 74.8707 25.3049 73.5945 25.1265C75.1871 28.5389 75.2865 35.9274 72.1196 41.1311L77.5014 44.9998L82.8833 41.1311C79.7164 35.9274 79.8158 28.5389 81.4084 25.1265Z" fill="#DCC9A8"/>
<path d="M83.4741 12.5161C83.6127 12.5502 83.7251 12.4637 83.7251 12.3247C83.7251 12.1857 83.6127 12.0414 83.4741 12.0047C79.5488 11.0369 75.4483 11.0369 71.523 12.0047C71.3844 12.0388 71.272 12.183 71.272 12.3247C71.272 12.4663 71.3844 12.5529 71.523 12.5161C71.5361 12.5135 71.5518 12.5083 71.5649 12.5056V14.7246C71.5518 14.7272 71.5361 14.7324 71.523 14.7351C71.3844 14.7691 71.272 14.9134 71.272 15.055C71.272 15.1967 71.3844 15.2806 71.523 15.2465C75.4483 14.2787 79.5488 14.2787 83.4741 15.2465C83.6127 15.2806 83.7251 15.194 83.7251 15.055C83.7251 14.916 83.6127 14.7691 83.4741 14.7351C83.461 14.7324 83.4453 14.7272 83.4322 14.7246V12.5056C83.4453 12.5083 83.461 12.5135 83.4741 12.5161Z" fill="#DCC9A8"/>
<path d="M78.2544 10.132C78.5185 7.10527 79.4731 3.99196 80.0955 3.46477C79.6221 2.79333 78.495 2.3999 77.4987 2.3999C76.5023 2.3999 75.3778 2.79071 74.9019 3.46477C75.5216 3.99196 76.4788 7.10527 76.7429 10.132C77.2476 10.1163 77.7497 10.1163 78.2544 10.132Z" fill="#DCC9A8"/>
<path d="M72.6998 10.5648C72.2736 8.87046 71.2066 7.74789 71.795 5.86731C72.2082 4.5454 73.7563 4.00772 74.9331 4.38803C74.8024 4.10215 74.5487 3.79003 74.5304 3.76642C73.385 3.4543 72.271 3.36251 71.17 4.46672C69.1485 6.49417 71.1674 8.8862 71.7924 10.7537C72.0931 10.6855 72.3965 10.6225 72.6998 10.5674V10.5648Z" fill="#DCC9A8"/>
<path d="M83.2021 5.86457C83.7905 7.74776 82.7235 8.87034 82.2973 10.5621C82.6006 10.6198 82.904 10.6827 83.2047 10.7483C83.8297 8.88083 85.8486 6.4888 83.8271 4.46135C82.7261 3.35713 81.6121 3.44893 80.4667 3.76105C80.4484 3.78466 80.1947 4.09677 80.064 4.38266C81.2408 4.00235 82.7889 4.54003 83.2021 5.86194V5.86457Z" fill="#DCC9A8"/>
<path d="M76.9418 1.94108H78.0611C77.8597 1.71814 77.742 1.44799 77.7028 1.16997C77.98 1.20931 78.2494 1.32734 78.4717 1.52929V0.409344C78.2494 0.611302 77.9826 0.72933 77.7028 0.768672C77.742 0.490652 77.8597 0.2205 78.0611 -0.00244141H76.9418C77.1432 0.2205 77.2609 0.488029 77.3001 0.768672C77.0229 0.72933 76.7535 0.611302 76.5312 0.409344V1.53192C76.7535 1.32996 77.0229 1.21193 77.3001 1.17259C77.2609 1.45061 77.1432 1.72076 76.9418 1.9437V1.94108Z" fill="#DCC9A8"/>
<path d="M9.39591 10.8769C7.46596 10.1792 5.9335 8.64226 5.24312 6.70923C5.18035 6.53612 5.02083 6.42334 4.83516 6.42334C4.65995 6.42334 4.50043 6.53612 4.43766 6.70923C3.74727 8.64226 2.21482 10.1819 0.287488 10.8769C0.112276 10.9372 0.00244141 11.0946 0.00244141 11.2782C0.00244141 11.4618 0.112276 11.6166 0.287488 11.6795C2.21482 12.3719 3.74989 13.9115 4.43766 15.8446C4.50304 16.0203 4.66256 16.1305 4.83516 16.1305C5.02083 16.1305 5.18035 16.0203 5.24312 15.8446C5.93612 13.9115 7.46596 12.3693 9.39591 11.6795C9.5685 11.6139 9.67834 11.4618 9.67834 11.2782C9.67834 11.0946 9.5685 10.9372 9.39591 10.8769Z" fill="#DCC9A8"/>
<path d="M14.6 38.498C13.5226 38.1098 12.6701 37.2521 12.2831 36.1742C12.2491 36.0771 12.1602 36.0142 12.0555 36.0142C11.9588 36.0142 11.8699 36.0771 11.8333 36.1742C11.4488 37.2521 10.5937 38.1098 9.5189 38.498C9.42214 38.5321 9.35938 38.6186 9.35938 38.7209C9.35938 38.8232 9.41952 38.9098 9.5189 38.9439C10.5937 39.3294 11.4488 40.1897 11.8333 41.2677C11.8699 41.3647 11.9588 41.4277 12.0555 41.4277C12.1602 41.4277 12.2491 41.3674 12.2831 41.2677C12.6701 40.1897 13.5226 39.3294 14.6 38.9439C14.6968 38.9071 14.757 38.8232 14.757 38.7209C14.757 38.6186 14.6968 38.5295 14.6 38.498Z" fill="#DCC9A8"/>
<path d="M145.321 11.2782C145.321 11.4618 145.431 11.6166 145.604 11.6795C147.534 12.3719 149.063 13.9115 149.757 15.8446C149.819 16.0203 149.979 16.1305 150.164 16.1305C150.34 16.1305 150.499 16.0203 150.562 15.8446C151.252 13.9115 152.785 12.3693 154.712 11.6795C154.887 11.6139 154.997 11.4618 154.997 11.2782C154.997 11.0946 154.887 10.9372 154.712 10.8769C152.785 10.1792 151.25 8.64226 150.562 6.70923C150.497 6.53612 150.337 6.42334 150.164 6.42334C149.979 6.42334 149.819 6.53612 149.757 6.70923C149.063 8.64226 147.534 10.1819 145.604 10.8769C145.431 10.9372 145.321 11.0946 145.321 11.2782Z" fill="#DCC9A8"/>
<path d="M140.243 38.7234C140.243 38.8257 140.303 38.9122 140.4 38.9463C141.477 39.3319 142.33 40.1922 142.717 41.2701C142.751 41.3672 142.84 41.4301 142.945 41.4301C143.041 41.4301 143.13 41.3698 143.167 41.2701C143.551 40.1922 144.406 39.3319 145.481 38.9463C145.578 38.9096 145.641 38.8257 145.641 38.7234C145.641 38.6211 145.581 38.5319 145.481 38.5004C144.406 38.1122 143.551 37.2546 143.167 36.1766C143.13 36.0795 143.041 36.0166 142.945 36.0166C142.84 36.0166 142.751 36.0795 142.717 36.1766C142.333 37.2546 141.477 38.1122 140.4 38.5004C140.303 38.5345 140.243 38.6211 140.243 38.7234Z" fill="#DCC9A8"/>
</g>
<defs>
<clipPath id="clip0_3478_3062">
<rect width="155" height="45" fill="white"/>
</clipPath>
</defs>
</svg>
