<svg width="128" height="128" viewBox="0 0 128 128" fill="none" xmlns="http://www.w3.org/2000/svg">
<g clip-path="url(#clip0_3478_3217)">
<path d="M10.4609 125.941C10.4949 126.025 10.4949 126.124 10.4416 126.227C10.3882 126.33 10.2767 126.439 10.1022 126.513C9.92773 126.586 9.68536 126.616 9.42845 126.557C9.17154 126.498 8.90978 126.345 8.71588 126.133C8.61409 126.03 8.51229 125.872 8.42019 125.685C8.33294 125.493 8.26993 125.272 8.24084 125.03C8.2166 124.794 8.2263 124.543 8.26992 124.307C8.31355 124.065 8.39596 123.839 8.49291 123.637C8.5947 123.435 8.71104 123.258 8.83222 123.11C8.89524 123.036 8.95341 122.972 9.01157 122.908C9.07459 122.849 9.12791 122.795 9.18608 122.751C9.24425 122.706 9.29273 122.667 9.3412 122.633C9.38967 122.598 9.4333 122.573 9.46723 122.559C9.53994 122.519 9.58841 122.505 9.60296 122.519C9.6175 122.534 9.60295 122.578 9.57872 122.657C9.54479 122.741 9.50601 122.839 9.46238 122.958C9.43815 123.017 9.41875 123.086 9.38967 123.154C9.36543 123.223 9.34604 123.302 9.32181 123.376C9.28303 123.534 9.2491 123.701 9.23456 123.868C9.22486 124.036 9.22971 124.203 9.25394 124.361C9.27818 124.513 9.32181 124.656 9.37028 124.774C9.41876 124.893 9.48177 124.986 9.53509 125.055C9.54479 125.075 9.56418 125.09 9.57387 125.104C9.58841 125.119 9.59811 125.134 9.6078 125.144C9.61749 125.154 9.63204 125.168 9.63689 125.178C9.64659 125.188 9.65628 125.198 9.66597 125.208C9.73384 125.277 9.78231 125.336 9.84048 125.39C9.8938 125.444 9.95682 125.503 10.0295 125.562C10.1798 125.675 10.3785 125.769 10.4512 125.941H10.4609Z" fill="#DCC9A8"/>
<path d="M7.30944 125.095C7.72632 123.869 8.73942 122.559 8.87514 122.387C8.88484 122.377 8.88484 122.362 8.87514 122.357L8.89453 121.589C8.89453 121.486 8.81213 121.407 8.71034 121.417L7.95415 121.491C7.95415 121.491 7.93475 121.491 7.92505 121.491C7.76509 121.638 6.65019 122.682 5.38018 123.278C5.37048 123.278 4.86636 125.381 4.77426 125.829C4.76456 125.873 4.79849 125.907 4.84212 125.893C5.27838 125.765 7.29974 125.105 7.30459 125.09L7.30944 125.095Z" fill="#DCC9A8"/>
<path d="M4.27537 120.107C4.18812 120.077 4.09602 120.087 3.99423 120.151C3.89728 120.215 3.80033 120.333 3.73732 120.52C3.67915 120.703 3.66461 120.954 3.74702 121.21C3.82458 121.466 3.99423 121.717 4.21721 121.899C4.3287 121.993 4.48867 122.086 4.68256 122.165C4.87646 122.239 5.09943 122.288 5.33695 122.298C5.57447 122.308 5.81684 122.278 6.04952 122.214C6.28219 122.15 6.49548 122.052 6.68938 121.938C6.87842 121.82 7.04323 121.687 7.1838 121.554C7.25167 121.485 7.31469 121.421 7.36801 121.357C7.42133 121.288 7.4698 121.229 7.50858 121.17C7.54736 121.111 7.58129 121.057 7.61038 121.008C7.63946 120.959 7.65885 120.914 7.67824 120.875C7.71217 120.801 7.72187 120.752 7.70732 120.737C7.69278 120.722 7.64916 120.737 7.57645 120.771C7.49889 120.811 7.40194 120.855 7.29045 120.909C7.23228 120.939 7.16442 120.963 7.1014 120.993C7.03354 121.023 6.96082 121.047 6.88811 121.077C6.73785 121.131 6.57304 121.17 6.40823 121.2C6.24342 121.224 6.07861 121.229 5.92349 121.22C5.76837 121.205 5.6278 121.175 5.51146 121.131C5.39027 121.087 5.29333 121.032 5.22547 120.983C5.20608 120.973 5.19153 120.959 5.17699 120.949C5.16245 120.939 5.14791 120.929 5.13336 120.914C5.11882 120.904 5.10913 120.895 5.09458 120.885C5.08489 120.875 5.0752 120.865 5.0655 120.86C4.99279 120.801 4.92978 120.752 4.87161 120.698C4.81344 120.648 4.75042 120.589 4.69225 120.515C4.57107 120.373 4.46442 120.176 4.28992 120.117L4.27537 120.107Z" fill="#DCC9A8"/>
<path d="M5.51611 118.758C5.58397 118.748 5.64698 118.684 5.70031 118.576C5.75363 118.467 5.8021 118.31 5.85057 118.118C5.87481 118.014 5.89905 117.911 5.92329 117.798C5.93298 117.739 5.94753 117.679 5.96207 117.62C5.97661 117.556 5.99115 117.492 6.00569 117.428C6.02993 117.295 6.06871 117.162 6.0978 117.015C6.13657 116.872 6.17051 116.724 6.21898 116.572C6.31108 116.271 6.42257 115.956 6.57768 115.666C6.66009 115.523 6.74249 115.375 6.84429 115.242C6.89276 115.173 6.94609 115.114 6.99941 115.045C7.05758 114.986 7.1109 114.922 7.17391 114.863C7.41628 114.627 7.72167 114.43 8.08037 114.262C8.44393 114.1 8.8608 113.972 9.3213 113.878C9.77696 113.78 10.412 113.691 11.1827 113.642C11.9534 113.593 12.8599 113.583 13.8488 113.588C14.8376 113.588 15.9137 113.607 17.0335 113.538C17.3146 113.519 17.5958 113.499 17.8818 113.465C18.0224 113.445 18.1678 113.43 18.3132 113.406L18.4198 113.386L18.5313 113.361C18.6089 113.346 18.6816 113.332 18.7592 113.317C19.3554 113.174 19.9177 112.943 20.4218 112.647C20.6787 112.504 20.9114 112.337 21.1441 112.17C21.367 111.992 21.5852 111.815 21.7791 111.623C22.1766 111.239 22.5207 110.83 22.797 110.407C23.3593 109.56 23.6841 108.669 23.8053 107.901C23.8392 107.709 23.8538 107.522 23.8683 107.349C23.8731 107.172 23.8828 107.009 23.8683 106.852C23.8683 106.699 23.8441 106.556 23.8344 106.424C23.8198 106.291 23.7907 106.172 23.7713 106.069C23.718 105.857 23.6744 105.7 23.6259 105.591C23.5823 105.488 23.5532 105.434 23.5387 105.439C23.5241 105.439 23.5241 105.503 23.529 105.616C23.5387 105.729 23.5435 105.892 23.5484 106.099C23.5484 106.202 23.5484 106.315 23.5387 106.438C23.529 106.561 23.5241 106.694 23.4999 106.837C23.4854 106.98 23.4563 107.128 23.4272 107.285C23.3884 107.443 23.3496 107.605 23.2963 107.773C23.0879 108.447 22.6952 109.196 22.1135 109.875C21.8227 110.215 21.4834 110.54 21.1101 110.825C20.9259 110.973 20.7224 111.101 20.5188 111.229C20.3103 111.347 20.1019 111.466 19.8789 111.559C19.4378 111.756 18.9724 111.889 18.5071 111.953C18.4489 111.963 18.3908 111.963 18.3326 111.973L18.2453 111.983H18.1532C18.0272 111.997 17.9012 112.002 17.7751 112.002C17.5182 112.007 17.2613 112.002 17.0044 111.997C15.9671 111.963 14.92 111.859 13.9215 111.781C12.9229 111.697 11.968 111.643 11.1148 111.653C10.2617 111.658 9.50066 111.736 8.91412 111.859C8.33244 111.978 7.75075 112.17 7.20784 112.45C6.66978 112.736 6.1705 113.12 5.79241 113.583C5.69546 113.696 5.61306 113.814 5.53065 113.932C5.45309 114.055 5.37553 114.174 5.31737 114.297C5.18649 114.543 5.08954 114.789 5.01198 115.03C4.86171 115.513 4.80839 115.961 4.79385 116.36C4.78415 116.562 4.79385 116.749 4.80354 116.926C4.82294 117.103 4.83747 117.266 4.86656 117.414C4.8811 117.487 4.89564 117.561 4.90534 117.63C4.91988 117.699 4.93927 117.763 4.95381 117.827C4.98774 117.955 5.02168 118.068 5.06046 118.167C5.13317 118.369 5.21557 118.516 5.29313 118.615C5.37069 118.713 5.4434 118.758 5.51126 118.753L5.51611 118.758Z" fill="#DCC9A8"/>
<path d="M12.9961 117.059C12.9476 117.133 13.0155 117.286 13.1997 117.492C13.3936 117.694 13.699 117.955 14.1643 118.177C14.2225 118.201 14.2855 118.231 14.3437 118.256C14.4067 118.28 14.4745 118.3 14.5424 118.325C14.6781 118.374 14.8235 118.403 14.9787 118.438C15.2889 118.492 15.6331 118.512 15.9966 118.462C16.3553 118.413 16.7286 118.3 17.0824 118.118C17.4314 117.94 17.7611 117.699 18.0471 117.419C18.3379 117.138 18.6675 116.734 18.9681 116.227C19.2637 115.715 19.5352 115.104 19.7339 114.43C19.9375 113.745 20.0393 113.026 20.1557 112.322C20.2672 111.618 20.3786 110.919 20.5774 110.284C20.6792 109.964 20.7907 109.659 20.9361 109.378C21.0767 109.097 21.2366 108.826 21.416 108.595C21.7698 108.127 22.1916 107.748 22.5406 107.413C22.7151 107.246 22.8702 107.088 23.0059 106.946C23.1368 106.798 23.2435 106.665 23.3307 106.557C23.4907 106.325 23.5682 106.192 23.5488 106.177C23.5343 106.168 23.418 106.271 23.2241 106.458C23.1174 106.547 22.9962 106.65 22.846 106.773C22.6957 106.886 22.526 107.019 22.3273 107.157C21.9443 107.438 21.4596 107.763 21.004 108.24C20.5435 108.713 20.1508 109.334 19.8648 110.018C19.574 110.702 19.3898 111.431 19.2153 112.13C19.0408 112.825 18.8808 113.499 18.6675 114.07C18.4542 114.646 18.1876 115.154 17.921 115.562C17.6544 115.966 17.383 116.271 17.1697 116.478C16.7383 116.897 16.2681 117.167 15.7979 117.281C15.5652 117.34 15.3325 117.359 15.1047 117.364C14.9932 117.359 14.8817 117.364 14.7751 117.345C14.7217 117.34 14.6684 117.335 14.6151 117.325C14.5618 117.315 14.5133 117.305 14.46 117.3C14.0577 117.226 13.7183 117.118 13.4663 117.059C13.2191 116.995 13.0542 116.985 13.0058 117.059H12.9961Z" fill="#DCC9A8"/>
<path d="M23.5921 111.594C23.6406 111.633 23.7181 111.624 23.8199 111.569C23.8732 111.545 23.9266 111.505 23.9896 111.461C24.0526 111.412 24.1156 111.358 24.1835 111.289C24.4549 111.023 24.77 110.58 24.9881 110.023C25.0948 109.748 25.2305 109.28 25.2838 108.728C25.342 108.177 25.3129 107.556 25.2111 106.99C25.1869 106.847 25.1529 106.714 25.1287 106.577C25.1142 106.508 25.0899 106.439 25.0754 106.375C25.056 106.311 25.0318 106.247 25.0075 106.188C24.9154 105.946 24.8185 105.744 24.7409 105.572C24.6634 105.4 24.6052 105.262 24.5664 105.159C24.5325 105.06 24.5034 105.001 24.4889 105.001C24.4792 105.001 24.4695 105.065 24.4695 105.178C24.4695 105.291 24.4937 105.449 24.5276 105.641C24.5664 105.828 24.6149 106.05 24.6537 106.286C24.6634 106.345 24.6731 106.404 24.6779 106.463C24.6779 106.522 24.6876 106.582 24.6924 106.646C24.6924 106.774 24.7021 106.907 24.7021 107.039C24.7021 107.576 24.644 108.133 24.5325 108.605C24.4258 109.078 24.2707 109.467 24.1835 109.703C23.9993 110.181 23.8054 110.609 23.6745 110.939C23.6406 111.023 23.6163 111.102 23.5969 111.171C23.5727 111.239 23.5582 111.303 23.5485 111.358C23.5291 111.466 23.5436 111.55 23.5872 111.584L23.5921 111.594Z" fill="#DCC9A8"/>
<path d="M11.7743 124.662C11.7743 124.731 11.8228 124.805 11.9246 124.874C12.0264 124.943 12.1815 125.016 12.3851 125.075C12.4869 125.11 12.5984 125.135 12.7244 125.159C12.7874 125.169 12.8553 125.184 12.9232 125.194C12.9959 125.203 13.0637 125.208 13.1413 125.218C13.2916 125.238 13.4515 125.238 13.626 125.243C13.8005 125.243 13.9847 125.238 14.1786 125.213C14.5713 125.174 15.0075 125.08 15.468 124.898C15.6959 124.8 15.9334 124.686 16.166 124.534C16.2824 124.465 16.3939 124.376 16.5102 124.288C16.6217 124.194 16.7332 124.101 16.835 123.997C17.2616 123.584 17.6009 123.052 17.8384 122.481C18.0759 121.909 18.2165 121.309 18.294 120.708C18.3716 120.107 18.391 119.334 18.3377 118.468C18.2844 117.601 18.1583 116.636 18.0081 115.632C17.8578 114.627 17.6784 113.573 17.5718 112.525C17.5476 112.264 17.5233 112.003 17.5088 111.742C17.5039 111.614 17.4991 111.486 17.4942 111.358V111.264V111.175C17.4942 111.116 17.4942 111.057 17.4942 110.998C17.5233 110.526 17.6203 110.043 17.7802 109.585C17.8578 109.354 17.9547 109.132 18.0565 108.911C18.1632 108.694 18.2795 108.482 18.4104 108.285C18.6673 107.886 18.9533 107.517 19.2684 107.197C19.8937 106.557 20.5966 106.109 21.2413 105.848C21.4012 105.779 21.5612 105.73 21.7115 105.68C21.8617 105.641 22.0071 105.597 22.1477 105.572C22.2834 105.538 22.4143 105.523 22.5355 105.503C22.6567 105.488 22.7682 105.479 22.87 105.469C23.0736 105.459 23.2335 105.449 23.345 105.449C23.4565 105.449 23.5147 105.434 23.5195 105.42C23.5195 105.405 23.4662 105.38 23.3596 105.346C23.2529 105.306 23.093 105.272 22.8797 105.237C22.773 105.227 22.6567 105.208 22.5258 105.203C22.3949 105.203 22.2544 105.188 22.1041 105.203C21.9538 105.203 21.789 105.223 21.6194 105.242C21.4497 105.272 21.2703 105.301 21.0861 105.346C20.3445 105.528 19.4962 105.917 18.7061 106.552C18.3086 106.867 17.9305 107.241 17.5863 107.67C17.4118 107.881 17.2519 108.113 17.0967 108.354C16.9465 108.595 16.8011 108.851 16.6799 109.117C16.4278 109.649 16.2436 110.235 16.1467 110.85C16.137 110.929 16.1273 111.003 16.1176 111.082L16.103 111.2L16.0933 111.313C16.0788 111.461 16.0739 111.609 16.0643 111.752C16.0497 112.042 16.0497 112.333 16.0497 112.618C16.0643 113.756 16.1612 114.844 16.2339 115.848C16.3115 116.853 16.3696 117.768 16.3745 118.556C16.3842 119.339 16.3406 119.989 16.2824 120.462C16.2242 120.935 16.1273 121.368 15.9964 121.747C15.8607 122.126 15.691 122.446 15.4729 122.712C15.4196 122.781 15.3614 122.84 15.3081 122.904C15.245 122.963 15.1917 123.022 15.1287 123.076C15.0075 123.19 14.8718 123.283 14.7361 123.377C14.4598 123.554 14.1592 123.692 13.8732 123.805C13.7278 123.864 13.5872 123.908 13.4467 123.958C13.3061 123.997 13.1752 124.046 13.0492 124.081C12.9862 124.101 12.9231 124.12 12.865 124.135C12.8068 124.15 12.7486 124.169 12.6905 124.184C12.5838 124.219 12.482 124.248 12.3802 124.283C12.1912 124.347 12.0458 124.406 11.9391 124.47C11.8373 124.534 11.7792 124.603 11.7743 124.672V124.662Z" fill="#DCC9A8"/>
<path d="M12.8941 116.96C12.9619 116.901 12.9425 116.739 12.8601 116.493C12.7874 116.242 12.6517 115.907 12.5499 115.503C12.5354 115.454 12.5257 115.4 12.5111 115.35C12.4966 115.296 12.4917 115.242 12.482 115.193C12.4578 115.084 12.4529 114.971 12.4384 114.858C12.4239 114.631 12.4287 114.39 12.4675 114.149C12.545 113.666 12.7777 113.169 13.1558 112.701C13.3449 112.47 13.6212 112.174 13.9993 111.869C14.3774 111.569 14.8572 111.264 15.4098 111.003C15.9528 110.742 16.6023 110.535 17.2712 110.308C17.9402 110.082 18.6479 109.841 19.2975 109.496C19.947 109.156 20.5287 108.708 20.9601 108.211C21.3964 107.709 21.6775 107.201 21.9247 106.788C22.0459 106.581 22.1623 106.399 22.264 106.236C22.3707 106.079 22.4628 105.946 22.5404 105.833C22.71 105.621 22.8021 105.493 22.7876 105.478C22.7779 105.463 22.6518 105.557 22.4386 105.734C22.3416 105.828 22.2156 105.946 22.0847 106.094C21.9538 106.241 21.8084 106.409 21.6581 106.601C21.3527 106.975 21.0183 107.433 20.582 107.827C20.3687 108.029 20.1167 108.206 19.8501 108.373C19.5834 108.541 19.2926 108.679 18.9872 108.802C18.3764 109.053 17.6978 109.21 17.0143 109.378C16.3308 109.545 15.6377 109.703 14.9784 109.954C14.3289 110.2 13.7472 110.52 13.2673 110.86C12.7874 111.2 12.4142 111.564 12.1621 111.879C11.91 112.194 11.6968 112.539 11.5465 112.908C11.3962 113.277 11.309 113.661 11.2896 114.031C11.2702 114.4 11.3138 114.75 11.3914 115.06C11.435 115.212 11.4786 115.36 11.5368 115.493C11.5659 115.557 11.5901 115.626 11.6192 115.685C11.6483 115.744 11.6822 115.803 11.7113 115.862C11.9585 116.315 12.2397 116.611 12.4529 116.793C12.6759 116.965 12.8262 117.024 12.8941 116.97V116.96Z" fill="#DCC9A8"/>
<path d="M11.7304 120.28C12.22 119.743 12.1909 118.906 11.6626 118.409C11.1342 117.912 10.3102 117.941 9.82057 118.478C9.33098 119.014 9.36006 119.852 9.88843 120.349C10.4168 120.846 11.2409 120.817 11.7304 120.28Z" fill="#DCC9A8"/>
<path d="M26.0933 104.464C26.5344 103.981 26.5054 103.233 26.0303 102.785C25.5553 102.337 24.8185 102.366 24.3774 102.849C23.9362 103.331 23.9653 104.08 24.4404 104.528C24.9154 104.976 25.6522 104.946 26.0933 104.464Z" fill="#DCC9A8"/>
<path d="M17.5429 105.887C17.5816 105.932 17.664 105.936 17.7707 105.912C17.824 105.897 17.887 105.877 17.95 105.848C18.0179 105.823 18.0906 105.789 18.173 105.749C18.4881 105.597 18.8953 105.37 19.3509 105.144C19.5788 105.035 19.9472 104.853 20.4077 104.71C20.8633 104.563 21.4062 104.464 21.9346 104.425C22.0655 104.415 22.1964 104.41 22.3224 104.405C22.3806 104.405 22.4387 104.405 22.5017 104.405C22.5599 104.405 22.6181 104.415 22.6762 104.42C22.9089 104.445 23.127 104.479 23.3161 104.504C23.5051 104.528 23.6651 104.533 23.7717 104.528C23.8832 104.518 23.9414 104.509 23.9414 104.494C23.9414 104.484 23.8832 104.459 23.7814 104.435C23.6796 104.405 23.5391 104.356 23.3646 104.287C23.1901 104.223 22.9865 104.139 22.7441 104.06C22.6811 104.046 22.6229 104.021 22.5551 104.006C22.4872 103.992 22.4193 103.977 22.3515 103.967C22.2206 103.947 22.08 103.928 21.9443 103.913C21.382 103.854 20.7712 103.868 20.2332 103.967C19.6951 104.06 19.2443 104.233 18.9825 104.361C18.4542 104.622 18.0421 104.971 17.7998 105.267C17.7416 105.341 17.6883 105.41 17.6447 105.479C17.6059 105.547 17.5719 105.607 17.5526 105.661C17.5089 105.769 17.5041 105.848 17.5477 105.892L17.5429 105.887Z" fill="#DCC9A8"/>
<path d="M33.5295 120.442C33.7525 120.211 33.4956 119.566 32.9866 118.694C32.4825 117.818 31.7263 116.705 30.9943 115.459C30.8053 115.149 30.5726 114.741 30.3157 114.253C30.0636 113.766 29.8019 113.194 29.5692 112.559C29.3365 111.924 29.1426 111.23 29.0118 110.501C28.876 109.772 28.8082 109.019 28.8033 108.276C28.7888 106.789 29.036 105.37 29.2687 104.336C29.5062 103.302 29.7049 102.643 29.6322 102.608C29.5838 102.584 29.1911 103.155 28.7161 104.139C28.2507 105.124 27.7078 106.547 27.4606 108.172C27.3346 108.985 27.2812 109.841 27.3152 110.693C27.3491 111.54 27.4654 112.382 27.6496 113.15C27.829 113.918 28.0714 114.622 28.3186 115.218C28.5706 115.809 28.8227 116.301 29.036 116.661C29.8891 118.108 30.9459 119.177 31.799 119.817C32.6618 120.457 33.3211 120.679 33.5392 120.452L33.5295 120.442Z" fill="#DCC9A8"/>
<path d="M94.2182 118.127C93.7043 118.226 93.176 118.354 92.6379 118.521C92.0999 118.689 91.5521 118.881 90.9898 119.102C89.8701 119.54 88.7164 120.077 87.5191 120.609C86.918 120.875 86.3169 121.141 85.7013 121.416C85.0905 121.692 84.4701 121.973 83.8448 122.249C83.2195 122.529 82.5844 122.795 81.9446 123.056C81.3047 123.312 80.6552 123.563 80.0008 123.78C79.676 123.898 79.3416 123.992 79.0119 124.095C78.8471 124.149 78.6823 124.189 78.5126 124.233C78.3478 124.277 78.183 124.326 78.0134 124.366C77.6789 124.44 77.3444 124.528 77.01 124.583C76.8403 124.612 76.6755 124.647 76.5058 124.671C76.3362 124.696 76.1714 124.715 76.0017 124.74C75.9193 124.75 75.832 124.765 75.7496 124.77L75.4976 124.789C75.3279 124.804 75.1631 124.814 74.9934 124.829C74.8286 124.834 74.6638 124.843 74.499 124.848C74.3342 124.858 74.1694 124.863 74.0046 124.863C73.8398 124.863 73.675 124.868 73.5101 124.873C73.3453 124.873 73.1805 124.873 73.0157 124.873H72.7685L72.5213 124.858C72.3565 124.848 72.1965 124.848 72.0317 124.834C71.3821 124.789 70.7326 124.701 70.1024 124.548C70.0249 124.528 69.9473 124.509 69.8649 124.489C69.7874 124.469 69.7098 124.45 69.6322 124.425C69.4771 124.376 69.322 124.322 69.1717 124.272C69.0215 124.208 68.8712 124.149 68.7209 124.085C68.6434 124.056 68.5707 124.021 68.498 123.982C68.4252 123.947 68.3525 123.908 68.2798 123.873C68.2071 123.834 68.1344 123.805 68.0617 123.76C67.989 123.721 67.9211 123.677 67.8484 123.637C67.7078 123.553 67.5673 123.475 67.4364 123.376C67.3006 123.283 67.1649 123.194 67.034 123.096C66.9032 122.997 66.7771 122.894 66.6511 122.795C66.5881 122.746 66.5251 122.692 66.4669 122.638C66.4039 122.583 66.3457 122.529 66.2827 122.475C66.2245 122.421 66.1615 122.367 66.1033 122.318C66.0452 122.263 65.987 122.204 65.9288 122.15C65.8125 122.037 65.701 121.924 65.5847 121.815C65.5265 121.756 65.4732 121.692 65.415 121.633C65.3568 121.574 65.3035 121.51 65.2502 121.446C65.1969 121.382 65.1436 121.318 65.0902 121.254C65.0369 121.19 64.9885 121.121 64.94 121.052C64.8382 120.919 64.7461 120.776 64.654 120.639C64.4746 120.353 64.305 120.062 64.1547 119.757C64.0044 119.457 63.8784 119.137 63.7572 118.822C63.6457 118.502 63.5439 118.182 63.4712 117.852C63.1513 116.542 63.1464 115.183 63.384 114.006C63.5003 113.42 63.6797 112.879 63.8929 112.401C64.1062 111.923 64.3486 111.515 64.5958 111.165C64.843 110.811 65.1193 110.505 65.4005 110.22C65.4732 110.151 65.5459 110.087 65.6186 110.018C65.6525 109.983 65.6913 109.954 65.7301 109.919L65.8464 109.826C65.924 109.762 66.0015 109.708 66.084 109.649L66.2003 109.565L66.3215 109.491C66.6414 109.294 66.9759 109.136 67.3055 109.028C67.6351 108.915 67.9696 108.836 68.2944 108.792C68.9488 108.703 69.5935 108.733 70.2042 108.851C70.5096 108.91 70.8102 108.994 71.101 109.102C71.2464 109.151 71.387 109.215 71.5324 109.274C71.6051 109.304 71.673 109.343 71.7409 109.373C71.8087 109.407 71.8814 109.442 71.9444 109.481C72.0123 109.52 72.0802 109.56 72.148 109.594C72.2159 109.634 72.2789 109.678 72.3419 109.717L72.4389 109.781L72.5358 109.85C72.5988 109.895 72.6619 109.944 72.7249 109.988C72.7879 110.037 72.8461 110.087 72.9042 110.136L72.9963 110.21L73.0836 110.289C73.1417 110.343 73.1999 110.397 73.2532 110.451C73.3066 110.51 73.3647 110.564 73.418 110.623C73.4714 110.678 73.5247 110.742 73.578 110.801C73.6313 110.865 73.6798 110.924 73.7331 110.988C73.8301 111.121 73.927 111.244 74.0143 111.387C74.1936 111.653 74.3439 111.953 74.4796 112.253C74.5087 112.332 74.5426 112.411 74.5717 112.485L74.6154 112.603L74.6541 112.721C74.6784 112.8 74.7026 112.879 74.7317 112.962C74.7511 113.046 74.7705 113.125 74.7947 113.208L74.8238 113.332C74.8335 113.371 74.8383 113.415 74.848 113.455C74.8626 113.538 74.8771 113.622 74.8917 113.701C74.9013 113.785 74.911 113.868 74.9207 113.952L74.9353 114.075C74.9353 114.114 74.9353 114.159 74.9401 114.198C74.9401 114.282 74.945 114.366 74.9498 114.449C74.9498 114.533 74.9498 114.617 74.9498 114.695V114.819L74.9353 114.942C74.9304 115.025 74.9207 115.104 74.9159 115.183C74.9062 115.262 74.8917 115.34 74.882 115.419C74.8771 115.459 74.8723 115.498 74.8626 115.537L74.8383 115.651C74.8238 115.729 74.8092 115.803 74.7899 115.877C74.7705 115.951 74.7511 116.025 74.7317 116.099C74.722 116.133 74.7123 116.173 74.7026 116.207L74.6687 116.315C74.6444 116.384 74.6202 116.453 74.596 116.527C74.5669 116.596 74.5426 116.66 74.5136 116.729L74.4748 116.827C74.4602 116.862 74.4457 116.891 74.4312 116.921C74.4021 116.985 74.3681 117.044 74.3391 117.108C74.31 117.167 74.2712 117.226 74.2421 117.285C74.1791 117.404 74.1064 117.512 74.0337 117.615C73.7477 118.039 73.4132 118.354 73.0836 118.585C72.7491 118.817 72.4146 118.95 72.0996 119.014C71.7893 119.073 71.4985 119.073 71.2513 119.014C71.2222 119.009 71.1882 119.004 71.1592 118.999C71.1301 118.989 71.101 118.979 71.0719 118.974C71.0137 118.959 70.9604 118.94 70.9071 118.925C70.8005 118.881 70.7035 118.841 70.6163 118.797C70.5339 118.748 70.4514 118.699 70.3787 118.659C70.3545 118.639 70.3303 118.62 70.306 118.6C69.7583 118.492 69.3559 117.886 69.3753 117.138C69.3947 116.301 69.9328 115.606 70.5775 115.592C71.2222 115.572 71.7263 116.237 71.7069 117.074C71.6924 117.729 71.3579 118.295 70.9023 118.521C70.9313 118.526 70.9604 118.536 70.9895 118.541C71.038 118.546 71.0913 118.556 71.1446 118.561C71.1689 118.561 71.1979 118.566 71.227 118.571C71.2561 118.571 71.2804 118.571 71.3094 118.571C71.5324 118.585 71.7845 118.556 72.0462 118.472C72.308 118.388 72.5891 118.246 72.8606 118.029C73.1272 117.812 73.3938 117.522 73.6168 117.157C73.6701 117.064 73.7283 116.975 73.7768 116.872C73.801 116.823 73.8301 116.773 73.8543 116.719C73.8785 116.665 73.8979 116.616 73.9222 116.562C73.9319 116.537 73.9464 116.507 73.9561 116.483L73.9852 116.399C74.0046 116.345 74.024 116.286 74.0482 116.232C74.0676 116.173 74.0821 116.114 74.1015 116.054L74.1258 115.966C74.1355 115.936 74.1403 115.907 74.1452 115.877C74.1597 115.818 74.1742 115.754 74.1888 115.695C74.1985 115.631 74.2082 115.572 74.2227 115.508L74.2373 115.414C74.2373 115.385 74.2421 115.35 74.247 115.321C74.2518 115.257 74.2615 115.193 74.2663 115.129C74.2663 115.065 74.2712 115.001 74.276 114.932V114.833V114.735C74.276 114.671 74.276 114.602 74.276 114.538C74.2712 114.474 74.2663 114.405 74.2615 114.336C74.2615 114.302 74.2615 114.267 74.2518 114.238L74.2373 114.139C74.2276 114.075 74.2179 114.006 74.2082 113.937C74.1936 113.873 74.1791 113.804 74.1645 113.74C74.1597 113.706 74.15 113.671 74.1452 113.642L74.1161 113.543C74.0967 113.479 74.0821 113.41 74.0628 113.346C74.0385 113.282 74.0191 113.218 73.9949 113.154L73.961 113.056L73.9222 112.962C73.8931 112.898 73.8689 112.834 73.8398 112.775C73.3793 111.785 72.5794 110.973 71.61 110.481C71.5518 110.446 71.4888 110.422 71.4258 110.392C71.3628 110.362 71.3046 110.333 71.2367 110.308C71.1107 110.259 70.9847 110.205 70.8538 110.166C70.592 110.077 70.3254 110.008 70.0491 109.959C69.5014 109.86 68.9294 109.845 68.3525 109.929C68.0665 109.969 67.7805 110.042 67.4994 110.141C67.2182 110.239 66.9419 110.367 66.6802 110.535L66.5832 110.594L66.4863 110.663C66.4233 110.707 66.3554 110.751 66.2972 110.806L66.2051 110.879C66.1761 110.904 66.1421 110.929 66.113 110.958C66.05 111.017 65.9919 111.076 65.9288 111.131C65.6913 111.372 65.4538 111.628 65.2551 111.923C65.0515 112.214 64.8479 112.549 64.6734 112.938C64.4989 113.322 64.3534 113.76 64.2565 114.242C64.1595 114.725 64.1062 115.247 64.1111 115.789C64.1111 115.926 64.1208 116.064 64.1256 116.202C64.1353 116.34 64.1499 116.478 64.1644 116.621C64.2032 116.901 64.2468 117.187 64.3147 117.468C64.3777 117.753 64.4649 118.029 64.557 118.31C64.6588 118.585 64.7655 118.861 64.8964 119.127C65.0224 119.398 65.1678 119.654 65.3229 119.905C65.4053 120.028 65.4829 120.156 65.575 120.269C65.6186 120.328 65.6622 120.387 65.7059 120.446C65.7543 120.506 65.798 120.56 65.8464 120.619C65.8901 120.678 65.9434 120.732 65.9919 120.786C66.0403 120.84 66.0888 120.895 66.1421 120.949C66.2488 121.057 66.3554 121.16 66.4621 121.269C66.5154 121.323 66.5687 121.377 66.6269 121.431C66.685 121.48 66.7383 121.535 66.7965 121.584C66.8547 121.633 66.908 121.687 66.9662 121.737C67.0243 121.786 67.0777 121.84 67.1407 121.884C67.257 121.978 67.3782 122.076 67.4945 122.17C67.6157 122.263 67.7369 122.347 67.8629 122.436C67.9841 122.529 68.115 122.603 68.241 122.682C68.3041 122.721 68.3671 122.761 68.4349 122.8C68.498 122.839 68.5658 122.869 68.6337 122.908C68.7015 122.943 68.7646 122.977 68.8324 123.012C68.9003 123.046 68.9681 123.081 69.036 123.11C69.1717 123.169 69.3123 123.228 69.4529 123.288C69.5935 123.337 69.7389 123.386 69.8795 123.44C69.9522 123.47 70.0249 123.484 70.0976 123.504C70.1703 123.524 70.243 123.544 70.3157 123.563C70.9071 123.716 71.5179 123.819 72.1432 123.869C72.2983 123.883 72.4583 123.888 72.6182 123.903L72.8557 123.918H73.0933C73.2532 123.928 73.4132 123.933 73.5732 123.937C73.641 123.937 73.7137 123.937 73.7816 123.937C73.8301 123.903 73.8785 123.873 73.9367 123.844C74.1161 123.755 74.3391 123.706 74.596 123.662C74.848 123.622 75.134 123.524 75.4539 123.445C76.089 123.278 76.8306 122.992 77.6401 122.633C78.4399 122.239 79.3173 121.761 80.2432 121.249C81.4986 120.56 82.6862 119.944 83.7187 119.476C84.2374 119.255 84.7125 119.043 85.1342 118.895C85.3475 118.817 85.5414 118.748 85.7256 118.679C85.9098 118.625 86.0794 118.575 86.2297 118.526C86.3751 118.462 86.5399 118.388 86.7193 118.31C86.8986 118.231 87.0974 118.157 87.3058 118.073C87.7275 117.906 88.2026 117.724 88.7309 117.536C89.7828 117.172 91.0334 116.788 92.3956 116.675C92.8948 116.64 93.3844 116.621 93.8546 116.665C94.0921 116.675 94.32 116.719 94.5429 116.744C94.6544 116.763 94.7659 116.788 94.8726 116.808C94.9792 116.832 95.0907 116.847 95.1925 116.882C95.9535 117.079 96.5982 117.413 97.1363 117.733C97.2575 117.758 97.3738 117.788 97.4902 117.817C97.2575 117.65 96.9812 117.468 96.6661 117.28C96.5982 117.241 96.5255 117.197 96.4528 117.157C96.3801 117.118 96.3025 117.079 96.225 117.039C96.0747 116.955 95.9099 116.882 95.7451 116.798C95.4058 116.645 95.0471 116.483 94.6593 116.35C94.2715 116.217 93.8595 116.094 93.428 116.01C93.2099 115.966 92.9918 115.936 92.7688 115.917C92.6573 115.912 92.541 115.902 92.4246 115.892C92.3083 115.887 92.192 115.892 92.0756 115.887C90.8008 115.877 89.5986 116.094 88.571 116.32C87.5482 116.557 86.695 116.803 86.1133 116.985C85.8322 117.118 85.4832 117.271 85.0857 117.477C84.6882 117.679 84.2423 117.906 83.7478 118.152C83.2631 118.423 82.7347 118.713 82.1773 119.014C81.6247 119.334 81.043 119.673 80.4419 120.023C80.0008 120.289 79.5694 120.545 79.1525 120.786C78.7453 121.027 78.3575 121.298 77.9891 121.564C77.6207 121.83 77.2669 122.086 76.9324 122.313C76.5979 122.544 76.278 122.746 75.9872 122.918C75.3958 123.258 74.8917 123.445 74.5426 123.529C74.4554 123.549 74.3778 123.568 74.31 123.578C74.2421 123.588 74.1839 123.593 74.1403 123.598C74.0482 123.608 73.9997 123.613 73.9997 123.613C73.9997 123.613 74.0482 123.598 74.1403 123.573C74.1839 123.558 74.2421 123.544 74.31 123.524C74.3778 123.499 74.4505 123.47 74.5378 123.44C74.8771 123.307 75.3522 123.056 75.9048 122.657C76.1811 122.455 76.4816 122.229 76.8015 121.968C77.1214 121.707 77.4608 121.431 77.8195 121.141C78.183 120.85 78.5708 120.55 78.9925 120.284C79.4094 120.023 79.8408 119.762 80.2819 119.491C80.8879 119.137 81.4841 118.822 82.0464 118.516C82.6184 118.241 83.1564 117.985 83.6557 117.753C84.1598 117.551 84.6252 117.369 85.0372 117.212C85.4444 117.054 85.808 116.946 86.0988 116.852C86.6659 116.591 87.4997 116.232 88.5322 115.907C89.5598 115.592 90.7862 115.301 92.1144 115.311C92.2356 115.311 92.3568 115.311 92.478 115.321C92.5991 115.331 92.7155 115.34 92.8367 115.35C93.0742 115.375 93.3069 115.414 93.5298 115.468C93.9806 115.572 94.4024 115.725 94.795 115.887C95.1876 116.054 95.5512 116.246 95.8857 116.438C96.0505 116.542 96.2104 116.631 96.3607 116.734C96.4334 116.783 96.511 116.832 96.5788 116.882C96.6516 116.931 96.7194 116.985 96.7873 117.034C97.2235 117.354 97.5726 117.669 97.8246 117.93C98.0185 117.994 98.2027 118.068 98.3821 118.157C98.6972 118.31 98.9783 118.511 99.2158 118.763C99.1867 118.812 99.1577 118.866 99.1383 118.925C99.1383 118.935 99.1286 118.945 99.1237 118.955C98.8959 118.723 98.6147 118.541 98.3045 118.398C98.2754 118.383 98.2463 118.374 98.2173 118.364C98.2415 118.393 98.2657 118.423 98.2851 118.447C98.3094 118.477 98.3287 118.502 98.3433 118.516C98.4693 118.6 98.5808 118.674 98.6826 118.738C98.8814 118.861 99.0219 118.95 99.1043 118.999C99.1043 118.999 99.1043 119.009 99.0995 119.014C99.0122 118.979 98.862 118.915 98.6535 118.827C98.4887 118.748 98.2803 118.649 98.0428 118.536C97.8052 118.423 97.5386 118.29 97.2429 118.142C97.1702 118.108 97.1024 118.073 97.0248 118.039C96.1765 117.906 95.2313 117.94 94.2327 118.113L94.2182 118.127ZM97.941 118.28C97.9943 118.314 98.0428 118.349 98.0912 118.378C98.1542 118.423 98.2173 118.462 98.2754 118.502C98.2706 118.497 98.2609 118.492 98.256 118.482C98.2124 118.442 98.1591 118.393 98.0961 118.339C98.0428 118.319 97.9894 118.3 97.9361 118.28H97.941ZM95.9729 117.635C95.6966 117.541 95.4106 117.463 95.1052 117.408C95.0034 117.379 94.8968 117.374 94.7902 117.354C94.6835 117.34 94.5769 117.32 94.4702 117.31C94.2521 117.295 94.0291 117.261 93.8013 117.261C93.3456 117.236 92.8754 117.261 92.3907 117.295C91.0722 117.408 89.8361 117.719 88.7794 117.989C88.251 118.127 87.7663 118.265 87.3397 118.383C87.1264 118.442 86.9277 118.497 86.7435 118.551C86.5593 118.605 86.3945 118.654 86.2442 118.699C86.0988 118.763 85.934 118.836 85.7546 118.915C85.5801 119.004 85.3862 119.097 85.1826 119.201C84.7706 119.393 84.3101 119.649 83.8108 119.91C82.8074 120.456 81.6441 121.131 80.3837 121.82C79.4579 122.332 78.566 122.785 77.7274 123.135C76.8839 123.45 76.118 123.672 75.4636 123.765C75.1389 123.814 74.8432 123.873 74.5863 123.878C74.3294 123.893 74.1112 123.908 73.9367 123.967C73.9367 123.967 73.927 123.967 73.9222 123.967C73.961 123.967 73.9997 123.967 74.0337 123.967C74.1936 123.967 74.3584 123.967 74.5184 123.962C74.6832 123.962 74.8432 123.952 75.008 123.952C75.168 123.942 75.3328 123.933 75.4927 123.923L75.7351 123.908C75.8175 123.903 75.8951 123.888 75.9775 123.883C76.1374 123.864 76.3022 123.849 76.4671 123.829C76.6319 123.809 76.7918 123.78 76.9566 123.75C77.2814 123.706 77.6062 123.627 77.931 123.563C78.0958 123.529 78.2557 123.484 78.4205 123.445C78.5805 123.401 78.7453 123.371 78.9101 123.322C79.2349 123.228 79.5597 123.14 79.8796 123.036C80.5243 122.839 81.169 122.603 81.804 122.367C82.439 122.121 83.074 121.869 83.6993 121.609C84.3247 121.348 84.95 121.087 85.5656 120.826C86.1812 120.565 86.7968 120.314 87.3931 120.067C88.5952 119.57 89.7586 119.063 90.8977 118.649C91.4649 118.442 92.0272 118.26 92.5749 118.108C93.1227 117.955 93.6656 117.842 94.1891 117.753C94.8047 117.665 95.4009 117.63 95.9681 117.65L95.9729 117.635Z" fill="#DCC9A8"/>
<path d="M104.451 124.002C104.451 124.002 105.208 121.535 104.311 120.412C104.311 120.412 118.247 123.169 128 123.056L104.451 124.002Z" fill="#DCC9A8"/>
<path d="M61.1593 107.739C61.1593 107.739 61.1836 107.808 61.2272 107.941C61.2514 108.005 61.2805 108.088 61.3145 108.187C61.3484 108.285 61.392 108.399 61.4163 108.537C61.4502 108.669 61.4841 108.822 61.5229 108.985C61.552 109.152 61.5714 109.339 61.6005 109.541C61.6198 109.639 61.6198 109.748 61.6247 109.856C61.6247 109.964 61.6344 110.078 61.6344 110.196C61.6392 110.432 61.6101 110.678 61.5956 110.944C61.5762 111.077 61.552 111.21 61.5326 111.348C61.5229 111.417 61.5084 111.486 61.4987 111.56C61.4841 111.629 61.4647 111.703 61.4453 111.772C61.4066 111.914 61.3678 112.062 61.329 112.215C61.2757 112.362 61.2224 112.51 61.1642 112.663C60.9218 113.268 60.5728 113.904 60.0881 114.499C59.5985 115.09 58.9635 115.642 58.1927 116.07C58.0085 116.188 57.7953 116.267 57.5917 116.365C57.3881 116.469 57.1699 116.533 56.9518 116.607C56.8403 116.641 56.7337 116.681 56.6222 116.72C56.5107 116.759 56.3944 116.774 56.278 116.804C56.1617 116.828 56.0454 116.858 55.929 116.882C55.8127 116.912 55.6963 116.937 55.5703 116.946C53.6556 117.262 51.387 116.853 49.4481 115.504C49.2057 115.336 48.9827 115.144 48.7452 114.957C48.5222 114.755 48.3089 114.544 48.0859 114.332C47.8872 114.1 47.6836 113.869 47.4897 113.623C47.4025 113.495 47.3104 113.367 47.2231 113.234C47.1359 113.101 47.0341 112.978 46.9662 112.835C46.8886 112.697 46.8111 112.554 46.7335 112.417C46.656 112.279 46.5784 112.136 46.5202 111.983C46.4572 111.836 46.3942 111.683 46.3312 111.535C46.3021 111.461 46.2682 111.383 46.2391 111.309L46.1664 111.077C46.0743 110.767 45.9628 110.462 45.8852 110.142C45.8174 109.822 45.7544 109.497 45.6865 109.172C45.4878 107.852 45.5265 106.459 45.8319 105.09C46.1373 103.721 46.7093 102.382 47.5333 101.18C48.3574 99.9789 49.4432 98.9203 50.7181 98.1226C51.038 97.9257 51.3725 97.7583 51.7069 97.5712C52.0463 97.4136 52.4001 97.2757 52.7491 97.128C53.452 96.872 54.1743 96.675 54.9159 96.5372C56.9324 96.1728 59.0023 96.2861 60.8976 96.8424C62.7929 97.3939 64.5234 98.3491 65.9389 99.5899C67.3591 100.826 68.4692 102.337 69.2254 103.938C69.9864 105.548 70.3839 107.197 70.5778 108.798C70.7572 110.403 70.7087 111.954 70.4615 113.391C70.2288 114.829 69.8022 116.144 69.2933 117.316C68.7843 118.488 68.159 119.512 67.5143 120.383C66.8696 121.26 66.1909 121.988 65.5462 122.589C64.95 123.244 64.2277 123.924 63.3601 124.578C62.4924 125.228 61.4841 125.849 60.3256 126.361C59.1671 126.868 57.8922 127.291 56.4962 127.582C55.105 127.872 53.5974 128.025 52.022 127.986C50.4466 127.956 48.8082 127.7 47.1649 127.237C46.9565 127.183 46.7529 127.114 46.5493 127.05C46.3457 126.981 46.1373 126.922 45.9337 126.843C45.5265 126.686 45.1145 126.543 44.7122 126.356C43.893 126.011 43.098 125.583 42.3127 125.12C41.5274 124.647 40.7712 124.106 40.0344 123.52C39.3122 122.914 38.6045 122.269 37.9501 121.555C36.6413 120.132 35.4925 118.483 34.6151 116.666C34.4454 116.336 34.3 115.991 34.1546 115.656C33.9995 115.322 33.8831 114.972 33.7522 114.627C33.6165 114.283 33.5196 113.938 33.4081 113.598L33.2433 113.086C33.1948 112.914 33.1512 112.742 33.1027 112.569C32.7246 111.19 32.4531 109.792 32.3368 108.394C32.2205 106.995 32.2447 105.607 32.4144 104.268C32.5792 102.928 32.8846 101.638 33.2869 100.427C34.0819 97.9946 35.2501 95.8921 36.428 94.0309C37.6204 92.1697 38.8565 90.5449 40.0054 89.0923C41.159 87.6398 42.24 86.3645 43.1949 85.2468C44.1499 84.134 44.9836 83.1837 45.6623 82.4058C47.0292 80.8597 47.7854 80.0029 47.7854 80.0029C47.7854 80.0029 47.1262 80.9385 45.9095 82.6126C45.3035 83.4496 44.5619 84.4738 43.6991 85.6604C42.8411 86.8471 41.8619 88.2011 40.8197 89.7177C39.7824 91.2342 38.6675 92.9132 37.6156 94.7744C36.5734 96.6406 35.57 98.6938 34.9253 100.959C34.6005 102.086 34.3679 103.268 34.2515 104.479C34.1352 105.696 34.1449 106.941 34.2806 108.207C34.4163 109.472 34.6829 110.747 35.0465 112.018L35.1822 112.495L35.3373 112.973C35.444 113.288 35.5361 113.618 35.6621 113.918C35.7784 114.229 35.8899 114.544 36.0305 114.844C36.1614 115.149 36.2923 115.459 36.4474 115.755C38.0373 119.034 40.4998 121.708 43.3016 123.5C44.0045 123.943 44.717 124.357 45.449 124.697C45.8077 124.879 46.1858 125.022 46.5493 125.184C46.7335 125.258 46.9226 125.322 47.1068 125.391C47.291 125.46 47.4752 125.529 47.6642 125.588C49.1524 126.07 50.6502 126.381 52.1044 126.484C55.0129 126.71 57.7225 126.238 59.9669 125.44C62.2112 124.633 63.9514 123.407 65.2069 122.249C66.3509 120.979 67.5724 119.221 68.3868 116.951C69.206 114.696 69.5986 111.929 69.1139 109.029C68.8618 107.591 68.4304 106.099 67.713 104.735C67.0004 103.367 65.9922 102.106 64.7416 101.072C63.4958 100.038 61.9979 99.2551 60.3741 98.812C58.7502 98.359 57.0003 98.2851 55.2892 98.5904C54.659 98.7086 54.0385 98.876 53.4472 99.0877C53.1612 99.2108 52.8703 99.3191 52.5892 99.4472C52.3177 99.5949 52.0414 99.7327 51.7797 99.8854C50.7326 100.525 49.8359 101.372 49.133 102.347C48.4301 103.322 47.9308 104.415 47.64 105.543C47.354 106.67 47.2813 107.832 47.4025 108.95C47.4461 109.226 47.4946 109.502 47.5382 109.777C47.5915 110.048 47.6788 110.314 47.7418 110.58C47.8872 111.107 48.0956 111.589 48.338 112.057C48.3913 112.18 48.4689 112.284 48.5368 112.392C48.6046 112.5 48.6725 112.613 48.7403 112.722C48.8906 112.934 49.0506 113.13 49.2008 113.337C49.3754 113.519 49.545 113.712 49.7195 113.889C49.9086 114.051 50.0879 114.224 50.2818 114.376C51.8427 115.597 53.7622 116.095 55.4637 115.937C55.5703 115.937 55.6769 115.917 55.7787 115.903C55.8854 115.888 55.9872 115.873 56.089 115.853C56.1908 115.834 56.2974 115.829 56.3992 115.799C56.501 115.775 56.598 115.745 56.6998 115.72C56.8985 115.666 57.0972 115.627 57.2814 115.548C57.4656 115.474 57.6547 115.425 57.8243 115.331C58.5272 115.006 59.1283 114.568 59.6179 114.071C60.1026 113.569 60.4662 113.017 60.7425 112.481C60.8055 112.343 60.8685 112.21 60.9315 112.077C60.98 111.939 61.0285 111.806 61.0769 111.673C61.1012 111.609 61.1254 111.545 61.1448 111.476C61.1593 111.412 61.1787 111.343 61.1933 111.279C61.2272 111.151 61.2563 111.023 61.2902 110.9C61.3242 110.649 61.3775 110.413 61.392 110.191C61.3969 110.078 61.4066 109.969 61.4114 109.861C61.4163 109.758 61.4259 109.654 61.4211 109.556C61.4114 109.359 61.4114 109.177 61.3969 109.009C61.3726 108.842 61.3532 108.694 61.3387 108.561C61.3242 108.423 61.2999 108.31 61.2708 108.207C61.2466 108.108 61.2272 108.02 61.2127 107.956C61.1787 107.818 61.1642 107.749 61.1642 107.749L61.1593 107.739Z" fill="#DCC9A8"/>
<path d="M61.5574 110.038C59.3954 111.869 57.2868 108.344 59.2597 107.152C60.6267 106.325 62.333 108.501 61.4507 109.841L61.5574 110.038Z" fill="#DCC9A8"/>
<path d="M101.136 124.047C101.364 123.987 101.533 123.795 101.626 123.515C101.718 123.234 101.727 122.855 101.601 122.446C101.538 122.244 101.388 121.924 101.155 121.58C100.923 121.235 100.588 120.866 100.2 120.615C99.8126 120.363 99.4006 120.245 99.1049 120.235C98.9595 120.221 98.8383 120.25 98.7559 120.265C98.6735 120.285 98.6299 120.309 98.625 120.334C98.6153 120.383 98.7656 120.492 98.9595 120.649C99.1534 120.812 99.357 121.058 99.5072 121.338C99.8126 121.895 99.895 122.643 99.9968 122.968C100.099 123.288 100.263 123.584 100.467 123.79C100.671 123.997 100.913 124.106 101.141 124.047H101.136Z" fill="#DCC9A8"/>
<path d="M96.9668 123.504C97.088 123.603 97.2576 123.622 97.4418 123.563C97.626 123.504 97.8345 123.356 97.9993 123.125C98.0817 123.012 98.1932 122.8 98.2804 122.539C98.3725 122.278 98.4307 121.943 98.4113 121.633C98.3919 121.323 98.2901 121.047 98.1786 120.885C98.0623 120.722 97.9654 120.643 97.9363 120.663C97.9072 120.678 97.912 120.801 97.9023 120.968C97.8926 121.136 97.8442 121.348 97.7569 121.54C97.5824 121.929 97.2189 122.268 97.088 122.45C96.9571 122.633 96.8698 122.839 96.8408 123.031C96.8117 123.224 96.8505 123.401 96.9716 123.499L96.9668 123.504Z" fill="#DCC9A8"/>
<path d="M8.61849 31.3299C8.58456 31.256 8.54578 31.1822 8.51185 31.1133C8.36158 30.8178 8.22586 30.547 8.10467 30.3107C7.98834 30.0743 7.88654 29.8675 7.80413 29.7001C7.71203 29.4884 7.64417 29.3407 7.60539 29.252C7.60539 29.252 7.61508 29.252 7.61508 29.2471C7.6684 29.3259 7.75566 29.4687 7.88169 29.6656C7.94955 29.7641 8.02227 29.8774 8.10952 30.0054C8.12891 30.0202 8.15315 30.0399 8.18223 30.0645C8.20647 30.0842 8.23555 30.1039 8.26464 30.1285C8.2501 30.0989 8.2404 30.0694 8.22586 30.0399C8.08044 29.7297 7.89139 29.4539 7.65872 29.2225C7.66841 29.2225 7.6781 29.2127 7.6878 29.2077C7.74597 29.1831 7.79444 29.1536 7.84291 29.124C8.09497 29.3604 8.29857 29.641 8.45853 29.9562C8.55063 30.1334 8.62819 30.3205 8.69606 30.5125C8.95781 30.7637 9.27774 31.1083 9.60736 31.5465C9.65583 31.6155 9.70916 31.6844 9.76248 31.7533C9.81095 31.8272 9.86427 31.8961 9.91275 31.9749C10.0194 32.1226 10.1115 32.2851 10.2181 32.4476C10.4169 32.7824 10.6156 33.1468 10.7901 33.5407C10.9646 33.9346 11.1197 34.3581 11.2361 34.816C11.2942 35.0425 11.3379 35.2788 11.367 35.5201C11.3815 35.6383 11.3912 35.7614 11.4057 35.8795C11.4154 36.0026 11.4203 36.1257 11.4251 36.2488C11.4688 37.593 11.2167 38.8486 10.9307 39.9023C10.635 40.956 10.3054 41.8127 10.063 42.3987C9.98061 42.699 9.88366 43.0634 9.73824 43.4868C9.59282 43.9054 9.42801 44.383 9.2438 44.9C9.03052 45.4121 8.793 45.9685 8.53609 46.5544C8.2501 47.1354 7.9544 47.746 7.61994 48.3713C7.36787 48.8292 7.12065 49.2724 6.87343 49.7007C6.62137 50.139 6.33538 50.5378 6.05908 50.9169C5.78278 51.2911 5.51617 51.6407 5.26895 51.9755C5.02174 52.3054 4.80845 52.6156 4.61456 52.9012C4.24131 53.4773 4.00379 53.9648 3.88261 54.3094C3.85352 54.3981 3.82444 54.4719 3.80505 54.5409C3.79051 54.6098 3.77596 54.664 3.76142 54.7132C3.73719 54.8067 3.72749 54.856 3.72749 54.856C3.72749 54.856 3.72748 54.8067 3.73718 54.7132C3.73718 54.664 3.74687 54.6098 3.75172 54.5359C3.76141 54.467 3.7808 54.3882 3.79534 54.2996C3.86805 53.9401 4.03771 53.4231 4.35764 52.8175C4.5176 52.5122 4.70666 52.1873 4.92479 51.8377C5.14292 51.493 5.38529 51.1286 5.63736 50.7446C5.88942 50.3605 6.14633 49.9666 6.37415 49.5432C6.60198 49.1099 6.84436 48.6667 7.09157 48.2137C7.42119 47.5933 7.73627 46.9926 8.04166 46.4215C8.3228 45.8454 8.59426 45.3037 8.84632 44.8064C9.07415 44.2993 9.28258 43.8414 9.47163 43.4327C9.66068 43.024 9.8061 42.6646 9.92729 42.3741C10.0873 41.7783 10.3102 40.9117 10.5138 39.8629C10.7077 38.8191 10.8871 37.5881 10.8483 36.2931C10.8434 36.175 10.8386 36.0568 10.8337 35.9386C10.8241 35.8204 10.8144 35.7072 10.8047 35.5939C10.7804 35.3674 10.7416 35.1459 10.698 34.9292C10.6011 34.4959 10.475 34.0774 10.3296 33.6884C10.189 33.2994 10.0194 32.9351 9.85942 32.5953C9.77217 32.4279 9.69461 32.2654 9.60736 32.1128C9.56373 32.034 9.52495 31.9602 9.48133 31.8863C9.4377 31.8124 9.39408 31.7435 9.3553 31.6746C9.16625 31.3545 8.9772 31.0837 8.8027 30.8523C8.83663 30.9705 8.86571 31.0886 8.89479 31.2068C9.22441 31.7435 9.56858 32.3934 9.78186 33.1566C9.82064 33.26 9.83518 33.3733 9.86427 33.4816C9.88851 33.5899 9.91759 33.7032 9.93698 33.8164C9.97092 34.0429 10.0194 34.2744 10.0339 34.5156C10.0873 34.9932 10.0872 35.4905 10.063 35.9977C9.98546 37.3862 9.64129 38.6664 9.31167 39.7447C9.14686 40.2814 8.97235 40.7738 8.82208 41.2022C8.74453 41.4188 8.67666 41.6207 8.60395 41.8029C8.53124 41.9851 8.46338 42.1574 8.40521 42.3051C8.36643 42.4578 8.31796 42.6301 8.26948 42.8221C8.21131 43.0092 8.14345 43.2111 8.07074 43.4278C7.93501 43.866 7.74597 44.3485 7.53753 44.8803C7.10611 45.9389 6.52927 47.165 5.88457 48.4599C5.40468 49.4102 4.95387 50.3162 4.59032 51.1385C4.2607 51.9706 3.99409 52.7338 3.84867 53.3788C3.77596 53.7038 3.68871 53.9943 3.65478 54.2553C3.616 54.5162 3.57238 54.7477 3.48997 54.9298C3.46573 54.9889 3.43664 55.0431 3.40271 55.0874C3.40271 55.1563 3.40271 55.2302 3.40756 55.2991C3.41725 55.4616 3.42209 55.6241 3.43179 55.7866L3.44633 56.0279L3.46572 56.2691C3.48027 56.4267 3.48996 56.5892 3.50935 56.7467C3.57721 57.3819 3.69355 58.0023 3.85836 58.5932C3.8826 58.667 3.90199 58.7409 3.92622 58.8147C3.95046 58.8886 3.96986 58.9625 3.99894 59.0314C4.05226 59.1742 4.10558 59.317 4.1589 59.4598C4.22192 59.5976 4.28494 59.7355 4.34795 59.8783C4.37704 59.9472 4.41581 60.0162 4.44974 60.0802C4.48367 60.1491 4.52245 60.2131 4.55639 60.282C4.59516 60.3461 4.62425 60.415 4.66788 60.479C4.70666 60.543 4.75029 60.607 4.78907 60.671C4.87147 60.7991 4.94902 60.9271 5.04112 61.0502C5.13322 61.1733 5.21563 61.2964 5.31258 61.4145C5.40952 61.5327 5.50647 61.6509 5.60342 61.7641C5.6519 61.8232 5.70522 61.8774 5.75369 61.9365C5.80701 61.9906 5.85549 62.0497 5.90881 62.1039C5.96213 62.158 6.0106 62.2171 6.06392 62.2713C6.11724 62.3254 6.17056 62.3796 6.22873 62.4338C6.34022 62.5421 6.44687 62.6455 6.55351 62.7538C6.60683 62.8031 6.665 62.8523 6.71832 62.9015C6.77164 62.9508 6.82496 63 6.88313 63.0443C6.9413 63.0886 6.99947 63.1379 7.05279 63.1822C7.11096 63.2265 7.17397 63.2659 7.23214 63.3102C7.34848 63.3988 7.47451 63.4727 7.60054 63.5564C7.85261 63.709 8.10952 63.8518 8.37613 63.97C8.63789 64.098 8.91903 64.1965 9.19048 64.2901C9.46678 64.3738 9.74308 64.4575 10.0242 64.5116C10.3005 64.5756 10.5865 64.6101 10.858 64.6396C10.9986 64.6495 11.1343 64.6643 11.27 64.6692C11.4057 64.6692 11.5415 64.679 11.6772 64.6692C12.2153 64.6593 12.7242 64.5953 13.1944 64.4821C13.6646 64.3688 14.0912 64.2113 14.4693 64.0242C14.8474 63.8371 15.1722 63.6253 15.4485 63.4087C15.7345 63.197 15.9768 62.9508 16.2095 62.6996C16.2628 62.6356 16.321 62.5716 16.3743 62.5076C16.4034 62.4781 16.4276 62.4436 16.4519 62.4141L16.5246 62.3205C16.5731 62.2565 16.6167 62.1925 16.6603 62.1236L16.7233 62.0251L16.7815 61.9217C16.9366 61.6509 17.0578 61.3653 17.145 61.0748C17.2323 60.7843 17.3002 60.4938 17.3292 60.2033C17.3971 59.6173 17.368 59.0363 17.2565 58.4848C17.2032 58.2091 17.1305 57.9383 17.0336 57.6724C16.9899 57.5395 16.9318 57.4115 16.8784 57.2834C16.8493 57.2194 16.8203 57.1603 16.7912 57.0963C16.7621 57.0323 16.733 56.9732 16.6991 56.9141C16.1901 55.9392 15.3661 55.1563 14.382 54.7132C14.319 54.6886 14.256 54.664 14.193 54.6344L14.1009 54.595L14.0039 54.5655C13.9409 54.5458 13.8779 54.5212 13.8149 54.5015C13.7519 54.4867 13.684 54.467 13.621 54.4522L13.524 54.4276C13.4901 54.4227 13.4562 54.4128 13.4271 54.4079C13.3592 54.3981 13.2962 54.3833 13.2332 54.3734C13.1653 54.3636 13.1023 54.3587 13.0345 54.3488L12.9375 54.339C12.9036 54.339 12.8696 54.339 12.8406 54.3341C12.7727 54.3341 12.7097 54.3291 12.6418 54.3242C12.574 54.3242 12.5109 54.3242 12.4479 54.3242H12.351L12.254 54.3341C12.191 54.339 12.1232 54.3439 12.0601 54.3488C11.9971 54.3587 11.9341 54.3685 11.8711 54.3734C11.842 54.3734 11.8081 54.3833 11.779 54.3882L11.6869 54.4079C11.6239 54.4227 11.5657 54.4325 11.5027 54.4473C11.4445 54.4621 11.3815 54.4818 11.3233 54.4965C11.2943 54.5064 11.2652 54.5113 11.2361 54.5212L11.1488 54.5507C11.0907 54.5704 11.0325 54.5901 10.9792 54.6098C10.9258 54.6344 10.8677 54.6541 10.8144 54.6787L10.732 54.7132C10.7077 54.723 10.6786 54.7378 10.6544 54.7526C10.6011 54.7772 10.5526 54.8018 10.4993 54.8264C10.4508 54.8511 10.4023 54.8806 10.3539 54.9052C10.2569 54.9545 10.1648 55.0185 10.0776 55.0776C9.7237 55.3139 9.4474 55.5896 9.23896 55.8703C9.03052 56.151 8.89964 56.4365 8.82693 56.7073C8.75422 56.9782 8.72999 57.2342 8.74938 57.4607C8.74938 57.4902 8.74938 57.5198 8.74938 57.5444C8.74938 57.5739 8.75907 57.5986 8.76392 57.6232C8.77361 57.6773 8.77846 57.7266 8.78816 57.7807C8.79785 57.8103 8.80269 57.8398 8.81239 57.8644C9.02083 57.3967 9.56858 57.0422 10.2133 57.0077C11.0373 56.9634 11.7014 57.4607 11.7014 58.1156C11.7014 58.7704 11.0325 59.3367 10.2084 59.3761C9.47163 59.4155 8.86086 59.0215 8.74452 58.4701C8.72513 58.4455 8.70575 58.4208 8.68636 58.3962C8.64273 58.3224 8.59426 58.2436 8.54094 58.1599C8.49246 58.0712 8.45368 57.9728 8.40521 57.8694C8.38582 57.8152 8.37128 57.761 8.35189 57.702C8.34219 57.6724 8.3325 57.6429 8.3228 57.6133C8.31311 57.5838 8.30827 57.5542 8.30342 57.5198C8.24525 57.2687 8.23555 56.9782 8.28402 56.6581C8.33735 56.3381 8.45853 55.9934 8.67666 55.6487C8.89479 55.3041 9.20018 54.9594 9.60736 54.659C9.70915 54.5852 9.81095 54.5064 9.92729 54.4375C9.98546 54.403 10.0388 54.3685 10.0969 54.3341C10.1551 54.2996 10.2181 54.27 10.2763 54.2356C10.3054 54.2208 10.3393 54.2011 10.3684 54.1863L10.4653 54.142C10.5284 54.1125 10.5962 54.0829 10.6592 54.0534C10.7271 54.0288 10.795 53.9992 10.8628 53.9746L10.9646 53.9352C10.9986 53.9254 11.0373 53.9106 11.0713 53.9008C11.144 53.8811 11.2167 53.8564 11.2894 53.8318C11.3621 53.8121 11.4397 53.7974 11.5124 53.7777L11.6239 53.7481C11.6627 53.7383 11.7014 53.7334 11.7402 53.7284C11.8178 53.7137 11.8953 53.7038 11.9729 53.689C12.0504 53.6792 12.1329 53.6693 12.2104 53.6644L12.3316 53.6496H12.4528C12.5352 53.6398 12.6127 53.6349 12.6951 53.6349C12.7776 53.6349 12.86 53.6349 12.9424 53.6349C12.9811 53.6349 13.0248 53.6349 13.0684 53.6349L13.1896 53.6447C13.272 53.6496 13.3544 53.6595 13.4368 53.6693C13.5192 53.6841 13.6016 53.694 13.684 53.7087C13.7228 53.7137 13.7664 53.7186 13.8052 53.7284L13.9264 53.753C14.0088 53.7727 14.0863 53.7875 14.1687 53.8072C14.2463 53.8318 14.3287 53.8564 14.4063 53.8761L14.5275 53.9106L14.6438 53.9549C14.7213 53.9845 14.7989 54.014 14.8765 54.0436C15.177 54.1716 15.4727 54.3144 15.7441 54.4916C15.8847 54.5753 16.0108 54.6738 16.1416 54.7674C16.2047 54.8166 16.2628 54.8658 16.3258 54.92C16.3888 54.9692 16.4519 55.0234 16.5052 55.0776C16.5634 55.1317 16.6215 55.1859 16.6797 55.24C16.733 55.2991 16.7863 55.3533 16.8445 55.4124L16.9269 55.4961L17.0045 55.5847C17.0529 55.6438 17.1063 55.7029 17.1547 55.7669C17.2032 55.8309 17.2468 55.89 17.2953 55.954L17.3632 56.0476L17.4262 56.146C17.4698 56.21 17.5134 56.274 17.5571 56.343C17.5959 56.4119 17.6346 56.4759 17.6734 56.5449C17.7122 56.6138 17.751 56.6827 17.7849 56.7517C17.8188 56.8206 17.8576 56.8895 17.8915 56.9634C17.9546 57.1062 18.0224 57.249 18.0757 57.3967C18.1921 57.6872 18.2793 57.9925 18.3472 58.3027C18.4829 58.9231 18.5265 59.573 18.4587 60.2427C18.4248 60.5775 18.352 60.9172 18.2551 61.252C18.1533 61.5918 18.0127 61.9315 17.8237 62.2614L17.7558 62.3845L17.6783 62.5076C17.6249 62.5913 17.5765 62.6701 17.5134 62.7538L17.4213 62.872C17.3923 62.9114 17.3632 62.9508 17.3292 62.9902C17.2662 63.064 17.1984 63.1379 17.1353 63.2167C16.8639 63.5121 16.573 63.8026 16.2289 64.0586C15.8896 64.3196 15.4921 64.5756 15.0316 64.8071C14.5711 65.0335 14.0427 65.2305 13.4659 65.3634C12.317 65.6343 10.9792 65.6687 9.68007 65.3782C9.3553 65.3093 9.03537 65.2157 8.71544 65.1123C8.40036 64.9991 8.08528 64.8809 7.78474 64.7332C7.47936 64.5904 7.18852 64.4279 6.90737 64.2507C6.77164 64.1571 6.62622 64.0685 6.49534 63.97C6.42748 63.9208 6.35961 63.8715 6.29659 63.8223C6.23358 63.7681 6.17057 63.7189 6.1027 63.6647C6.03484 63.6155 5.97667 63.5564 5.91365 63.5022C5.85064 63.4481 5.78762 63.389 5.72945 63.3348C5.61796 63.2216 5.50647 63.1083 5.39014 62.9951C5.33197 62.936 5.2738 62.8818 5.22048 62.8227C5.16716 62.7637 5.11384 62.7046 5.06052 62.6406C5.0072 62.5815 4.95387 62.5224 4.8957 62.4584C4.84238 62.3993 4.78422 62.3402 4.73574 62.2713C4.63395 62.1433 4.53215 62.0152 4.43036 61.8872C4.32856 61.7592 4.24131 61.6213 4.14436 61.4884C4.04741 61.3554 3.96501 61.2176 3.87776 61.0748C3.83413 61.0059 3.7905 60.932 3.75172 60.8631C3.70809 60.7941 3.67416 60.7203 3.63539 60.6464C3.59661 60.5726 3.55782 60.4987 3.52389 60.4248C3.48511 60.351 3.44633 60.2771 3.41725 60.2033C3.35423 60.0506 3.28637 59.9029 3.22336 59.7503C3.17003 59.5976 3.11671 59.4401 3.05855 59.2825C3.02946 59.2037 3.01008 59.1249 2.98584 59.0462C2.9616 58.9674 2.9422 58.8886 2.91797 58.8098C2.75316 58.1746 2.64167 57.5198 2.5835 56.86C2.56411 56.6926 2.55927 56.5301 2.54472 56.3627L2.53018 56.1116L2.52049 55.8604C2.51565 55.693 2.51078 55.5256 2.50594 55.3582C2.50594 55.1908 2.50594 55.0234 2.50594 54.856C2.50594 54.6886 2.50594 54.5212 2.50594 54.3538C2.50594 54.1863 2.51079 54.0189 2.51564 53.8515C2.52534 53.6792 2.53502 53.5118 2.53987 53.3394L2.55441 53.0834C2.55926 52.9997 2.56896 52.9111 2.57866 52.8274C2.59805 52.655 2.61258 52.4876 2.63197 52.3153C2.65136 52.143 2.68044 51.9755 2.70468 51.8032C2.74831 51.4585 2.82587 51.1188 2.88888 50.779C2.92282 50.6067 2.96645 50.4393 3.00523 50.267C3.04886 50.0996 3.08278 49.9272 3.13125 49.7598C3.22335 49.4201 3.31061 49.0853 3.41725 48.7504C3.61599 48.0808 3.84867 47.4161 4.08134 46.7563C4.32371 46.1014 4.57093 45.4465 4.82784 44.8064C5.08475 44.1614 5.34167 43.5262 5.59858 42.896C5.85549 42.2657 6.09785 41.6453 6.34507 41.0299C6.8395 39.7989 7.33393 38.6123 7.73627 37.465C7.93986 36.8938 8.11437 36.3276 8.26464 35.7761C8.41491 35.2247 8.52639 34.688 8.6088 34.1611C8.75422 33.1419 8.76391 32.1817 8.6088 31.325L8.61849 31.3299ZM8.31311 30.2368C8.25494 30.1728 8.20646 30.1186 8.16768 30.0792C8.16284 30.0694 8.15315 30.0645 8.1483 30.0596C8.18708 30.1186 8.2307 30.1826 8.27433 30.2467C8.30826 30.2959 8.34219 30.3451 8.37613 30.3993C8.35674 30.3451 8.33734 30.291 8.31311 30.2368ZM9.00629 34.1808C8.93358 34.7175 8.83663 35.269 8.7009 35.8303C8.56033 36.3916 8.40036 36.9628 8.21132 37.5487C7.83322 38.7107 7.36787 39.9121 6.90737 41.1431C6.67954 41.7586 6.44687 42.3888 6.20934 43.0191C5.97182 43.6493 5.7246 44.2894 5.48708 44.9345C5.24471 45.5795 5.01689 46.2294 4.78907 46.8794C4.57093 47.5342 4.35764 48.1891 4.17829 48.8538C4.08134 49.1837 4.00379 49.5136 3.92138 49.8484C3.87775 50.0159 3.84866 50.1783 3.80988 50.3458C3.77595 50.5132 3.73718 50.6756 3.70809 50.8431C3.64993 51.1779 3.58692 51.5078 3.54814 51.8377C3.52875 52.0051 3.49966 52.1676 3.48512 52.335C3.47058 52.5024 3.45604 52.6649 3.44149 52.8323C3.43665 52.916 3.42695 52.9997 3.4221 53.0785L3.41241 53.3247C3.40756 53.4872 3.40272 53.6546 3.39787 53.8171C3.39787 53.9845 3.39787 54.1469 3.39787 54.3144C3.39787 54.4818 3.39786 54.6443 3.40271 54.8067C3.40271 54.8461 3.40271 54.8855 3.40271 54.92C3.40271 54.92 3.40271 54.9101 3.40271 54.9052C3.45603 54.728 3.46573 54.5064 3.47058 54.2454C3.47058 53.9795 3.52389 53.6841 3.55783 53.3493C3.63538 52.6846 3.83413 51.8968 4.12012 51.0351C4.4449 50.1734 4.86662 49.2576 5.34167 48.3024C5.98637 47.0074 6.62137 45.806 7.13035 44.772C7.37271 44.255 7.61509 43.7823 7.79444 43.3588C7.89139 43.1471 7.97864 42.9502 8.06105 42.768C8.13376 42.5858 8.20162 42.4184 8.25979 42.2657C8.29856 42.1131 8.34704 41.9408 8.39551 41.7537C8.44399 41.5666 8.48761 41.3598 8.54094 41.1431C8.64273 40.7049 8.76876 40.2125 8.88995 39.6709C9.13232 38.5926 9.40377 37.3271 9.48133 35.9829C9.50072 35.4905 9.51526 35.008 9.47648 34.5501C9.46679 34.3187 9.43286 34.0971 9.40862 33.8755C9.39408 33.7672 9.37469 33.6589 9.3553 33.5505C9.33591 33.4422 9.32621 33.3339 9.29713 33.2354C9.23411 32.9301 9.14686 32.6347 9.04991 32.359C9.08384 32.9351 9.0693 33.5407 8.99659 34.166L9.00629 34.1808Z" fill="#DCC9A8"/>
<path d="M2.57368 23.9348C2.57368 23.9348 4.98283 23.1026 6.10742 23.984C6.10742 23.984 3.02934 9.90676 2.87907 0L2.56883 23.9348H2.57368Z" fill="#DCC9A8"/>
<path d="M19.7196 67.4668C19.7196 67.4668 19.6518 67.452 19.516 67.4225C19.4482 67.4077 19.3658 67.388 19.264 67.3683C19.167 67.3437 19.0507 67.3191 18.915 67.3092C18.7841 67.2945 18.6338 67.2797 18.469 67.26C18.3042 67.2551 18.1248 67.26 17.9309 67.2502C17.834 67.2452 17.7322 67.2551 17.6304 67.2649C17.5286 67.2748 17.4171 67.2846 17.3105 67.2945C17.0875 67.3142 16.8597 67.3733 16.6125 67.4176C16.4913 67.452 16.3701 67.4865 16.2441 67.5259C16.181 67.5456 16.118 67.5653 16.055 67.5801C15.992 67.5998 15.929 67.6293 15.866 67.6539C15.7399 67.7032 15.6091 67.7573 15.4733 67.8115C15.3473 67.8804 15.2164 67.9444 15.0807 68.0134C14.5572 68.3039 14.024 68.6928 13.5441 69.1951C13.069 69.7022 12.6473 70.3276 12.3516 71.0464C12.2644 71.2188 12.2159 71.4157 12.148 71.6028C12.0753 71.7899 12.0414 71.9967 11.9978 72.1986C11.9735 72.302 11.9541 72.4005 11.9299 72.5039C11.9057 72.6073 11.9008 72.7156 11.8863 72.819C11.8717 72.9224 11.862 73.0307 11.8475 73.1391C11.8329 73.2474 11.8184 73.3508 11.8232 73.464C11.7118 75.1972 12.2498 77.1323 13.4956 78.6833C13.6507 78.8753 13.8252 79.0526 13.99 79.2446C14.1694 79.417 14.3633 79.5844 14.5475 79.7567C14.7511 79.9044 14.9547 80.0669 15.1631 80.2097C15.2746 80.2737 15.3812 80.3426 15.4927 80.4066C15.6042 80.4707 15.706 80.5494 15.8272 80.5987C16.2925 80.8301 16.7724 81.0271 17.2959 81.1649C17.5625 81.224 17.8195 81.3028 18.0909 81.352C18.3624 81.3914 18.6338 81.4308 18.9053 81.4653C20.0056 81.5588 21.1448 81.4554 22.25 81.1354C23.3552 80.8153 24.4167 80.2737 25.3571 79.5351C26.2975 78.7966 27.107 77.861 27.7081 76.7827C27.8535 76.5119 27.9796 76.2263 28.1201 75.9506C28.2365 75.6601 28.3383 75.3646 28.4498 75.0741C28.6437 74.4636 28.7891 73.8284 28.8909 73.1883C29.1478 71.4403 29.0266 69.6628 28.537 68.0281C28.0571 66.3934 27.2476 64.8916 26.1957 63.6508C25.1487 62.41 23.8787 61.4203 22.5166 60.731C21.1593 60.0417 19.6809 59.6379 18.2557 59.4213C15.3909 59.0077 12.6715 59.4754 10.4757 60.3666C8.26042 61.2529 6.56384 62.5381 5.3423 63.7345C4.23709 65.0394 3.07372 66.8415 2.34176 69.136C1.61465 71.4354 1.21717 74.1977 1.52255 77.1471C1.66312 78.6193 2.00731 80.1309 2.52113 81.6327C2.5793 81.8198 2.65685 82.0069 2.72956 82.194C2.80227 82.3811 2.87012 82.5682 2.94768 82.7553C3.1125 83.1197 3.26277 83.4988 3.45667 83.8632C3.81053 84.6018 4.23709 85.3108 4.6879 86.0149C6.52506 88.8166 9.2202 91.244 12.4873 92.7704C12.783 92.9181 13.0884 93.0412 13.3938 93.1692C13.6943 93.3022 14.0094 93.4056 14.3148 93.5188C14.6202 93.637 14.9401 93.7256 15.2552 93.8241L15.7254 93.9718L16.2004 94.0949C17.4656 94.4297 18.7259 94.6661 19.9717 94.7695C21.2175 94.8729 22.4487 94.8483 23.6363 94.7005C24.8288 94.5528 25.9825 94.282 27.0877 93.9226C29.2981 93.2086 31.2952 92.1352 33.1033 91.0274C34.9113 89.9096 36.5304 88.7329 37.9943 87.6398C39.4582 86.5417 40.7621 85.5127 41.911 84.6116C43.0549 83.7056 44.0438 82.9227 44.8485 82.2826C46.4627 81.0074 47.3643 80.3082 47.3643 80.3082C47.3643 80.3082 46.5402 81.096 45.0521 82.5239C44.3056 83.2379 43.3943 84.1044 42.323 85.104C41.2517 86.1035 40.0253 87.236 38.6244 88.4473C37.2235 89.6536 35.6578 90.9535 33.8546 92.2091C32.0514 93.4548 30.0106 94.6956 27.6403 95.5671C26.4575 96.0054 25.202 96.35 23.8835 96.5519C22.5699 96.7587 21.2029 96.8227 19.8263 96.739C18.4496 96.6553 17.0633 96.419 15.6963 96.0694C15.5267 96.0251 15.3521 95.9857 15.1825 95.9413L14.6735 95.7887C14.3342 95.6853 13.9949 95.5967 13.6507 95.4637C13.3114 95.3406 12.9624 95.2274 12.6279 95.0846C12.2886 94.9467 11.9493 94.8089 11.6197 94.6464C9.80674 93.8044 8.15378 92.6818 6.71896 91.3917C5.99669 90.7467 5.34714 90.0426 4.73153 89.3237C4.1353 88.5901 3.5827 87.8367 3.09311 87.0538C2.61322 86.266 2.1721 85.4683 1.8134 84.651C1.6195 84.2472 1.46923 83.8287 1.29958 83.42C1.22202 83.2132 1.15416 83.0064 1.08145 82.7996C1.00874 82.5928 0.936024 82.391 0.877857 82.1792C0.378574 80.5199 0.0877342 78.8655 0.0150223 77.2652C-0.0625343 75.6699 0.0441093 74.1337 0.291328 72.7156C0.538544 71.2926 0.926327 69.9829 1.39168 68.7913C1.86187 67.5998 2.44841 66.5559 3.06403 65.6598C3.68449 64.7636 4.32919 64.0103 4.9642 63.3899C5.54103 62.7153 6.23906 62.0112 7.08251 61.3317C7.92595 60.6522 8.91481 59.9974 10.0539 59.4459C11.1931 58.8944 12.4776 58.4267 13.8834 58.1558C15.2891 57.8703 16.816 57.7767 18.4011 57.9195C19.9814 58.0771 21.615 58.4365 23.2194 59.1652C24.8142 59.889 26.3266 60.9821 27.5821 62.3903C28.8424 63.7936 29.8313 65.5268 30.4227 67.4373C31.0237 69.3477 31.1837 71.4403 30.8783 73.5034C30.762 74.2617 30.5875 75.0003 30.3548 75.7192C30.2191 76.0786 30.093 76.438 29.9428 76.7926C29.7731 77.1323 29.6131 77.477 29.4289 77.8069C28.6776 79.1215 27.6645 80.2491 26.506 81.1206C25.3474 81.9921 24.0387 82.6076 22.7008 82.9523C21.3629 83.2969 19.9911 83.3708 18.6871 83.2034C18.3624 83.1443 18.0424 83.0852 17.7274 83.0261C17.4123 82.9572 17.1069 82.8538 16.8015 82.7652L16.5737 82.6962C16.4961 82.6667 16.4234 82.6371 16.3507 82.6076C16.2004 82.5485 16.055 82.4845 15.9047 82.4254C15.7545 82.3713 15.6139 82.2925 15.4733 82.2186C15.3328 82.1448 15.1922 82.0709 15.0564 81.9921C14.9159 81.9232 14.7898 81.8247 14.659 81.741C14.5281 81.6524 14.4021 81.5637 14.2712 81.48C14.024 81.2929 13.7913 81.0861 13.5586 80.8941C13.3453 80.6775 13.1272 80.4657 12.9236 80.2442C12.7346 80.0078 12.5407 79.7862 12.3662 79.545C10.9895 77.6148 10.5242 75.3203 10.7859 73.3705C10.7908 73.2474 10.815 73.1243 10.8392 73.0061C10.8635 72.888 10.8829 72.7698 10.9071 72.6516C10.9313 72.5334 10.9459 72.4153 10.9798 72.302C11.0137 72.1888 11.0477 72.0755 11.0816 71.9623C11.1495 71.7407 11.2076 71.5191 11.3046 71.3074C11.3967 71.0957 11.4694 70.884 11.5809 70.6919C11.9832 69.8992 12.5067 69.2394 13.0787 68.7273C13.6556 68.2152 14.2663 67.8459 14.8577 67.585C15.008 67.5259 15.1534 67.4619 15.294 67.4077C15.4394 67.3634 15.5848 67.3191 15.7254 67.2797C15.7981 67.26 15.866 67.2354 15.9338 67.2206C16.0017 67.2058 16.0744 67.1911 16.1423 67.1812C16.278 67.1566 16.4089 67.132 16.5397 67.1074C16.8015 67.0877 17.0439 67.0483 17.2766 67.0483C17.3929 67.0483 17.5044 67.0483 17.611 67.0483C17.7177 67.0483 17.8243 67.0483 17.9213 67.0631C18.12 67.0877 18.3042 67.1024 18.469 67.1271C18.6338 67.1615 18.7841 67.196 18.915 67.2255C19.0507 67.2502 19.1622 67.2896 19.2591 67.3191C19.3561 67.3536 19.4385 67.3782 19.5063 67.3979C19.6372 67.4422 19.7051 67.4619 19.7051 67.4619L19.7196 67.4668Z" fill="#DCC9A8"/>
<path d="M17.4458 67.1219C15.7007 69.3672 19.2248 71.4155 20.3445 69.382C21.1201 67.9738 18.9339 66.2997 17.6445 67.2253L17.4458 67.1219Z" fill="#DCC9A8"/>
<path d="M2.61793 27.3074C2.56461 27.5388 2.68095 27.785 2.88938 27.9868C3.09782 28.1887 3.38867 28.3512 3.70859 28.4448C4.02852 28.5383 4.76533 28.6072 5.31793 28.9076C5.59423 29.0504 5.84144 29.2523 6.00625 29.4443C6.17107 29.6314 6.2777 29.784 6.33587 29.7693C6.36011 29.7693 6.3795 29.72 6.39405 29.6363C6.40374 29.5526 6.42798 29.4295 6.41343 29.2818C6.39889 28.9815 6.27286 28.5679 6.01595 28.1789C5.76389 27.7899 5.39549 27.4551 5.04648 27.2286C4.70231 27.0021 4.38238 26.8544 4.18364 26.7953C3.78131 26.6771 3.40805 26.6968 3.13175 26.7953C2.85545 26.8987 2.6761 27.0759 2.62278 27.3074H2.61793Z" fill="#DCC9A8"/>
<path d="M3.25769 31.5224C3.35949 31.6405 3.53399 31.675 3.72304 31.6405C3.91209 31.6061 4.11567 31.5125 4.29018 31.3746C4.46953 31.2368 4.79431 30.8626 5.17241 30.6755C5.35661 30.5819 5.56504 30.5277 5.72985 30.513C5.89466 30.4982 6.01585 30.4982 6.0304 30.4637C6.04009 30.4391 5.96738 30.3406 5.80257 30.2323C5.63776 30.124 5.3663 30.0255 5.06092 30.0157C4.75553 30.0009 4.43076 30.0698 4.17385 30.1683C3.91694 30.2668 3.71334 30.385 3.60185 30.4687C3.37887 30.641 3.24315 30.8527 3.18499 31.0447C3.13166 31.2368 3.15105 31.4042 3.25284 31.5273L3.25769 31.5224Z" fill="#DCC9A8"/>
<path d="M7.16446 96.8617C6.97057 97.1078 7.2711 97.7479 8.00306 98.5358C8.73501 99.3137 9.91293 100.249 11.4302 100.924C11.8083 101.096 12.3221 101.283 12.928 101.465C13.5388 101.638 14.2562 101.795 15.0318 101.879C15.8073 101.968 16.6411 101.982 17.4748 101.914C18.3086 101.845 19.1423 101.682 19.9179 101.456C21.4788 101.003 22.8021 100.279 23.7037 99.683C24.6053 99.0774 25.1095 98.6096 25.0755 98.5505C25.0368 98.4865 24.4211 98.777 23.442 99.1463C22.4628 99.5107 21.1055 99.9391 19.6465 100.111C18.9194 100.195 18.168 100.22 17.4409 100.175C16.7138 100.131 16.0061 100.023 15.3614 99.8652C14.7118 99.7126 14.1253 99.5156 13.6163 99.3236C13.1074 99.1217 12.6808 98.9395 12.3512 98.7869C11.0375 98.2059 9.85961 97.5855 8.9386 97.1866C8.02245 96.7829 7.3632 96.6056 7.16446 96.8617Z" fill="#DCC9A8"/>
</g>
<defs>
<clipPath id="clip0_3478_3217">
<rect width="128" height="128" fill="white" transform="matrix(-1 0 0 1 128 0)"/>
</clipPath>
</defs>
</svg>
