<svg xmlns="http://www.w3.org/2000/svg" width="145" height="21" fill="none" viewBox="0 0 145 21"><g fill="#b89668" clip-path="url(#a)"><path d="M136.379 14.874c-.78 1.677-2.361 3.133-3.979 4.014-.401.217-1.25.652-1.664.748a.52.52 0 0 1-.626-.462c2.759-1.175 5.354-3.36 5.852-6.451l-3.09.318-.807-.567a11.1 11.1 0 0 1-3.4 5.337c-.236.204-1.364 1.082-1.603 1.021-.14-.034-.336-.284-.313-.44.022-.215 1.046-.897 1.292-1.12 2.698-2.437 4.258-7.024 3.404-10.594-.101-.425-.488-.642-.462-1.07l2.114.497 6.972.005.644-.738c.345.117 1.717.992 1.626 1.337-.055.213-.835.563-1.058.648-.265.811.711 2.528-.361 2.825-.708.196-.684-.053-.65-.69h-7.714l-.244 2.313 4.475.17c.011-.523.035-1.013-.201-1.493-.12-.242-.52-.47-.242-.746l1.984.496c.183.398-.217.433-.382.624-.217.254-.238.787-.246 1.119h4.894c.135-.316.57-1.053.934-.982.244.05 1.477 1.282 1.472 1.523l-.125.202h-7.756c.029.17.464.138.414.371-.019.088-.876.597-.664 1.035h3.194c.199 0 .223-1.011 1.12-.29.798.642 1.488 1.383-.077 1.539-.178 1.486-.693 3.815-2.282 4.382-.249.09-.83.207-1.079.16-.21-.04-.427-.372-.65-.512-.531-.332-1.165-.507-1.722-.778.011-.17.091-.44.292-.445.812.244 1.711.522 2.571.406 1.403-.191 1.788-2.576 1.79-3.717h-3.65zm3.899-8.024h-7.507c-.093.072-.207.525-.207.62v1.282h7.714zm-29.779-.374c-.57.056-1.568.353-2.098.23-.385-.087-.778-.747-1.053-1.018-.088-.387 1.069-.053 1.286-.04.578.035 1.181-.08 1.74.083l.093-.168-.217-1.236-3.104.327c-.451-.07-.897-.804-1.207-1.112-.008-.268 1.263.03 1.451.04.44.026.889-.021 1.329 0 .772.032 1.576.188 2.361.045.249-.114 1.592-2.27 1.647-2.584.029-.172-.17-.679.22-.65.213.016 1.43.746 1.436.987l-.085.204c-.754-.005-.926.565-1.348 1.011-.318.334-.777.66-.955 1.074h1.868l.705-.955c.181-.116.361.064.499.167.17.13 1.133 1.12 1.151 1.253l-.117.196h-4.52c.385.382-.31.828-.087 1.366l1.191.024c.302-.16.544-.94.91-.883.244.037 1.292 1.13 1.353 1.392l-.088.17h-3.319l-.124.125v1.28h2.53l.815-.98 1.459 1.445-.117.196h-4.563c-.119.072-.114.165-.129.287-.088.743.159 1.53.087 2.279.13.024.191-.014.295-.08.212-.138 1.132-1.204 1.217-1.432.085-.229.013-.645.289-.711.255-.061 1.136.658 1.398.817l-.063.315c-.579-.026-1.197.46-1.587.857-.071.072-.18.07-.14.234h2.363l.923-1.067c.226-.04 1.491 1.29 1.512 1.534l-.127.18-7.788.01-3.714.319c-.138-.043-.944-.9-1.013-1.059-.064-.146-.03-.156.087-.241 1.183.324 2.411.16 3.603.324.122-.112-1.178-1.558-1.314-1.709.011-.172.178-.437.359-.443.23-.005 1.732 1.12 1.872 1.358.205.348-.029.473-.087.79.297-.036.692.112.912-.124V8.545c-.398.016-.803-.024-1.201 0-.626.04-1.86.353-2.406.244-.295-.058-.9-.862-1.12-1.114 0-.255 1.181.03 1.369.04 1.114.074 2.244.08 3.358.085V6.476zm-38.132-2.17h2.114c.347-.27.43-.801.875-.96.218.053 1.451 1.254 1.324 1.62h-2.49l.17.29c-.549.642-.273 1.493-.337 2.276.228-.035.64.071.83-.043.15-.087.484-.833.789-.93.644.328 1.13.917 1.514 1.511-.005.045-.172.207-.185.207h-2.945v2.398c1.082.257.96-.57 1.685-.981.161.024.83.695.968.86.188.227.467.485.416.782h-3.069v2.73c.753.052 1.852-.51 2.533-.486.252.008.59.36.37.525-1.12.36-2.25.7-3.383 1.01-.83.229-2.318.436-3.003.728-.435.185-.475 1.06-.979.769-.055-.032-.732-.875-.796-.982-.17-.289-.392-.602.008-.803l2.011-.186c-.06-.432.085-.865.09-1.273.008-.624-.037-2.42-.233-2.918-.14-.35-.61-.534-.297-.857l2.1.586c.07.358-.33.425-.498.618-.273.319-.154 1.133-.165 1.573-.002.14-.084.284-.084.42 0 .511.175 1.14.085 1.692l1.238-.17.006-6.035-2.595.316c-.307-.04-1.071-.825-1.138-1.101-.095-.411.658-.072.881-.05.944.087 1.905.095 2.852.092.087-.085-.088-2.25-.183-2.424-.032-.059-.043-.117-.12-.13-1.026-.226-1.045.329-1.565.899-.125.138-.84.875-.931.897-.204.053-.477-.194-.584-.361 1.306-1.536 2.536-3.239 2.796-5.3.168-.122 1.385.583 1.505.745.397.539-.46.393-.672.666zM14.52 18.628c.169.96.052 1.637-1.11 1.477l-.14-.196.254-2.642c.045-1.069.136-5.674-.265-6.361-.117-.199-.459-.337-.279-.634.061-.104.425.016.542.042.406.096.87.33 1.284.374 1.867.202 4.074-.154 5.979.006.448-.016.374-.762.888-.655.22.045 1.478.96 1.46 1.172-.032.387-1.046.671-1.07.775.027.848-.02 1.703 0 2.554.04 1.507.27 3.056.335 4.547.008.172.031.4-.016.562-.125.422-1.226.624-1.226.348V18.63H14.52zm2.572-7.197h-2.406c.035.125-.167.332-.167.372v2.44h2.82c0-.94.019-1.913-.25-2.812zm4.064 2.812v-2.687l-.124-.125h-2.613c.355.358-.038.464-.085.868-.043.363-.125 1.331-.085 1.66.013.12.01.212.127.284zm-3.814.663h-2.696l-.124.125v2.854h2.82zm3.814 0h-2.78c-.12.072-.114.165-.127.287-.098.843.074 1.84.087 2.692h2.82zm78.231-3.162c-.202 1.862-.891 4.022-2.075 5.5-.153.193-.912 1-1.08 1.082-.166.082-.485-.16-.498-.34s1.154-1.578 1.366-1.947c1.711-2.98 1.634-7.733 1.457-11.118-.03-.551-.059-1.278-.314-1.756-.137-.257-.517-.374-.214-.692 1.103.199 2.334.716 3.472.501.305-.058.326-.673.663-.803.632.291 1.162.753 1.613 1.27.037.212-.615.59-.809.624.04.376-.077.756-.096 1.103-.217 3.96.144 8.093.146 12.057-.127.522-.501 1.063-1.053 1.183-.886.188-.825-.353-1.472-.693-.475-.249-1.947-.329-1.215-1 .589.03 2.234.595 2.536-.111.045-.539.127-1.138.149-1.671.034-.796.09-2.149 0-2.905-.014-.12-.011-.212-.128-.287H99.39zm2.406-8.024h-1.95c-.034 0-.17.162-.19.225-.014.04-.102.533-.102.563v2.44h2.324l-.082-3.226zm.082 3.97h-2.324l-.082 3.394h2.364c.119-.072.114-.165.127-.287.117-.997-.175-2.098-.088-3.106zm-57.799 5.89c.323.32 0 .4-.075.71-.116.468-.09.964-.09 1.441h2.53c.16-.18.735-1.074.958-1.04.345.143 1.579 1.29 1.573 1.584l-.124.202H43.91v1.777c0 .045.127.183.082.289h5.6c.223-.244.716-1.175 1.066-1.14.308.029 1.258 1.063 1.462 1.35.127.177.337.35.114.54l-13.096-.007-3.451.292c-.295-.048-1.144-.924-1.149-1.157l.122-.188c2.735.522 5.563.238 8.34.313v-2.07c-.591-.005-1.194.03-1.782.083-.438.04-1.672.326-1.98.154-.135-.077-.941-.931-.965-1.027l.13-.199c1.515.295 3.061.244 4.597.244-.026-.721-.05-1.453-.257-2.143-.637.034-1.305.026-1.94.074-.596.045-1.901.337-2.403.244-.31-.058-.822-.647-.994-.912-.075-.114-.226-.358 0-.404.077-.016 1.31.223 1.573.242.634.042 1.278-.072 1.904.087 1.884-.19 4.237.242 6.064 0 .467-.06.81-1.045 1.236-1 .226.024 1.51 1.255 1.528 1.464l-.114.194h-5.515zm2.517-10.359c.22-.064.355-.783.74-.748.21.019 1.377.955 1.42 1.154.087.408-.813.538-.876.875.06.796.037 1.605.085 2.398.031.528.371 1.969.058 2.335-.143.167-.783.371-.976.236l-.077-.708h-6.345l-.17.08c-.056.57-.22.835-.825.837-.207 0-.435.037-.459-.215.164-1.618.366-3.337.255-4.965-.032-.467-.117-.918-.319-1.337-.095-.202-.35-.3-.265-.602.663-.083 2.117.915 2.653.618.236-.13 1.39-2.327 1.17-2.762.15-.257 1.382.53 1.562.7.501.473-.239.478-.493.573-.316.117-1.035 1.223-1.327 1.534h4.189zm.374 2.4V4.01l-.125-.125h-6.22c-.027 0-.125.109-.207.082v1.656zm0 .743h-6.552v1.738h6.552zm35.217-1.642c-.44.128-.27 1.926-.286 2.361a99 99 0 0 0 .161 10.99c-.06.677-1.358.634-1.41.409l.254-4.616c.024-2.292-.003-4.586-.09-6.865-.03-.764.095-1.735-.099-2.464-.074-.281-.825-1.112-.21-1.04.508.058 1.218.488 1.685.56.29.045 1.966.04 2.139-.072.127-.082.201-.576.509-.584.278-.005 1.52.884 1.445 1.18-.071.287-.62.38-.716.494-.172.207-.12 2.998-.109 3.5-.037 1.169.337 3.007.15 4.11-.078.46-.439 1.022-.89 1.181-.848.297-.883-.31-1.506-.655-.348-.194-.764-.276-1.141-.393-.053-.167-.005-.506.194-.535.48.077 1.96.512 2.164-.112a48 48 0 0 0 .125-4.021c0-.236-.085-.435-.09-.655-.027-.921.09-1.873-.08-2.775h-2.199zM2.08 15.333c-.103.478-1.058.767-1.381.337l.307-3.642C.92 10.434 1.144 8.651.9 7.081.842 6.715.608 6.319.34 6.065c-.02-.09.059-.167.136-.194.45-.143 1.485.49 1.984.56.591.082 1.297-.05 1.905.013l.453-.629c.337-.252 1.488 1.006 1.541 1.2.13.469-.697.554-.718.63l.238 6.76c-.103.337-1.045.626-1.31.262v-1.366H2.08c-.085.581.116 1.491 0 2.027zm2.491-8.146H2.205l-.124.207-.083 5.17h2.656zm12.076-2.401.15 2.255c-.105.541-1.214.716-1.3.342-.03-.146.139-.918.152-1.151.024-.454-.016-.913 0-1.364l-2.358.247c-.18-.03-.414-.241-.547-.369-.143-.135-.835-.86-.445-.944.08-.016 1.23.223 1.488.239.645.04 1.302-.027 1.95 0-.072-.971.042-1.817-.398-2.706-.064-.127-.374-.363-.178-.517.093-.072 2.01.326 2.114.488.191.302-.626.613-.626 1.037V4.12h2.488V2.258c0-.037-.119-.438-.148-.515-.07-.185-.647-.862-.31-.912l2.119.475c.162.236-.663.732-.663.95v1.862h1.7c.348-.382.573-.908 1.064-1.146.212.018 1.045.82 1.215 1.024.074.09.645.782.292.782h-4.271l.069 2.51c-.305.376-.799.307-1.231.302l.167-2.812h-2.488zm92.324 13.972c.157.942-.186 1.552-1.207 1.244.043-.472.178-.982.212-1.451.064-.878.138-2.55-.26-3.295-.071-.132-.451-.374-.23-.546.241-.186 1.607.517 1.947.567.599.09 2.957.093 3.565.009.456-.061.403-.491.618-.63.297-.185 1.353.797 1.552 1.078.04.27-.748.435-.807.745-.039.215-.008.666 0 .91.019.435.313 1.86.234 2.133-.12.4-.783.552-1.146.472v-1.241h-4.481zm4.48-.745v-1.945l-.124-.125h-4.146a1.3 1.3 0 0 0-.207.207v1.863h4.48zM64.27 9.564l1.242.456c-.104.326-.528.395-.624.7-.058.186-.106.947-.119 1.204-.12 2.216.109 4.486.162 6.699-.032.48-1.316.652-1.321.257.06-.467.14-1.035.162-1.499.08-1.86.103-3.682 0-5.539-.03-.509.1-1.053-.122-1.533-.104-.146-.12-.026-.207.043-.398.313-.764.679-1.17.984-.51.382-1.547 1.392-1.9.424.454-.374.971-.687 1.412-1.077.774-.684 2.669-2.62 2.857-3.586.032-.162-.14-.422.13-.555.225-.111 1.629.785 1.64.913.026.297-.447.292-.611.368-.475.218-1.093 1.356-1.528 1.743zm79.91-7.29c-.183.016-.353.074-.536.088-3.626.252-7.544-.183-11.205-.008-.97.047-2.042.36-2.986.172-.115-.066-.905-.942-.924-1.037 0-.013.045-.22.112-.212.952.265 1.926.201 2.894.249 3.249.154 6.523.066 9.783.085.318-.064.828-1.17 1.146-1.143.268.023 1.594 1.302 1.682 1.551a.5.5 0 0 1 .034.252zM65.626 1.19c.233-.051 1.448.678 1.507.87.026.09.034.203-.024.28-.886.11-1.268 1.096-1.83 1.733a14.5 14.5 0 0 1-1.664 1.567c-.273.22-1.39 1.072-1.658 1.072-.156 0-.575-.292-.538-.446 1.286-.928 3.478-2.78 3.976-4.308.09-.278-.034-.71.228-.769z"/><path d="M110.136 2.038c.453.533-.144 1.38-.555 1.263-.231-.067-.663-.817-.867-1.046-.271-.3-1.549-1.222-.785-1.533.055-.045.103-.018.164-.005.342.082 1.806 1.04 2.045 1.32z"/></g><defs><clipPath id="a"><path fill="#fff" d="M0 0h145v21H0z"/></clipPath></defs></svg>