<svg xmlns="http://www.w3.org/2000/svg" width="45" height="48" fill="none" viewBox="0 0 45 48"><g clip-path="url(#a)"><path fill="#343a40" d="m32.946 41.791 2.024-1.978c-.162-1.299.045-2.914-.014-4.261-.25-5.69-3.187-14.106-9.105-15.982-.934-.297-1.914-.4-2.764-.934-.417-.262-1.593-1.168-1.731-1.287a14.1 14.1 0 0 1-3.516 3c-3.437 2.038-8.102.797-8.102.797-.23 1.185.075 2.372.542 3.456.893 2.081 2.497 3.834 4.145 5.332.063-.836-.33-1.63-.552-2.409-.018-.067-.087-.227.039-.21.308.72.601 1.447.773 2.219.517 2.314.345 5.176.114 7.54-.064.669-.596 4.784-.904 5.053-.957.36-2.61.961-2.77 2.139-.018.134.026.689.063.8.05.157.926.243 1.115.254 1.411.084 2.843-.017 3.511-1.427l1.794-.332c-.055.153-.1.315-.127.496-.297 1.938 2.303.583 3.096.369 1.897-.514 4.182.058 6.14.136 1.448.058 5.347.117 6.128-1.336.378-.704.11-1.1-.148-1.772q.138.175.247.341zm-7.252.274 1.515-.28 1.185.493zM15.43 16.946c1.71.522 3.802.543 5.542.036-.404-1.109-.854-2.456-.882-3.944-1.72-.327-4.36-.753-4.848-2.762l.342.585c1.284 1.461 3.316 1.437 5.08 1.7.926.137 2.474.68 3.327.236.28-.147.435-.466.642-.592.144-.088.321-.07.445-.172.205-.17.326-.818.243-1.071-.04-.129-.193-.192-.173-.341h.614l-.103.551c.255-.212.59-.85.476-1.168-.19-.527-1.23-1.056-1.565-1.526-.384-.54-.478-1.369-.845-1.974-.638-1.053-2.375-1.916-3.55-2.141-.855-.164-1.128.186-1.502-.76-.371-.94-.273-1.724-.36-2.672-.12-1.33-1.019-1.06-1.705-.276-.604.69-1.98 3.454-2.05 4.345-.043.537.083.973.203 1.481l-.476-1.103c-.209.354-.482.624-.696.988-1.312 2.224-1.537 5.274-2.074 7.769 1.081 1.192 2.345 2.329 3.915 2.81zm6.435-10.359c.858.293.788.941 1.16 1.586.165.283.434.456.617.72-.203.03-.518-.252-.66-.262-.087-.005-.262.15-.414.18-.906.174-1.657-.305-2.068-1.087.778.095 1.452.624 2.255.55-.526-.86-.855-1.348-1.951-1.314-.461.015-.865.222-1.303.27-.075.008-.31.07-.299-.06.875-.434 1.633-.937 2.661-.585zm-4.812-3.482.442-.967v1.07c0 .126.27.58.277.829.011.36-.308.74-.208 1.134l-.512-.827c-.184-.397-.101-.836 0-1.239"/><path fill="#343a40" d="M13.484 41.914c.288-.236.828-4.216.898-4.851.146-1.321.238-2.663.244-3.991.002-.466.026-2.217-.137-2.514-.834-.689-1.515-1.53-2.214-2.349.39 2.743.581 5.535.48 8.313-.045 1.236-.159 2.978-.445 4.172-.327 1.371-1.212 1.18-2.201 1.777-1.75 1.057-1.4 3.402.841 2.635 0 0-.321-1.14.393-1.832.556-.536 1.417-1.125 2.143-1.36zM19.177 4.06c.29.184 1.337.059 1.7.351.07-.052.076-.056.076-.141-.005-.29-.101-.643-.112-.924-.02-.567.118-2.728-.592-2.924-.379-.104-.796.636-.977.92-.269.424-.655 1.005-.607 1.512.026.277.279 1.06.513 1.207z"/><path fill="#b89668" d="M24.076 33.33H23.04v1.933h1.035z"/><path fill="#b89668" d="M25.152 33.6v-.003a.52.52 0 0 0-.517-.521H22.48a.52.52 0 0 0-.516.521v.002a.52.52 0 0 0 .516.522h2.154a.52.52 0 0 0 .517-.522m8.644 11.764H13.362c0-5.697 4.574-10.316 10.217-10.316s10.218 4.619 10.218 10.316z"/><path fill="#343a40" d="M34.969 39.81c.227 1.814 2.452 2.788.732 4.983-1.349 1.72-4.01 2.513-6.11 2.591-3.133.118-6.656-1.054-9.652-.089-.465.15-1.656.805-2.017.693-.52-.158.245-1.377.463-1.641 2.329-2.823 8.13-.882 11.411-1.1 2.056-.136 3.628-.96 3.29-3.638"/><path fill="#b89668" d="M17.842 20.347A14.1 14.1 0 0 0 21.31 17.4l.042-.06a1.3 1.3 0 0 1-.378-.361c-1.739.507-3.822.21-5.53-.313-1.57-.479-2.84-1.336-3.922-2.527-.125.932-1.733 6.63-1.782 7.004 0 0 4.666 1.24 8.102-.797"/><path fill="#b89668" d="M15.591 15.91c1.925.671 3.704.679 5.172.476q-.075-.224-.149-.455c-1.355.095-3.198.043-4.93-.578-1.484-.53-2.88-1.53-3.889-2.668l-.11.613c.946 1.282 2.295 2.052 3.908 2.613zm6.817 2.244c-.178-.13-.358-.269-.523-.393-.489.637-2.48 3.042-5.31 3.959-2.436.79-5.706.453-6.915.272q.002.375.06.743c1.795.222 4.262.397 7.294-.453 2.783-.778 4.871-3.454 5.394-4.13z"/></g><defs><clipPath id="a"><path fill="#fff" d="M0 0h45v48H0z"/></clipPath></defs></svg>