<svg xmlns="http://www.w3.org/2000/svg" width="294" height="355" fill="none" viewBox="0 0 294 355"><path fill="#dcc9a8" d="M202.321 100.889s63.266 58.921 25.002 138.99H56.673s-48.729-55.236 7.24-134.803z"/><path fill="#dcc9a8" d="M226.018 197.467a8.81 8.81 0 0 1-8.088-5.313c-1.927-4.46.13-9.633 4.595-11.558 9.297-4.01 15.026-9.364 17.512-16.37 4.173-11.762.013-29.686-12.362-53.282-4.131-7.879-5.817-15.533-5.01-22.75.79-7.053 3.944-13.242 9.123-17.898 11.586-10.42 30.223-10.68 45.312-.638 4.045 2.693 5.141 8.152 2.448 12.193-2.696 4.044-8.161 5.135-12.206 2.442-9.361-6.226-19.043-5.18-23.774-.926-4.525 4.07-4.633 11.146-.295 19.419 14.946 28.499 19.319 50.519 13.362 67.314-4.154 11.711-13.283 20.674-27.131 26.647a8.8 8.8 0 0 1-3.483.723z"/><path fill="#ca847d" d="M216 182h53c13.255 0 24 10.745 24 24v125c0 13.255-10.745 24-24 24h-53z"/><path fill="#eeded9" d="M25 182h168c13.255 0 24 10.745 24 24v107c0 13.255-10.745 24-24 24H25z"/><path fill="#dc9e97" fill-rule="evenodd" d="M22.25 151C10.509 151 1 160.52 1 172.25V321a34.003 34.003 0 0 0 34 34h232a34 34 0 0 1-24.042-9.958A34 34 0 0 1 233 321V172.25c0-11.741-9.52-21.25-21.25-21.25zm105.25 76.5a8.5 8.5 0 0 0 0 17h63a8.5 8.5 0 0 0 0-17zM119 202a8.5 8.5 0 0 1 8.5-8.5h63a8.5 8.5 0 0 1 0 17h-63a8.5 8.5 0 0 1-8.5-8.5m-75.5 59.5a8.5 8.5 0 0 0 0 17h147a8.5 8.5 0 0 0 0-17zM35 304a8.5 8.5 0 0 1 8.5-8.5h147a8.5 8.5 0 0 1 0 17h-147A8.5 8.5 0 0 1 35 304m8.5-110.5A8.5 8.5 0 0 0 35 202v34c0 4.692 3.808 8.5 8.5 8.5h50a8.5 8.5 0 0 0 8.5-8.5v-34a8.5 8.5 0 0 0-8.5-8.5z" clip-rule="evenodd"/><path fill="#dc9e97" d="M245 182h30c9.936 0 18 6.325 18 14.118v127.058c0 4.993-2.529 9.781-7.029 13.311C281.47 340.017 275.365 342 269 342s-12.47-1.983-16.971-5.513S245 328.169 245 323.176z"/><path fill="#dcc9a8" d="M195.785 111.626c7.694-5.237 11.984-14.217 11.139-23.479-2.292-25.115-14.971-78.013-81.308-74.53-64.907 3.407-74.433 55.191-75.113 81.074-.263 10.011 5.24 19.266 14.2 23.758 12.346 6.191 33.79 12.909 67.194 11.155 33.31-1.748 53.019-10.584 63.892-17.978z"/><path fill="#dcc9a8" d="M57.848 8.26c-1.248 7.615-4.566 35.11 11.016 42.995l29.943-25.096S94.422 12.053 60.188 6.59c-1.108-.177-2.159.562-2.34 1.669M190.94 2.17c2.226 8.49 7.456 33.895-6.678 43.027l-32.41-21.823S154.681 9.138 187.336.108a2.92 2.92 0 0 1 3.604 2.062"/><path fill="#9e7844" d="M119.858 92.924q-.324.001-.648-.022a1.32 1.32 0 0 1-1.222-1.408 1.325 1.325 0 0 1 1.41-1.222c1.193.083 2.918-.114 4.372-1.538 1.781-1.748 2.607-4.853 2.391-8.983a1.32 1.32 0 0 1 1.248-1.386 1.313 1.313 0 0 1 1.388 1.247c.327 6.2-1.55 9.404-3.179 11.003-1.53 1.504-3.556 2.31-5.76 2.31"/><path fill="#9e7844" d="M135.538 92.1a8.1 8.1 0 0 1-5.354-1.986c-2.416-2.103-3.769-5.592-4.02-10.366a1.32 1.32 0 0 1 1.248-1.386 1.31 1.31 0 0 1 1.387 1.247c.21 3.977 1.29 6.924 3.119 8.516 1.444 1.256 3.051 1.412 4.131 1.317a1.327 1.327 0 0 1 1.429 1.202 1.32 1.32 0 0 1-1.204 1.427 8 8 0 0 1-.736.032z"/><path fill="#9e7844" d="M118.586 78.099c.219 4.155 9.069 4.881 9.069 4.881s8.723-1.668 8.503-5.823c-.219-4.156-17.791-3.213-17.572.942m66.13-2.531c-4.887 0-8.252-.413-8.595-.457a1.32 1.32 0 0 1-1.143-1.475 1.31 1.31 0 0 1 1.476-1.142c.203.025 20.821 2.537 35.32-5.275a1.32 1.32 0 0 1 1.787.533c.346.64.108 1.44-.536 1.786-9.307 5.018-20.666 6.026-28.312 6.026zm14.223 10.052c-12.626 0-24.162-3.712-24.771-3.908a1.319 1.319 0 1 1 .819-2.506c.181.06 18.353 5.893 33.481 2.921a1.32 1.32 0 0 1 1.549 1.04 1.317 1.317 0 0 1-1.041 1.548c-3.302.65-6.71.907-10.041.907zM66.74 81.769c-6.373 0-13.642-.806-20.186-3.493a1.32 1.32 0 1 1 1.003-2.44c15.236 6.256 35.472 1.597 35.679 1.55a1.323 1.323 0 0 1 1.587.98 1.32 1.32 0 0 1-.98 1.585c-.512.12-7.863 1.818-17.103 1.818M56.277 93.12c-1.372 0-2.743-.056-4.105-.177a1.32 1.32 0 1 1 .234-2.626c15.375 1.377 32.815-6.331 32.99-6.41.666-.299 1.444 0 1.746.666a1.32 1.32 0 0 1-.667 1.744c-.676.302-15.4 6.807-30.198 6.807zm11.675-48.409c-.299 0-.6-.101-.848-.307-11.676-9.799-8.09-34.25-7.932-35.285a1.325 1.325 0 0 1 1.502-1.104 1.32 1.32 0 0 1 1.105 1.504c-.035.238-3.522 24.02 7.02 32.867a1.317 1.317 0 0 1-.85 2.328zm91.88-24.839a1.318 1.318 0 0 1-1.023-2.154C165.144 9.982 185.686 2.1 186.556 1.77a1.32 1.32 0 0 1 .943 2.468c-.207.079-20.754 7.961-26.645 15.152-.26.317-.641.485-1.022.485zM88.938 67.273a1.318 1.318 0 0 1-.054-2.636l15.054-.618a1.333 1.333 0 0 1 1.375 1.262 1.32 1.32 0 0 1-1.264 1.37l-15.054.619h-.054zm64.853-2.426a1.318 1.318 0 0 1-.054-2.636l15.058-.619c.705-.044 1.343.536 1.375 1.263a1.317 1.317 0 0 1-1.264 1.37l-15.057.618h-.054z"/><path fill="#dcc9a8" d="M58.795 148.893a8.22 8.22 0 0 0-1.086 7.66c1.644 4.507 6.379 11.013 19.985 11.19 14.308.187 18.805-7.137 20.218-11.758a8.15 8.15 0 0 0-.918-6.753c-2.423-3.806-8.02-9.735-19.296-9.367-10.698.349-16.29 5.466-18.9 9.028z"/><path fill="#9e7844" d="M95.836 149.061c-.42 0-.832-.2-1.09-.571-1.876-2.728-6.585-7.305-17.051-7.305-9.24 0-14.305 4.479-16.5 7.146a1.32 1.32 0 0 1-2.038-1.675c2.493-3.029 8.211-8.11 18.54-8.11 11.677 0 17.059 5.294 19.228 8.45a1.318 1.318 0 0 1-1.086 2.065zm-28.484 15.326c-.356 0-.709-.142-.969-.422-2.02-2.172-1.88-8.338-1.832-9.55a1.31 1.31 0 0 1 1.372-1.266 1.32 1.32 0 0 1 1.267 1.371c-.099 2.49.193 6.645 1.127 7.65a1.32 1.32 0 0 1-.968 2.217zm19.857 0a1.32 1.32 0 0 1-.969-2.217c.94-1.008 1.23-5.164 1.128-7.65a1.32 1.32 0 0 1 1.267-1.371c.686-.019 1.343.536 1.371 1.266.048 1.215.188 7.378-1.832 9.55-.26.28-.613.422-.968.422zm-9.439 0a1.32 1.32 0 0 1-1.32-1.313l-.032-8.602c0-.73.587-1.323 1.315-1.323h.006a1.32 1.32 0 0 1 1.32 1.313l.033 8.603c0 .729-.588 1.322-1.315 1.322z"/><path fill="#dcc9a8" d="M177.867 148.893a8.22 8.22 0 0 0-1.086 7.66c1.645 4.507 6.379 11.013 19.986 11.19 14.308.187 18.804-7.137 20.217-11.758a8.15 8.15 0 0 0-.918-6.753c-2.422-3.806-8.021-9.735-19.296-9.367-10.698.349-16.29 5.466-18.9 9.028z"/><path fill="#9e7844" d="M214.908 149.061c-.419 0-.832-.2-1.089-.571-1.877-2.728-6.586-7.305-17.052-7.305-9.24 0-14.305 4.479-16.499 7.146a1.32 1.32 0 0 1-1.858.181 1.316 1.316 0 0 1-.181-1.856c2.493-3.029 8.215-8.107 18.541-8.107 11.676 0 17.058 5.294 19.227 8.45a1.318 1.318 0 0 1-1.086 2.065zm-28.482 15.326c-.356 0-.708-.142-.969-.422-2.019-2.172-1.879-8.338-1.832-9.55a1.31 1.31 0 0 1 1.372-1.266 1.32 1.32 0 0 1 1.267 1.371c-.099 2.49.194 6.645 1.127 7.65a1.32 1.32 0 0 1-.968 2.217zm19.857 0a1.32 1.32 0 0 1-.968-2.217c.936-1.005 1.225-5.161 1.127-7.651a1.32 1.32 0 0 1 1.267-1.37 1.307 1.307 0 0 1 1.372 1.266c.047 1.215.187 7.378-1.833 9.55-.26.28-.612.422-.968.422zm-9.436 0a1.32 1.32 0 0 1-1.321-1.313l-.032-8.602c0-.73.588-1.323 1.315-1.323.701-.031 1.324.587 1.324 1.313l.032 8.603c0 .729-.588 1.322-1.315 1.322h-.006z"/></svg>