<svg width="156" height="45" viewBox="0 0 156 45" fill="none" xmlns="http://www.w3.org/2000/svg">
<g clip-path="url(#clip0_4051_7462)">
<path d="M68.8172 29.2446C68.8172 25.6854 66.4505 24.9511 64.4238 24.9511C62.8992 24.9511 61.6649 26.1917 61.6649 27.7181C61.6649 29.2446 62.9018 30.4852 64.4238 30.4852C65.1717 30.4852 65.849 30.1862 66.3459 29.701C67.5619 31.975 65.0305 35.2693 61.0242 35.2693C57.0178 35.2693 54.5649 33.0845 53.9451 30.7685C53.9451 30.7685 53.1553 31.4452 53.1004 32.295C51.7484 31.2223 49.7766 28.0591 49.8603 25.8822C49.8603 25.8822 48.4246 26.9261 48.4246 28.5653C46.6228 25.7405 46.2279 20.6575 46.8477 18.5671C46.8477 18.5671 45.9455 18.5671 45.3257 19.3565C45.5506 14.0191 49.2693 11.391 51.0135 11.6743C46.0004 15.1207 47.9146 21.9007 49.774 23.9885C45.5218 12.5214 54.6747 11.3044 55.5194 13.4814C58.5058 9.35829 55.2082 6.13745 51.9419 6.13745C48.6756 6.13745 46.0553 8.96225 44.3659 11.6743C44.0835 10.5438 42.2817 8.93339 40.9009 10.0638C42.4229 10.8271 42.2242 13.6519 42.2242 17.9455C42.2242 23.5557 44.6092 27.9358 49.149 32.1271C49.9492 32.8668 49.115 34.1441 48.116 33.7087C39.9307 30.1495 36.3533 23.1098 36.5912 20.7126C36.9861 22.3518 39.5777 24.9484 41.1546 25.2317C36.9103 22.2364 36.8371 18.1317 38.6206 17.1534C36.7246 15.3829 34.1696 16.4767 33.5525 18.3966C33.0085 17.7199 32.8202 16.419 33.8898 15.6295C31.918 14.2735 31.28 12.448 32.2005 10.3183C26.5126 15.3095 29.0283 22.3518 31.8631 25.2317C24.2035 22.3518 17.2734 25.0612 17.2734 30.202C17.2734 35.3427 22.5115 36.586 25.2155 36.586C24.8965 36.1899 24.6899 35.4188 24.6899 34.5323C24.6899 32.3973 27.0356 30.8603 29.384 31.2747C26.4734 29.6171 23.4503 31.933 23.6961 34.4379C23.2254 33.9474 22.9822 33.3074 22.9822 32.5179C22.9822 28.9771 29.6298 26.3779 36.5938 29.1292C33.0451 31.3901 35.4118 35.306 37.0646 35.306C36.8946 34.6293 37.3261 32.7461 40.3125 32.7461C44.0495 32.7461 48.3671 36.7014 56.2516 36.7014C65.6006 36.7014 68.812 32.8038 68.812 29.2446H68.8172ZM24.682 19.847C24.2845 20.348 24.3682 21.0797 24.8703 21.4784C25.3698 21.8771 26.0994 21.7932 26.4969 21.2896C26.8944 20.7886 26.8107 20.0568 26.3086 19.6582C25.8091 19.2595 25.0795 19.3434 24.682 19.847ZM20.7437 21.9532C21.2432 22.3518 21.9728 22.2679 22.3703 21.7643C22.7678 21.2633 22.6841 20.5316 22.182 20.1329C21.6825 19.7342 20.9529 19.8182 20.5554 20.3217C20.1579 20.8227 20.2416 21.5545 20.7437 21.9532ZM24.3944 17.3396C24.8939 17.7383 25.6235 17.6543 26.021 17.1507C26.4185 16.6498 26.3348 15.918 25.8327 15.5193C25.3332 15.1207 24.6036 15.2046 24.2061 15.7082C23.8086 16.2091 23.8923 16.9409 24.3944 17.3396ZM54.5675 17.8327C54.4184 22.4279 57.533 26.0815 59.7872 26.9103C58.885 25.5543 60.6136 21.5624 64.3689 21.5624C68.1242 21.5624 71.3539 25.1766 71.3539 28.3424C71.3539 31.1934 70.2163 34.9598 66.9239 37.0397L70.3601 39.5104C72.2221 36.7669 73.0249 33.7087 73.0249 31.0964C73.0249 21.4522 63.8067 13.4683 54.5675 17.8353V17.8327ZM124.132 25.2343C126.967 22.3544 129.482 15.3095 123.795 10.3209C124.715 12.448 124.077 14.2761 122.105 15.6321C123.175 16.4242 122.987 17.7225 122.443 18.3992C121.823 16.4793 119.27 15.3856 117.375 17.156C119.158 18.1343 119.082 22.239 114.84 25.2343C116.417 24.9511 119.009 22.3544 119.404 20.7152C119.642 23.1124 116.067 30.1521 107.879 33.7113C106.88 34.1441 106.046 32.8668 106.846 32.1298C111.386 27.9385 113.771 23.5583 113.771 17.9481C113.771 13.6545 113.575 10.8297 115.094 10.0665C113.713 8.93602 111.912 10.5464 111.629 11.6769C109.94 8.96487 107.319 6.14007 104.053 6.14007C100.787 6.14007 97.4918 9.36092 100.476 13.484C101.32 11.3097 110.473 12.5241 106.221 23.9911C108.08 21.9007 109.995 15.1207 104.982 11.6769C106.728 11.3936 110.444 14.0217 110.669 19.3592C110.05 18.5697 109.147 18.5697 109.147 18.5697C109.767 20.6601 109.372 25.7432 107.57 28.5679C107.57 26.9287 106.135 25.8848 106.135 25.8848C106.218 28.0591 104.247 31.2223 102.897 32.2976C102.84 31.4504 102.053 30.7711 102.053 30.7711C101.433 33.0871 99.0871 35.2719 94.9735 35.2719C90.8599 35.2719 88.4357 31.9776 89.6518 29.7036C90.1486 30.1889 90.8259 30.4879 91.5739 30.4879C93.0985 30.4879 94.3328 29.2473 94.3328 27.7208C94.3328 26.1943 93.0958 24.9537 91.5739 24.9537C89.5471 24.9537 87.1805 25.6881 87.1805 29.2473C87.1805 32.8064 90.3918 36.704 99.7408 36.704C107.625 36.704 111.946 32.7487 115.68 32.7487C118.666 32.7487 119.098 34.6319 118.928 35.3086C120.581 35.3086 122.945 31.3927 119.399 29.1319C126.365 26.3831 133.01 28.9797 133.01 32.5206C133.01 33.3127 132.767 33.9526 132.296 34.4405C132.54 31.9357 129.516 29.6197 126.608 31.2773C128.954 30.8629 131.303 32.3999 131.303 34.5349C131.303 35.4188 131.096 36.1925 130.777 36.5886C133.481 36.5886 138.719 35.3454 138.719 30.2046C138.719 25.0638 131.792 22.3518 124.129 25.2343H124.132ZM131.13 21.4784C131.629 21.0797 131.716 20.3506 131.318 19.847C130.921 19.3461 130.194 19.2621 129.692 19.6582C129.192 20.0568 129.108 20.786 129.503 21.2896C129.901 21.7905 130.628 21.8771 131.13 21.4784ZM135.257 21.9532C135.756 21.5545 135.84 20.8253 135.445 20.3217C135.047 19.8182 134.32 19.7342 133.818 20.1329C133.319 20.5316 133.235 21.2607 133.63 21.7643C134.028 22.2653 134.755 22.3492 135.257 21.9532ZM131.606 17.3396C132.105 16.9409 132.189 16.2118 131.794 15.7082C131.397 15.2072 130.67 15.1233 130.168 15.5193C129.668 15.918 129.584 16.6472 129.979 17.1507C130.377 17.6517 131.104 17.7383 131.606 17.3396ZM84.6464 28.3424C84.6464 25.1792 87.8761 21.5624 91.6314 21.5624C95.3867 21.5624 97.1126 25.5543 96.2131 26.9103C98.4673 26.0815 101.582 22.4279 101.433 17.8327C92.1963 13.463 82.9754 21.4496 82.9754 31.0937C82.9754 33.7087 83.7782 36.7643 85.6402 39.5078L89.0764 37.0371C85.784 34.9572 84.6464 31.1908 84.6464 28.3398V28.3424ZM81.9084 25.1268C80.6296 25.3051 79.3273 25.4048 78.0014 25.4048C76.6756 25.4048 75.3707 25.3051 74.0945 25.1268C75.6871 28.5391 75.7865 35.9276 72.6196 41.1313L78.0014 45L83.3833 41.1313C80.2165 35.9276 80.3158 28.5391 81.9084 25.1268Z" fill="#DCC9A8"/>
<path d="M83.9745 12.5162C84.1132 12.5503 84.2256 12.4637 84.2256 12.3247C84.2256 12.1857 84.1132 12.0414 83.9745 12.0047C80.0493 11.0369 75.9488 11.0369 72.0235 12.0047C71.8849 12.0388 71.7725 12.1831 71.7725 12.3247C71.7725 12.4663 71.8849 12.5529 72.0235 12.5162C72.0366 12.5135 72.0523 12.5083 72.0654 12.5057V14.7246C72.0523 14.7272 72.0366 14.7325 72.0235 14.7351C71.8849 14.7692 71.7725 14.9134 71.7725 15.0551C71.7725 15.1967 71.8849 15.2806 72.0235 15.2465C75.9488 14.2787 80.0493 14.2787 83.9745 15.2465C84.1132 15.2806 84.2256 15.1941 84.2256 15.0551C84.2256 14.9161 84.1132 14.7692 83.9745 14.7351C83.9615 14.7325 83.9458 14.7272 83.9327 14.7246V12.5057C83.9458 12.5083 83.9615 12.5135 83.9745 12.5162Z" fill="#DCC9A8"/>
<path d="M78.7549 10.132C79.019 7.10527 79.9735 3.99196 80.5959 3.46477C80.1226 2.79333 78.9955 2.3999 77.9991 2.3999C77.0028 2.3999 75.8783 2.79071 75.4023 3.46477C76.0221 3.99196 76.9792 7.10527 77.2434 10.132C77.7481 10.1163 78.2502 10.1163 78.7549 10.132Z" fill="#DCC9A8"/>
<path d="M73.2003 10.5648C72.7741 8.87043 71.7071 7.74786 72.2955 5.86728C72.7087 4.54537 74.2568 4.00769 75.4336 4.388C75.3029 4.10211 75.0492 3.79 75.0309 3.76639C73.8855 3.45427 72.7714 3.36248 71.6705 4.46669C69.649 6.49414 71.6679 8.88617 72.2929 10.7536C72.5936 10.6854 72.897 10.6225 73.2003 10.5674V10.5648Z" fill="#DCC9A8"/>
<path d="M83.7026 5.86466C84.291 7.74785 83.224 8.87043 82.7978 10.5622C83.1011 10.6199 83.4045 10.6828 83.7052 10.7484C84.3302 8.88092 86.3491 6.48889 84.3276 4.46144C83.2266 3.35723 82.1126 3.44903 80.9672 3.76114C80.9489 3.78475 80.6952 4.09687 80.5645 4.38275C81.7413 4.00244 83.2894 4.54013 83.7026 5.86203V5.86466Z" fill="#DCC9A8"/>
<path d="M77.4418 1.9409H78.5611C78.3597 1.71796 78.242 1.4478 78.2028 1.16978C78.48 1.20913 78.7494 1.32715 78.9717 1.52911V0.409161C78.7494 0.611119 78.4826 0.729147 78.2028 0.768489C78.242 0.490469 78.3597 0.220317 78.5611 -0.00262451H77.4418C77.6432 0.220317 77.7609 0.487846 77.8001 0.768489C77.5229 0.729147 77.2535 0.611119 77.0312 0.409161V1.53173C77.2535 1.32978 77.5229 1.21175 77.8001 1.17241C77.7609 1.45043 77.6432 1.72058 77.4418 1.94352V1.9409Z" fill="#DCC9A8"/>
<path d="M9.89639 10.8769C7.96645 10.1792 6.43399 8.64226 5.7436 6.70923C5.68084 6.53612 5.52132 6.42334 5.33565 6.42334C5.16044 6.42334 5.00091 6.53612 4.93815 6.70923C4.24776 8.64226 2.71531 10.1819 0.787976 10.8769C0.612764 10.9372 0.50293 11.0946 0.50293 11.2782C0.50293 11.4618 0.612764 11.6166 0.787976 11.6795C2.71531 12.3719 4.25038 13.9115 4.93815 15.8446C5.00353 16.0203 5.16305 16.1305 5.33565 16.1305C5.52132 16.1305 5.68084 16.0203 5.7436 15.8446C6.43661 13.9115 7.96645 12.3693 9.89639 11.6795C10.069 11.6139 10.1788 11.4618 10.1788 11.2782C10.1788 11.0946 10.069 10.9372 9.89639 10.8769Z" fill="#DCC9A8"/>
<path d="M15.1 38.498C14.0226 38.1098 13.1701 37.2521 12.7831 36.1742C12.7491 36.0771 12.6602 36.0142 12.5555 36.0142C12.4588 36.0142 12.3699 36.0771 12.3333 36.1742C11.9488 37.2521 11.0937 38.1098 10.0189 38.498C9.92214 38.5321 9.85938 38.6186 9.85938 38.7209C9.85938 38.8232 9.91952 38.9098 10.0189 38.9439C11.0937 39.3294 11.9488 40.1897 12.3333 41.2677C12.3699 41.3647 12.4588 41.4277 12.5555 41.4277C12.6602 41.4277 12.7491 41.3674 12.7831 41.2677C13.1701 40.1897 14.0226 39.3294 15.1 38.9439C15.1968 38.9071 15.257 38.8232 15.257 38.7209C15.257 38.6186 15.1968 38.5295 15.1 38.498Z" fill="#DCC9A8"/>
<path d="M145.821 11.2782C145.821 11.4618 145.931 11.6166 146.104 11.6795C148.034 12.3719 149.563 13.9115 150.257 15.8446C150.319 16.0203 150.479 16.1305 150.664 16.1305C150.84 16.1305 150.999 16.0203 151.062 15.8446C151.752 13.9115 153.285 12.3693 155.212 11.6795C155.387 11.6139 155.497 11.4618 155.497 11.2782C155.497 11.0946 155.387 10.9372 155.212 10.8769C153.285 10.1792 151.75 8.64226 151.062 6.70923C150.997 6.53612 150.837 6.42334 150.664 6.42334C150.479 6.42334 150.319 6.53612 150.257 6.70923C149.563 8.64226 148.034 10.1819 146.104 10.8769C145.931 10.9372 145.821 11.0946 145.821 11.2782Z" fill="#DCC9A8"/>
<path d="M140.743 38.7235C140.743 38.8258 140.803 38.9124 140.9 38.9465C141.977 39.332 142.83 40.1923 143.217 41.2703C143.251 41.3674 143.34 41.4303 143.445 41.4303C143.541 41.4303 143.63 41.37 143.667 41.2703C144.051 40.1923 144.906 39.332 145.981 38.9465C146.078 38.9098 146.141 38.8258 146.141 38.7235C146.141 38.6213 146.081 38.5321 145.981 38.5006C144.906 38.1124 144.051 37.2548 143.667 36.1768C143.63 36.0797 143.541 36.0168 143.445 36.0168C143.34 36.0168 143.251 36.0797 143.217 36.1768C142.833 37.2548 141.977 38.1124 140.9 38.5006C140.803 38.5347 140.743 38.6213 140.743 38.7235Z" fill="#DCC9A8"/>
</g>
<defs>
<clipPath id="clip0_4051_7462">
<rect width="155" height="45" fill="white" transform="translate(0.5)"/>
</clipPath>
</defs>
</svg>
